<?xml version="1.0" encoding="utf-8"?>
<!-- Generator: Adobe Illustrator 27.1.1, SVG Export Plug-In . SVG Version: 6.00 Build 0)  -->
<svg version="1.1" id="Слой_6" xmlns="http://www.w3.org/2000/svg" xmlns:xlink="http://www.w3.org/1999/xlink" x="0px" y="0px"
	 viewBox="0 0 27.2 20" style="enable-background:new 0 0 27.2 20;" xml:space="preserve">
<style type="text/css">
	.st0{fill:#B71414;}
	.st1{fill:#F94141;}
</style>
<g id="Слой_2_00000102522393160885826990000002081114804580641717_">
	
		<g transform="matrix(0.17903053760528564,0.00866029504686594,-0.00866029504686594,0.17903053760528564,1411.408935546875,337.32000732421875)">
		<g transform="matrix(1,0,0,1,1250,1250)">
			<path class="st0" d="M-9173.9-2736.3c-0.3,0-0.6,0.3-0.6,0.6l1.9,36.3c0,0.3,0.3,0.6,0.6,0.6l6.5-0.3c0.3,0,0.6,0.2,0.6,0.6
				l0.3,6.3c0,0.3,0.3,0.6,0.6,0.6l6.5-0.3c0.3,0,0.6,0.2,0.6,0.6l0.3,6.8c0,0.3,0.3,0.6,0.6,0.6l5.9-0.3c0.3,0,0.6,0.2,0.6,0.6
				l0.3,6.1c0,0.3,0.3,0.6,0.6,0.6l6.6-0.3c0.3,0,0.6,0.2,0.6,0.6l0.3,7.1c0,0.3,0.3,0.6,0.6,0.6l5.9-0.3c0.3,0,0.6,0.2,0.6,0.6
				l0.3,6.1c0,0.3,0.3,0.6,0.6,0.6l6.1-0.3c0.3,0,0.6,0.2,0.6,0.6l0.3,6.5c0,0.3,0.3,0.6,0.6,0.6l7.5-0.4c0.3,0,0.6,0.2,0.6,0.6
				l0.3,5.9c0,0.3,0.3,0.6,0.6,0.6l5.9-0.3c0.3,0,0.6,0,0.6,0l0,0c0,0,0.3,0,0.6,0l5.9-0.3c0.3,0,0.6-0.3,0.6-0.6l-0.3-5.9
				c0-0.3,0.2-0.6,0.6-0.6l7.5-0.4c0.3,0,0.6-0.3,0.6-0.6l-0.3-6.5c0-0.3,0.2-0.6,0.6-0.6l6.1-0.3c0.3,0,0.6-0.3,0.6-0.6l-0.3-6.1
				c0-0.3,0.2-0.6,0.6-0.6l5.9-0.3c0.3,0,0.6-0.3,0.6-0.6l-0.3-7.1c0-0.3,0.2-0.6,0.6-0.6l6.6-0.3c0.3,0,0.6-0.3,0.6-0.6l-0.3-6.1
				c0-0.3,0.2-0.6,0.6-0.6l5.9-0.3c0.3,0,0.6-0.3,0.6-0.6l-0.3-6.8c0-0.3,0.2-0.6,0.6-0.6l6.5-0.3c0.3,0,0.6-0.3,0.6-0.6l-0.3-6.3
				c0-0.3,0.2-0.6,0.6-0.6l6.5-0.3c0.3,0,0.6-0.3,0.6-0.6l-1.9-36.3c0-0.3-0.3-0.6-0.6-0.6l-6.5,0.3c-0.3,0-0.6-0.2-0.6-0.6
				l-0.3-6.3c0-0.3-0.3-0.6-0.6-0.6l-6.4,0.3c-0.3,0-0.6-0.2-0.6-0.6l-0.3-6.7c0-0.3-0.3-0.6-0.6-0.6l-29.1,1.4
				c-0.3,0-0.6,0.3-0.6,0.6l0.3,6.7c0,0.3-0.2,0.6-0.6,0.6l-6.2,0.3c-0.3,0-0.6,0.3-0.6,0.6l0.3,6.3c0,0.3-0.2,0.6-0.6,0.6l-6.1,0.3
				c-0.3,0-0.6,0-0.6,0l0,0c0,0-0.3,0-0.6,0l-6.1,0.3c-0.3,0-0.6-0.2-0.6-0.6l-0.3-6.3c0-0.3-0.3-0.6-0.6-0.6l-6.2,0.3
				c-0.3,0-0.6-0.2-0.6-0.6l-0.3-6.7c0-0.3-0.3-0.6-0.6-0.6l-29.1,1.4c-0.3,0-0.6,0.3-0.6,0.6l0.3,6.7c0,0.3-0.2,0.6-0.6,0.6
				l-6.4,0.3c-0.3,0-0.6,0.3-0.6,0.6l0.3,6.3c0,0.3-0.2,0.6-0.6,0.6L-9173.9-2736.3z"/>
		</g>
	</g>
	
		<g transform="matrix(0.17903053760528564,0.00866029504686594,-0.00866029504686594,0.17903053760528564,1411.6978759765625,357.8424987792969)">
		<g transform="matrix(1,0,0,1,1250,1250)">
			<path class="st0" d="M-9181.2-2844.3c-0.3,0-0.6,0.3-0.6,0.6l1.9,36.3c0,0.3,0.3,0.6,0.6,0.6l6.5-0.3c0.3,0,0.6,0.2,0.6,0.6
				l0.3,6.3c0,0.3,0.3,0.6,0.6,0.6l6.5-0.3c0.3,0,0.6,0.2,0.6,0.6l0.3,6.8c0,0.3,0.3,0.6,0.6,0.6l5.9-0.3c0.3,0,0.6,0.2,0.6,0.6
				l0.3,6.1c0,0.3,0.3,0.6,0.6,0.6l6.6-0.3c0.3,0,0.6,0.2,0.6,0.6l0.3,7.1c0,0.3,0.3,0.6,0.6,0.6l5.9-0.3c0.3,0,0.6,0.2,0.6,0.6
				l0.3,6.1c0,0.3,0.3,0.6,0.6,0.6l6.1-0.3c0.3,0,0.6,0.2,0.6,0.6l0.3,6.5c0,0.3,0.3,0.6,0.6,0.6l7.5-0.4c0.3,0,0.6,0.2,0.6,0.6
				l0.3,5.9c0,0.3,0.3,0.6,0.6,0.6l5.9-0.3c0.3,0,0.6,0,0.6,0l0,0c0,0,0.3,0,0.6,0l5.9-0.3c0.3,0,0.6-0.3,0.6-0.6l-0.3-5.9
				c0-0.3,0.2-0.6,0.6-0.6l7.5-0.4c0.3,0,0.6-0.3,0.6-0.6l-0.3-6.5c0-0.3,0.2-0.6,0.6-0.6l6.1-0.3c0.3,0,0.6-0.3,0.6-0.6l-0.3-6.1
				c0-0.3,0.2-0.6,0.6-0.6l5.9-0.3c0.3,0,0.6-0.3,0.6-0.6l-0.3-7.1c0-0.3,0.2-0.6,0.6-0.6l6.6-0.3c0.3,0,0.6-0.3,0.6-0.6l-0.3-6.1
				c0-0.3,0.2-0.6,0.6-0.6l5.9-0.3c0.3,0,0.6-0.3,0.6-0.6l-0.3-6.8c0-0.3,0.2-0.6,0.6-0.6l6.5-0.3c0.3,0,0.6-0.3,0.6-0.6l-0.3-6.3
				c0-0.3,0.2-0.6,0.6-0.6l6.5-0.3c0.3,0,0.6-0.3,0.6-0.6l-1.9-36.3c0-0.3-0.3-0.6-0.6-0.6l-6.5,0.3c-0.3,0-0.6-0.2-0.6-0.6
				l-0.3-6.3c0-0.3-0.3-0.6-0.6-0.6l-6.4,0.3c-0.3,0-0.6-0.2-0.6-0.6l-0.3-6.7c0-0.3-0.3-0.6-0.6-0.6l-29.1,1.4
				c-0.3,0-0.6,0.3-0.6,0.6l0.3,6.7c0,0.3-0.2,0.6-0.6,0.6l-6.2,0.3c-0.3,0-0.6,0.3-0.6,0.6l0.3,6.3c0,0.3-0.2,0.6-0.6,0.6l-6.1,0.3
				c-0.3,0-0.6,0-0.6,0l0,0c0,0-0.3,0-0.6,0l-6.1,0.3c-0.3,0-0.6-0.2-0.6-0.6l-0.3-6.3c0-0.3-0.3-0.6-0.6-0.6l-6.2,0.3
				c-0.3,0-0.6-0.2-0.6-0.6l-0.3-6.7c0-0.3-0.3-0.6-0.6-0.6l-29.1,1.4c-0.3,0-0.6,0.3-0.6,0.6l0.3,6.7c0,0.3-0.2,0.6-0.6,0.6
				l-6.4,0.3c-0.3,0-0.6,0.3-0.6,0.6l0.3,6.3c0,0.3-0.2,0.6-0.6,0.6L-9181.2-2844.3z"/>
		</g>
	</g>
	
		<g transform="matrix(0.17903053760528564,0.00866029504686594,-0.00866029504686594,0.17903053760528564,1438.043212890625,357.78936767578125)">
		<g transform="matrix(1,0,0,1,1250,1250)">
			<path class="st1" d="M-9336-2836.9c-0.3,0-0.6,0.3-0.6,0.6l1.9,36.3c0,0.3,0.3,0.6,0.6,0.6l6.5-0.3c0.3,0,0.6,0.2,0.6,0.6
				l0.3,6.3c0,0.3,0.3,0.6,0.6,0.6l6.5-0.3c0.3,0,0.6,0.2,0.6,0.6l0.3,6.8c0,0.3,0.3,0.6,0.6,0.6l5.9-0.3c0.3,0,0.6,0.2,0.6,0.6
				l0.3,6.1c0,0.3,0.3,0.6,0.6,0.6l6.6-0.3c0.3,0,0.6,0.2,0.6,0.6l0.3,7.1c0,0.3,0.3,0.6,0.6,0.6l5.9-0.3c0.3,0,0.6,0.2,0.6,0.6
				l0.3,6.1c0,0.3,0.3,0.6,0.6,0.6l6.1-0.3c0.3,0,0.6,0.2,0.6,0.6l0.3,6.5c0,0.3,0.3,0.6,0.6,0.6l7.5-0.4c0.3,0,0.6,0.2,0.6,0.6
				l0.3,5.9c0,0.3,0.3,0.6,0.6,0.6l5.9-0.3c0.3,0,0.6,0,0.6,0l0,0c0,0,0.3,0,0.6,0l5.9-0.3c0.3,0,0.6-0.3,0.6-0.6l-0.3-5.9
				c0-0.3,0.2-0.6,0.6-0.6l7.5-0.4c0.3,0,0.6-0.3,0.6-0.6l-0.3-6.5c0-0.3,0.2-0.6,0.6-0.6l6.1-0.3c0.3,0,0.6-0.3,0.6-0.6l-0.3-6.1
				c0-0.3,0.2-0.6,0.6-0.6l5.9-0.3c0.3,0,0.6-0.3,0.6-0.6l-0.3-7.1c0-0.3,0.2-0.6,0.6-0.6l6.6-0.3c0.3,0,0.6-0.3,0.6-0.6l-0.3-6.1
				c0-0.3,0.2-0.6,0.6-0.6l5.9-0.3c0.3,0,0.6-0.3,0.6-0.6l-0.3-6.8c0-0.3,0.2-0.6,0.6-0.6l6.5-0.3c0.3,0,0.6-0.3,0.6-0.6l-0.3-6.3
				c0-0.3,0.2-0.6,0.6-0.6l6.5-0.3c0.3,0,0.6-0.3,0.6-0.6l-1.9-36.3c0-0.3-0.3-0.6-0.6-0.6l-6.5,0.3c-0.3,0-0.6-0.2-0.6-0.6
				l-0.3-6.3c0-0.3-0.3-0.6-0.6-0.6l-6.4,0.3c-0.3,0-0.6-0.2-0.6-0.6l-0.3-6.7c0-0.3-0.3-0.6-0.6-0.6l-29.1,1.4
				c-0.3,0-0.6,0.3-0.6,0.6l0.3,6.7c0,0.3-0.2,0.6-0.6,0.6l-6.2,0.3c-0.3,0-0.6,0.3-0.6,0.6l0.3,6.3c0,0.3-0.2,0.6-0.6,0.6l-6.1,0.3
				c-0.3,0-0.6,0-0.6,0l0,0c0,0-0.3,0-0.6,0l-6.1,0.3c-0.3,0-0.6-0.2-0.6-0.6l-0.3-6.3c0-0.3-0.3-0.6-0.6-0.6l-6.2,0.3
				c-0.3,0-0.6-0.2-0.6-0.6l-0.3-6.7c0-0.3-0.3-0.6-0.6-0.6l-29.1,1.4c-0.3,0-0.6,0.3-0.6,0.6l0.3,6.7c0,0.3-0.2,0.6-0.6,0.6
				l-6.4,0.3c-0.3,0-0.6,0.3-0.6,0.6l0.3,6.3c0,0.3-0.2,0.6-0.6,0.6L-9336-2836.9z"/>
		</g>
	</g>
</g>
</svg>
