<?xml version="1.0" encoding="utf-8"?>
<!-- Generator: Adobe Illustrator 27.1.1, SVG Export Plug-In . SVG Version: 6.00 Build 0)  -->
<svg version="1.1" xmlns="http://www.w3.org/2000/svg" xmlns:xlink="http://www.w3.org/1999/xlink" x="0px" y="0px"
	 viewBox="0 0 80 80" style="enable-background:new 0 0 80 80;" xml:space="preserve">
<style type="text/css">
	.st0{fill:#B7871C;stroke:#000000;stroke-width:1.1308;stroke-miterlimit:10;}
	.st1{fill:#FFC950;stroke:#000000;stroke-width:1.1308;stroke-miterlimit:10;}
	.st2{fill:#66644B;stroke:#000000;stroke-width:0.7947;stroke-miterlimit:10;}
	.st3{fill:#8F8B6F;}
	.st4{fill:#2D2917;}
	.st5{fill:#4F4C36;}
	.st6{fill:#220600;}
	.st7{fill:#180601;}
	.st8{fill:#592B12;}
	.st9{fill:#66644B;}
</style>
<g id="Слой_2">
	<path class="st0" d="M65.9,75.7H19.8c-7.3,0-13.2-5.9-13.2-13.2V16.3c0-7.3,5.9-13.2,13.2-13.2h46.1c7.3,0,13.2,5.9,13.2,13.2v46.1
		C79.1,69.8,73.2,75.7,65.9,75.7z"/>
</g>
<g id="Слой_2__x28_копия_x29_">
	<path class="st1" d="M60.4,75.7H14.2C7,75.7,1.1,69.8,1.1,62.5V16.3C1.1,9.1,7,3.2,14.2,3.2h46.1c7.3,0,13.2,5.9,13.2,13.2v46.1
		C73.6,69.8,67.7,75.7,60.4,75.7z"/>
</g>
<g id="Слой_3">
	<g>
		<path class="st2" d="M62.5,44c0.3-3.7-0.9-8.4-0.9-8.4s0.7-1.9-1.3-7c-2-5-5.5-6.9-5.5-6.9c-3.3-4.1-15-6.9-17.1-7.3v-0.1
			c0,0-0.1,0-0.2,0c-0.1,0-0.2,0-0.2,0v0.1c-2.1,0.5-13.8,3.2-17.1,7.3c0,0-3.4,1.8-5.5,6.9c-2,5-1.3,7-1.3,7s-1.2,4.7-0.9,8.4
			c0,0-0.7,4.2-0.1,8.3c0,0-0.3,4.6,0.8,7.9c1.1,3.3,6.3,2.1,6.3,2.1s-0.1,2.3,0.5,4.8c0.6,2.4,15.6,2.2,17.3,2.2
			c1.7,0,16.7,0.2,17.3-2.2c0.6-2.5,0.5-4.8,0.5-4.8s5.2,1.2,6.3-2.1c1.1-3.3,0.8-7.9,0.8-7.9C63.3,48.2,62.5,44,62.5,44z"/>
		<path class="st3" d="M52.2,32.2c0,0-0.3,4.4,0,5.5s-0.4,1.8-1.2,1.9c-0.8,0.1-1.5-0.7-2.7-0.6c-1.2,0.2-1.5,0.4-2.8,0.4
			c-1.3,0-2.6,0.3-2.8-0.2c-0.2-0.5,0.3-1,1.4-1.3c1-0.3,3-2.5,4.4-3.6c1.3-1,3.1-3.4,3.5-3.5C52.3,30.8,52.2,32.2,52.2,32.2z"/>
		<path class="st3" d="M52.3,42.2c0,0,0.2,2.5,0.4,4.6c0.2,2.1-0.2,2.4-0.8,2.5c-0.5,0.1-1.1,0.1-1.2-0.9c-0.1-1-0.5-6-0.3-6.3
			c0.2-0.3,0.8-0.4,1.1-0.4C51.9,41.6,52.4,41.7,52.3,42.2z"/>
		<path class="st3" d="M47.5,41.8c0,0,0.8,5.7,0.6,6.4C47.9,49,46,49,44.9,49c-1.1-0.1-3.2,0.5-3.6,0c-0.4-0.4-0.4-1.9-0.5-3
			c-0.1-1.1-1.2-1.7-1-2.5c0.2-0.8,0.7-1.6,1.5-1.7c0.9-0.2,4-0.2,4.4-0.2c0.3,0,0.1,0.7,0.8,0.9s0.7-0.8,0.8-0.9
			C47.2,41.5,47.4,41.5,47.5,41.8z"/>
		<path class="st3" d="M51.1,51.7c0,0,0.6,6.5,1.1,7.5c0.5,1.1,1,0.3,0.9-2.5c-0.1-2.7,0-5.3-0.3-5.4c-0.4-0.1-0.8,0.1-1,0
			c-0.3-0.1-0.6-0.3-0.6,0.1"/>
		<path class="st3" d="M48.7,51.4c0,0,0.4,3.8,0.8,5.9c0.3,2.1-0.4,2.6-2.3,2.6c-1.8,0-2.5-0.1-4.3,0.3c-1.7,0.4-1.9-0.5-1.8-1.5
			c0.1-1-0.3-6.3,0-6.6c0.3-0.3,0.5-0.4,1-0.3c0.5,0.1,0.5,2.6,1.1,2c0.6-0.6-0.3-1.4,0.6-2c0.9-0.5,2.6-0.5,3-0.4
			c0.4,0.1,0.2,1.1,0.9,1.1c0.6,0,0.2-1,0.5-1.2C48.4,51.1,48.6,51.1,48.7,51.4z"/>
		<path class="st3" d="M54.2,65.8c0,0,0.1-2.7-0.5-3.2c-0.5-0.4-1.4,0.1-3.6,0.2c-2.2,0-8.3-0.7-8.9-0.2c-0.5,0.5-0.7,4.2-0.5,5
			c0.2,0.9,5.6,0.4,7.1,0.4c1.5,0,1.7-0.9,2.3-0.9s0,0.6,1.2,0.6s2-0.1,2.2-0.3C53.8,67.2,54.2,66.9,54.2,65.8z"/>
		<path d="M27.7,26.4c0,0,4.7-3.3,9.9-3.8C42.8,22,48.4,27,48.4,27s-8,15.4-10,15.1C36.5,41.7,27.7,26.4,27.7,26.4z"/>
		<path class="st4" d="M21.3,22.9c0,0,0.9,3.4,0.9,6.5c0,3.1-0.4,6.9-0.5,10c-0.1,3.1,0.2,16.3,0,18.7c-0.2,2.5-1.2,3.1-1.2,3.1
			s-0.3-6-1.1-6.9c-0.8-0.8-3.1-0.6-3.8-1.2c-0.7-0.5,3.7-0.3,4.2-0.5c0.5-0.1,1-4.5,0.2-5.8c-0.8-1.3-3.9-1.6-4.9-1.9
			c-1-0.3,0.3-0.8,2.5-0.5c2.3,0.3,2.6-1.4,2.6-3.2s-0.4-3.5-1.4-4c-1-0.5-3.3-0.8-3.8-1.5c-0.5-0.7,4.4,0.8,5.1,0.2
			c0.7-0.5,1-7.3,0.7-9.3C20.8,24.8,20.6,22.9,21.3,22.9z"/>
		<path class="st4" d="M54.2,22.9c0,0-0.9,3.4-0.9,6.5c0,3.1,0.4,6.9,0.5,10c0.1,3.1-0.2,16.3,0,18.7c0.2,2.5,1.2,3.1,1.2,3.1
			s0.3-6,1.1-6.9s3.1-0.6,3.8-1.2c0.7-0.5-3.7-0.3-4.2-0.5c-0.5-0.1-1-4.5-0.2-5.8c0.8-1.3,3.9-1.6,4.9-1.9c1-0.3-0.3-0.8-2.5-0.5
			c-2.3,0.3-2.6-1.4-2.6-3.2s0.4-3.5,1.4-4c1-0.5,3.3-0.8,3.8-1.5c0.5-0.7-4.4,0.8-5.1,0.2s-1-7.3-0.7-9.3
			C54.7,24.8,54.9,22.9,54.2,22.9z"/>
		<path class="st4" d="M22.8,61.2c0,0,11.8,0.2,12.7,0C36.5,60.9,24,58.8,22.8,61.2z"/>
		<path class="st4" d="M41.1,61.2c0,0,11.8,0.2,12.7,0C54.8,60.9,42.4,58.8,41.1,61.2z"/>
		<path class="st4" d="M35.6,69.2c0,0-0.9-19.6,0-23.1c0.9-3.5,10.8-15.2,13-20c2.2-4.8,0.8-8,0.8-8s4.3-1.4,5.8-1.1
			c1.5,0.3,1.6,3.7,1.6,3.7l-4.3,2.2c0,0,2.1,1.3,2.3,4.1c0,0-17.6,18-17.9,22.7c-0.3,4.7-0.2,19.5-0.2,19.5L35.6,69.2z"/>
		<path class="st5" d="M39.7,44.5v24.7l-2.9,0c0,0-0.7-18.3,0.3-20.5C38,46.5,39.7,44.5,39.7,44.5z"/>
		<path class="st4" d="M38.1,41.5c0,0,0.2-4-4-6.8c-4.2-2.8-8.7-15.1-8.3-16.6c0,0-3.4-0.9-6,0c-2.6,0.9,0,4,0,4l4.9,0.8
			c0,0-1.9,2.4-1.9,4.6c0,2.3,12.9,10.8,14.2,15.6C37.1,43.1,38.3,43.2,38.1,41.5z"/>
		<path class="st4" d="M23.1,39.5c0.7,0,0.7,0.5,2.6,0c2-0.5,2.4,0.2,4.8,0.1c2.4-0.1,3.8,0,4.2,0.6c0.4,0.6-6.7-0.1-8.8,0.3
			C22.9,41.1,21.5,39.6,23.1,39.5z"/>
		<path class="st4" d="M22.9,49.3c0.7,0,0.7,0.5,2.6,0s2.4,0.2,4.8,0.1c2.4-0.1,3.8,0,4.2,0.6c0.4,0.6-6.7-0.1-8.8,0.3
			C22.8,50.8,21.3,49.4,22.9,49.3z"/>
		<path class="st4" d="M41.1,49.3c0.7,0,0.7,0.5,2.6,0c2-0.5,2.4,0.2,4.8,0.1c2.4-0.1,3.8,0,4.2,0.6c0.4,0.6-6.7-0.1-8.8,0.3
			C40.9,50.8,39.5,49.4,41.1,49.3z"/>
		<path class="st4" d="M41.1,39.5c0.7,0,0.7,0.5,2.6,0c2-0.5,2.4,0.2,4.8,0.1c2.4-0.1,3.8,0,4.2,0.6c0.4,0.6-6.7-0.1-8.8,0.3
			C40.9,41.1,39.5,39.6,41.1,39.5z"/>
		<path class="st4" d="M24.3,56.8c0,0,1.5-8.8,1.5-11.7c0-2.9,0.2-3.4,0.9-3.3c0.7,0.1-0.8,10.4-1.2,13.8c-0.4,3.4-0.9,2.9-1.2,2.9
			C24,58.4,24.1,57.9,24.3,56.8z"/>
		<path class="st4" d="M51,56.8c0,0-1.5-8.8-1.5-11.7c0-2.9-0.2-3.4-0.9-3.3c-0.7,0.1,0.8,10.4,1.2,13.8c0.4,3.4,0.9,2.9,1.2,2.9
			C51.3,58.4,51.1,57.9,51,56.8z"/>
		<path class="st4" d="M52.9,12.9c-3.2-1.2-10-3.4-14.8-3.3c-4.9-0.1-11.7,2.1-14.8,3.3c-1.1,0.4-1.6,1.6-1.2,2.7
			c1.5,3.6,5.5,8.6,5.5,8.6c3.9-3.8,9.7-4.4,10.6-4.4c0.9,0.1,6.6,0.7,10.6,4.4c0,0,3.9-5,5.5-8.6C54.5,14.6,53.9,13.3,52.9,12.9z"
			/>
		<path class="st5" d="M38.1,41.4c0,0-12.1-13.8-12.5-16.1c-0.5-2.3,1.7-4.1,1.7-4.1S35.7,28.4,38.1,41.4z"/>
		<path class="st6" d="M56,17.1c0.1,0,0.2-0.4,0.2-0.4l-0.8-0.2c0,0,0-0.6-0.1-0.8c-0.1-0.2-0.4-0.4-0.4-0.4V15h-0.7
			c0,0,0.1-0.6-0.4-0.9c-0.5-0.3-1.2-0.2-1.2-0.2c0-0.3-0.5-0.4-0.5-0.4v-0.3l-0.5,0.2v-0.4l-0.5,0.2c0,0-0.2-0.4-0.6-0.5
			c-0.4-0.1-0.7-0.1-0.7-0.1l-0.1-0.3L49,12.4L49,12l-0.6,0.3c0,0-0.3-0.4-1.1-0.6c-0.7-0.2-1.1-0.2-1.1-0.2l-0.1-0.2l-0.6,0.2
			l-0.1-0.3l-0.5,0.2c0,0-0.4-0.3-0.8-0.4c-0.4-0.1-0.8,0.1-0.8,0.1l-0.2-0.5L42.4,11l-0.3-0.4l-0.9,0.4c0,0-0.4-0.2-1.1-0.2
			c-0.7-0.1-1.3,0.1-1.3,0.1l-0.4-0.4l-0.5,0.5c0,0-0.5-0.2-1.2-0.1c-0.7,0.1-1.1,0.2-1.1,0.2l-0.9-0.4L34.4,11l-0.7-0.4L33.4,11
			c0,0-0.4-0.1-0.8-0.1c-0.4,0.1-0.8,0.4-0.8,0.4l-0.5-0.2l-0.1,0.3l-0.6-0.2l-0.1,0.2c0,0-0.4,0-1.1,0.2c-0.7,0.2-1.1,0.6-1.1,0.6
			L27.8,12l-0.1,0.4l-0.7-0.1L27,12.6c0,0-0.3-0.1-0.7,0.1c-0.4,0.1-0.6,0.5-0.6,0.5l-0.5-0.2v0.4l-0.5-0.2v0.3c0,0-0.5,0.2-0.5,0.4
			c0,0-0.7-0.1-1.2,0.2c-0.5,0.3-0.4,0.9-0.4,0.9H22v0.3c0,0-0.3,0.2-0.4,0.4c-0.1,0.2-0.1,0.8-0.1,0.8l-0.8,0.2
			c0,0,0.2,0.3,0.2,0.4c0.1,0,0.3,0,0,0.4s0.4,0.2,0.4,0.2S21,18.6,21,18.9c0.1,0.4,0.8,0.6,0.8,0.6l0,0.3h0.5v0.6h0.4
			c0,0,0.2,0.5,0.5,0.6c0.3,0.2,0.6-0.2,0.6-0.2l0.1,0.6l0.5-0.1c0,0,0,0.9,0.8,0.8c0.8-0.1,1-0.5,1-0.5l0.3,0.3l0.3-0.6l0.6,0.1
			v-0.3c0,0,0.3,0.2,0.7,0.1c0.5-0.1,0.7-0.6,0.7-0.6l0.5,0.1l0.2-0.5c0,0,0.6,0.2,1.1-0.2c0.5-0.4,0.7-0.7,0.7-0.7l0.5,0.1l0.3-0.4
			l0.3,0.1l0.2-0.4c0,0,0.2,0.3,0.7,0.4c0.5,0.1,0.9-0.4,0.9-0.4l0.3,0.2l0.3-0.5c0,0,0.4,0.3,0.8,0.3c0.4,0,0.7-0.4,0.7-0.4
			l0.6,0.3l0.3-0.4l0.3,0.3l0.4-0.5l0.4,0.5l0.3-0.3l0.3,0.4l0.6-0.3c0,0,0.4,0.4,0.7,0.4c0.4,0,0.8-0.3,0.8-0.3l0.3,0.5l0.3-0.2
			c0,0,0.4,0.4,0.9,0.4c0.5-0.1,0.7-0.4,0.7-0.4L44,19l0.3-0.1l0.3,0.4l0.5-0.1c0,0,0.2,0.4,0.7,0.7c0.5,0.4,1.1,0.2,1.1,0.2
			l0.2,0.5l0.5-0.1c0,0,0.3,0.5,0.7,0.6c0.5,0.1,0.7-0.1,0.7-0.1v0.3l0.6-0.1l0.3,0.6l0.3-0.3c0,0,0.1,0.4,1,0.5
			c0.8,0.1,0.8-0.8,0.8-0.8l0.5,0.1l0.1-0.6c0,0,0.4,0.4,0.6,0.2c0.3-0.2,0.5-0.6,0.5-0.6h0.4v-0.6h0.5l0-0.3c0,0,0.7-0.2,0.8-0.6
			c0.1-0.4-0.2-1.2-0.2-1.2s0.7,0.2,0.4-0.2C55.7,17.1,55.9,17.1,56,17.1z"/>
		<path class="st7" d="M56,17.1c0.1,0,0.2-0.4,0.2-0.4l-0.4-0.1c0,0.1,0,0.2,0,0.2c-0.1,0.4-0.8,0.6-0.8,0.6l0,0.3h-0.5v0.6H54
			c0,0-0.2,0.5-0.5,0.6c-0.3,0.2-0.6-0.2-0.6-0.2l-0.1,0.6l-0.5-0.1c0,0,0,0.9-0.8,0.8c-0.8-0.1-1-0.5-1-0.5l-0.3,0.3l-0.3-0.6
			l-0.6,0.1V19c0,0-0.3,0.2-0.7,0.1c-0.5-0.1-0.7-0.6-0.7-0.6l-0.5,0.1L47,18.1c0,0-0.6,0.2-1.1-0.2c-0.5-0.4-0.7-0.7-0.7-0.7
			l-0.5,0.1l-0.3-0.4L44,17l-0.2-0.4c0,0-0.2,0.3-0.7,0.4c-0.5,0.1-0.9-0.4-0.9-0.4l-0.3,0.2l-0.3-0.5c0,0-0.4,0.3-0.8,0.3
			c-0.4,0-0.7-0.4-0.7-0.4l-0.6,0.3l-0.3-0.4l-0.3,0.3L38.4,16L38,16.5l-0.3-0.3l-0.3,0.4l-0.6-0.3c0,0-0.4,0.4-0.7,0.4
			c-0.4,0-0.8-0.3-0.8-0.3l-0.3,0.5l-0.3-0.2c0,0-0.4,0.4-0.9,0.4c-0.5-0.1-0.7-0.4-0.7-0.4L32.7,17l-0.3-0.1l-0.3,0.4l-0.5-0.1
			c0,0-0.2,0.4-0.7,0.7c-0.5,0.4-1.1,0.2-1.1,0.2l-0.2,0.5l-0.5-0.1c0,0-0.3,0.5-0.7,0.6C28,19.2,27.7,19,27.7,19v0.3L27,19.3
			l-0.3,0.6l-0.3-0.3c0,0-0.1,0.4-1,0.5c-0.8,0.1-0.8-0.8-0.8-0.8L24,19.4l-0.1-0.6c0,0-0.4,0.4-0.6,0.2c-0.3-0.2-0.5-0.6-0.5-0.6
			h-0.4v-0.6h-0.5l0-0.3c0,0-0.7-0.2-0.8-0.6c0-0.1,0-0.1,0-0.2l-0.4,0.1c0,0,0.2,0.3,0.2,0.4c0.1,0,0.3,0,0,0.4s0.4,0.2,0.4,0.2
			S21,18.6,21,18.9c0.1,0.4,0.8,0.6,0.8,0.6l0,0.3h0.5v0.6h0.4c0,0,0.2,0.5,0.5,0.6c0.3,0.2,0.6-0.2,0.6-0.2l0.1,0.6l0.5-0.1
			c0,0,0,0.9,0.8,0.8c0.8-0.1,1-0.5,1-0.5l0.3,0.3l0.3-0.6l0.6,0.1v-0.3c0,0,0.3,0.2,0.7,0.1c0.5-0.1,0.7-0.6,0.7-0.6l0.5,0.1
			l0.2-0.5c0,0,0.6,0.2,1.1-0.2c0.5-0.4,0.7-0.7,0.7-0.7l0.5,0.1l0.3-0.4l0.3,0.1l0.2-0.4c0,0,0.2,0.3,0.7,0.4
			c0.5,0.1,0.9-0.4,0.9-0.4l0.3,0.2l0.3-0.5c0,0,0.4,0.3,0.8,0.3c0.4,0,0.7-0.4,0.7-0.4l0.6,0.3l0.3-0.4l0.3,0.3l0.4-0.5l0.4,0.5
			l0.3-0.3l0.3,0.4l0.6-0.3c0,0,0.4,0.4,0.7,0.4c0.4,0,0.8-0.3,0.8-0.3l0.3,0.5l0.3-0.2c0,0,0.4,0.4,0.9,0.4
			c0.5-0.1,0.7-0.4,0.7-0.4L44,19l0.3-0.1l0.3,0.4l0.5-0.1c0,0,0.2,0.4,0.7,0.7c0.5,0.4,1.1,0.2,1.1,0.2l0.2,0.5l0.5-0.1
			c0,0,0.3,0.5,0.7,0.6c0.5,0.1,0.7-0.1,0.7-0.1v0.3l0.6-0.1l0.3,0.6l0.3-0.3c0,0,0.1,0.4,1,0.5c0.8,0.1,0.8-0.8,0.8-0.8l0.5,0.1
			l0.1-0.6c0,0,0.4,0.4,0.6,0.2c0.3-0.2,0.5-0.6,0.5-0.6h0.4v-0.6h0.5l0-0.3c0,0,0.7-0.2,0.8-0.6c0.1-0.4-0.2-1.2-0.2-1.2
			s0.7,0.2,0.4-0.2C55.7,17.1,55.9,17.1,56,17.1z"/>
		<g>
			<path class="st8" d="M21.7,17.6c0,0,0-0.6,0.1-0.8c0.1-0.2,0.4-0.4,0.4-0.4V16h0.7c0,0-0.1-0.6,0.4-0.9c0.5-0.3,1.2-0.2,1.2-0.2
				c0-0.3,0.5-0.4,0.5-0.4v-0.3l0.5,0.2v-0.4l0.5,0.2c0,0,0.2-0.4,0.6-0.5c0.4-0.1,0.7-0.1,0.7-0.1l0.1-0.3l0.7,0.1l0.1-0.4l0.6,0.3
				c0,0,0.3-0.4,1.1-0.6c0.7-0.2,1.1-0.2,1.1-0.2l0.1-0.2l0.6,0.2l0.1-0.3l0.5,0.2c0,0,0.4-0.3,0.8-0.4s0.8,0.1,0.8,0.1l0.2-0.5
				l0.7,0.4l0.3-0.4l0.9,0.4c0,0,0.4-0.2,1.1-0.2c0.7-0.1,1.2,0.1,1.2,0.1l0.5-0.5l0.4,0.4c0,0,0.5-0.1,1.3-0.1
				c0.7,0.1,1.1,0.2,1.1,0.2l0.9-0.4l0.3,0.4l0.7-0.4l0.2,0.5c0,0,0.4-0.1,0.8-0.1c0.4,0.1,0.8,0.4,0.8,0.4l0.5-0.2l0.1,0.3l0.6-0.2
				l0.1,0.2c0,0,0.4,0,1.1,0.2c0.7,0.2,1.1,0.6,1.1,0.6l0.6-0.3l0.1,0.4l0.7-0.1l0.1,0.3c0,0,0.3-0.1,0.7,0.1
				c0.4,0.1,0.6,0.5,0.6,0.5l0.5-0.2v0.4l0.5-0.2v0.3c0,0,0.5,0.2,0.5,0.4c0,0,0.7-0.1,1.2,0.2c0.5,0.3,0.4,0.9,0.4,0.9h0.7v0.3
				c0,0,0.3,0.2,0.4,0.4c0.1,0.2,0.1,0.8,0.1,0.8l0.4,0.1c0,0,0-0.1-0.1-0.2c-0.3-0.4-0.1-0.4,0-0.4c0.1,0,0.2-0.4,0.2-0.4l-0.8-0.2
				c0,0,0-0.6-0.1-0.8c-0.1-0.2-0.4-0.4-0.4-0.4V15h-0.7c0,0,0.1-0.6-0.4-0.9c-0.5-0.3-1.2-0.2-1.2-0.2c0-0.3-0.5-0.4-0.5-0.4v-0.3
				l-0.5,0.2v-0.4l-0.5,0.2c0,0-0.2-0.4-0.6-0.5c-0.4-0.1-0.7-0.1-0.7-0.1l-0.1-0.3L49,12.4L49,12l-0.6,0.3c0,0-0.3-0.4-1.1-0.6
				c-0.7-0.2-1.1-0.2-1.1-0.2l-0.1-0.2l-0.6,0.2l-0.1-0.3l-0.5,0.2c0,0-0.4-0.3-0.8-0.4c-0.4-0.1-0.8,0.1-0.8,0.1l-0.2-0.5L42.4,11
				l-0.3-0.4l-0.9,0.4c0,0-0.4-0.2-1.1-0.2c-0.7-0.1-1.3,0.1-1.3,0.1l-0.4-0.4l-0.5,0.5c0,0-0.5-0.2-1.2-0.1
				c-0.7,0.1-1.1,0.2-1.1,0.2l-0.9-0.4L34.4,11l-0.7-0.4L33.4,11c0,0-0.4-0.1-0.8-0.1c-0.4,0.1-0.8,0.4-0.8,0.4l-0.5-0.2l-0.1,0.3
				l-0.6-0.2l-0.1,0.2c0,0-0.4,0-1.1,0.2c-0.7,0.2-1.1,0.6-1.1,0.6L27.8,12l-0.1,0.4l-0.7-0.1L27,12.6c0,0-0.3-0.1-0.7,0.1
				c-0.4,0.1-0.6,0.5-0.6,0.5l-0.5-0.2v0.4l-0.5-0.2v0.3c0,0-0.5,0.2-0.5,0.4c0,0-0.7-0.1-1.2,0.2c-0.5,0.3-0.4,0.9-0.4,0.9H22v0.3
				c0,0-0.3,0.2-0.4,0.4c-0.1,0.2-0.1,0.8-0.1,0.8l-0.8,0.2c0,0,0.2,0.3,0.2,0.4c0.1,0,0.3,0,0,0.4c-0.1,0.2-0.1,0.2,0,0.3
				L21.7,17.6z"/>
			<path class="st8" d="M21.5,18.8c0,0-0.3,0.1-0.4,0c0,0.1,0,0.1,0,0.1c0,0.1,0.2,0.3,0.3,0.3C21.4,19,21.5,18.8,21.5,18.8z"/>
			<path class="st8" d="M21.1,18.5c0.2-0.3,0.1-0.4,0.1-0.4C21.1,18.3,21,18.4,21.1,18.5C21,18.6,21,18.6,21.1,18.5z"/>
		</g>
		<path class="st5" d="M38.1,41.5c0,0,13.2-13.2,13.7-15.4c0.5-2.3-1.7-4.1-1.7-4.1S42.4,26.5,38.1,41.5z"/>
		<path class="st9" d="M26.9,22.7c0,0-0.3,0.9,0,2.7c0.3,1.8,9.9,13.9,10,13.7c0-0.2-8.6-12.1-9.2-13.4c-0.7-1.3-0.3-3-0.3-3.2
			C27.3,22.3,27,22.2,26.9,22.7z"/>
		<path class="st3" d="M19.8,23.9c0,0,0.2,2,0.2,4.8c0,2.9-1,3.2-0.8,4.4c0.2,1.2-1.9,1.6-3.6,1.4c-1.8-0.2-1.1-1.9-0.3-4.6
			c0.8-2.6,3.9-6.6,4.1-6.7C19.6,23.2,19.7,23.5,19.8,23.9z"/>
		<path class="st3" d="M14,36.8c0,0,0.7-0.1,2.8,0.7c2.1,0.8,2.3,0.6,2.5,1.7c0.2,1.2,0.3,4,0,4.3c-0.3,0.3-3,0.2-4.4,0.1
			c-1.4,0-1.6-1.1-1.5-1.8c0-0.8,0.4-1.6,0.4-2.4C13.7,38.5,13.7,37.3,14,36.8z"/>
		<path class="st3" d="M13.4,45.6c0,0,2.8,0.3,4.5,1c1.6,0.7,1.9,2.6,2,3.8c0,1.2-1.5,1.6-2.4,1.6c-0.9,0-2.9-0.1-3.5-0.4
			c-0.5-0.3-0.7-1.4-0.6-2.4c0.1-0.9-0.4-2.2-0.4-2.8C13,45.8,13.4,45.6,13.4,45.6z"/>
		<path class="st3" d="M13.8,53.8c0,0,3.1,0.3,4.4,0.8c1.3,0.5,1.9,4.4,1.9,5.3c0.1,0.9-1,1.9-1.4,1.9c-0.5,0-0.7-1.5-1.1-1.5
			s0.2,1.4,0,1.5c-0.2,0.2-1.4-0.1-1.8-0.7c-0.4-0.5-0.6-2-1.1-2c-0.5,0,0.6,1.7,0,1.6c-0.6-0.1-1.1-2-1.2-3.7
			C13.4,55.4,13,53.7,13.8,53.8z"/>
		<path class="st3" d="M56.1,24c0,0-0.2,2-0.2,4.8c0,2.9,0.9,3.2,0.7,4.4c-0.2,1.2,1.8,1.6,3.4,1.4c1.7-0.2,1-1.9,0.3-4.6
			c-0.7-2.6-3.7-6.6-3.9-6.7C56.2,23.2,56.2,23.5,56.1,24z"/>
		<path class="st3" d="M61.5,36.8c0,0-0.7-0.1-2.7,0.7c-2,0.8-2.1,0.6-2.3,1.7c-0.2,1.2-0.3,4,0,4.3c0.3,0.3,2.8,0.2,4.2,0.1
			c1.4,0,1.5-1.1,1.5-1.8c0-0.8-0.4-1.6-0.4-2.4C61.8,38.6,61.9,37.3,61.5,36.8z"/>
		<path class="st3" d="M62.2,45.6c0,0-2.7,0.3-4.2,1c-1.6,0.7-1.8,2.6-1.9,3.8c0,1.2,1.5,1.6,2.3,1.6c0.8,0,2.8-0.1,3.3-0.4
			s0.7-1.4,0.5-2.4c-0.1-0.9,0.4-2.2,0.4-2.8C62.5,45.9,62.2,45.6,62.2,45.6z"/>
		<path class="st3" d="M61.8,53.8c0,0-3,0.3-4.2,0.8c-1.3,0.5-1.8,4.4-1.8,5.3c0,0.9,0.9,1.9,1.4,1.9c0.4,0,0.7-1.5,1.1-1.5
			s-0.2,1.4,0,1.5c0.2,0.2,1.4-0.1,1.7-0.7c0.4-0.5,0.6-2,1-2c0.4,0-0.6,1.7,0,1.6c0.5-0.1,1-2,1.1-3.7
			C62.1,55.5,62.5,53.7,61.8,53.8z"/>
		<path class="st3" d="M23.4,31.8c0,0,0.3,4.4,0,5.5c-0.3,1.1,0.4,1.8,1.2,1.9c0.8,0.1,1.5-0.7,2.7-0.6c1.2,0.2,1.5,0.4,2.8,0.4
			c1.3,0,2.6,0.3,2.8-0.2c0.2-0.5-0.3-1-1.4-1.3c-1-0.3-3-2.5-4.4-3.6c-1.3-1-3.1-3.4-3.5-3.5C23.3,30.3,23.4,31.8,23.4,31.8z"/>
		<path class="st3" d="M23.3,41.8c0,0-0.2,2.5-0.4,4.6c-0.2,2.1,0.2,2.4,0.8,2.5c0.5,0.1,1.1,0.1,1.2-0.9c0.1-1,0.5-6,0.3-6.3
			c-0.2-0.3-0.8-0.4-1.1-0.4C23.7,41.1,23.2,41.3,23.3,41.8z"/>
		<path class="st3" d="M28.1,41.4c0,0-0.8,5.7-0.6,6.4c0.2,0.7,2.1,0.8,3.2,0.7c1.1-0.1,3.2,0.5,3.6,0c0.4-0.4,0.4-1.9,0.5-3
			c0.1-1.1,1.2-1.7,1-2.5c-0.2-0.8-0.7-1.6-1.5-1.7c-0.9-0.2-4-0.2-4.4-0.2c-0.3,0-0.1,0.7-0.8,0.9c-0.7,0.2-0.7-0.8-0.8-0.9
			C28.4,41,28.1,41,28.1,41.4z"/>
		<path class="st3" d="M24.5,51.3c0,0-0.6,6.5-1.1,7.5c-0.5,1.1-1,0.3-0.9-2.5c0.1-2.7,0-5.3,0.3-5.4c0.4-0.1,0.8,0.1,1,0
			c0.3-0.1,0.6-0.3,0.6,0.1"/>
		<path class="st3" d="M26.9,51c0,0-0.4,3.8-0.8,5.9c-0.3,2.1,0.4,2.6,2.3,2.6c1.8,0,2.5-0.1,4.3,0.3c1.7,0.4,1.9-0.5,1.8-1.5
			c-0.1-1,0.3-6.3,0-6.6s-0.5-0.4-1-0.3c-0.5,0.1-0.5,2.6-1.1,2c-0.6-0.6,0.3-1.4-0.6-2c-0.9-0.5-2.6-0.5-3-0.4
			C28.4,51.1,28.6,52,28,52c-0.6,0-0.2-1-0.5-1.2C27.2,50.6,26.9,50.6,26.9,51z"/>
		<path class="st3" d="M21.4,65.3c0,0-0.1-2.7,0.5-3.2c0.5-0.4,1.4,0.1,3.6,0.2c2.2,0,8.3-0.7,8.9-0.2s0.7,4.2,0.5,5
			c-0.2,0.9-5.6,0.4-7.1,0.4c-1.5,0-1.7-0.9-2.3-0.9c-0.6,0,0,0.6-1.2,0.6c-1.3,0-2-0.1-2.2-0.3C21.8,66.8,21.4,66.4,21.4,65.3z"/>
	</g>
</g>
</svg>
