<?xml version="1.0" encoding="utf-8"?>
<!-- Generator: Adobe Illustrator 27.1.1, SVG Export Plug-In . SVG Version: 6.00 Build 0)  -->
<svg version="1.1" xmlns="http://www.w3.org/2000/svg" xmlns:xlink="http://www.w3.org/1999/xlink" x="0px" y="0px"
	 viewBox="0 0 734.3 223.4" style="enable-background:new 0 0 734.3 223.4;" xml:space="preserve">
<style type="text/css">
	.st0{fill:#1E0804;stroke:#000000;stroke-width:1.2484;stroke-linecap:round;stroke-linejoin:round;stroke-miterlimit:10;}
	.st1{fill:#351209;stroke:#000000;stroke-width:1.2484;stroke-linecap:round;stroke-linejoin:round;stroke-miterlimit:10;}
	.st2{fill:none;stroke:#000000;stroke-width:1.2484;stroke-linecap:round;stroke-linejoin:round;stroke-miterlimit:10;}
	.st3{fill:#E6E8E8;stroke:#000000;stroke-width:1.2484;stroke-linecap:round;stroke-linejoin:round;stroke-miterlimit:10;}
	.st4{fill:#606060;}
	.st5{fill:none;stroke:#000000;stroke-miterlimit:10;}
	.st6{fill:#606060;stroke:#000000;stroke-miterlimit:10;}
	.st7{fill:#FFFFFF;stroke:#000000;stroke-width:2.4969;stroke-linecap:round;stroke-linejoin:round;stroke-miterlimit:10;}
	.st8{stroke:#000000;stroke-width:1.2484;stroke-linecap:round;stroke-linejoin:round;stroke-miterlimit:10;}
	.st9{fill:#BCC1C1;stroke:#000000;stroke-width:1.2484;stroke-linecap:round;stroke-linejoin:round;stroke-miterlimit:10;}
	.st10{opacity:0.3;}
	.st11{fill:#FFFFFF;stroke:#000000;stroke-width:0.8551;stroke-linecap:round;stroke-linejoin:round;stroke-miterlimit:10;}
	.st12{fill:#1A2E35;stroke:#1A2E35;stroke-width:0.8551;stroke-linecap:round;stroke-linejoin:round;stroke-miterlimit:10;}
	.st13{fill:#BFBFBF;stroke:#1A2E35;stroke-width:0.8551;stroke-linecap:round;stroke-linejoin:round;stroke-miterlimit:10;}
	.st14{fill:none;stroke:#1A2E35;stroke-width:0.8551;stroke-linecap:round;stroke-linejoin:round;stroke-miterlimit:10;}
	.st15{fill:#FFFFFF;stroke:#1A2E35;stroke-width:0.8551;stroke-linecap:round;stroke-linejoin:round;stroke-miterlimit:10;}
	.st16{fill:#2A3333;stroke:#000000;stroke-width:0.8551;stroke-linecap:round;stroke-linejoin:round;stroke-miterlimit:10;}
	.st17{fill:none;stroke:#000000;stroke-width:0.8551;stroke-linecap:round;stroke-linejoin:round;stroke-miterlimit:10;}
	.st18{fill:#044244;stroke:#000000;stroke-width:0.8551;stroke-linecap:round;stroke-linejoin:round;stroke-miterlimit:10;}
	.st19{fill:#E6E8E8;stroke:#000000;stroke-width:0.8551;stroke-linecap:round;stroke-linejoin:round;stroke-miterlimit:10;}
	.st20{fill:#EF3F3F;}
	.st21{fill:#E6E8E8;}
	.st22{fill:#FFFFFF;}
	.st23{fill:#02020C;}
	.st24{fill:#282828;}
	.st25{fill:#2A3F3F;}
</style>
<g id="Слой_4">
	<g>
		<g>
			<path class="st0" d="M340.9,180.9c0,0-2.8,6.6,2.5,11.9c5.3,5.3,7.2,9.1,7.2,10.6s1.6,5,1.9,7.2c0.3,2.2,1.9,6.9,1.9,6.9l3.1-4.4
				l2.2,5.9c0,0,0-8.1,0.9-12.5c0.9-4.4,0.3-8.4,0.3-9.4s1.9-3.4,1.9-3.4l2.8,5.6c0,0,2.2-12.5,3.1-14c0.9-1.6,5.6-9.4,3.4-14
				c-2.2-4.7-18.4-11.2-24-8.1C342.5,166.3,340.9,180.9,340.9,180.9z"/>
			<path class="st0" d="M497,203.4c0,0-1.2-8.1,1.2-11.5c2.5-3.4,6.2-5.9,6.9-7.5c0.6-1.6,7.2-10,7.2-10s1.6,2.2,4.1,5
				s5.9,4.1,5.6,8.1s3.7,8.4,3.7,8.4l1.6,5.6l1.6-12.5l2.5,3.1c0,0,0-6.2,0.3-9.7c0.3-3.4,0.9-7.5,0.9-7.5s-7.5-9.4-7.8-10.3
				c-0.3-0.9-24.7,3.1-26.5,3.1c-1.9,0-8.4,5.3-9.4,7.2s-0.6,4.1,0.6,9.4c1.2,5.3,1.9,9.1,2.2,10.9"/>
			<g>
				<path class="st1" d="M412.8,97c0,0-4,4.4-13.6,8s-15.6,2-23.2,6.8c-7.6,4.8-9.6,15.6-11.2,18.4c-1.6,2.8-16.4,27.6-16.4,27.6
					s9.2,8.4,13.6,13.2c4.4,4.8,5.6,7.2,6,10c0.4,2.8,0.4,5.6,0.8,8.4c0.4,2.8,0,9.6,0,9.6s4.4-8.4,5.2-10.4s4-13.6,4-13.6
					s6,69.7,3.6,77.3s-6.4,17.2-10,20.4c-3.6,3.2-2,3.2-0.4,4.8s1.6,2.8,1.6,4.8c0,2-0.8,6-1.2,7.6c-0.4,1.6,0,10.8,0,10.8l0.4,8
					l0.8,8c0,0,4-10,4.8-11.2c0.8-1.2,5.6-6.4,5.6-6.4s0-5.2,0-8c0-2.8-0.8-3.2,4.4-5.2c5.2-2,6.8-2.4,6.8-2.4s2.4-0.4,3.6-3.2
					c1.2-2.8,6.4-6.4,7.6-7.2c1.2-0.8,6.8-2.8,8.4-4.8c1.6-2,1.6,3.6,1.6,6s-2.8,19.2-2.8,19.2l2.8-3.6c0,0,4.8-6.4,6.8-7.6
					c2-1.2,5.6,0,5.6-3.2s-2-6.4-1.2-8.4c0.8-2,3.6-3.2,4.8-4.8c1.2-1.6-1.2,4.4,2.4-2c3.6-6.4,7.6-7.2,8.8-8.4
					c1.2-1.2,6.4-1.6,6.4-1.6s-2.8,9.6-4.4,12.4c-1.6,2.8-5.2,12-5.2,12v8.8c0,0,5.6-7.2,6.8-8.4c1.2-1.2,5.6-1.6,5.6-1.6
					s2.8-4.8,2.8-6.8c0-2-1.2-8.8-1.2-8.8s3.2,3.2,3.6,4.8c0.4,1.6,0.4,4.4,0.8,6.4c0.4,2,0.8,6.4,2,4.8c1.2-1.6,5.2-6,5.2-6
					s-1.2-3.6-1.2-4.8c0-1.2,0-5.2,2.4-6.8c2.4-1.6,3.2,2,4,5.6c0.8,3.6,3.6,8.8,3.6,11.6c0,2.8,0,10.8,0,10.8s2.8-4.8,4-4.8
					c1.2,0,3.2-0.4,4.4,1.2c1.2,1.6,6,7.6,6,7.6s-2.4-7.2-4.4-11.6c-2-4.4-4-8-4-10.8c0-2.8,0-5.6,0-9.2c0-3.6-1.2-39.2-1.2-49.6
					c0-10.4-0.8-15.6,0-19.2s0.8-18.8,0.8-18.8s7.2,14,7.6,16.4c0.4,2.4-0.8,6.8-0.8,6.8l-1.6,2.4c0,0,4.4-1.6,6,1.6
					c1.6,3.2,3.6,8,3.6,8l4,1.6c0,0-0.4-8.4-1.6-12.4c-1.2-4-3.2-12.4-3.6-14c-0.4-1.6-2-0.8-0.8-4c1.2-3.2,1.2-4.8,3.2-7.2
					c2-2.4,7.2-39.6,7.2-39.6s-8.8-7.2-13.2-14.4c-4.4-7.2-9.6-12.4-16.8-15.2c-7.2-2.8-14.8-4.8-24.4-4.8c-9.6,0-34,0-34,0"/>
				<g>
					<path class="st2" d="M378,175.1c0,0,3.8-10.4,5.7-16.3c1.9-5.9,4.1-12.8,4.4-13.7"/>
					<path class="st2" d="M479.7,172.7c0,0,1.4-2.1-3.9-8.6c-5.3-6.6-10.9-9.1-12.8-11.5"/>
					<path class="st2" d="M417.9,198.5c6.2,2.7,13.3,5.6,18.2,7.4c10.6,3.7,24.7,0.3,29-4.7"/>
					<path class="st2" d="M404.9,192.8c0,0,2.2,1,5.6,2.5"/>
					<path class="st2" d="M434.6,218.2c-10.7,0.9-15.3-5.3-28.2-10.5"/>
					<path class="st2" d="M467.6,203.4c0,0-2.5,5-22.2,12.2c0,0-0.1,0-0.1,0.1"/>
					<path class="st2" d="M416.8,251.7c-2.7,1.7-4.7,3.2-5.4,3.9"/>
					<path class="st2" d="M456.4,221.5c-7,6.6-14.7,13.9-16,15c-1.4,1.2-9.5,6.2-16.8,10.8"/>
					<path class="st2" d="M468.6,210c0,0-2.8,2.7-6.7,6.4"/>
					<path class="st2" d="M400.2,232.4c5.2,1.8,11.1,3.6,14.1,3.4c6.2-0.3,28.4-14.4,28.4-14.4"/>
					<path class="st2" d="M389.6,228.4c0,0,1.9,0.8,4.7,1.9"/>
					<path class="st2" d="M478.5,167.8c0,0-15-6.9-15.9-7.5"/>
					<path class="st2" d="M378.7,172.8c0,0,5.9-11.2,7.8-13.1"/>
				</g>
			</g>
			<g>
				<path class="st3" d="M410,99.4c0,0,0,8,0,16.8s8,24,14,32c6,8,8.8,10,8.8,10s8.8-19.2,11.2-25.2c2.4-6,4.4-11.2,4.4-17.6
					c0-6.4-2.8-18.4-2.8-18.4s-8,4-18,3.6c-10-0.4-18-3.2-18-3.2L410,99.4z"/>
				<path class="st4" d="M410.9,103l4.2,15.5l3.5-1.9c0,0,1.3,1.6,3.5,3.9c2.3,2.3,6.4,5.5,6.4,5.5l1.3,5.2l3.5-8.7l6.4-2.9l3.2,4.2
					l4.8-14.5l-4.2-6.1l-35.1-4.8L410.9,103z"/>
				<path class="st5" d="M414.8,107.8c0,0,1.6,8.8,0,16.4"/>
				<path class="st5" d="M441.6,115.8c0,0,1.6,7.6,2,12.4"/>
				<path class="st5" d="M429.6,119.4c0,1.2,0,14.8,0,14.8"/>
				<path class="st5" d="M418,135.5c0,0,7.6-1.2,9.6,0.8c2,2,3.6,5.2,3.6,5.2s3.6-5.6,4.8-5.6c1.2,0,4,0,4,0"/>
			</g>
			<g>
				<path class="st6" d="M398.4,62.2c0,0-5.2-8.4-7.6-2.8c-2.4,5.6,6.4,16.8,6.4,16.8S399.2,68.2,398.4,62.2z"/>
				<path class="st6" d="M456.5,58.6c0,0,4.4-8,7.6-2.4c3.2,5.6-2.4,15.2-2.4,15.2S455.6,60.2,456.5,58.6z"/>
				<path class="st3" d="M456.5,55.4c0,0-1.2-16.4-3.6-24.8c-2.4-8.4-16.4-12.4-33.2-10c-16.8,2.4-22,12.4-22,20.4
					c0,8,1.6,21.2,0.4,26.4c-1.2,5.2-4,12-0.4,16.4c3.6,4.4,8,4.4,8,4.4s0,12,3.6,14c3.6,2,8,6.8,10.8,11.6c2.8,4.8,8,6.4,16.4,4
					c8.4-2.4,10.8-6.4,12.8-10.4c2-4,4-4.4,4.4-10.8C454,90.2,454,85,454,85s6-1.6,7.6-7.2c1.6-5.6,2.4-9.2,0.4-12.4
					C460.1,62.2,456.5,59,456.5,55.4z"/>
				<path class="st7" d="M421.2,58.6c0,3.1-2.5,5.6-5.6,5.6c-3.1,0-5.6-2.5-5.6-5.6c0-3.1,2.5-5.6,5.6-5.6
					C418.7,53,421.2,55.5,421.2,58.6z"/>
				<circle class="st7" cx="442" cy="58.6" r="8"/>
				<path class="st8" d="M428,66.6c0,0-5.6,6-3.6,7.6C426.4,75.8,427.6,73.8,428,66.6z"/>
				<path class="st8" d="M430.4,66.6c0,0,5.6,6,3.6,7.6C432,75.8,430.8,73.8,430.4,66.6z"/>
				<path class="st2" d="M422,62.6c0,0-0.4,14.4-13.6,10"/>
				<path class="st2" d="M434.8,64.6c0,0,2.8,8.8,12.4,8.8"/>
				<path class="st2" d="M421.6,71c0,0-0.4,7.6-9.2,9.6"/>
				<path class="st2" d="M432.4,48.2c0,0,1.6,1.2,4.4,0c2.8-1.2,6-3.6,10-2.8c4,0.8,6,4,6,4"/>
				<path class="st2" d="M427.2,42.6c0,0-0.8,4.8,2.4,6.8"/>
				<path class="st2" d="M445.6,69.8c0,0,6.4,0.4,7.2-5.6"/>
				<path class="st2" d="M407.6,64.6c0,0,2,5.6,9.6,4"/>
				<path class="st2" d="M406,85.4c0,0,9.2,1.2,9.2,4c0,2.8,1.2,14,2,16"/>
				<path class="st8" d="M418,94.6c0,0,2.8-6,12.4-7.2c9.6-1.2,14.8,6.8,12.8,8.4c-2,1.6-3.6-3.6-11.6-1.2
					C423.6,97,416,99.4,418,94.6z"/>
				<path class="st2" d="M454,85c-1.6,0-8,2.8-8,6.8c0,4,2.4,11.6,1.2,15.2"/>
				<path class="st2" d="M436,70.2c0,0,3.6,10.4,12.4,11.2"/>
				<path class="st2" d="M403.6,55.4c0,0,4.4-3.2,10.8-4.8s9.6,2,10.4-4"/>
				<path class="st2" d="M416.4,40.2c0,0,5.6-2.4,10.4-2.8c4.8-0.4,10-0.4,10-0.4"/>
				<path class="st2" d="M417.6,33.4c0,0,8.4-0.8,12.8,0.4"/>
				<path d="M449.6,40.9c1-0.7,1.9-0.9,2.9-1.1c1-0.1,1.9,0.2,2.9,0.4c0.9,0.2,1.9,0.4,2.8,0.7c0.9,0.3,1.9,0.6,2.7,1.1l-0.1,0.2
					c-0.9-0.1-1.9-0.2-2.8-0.1c-0.9,0-1.9,0-2.8,0.1c-0.9,0-1.9,0.3-2.8,0.1c-0.9-0.2-1.8-0.5-2.8-1.2V40.9z"/>
				<path d="M448,32.9c0.7-1,1.6-1.5,2.5-2c0.9-0.5,2-0.4,3-0.5c1-0.1,2-0.2,3.1-0.2c1,0,2,0.1,3.1,0.3v0.2c-1,0.2-1.9,0.4-2.9,0.7
					c-0.9,0.3-1.9,0.6-2.8,0.9c-0.9,0.3-1.8,0.9-2.8,1c-1,0.1-2,0.1-3.1-0.2L448,32.9z"/>
				<path d="M443.2,22.5c0-1,0.3-1.6,0.7-2.2c0.4-0.6,1.1-0.8,1.7-1.2c0.6-0.4,1.2-0.8,1.8-1.1c0.6-0.3,1.2-0.7,1.8-1l0.2,0.2
					c-0.4,0.6-0.8,1.2-1.2,1.8c-0.4,0.6-0.8,1.1-1.2,1.7c-0.4,0.5-0.7,1.3-1.3,1.6c-0.6,0.3-1.3,0.6-2.3,0.6L443.2,22.5z"/>
				<path d="M417.9,24.6c-1.1-2.3-0.4-5.2,1.2-7.3c0.8-1.1,1.8-1.9,3-2.5c1.1-0.6,2.2-1,3.4-1.4c2.2-0.9,4.5-1.5,6.8-2
					c2.3-0.5,4.6-0.8,7-1l0,0.2c-2.3,0.5-4.5,1.2-6.7,1.9c-2.2,0.7-4.3,1.6-6.4,2.6c-2.1,1-3.8,2.3-5.2,3.7
					c-1.4,1.4-2.5,3.3-2.9,5.6L417.9,24.6z"/>
				<path d="M426,21.3c0.1-1,0.6-1.6,1-2.2c0.5-0.6,1.2-0.8,1.9-1.1c0.6-0.4,1.3-0.7,1.9-1c0.7-0.3,1.3-0.6,2-0.9l0.2,0.2
					c-0.4,0.6-0.9,1.1-1.4,1.7c-0.5,0.5-1,1.1-1.5,1.6c-0.5,0.5-0.9,1.2-1.5,1.5c-0.7,0.3-1.4,0.5-2.4,0.4L426,21.3z"/>
				<path d="M403.2,29.1c-0.8,0.7-1.7,1-2.5,1.1c-0.8,0.2-1.7-0.1-2.5-0.2c-0.8-0.1-1.7-0.2-2.5-0.4c-0.8-0.2-1.7-0.3-2.5-0.5v-0.2
					c0.8-0.2,1.7-0.3,2.5-0.5c0.8-0.1,1.7-0.3,2.5-0.4c0.8-0.1,1.7-0.4,2.5-0.2c0.8,0.2,1.7,0.4,2.5,1.1V29.1z"/>
				<path d="M400.9,34.3c-0.9,1.4-2.2,2.4-3.6,3.2c-1.4,0.8-3.1,1.1-4.5,1.4c-1.4,0.3-2.8,0.8-4.2,1.4c-1.4,0.6-2.7,1.3-4.1,2
					l-0.2-0.2c1.1-1.1,2.3-2,3.6-2.9c1.3-0.9,2.7-1.6,4.2-2.2c1.5-0.5,2.7-1.3,4.1-1.7c1.4-0.5,2.8-0.9,4.5-1.1L400.9,34.3z"/>
				<path d="M400,47.9c-0.6,0.8-1.3,1.1-1.9,1.4c-0.7,0.3-1.4,0.1-2.1,0.1c-0.7,0-1.4,0-2.2-0.1c-0.7-0.1-1.4-0.1-2.2-0.2l0-0.2
					c0.7-0.3,1.4-0.5,2-0.8c0.7-0.2,1.4-0.5,2-0.7c0.7-0.2,1.3-0.6,2.1-0.5c0.7,0.1,1.5,0.2,2.3,0.8L400,47.9z"/>
			</g>
			<g>
				<path class="st9" d="M352.8,129.9c0,0-6.2,14.9-12.5,22.4c-6.2,7.5-10.9,13.1-9.4,17.5c1.6,4.4,6.2,14.4,9.1,17.5
					c2.8,3.1,6.9,1.9,8.4,1.2c1.6-0.6,5.6-3.7,8.4-4.4c2.8-0.6,10.3-5.9,10.3-10.3c0-4.4-2.8-15.3-2.2-18.1c0.6-2.8,12.8-29,12.8-29
					l-21.8-2.5L352.8,129.9z"/>
				<line class="st2" x1="366.5" y1="140.2" x2="357.4" y2="158.8"/>
				<line class="st2" x1="349" y1="185.6" x2="354" y2="173.1"/>
			</g>
			<g>
				<path class="st9" d="M507,129.9c0,0,6.2,14.9,12.5,22.4c6.2,7.5,10.9,13.1,9.4,17.5c-1.6,4.4-6.2,14.4-9.1,17.5
					c-2.8,3.1-6.9,1.9-8.4,1.2c-1.6-0.6-5.6-3.7-8.4-4.4c-2.8-0.6-10.3-5.9-10.3-10.3c0-4.4,2.8-15.3,2.2-18.1
					c-0.6-2.8-12.8-29-12.8-29l21.8-2.5L507,129.9z"/>
				<line class="st2" x1="493.2" y1="140.2" x2="502.3" y2="158.8"/>
				<line class="st2" x1="510.7" y1="185.6" x2="505.7" y2="173.1"/>
			</g>
			<g>
				<path class="st3" d="M368.1,107.2c0,0-3.6-4-6.6-7c-3-3-7.2-1-7.8-0.8c-0.6,0.2,2.4,8.4,3,8.9c0.6,0.4-1.4,7.6-1.4,8.9
					c0,1.2,1,2.8,0,2.8c-1,0-4.8-1.1-6.2-1.4c-1.5-0.3-3.6,1.6-4.4,2c-0.8,0.4,2.2,5.8,2.2,5.8s7,8.7,9.1,10.5
					c2,1.8,7.8,5.2,10.7,3.4c2.8-1.8,5.2-8.9,8.7-9.3s6.8,0.8,10.1-1c3.2-1.8,7.6-8.2,7.6-8.2s-1.6,6.4-2,7.4
					c-0.4,1,0.8,3.4,2.2,3.6c1.4,0.2,4.6,1.6,5.4,0.6c0.8-1,3.2-12.1,4.6-15.7c1.4-3.6,0.2-7.4-3.2-7.6c-3.4-0.2-9.5,0.2-10.7,0.2
					s-4.4,0-8.2-4.2c-3.8-4.2-8.4-9.3-8.4-9.3l-6.6,0.2L368.1,107.2z"/>
				<path class="st3" d="M372.8,88.2c0,0,4.8,19.6,4.8,22.4c0,2.8-9.6,3.6-9.6,3.6s-2.8-12.8-3.6-15.6c-0.8-2.8-4-12.4,0.4-14
					C369.2,83,371.2,83.4,372.8,88.2z"/>
				<path class="st3" d="M358,99c-2,0-8.8,0.8-10,4.8c-1.2,4,4.4,10.4,4.8,15.2c0.4,4.8,0,9.2,5.2,10.8c5.2,1.6,7.6,0.8,6.4-3.6
					c-1.2-4.4-4.8-23.6-4.8-23.6"/>
				<path class="st3" d="M344.8,131.5c0,0-1.6,3.6-4,6c-2.4,2.4-3.6,3.6-2,6.8c1.6,3.2,3.2,9.6,5.6,6.8s3.6-2.4,2.4-5.6
					c-1.2-3.2-1.6-5.6-1.6-5.6l4.4-5.2L344.8,131.5z"/>
				<path class="st3" d="M349,118.5c0,0-9.9,4.1-9.1,5.7s3.6,4.8,4.8,7.2c1.2,2.4,3.2,8,5.6,9.6c2.4,1.6,8.8-2.4,7.2-4.4
					c-1.6-2-3.6-3.6-4.8-6.8c-1.2-3.2-2.8-8.4-2.8-10"/>
			</g>
			<g>
				<path class="st3" d="M499.1,107.2c0,0,3.6-4,6.6-7c3-3,7.2-1,7.8-0.8c0.6,0.2-2.4,8.4-3,8.9c-0.6,0.4,1.4,7.6,1.4,8.9
					c0,1.2-1,2.8,0,2.8s4.8-1.1,6.2-1.4c1.5-0.3,3.6,1.6,4.4,2c0.8,0.4-2.2,5.8-2.2,5.8s-7,8.7-9.1,10.5c-2,1.8-7.8,5.2-10.7,3.4
					c-2.8-1.8-5.2-8.9-8.7-9.3c-3.4-0.4-6.8,0.8-10.1-1c-3.2-1.8-7.6-8.2-7.6-8.2s1.6,6.4,2,7.4c0.4,1-0.8,3.4-2.2,3.6
					c-1.4,0.2-4.6,1.6-5.4,0.6c-0.8-1-3.2-12.1-4.6-15.7c-1.4-3.6-0.2-7.4,3.2-7.6c3.4-0.2,9.5,0.2,10.7,0.2s4.4,0,8.2-4.2
					c3.8-4.2,8.4-9.3,8.4-9.3l6.6,0.2L499.1,107.2z"/>
				<path class="st3" d="M494.4,88.2c0,0-4.8,19.6-4.8,22.4c0,2.8,9.6,3.6,9.6,3.6s2.8-12.8,3.6-15.6c0.8-2.8,4-12.4-0.4-14
					C498,83,496,83.4,494.4,88.2z"/>
				<path class="st3" d="M509.2,99c2,0,8.8,0.8,10,4.8c1.2,4-4.4,10.4-4.8,15.2c-0.4,4.8,0,9.2-5.2,10.8c-5.2,1.6-7.6,0.8-6.4-3.6
					c1.2-4.4,4.8-23.6,4.8-23.6"/>
				<path class="st3" d="M522.4,131.5c0,0,1.6,3.6,4,6c2.4,2.4,3.6,3.6,2,6.8c-1.6,3.2-3.2,9.6-5.6,6.8c-2.4-2.8-3.6-2.4-2.4-5.6
					c1.2-3.2,1.6-5.6,1.6-5.6l-4.4-5.2L522.4,131.5z"/>
				<path class="st3" d="M518.2,118.5c0,0,9.9,4.1,9.1,5.7c-0.8,1.6-3.6,4.8-4.8,7.2c-1.2,2.4-3.2,8-5.6,9.6
					c-2.4,1.6-8.8-2.4-7.2-4.4c1.6-2,3.6-3.6,4.8-6.8c1.2-3.2,2.8-8.4,2.8-10"/>
			</g>
		</g>
	</g>
</g>
<g id="Слой_5">
	<g>
		<ellipse class="st10" cx="643.4" cy="364.7" rx="53" ry="9"/>
		<g>
			<path class="st11" d="M599.5,172.7c0,0-1.4,11.4-1.4,12.6c0,1.2-0.6,2.8-2.2,3.4c-1.6,0.6-3.4,0.4-2.8,2.4c0.6,2,2.6,4.1,4.1,4.5
				c1.6,0.4,4.1-3.6,4.1-3.6s2.4,2,2.6,2.6c0.2,0.6,4.7-0.2,5.1-2.2c0.4-2,0.8-3.2-0.8-4.5c-1.6-1.4-3.6-1.6-3.9-2.8
				c-0.4-1.2,0.2-14.6,0.2-14.6l-4.7-1l-0.2,2.2L599.5,172.7z"/>
			<g>
				<path class="st12" d="M669.5,315c0,0,1.6,2.8,3,3.7c1.4,1,2.2,1.6,4.1,1.6c2,0,4.3,0,5.1-0.8c0.8-0.8,1.6,0,1,0.4
					c-0.6,0.4-1.8,1.4-2.4,3.4c-0.6,2-0.6,5.3-0.6,5.3h-2.2c0,0,0,3.4,0,3.9c0,0.6,1.4,2.2,1.6,3.6c0.2,1.4,1.2,2,0.2,1.4
					c-1-0.6-5.7-5.9-7.5-6.1c-1.8-0.2-3.9-0.8-3.9-0.8s-4.3-12-6.7-16.6c-2.4-4.5-4.5-9.5-4.5-9.5s4.9-0.6,5.5-0.4
					c0.6,0.2,3.6,4.3,3.6,4.3L669.5,315z"/>
				<g>
					<path class="st13" d="M641.3,271c0,0-1,9.5-0.6,12.2c0.4,2.8,3.6,5.3,4.5,6.9c1,1.6,2.6,5.9,4.5,10.7c2,4.7,15,39.7,15.4,40.6
						c0.4,1-2,3.2-1.8,4.9c0.2,1.8,0.8,2.4,0.2,3.9c-0.6,1.6-3,7.1-5.3,9.3c-2.4,2.2-6.5,3.7-6.7,6.3c-0.2,2.6,2.6,3.6,4.3,4.1
						c1.8,0.6,6.3,0.8,7.5-1.2c1.2-2,1-2.4,1.6-3c0.6-0.6,1.6-1.4,1.6,0.2c0,1.6-0.6,3.2,0.6,3.7c1.2,0.6,3.9,0.4,4.7-0.2
						c0.8-0.6,1.6-1.6,1.6-1.6s1.6,1.4,3.7,1.2c2.2-0.2,3-2.8,3-2.8s0.8,2.2,3.6,0.8c2.8-1.4,2-4.1,2-4.1l-0.6,1
						c0,0,3.9,0.8,3.7-2.4s-5.7-4.5-5.7-4.5s-2.8-3.6-4.3-6.3c-1.6-2.8-3.2-6.1-3.2-6.1s0.6-1.4,0-3c-0.6-1.6-2.8-3.7-2.8-3.7
						s-5.7-23.3-7.7-27c-2-3.7-4.1-9.1-4.1-9.1s-2.4-8.7-2.2-12c0.2-3.4,1-4.3-0.6-6.1c-1.6-1.8-2.8-3.4-3.4-4.5
						c-0.6-1.2-1.4-2.4-2.2-3.7s-2-3-3-3.7c-1-0.8-2.2-2.2-4.1-2.4c-2-0.2-4.5,0.6-4.7,2.4"/>
					<g>
						<path class="st14" d="M663.2,364.5c0,0-4.3-3-7.3-1.6c-3,1.4-1.4,2,2.4,2.6C662,366.1,663.8,367.7,663.2,364.5z"/>
						<path class="st14" d="M671.3,365.7c0,0-4.9,0.4-3.4,1.2C669.5,367.7,673.1,367.3,671.3,365.7z"/>
						<path class="st14" d="M677.8,365.1c0,0.5-0.8,1-1.9,1s-1.9-0.4-1.9-1c0-0.5,0.8-1,1.9-1S677.8,364.6,677.8,365.1z"/>
						<path class="st14" d="M681,364.5c0,0.4,0.8,0.8,1.7,0.8c0.9,0,1.7-0.4,1.7-0.8c0-0.4-0.8-0.8-1.7-0.8
							C681.7,363.7,681,364.1,681,364.5z"/>
						<path class="st14" d="M685.3,361.1c0,0.3,0.4,0.5,0.8,0.5s0.8-0.2,0.8-0.5c0-0.3-0.4-0.5-0.8-0.5S685.3,360.8,685.3,361.1z"/>
						<line class="st14" x1="673.5" y1="368.1" x2="672.3" y2="363.1"/>
						<line class="st14" x1="680.2" y1="366.5" x2="678.8" y2="362.3"/>
						<path class="st14" d="M665,358c0,0,6.7-0.4,9.7,0.4"/>
						<path class="st14" d="M671.9,355.6c0,0,5.1-0.4,7.9,0.8"/>
					</g>
				</g>
				<polygon class="st15" points="619.5,251.6 622.3,264 629.5,259.6 633.4,238.1 624.9,241.6 				"/>
				<g>
					<path class="st13" d="M607.2,324.5c0,0-0.4,6.9-1.8,10.1s-4.5,6.7-4.5,9.5c0,2.8,1.2,4.5,1.4,6.1c0.2,1.6-2.2,9.9-3,11.8
						c-0.8,2-2,4.9-1,6.3c1,1.4,1.6,2.2,2.6,1.4c1-0.8,1-2,1-2s0.4,1.8,1.4,1.8s3-1.8,3-1.8s0,1.6,1.4,1.6s3.4-2.2,3.4-2.2
						s1,3.2,3,2.6c2-0.6,2.6-2.2,2.6-2.2s2.6,1.8,4.3,1.8s3.9-1,3.7-3.6s-6.9-4.5-6.9-4.5s-1.2-4.1-2.6-7.1c-1.4-3-2.2-6.7-2.2-8.3
						c0-1.6-0.2-8.5-0.2-10.1c0-1.6,3.4-10.9,3.4-10.9s3.7-14,3-17s-7.5-3.9-9.3,1.6C608,315,607.2,324.5,607.2,324.5z"/>
					<g>
						<path class="st14" d="M623,364.9c0,0-0.6-2-4.1-1c-3.6,1-2.4,1.2-0.4,2.2C620.4,367.1,624.1,366.3,623,364.9z"/>
						<path class="st14" d="M615.1,365.9c0,0-4.9,0.4-3.2,1.2s3.4,0,3.4,0"/>
						<path class="st14" d="M609.5,365.7c0,0-2.6-1.2-2,0.2C608.2,367.3,610.5,366.3,609.5,365.7z"/>
						<path class="st14" d="M605.2,365.5c0,0-3.9-0.8-2.6,0.6c1.4,1.4,3-0.8,2.6-1.4"/>
						<path class="st14" d="M600.9,365.3c-0.5-0.4-3.2,1-2,1.6C600.1,367.5,602.4,366.5,600.9,365.3z"/>
						<line class="st14" x1="616.4" y1="367.5" x2="613.7" y2="362.5"/>
						<line class="st14" x1="610.9" y1="367.1" x2="610.3" y2="363.3"/>
						<line class="st14" x1="606.2" y1="367.7" x2="606" y2="364.1"/>
					</g>
				</g>
				<path class="st16" d="M620.6,209c0,0-1.4,9.3-1.4,13c0,3.7-1,18.4-1,21.1c0,2.8,0,4.5,0,6.5c0,2,0,5.9,0,5.9s1.6-1.2,3.7-3.4
					c2.2-2.2,6.3-5.5,6.9-6.5c0.6-1,2.8-3,2.8-3s-10.1,19.9-10.7,20.9c-0.6,1,0,2.4,0,2.4s3.4,9.3,3,10.1c-0.4,0.8-2.4,4.1-1.8,5.3
					c0.6,1.2,1,2.4,1,2.4s-2.2-2-3.4-0.2c-1.2,1.8-1.2,4.7-1.2,4.7s-3.9,3-6.1,7.3c-2.2,4.3-5.1,9.5-5.1,10.9s0.6,2.2-0.4,7.9
					c-1,5.7-0.6,17.8-1.6,20.1c-1,2.4,0.2-1,1.8-3.7c1.6-2.8,3-3.9,3.4-6.9c0.4-3,3.2-9.5,3.2-9.5s-0.4,4.7-0.4,7.7
					c0,3-1,5.5-1.4,7.1c-0.4,1.6-0.4,3.2,0,4.1c0.4,1,1.4,3,1.6,4.1c0.2,1.2,0.2,4.1,0.2,3.6c0-0.6,2.8-2.4,3.9-1
					c1.2,1.4,3,4.1,3,4.1s0.2,2.8,0.2,2.2c0-0.6,0.2-4.1,1-6.9s2-2.8,1.4-3.7c-0.6-1-4.1-4.3-4.9-6.3c-0.8-2-2-0.8-0.6-3.2
					c1.4-2.4,1.2-2,2.8-4.9c1.6-3,2.2-3.4,2.8-4.7c0.6-1.4,1.6,1.4,1.6,1.4s0,4.3,0,5.1c0,0.8,2.4,4.5,2.4,4.5s0.2-1.6,0.2-6.5
					s-1-3.9,0-8.7c1-4.7,2-7.1,2.8-10.1c0.8-3,4.5-8.9,5.9-14c1.4-5.1,1.4-8.1,1.4-12.8c0-4.7-0.2-9.7,0-12.8
					c0.2-3.2,1.4-16,1.6-20.1c0.2-4.1,1.6-11.2,1.6-12.4c0-1.2,0-2.8,0-2.8s3.7,1.4,5.7,6.5c2,5.1,1.6,11.4,0.4,13.8
					c-1.2,2.4-5.3,18-5.5,21.1c-0.2,3.2-0.6,5.3-0.6,5.3s2.8-1,4.1-0.6c1.4,0.4,2.6,0,3.4,1.8c0.8,1.8,1.6,4.7,1.6,4.7
					s2.2-1.8,3.2-0.6c1,1.2,2.2,2,2.6,2.8c0.4,0.8,0.4-0.2,0.4,1.6s0,4.3,0,5.5c0,1.2,1.8,2.2,1.6,2.8c-0.2,0.6-2.4,2-2.8,2.6
					c-0.4,0.6,0.6-1.2-2.2,1.6c-2.8,2.8-2.6,4.1-5.1,4.3c-2.6,0.2-3.7-0.4-3.6,0.2c0.2,0.6,5.5,6.9,6.7,10.9
					c1.2,3.9,3.4,8.1,3.4,10.1c0,2,3.9-1.8,4.5-2.4c0.6-0.6,2.2-3.2,2.8-3.6s1.8-0.2,1.8-1c0-0.8,0.4-4.1,0.6-5.1
					c0.2-1,2,0.4,2.4,1.6c0.4,1.2,1.4,0.8,2,2.2c0.6,1.4,2.8,3.6,2.8,3.6s-4.1-8.3-5.5-13.2c-1.4-4.9-1.8-14.2-1.2-15.8
					c0.6-1.6-3.2-1.8-3.2-1.8s2-2.4,1.2-3.9c-0.8-1.6-3.7-1.2-4.5-2.6c-0.8-1.4-2.8-4.9-2.8-4.9s3.6-3.4,12.2-24.9
					s7.9-26.8,7.9-35.7c0-8.9,0.5-20-5.3-23.6c-5.7-3.6-5.8,11.3-13.3,11.3s-22.3-0.4-26.2-0.4c-3.9,0-3.7,0.2-5.5,1.2
					C622.6,203.7,620.6,209,620.6,209z"/>
				<line class="st17" x1="626.9" y1="216.3" x2="635" y2="220.1"/>
				<path class="st17" d="M661.9,219.2c0.7-0.7,1.4-1.5,1.9-2.3"/>
				<path class="st17" d="M649,227.6c0,0,5.8-2.4,10.6-6.3"/>
				<path class="st17" d="M660.3,217.1c0,0-4.1,4.1-8.5,6.5"/>
				<path class="st12" d="M631.6,242.8c0,0-1.2,2.8-1.2,6.7c0,3.9,1,8.3,0.2,8.9c-0.8,0.6-1.6,0-1.2,2.4c0.4,2.4,1.2,5.1,1.2,5.1
					s-1.6-0.6-2.2-0.6c-0.6,0-2.2,1.4-2.2,1.4l-0.4,2.8c0,0-2.8-3.2-3.6-2.2c-0.8,1-0.8,2.2-1.4,2.8c-0.6,0.6-1.4,4.9-1.4,4.9
					s-0.6-5.1-0.6-6.1c0-1,0.8-4.7,0.8-4.7L631.6,242.8z"/>
				<path class="st12" d="M630.9,243.6c0,0-2.8,2.2-6.1,3.6c-3.4,1.4-7.3,2-7.3,2l-0.2,2.4c0,0-0.8,1-1.6,1.2c-0.8,0.2-2,1.2-2,1.2
					l-0.6,2.4l2.8,2.2l1.4,3.6l1.6-4.7l0.2-2.2L630.9,243.6z"/>
				<path class="st17" d="M623.2,283.8c0,0,2.4,3,3,4.3"/>
				<path class="st17" d="M618.6,288.3c0,0,1,5.9,2,9.3"/>
			</g>
			<path class="st18" d="M597.3,123.3c0,0-4.8,4.4-4.2,9.4c0.6,5,3.1,16.3,3.3,21.1c0.2,4.8,1.5,10.9,0.4,13.6
				c-1,2.7-2.3,7.1-2.3,7.1s3.1,0,4.2,0.6c1,0.6,2.5,1.9,2.5,1.9l1.9-3.8c0,0,1.5,4.6,1.5,4c0-0.6,1.7-5.2,1.7-5.2l5,1.3l0.6-3.1
				l1.9,2.3l1.3-2.5l-2.3-9c0,0,5,8.8,7.1,10.7c2.1,1.9,4.2,2.7,5,6.3c0.8,3.6,1.9,6.3,0.8,10.9s-2.9,9.8-4.6,13
				c-1.5,2.9-3.7,8-4.1,8.9c0,0.1-0.1,0.1-0.1,0.1l7.3,0.8l4-5.6v5c0,0,0.6,0,5,1c4.4,1,5.2,1.3,6.9,0.8c1.7-0.4,4.8-0.4,5.9-0.6
				c1-0.2,5.9-2.3,5.9-2.9s1.5-4.2,1.5-4.2l1,3.1l3.3-3.8c0,0,0,4,0,5s0,3.6,0,3.6l2.3-2.3l2.9,1.5l2.5,2.3c0,0-1-2.3,0.2-5.2
				c1.3-2.9,6.5-5,6.5-5s-0.4-3.6-0.4-4.2c0-0.6,0.4-2.1,0.4-2.1l0.4-0.8c0,0,1.5,0.6,1.9,3.1s1.7,8.6,1.7,8.6s0.4-4.2,1.3-6.5
				c0.8-2.3,3.3-4.4,3.3-4.4s-3.3-1.3-4.6-3.8c-1.3-2.5-3.8-7.9-4.6-12.1c-0.8-4.2-4.6-26.1-7.9-34.5c-3.3-8.4-5.6-15.5-8.8-20.1
				c-3.1-4.6-10.7-12.5-19.9-18.8c-9.2-6.3-15-1.9-17.6,2.3c-2.5,4.2-3.1,8.6-5.4,10.2C609.7,122.9,602.1,118.5,597.3,123.3z"/>
			<g>
				<path class="st19" d="M578.3,139.6c0,0-3.6,2.3-5.4,2.3s-6.3-1.5-8.1-1.5c-1.9,0-4,1.5-5.9,1.9c-1.9,0.4-1.3,2.7,0,2.9
					c1.3,0.2,4.8-1.3,5.6-1.5c0.8-0.2,3.8,1.7,4.4,1.7c0.6,0,1.9,0.2,4.4-0.4C575.8,144.4,578.3,139.6,578.3,139.6z"/>
				<path class="st19" d="M628.1,136l6.7,13.6c0,0-12.5-3.8-28.2-10.4c-15.7-6.7-19-10.2-23.8-7.9c-4.8,2.3-5.2,7.7-7.1,10.2
					c-1.9,2.5-5,3.1-9.4,3.1c-4.4,0-7.1-1-7.3,0.6c-0.2,1.7-0.8,7.1-0.8,9.2s1.3,6.1,2.5,6.3c1.3,0.2,3.6-1.3,2.5-2.7
					c-1-1.5-1.5-2.9-1.5-2.9l1.7-6.1l3.6,0.8c0,0-1.3,6.9-1.3,7.5c0,0.6,2.1,4.8,2.7,5.4c0.6,0.6,3.8,0.2,4-2.1
					c0.2-2.3-1.7-2.5-1.7-2.5l0.4-5.4c0,0,5-2.7,5.9-2.5c0.8,0.2,2.1,2.9,1,4.2c-1,1.3-2.1,2.1-2.1,4c0,1.9,1,5.2,1.3,6.5
					c0.2,1.3,2.7,2.1,3.3,1c0.6-1,0-3.3,0-3.3s-0.6,0-0.6-1c0-1,1.5-5.2,1.5-5.2s2.3-3.8,2.5-4.8c0.2-1,1.7-2.5,1.7-2.5
					s2.1-2.3,2.7-4.8c0.6-2.5,1.7-6.9,1.7-6.9s12.3,8.8,18.4,13.2c6.1,4.4,24.9,12.5,28.6,15.9c3.8,3.3,13,0.4,15.9,1.3
					c2.9,0.8,5.6,1.9,6.1-1.3c0.4-3.1-0.6-5.9-1.7-7.5c-1-1.7-2.9-5.6-4.8-10c-1.9-4.4-8.6-22.1-8.6-22.1s-9.4-0.8-13.2,2.3
					C626.8,132.1,628.1,136,628.1,136z"/>
				<path class="st17" d="M558,155.2c0,0,2.2-8.5,2.6-9.3c0.4-0.8,1.2-1.4,2-1.4"/>
				<path class="st17" d="M566.8,149.8c0,0,0.8-1.9,1.7-1.9c0.8,0,4-0.4,4.8-0.8s2.7-1.7,2.7-1.7"/>
				<path class="st17" d="M634.7,149.6c0,0,7.1,1.3,10.9,2.5c3.8,1.3,9.6,5.6,9.6,5.6"/>
				<path class="st17" d="M637.9,159.4c0.6,0,14.8,4.6,15.9,2.7c1-1.9,0-3.8,0-3.8"/>
			</g>
		</g>
	</g>
	<g id="Слой_15">
		<g>
			<g>
				<path class="st20" d="M589.1,113.9c-0.2-0.6-0.4-1.2-1.1-1.3c-1.3-0.4-2.6-0.7-3.9-0.9c1.2,2.9,2.7,5.6,4.4,8.3
					C589.2,118,589.7,116,589.1,113.9z"/>
				<path class="st20" d="M618,111.9c0.5-1.3,1-2.5,1.5-3.7C617.7,108.3,617.3,109.5,618,111.9z"/>
			</g>
			<g>
				<path class="st21" d="M590.7,113.8c0.4,1.6,0.2,3.2-0.1,4.7c-0.2,0.9-0.4,1.8-0.7,2.7c-0.2,0.6-0.1,1,0.2,1.5
					c0.6,1,1.5,1.7,2.6,2.3c2.9,1.7,6.1,2.7,9.3,3.9c0.6,0.2,1.1,0.2,1.6-0.1c2.5-1.5,5-3,7.5-4.5c0.7-0.4,1.2-0.9,1.8-1.4
					c1.2-0.9,2-2.1,2.4-3.6c0.5-1.7,1.2-3.5,1.8-5.2c-1-1.6-1-3.4-0.8-5.2c0.1-0.8,0.5-1.4,1.2-1.7c0.8-0.5,1.7-0.8,2.8-1.4
					c0.5-1.6,1.2-3.6,1.8-5.5c0.1-0.3,0-0.6,0-0.8c-0.4-4.6-0.9-9.1-1.4-13.7c-0.2-2-0.5-4-0.7-6c-0.1-1-0.7-1.5-1.5-2
					c-1.7-1-3.3-1.1-5.3-0.7c-4.4,1-8.9,1.6-13.5,1.7c-0.7,0-1.4,0.3-2.1,0.6c-1.7,0.7-3.4,1-5.1,0.4c-0.9-0.3-1.7-0.9-2.5-1.4
					c-1.5-1.1-3.1-1.4-4.8-0.9c-1,0.3-2,0.8-2.9,1.2c-0.5,0.2-0.8,0.5-0.8,1.1c0,0.4-0.1,0.7-0.2,1.1c-0.3,5.6-0.7,11.1-0.9,16.7
					c-0.1,2.1,0,4.2,0.1,6.3c0,0.6,0.3,1.2,0.5,1.7c0.6,1.4,1.3,2.9,1.9,4.2c1.8,0.4,3.3,0.7,4.9,1.1
					C589.5,111.3,590.3,112.3,590.7,113.8z M601.9,125.8c-0.4,0.1-0.9,0.4-1.2-0.1c-0.1-0.1-0.1-0.4,0-0.4c0.3-0.2,0.7-0.4,1.2-0.7
					c0.3,0.2,0.6,0.3,0.7,0.5C602.6,125.6,602.2,125.8,601.9,125.8z M607,122.6c-0.6,1.1-1.4,1.4-2.5,0.8c-1-0.6-2.1-0.7-3.1-0.2
					c-0.6,0.3-1.3,0.5-2,0.6c-1.7,0.3-2.9-0.6-3-2.3c-0.1-1.3,0.4-2.5,1.3-3.4c1.2-1.2,2.7-1.7,4-1.7c1.9,0.1,3.4,0.7,4.3,1.6
					C607.3,119.3,607.7,121.3,607,122.6z M614.3,100.6c0.3,0.1,0.6,0.2,0.6,0.7c-0.1,0.4-0.4,0.4-0.8,0.4c-1.8-0.2-3.4,0.3-5,0.9
					c-0.2,0.1-0.4,0.3-0.7,0.3c-0.2,0-0.5-0.1-0.7-0.2c0.1-0.2,0.1-0.5,0.3-0.7c0.2-0.2,0.5-0.4,0.7-0.6c-0.2-0.1-0.3-0.2-0.4-0.3
					c-3.8-2-3.9-8.4-0.8-11.1c1.8-1.6,4.2-1.5,5.9,0.2c1,1.1,1.6,2.4,1.8,3.8c0.3,2.3-0.3,4.4-2,6.3
					C613.7,100.4,614,100.5,614.3,100.6z M605.2,87.4c0.3-0.9,0.6-1.8,1.1-2.7c0.2-0.4,0.7-0.7,1.1-0.9c1.8-0.8,3.7-1.2,6.2-1.2
					c1.1,0.1,2.6,0.6,3.9,1.5c0.4,0.3,0.7,0.6,0.5,1.2c-0.2,0.5-0.6,0.7-1.3,0.5c-0.1,0-0.2-0.1-0.3-0.1c-2.2-1-4.6-1.2-7-1.1
					c-1.6,0.1-1.8,0.2-2.4,1.7c-0.2,0.5-0.4,1.1-0.7,1.6c-0.1,0.2-0.5,0.2-0.8,0.3C605.3,87.9,605.2,87.6,605.2,87.4z M601.5,89.5
					c0.4-0.1,0.6,0.2,0.6,0.6c0.1,0.2,0,0.5,0,0.7c0.2,3.1,0.4,6.2,0.7,9.4c0.1,1.5,0.4,3.1,0.6,4.8c-0.1,0.1-0.3,0.6-0.5,0.6
					c-0.5,0.1-0.5-0.4-0.6-0.7c0-0.1,0-0.2-0.1-0.4c-0.4-3.9-0.8-7.8-1.1-11.8c-0.1-0.8-0.1-1.7-0.1-2.6
					C601.2,89.9,601.4,89.6,601.5,89.5z M596.9,111.3c0.1-0.3,0.2-0.5,0.3-0.8c0.2-0.3,0.5-0.5,0.8-0.2c0.1,0.1,0.2,0.5,0.1,0.7
					c-0.5,0.8-0.3,1.5,0.2,2.3c0.7-0.8,0.8-0.8,1.4,0c0.8,1,1.6,1.2,2.8,0.6c0.5-0.3,0.9-0.8,1.3-1.2c0.2-0.1,0.5-0.4,0.6-0.3
					c0.2,0.1,0.3,0.4,0.4,0.6c0,0.1,0,0.3-0.1,0.4c0.1,0,0.1,0.1,0.2,0.1c0.1-0.1,0.3-0.2,0.3-0.3c0.5-0.9,0.5-1.5-0.3-2.4
					c-0.2-0.3-0.4-0.6-0.1-0.8c0.2-0.1,0.6-0.1,0.8,0c0.9,0.5,1.3,1.7,0.9,3c-0.3,1.2-0.9,1.6-2.1,1.5c-0.6,0-1.1,0.1-1.6,0.4
					c-0.7,0.4-1.5,0.5-2.2,0.3c-0.7-0.2-1.3-0.6-2.1-0.4c-0.2,0.1-0.5-0.2-0.7-0.4C597,113.5,596.6,112.5,596.9,111.3z M583.4,93.6
					c-0.2-0.1-0.3-0.5-0.5-0.7c0.2-0.4,0.3-0.7,0.4-1c0.9-1.9,2.3-3.2,4.2-4.1c1.1-0.5,2.2-0.9,3.3-1.3c1.1-0.4,2.3-0.5,2.8-1.8
					c0.1-0.1,0.5-0.1,0.7-0.2c0.1,0.2,0.2,0.5,0.1,0.6c-0.3,0.7-0.5,1.4-1.3,1.7c-0.7,0.3-1.3,0.8-2,1.1c-2.5,1.1-4.6,2.8-6.4,5
					c-0.2,0.2-0.3,0.5-0.5,0.7C584,93.6,583.6,93.7,583.4,93.6z M586,96.8c-0.5,0.1-0.7,0.2-1,0.3c-0.4,0.1-1,0.4-1.1-0.2
					c-0.2-0.6,0.4-0.7,0.8-0.8c2.2-0.7,4.2-1.8,5.8-3.4c1-1,1.9-2.1,2.9-3.1c0.2-0.2,0.4-0.5,0.6-0.6c0.3-0.2,0.8,0,0.7,0.3
					c-0.3,0.9,0.4,1.5,0.7,2.2c1.3,2.8,1.3,5.5-0.1,8.2c-0.2,0.4-0.5,0.8-0.7,1.3c0.2,0.1,0.3,0.2,0.4,0.3c0.2,0.2,0.3,0.4,0.4,0.5
					c-0.2,0.2-0.4,0.4-0.6,0.4c-1.8,0.2-3.4,0.6-4.9,1.6c-0.2,0.1-0.6,0.1-0.7-0.1c-0.3-0.3-0.1-0.6,0.2-0.8
					c0.4-0.3,0.8-0.6,1.3-0.9C588.2,100.9,586.6,99.3,586,96.8z"/>
				<path class="st21" d="M588.8,123.3c-1-1.7-2.1-3.4-3.1-5.1c-0.1-0.1-0.1-0.2-0.2-0.3C586.4,119.8,587.5,121.7,588.8,123.3z"/>
				<path class="st21" d="M578.4,104c-0.8-0.5-1.3-1.3-1.9-2c-0.5-0.6-0.3-1.3,0.2-1.9c0.2-0.3,0.5-0.5,0.7-0.8
					c-0.8-0.9-1.7-1.7-2.4-2.6c-0.5-0.6-0.8-1.2-1.1-1.9c-0.5-1.3-0.2-2,1.1-2.6c0.1,0,0.2-0.1,0.3-0.2c0.1-1.2-0.6-1.8-1.4-2.3
					c-0.9-0.5-1.8-0.7-2.8-0.4c-1.3,0.4-1.8,2-1,3.2c0.3,0.4,0.7,0.8,1,1.2c0.4,0.5,0.6,1,0.5,1.7c0,0.4,0.1,0.8,0.3,1.1
					c0.7,0.9,1.1,1.9,1,3c0,0.3,0.1,0.6,0.2,0.9c0.5,1,0.9,2,1.4,3c0.4,0.9,1.2,1.4,2.1,1.7c0.9,0.2,1.7,0.5,2.6,0.8
					C579.3,105.1,579.2,104.5,578.4,104z"/>
				<path class="st21" d="M626.7,103.1c0.4-0.2,0.7-0.4,1.1-0.6c1.2-0.6,1.8-1.5,2-2.8c0.4-3.5,1.1-7,0.9-10.6
					c0-0.5-0.1-0.9-0.2-1.6c-1.2,0.6-2.3,1.1-3.3,1.8c-0.3,0.2-0.4,0.8-0.7,1.4c0.6,0,0.9-0.1,1.3-0.1c1.1,0,1.8,0.7,1.6,1.8
					c-0.2,0.7-0.5,1.5-0.9,2.1c-0.9,1.4-2.1,2.6-3.5,3.6c-0.2,0.1-0.3,0.2-0.7,0.5c0.4,0.1,0.6,0.2,0.8,0.3c1.4,0.5,1.8,1.8,0.8,2.9
					c-0.5,0.6-1.2,0.9-1.9,1.3c-1.3,0.7-1.4,0.7-1.7,2.3c0.3-0.1,0.5-0.2,0.7-0.3C624.3,104.3,625.5,103.7,626.7,103.1z"/>
				<path class="st21" d="M627.8,92.3c-0.6-0.3-1,0.1-1.6,0.2c-0.3,1-0.5,1.9-0.8,2.8C626.6,94.6,627.3,93.5,627.8,92.3z"/>
				<path class="st21" d="M576.6,96c-0.2-0.7-0.4-1.3-0.7-2c-0.1-0.1-0.4-0.2-0.6-0.3c-0.1,0.2-0.2,0.4-0.2,0.6
					C575.4,95,575.8,95.6,576.6,96z"/>
				<path class="st21" d="M623.8,101.4c0.4-0.3,0.8-0.6,1.2-0.9C623.9,100.1,623.9,100.1,623.8,101.4z"/>
				<path class="st22" d="M593.7,100.1c2.2-3,2-6.6,0-9.3c-1.9,2.2-3.9,4.2-6.6,5.4c0.4,2.4,1.8,3.9,4,4.7
					C592.1,101.4,593,101.1,593.7,100.1z"/>
				<path class="st22" d="M607.8,91.3c-0.8,1-1.2,2.3-1.3,3.7c-0.1,1.4,0.2,2.7,1.1,3.9c1.4,1.9,3.6,2,5.2,0.2
					c1.7-2,1.9-5.4,0.5-7.6C611.7,89.5,609.4,89.3,607.8,91.3z"/>
			</g>
			<g>
				<path class="st23" d="M632.1,88.6c0-0.2,0-0.3,0-0.5c-0.2-1.7-0.6-2-2.2-2.3c0.2-0.3,0.4-0.6,0.6-0.9c2.1-2.8,2.1-5.7,0.8-8.7
					c-0.6-1.3-1.4-2.6-2.3-3.7c-1.2-1.6-2.6-3-4-4.4c-0.6-0.6-0.8-1.2-0.8-2.1c0-0.6-0.1-1.1-0.2-1.7c-0.2-0.9-0.5-1-1.6-0.6
					c-0.2-0.3-0.4-0.6-0.5-0.9c-1.1-1.6-2.1-3.3-3.2-4.9c-0.1-0.2-0.3-0.4-0.4-0.6c-0.5-0.6-0.9-0.8-1.3-0.5
					c-0.4,0.3-0.3,0.7,0.1,1.4c0.7,1.1,1.5,2.1,2.2,3.2c0.2,0.4,0.4,0.7,0.7,1.3c-0.3-0.1-0.4-0.1-0.5-0.2c-2.4-2-4.8-4-7.2-6
					c-0.2-0.1-0.4-0.2-0.5-0.4c-0.3-1.1-1.3-1.2-2.2-1.5c-3.8-1-7.6-1.3-11.5-1.1c-4.1,0.2-8.1,0.8-12,1.9c-0.4,0.1-0.8,0.2-1.1,0.4
					c-0.3,0.2-0.5,0.5-0.6,0.8c0,0.5,0.3,0.7,0.8,0.7c0.5,0,1.1,0,1.6,0c0.2,0,0.4,0,0.7,0.2c-0.3,0.1-0.5,0.3-0.8,0.4
					c-2.8,1-5.4,2.4-7.9,4.1c-0.7,0.5-1.3,1-1.9,1.5c-0.8,0.7-0.8,1-0.3,1.9c0.5,0.7,1,1.4,1.4,2.1c0.2,0.2,0.3,0.5,0.3,0.8
					c-0.4-0.3-0.8-0.6-1.2-0.9c-0.9-0.6-1.5-0.6-2.1,0.2c-2.9,3.3-5.1,7-5.6,11.5c-0.3,2.8,0.7,5.2,2.3,7.4c0.2,0.3,0.5,0.6,0.8,1.1
					c-0.5,0-0.8,0-1.1,0.1c-1.3,0.1-2.5,0.6-3,1.9c-0.5,1.3-0.4,2.6,0.4,3.8c0.2,0.3,0.4,0.5,0.6,0.7c0.3,0.4,0.6,0.8,0.4,1.3
					c-0.2,0.7,0.1,1.3,0.6,1.8c0.6,0.6,0.8,1.4,0.8,2.2c0,0.5,0.1,1.1,0.3,1.5c0.4,1,0.9,2,1.4,3c0.7,1.4,1.7,2.2,3.2,2.6
					c1.4,0.3,2.7,0.8,3.8,1.6c0.4,0.3,0.8,0.6,1,1c0.7,1.3,1.4,2.7,2,4c0.5,0.4,0.9,0.9,1.1,1.6c0.4,1,0.8,2,1.3,3
					c0.1,0.1,0.1,0.2,0.2,0.3c1,1.7,2.1,3.4,3.1,5.1c0.2,0.2,0.4,0.5,0.5,0.7c1.4,1.6,3.3,2.6,5.2,3.5c2.7,0.5,5.5,2.5,8.2,2.7
					c1.5-0.5,3-1,4.6-1.5c0.1-0.1,0.3-0.3,0.4-0.4c1.6-1.1,3.3-2.1,4.9-3.2c2.1-1.5,3.6-3.4,4.4-5.9c1-3.1,2.3-6.2,3.4-9.3
					c0.5-1.5,1.5-2.5,2.7-3.3c0.7-0.5,1.5-0.8,2.2-1.3c1.3-0.7,2.7-1.5,4-2.2c0.8-0.5,1.4-1.2,1.6-2.1
					C631.7,97,632.4,92.9,632.1,88.6z M575.4,93.7c0.2,0.1,0.5,0.1,0.6,0.3c0.3,0.6,0.4,1.3,0.7,2c-0.8-0.3-1.2-0.9-1.4-1.6
					C575.2,94.2,575.3,93.9,575.4,93.7z M576.6,105.2c-1-0.3-1.7-0.8-2.1-1.7c-0.5-1-1-2-1.4-3c-0.1-0.3-0.2-0.6-0.2-0.9
					c0.1-1.2-0.4-2.1-1-3c-0.2-0.3-0.3-0.7-0.3-1.1c0.1-0.7-0.1-1.2-0.5-1.7c-0.3-0.4-0.7-0.8-1-1.2c-0.8-1.2-0.4-2.8,1-3.2
					c1-0.3,1.9-0.1,2.8,0.4c0.9,0.5,1.5,1.2,1.4,2.3c-0.1,0.1-0.2,0.1-0.3,0.2c-1.3,0.6-1.6,1.3-1.1,2.6c0.3,0.7,0.7,1.3,1.1,1.9
					c0.7,0.9,1.5,1.7,2.4,2.6c-0.2,0.2-0.4,0.5-0.7,0.8c-0.5,0.6-0.6,1.3-0.2,1.9c0.6,0.7,1.1,1.6,1.9,2c0.8,0.5,0.9,1.1,0.9,1.9
					C578.3,105.7,577.5,105.4,576.6,105.2z M588.5,120c-1.7-2.7-3.2-5.3-4.4-8.3c1.4,0.2,2.6,0.5,3.9,0.9c0.7,0.2,0.9,0.7,1.1,1.3
					C589.7,116,589.2,118,588.5,120z M618,111.9c-0.7-2.4-0.3-3.5,1.5-3.7C619,109.4,618.6,110.6,618,111.9z M622.1,100.5
					c-0.6,1.9-1.3,3.8-1.8,5.5c-1.1,0.5-2,0.9-2.8,1.4c-0.7,0.4-1.2,1-1.2,1.7c-0.1,1.8-0.2,3.6,0.8,5.2c-0.6,1.7-1.2,3.4-1.8,5.2
					c-0.4,1.5-1.2,2.6-2.4,3.6c-0.6,0.5-1.2,1-1.8,1.4c-2.5,1.5-5,3-7.5,4.5c-0.6,0.3-1.1,0.3-1.6,0.1c-3.2-1.2-6.4-2.2-9.3-3.9
					c-1.1-0.6-1.9-1.3-2.6-2.3c-0.3-0.5-0.4-0.9-0.2-1.5c0.3-0.9,0.5-1.8,0.7-2.7c0.3-1.6,0.5-3.1,0.1-4.7c-0.3-1.6-1.2-2.5-2.8-2.9
					c-1.6-0.4-3.2-0.7-4.9-1.1c-0.6-1.3-1.3-2.7-1.9-4.2c-0.2-0.6-0.5-1.1-0.5-1.7c-0.1-2.1-0.2-4.2-0.1-6.3
					c0.2-5.6,0.6-11.1,0.9-16.7c0-0.4,0.1-0.7,0.2-1.1c0.1-0.5,0.3-0.9,0.8-1.1c1-0.4,1.9-0.9,2.9-1.2c1.7-0.5,3.3-0.2,4.8,0.9
					c0.8,0.6,1.6,1.1,2.5,1.4c1.7,0.6,3.4,0.3,5.1-0.4c0.7-0.3,1.4-0.6,2.1-0.6c4.6-0.1,9.1-0.7,13.5-1.7c2-0.4,3.6-0.3,5.3,0.7
					c0.9,0.5,1.4,1,1.5,2c0.2,2,0.5,4,0.7,6c0.5,4.6,0.9,9.1,1.4,13.7C622.2,99.9,622.2,100.2,622.1,100.5z M626.2,92.5
					c0.6,0,1-0.5,1.6-0.2c-0.4,1.3-1.2,2.3-2.4,3C625.6,94.4,625.9,93.5,626.2,92.5z M625,100.5c-0.5,0.3-0.8,0.6-1.2,0.9
					C623.9,100.1,623.9,100.1,625,100.5z M629.7,99.6c-0.2,1.3-0.8,2.2-2,2.8c-0.4,0.2-0.7,0.4-1.1,0.6c-1.2,0.6-2.4,1.2-3.6,1.8
					c-0.2,0.1-0.5,0.2-0.7,0.3c0.3-1.7,0.3-1.6,1.7-2.3c0.7-0.3,1.4-0.7,1.9-1.3c1-1.1,0.5-2.4-0.8-2.9c-0.2-0.1-0.4-0.1-0.8-0.3
					c0.4-0.3,0.5-0.4,0.7-0.5c1.3-1,2.6-2.1,3.5-3.6c0.4-0.6,0.7-1.4,0.9-2.1c0.2-1.1-0.4-1.8-1.6-1.8c-0.3,0-0.7,0-1.3,0.1
					c0.3-0.6,0.3-1.2,0.7-1.4c1-0.7,2.1-1.2,3.3-1.8c0.1,0.7,0.2,1.1,0.2,1.6C630.9,92.6,630.1,96.1,629.7,99.6z"/>
				<path class="st23" d="M589.2,102.9c-0.3,0.2-0.5,0.5-0.2,0.8c0.2,0.1,0.6,0.2,0.7,0.1c1.5-1,3.2-1.4,4.9-1.6
					c0.2,0,0.4-0.3,0.6-0.4c-0.1-0.2-0.2-0.4-0.4-0.5c-0.1-0.1-0.3-0.2-0.4-0.3c0.3-0.5,0.5-0.9,0.7-1.3c1.4-2.7,1.4-5.4,0.1-8.2
					c-0.3-0.7-1-1.3-0.7-2.2c0.1-0.3-0.4-0.6-0.7-0.3c-0.2,0.2-0.4,0.4-0.6,0.6c-1,1-1.9,2.1-2.9,3.1c-1.6,1.6-3.7,2.7-5.8,3.4
					c-0.4,0.1-1,0.2-0.8,0.8c0.2,0.6,0.7,0.3,1.1,0.2c0.3-0.1,0.5-0.2,1-0.3c0.6,2.5,2.1,4.1,4.5,5.2
					C590,102.4,589.6,102.6,589.2,102.9z M587.1,96.3c2.7-1.2,4.7-3.2,6.6-5.4c2,2.7,2.2,6.2,0,9.3c-0.7,0.9-1.6,1.3-2.7,0.8
					C588.9,100.2,587.5,98.7,587.1,96.3z"/>
				<path class="st23" d="M615.2,94c-0.2-1.4-0.7-2.7-1.8-3.8c-1.7-1.7-4.1-1.8-5.9-0.2c-3.1,2.7-3,9.1,0.8,11.1
					c0.1,0.1,0.2,0.1,0.4,0.3c-0.3,0.2-0.6,0.3-0.7,0.6c-0.2,0.2-0.2,0.5-0.3,0.7c0.2,0.1,0.5,0.2,0.7,0.2c0.2,0,0.4-0.2,0.7-0.3
					c1.6-0.6,3.2-1.1,5-0.9c0.3,0,0.7,0.1,0.8-0.4c0.1-0.4-0.2-0.6-0.6-0.7c-0.3-0.1-0.6-0.2-1.1-0.3
					C614.9,98.4,615.5,96.3,615.2,94z M612.7,99.1c-1.6,1.8-3.7,1.7-5.2-0.2c-0.9-1.2-1.2-2.6-1.1-3.9c0.1-1.4,0.5-2.6,1.3-3.7
					c1.6-2,4-1.8,5.4,0.2C614.7,93.7,614.4,97.2,612.7,99.1z"/>
				<path class="st23" d="M606,118.1c-0.9-0.9-2.4-1.5-4.3-1.6c-1.2,0-2.7,0.5-4,1.7c-1,0.9-1.4,2-1.3,3.4c0.1,1.7,1.3,2.6,3,2.3
					c0.7-0.1,1.3-0.3,2-0.6c1.1-0.5,2.1-0.4,3.1,0.2c1.1,0.6,1.9,0.3,2.5-0.8C607.7,121.3,607.3,119.3,606,118.1z"/>
				<path class="st23" d="M606.2,87.8c0.3-0.5,0.5-1,0.7-1.6c0.6-1.5,0.8-1.6,2.4-1.7c2.4-0.1,4.8,0.1,7,1.1c0.1,0,0.2,0.1,0.3,0.1
					c0.7,0.2,1.1,0.1,1.3-0.5c0.2-0.6-0.1-0.9-0.5-1.2c-1.3-1-2.8-1.5-3.9-1.5c-2.5-0.1-4.4,0.3-6.2,1.2c-0.4,0.2-0.9,0.5-1.1,0.9
					c-0.4,0.9-0.8,1.8-1.1,2.7c-0.1,0.2,0.1,0.5,0.2,0.7C605.7,88,606.1,88,606.2,87.8z"/>
				<path class="st23" d="M584.7,92.8c1.7-2.2,3.8-3.8,6.4-5c0.7-0.3,1.3-0.7,2-1.1c0.7-0.3,1-1,1.3-1.7c0.1-0.2-0.1-0.4-0.1-0.6
					c-0.2,0.1-0.7,0.1-0.7,0.2c-0.5,1.3-1.8,1.4-2.8,1.8c-1.1,0.4-2.2,0.8-3.3,1.3c-1.8,0.9-3.3,2.2-4.2,4.1c-0.1,0.3-0.3,0.6-0.4,1
					c0.1,0.2,0.3,0.6,0.5,0.7c0.2,0.1,0.6,0,0.8-0.1C584.4,93.3,584.6,93,584.7,92.8z"/>
				<path class="st23" d="M598.5,114.8c0.8-0.2,1.4,0.2,2.1,0.4c0.8,0.2,1.5,0.1,2.2-0.3c0.5-0.3,1-0.4,1.6-0.4
					c1.2,0.1,1.8-0.4,2.1-1.5c0.4-1.3,0-2.5-0.9-3c-0.2-0.1-0.6-0.1-0.8,0c-0.3,0.3-0.1,0.6,0.1,0.8c0.7,0.9,0.8,1.5,0.3,2.4
					c-0.1,0.1-0.2,0.2-0.3,0.3c-0.1,0-0.1-0.1-0.2-0.1c0-0.1,0.1-0.3,0.1-0.4c-0.1-0.2-0.2-0.5-0.4-0.6c-0.1-0.1-0.4,0.2-0.6,0.3
					c-0.4,0.4-0.8,0.9-1.3,1.2c-1.1,0.7-1.9,0.5-2.8-0.6c-0.6-0.8-0.7-0.8-1.4,0c-0.5-0.7-0.7-1.4-0.2-2.3c0.1-0.2,0-0.6-0.1-0.7
					c-0.3-0.3-0.6-0.1-0.8,0.2c-0.1,0.2-0.3,0.5-0.3,0.8c-0.3,1.2,0.1,2.2,0.9,3.1C598,114.6,598.3,114.9,598.5,114.8z"/>
				<path class="st23" d="M602.3,104.5c0,0.1,0,0.2,0.1,0.4c0.1,0.4,0.1,0.8,0.6,0.7c0.2,0,0.4-0.5,0.5-0.6
					c-0.2-1.7-0.5-3.3-0.6-4.8c-0.3-3.1-0.4-6.2-0.7-9.4c0-0.2,0-0.5,0-0.7c-0.1-0.3-0.2-0.7-0.6-0.6c-0.2,0.1-0.4,0.4-0.4,0.6
					c0,0.9,0,1.7,0.1,2.6C601.6,96.6,601.9,100.6,602.3,104.5z"/>
				<path class="st23" d="M601.8,124.7c-0.4,0.2-0.8,0.4-1.2,0.7c-0.1,0,0,0.3,0,0.4c0.4,0.5,0.8,0.1,1.2,0.1c0.4,0,0.7-0.2,0.5-0.6
					C602.4,125,602.1,124.9,601.8,124.7z"/>
			</g>
		</g>
	</g>
	<g id="Слой_16">
		<path class="st18" d="M634.5,110.3c0,0-6.7-7.7-14-5c-7.3,2.7-6.7,12.3-2.1,18.6c4.6,6.3,5,9.4,5.4,12.3c0.4,2.9,1,6.7,1,6.7
			s2.5-1.7,4-1.7s1-1.7,1.9-4.2c0.8-2.5,1.5-4,3.6-4.4c2.1-0.4,3.1-1.5,6.1-0.4c2.9,1,4.8,2.7,4.8,2.7l-0.4-4c0,0,4,2.3,4.2,2.9
			c0.2,0.6,3.3,3.6,3.3,3.6v-4l3.6,3.6c0,0-9.4-11.9-13-16.5C639.3,116,634.5,110.3,634.5,110.3z"/>
	</g>
</g>
<g id="Слой_14">
	<g>
		<g>
			<path class="st24" d="M280.3,240.6c-0.5-0.2-0.9-0.3-1.3-0.5c-2.7-1-5.3-2.1-7.9-3.5c-1.3-0.8-1.9-1.8-1.9-3.3
				c0-1.4-0.2-2.8-0.2-4.2c0-1.1-0.4-1.9-1.5-2.2c-0.3-0.1-0.6-0.3-0.9-0.4c-5.9-2.6-12.1-4.8-18.2-7c-1.7-0.6-3.4-0.9-5.2-1.1
				c-3.6-0.5-7.3-0.4-10.9-0.1c-4,0.3-7.9,0.5-11.9,0.1c-0.3,0-0.7,0-1.1-0.1c-0.1,0.9-0.2,1.8-0.3,2.6c-0.2,1.8-0.4,3.5-0.6,5.3
				c-0.1,1-0.7,1.7-1.5,2.1c-0.7,0.4-1.4,0.7-2.2,0.9c-2.9,0.8-5.8,1.6-8.7,2.4c-0.6,0.2-1.3,0.4-1.8,0.6c0,0.2-0.1,0.3-0.1,0.4
				c0,6.5,0.1,13.1,0.7,19.6c0.6,6.8,1.2,13.6,1.8,20.3c0.5,4.9,1.1,9.9,1.8,14.8c0.7,4.8,1.5,9.7,2.2,14.5c0.4,2.6,0.9,5.2,1.3,7.9
				c0.1,0,0.1,0,0.2,0c0.1-0.2,0.2-0.4,0.2-0.6c0.4-1.1,0.8-2.3,1.2-3.4c0.1-0.3,0.2-0.6,0.4-0.8c0.1-0.1,0.4-0.2,0.6-0.2
				c0.1,0,0.2,0.3,0.2,0.5c0,0.2-0.1,0.4-0.2,0.6c-0.5,1.3-0.9,2.6-1.4,3.9c-1.3,3.8-2.4,7.6-3.8,11.3c-1.9,5.2-4.1,10.3-6,15.5
				c-2.6,7.5-5,15-7.5,22.5c-0.4,1.1-0.3,1.3,0.7,2.1c2.1,1.5,4.2,2.8,6.2,4.3c0.7,0.5,1.4,0.5,2.2,0.1c0.7-0.4,1.4-0.7,2.1-1.1
				c0.6-0.3,1-0.2,1.4,0.3c0.1,0.1,0.2,0.3,0.4,0.5c1.7-1.8,3.3-3.4,4.9-5.1c0.4-0.4,0.7-0.8,1.1-1.1c0.7-0.6,1.5-0.3,1.6,0.7
				c0.1,0.4,0,0.8,0,1.3c-0.1,3-0.2,6-0.2,9c0,0.3,0,0.7,0,1c0.3-0.1,0.3-0.2,0.4-0.3c1.2-2.4,2.5-4.8,3.5-7.3
				c3-7.1,5.8-14.1,8.7-21.2c3-7.4,5.9-14.7,9.3-21.9c0.7-1.5,1.2-3.1,1.3-4.8c0.4-6.9,1-13.9,1.3-20.8c0.3-7.5,0.3-15,0.5-22.4
				c0.1-3.9,0.3-7.9,0.4-11.8c0.1-2.7,0.2-5.3,0.1-8c0-1.1,0.3-1.8,1.1-2.4c0.7-0.5,1.2-1.1,1.4-2c0.1-0.5,0.3-1,0.4-1.5
				c0.6-3.2,1.1-6.3,1.4-9.6c0.3-4.5,0.7-9,0.6-13.5c0-0.2,0-0.4,0-0.5c0-0.4,0.1-0.7,0.6-0.7c0.4,0,0.6,0.3,0.7,0.7
				c0.1,0.4,0.1,0.8,0.1,1.3c-0.1,6.5-0.4,13-1.4,19.4c-0.3,1.8-0.7,3.6-1.2,5.4c-0.2,0.6-0.6,1.3-1.1,1.7c-0.9,0.7-1.2,1.5-1.1,2.5
				c0,0.3,0,0.6,0,1c-0.3,8.1,0.2,16.1,0.7,24.1c0.4,6.1,0.9,12.2,1.2,18.4c0.3,5.2,0.3,10.4,0.5,15.5c0.1,2.6,0.3,5.2,0.7,7.8
				c0.2,1.9,0.8,3.8,1.2,5.7c0.1,0.5,0.2,0.9,0.3,1.6c0.3-0.6,0.4-0.9,0.6-1.2c1.6-3.3,3.2-6.6,4.8-9.8c0.3-0.6,0.6-1.1,1-1.6
				c0.8-1,1.7-1,2.3,0.2c0.3,0.5,0.5,1,0.6,1.6c0.4,1.6,0.8,3.2,1.3,4.7c1.3,4.3,2.5,8.6,3.8,13c0.1,0.4,0.3,0.8,0.5,1.3
				c0.2-0.2,0.3-0.2,0.4-0.3c0.5-0.7,0.9-1.4,1.4-2.1c0.8-1.2,1.7-1.2,2.4,0.1c0.2,0.3,0.3,0.6,0.5,1c0.4,0.9,0.7,1.9,1,2.8
				c0.1,0.3,0.3,0.6,0.4,1c0.3-0.2,0.5-0.4,0.7-0.5c1.3-1.2,2.2-0.6,2.6,0.7c0,0.2,0.1,0.3,0.2,0.5c0.5,1.6,1,3.3,1.5,4.9
				c0.1,0.4,0.2,0.7,0.4,1.1c0.1,0,0.2,0,0.2,0c0.3-1.1,0.6-2.1,1-3.2c0.4-1.2,0.4-2.2,0-3.4c-1.8-5.1-2.9-10.4-3.7-15.8
				c-0.4-2.5-0.7-5-1.7-7.3c-0.1-0.3-0.2-0.6-0.3-0.9c0-0.2-0.1-0.4-0.1-0.5c0.1-0.2,0.2-0.4,0.4-0.4c0.1,0,0.3,0.1,0.4,0.2
				c0.1,0.2,0.2,0.5,0.2,0.7c0.2,0.5,0.3,1,0.5,1.4c0.4-0.8,0.6-1.6,0.9-2.5c1.4-4.5,2.8-9.1,4.1-13.6c1.1-3.8,2.1-7.6,2.9-11.4
				c0.6-3,0.9-6,1.3-9c0.6-4.1,1-8.2,1.1-12.4c0.2-6.5,0-13-0.4-19.6C280.8,244.6,280.5,242.6,280.3,240.6z M203.5,362.2
				c-0.3,0-0.5-0.2-0.7-0.4c-1-0.7-2.1-1.4-3.1-2.2c-0.1,0-0.1-0.1-0.2-0.1c-0.1-0.2-0.3-0.5-0.2-0.7c0.1-0.3,0.5-0.2,0.7-0.1
				c0.5,0.3,0.9,0.6,1.4,1c0.7,0.5,1.5,1,2.2,1.5c0.2,0.2,0.4,0.4,0.7,0.7C203.9,362,203.6,362.2,203.5,362.2z M225.6,331.3
				c-2.7,5.8-5.3,11.7-8.4,17.3c-1,1.8-2,3.5-3,5.2c-0.2,0.4-0.5,0.7-0.9,1.1c-0.2,0.3-0.6,0.3-0.8,0c-0.1-0.2-0.1-0.5-0.1-0.8
				c0-0.1,0.1-0.2,0.2-0.3c3.3-4.9,5.8-10.2,8.4-15.5c1.2-2.4,2.3-4.7,3.3-7.1c0.2-0.5,0.4-1.1,0.5-1.6c0-0.4,0.1-0.8,0.6-0.9
				c0.4-0.1,0.8,0.3,0.8,0.8c0,0.1,0,0.1,0,0.4C226,330.3,225.8,330.8,225.6,331.3z M228.5,305.5c-0.1,0.2-0.3,0.5-0.5,0.5
				c-0.4,0.1-0.6-0.2-0.6-0.5c0-0.2,0-0.4,0-0.6c-0.3-7-0.5-14-0.9-21c-0.5-9.2-1.9-18.3-3.6-27.4c-0.7-3.8-1.4-7.5-2.1-11.3
				c-0.2-0.8-0.2-1.7-0.3-2.5c-0.1-0.4,0-0.8,0.5-0.9c0.5-0.1,0.7,0.3,0.8,0.7c0.2,1.3,0.3,2.5,0.6,3.8c0.9,4.8,1.8,9.5,2.7,14.3
				c1.1,6,2,12.1,2.5,18.2c0.4,5,0.6,10,0.9,13.5c0.2,5.1,0.3,8.6,0.4,12.2C228.6,304.8,228.6,305.2,228.5,305.5z M264,241.2
				c0,0.1-0.1,0.2-0.1,0.3c-1.5,4.7-2.4,9.6-3.4,14.5c-1,5.1-2,10.1-2.9,15.2c-0.7,4.5-1.3,9-1.8,13.6c-0.5,4.6-1,9.2-1.5,13.7
				c-0.1,0.5,0,1.1-0.7,1.1c-0.5,0-0.6-0.4-0.6-1.6c0.3-3.3,0.7-7,1.1-10.7c0.6-4.6,1.1-9.3,1.8-13.9c0.8-5,1.7-10,2.7-14.9
				c0.9-4.7,2-9.3,3.1-14c0.3-1.2,0.7-2.4,1-3.6c0.1-0.4,0.3-0.7,0.7-0.6C264,240.4,264.1,240.7,264,241.2z"/>
			<path class="st24" d="M204.3,231.1c1.6-0.4,3.1-0.7,4.6-1.2c2.3-0.6,4.5-1.3,6.7-2c1.1-0.3,1.9-1.1,2-2.4
				c0.2-1.9,0.4-3.7,0.6-5.6c0.1-0.6,0.1-1.1,0.2-1.7c-4.5-0.5-8.9-1.3-13.5-1.6c0,0.5-0.1,0.9-0.1,1.3c0,0.4,0,0.8,0,1.2
				c-0.2,3.8-0.4,7.6-0.6,11.5C204.2,230.7,204.2,230.9,204.3,231.1z"/>
			<path class="st24" d="M270.2,234c0,0.7,0.4,1.3,1,1.6c0.8,0.5,1.6,0.9,2.4,1.4c2,1,4.1,1.8,6.4,2.6c-0.3-2.2-0.6-4.2-0.9-6.4
				c-3-1.6-6-3.3-9.3-5C270,230.2,270.1,232.1,270.2,234z"/>
		</g>
		<g>
			<path class="st20" d="M179.1,190c0.4,1.7,0.5,3.4,0.5,5.2c0,0.5,0,1,0.2,1.5c0.5,2.1,0.4,4.1-0.8,6c-0.1,0.2-0.2,0.5-0.3,0.8
				c-0.3,1.1-0.5,2.1-0.1,3.2c0.2,0.8,0.6,1.4,1.5,1.9c1-8,2-15.9,3-23.9c-0.8,0.6-1.4,1.2-2.1,1.6C179.3,187,178.8,188.2,179.1,190
				z"/>
			<path class="st20" d="M266.9,360.5c-0.5-1.3-0.5-2.6-0.2-3.9c0.5-1.9,0.5-1.9-0.9-3.3c-0.2-0.2-0.3-0.4-0.5-0.5
				c-0.7-0.8-1.1-1.7-1.2-2.8c-0.1-0.5-0.2-1-0.2-1.5c0-1.3-0.6-2.2-1.7-2.9c-0.5-0.3-1.1-0.6-1.8-1.1c0.4,2.5,5.4,19.1,6,20
				c0.2-0.8,0.4-1.5,0.5-2.3C267.1,361.7,267.1,361,266.9,360.5z"/>
			<path class="st20" d="M285.6,196.3c0,1.3-0.1,2.6,0.2,3.8c0.3,1.5,0.7,3,1.2,4.5c0.5,1.7,0.6,3.5,0.5,5.2
				c-0.2,2.3-0.4,4.6,0.1,6.9c0.2,1.3,0.9,1.9,2.2,2.3c-0.4-4.3-0.8-8.5-1.3-12.7c-0.4-4.2-0.8-8.5-1.4-12.9
				C286.1,194.4,285.6,195.3,285.6,196.3z"/>
			<path class="st20" d="M238,116.9c0-0.9,0.1-1.7,0-2.4c0-0.4-0.3-0.8-0.6-1c-1-0.7-2.1-0.9-3.3-0.6
				C234.5,114.1,236.5,116.2,238,116.9z"/>
			<path class="st20" d="M170.5,237.3c0.8-1.4,0.9-2.9,0.9-4.5c-0.1-1.2-0.8-1.9-2-2.6c0.2,2.6,0.6,4.9,0.7,7.5
				C170.3,237.5,170.4,237.5,170.5,237.3z"/>
			<path class="st20" d="M261.1,113.1c-0.9,0.8-2.1,1.2-2.9,2.2c-0.5,0.7-0.7,1.3-0.6,2.3c1.9-1.1,3.4-2.5,4.7-4.5
				C261.7,113,261.3,112.9,261.1,113.1z"/>
			<path class="st20" d="M291.5,235.1c0-1.4,0-2.6,0-3.8c-0.5,0.1-0.6,0.4-0.6,0.7C290.9,233.1,290.7,234.1,291.5,235.1z"/>
		</g>
		<g>
			<path class="st25" d="M218,216.9c3.6,0.5,7.2,0.6,10.8,0.4c3.3-0.2,6.6-0.4,9.9-0.4c3.6,0,7.2,0.4,10.6,1.6
				c4.9,1.8,9.8,3.6,14.6,5.5c5,2,9.6,4.7,14.3,7.3c0.7,0.4,1.4,0.8,2.3,1.3c0-0.8,0.1-1.4,0-2c-0.8-3.1-1.6-6.2-2.4-9.3
				c-0.3-1-0.8-1.7-1.6-2.2c-1-0.6-1.9-1.3-2.6-2.3c-1-1.4-1.7-3-2.1-4.7c-0.9-3.8-1.8-7.5-2.7-11.3c0-0.1-0.1-0.3-0.1-0.4
				c0-0.2,0.2-0.4,0.3-0.4c0.2,0,0.4,0.1,0.5,0.2c0.2,0.3,0.3,0.7,0.3,1c0.5,2.3,1.1,4.7,1.6,7c0.2,0.9,0.4,1.7,0.6,2.5
				c0.1-0.2,0.2-0.4,0.1-0.6c-0.2-2.6-0.5-5.2-0.5-7.8c-0.1-5.9,0-11.8,0-17.8c0-0.9,0-1.8-0.2-2.6c-0.2-1.3-0.6-2.5-0.3-3.8
				c0.2-1.1,0.1-2.3,0.2-3.4c0.3-7.1,0.5-14.2,0.9-21.4c0.2-3.5,0.7-7.1,1.1-10.6c0-0.4,0.2-0.8,0.7-0.8c0.5,0,0.6,0.4,0.6,0.8
				c0,0.7-0.1,1.3-0.1,2c-0.3,2.7-0.7,5.5-0.9,8.2c-0.3,4.7-0.5,9.4-0.7,14.1c-0.1,3.3-0.3,6.7-0.4,10c0,1.4,0.2,2.8,0.3,4.2
				c0,0.3,0.2,0.5,0.3,0.8c0.2-0.1,0.3-0.1,0.5-0.1c0.9-0.4,1.7-0.8,2.6-1.2c1-0.4,1.9-1,2.9-1.3c5.7-1.6,11.5-3,17.5-2.6
				c0.2,0,0.4-0.1,0.6-0.1c-0.1-0.5-0.2-0.8-0.3-1.2c-1.8-5.8-3.5-11.6-5.3-17.4c-1.6-5.2-3.1-10.5-4-16c-0.5-3-1.2-6-1.8-9
				c-0.3-1.6-1.3-2.8-2.8-3.6c-0.5-0.3-1-0.5-1.5-0.7c-2.3-0.9-4.5-1.8-6.8-2.7c-2.1-0.8-4.2-1.4-6.4-1.7c-0.5-0.1-0.8-0.3-0.8-0.8
				c0-0.4,0-0.8,0-1.2c-1.2-0.3-2.1-0.3-2.9-0.1c-0.1,0.2-0.1,0.4-0.2,0.6c-0.9,3.4-3,6-5.7,8.1c-2.4,1.8-5.1,3-7.9,3.9
				c-2.5,0.8-5,0.8-7.6,0.3c-3.4-0.7-6.5-2.1-9.4-4.1c-3.6-2.6-6.1-5.9-7.4-10.1c-0.2-0.6-0.4-1.3-0.6-1.9c-1.3,0-2.4,0-2.9,1.5
				c-0.2,0.5-0.7,0.7-1.2,0.7c-0.3,0-0.6-0.1-0.8,0c-1.7,0.5-3.5,0.4-5.3,0.4c-2.1,0-4.3,0-6.4,0c-3.3,0-6,1.5-8.2,3.7
				c-2.6,2.5-5.1,5.2-7.5,7.8c-4.7,5.1-9.3,10.2-14,15.3c-0.3,0.3-0.5,0.6-0.8,0.9c0.5,0.2,0.9,0.4,1.3,0.5c1.8,0.8,3.6,1.6,5.3,2.5
				c5.7,3.3,10.5,7.6,14.3,13c0.5,0.7,1,1.5,1.5,2.3c0.2,0.3,0.4,0.7,0,0.9c-0.4,0.3-0.6-0.2-0.8-0.5c-3.1-4.8-6.9-8.8-11.4-12.2
				c-3.3-2.5-7-4.4-11-5.8c-0.5,0.6-1,1.2-1.6,1.8c-0.5,0.6-1,1.2-1.5,1.9c1.4,0.7,2.7,1.3,4,1.9c5.8,3.1,10.8,7.1,15.3,11.9
				c1.7,1.8,3.3,3.7,5,5.5c0.1,0.1,0.2,0.2,0.3,0.3c0.2-0.2,0.4-0.3,0.5-0.4c1.6-1.5,3.2-2.9,4.7-4.5c2.3-2.4,4.6-4.8,6.5-7.5
				c0.1-0.2,0.3-0.5,0.5-0.5c0.4-0.1,0.4-0.4,0.5-0.7c0.1-2.2,0.3-4.5,0.3-6.7c0.2-4.3-0.2-8.6-0.5-13c0-0.3-0.1-0.6,0-0.8
				c0.1-0.2,0.3-0.4,0.5-0.4c0.2,0,0.5,0.2,0.6,0.4c0.1,0.2,0.1,0.5,0.1,0.7c0.1,0.9,0.1,1.8,0.2,2.7c0.6,5.9,0.5,11.9,0,17.8
				c-0.3,4-1,7.9-1.7,11.9c-0.6,4.1-1.4,8.1-2,12.2c-0.7,4.3-1.4,8.7-2.1,13c-0.1,0.7-0.3,1.4-0.4,2.1c0.7-1.5,1.4-3.1,1.9-4.6
				c0.9-2.7,1.8-5.5,2.8-8.3c0.1-0.4,0.3-0.8,0.6-1.2c0.1-0.1,0.3-0.2,0.5-0.1c0.1,0.1,0.2,0.3,0.2,0.4c0,0.2-0.1,0.3-0.1,0.5
				c-1.9,5.5-3.8,10.9-5.7,16.4c-0.1,0.3-0.3,0.6-0.2,0.8c0.2,0.7-0.2,1.1-0.6,1.5c-1.2,1.3-2.5,2.5-3.7,3.8c-1.7,1.8-3.4,3.6-5,5.4
				c-0.2,0.3-0.4,0.6-0.8,1c1-0.1,1.8-0.1,2.6-0.2c2.1,0,4.3-0.2,6.4,0C210,215.8,214,216.4,218,216.9z M286,172.1
				c2.2-0.4,4.5-0.5,6.8-0.8c0.4,0,0.8,0,1.2,0c0.2,0,0.3,0.2,0.7,0.5c-0.2,0.1-0.4,0.2-0.6,0.3c-0.2,0-0.5,0.1-0.7,0.1
				c-5.2,0.3-10.3,1.2-15.3,2.7c-0.7,0.2-1.3,0.5-2,0.7c-0.2,0.1-0.5,0.2-0.7,0.2c-0.1,0-0.4-0.1-0.4-0.3c0-0.1,0-0.4,0.2-0.4
				c0.2-0.1,0.4-0.2,0.7-0.3C279,173.4,282.4,172.7,286,172.1z M279.8,129.6c0.1-0.1,0.1-0.1,0.2-0.2c0,0,0.1,0.1,0.1,0.1
				c0.1,0.1,0.3,0.2,0.3,0.4c0,0.4-0.4,0.8-0.8,0.7c-0.1-0.1-0.3-0.3-0.3-0.4C279.4,130,279.6,129.8,279.8,129.6z M277.9,132.3
				c0.1-0.2,0.2-0.4,0.4-0.5c0.3-0.3,0.6-0.3,0.9-0.1c0.3,0.2,0.3,0.5,0.1,0.9c-1,2-1.9,4.1-3,6.3c-0.3-0.1-0.7-0.3-1.2-0.5
				C276,136.2,277,134.2,277.9,132.3z M211.3,134.6c-0.2,0-0.5-0.1-0.6-0.3c-0.2-0.2-0.2-0.5-0.3-0.8c-0.6-1.7-1.2-3.4-1.9-5
				c-0.4-1-1.1-1.9-1.7-2.8c-0.2-0.2-0.4-0.5-0.1-0.7c0.2-0.1,0.5-0.1,0.7,0.1c0.3,0.2,0.5,0.5,0.7,0.8c0.5,0.8,1,1.5,1.3,2.3
				c0.7,1.7,1.3,3.4,1.9,5.1c0.1,0.3,0.1,0.5,0.2,0.9C211.5,134.3,211.4,134.6,211.3,134.6z M267,154.7c-0.2,4.2-0.4,8.4-0.5,12.5
				c0,0.8-0.3,1.3-0.9,1.8c-1.6,1.7-3.4,3.1-5.2,4.5c-1.6,1.3-1.7,1.3-3.3,0c-2.1-1.7-4.1-3.4-6.2-5.1c-0.4-0.3-0.5-0.8-0.5-1.2
				c-0.2-2-0.3-4-0.4-5.9c0-0.6,0-1.1,0-1.7c0,0,0,0-0.1,0c0-1.7,0-3.3,0-5c0-0.9,0.3-1.2,1.1-1c3.5,0.9,7,0.8,10.6,0.6
				c1.4-0.1,2.9-0.3,4.3-0.4C266.8,153.6,267.1,153.8,267,154.7z M244.2,138.4c0.5,0,1,0.1,1.5,0.1c3.2,0.5,6.4,0.4,9.6-0.2
				c1.3-0.3,2.6-0.8,3.7-1.5c3-1.6,5.4-3.8,7.2-6.8c0.2-0.3,0.4-0.6,0.6-0.9c0.1-0.1,0.4-0.2,0.5-0.1c0.1,0.1,0.1,0.4,0.1,0.5
				c0,0.1-0.1,0.2-0.1,0.3c-3.5,5.6-8.3,9.2-15.1,9.6c-0.8,0-1.6,0-2.3,0c0,0.1,0,0.1,0,0.2c-1.8-0.2-3.6-0.4-5.4-0.6
				c-0.1,0-0.3,0-0.4-0.1c-0.2-0.1-0.3-0.3-0.4-0.4C243.9,138.6,244.1,138.4,244.2,138.4z M223.7,123.8c0.1,0,0.4,0,0.5,0.1
				c0.2,0.2,0.2,0.4,0.3,0.7c1.1,2.6,2.6,4.9,4.4,7c1.6,2,3.7,3.2,6.1,4.1c0.3,0.1,0.5,0.2,0.8,0.3c0.1,0.1,0.2,0.3,0.3,0.5
				c-0.2,0.1-0.3,0.3-0.4,0.3c-0.3,0-0.6-0.1-0.8-0.2c-3.2-1.1-5.8-3-7.8-5.8c-1.3-1.8-2.5-3.6-3.3-5.7c-0.1-0.3-0.2-0.6-0.3-0.9
				C223.5,124.1,223.6,123.8,223.7,123.8z M221.5,200.8c2-3.8,3.3-7.9,4.6-12c0.1-0.3,0.1-0.6,0.2-0.9c0-0.3,0.1-0.7,0.4-0.6
				c0.2,0,0.4,0.4,0.6,0.6c-0.1,0.4-0.1,0.7-0.2,0.9c-1.3,4.2-2.6,8.4-4.7,12.3c-0.1,0.3-0.3,0.6-0.5,0.8c-0.1,0.1-0.3,0.1-0.5,0.1
				c-0.1-0.1-0.2-0.3-0.2-0.4C221.2,201.3,221.4,201,221.5,200.8z"/>
			<path class="st25" d="M267.5,373.1c-0.9,1-1.6,2.2-1.9,3.5c-0.2,0.9-0.4,1.7-0.5,2.6c-0.1,1.2-0.5,2.2-1.3,3.1
				c-0.7,0.8-1.4,1.6-2.1,2.4c-2.3,2.6-4.6,5.2-6.5,8.2c-0.1,0.2-0.3,0.5-0.5,0.9c0.4-0.2,0.7-0.4,0.9-0.5c2.2-1.1,4.3-2.2,6.6-2.9
				c3.9-1.1,7.9-1.6,12-1.5c2.3,0,4,0.8,5.2,2.8c0.3,0.5,0.6,0.9,0.9,1.3c0.1,0.2,0.3,0.3,0.6,0.6c-0.1-0.6-0.2-0.9-0.3-1.3
				c-0.9-3.4-1.7-6.7-2.6-10.1c-0.1-0.5-0.2-1.1-0.2-1.7c0.2-1.6,0-3.3-0.4-4.8c-0.1-0.5-0.3-1-0.6-1.3c-0.9-0.9-1.7-1.8-2.8-2.4
				C272,370.6,269.1,371.1,267.5,373.1z M268.7,379.9c1.2-0.3,2.4-0.4,3.6-0.1c0.2,0,0.4,0.4,0.4,0.6c0,0.2-0.4,0.5-0.6,0.5
				c-0.5,0-1.1,0-1.5-0.1c-0.5,0.1-1,0.1-1.5,0.1c-0.4,0-0.8,0-0.8-0.5C268.3,380.3,268.5,380,268.7,379.9z M273.3,385
				c-0.1,0.1-0.3,0.1-0.5,0.1c-1.3-0.3-2.7-0.6-4-0.9c-0.4-0.1-0.7-0.4-0.6-0.8c0.1-0.4,0.5-0.5,0.9-0.4c1.3,0.3,2.6,0.6,3.9,1
				c0.3,0.1,0.5,0.3,0.8,0.5C273.5,384.7,273.4,384.9,273.3,385z"/>
			<path class="st25" d="M196.3,368.4c-0.5,0.4-1,0.9-1.5,1.4c-0.8,0.7-1.3,1.7-1.4,2.8c-0.1,1.4-0.1,2.9-0.2,4.3
				c0,0.4-0.1,0.8-0.1,1.2c-0.6,2.2-1.1,4.5-1.7,6.7c-0.4,1.5-0.8,3.1-1.2,4.6c0.1,0,0.1,0,0.2,0.1c0.7-0.9,1.4-1.8,2.1-2.8
				c0.7-1,1.7-1.5,2.9-1.6c1.2-0.1,2.3-0.2,3.5-0.2c5.9,0.1,11.4,1.5,16.6,4.4c0.2,0.1,0.5,0.2,0.7,0.3c0-0.1,0.1-0.1,0.1-0.2
				c-0.9-1.2-1.6-2.5-2.6-3.6c-2-2.5-4.2-4.9-6.2-7.4c-0.8-0.9-1.3-1.9-1.4-3.1c-0.2-1.9-0.7-3.7-1.7-5.5
				C202.8,367.3,198.8,366.4,196.3,368.4z M202.8,380.1c-0.1,0.1-0.4,0.2-0.6,0.2c-1.1,0.3-2.3,0.5-3.4,0.8c-0.1,0-0.3,0.1-0.5,0.1
				c-0.1-0.1-0.4-0.2-0.5-0.5c-0.2-0.3,0.1-0.6,0.4-0.8c1.4-0.6,2.8-0.8,4.3-1c0.2,0,0.5,0.2,0.6,0.3
				C203,379.6,202.9,379.9,202.8,380.1z M203,376.7c-0.1,0.4-0.5,0.4-0.9,0.4c-0.9-0.1-1.8-0.1-2.6-0.1c-0.1,0-0.3,0-0.4,0
				c-0.2-0.1-0.5-0.3-0.5-0.4c0-0.2,0.2-0.6,0.4-0.6c0.6-0.2,1.2-0.2,1.7-0.3c0.6,0.1,1.2,0.1,1.7,0.2
				C202.8,376,203.1,376.2,203,376.7z"/>
			<path class="st25" d="M195.9,386.3c-1.1,0.1-1.9,0.5-2.5,1.4c-1.1,1.5-2.3,3.1-3.4,4.6c-0.5,0.7-0.9,1.5-1.5,2.4
				c10.4,0.1,20.5,0.2,30.9,0.3c-0.7-1.4-1.4-2.7-2.7-3.4c-1.5-0.9-2.9-1.7-4.5-2.4C207,386.7,201.5,386,195.9,386.3z"/>
			<path class="st25" d="M275.9,390.4c-2.2-0.3-4.3-0.2-6.5,0c-5.2,0.5-10.1,2.2-14.5,5c-1.3,0.9-2.1,2.1-3,3.7
				c10-0.3,19.8-0.4,29.6-0.3c0.3,0,0.7-0.1,1.1-0.1c-0.1-0.3-0.2-0.6-0.3-0.7c-1.6-2.2-3.2-4.5-4.8-6.7
				C277.1,390.6,276.5,390.4,275.9,390.4z"/>
			<path class="st25" d="M251.3,155.1c0,0.3-0.1,0.4-0.1,0.6c0.1,3.4,0.3,6.8,0.3,10.2c0,1.1,0.5,1.9,1.3,2.5
				c1.8,1.4,3.6,2.9,5.3,4.4c0.6,0.5,0.7,0.5,1.4,0c1.8-1.5,3.7-2.9,5.2-4.6c0.3-0.3,0.4-0.7,0.5-1.1c0.1-3.6,0.3-7.2,0.4-10.8
				c0-0.3,0-0.6,0-1C260.8,155.6,256,156,251.3,155.1z M263.6,158.8c-0.4,0-0.8,0.1-1.2,0.1c-2.5-0.1-5-0.3-7.5-0.4
				c-0.3,0-0.6-0.1-0.9-0.2c-0.1-0.1-0.2-0.3-0.2-0.4c0-0.1,0.2-0.2,0.4-0.3c0.1,0,0.2,0,0.3,0c2.8,0.2,5.7,0.3,8.5,0.5
				C263.3,158.1,263.7,158.1,263.6,158.8z"/>
		</g>
		<g>
			<path class="st21" d="M234.6,111.8c0.9,0,1.8,0.1,2.7,0.5c0.9,0.4,1.6,1.1,1.6,2.2c0,0.5,0,1,0,1.5c-0.1,1,0.1,1.8,1.1,2.4
				c2.5,1.3,5,2.6,7.5,4c0.4,0.2,0.8,0.2,1.2,0c2.1-1.1,4.2-2.1,6.3-3.3c1.4-0.8,1.4-0.8,1.6-2.4c0.1-0.8,0.4-1.4,0.9-2
				c0.7-0.8,1.6-1.2,2.4-1.9c0.8-0.7,1.6-0.9,2.7-0.5c0.3-0.8,0.6-1.5,0.9-2.2c0.6-1.7,1.2-3.4,1.7-5.1c0.6-1.9,1.4-3.8,1.2-5.9
				c0-0.1,0-0.3,0-0.4c0.5-3.3,1-6.5,1.4-9.8c0.2-1.2,0.2-2.3,0.2-3.5c0-0.7-0.3-1.1-1-1.3c-0.6-0.2-1.1-0.4-1.7-0.5
				c-1.2-0.3-1.4-0.7-1.1-1.9c0.2-0.7,0.4-1.4,0.6-2.1c0.1-0.3,0-0.5,0.1-0.9c-5.6,1.3-11.2,2.2-16.8,2.2c-5.7,0-11.2-0.9-16.9-2.2
				c0.1,0.5,0.2,0.9,0.2,1.2c0.2,0.7,0.4,1.3,0.5,2c0.2,1,0,1.4-1,1.6c-0.7,0.2-1.4,0.4-2.1,0.7c-0.5,0.1-0.7,0.5-0.7,1
				c0,0.7-0.1,1.4,0,2.1c0.3,2.8,0.7,5.6,1.1,8.4c0.2,1.4,0.5,2.7,0.5,4.1c0,0.9,0.2,1.8,0.4,2.7c0.8,2.6,1.7,5.1,2.5,7.7
				c0.2,0.6,0.4,1.1,0.7,1.7C233.9,111.8,234.2,111.8,234.6,111.8z M242.6,100.4c-0.2,0.1-0.5,0.1-0.7,0.2c-1.4,0.3-2.7,0.6-3.8,1.4
				c-0.1,0.1-0.2,0.2-0.3,0.2c-0.2,0-0.4,0-0.5-0.1c-0.1-0.1,0-0.3,0-0.5c0.1-0.2,0.3-0.3,0.5-0.4c1.3-0.9,2.8-1.3,4.4-1.5
				c0.1,0,0.3,0,0.4,0.1c0.1,0.1,0.3,0.2,0.3,0.4C242.8,100.1,242.7,100.3,242.6,100.4z M251.5,110.3c-0.2,1.2-0.4,2.5-0.6,3.7
				c-0.1,0.7-0.2,1.4-0.4,2.1c-0.3,1.1-0.9,1.8-2.3,1.4c-0.3-0.1-0.7-0.2-1.1-0.3c-0.4-0.1-0.9,0-1.3,0.2c-0.7,0.4-1,0.2-1.1-0.6
				c-0.1-0.7-0.1-1.4-0.1-2.2c0,0,0,0,0.1,0c0-0.8,0-1.7,0-2.5c0-0.6,0.3-1.1,0.8-1.4c1.5-1.2,3.3-1.5,5.2-1.4
				C251.4,109.4,251.6,109.6,251.5,110.3z M259.1,102c-0.3,0.5-0.7,0-1-0.2c-1.1-0.7-2.3-1-3.5-1.3c-0.1,0-0.3,0-0.4-0.1
				c-0.3-0.1-0.8-0.1-0.7-0.6c0.1-0.2,0.5-0.3,0.6-0.4c1.7,0.3,3.2,0.6,4.4,1.5C258.9,101.3,259.4,101.5,259.1,102z M263.7,103.7
				c-0.5,0.6-1.1,1.1-1.6,1.7c-0.9,0.9-1.4,1.9-1.6,3.2c-0.1,0.5-0.2,1-0.3,1.6c-0.1,0.3-0.1,0.7-0.5,0.6c-0.2,0-0.3-0.4-0.4-0.6
				c0.3-1.2,0.5-2.2,0.7-3.2c0.1-0.3,0.2-0.7,0.4-1c0.9-1,1.8-2,2.7-3c0.1-0.1,0.5-0.1,0.7-0.1C263.8,103.2,263.9,103.5,263.7,103.7
				z M261.4,98.5c0-0.3,0.2-0.5,0.3-0.8c0.3-0.8,0.5-1.5,0.8-2.3c0.1-0.3,0.1-0.6,0.5-0.5c0.2,0.1,0.3,0.3,0.5,0.5
				c-0.2,1.4-0.7,2.4-1.3,3.5c-0.1,0.1-0.4,0.2-0.4,0.2C261.5,98.8,261.3,98.6,261.4,98.5z M253.1,85.3c0.4-0.2,0.8-0.4,1.2-0.5
				c2.1-0.8,4.2-1.5,6.5-1.6c0.6,0,1.3,0,1.9,0.1c0.5,0,0.8,0.3,1,0.7c0.3,0.7,0,1.1-0.7,1.2c-0.7,0-1.4,0-2.1,0
				c-2.2-0.3-4.3,0.2-6.4,0.8c-0.4,0.1-0.8,0.1-1.1,0.1c-0.1,0-0.3-0.2-0.3-0.3C252.8,85.6,253,85.4,253.1,85.3z M254.1,89.4
				c1.5-1.8,3.7-1.6,4.9,0.4c0.6,1.1,0.8,2.2,0.8,4c0,1.1-0.4,2.6-1.4,3.9c-1.5,1.9-3.7,1.7-5-0.3C252.2,95.1,252.5,91.4,254.1,89.4
				z M244.5,103.5c0-0.2,0.4-0.2,0.5-0.4c0.1,0.2,0.2,0.4,0.3,0.6c0,0.4-0.1,0.8-0.1,1.1c0,0.1,0.1,0.2,0.3,0.4
				c0.1-0.5,0.2-0.8,0.2-1.2c0.3,0.2,0.5,0.3,0.6,0.4c0.2,0.2,0.4,0.5,0.6,0.7c0.8,0.7,1.6,0.6,2.4,0c0.2-0.2,0.3-0.4,0.5-0.5
				c0.2-0.2,0.4-0.3,0.6-0.4c0.1,0.2,0.2,0.5,0.3,0.7c0,0.1,0,0.2,0.1,0.3c0.5-0.2,0.3-0.6,0.3-0.9c0-0.2-0.1-0.5-0.1-0.7
				c0-0.1,0.1-0.4,0.2-0.4c0.1,0,0.4,0,0.5,0.1c0.4,0.4,0.5,1.7,0.2,2.2c-0.3,0.6-0.8,0.8-1.6,0.6c-0.3-0.1-0.5,0-0.8,0.1
				c-0.9,0.5-1.8,0.5-2.6,0c-0.3-0.2-0.6-0.2-1-0.1c-0.9,0.2-1.6-0.3-1.6-1.2C244.3,104.5,244.4,104,244.5,103.5z M242.8,97.3
				c-1.3,2.1-3.6,2.2-5.1,0.3c-1-1.3-1.3-2.8-1.3-4.4c0-1.2,0.2-2.4,0.9-3.5c1.2-2,3.4-2.1,4.9-0.3
				C243.8,91.4,244.1,95.1,242.8,97.3z M233.5,83.3c0.6-0.1,1.2-0.2,1.8-0.2c1.1,0.1,2.2,0.2,3.2,0.5c1.5,0.4,3,1,4.4,1.5
				c0.2,0.1,0.3,0.4,0.5,0.6c-0.2,0.1-0.5,0.3-0.7,0.3c-0.3,0-0.6-0.1-0.8-0.2c-0.7-0.2-1.2-0.3-1.8-0.5c-1.6-0.4-2.8-0.5-4.6-0.4
				c-0.6,0-1.2,0.1-1.8,0.1c-0.5,0-1,0.1-1.1-0.6C232.5,84.1,232.9,83.5,233.5,83.3z M234.6,98.3c0,0.1-0.1,0.2-0.2,0.3
				c-0.1,0-0.4,0-0.5-0.1c-0.6-0.8-1.1-1.8-1.2-2.8c0-0.1,0.1-0.4,0.2-0.4c0.1-0.1,0.4,0,0.4,0.1c0.4,0.9,0.8,1.8,1.2,2.7
				C234.6,98.1,234.6,98.2,234.6,98.3z M232.5,103.7c-0.2-0.2-0.4-0.5-0.1-0.7c0.1-0.1,0.5-0.1,0.6,0.1c2.2,1.9,3.9,4,4,7.2
				c-0.1,0.2-0.2,0.5-0.4,0.5c-0.3,0.1-0.5-0.1-0.6-0.4c-0.2-0.7-0.3-1.5-0.4-2.2c-0.2-1-0.6-1.9-1.4-2.6
				C233.7,104.9,233.1,104.3,232.5,103.7z"/>
			<path class="st21" d="M178.4,157.4c-0.5,1.2-0.8,2.2-1.3,3.2c-1.3,2.7-2.6,5.3-3.8,7.9c-0.2,0.4-0.5,0.9-0.5,1.4
				c-0.4,3.7-0.8,7.4-1,11.1c-0.2,3.2-0.3,6.4-0.4,9.7c-0.2,11.6-0.4,23.1-0.6,34.7c0,1.2,0,2.4-0.7,3.7c0.2,0.2,0.4,0.3,0.6,0.4
				c1.9,1.3,2.3,3.1,2.1,5.2c-0.2,1.5-0.7,2.9-1.5,4.2c-0.4,0.7-1,1.3-1.1,2.3c-0.3,3.1-0.5,6.3-1,9.4c-0.2,1.2,0.3,1.8,1.1,2.5
				c1.2,1,2.3,2.1,3.5,3.1c0.2,0.2,0.3,0.3,0.5,0.5c0.4-0.8,0.5-1.5,0.4-2.2c-0.2-1.3-0.8-2.5-1.5-3.6c-0.5-0.9-0.5-1.7,0-2.5
				c0.2-0.2,0.3-0.5,0.4-0.7c1.4-2.5,2.5-5.1,2.2-8.1c0-0.1,0-0.2,0-0.3c0-0.6,0.3-0.9,0.7-0.9c0.5,0.1,0.6,0.4,0.6,0.9
				c0,1.7,0.1,3.5-0.6,5.1c-0.6,1.5-1.4,3-2.1,4.4c-0.3,0.6-0.4,1.1,0,1.7c0.8,1.2,1.2,2.6,2.1,3.8c1,1.3,1.8,2.8,2.7,4.2
				c0.3,0.4,0.7,0.8,1.1,1.1c1.7,1,3.4,2.1,4.8,3.4c0.2,0.2,0.4,0.3,0.6,0.5c0.1-0.1,0.2-0.2,0.2-0.2c0.2-2.1-1.4-4.6-3.4-5.3
				c-0.8-0.3-1.3-0.7-1.7-1.5c-0.5-1.4-1.3-2.6-2.3-3.7c-0.4-0.5-0.7-1-1-1.5c-0.1-0.2,0-0.6,0.2-0.7c0.2-0.1,0.5,0,0.8,0
				c0.1,0,0.2,0.2,0.3,0.3c1.1,1.6,2.5,3.1,3.2,5c0.2,0.4,0.5,0.6,0.9,0.8c1.1,0.4,2.2,0.5,3.3,0.7c0.9,0.1,1.7,0.3,2.6,0.5
				c-0.2-0.9-0.4-1.3-1.2-1.7c-1.3-0.7-2.6-1.4-3.9-2c-0.7-0.3-1.1-0.7-1.4-1.3c-0.2-0.4-0.5-0.7-0.7-1.1c-0.3-0.4-0.7-0.8-0.7-1.3
				c-0.1-0.7-0.5-1.1-0.9-1.5c-0.5-0.6-0.6-1-0.3-1.3c0.3-0.3,0.6-0.2,1.3,0.4c1.3,1.1,2.5,2.3,3.8,3.4c0.7,0.5,1.5,0.9,2.2,1.2
				c0.9,0.3,1.4-0.2,1.2-1.1c-0.1-0.5-0.5-0.9-0.9-1.3c-1.5-1.5-3.1-3-4.6-4.5c-0.9-0.9-1.4-2-1.1-3.4c0.1-0.6,0.2-1.2,0.3-1.8
				c0.2-1,0.1-2-0.2-2.9c-0.3-1.1-0.6-2.2-0.9-3.3c-0.5-1.7-1.1-3.3-1.6-5c-0.6-1.9-1.1-3.8-1.7-5.7c0-0.1,0-0.2,0-0.3
				c0-0.4,0.1-0.7,0.5-0.7c0.2,0,0.5,0.2,0.7,0.4c0.2,0.2,0.2,0.4,0.3,0.7c0.1,0,0.1,0,0.2,0c0.8-4,1.5-8.1,2.3-12.1
				c-0.3-0.2-0.6-0.4-0.8-0.6c-0.7-0.5-1.4-1.1-2.1-1.6c-1.2-1-1.7-2.4-1.7-4c0-1.3,0.3-2.5,0.9-3.6c0.8-1.4,1-2.9,0.6-4.4
				c-0.1-0.5-0.2-1-0.2-1.5c-0.1-2.1-0.1-4.1-0.6-6.1c-0.1-0.3,0-0.6,0-1c0-1.3,0.5-2.4,1.6-3.2c0.4-0.3,0.8-0.5,1.2-0.8
				c0.8-0.5,1.4-1.1,1.6-2c0.2-0.9,0.8-1.7,1.6-2.2c1.2-0.7,2.2-1.8,3.7-2.1c0.5-0.1,0.8-0.3,0.9-0.9c0.2-1.9,1.1-3.6,2.2-5.1
				c0.5-0.7,1-1.4,1.7-2c0.5-0.4,1-0.9,1.2-1.6C188.9,164.4,184.1,160.4,178.4,157.4z"/>
			<path class="st21" d="M290.6,183.8c-0.1-1.4-0.2-2.9-0.3-4.3c0-0.3-0.2-0.5-0.2-0.8c-0.2,0-0.3,0-0.5,0c-0.8,0.1-1.5,0.3-2.3,0.4
				c-4.7,0.7-9.1,2.3-13.2,4.4c-0.2,0.1-0.3,0.2-0.5,0.3c0.2,2.2,0.4,4.4,0.6,6.6c0.8,6,1.6,12.1,2.5,18.1c0.4,3.1,1,6.2,1.4,9.3
				c0,0.3,0.2,0.6,0.3,0.9c0.3,0.8,0.8,1.5,1,2.3c0.9,3.2,1.7,6.5,2.5,9.8c0.1,0.4,0.1,0.9,0,1.4c-0.2,1.7,0.3,3.2,1.1,4.7
				c0.2-0.4,0.3-0.7,0.5-1c0.1-0.1,0.3-0.2,0.5-0.1c0.1,0,0.3,0.2,0.3,0.4c0,0.2,0,0.4-0.1,0.6c-0.5,1.4-0.9,2.9-1.4,4.3
				c-0.5,1.4-1,2.8-0.6,4.3c0.1,0.4,0.1,0.8,0.1,1.2c0.2,3.6,0.3,7.2,0.5,10.7c0,0.4,0.1,0.7,0.1,1.2c1-0.8,1.7-1.6,1.8-2.8
				c0.1-0.4,0.2-0.8,0.4-1.1c0.1-0.1,0.4-0.3,0.5-0.2c0.2,0.1,0.4,0.3,0.5,0.5c0.1,0.3,0,0.6-0.1,0.8c-0.1,0.6-0.3,1.2-0.5,1.9
				c0.1,0.1,0.3,0.1,0.4,0.2c1.8,1.6,1.8,1.6,1.6,4c0,0.1,0,0.2,0,0.3c0.1,1.5,0.1,2.9,0.2,4.4c0,0.5,0.2,0.9,0.7,1
				c0.3,0.1,0.6,0.3,0.9,0.5c0.3,0.2,0.5,0.5,0.2,0.9c-0.2,0.3-0.5,0.3-0.8,0.2c-0.3-0.1-0.5-0.2-0.8-0.3c-0.9,2-1.4,5-1.1,6.6
				c0.1,0,0.3,0,0.4,0.1c0.2,0.2,0.5,0.4,0.5,0.6c-0.1,0.2-0.3,0.5-0.6,0.6c-0.2,0.1-0.5,0.1-0.8,0.1c-0.6,1.7-0.7,3.4,0,5.3
				c0.2-0.2,0.2-0.3,0.3-0.4c0.8-1.7,1.5-3.3,2.3-5c0.2-0.4,0.3-0.8,0.3-1.2c0.1-2.2,0.3-4.5,1.1-6.6c0.1-0.2,0.1-0.5,0.1-0.7
				c0.3-2.2,0.6-4.3,1-6.5c0.9-5.7,1.9-11.3,2.8-17c0.1-0.3,0-0.8-0.2-1c-1-1.1-1.5-2.3-1.3-3.8c0,0,0-0.1,0-0.1
				c0.1-1.3-0.2-2.3-1.4-3.2c-1.6-1.1-1.6-2.9-1.5-4.7c0.1-1.5,1.2-1.9,2.2-2.4c0,0,0.1,0,0.2-0.1c0-0.1,0.1-0.2,0.1-0.3
				c-0.3-2.1-0.6-4.3-1-6.4c-0.1-0.4-0.4-0.9-0.8-1.2c-0.7-0.6-1.5-1.2-2.3-1.7c-1-0.6-1.5-1.4-1.7-2.5c-0.3-1.8-0.5-3.6-0.3-5.4
				c0.3-3,0.2-6-0.8-8.9c-0.5-1.3-0.7-2.7-0.9-4.1c-0.3-2.2,0-4.3,1.6-6c1.1-1.2,1.5-2.4,1.4-3.9c0-0.2,0-0.4,0-0.6
				c0-0.9,0.5-1.6,1.2-2.1c0.4-0.3,0.8-0.5,1.2-0.7C290.3,185.1,290.7,184.5,290.6,183.8z"/>
			<path class="st21" d="M241,133.5c3,1.1,6.2,1.3,9.3,0.5c2.5-0.7,4.9-1.8,7-3.2c1.9-1.3,3.5-2.9,4.7-4.8c0.4-0.6,0.6-1.2,1-2
				c-2-0.5-3.8-0.9-5.7-1.4c0,0.6-0.1,1-0.1,1.4c0,0.2,0,0.5-0.1,0.7c-0.1,0.3-0.3,0.6-0.7,0.5c-0.4,0-0.5-0.3-0.5-0.7
				c0-1,0.1-1.9,0.2-2.9c0-0.5,0-1.1,0-1.7c-0.2,0.1-0.3,0.1-0.4,0.1c-2.3,1.2-4.5,2.3-6.8,3.5c-0.5,0.2-0.9,0.4-1.4,0.1
				c-3.5-1.8-7.1-3.5-10.3-5.7c-0.2-0.2-0.5-0.3-0.9-0.5c0,0.4,0,0.8,0,1.1c0,1.8-0.1,3.5-0.1,5.3c0,0.4,0,0.8-0.2,1.1
				c-0.1,0.2-0.4,0.5-0.6,0.4c-0.2,0-0.5-0.3-0.6-0.5c-0.1-0.4,0-0.8,0-1.3c0-0.7,0.1-1.4,0-2.1c-1.1,0.2-2.1,0.5-3.1,0.6
				c-1,0.1-2.1,0-3.4,0c0.6,1,1,1.9,1.5,2.7C232.5,129.2,236.3,131.9,241,133.5z"/>
			<path class="st21" d="M269.6,338.7c-1.3,0.8-1.8,0.6-2.3-0.8c-0.4-1-0.7-1.9-1-2.9c-0.2-0.5-0.4-0.9-0.7-1.5
				c-0.3,0.6-0.6,1-0.8,1.3c-0.4,0.6-0.8,1.2-1.3,1.6c-0.7,0.7-1.5,0.5-1.9-0.4c-0.2-0.3-0.3-0.6-0.4-1c-0.4-1.1-0.7-2.1-1-3.2
				c-1.4-4.8-2.7-9.6-4.1-14.4c-0.1-0.5-0.2-1-0.6-1.4c-0.3,2.8-0.1,5.4,0.2,8.1c0.9,6.1,2.4,12,4,17.9c0.1,0.4,0.3,0.8,0.7,1
				c0.7,0.4,1.3,0.8,2,1.2c1.7,1,2.9,2.3,2.9,4.4c0,0.2,0.1,0.4,0.1,0.5c0,1.4,0.5,2.5,1.5,3.4c1.4,1.2,1.9,2.6,1.2,4.5
				c-0.4,1.1-0.4,2.2,0.1,3.2c0.4,1,0.3,2,0.1,3c-0.2,1-0.5,2-0.7,3c-0.4,1.6,0.1,3.1,0.8,4.6c2-1,4-1.1,6.3-0.4
				c-1.1-10.7-2.5-21.3-4.5-31.8C269.8,338.6,269.7,338.6,269.6,338.7z"/>
			<path class="st21" d="M223.2,90.2c-0.5-1-0.3-2.5,1.4-2.9c0.1,0,0.2-0.1,0.4-0.1c0-1.2-0.2-1.7-0.7-1.9c-0.7-0.2-1.3,0-1.9,0.4
				c-0.2,0.2-0.5,0.5-0.5,0.8c-0.1,0.6-0.3,1.3-0.3,2c0,1.6,0.8,3,1.7,4.3c0.8,1.3,1.3,2.6,1,4.2c-0.4,2.3,1.8,4.3,4.3,3.9
				c-0.6-2.5-1.2-4.9-1.8-7.3C224.9,92.9,223.9,91.7,223.2,90.2z M226.4,98.7c-0.2,0.1-0.7,0-0.8-0.2c-0.3-0.5-0.5-1-0.7-1.6
				c0.2-0.5,0.3-1,0.5-1.4c0.1-0.2,0.5-0.4,0.8-0.3c0.4,0.1,0.5,0.4,0.3,0.8c-0.3,0.7-0.2,1.3,0.2,1.9
				C226.8,98.2,226.7,98.6,226.4,98.7z"/>
			<path class="st21" d="M272.1,96.7c-0.2-1.2,0-2.3,0.7-3.3c0.5-0.8,1-1.6,1.4-2.5c0.3-0.8,0.5-1.8,0.7-2.6
				c0.1-0.7-0.1-1.5-0.5-2.1c-0.4-0.6-1.4-1-2-0.8c-0.6,0.1-0.9,0.6-0.9,1.6c0,0.1,0,0.2,0,0.3c0.1,0,0.2,0.1,0.3,0.1
				c1.6,0.5,2.1,1.6,1.3,3.1c-0.7,1.4-1.8,2.5-3.4,3.1c-0.6,2.4-1.2,4.9-1.8,7.4C270.5,101.2,272.5,99.2,272.1,96.7z M269.7,97.9
				c0.4-0.6,0.4-1.2,0.1-1.8c-0.1-0.3-0.1-0.7,0.3-0.8c0.2,0,0.7,0.1,0.8,0.3c0.2,0.4,0.3,0.8,0.5,1.3c-0.2,0.5-0.4,1.1-0.6,1.5
				c-0.2,0.3-0.5,0.5-0.9,0.3C269.5,98.6,269.5,98.2,269.7,97.9z"/>
			<path class="st21" d="M174.6,258.5c-0.9-0.3-0.9-0.3-1.5-1.1c-0.6-0.8-1.3-1.5-2.2-2.2c0,0.3,0,0.5,0,0.7
				c0.1,1.3,0.3,2.5,0.3,3.8c0,0.7,0.4,1.1,1,1.5c2.7,1.6,4.9,3.8,6.3,6.7c0.1,0.2,0.3,0.5,0.4,0.7c0.7-0.5,0.8-0.6,0.6-1.4
				c-0.2-1.4-0.7-2.7-1.8-3.8c-0.3-0.3-0.6-0.8-0.8-1.2c-0.3-0.6-0.7-1.1-1.2-1.6c-0.4-0.3-0.6-0.8-0.8-1.2
				C174.7,259.2,174.7,258.8,174.6,258.5z"/>
			<path class="st21" d="M293,259.6c-0.6,2.6-0.9,5.2-1.1,7.9c0.4-0.3,0.6-0.6,0.9-1c0.7-0.8,1-1.7,0.9-2.7
				c-0.1-1.4-0.2-2.8-0.4-4.2C293.2,259.5,293.1,259.5,293,259.6z"/>
			<path class="st21" d="M201.4,366.1c-1.6-1.1-3-2.1-4.4-3.1c-0.4,1.1-0.7,2.2-1,3.2c0.9-0.1,1.7-0.4,2.6-0.4
				C199.4,365.7,200.2,365.9,201.4,366.1z"/>
			<path class="st21" d="M271.9,89.7c0.2-0.4,0.2-0.8-0.3-1c-0.4-0.2-0.7,0.1-0.9,0.5c-0.2,0.8-0.4,1.6-0.6,2.3
				C271.1,91.1,271.6,90.5,271.9,89.7z"/>
			<path class="st21" d="M224.6,88.7c-0.5,0.2-0.4,0.7-0.2,1c0.4,0.8,0.8,1.5,1.8,2.1c-0.3-1-0.4-1.7-0.7-2.5
				C225.3,88.8,224.9,88.5,224.6,88.7z"/>
			<path class="st21" d="M285.3,274.4c0.1-0.8,0.2-1.6,0.3-2.6c-0.4,0.5-0.7,0.7-0.9,1.1C284.2,273.6,284.3,273.9,285.3,274.4z"/>
			<path class="st22" d="M239.6,89.1c-1,0.1-1.6,0.9-1.9,1.8c-0.7,1.9-0.6,3.8,0.4,5.6c0.2,0.3,0.4,0.6,0.6,0.8
				c1.1,1.1,2.3,0.9,3.1-0.3c0.6-0.9,0.8-1.9,0.8-3.1c0-1.1-0.2-2.3-0.9-3.4C241.3,89.7,240.7,89,239.6,89.1z"/>
			<path class="st22" d="M257.4,97.5c0.3-0.3,0.6-0.6,0.8-1c0.6-1,0.8-2,0.8-3.1c0-1.3-0.3-2.4-0.8-3.2c-0.9-1.3-2.1-1.4-3.2-0.2
				c-0.7,0.7-1,1.6-1.2,2.6c-0.3,1.6-0.3,3.3,0.7,4.7C255.3,98.2,256.4,98.4,257.4,97.5z"/>
		</g>
		<g>
			<path class="st23" d="M289.4,187.1c0.5-0.3,1-0.6,1.5-1c0.6-0.4,0.9-0.9,0.9-1.6c0-0.5,0.1-1.1,0.2-1.6c1-0.5,2.1-1,3.1-1.6
				c0.9-0.6,1.9-1.2,2.7-1.9c1-0.9,1.3-2.1,0.9-3.5c-1.9-6-3.7-12-5.5-18c-1.5-4.9-2.9-9.8-3.8-14.8c-0.6-3.2-1.3-6.5-1.9-9.7
				c-0.5-2.5-2-4.2-4.3-5.2c-4.2-1.7-8.3-3.6-12.8-4.5c-0.4-0.1-0.8-0.2-1.2-0.3c0-1.7-0.3-2.1-1.9-2.2c-0.7-0.1-1.5-0.1-2.2-0.1
				c-0.7,0-1.2,0.3-1.5,1c-0.1,0.2-0.1,0.3-0.3,0.6c-1.9-0.5-3.9-1-5.6-1.4c-0.2-0.8-0.3-1.4-0.5-2c0.7-0.4,1.4-0.9,2.1-1.4
				c2-1.5,3.8-3.2,4.7-5.6c0.6-1.6,1.2-3.2,1.7-4.8c0.6-1.7,1.1-3.5,1.7-5.3c0.4,0,0.7,0,1.1,0c3.7-0.3,5.3-3.2,4.9-5.5
				c-0.2-1.3,0.2-2.3,0.8-3.3c0.5-0.8,1-1.6,1.3-2.4c0.6-1.5,0.9-3.1,0.4-4.7c-0.5-1.5-1.5-2.3-3-2.4c-0.3,0-0.6,0-0.8-0.1
				c0.2-1.8,0.5-3.6,0.6-5.4c0.2-1.5,0.2-3,0.4-4.6c0.1-0.8-0.3-1.3-0.9-1.5c-0.6-0.2-1.2-0.3-1.8-0.3c-1.3,0-2.3-0.5-3-1.6
				c-0.4-0.7-0.9-1.4-1.3-2.1c-1.4-2.3-3.2-4.1-5.6-5.4c-5.6-2.9-11.5-3.6-17.7-2.4c-2.8,0.6-5.5,1.6-8.2,2.5c-2,0.7-4,0.8-6,0.4
				c-0.8-0.2-1.6-0.4-2.5-0.6c-0.8-0.2-1.3,0.2-1.4,1c0,0.3,0,0.6,0.1,1c0.1,0.8,0.3,1.7,0.4,2.7c-0.8-0.3-1.5-0.6-2.2-0.9
				c-0.3-0.1-0.6-0.3-1-0.4c-0.7-0.1-1,0.2-1,0.9c0,0.2,0,0.4,0.1,0.5c0.4,1.6,0.9,3.2,1.8,4.6c0.2,0.3,0.3,0.6,0.3,0.9
				c0.2,2.5,0.4,5,0.6,7.5c0.1,1,0.3,2.1,0.4,3.2c-0.2,0-0.4,0.1-0.5,0.1c-2.1,0.1-3.2,1.1-3.6,3.2c-0.1,0.5-0.1,1.1,0,1.7
				c0.2,1.7,0.9,3.2,1.8,4.6c0.7,1,1,2.1,0.8,3.4c-0.4,2.3,1.3,4.7,3.7,5.2c0.8,0.2,1.5,0.2,2.3,0.3c0.1,0.2,0.1,0.4,0.2,0.6
				c0.8,2.5,1.6,5.1,2.5,7.6c0.8,2.2,1.8,4.3,3.6,5.9c0,0,0.1,0.1,0.1,0.2c0,0-0.1,0-0.1,0c-0.1,1.1-0.1,2.3-0.2,3.4
				c-1.7,1-3.5,1.1-5.4,1c-1.6-0.1-1.6-0.1-2.1-1.7c0-0.1-0.1-0.2-0.1-0.3c-0.3-0.8-0.7-1.1-1.5-1.1c-1.7,0-3.2,0.3-3.8,2.1
				c-1.2,0.2-2.1,0.4-3.1,0.5c-1.1,0.1-2.2,0.1-3.3,0.1c-2,0-4,0-6,0c-2.5,0-4.9,0.6-6.9,2.1c-0.2,0.2-0.5,0.3-0.7,0.4
				c-0.4,0.2-0.8,0.4-1,0.7c-4.1,4.4-8.3,8.8-12.4,13.2c-3.8,4.1-7.6,8.2-11.4,12.4c-1.4,1.5-2.7,3.1-4,4.7c-0.3,0.3-0.5,0.6-0.2,1
				c0.4,0.6,0.5,1.4,0.5,2.1c0.1,1.8,0.1,3.6,0.2,5.4c0,0.2,0,0.5,0.1,0.7c0.3,0.4,0.1,0.7-0.1,1.1c-0.6,1.1-1.1,2.2-1.7,3.3
				c-0.5,0.9-0.7,1.8-0.8,2.7c-0.1,1.7-0.2,3.5-0.4,5.2c-0.2,2.5-0.6,5.1-0.7,7.6c-0.2,4.4-0.3,8.8-0.4,13.2
				c-0.2,9.8-0.3,19.6-0.5,29.4c0,1-0.2,1.9-0.6,2.8c-0.6,1.1-0.7,2.2-0.5,3.4c0.2,1.8,0.4,3.6,0.5,5.4c0.3,4.4-0.4,8.7-1,13
				c-0.2,1.2,0,2.1,0.9,2.9c0.2,0.2,0.4,0.4,0.5,0.7c0.2,0.8,0.4,1.5,0.5,2.3c0.1,1.2,0.2,2.3,0.3,3.5c0,1.1,0.5,1.8,1.5,2.4
				c2.1,1.2,4,2.9,5.2,5c0.4,0.6,0.7,1.3,1,1.9c0.5,1.1,1.2,1.2,2.2,0.5c0.8-0.6,1.2-1.4,1-2.4c-0.2-1.5-0.6-2.9-1.6-4
				c-0.6-0.7-1.2-1.5-1.6-2.4c-0.1-0.3-0.3-0.6-0.6-0.7c-0.9-0.5-1.1-1.4-1.4-2.3c-0.2-0.7-0.1-1.3,0.3-2.1c0.7,1.2,1.4,2.2,2,3.3
				c0.3,0.6,0.7,1,1.3,1.3c2,1.1,3.8,2.4,5.5,4c0.9,0.9,1.9,0.6,2.2-0.6c0.1-0.5,0.2-1.1,0.1-1.7c-0.2-0.9-0.6-1.8-0.9-2.7
				c-0.1-0.3-0.3-0.5-0.4-0.8c1.1-0.1,2.1,0.2,3,0.5c1.1,0.4,1.5-0.2,1.5-1.1c0-0.5-0.1-1-0.3-1.4c-0.3-0.8-0.9-1.3-1.6-1.8
				c-0.4-0.2-0.7-0.5-1.3-0.9c1,0,1.8-0.1,2.3-0.9c0.6-0.9,0.6-2.1,0-3c-0.3-0.4-0.6-0.7-0.9-1c-1.4-1.4-2.9-2.8-4.3-4.2
				c-0.7-0.7-1-1.4-0.8-2.4c0.1-0.4,0.1-0.9,0.2-1.4c0.2-1.1,0.3-2.2,0-3.4c-0.9-2.9-1.7-5.8-2.6-8.7c-0.2-0.7-0.4-1.4-0.3-2.1
				c0-1.3,0.2-2.6,0.4-3.9c0.6-3.3,1.2-6.6,1.9-9.8c0.3-1.4,0.4-2.6-1-3.3c-0.4-0.2-0.5-0.6-0.4-1.1c0.1-0.9,0.2-1.9,0.3-2.8
				c0.6-4.9,1.2-9.8,1.8-14.7c0.4-3,0.7-6.1,1.1-9.1c0-0.3,0.2-0.7,0.4-0.9c0.3-0.4,0.7-0.7,1.2-0.9c0.5-0.2,1-0.5,1.5-0.5
				c1.5-0.1,1.7-0.5,1.8-1.6c0.1-2.2,1.1-4,2.5-5.6c2.2,0.6,4.4,1.3,6.4,2.4c1,0.6,1.4,0.5,2.2-0.2c3.7-3.3,7.1-6.8,10.3-10.6
				c0.2-0.2,0.4-0.4,0.7-0.6c-0.1,3.1-0.4,5.9-0.9,8.8c-0.6,3.5-1.2,7.1-1.8,10.6c-0.9,5.6-1.9,11.3-2.8,16.9
				c-0.5,2.9-1.8,5.3-3.6,7.4c-1.7,1.9-3.4,3.8-5.1,5.7c-0.7,0.9-1.4,1.8-2.1,2.6c-0.5,0.7-0.4,1,0.3,1.4c0.2,0.1,0.4,0.2,0.6,0.2
				c2.1,0.6,4.1,1.2,6.2,1.9c1.1,0.3,1.2,0.4,1.1,1.6c-0.2,3-0.4,6.1-0.5,9.1c-0.2,7.7,0,15.3,0.6,23c0.6,6.8,1.2,13.6,1.9,20.4
				c0.4,4.4,1,8.7,1.6,13.1c0.7,4.9,1.5,9.7,2.2,14.6c0.6,3.5,1.2,6.9,1.8,10.4c0.1,0.3,0.1,0.7-0.1,1c-1.3,3.9-2.6,7.8-4.1,11.6
				c-3,7.9-6.3,15.7-8.7,23.7c-1.1,3.7-2.4,7.4-3.6,11.1c-0.4,1.1-0.2,2.1,0.7,2.9c0.2,0.1,0.3,0.3,0.4,0.5
				c-0.1,0.5-0.2,1.2-0.4,1.6c-0.7,1-0.7,2.2-1,3.3c-0.3,0.9-0.5,1.9-1,2.7c-1,1.8-1.5,3.7-1.4,5.8c0.1,1.4-0.1,2.7-0.5,4
				c-1.1,4.2-2.2,8.4-3.3,12.6c-0.3,1-0.5,2-1.3,2.7c-0.4,0.4-0.2,0.8,0.3,1c0.4,0.1,0.8,0.2,1.3,0.2c1.1,0,2.1,0.1,3.2,0.1
				c9.5-0.1,18.9,0,28.4,0.4c0.1,0,0.1,0,0.2,0c0.6,0,0.9-0.3,0.7-0.9c-0.1-0.4-0.2-0.7-0.4-1.1c-0.8-1.6-1.6-3.3-2.6-4.9
				c-1.1-1.8-2.3-3.6-3.6-5.2c-1.8-2.2-3.6-4.4-5.5-6.5c-0.8-0.9-1.2-1.8-1.3-2.9c-0.2-2.2-0.7-4.3-2.1-6.1
				c-0.4-0.6-0.7-1.2-0.7-1.9c0.9-0.5,1.8-0.9,2.8-1.4c0.1,0.2,0.1,0.4,0.2,0.5c0.3,0.9,0.8,1.1,1.6,0.5c0.3-0.2,0.5-0.4,0.7-0.6
				c0.8-0.9,1.7-1.7,2.5-2.6c0.2-0.2,0.4-0.3,0.6-0.5c0.3,2,0.6,4,1,5.9c0.3,1.6,0.7,3.1,1,4.7c0.1,0.4,0.3,0.8,0.7,0.8
				c0.3,0,0.6-0.3,0.8-0.5c0.3-0.3,0.4-0.7,0.6-1.1c3.3-6.5,6.2-13.1,8.9-19.9c4.5-11.4,8.8-22.8,14.1-33.9c0.1-0.3,0.3-0.7,0.3-1
				c0.1-0.8,0.2-1.5,0.2-2.3c0.4-5.6,0.8-11.1,1.1-16.7c0.2-4.6,0.3-9.3,0.5-13.9c0.1-1.6,0.1-3.1,0.2-4.7
				c0.5,5.7,0.9,11.4,1.2,17.1c0.2,5.2,0.3,10.3,0.5,15.5c0.1,2.7,0.2,5.4,0.8,8c0.3,1.5,0.6,3.1,1,4.6c0.2,0.9,0.3,1.9,0.6,2.8
				c0.3,1.1,1.4,1.3,2.1,0.4c1.6-1.9,3.2-3.8,4.8-5.7c0.1-0.2,0.2-0.4,0.3-0.6c0.3,0.4,0.3,0.5,0.4,0.7c0.5,2.8,0.9,5.6,1.5,8.4
				c1.1,4.7,2.3,9.4,3.6,14c2.3,8.1,4.8,16.1,7.3,24.1c0.3,1.1,0.1,2-0.5,2.8c-1.4,2-2,4.1-2.3,6.4c-0.1,1.1-0.5,2-1.2,2.8
				c-1.3,1.5-2.6,3.1-4,4.6c-3.3,3.6-5.8,7.9-8,12.2c-0.1,0.2-0.2,0.5-0.3,0.7c-0.3,0.9-0.1,1.3,0.8,1.2c3.3-0.1,6.6-0.2,9.9-0.3
				c6.4-0.1,12.8,0,19.1-0.1c1.1,0,2.3-0.1,3.4-0.2c0.3,0,0.6-0.3,0.8-0.5c0.1-0.1-0.2-0.5-0.3-0.7c-0.3-0.6-0.7-1.2-0.9-1.9
				c-1.2-4.6-2.4-9.3-3.6-13.9c-0.3-1-0.4-1.9-0.3-2.9c0.1-1.4,0-2.7-0.4-4c-0.4-1.3-1-2.6-1.9-3.6c-0.6-0.6-0.9-1.2-1-2
				c-0.2-2-0.4-4.1-0.7-6.1c-0.9-6.2-1.8-12.5-2.6-18.7c0-0.2,0-0.4,0-0.8c0.3,0.6,0.4,1,0.6,1.3c0.2,0.4,0.4,0.7,0.8,0.7
				c0.5,0,0.7-0.3,0.9-0.7c0.1-0.2,0.2-0.5,0.3-0.7c0.5-1.4,0.9-2.9,1.4-4.3c0.4-1.1,0.3-2.1,0-3.1c-1.9-5.5-3.1-11.2-4-17
				c-0.3-2.1-0.8-4.1-0.1-6.2c0.2-0.5,0.3-1,0.4-1.5c1.5-5.1,3.1-10.3,4.6-15.4c1.1-3.6,2.1-7.1,2.7-10.8c0.5-3.1,0.8-6.2,1.3-9.3
				c0.8-5,1-10.1,1.1-15.2c0-1,0-1.9,0.8-2.6c0.4-0.3,0.7-0.9,1-1.3c0.3,0.2,0.5,0.4,0.7,0.5c0.8,0.5,1,1.2,0.8,2.1
				c-0.1,0.6-0.1,1.2-0.1,1.8c0.1,1.4,0.2,2.8,0.3,4.2c0,0.5,0.1,1-0.3,1.5c-0.9,1.1-1.6,2.2-2.4,3.4c-0.8,1.1-0.7,2.2,0.3,3.1
				c0.3,0.3,0.8,0.5,1.2,0.8c-0.7,1.6-0.8,3.3-0.6,5c0.1,0.9,0.4,1.7,0.9,2.4c0.7,0.8,1.5,0.7,1.9-0.3c0.1-0.1,0.1-0.3,0.1-0.4
				c0.6-1.9,1.3-3.7,2.3-5.3c0.4-0.7,0.6-1.5,0.6-2.3c0-1,0.1-2,0.2-3c0-0.3,0.1-0.6,0.3-0.8c0.9-1.3,1.8-2.7,2.8-4
				c0.9-1.1,1.3-2.3,1.2-3.7c-0.2-2.2-0.5-4.4-0.7-6.5c-0.2-1.4-0.4-2.8-0.1-4.3c0.5-2.4,0.7-4.8,1.1-7.2c0.3-1.4,0-2.6-0.9-3.6
				c-0.3-0.3-0.5-0.7-0.4-1.1c0-0.6,0-1.2,0-1.8c-0.1-0.6,0-1.2-0.3-1.6c-0.5-0.8-0.5-1.6-0.6-2.4c-0.1-1.2-0.1-2.5-0.1-3.7
				c0-0.3,0.1-0.5,0.2-0.8c0.1-0.4,0.4-0.9,0.3-1.3c-0.3-2.2-0.6-4.4-1-6.5c-0.1-0.6-0.5-1.2-0.8-1.7c-0.3-0.5-0.5-0.9-0.6-1.4
				c-0.4-3.7-0.7-7.3-1.1-11c-0.5-4.6-0.9-9.2-1.4-13.9c-0.1-0.9-0.3-1.8-0.2-2.7c0-1.1,0.3-2.2,0.3-3.4
				C288.6,187.8,288.8,187.4,289.4,187.1z M285.3,274.4c-1-0.5-1.1-0.8-0.6-1.5c0.2-0.3,0.5-0.6,0.9-1.1
				C285.5,272.8,285.4,273.6,285.3,274.4z M257.5,117.5c-0.1-0.9,0.1-1.6,0.6-2.3c0.8-1,2-1.4,2.9-2.2c0.2-0.2,0.6,0,1.2,0
				C261,115,259.5,116.4,257.5,117.5z M270.8,89.2c0.1-0.4,0.4-0.7,0.9-0.5c0.5,0.2,0.4,0.6,0.3,1c-0.3,0.8-0.8,1.5-1.8,1.9
				C270.4,90.8,270.6,90,270.8,89.2z M273,90.4c0.8-1.5,0.3-2.6-1.3-3.1c-0.1,0-0.2-0.1-0.3-0.1c0-0.1,0-0.2,0-0.3
				c0-1,0.3-1.5,0.9-1.6c0.7-0.2,1.7,0.2,2,0.8c0.4,0.7,0.6,1.4,0.5,2.1c-0.1,0.9-0.3,1.8-0.7,2.6c-0.4,0.9-0.9,1.7-1.4,2.5
				c-0.6,1-0.9,2.1-0.7,3.3c0.4,2.5-1.6,4.4-4.3,4.1c0.6-2.5,1.2-4.9,1.8-7.4C271.2,93,272.3,91.8,273,90.4z M225.5,89.3
				c0.2,0.7,0.4,1.5,0.7,2.5c-1-0.6-1.5-1.3-1.8-2.1c-0.2-0.4-0.2-0.8,0.2-1C224.9,88.5,225.3,88.8,225.5,89.3z M224.2,97
				c0.3-1.6-0.2-2.9-1-4.2c-0.8-1.3-1.6-2.7-1.7-4.3c0-0.7,0.1-1.3,0.3-2c0.1-0.3,0.3-0.6,0.5-0.8c0.5-0.4,1.2-0.6,1.9-0.4
				c0.5,0.2,0.7,0.7,0.7,1.9c-0.2,0.1-0.3,0.1-0.4,0.1c-1.6,0.4-1.8,1.8-1.4,2.9c0.7,1.5,1.8,2.7,3.5,3.3c0.6,2.4,1.2,4.9,1.8,7.3
				C226,101.2,223.8,99.3,224.2,97z M232.8,110.2c-0.8-2.6-1.7-5.1-2.5-7.7c-0.3-0.9-0.4-1.8-0.4-2.7c0-1.4-0.3-2.7-0.5-4.1
				c-0.4-2.8-0.8-5.6-1.1-8.4c-0.1-0.7,0-1.4,0-2.1c0-0.5,0.2-0.8,0.7-1c0.7-0.2,1.4-0.4,2.1-0.7c1-0.3,1.2-0.7,1-1.6
				c-0.1-0.7-0.3-1.3-0.5-2c-0.1-0.3-0.1-0.7-0.2-1.2c5.6,1.3,11.2,2.2,16.9,2.2c5.6,0,11.2-0.9,16.8-2.2c0,0.3,0,0.6-0.1,0.9
				c-0.2,0.7-0.4,1.4-0.6,2.1c-0.3,1.2-0.1,1.6,1.1,1.9c0.6,0.2,1.1,0.4,1.7,0.5c0.7,0.2,1,0.6,1,1.3c-0.1,1.2-0.1,2.3-0.2,3.5
				c-0.4,3.3-0.9,6.5-1.4,9.8c0,0.1-0.1,0.3,0,0.4c0.2,2.1-0.6,4-1.2,5.9c-0.5,1.7-1.1,3.4-1.7,5.1c-0.2,0.7-0.6,1.4-0.9,2.2
				c-1.1-0.4-1.9-0.2-2.7,0.5c-0.8,0.6-1.7,1.1-2.4,1.9c-0.5,0.6-0.8,1.2-0.9,2c-0.1,1.6-0.1,1.7-1.6,2.4c-2.1,1.1-4.2,2.2-6.3,3.3
				c-0.4,0.2-0.8,0.2-1.2,0c-2.5-1.3-5-2.7-7.5-4c-1.1-0.5-1.2-1.4-1.1-2.4c0-0.5,0.1-1,0-1.5c-0.1-1.1-0.7-1.8-1.6-2.2
				c-0.9-0.4-1.8-0.5-2.7-0.5c-0.4,0-0.7,0-1.1,0C233.2,111.3,233,110.7,232.8,110.2z M234,112.8c1.2-0.2,2.3-0.1,3.3,0.6
				c0.3,0.2,0.6,0.7,0.6,1c0.1,0.8,0,1.6,0,2.4C236.5,116.2,234.5,114.1,234,112.8z M231.7,122.3c1-0.1,2-0.4,3.1-0.6
				c0.1,0.7,0,1.4,0,2.1c0,0.4-0.1,0.9,0,1.3c0,0.2,0.3,0.5,0.6,0.5c0.2,0,0.5-0.2,0.6-0.4c0.1-0.4,0.1-0.8,0.2-1.1
				c0-1.8,0.1-3.5,0.1-5.3c0-0.3,0-0.6,0-1.1c0.4,0.2,0.6,0.3,0.9,0.5c3.3,2.2,6.9,3.8,10.3,5.7c0.5,0.3,0.9,0.1,1.4-0.1
				c2.3-1.2,4.5-2.3,6.8-3.5c0.1,0,0.2-0.1,0.4-0.1c0,0.6,0,1.1,0,1.7c0,1-0.1,1.9-0.2,2.9c0,0.3,0.1,0.6,0.5,0.7
				c0.4,0,0.6-0.2,0.7-0.5c0.1-0.2,0.1-0.5,0.1-0.7c0-0.4,0.1-0.8,0.1-1.4c1.9,0.5,3.7,0.9,5.7,1.4c-0.4,0.7-0.6,1.4-1,2
				c-1.2,2-2.8,3.6-4.7,4.8c-2.2,1.4-4.5,2.5-7,3.2c-3.1,0.8-6.3,0.6-9.3-0.5c-4.6-1.7-8.5-4.3-11.2-8.5c-0.5-0.8-0.9-1.7-1.5-2.7
				C229.6,122.3,230.7,122.4,231.7,122.3z M171.4,232.9c0.1,1.6,0,3.1-0.9,4.5c-0.1,0.1-0.2,0.2-0.4,0.5c-0.1-2.6-0.5-5-0.7-7.5
				C170.6,231,171.3,231.7,171.4,232.9z M175.7,260.7c0.5,0.4,0.9,0.9,1.2,1.6c0.2,0.4,0.5,0.9,0.8,1.2c1,1.1,1.5,2.4,1.8,3.8
				c0.1,0.8,0,0.9-0.6,1.4c-0.1-0.2-0.3-0.5-0.4-0.7c-1.4-2.9-3.5-5.1-6.3-6.7c-0.6-0.4-0.9-0.7-1-1.5c0-1.3-0.2-2.5-0.3-3.8
				c0-0.2,0-0.3,0-0.7c0.9,0.7,1.6,1.4,2.2,2.2c0.6,0.8,0.6,0.8,1.5,1.1c0.1,0.3,0.2,0.7,0.3,1C175.1,259.9,175.4,260.4,175.7,260.7
				z M180,208.5c-0.8-0.5-1.2-1.1-1.5-1.9c-0.3-1.1-0.2-2.2,0.1-3.2c0.1-0.3,0.2-0.5,0.3-0.8c1.2-1.9,1.3-3.9,0.8-6
				c-0.1-0.5-0.2-1-0.2-1.5c0.1-1.7-0.1-3.5-0.5-5.2c-0.4-1.7,0.2-3,1.7-3.8c0.7-0.4,1.3-1,2.1-1.6C182,192.6,181,200.5,180,208.5z
				 M192.1,170.5c-0.7,0.6-1.2,1.3-1.7,2c-1.1,1.5-2.1,3.1-2.2,5.1c0,0.6-0.4,0.8-0.9,0.9c-1.4,0.3-2.5,1.3-3.7,2.1
				c-0.8,0.5-1.4,1.3-1.6,2.2c-0.2,0.9-0.8,1.5-1.6,2c-0.4,0.2-0.8,0.5-1.2,0.8c-1.1,0.8-1.6,1.9-1.6,3.2c0,0.3,0,0.6,0,1
				c0.5,2,0.5,4.1,0.6,6.1c0,0.5,0.1,1,0.2,1.5c0.4,1.6,0.2,3-0.6,4.4c-0.6,1.1-0.9,2.3-0.9,3.6c0,1.6,0.5,2.9,1.7,4
				c0.7,0.6,1.4,1.1,2.1,1.6c0.3,0.2,0.5,0.4,0.8,0.6c-0.8,4-1.5,8-2.3,12.1c-0.1,0-0.1,0-0.2,0c-0.1-0.2-0.2-0.5-0.3-0.7
				c-0.2-0.2-0.5-0.4-0.7-0.4c-0.4,0-0.5,0.3-0.5,0.7c0,0.1,0,0.2,0,0.3c0.6,1.9,1.1,3.8,1.7,5.7c0.5,1.7,1.1,3.3,1.6,5
				c0.3,1.1,0.6,2.2,0.9,3.3c0.3,1,0.4,1.9,0.2,2.9c-0.1,0.6-0.1,1.2-0.3,1.8c-0.3,1.4,0.2,2.5,1.1,3.4c1.5,1.5,3.1,3,4.6,4.5
				c0.4,0.4,0.7,0.8,0.9,1.3c0.2,0.9-0.4,1.4-1.2,1.1c-0.8-0.3-1.6-0.7-2.2-1.2c-1.3-1.1-2.6-2.2-3.8-3.4c-0.6-0.6-0.9-0.7-1.3-0.4
				c-0.3,0.3-0.3,0.7,0.3,1.3c0.4,0.4,0.8,0.9,0.9,1.5c0.1,0.4,0.5,0.9,0.7,1.3c0.2,0.4,0.5,0.7,0.7,1.1c0.3,0.6,0.8,1,1.4,1.3
				c1.3,0.6,2.6,1.3,3.9,2c0.8,0.5,0.9,0.8,1.2,1.7c-0.9-0.2-1.7-0.4-2.6-0.5c-1.1-0.1-2.2-0.2-3.3-0.7c-0.4-0.2-0.7-0.4-0.9-0.8
				c-0.7-1.9-2.1-3.4-3.2-5c-0.1-0.1-0.2-0.3-0.3-0.3c-0.3-0.1-0.6-0.2-0.8,0c-0.2,0.1-0.3,0.5-0.2,0.7c0.3,0.5,0.6,1.1,1,1.5
				c0.9,1.1,1.7,2.3,2.3,3.7c0.3,0.8,0.8,1.2,1.7,1.5c2,0.7,3.6,3.2,3.4,5.3c0,0.1-0.1,0.1-0.2,0.2c-0.2-0.2-0.4-0.3-0.6-0.5
				c-1.5-1.3-3.1-2.5-4.8-3.4c-0.4-0.2-0.8-0.7-1.1-1.1c-0.9-1.4-1.7-2.9-2.7-4.2c-0.9-1.2-1.3-2.6-2.1-3.8c-0.4-0.6-0.3-1.1,0-1.7
				c0.8-1.4,1.5-2.9,2.1-4.4c0.7-1.6,0.6-3.4,0.6-5.1c0-0.4-0.1-0.8-0.6-0.9c-0.4,0-0.6,0.3-0.7,0.9c0,0.1,0,0.2,0,0.3
				c0.3,3-0.8,5.6-2.2,8.1c-0.1,0.2-0.3,0.5-0.4,0.7c-0.5,0.8-0.5,1.6,0,2.5c0.7,1.1,1.3,2.3,1.5,3.6c0.1,0.8,0,1.5-0.4,2.2
				c-0.2-0.2-0.4-0.4-0.5-0.5c-1.2-1-2.3-2.1-3.5-3.1c-0.8-0.7-1.3-1.3-1.1-2.5c0.4-3.1,0.7-6.3,1-9.4c0.1-0.9,0.7-1.6,1.1-2.3
				c0.8-1.3,1.3-2.6,1.5-4.2c0.2-2.1-0.2-4-2.1-5.2c-0.2-0.1-0.3-0.2-0.6-0.4c0.7-1.3,0.7-2.5,0.7-3.7c0.2-11.6,0.4-23.1,0.6-34.7
				c0.1-3.2,0.2-6.5,0.4-9.7c0.3-3.7,0.7-7.4,1-11.1c0-0.5,0.3-0.9,0.5-1.4c1.3-2.6,2.6-5.3,3.8-7.9c0.5-1,0.8-2,1.3-3.2
				c5.7,3,10.5,6.9,14.9,11.5C193.1,169.6,192.6,170.1,192.1,170.5z M199.6,215.4c-0.8,0-1.5,0.1-2.6,0.2c0.3-0.5,0.5-0.8,0.8-1
				c1.7-1.8,3.3-3.6,5-5.4c1.2-1.3,2.5-2.5,3.7-3.8c0.4-0.4,0.8-0.8,0.6-1.5c-0.1-0.2,0.1-0.5,0.2-0.8c1.9-5.5,3.8-10.9,5.7-16.4
				c0.1-0.2,0.2-0.3,0.1-0.5c0-0.2-0.1-0.4-0.2-0.4c-0.1-0.1-0.4,0-0.5,0.1c-0.2,0.4-0.4,0.8-0.6,1.2c-0.9,2.8-1.8,5.5-2.8,8.3
				c-0.5,1.6-1.1,3.1-1.9,4.6c0.1-0.7,0.3-1.4,0.4-2.1c0.7-4.3,1.4-8.7,2.1-13c0.7-4.1,1.4-8.1,2-12.2c0.6-4,1.3-7.9,1.7-11.9
				c0.5-5.9,0.6-11.9,0-17.8c-0.1-0.9-0.1-1.8-0.2-2.7c0-0.2,0-0.5-0.1-0.7c-0.1-0.2-0.4-0.4-0.6-0.4c-0.2,0-0.4,0.2-0.5,0.4
				c-0.1,0.3,0,0.6,0,0.8c0.3,4.3,0.6,8.6,0.5,13c-0.1,2.2-0.2,4.5-0.3,6.7c0,0.3,0,0.6-0.5,0.7c-0.2,0.1-0.3,0.3-0.5,0.5
				c-1.9,2.7-4.2,5.1-6.5,7.5c-1.5,1.6-3.1,3-4.7,4.5c-0.1,0.1-0.3,0.3-0.5,0.4c-0.1-0.1-0.2-0.2-0.3-0.3c-1.7-1.8-3.3-3.7-5-5.5
				c-4.5-4.8-9.5-8.8-15.3-11.9c-1.3-0.7-2.6-1.2-4-1.9c0.5-0.6,1-1.3,1.5-1.9c0.5-0.6,1-1.2,1.6-1.8c4,1.5,7.7,3.3,11,5.8
				c4.5,3.4,8.3,7.5,11.4,12.2c0.2,0.3,0.3,0.7,0.8,0.5c0.4-0.3,0.2-0.6,0-0.9c-0.5-0.8-1-1.5-1.5-2.3c-3.8-5.3-8.6-9.7-14.3-13
				c-1.7-1-3.5-1.7-5.3-2.5c-0.4-0.2-0.8-0.3-1.3-0.5c0.3-0.4,0.6-0.7,0.8-0.9c4.7-5.1,9.3-10.2,14-15.3c2.5-2.7,4.9-5.3,7.5-7.8
				c2.3-2.1,4.9-3.7,8.2-3.7c2.1,0,4.3,0,6.4,0c1.8,0,3.5,0.1,5.3-0.4c0.3-0.1,0.6,0,0.8,0c0.5,0,1-0.2,1.2-0.7
				c0.4-1.5,1.6-1.5,2.9-1.5c0.2,0.7,0.4,1.3,0.6,1.9c1.3,4.2,3.9,7.5,7.4,10.1c2.8,2,5.9,3.5,9.4,4.1c2.6,0.5,5.1,0.4,7.6-0.3
				c2.8-0.9,5.5-2.1,7.9-3.9c2.8-2.1,4.8-4.7,5.7-8.1c0.1-0.2,0.1-0.4,0.2-0.6c0.9-0.3,1.8-0.2,2.9,0.1c0,0.4,0,0.8,0,1.2
				c0,0.5,0.3,0.8,0.8,0.8c2.2,0.3,4.3,0.9,6.4,1.7c2.3,0.9,4.6,1.8,6.8,2.7c0.5,0.2,1,0.5,1.5,0.7c1.4,0.8,2.4,2,2.8,3.6
				c0.6,3,1.3,6,1.8,9c1,5.4,2.4,10.7,4,16c1.8,5.8,3.5,11.6,5.3,17.4c0.1,0.4,0.2,0.7,0.3,1.2c-0.2,0-0.4,0.1-0.6,0.1
				c-6-0.5-11.8,1-17.5,2.6c-1,0.3-1.9,0.9-2.9,1.3c-0.9,0.4-1.7,0.8-2.6,1.2c-0.1,0.1-0.3,0.1-0.5,0.1c-0.1-0.3-0.3-0.5-0.3-0.8
				c-0.1-1.4-0.3-2.8-0.3-4.2c0.1-3.3,0.2-6.7,0.4-10c0.2-4.7,0.4-9.4,0.7-14.1c0.2-2.8,0.6-5.5,0.9-8.2c0.1-0.7,0.1-1.3,0.1-2
				c0-0.4-0.1-0.8-0.6-0.8c-0.5,0-0.6,0.4-0.7,0.8c-0.4,3.5-0.9,7-1.1,10.6c-0.4,7.1-0.6,14.2-0.9,21.4c0,1.1,0,2.3-0.2,3.4
				c-0.2,1.3,0.1,2.5,0.3,3.8c0.2,0.9,0.2,1.8,0.2,2.6c0,5.9-0.1,11.8,0,17.8c0,2.6,0.3,5.2,0.5,7.8c0,0.2,0,0.3-0.1,0.6
				c-0.2-0.8-0.4-1.7-0.6-2.5c-0.5-2.3-1.1-4.7-1.6-7c-0.1-0.3-0.2-0.7-0.3-1c-0.1-0.1-0.3-0.2-0.5-0.2c-0.1,0-0.2,0.2-0.3,0.4
				c0,0.1,0,0.3,0.1,0.4c0.9,3.8,1.8,7.5,2.7,11.3c0.4,1.7,1.1,3.3,2.1,4.7c0.7,1,1.6,1.7,2.6,2.3c0.9,0.5,1.4,1.3,1.6,2.2
				c0.8,3.1,1.6,6.2,2.4,9.3c0.1,0.6,0,1.2,0,2c-0.9-0.5-1.6-0.9-2.3-1.3c-4.7-2.6-9.3-5.3-14.3-7.3c-4.8-1.9-9.7-3.7-14.6-5.5
				c-3.4-1.2-7-1.7-10.6-1.6c-3.3,0-6.6,0.2-9.9,0.4c-3.6,0.2-7.2,0.1-10.8-0.4c-4-0.5-8-1.1-12-1.5
				C203.9,215.2,201.8,215.3,199.6,215.4z M276.6,217.3c-0.8-0.2-1.5-0.8-1.8-1.7c-0.3-0.9-0.5-1.8-0.6-2.8c-0.3-2.3-0.5-4.7-0.6-7
				c-0.2-3.2-0.2-6.4-0.3-9.6c0-0.3,0-0.7,0-1c0,0,0,0,0.1,0C274.4,202.6,275.5,209.9,276.6,217.3z M280.1,239.5
				c-2.3-0.8-4.4-1.5-6.4-2.6c-0.8-0.4-1.6-0.9-2.4-1.4c-0.6-0.4-1-0.9-1-1.6c-0.1-1.9-0.3-3.7-0.4-5.9c3.3,1.8,6.3,3.4,9.3,5
				C279.4,235.3,279.7,237.3,280.1,239.5z M204.8,217.9c0-0.4,0.1-0.8,0.1-1.3c4.6,0.3,8.9,1.1,13.5,1.6c-0.1,0.6-0.2,1.2-0.2,1.7
				c-0.2,1.9-0.4,3.7-0.6,5.6c-0.1,1.3-0.8,2-2,2.4c-2.2,0.7-4.5,1.3-6.7,2c-1.5,0.4-3,0.8-4.6,1.2c0-0.2-0.1-0.4-0.1-0.5
				c0.2-3.8,0.4-7.6,0.6-11.5C204.8,218.7,204.8,218.3,204.8,217.9z M219.3,395c-10.3-0.1-20.5-0.2-30.9-0.3c0.6-0.9,1-1.7,1.5-2.4
				c1.1-1.6,2.3-3.1,3.4-4.6c0.6-0.9,1.5-1.3,2.5-1.4c5.6-0.3,11.1,0.4,16.3,2.8c1.5,0.7,3,1.6,4.5,2.4
				C217.9,392.4,218.6,393.6,219.3,395z M206.1,375.4c0.1,1.2,0.6,2.2,1.4,3.1c2.1,2.5,4.2,4.9,6.2,7.4c0.9,1.1,1.7,2.4,2.6,3.6
				c0,0.1-0.1,0.1-0.1,0.2c-0.2-0.1-0.5-0.2-0.7-0.3c-5.1-2.9-10.7-4.3-16.6-4.4c-1.2,0-2.3,0.1-3.5,0.2c-1.2,0.1-2.2,0.6-2.9,1.6
				c-0.7,0.9-1.4,1.8-2.1,2.8c-0.1,0-0.1,0-0.2-0.1c0.4-1.5,0.8-3.1,1.2-4.6c0.6-2.2,1.1-4.5,1.7-6.7c0.1-0.4,0.1-0.8,0.1-1.2
				c0.1-1.4,0.1-2.9,0.2-4.3c0.1-1.1,0.6-2,1.4-2.8c0.5-0.4,1-0.9,1.5-1.4c2.5-2,6.5-1.1,8.1,1.5
				C205.4,371.7,205.9,373.5,206.1,375.4z M195.9,366.1c0.3-1,0.7-2,1-3.2c1.5,1,2.8,2,4.4,3.1c-1.1-0.1-2-0.3-2.9-0.3
				C197.7,365.8,196.9,366,195.9,366.1z M266.6,364.5c-0.7-0.9-5.7-17.5-6-20c0.7,0.4,1.2,0.7,1.8,1.1c1.1,0.7,1.7,1.6,1.7,2.9
				c0,0.5,0.1,1,0.2,1.5c0.1,1.1,0.5,2,1.2,2.8c0.2,0.2,0.3,0.4,0.5,0.5c1.4,1.4,1.4,1.4,0.9,3.3c-0.3,1.3-0.3,2.6,0.2,3.9
				c0.2,0.5,0.2,1.2,0.2,1.8C267,363,266.8,363.7,266.6,364.5z M282.7,398.7c-0.4,0-0.8,0.1-1.1,0.1c-9.8-0.1-19.6,0-29.6,0.3
				c0.8-1.6,1.6-2.9,3-3.7c4.5-2.8,9.3-4.5,14.5-5c2.2-0.2,4.3-0.3,6.5,0c0.7,0.1,1.3,0.3,1.7,0.8c1.6,2.2,3.2,4.5,4.8,6.7
				C282.5,398.1,282.5,398.4,282.7,398.7z M277.1,374.4c0.3,0.3,0.5,0.8,0.6,1.3c0.3,1.6,0.6,3.2,0.4,4.8c-0.1,0.5,0,1.1,0.2,1.7
				c0.8,3.4,1.7,6.7,2.6,10.1c0.1,0.3,0.2,0.7,0.3,1.3c-0.3-0.3-0.5-0.5-0.6-0.6c-0.3-0.4-0.7-0.8-0.9-1.3c-1.2-2-2.9-2.8-5.2-2.8
				c-4.1-0.1-8.1,0.4-12,1.5c-2.3,0.7-4.5,1.8-6.6,2.9c-0.2,0.1-0.5,0.2-0.9,0.5c0.2-0.4,0.3-0.7,0.5-0.9c1.9-3,4.2-5.5,6.5-8.2
				c0.7-0.8,1.4-1.6,2.1-2.4c0.8-0.9,1.2-1.9,1.3-3.1c0.1-0.9,0.3-1.7,0.5-2.6c0.3-1.4,1-2.5,1.9-3.5c1.7-2,4.5-2.5,6.8-1.1
				C275.3,372.6,276.2,373.6,277.1,374.4z M274.6,370.3c-2.2-0.7-4.2-0.6-6.3,0.4c-0.7-1.5-1.2-3-0.8-4.6c0.2-1,0.4-2,0.7-3
				c0.3-1,0.3-2-0.1-3c-0.5-1.1-0.5-2.2-0.1-3.2c0.7-1.8,0.2-3.2-1.2-4.5c-1-0.9-1.5-2-1.5-3.4c0-0.2-0.1-0.4-0.1-0.5
				c0-2.1-1.2-3.4-2.9-4.4c-0.7-0.4-1.3-0.8-2-1.2c-0.4-0.2-0.6-0.6-0.7-1c-1.6-5.9-3.1-11.8-4-17.9c-0.4-2.6-0.5-5.3-0.2-8.1
				c0.4,0.5,0.4,1,0.6,1.4c1.4,4.8,2.7,9.6,4.1,14.4c0.3,1.1,0.7,2.2,1,3.2c0.1,0.3,0.2,0.7,0.4,1c0.5,0.8,1.2,1,1.9,0.4
				c0.5-0.5,0.9-1.1,1.3-1.6c0.3-0.4,0.5-0.8,0.8-1.3c0.3,0.6,0.6,1.1,0.7,1.5c0.4,1,0.7,1.9,1,2.9c0.5,1.4,1,1.6,2.3,0.8
				c0.1-0.1,0.2-0.1,0.4-0.2C272.1,349,273.5,359.6,274.6,370.3z M281.3,266.1c-0.2,4.1-0.6,8.3-1.1,12.4c-0.4,3-0.7,6.1-1.3,9
				c-0.8,3.8-1.9,7.6-2.9,11.4c-1.3,4.6-2.7,9.1-4.1,13.6c-0.2,0.8-0.5,1.6-0.9,2.5c-0.2-0.5-0.3-1-0.5-1.4
				c-0.1-0.2-0.1-0.5-0.2-0.7c-0.1-0.1-0.3-0.3-0.4-0.2c-0.2,0.1-0.3,0.3-0.4,0.4c0,0.1,0,0.3,0.1,0.5c0.1,0.3,0.2,0.6,0.3,0.9
				c1,2.3,1.4,4.8,1.7,7.3c0.8,5.4,2,10.7,3.7,15.8c0.4,1.2,0.5,2.3,0,3.4c-0.4,1-0.7,2.1-1,3.2c-0.1,0-0.2,0-0.2,0
				c-0.1-0.4-0.2-0.7-0.4-1.1c-0.5-1.6-1-3.3-1.5-4.9c-0.1-0.2-0.1-0.3-0.2-0.5c-0.4-1.4-1.3-1.9-2.6-0.7c-0.2,0.2-0.4,0.3-0.7,0.5
				c-0.1-0.4-0.3-0.7-0.4-1c-0.4-0.9-0.7-1.9-1-2.8c-0.1-0.3-0.3-0.6-0.5-1c-0.7-1.3-1.6-1.3-2.4-0.1c-0.5,0.7-0.9,1.4-1.4,2.1
				c-0.1,0.1-0.2,0.1-0.4,0.3c-0.2-0.4-0.4-0.8-0.5-1.3c-1.3-4.3-2.5-8.6-3.8-13c-0.5-1.6-0.8-3.2-1.3-4.7c-0.2-0.5-0.3-1.1-0.6-1.6
				c-0.6-1.1-1.6-1.2-2.3-0.2c-0.4,0.5-0.7,1.1-1,1.6c-1.6,3.3-3.2,6.6-4.8,9.8c-0.2,0.3-0.3,0.6-0.6,1.2c-0.1-0.7-0.2-1.2-0.3-1.6
				c-0.4-1.9-0.9-3.8-1.2-5.7c-0.3-2.6-0.5-5.2-0.7-7.8c-0.2-5.2-0.2-10.4-0.5-15.5c-0.3-6.1-0.8-12.2-1.2-18.4
				c-0.5-8-1-16.1-0.7-24.1c0-0.3,0-0.6,0-1c-0.1-1.1,0.2-1.9,1.1-2.5c0.5-0.4,0.9-1,1.1-1.7c0.5-1.8,0.9-3.6,1.2-5.4
				c1-6.4,1.4-12.9,1.4-19.4c0-0.4,0-0.9-0.1-1.3c0-0.4-0.3-0.7-0.7-0.7c-0.4,0-0.6,0.3-0.6,0.7c0,0.2,0,0.4,0,0.5
				c0.1,4.5-0.2,9-0.6,13.5c-0.2,3.2-0.8,6.4-1.4,9.6c-0.1,0.5-0.3,1-0.4,1.5c-0.2,0.8-0.6,1.5-1.4,2c-0.9,0.6-1.2,1.2-1.1,2.4
				c0.1,2.7-0.1,5.3-0.1,8c-0.1,3.9-0.3,7.9-0.4,11.8c-0.2,7.5-0.2,15-0.5,22.4c-0.3,6.9-0.8,13.9-1.3,20.8
				c-0.1,1.7-0.6,3.2-1.3,4.8c-3.4,7.2-6.3,14.6-9.3,21.9c-2.9,7.1-5.7,14.2-8.7,21.2c-1,2.5-2.3,4.9-3.5,7.3
				c-0.1,0.1-0.1,0.2-0.4,0.3c0-0.3,0-0.7,0-1c0.1-3,0.2-6,0.2-9c0-0.4,0-0.9,0-1.3c-0.2-0.9-0.9-1.2-1.6-0.7
				c-0.4,0.3-0.8,0.7-1.1,1.1c-1.6,1.7-3.2,3.4-4.9,5.1c-0.2-0.2-0.3-0.4-0.4-0.5c-0.4-0.5-0.8-0.6-1.4-0.3
				c-0.7,0.3-1.4,0.7-2.1,1.1c-0.8,0.4-1.5,0.4-2.2-0.1c-2.1-1.4-4.2-2.8-6.2-4.3c-1-0.7-1.1-0.9-0.7-2.1c2.5-7.5,4.9-15,7.5-22.5
				c1.8-5.2,4.1-10.3,6-15.5c1.4-3.7,2.5-7.5,3.8-11.3c0.4-1.3,0.9-2.6,1.4-3.9c0.1-0.2,0.2-0.4,0.2-0.6c0-0.2-0.1-0.5-0.2-0.5
				c-0.2,0-0.5,0-0.6,0.2c-0.2,0.2-0.3,0.5-0.4,0.8c-0.4,1.1-0.8,2.3-1.2,3.4c-0.1,0.2-0.2,0.4-0.2,0.6c-0.1,0-0.1,0-0.2,0
				c-0.4-2.6-0.9-5.2-1.3-7.9c-0.8-4.8-1.6-9.7-2.2-14.5c-0.7-4.9-1.3-9.8-1.8-14.8c-0.7-6.8-1.3-13.6-1.8-20.3
				c-0.6-6.5-0.7-13-0.7-19.6c0-0.1,0-0.2,0.1-0.4c0.6-0.2,1.2-0.4,1.8-0.6c2.9-0.8,5.8-1.6,8.7-2.4c0.7-0.2,1.5-0.5,2.2-0.9
				c0.8-0.4,1.4-1.1,1.5-2.1c0.2-1.8,0.4-3.5,0.6-5.3c0.1-0.8,0.2-1.7,0.3-2.6c0.4,0,0.8,0,1.1,0.1c4,0.4,7.9,0.2,11.9-0.1
				c3.6-0.3,7.3-0.4,10.9,0.1c1.7,0.2,3.5,0.5,5.2,1.1c6.1,2.2,12.2,4.3,18.2,7c0.3,0.1,0.6,0.3,0.9,0.4c1.1,0.3,1.5,1.1,1.5,2.2
				c0,1.4,0.2,2.8,0.2,4.2c0,1.5,0.6,2.5,1.9,3.3c2.5,1.4,5.1,2.5,7.9,3.5c0.4,0.1,0.8,0.3,1.3,0.5c0.2,2,0.5,3.9,0.6,5.9
				C281.3,253.1,281.5,259.6,281.3,266.1z M281.6,240.3c-0.2-1.4-0.4-2.6-0.5-3.8c0.1,0,0.1,0,0.2,0
				C282.1,237.7,282.2,238.9,281.6,240.3z M292.7,266.5c-0.3,0.3-0.5,0.7-0.9,1c0.2-2.7,0.6-5.3,1.1-7.9c0.1,0,0.2,0,0.3,0
				c0.1,1.4,0.2,2.8,0.4,4.2C293.7,264.8,293.4,265.7,292.7,266.5z M288.3,206.3c0.4,4.2,0.8,8.4,1.3,12.7c-1.2-0.4-1.9-1.1-2.2-2.3
				c-0.4-2.3-0.2-4.6-0.1-6.9c0.1-1.8,0-3.5-0.5-5.2c-0.5-1.5-0.9-3-1.2-4.5c-0.2-1.2-0.2-2.5-0.2-3.8c0-1,0.6-1.9,1.4-2.8
				C287.5,197.9,287.9,202.1,288.3,206.3z M287.3,188.2c0,0.2,0,0.4,0,0.6c0,1.5-0.3,2.8-1.4,3.9c-1.6,1.6-1.9,3.8-1.6,6
				c0.2,1.4,0.4,2.8,0.9,4.1c1,2.9,1.2,5.9,0.8,8.9c-0.2,1.8-0.1,3.6,0.3,5.4c0.2,1.1,0.8,1.9,1.7,2.5c0.8,0.5,1.6,1.1,2.3,1.7
				c0.4,0.3,0.7,0.8,0.8,1.2c0.4,2.1,0.7,4.3,1,6.4c0,0.1,0,0.2-0.1,0.3c-0.1,0.1-0.1,0.1-0.2,0.1c-1,0.5-2.2,1-2.2,2.4
				c-0.1,1.8-0.1,3.6,1.5,4.7c1.2,0.8,1.5,1.9,1.4,3.2c0,0,0,0.1,0,0.1c-0.2,1.5,0.3,2.7,1.3,3.8c0.2,0.2,0.3,0.7,0.2,1
				c-0.9,5.7-1.9,11.3-2.8,17c-0.4,2.2-0.7,4.3-1,6.5c0,0.2-0.1,0.5-0.1,0.7c-0.8,2.1-1,4.3-1.1,6.6c0,0.4-0.2,0.8-0.3,1.2
				c-0.7,1.7-1.5,3.4-2.3,5c0,0.1-0.1,0.2-0.3,0.4c-0.6-1.9-0.6-3.5,0-5.3c0.3,0,0.6,0,0.8-0.1c0.2-0.1,0.5-0.4,0.6-0.6
				c0-0.1-0.3-0.4-0.5-0.6c-0.1-0.1-0.3-0.1-0.4-0.1c-0.2-1.6,0.3-4.5,1.1-6.6c0.3,0.1,0.5,0.2,0.8,0.3c0.3,0.2,0.6,0.1,0.8-0.2
				c0.3-0.4,0.1-0.7-0.2-0.9c-0.3-0.2-0.6-0.4-0.9-0.5c-0.5-0.2-0.7-0.5-0.7-1c-0.1-1.5-0.1-2.9-0.2-4.4c0-0.1,0-0.2,0-0.3
				c0.2-2.4,0.2-2.4-1.6-4c-0.1-0.1-0.2-0.2-0.4-0.2c0.2-0.7,0.3-1.3,0.5-1.9c0.1-0.3,0.1-0.6,0.1-0.8c-0.1-0.2-0.3-0.4-0.5-0.5
				c-0.1,0-0.4,0.1-0.5,0.2c-0.2,0.3-0.3,0.7-0.4,1.1c-0.2,1.2-0.8,2-1.8,2.8c0-0.5-0.1-0.8-0.1-1.2c-0.2-3.6-0.3-7.2-0.5-10.7
				c0-0.4,0-0.8-0.1-1.2c-0.4-1.5,0.1-2.9,0.6-4.3c0.5-1.4,1-2.9,1.4-4.3c0.1-0.2,0.1-0.4,0.1-0.6c0-0.1-0.2-0.3-0.3-0.4
				c-0.1,0-0.4,0-0.5,0.1c-0.2,0.3-0.3,0.6-0.5,1c-0.8-1.6-1.2-3.1-1.1-4.7c0-0.5,0.1-0.9,0-1.4c-0.8-3.3-1.6-6.5-2.5-9.8
				c-0.2-0.8-0.7-1.5-1-2.3c-0.1-0.3-0.2-0.6-0.3-0.9c-0.5-3.1-1-6.2-1.4-9.3c-0.9-6-1.7-12.1-2.5-18.1c-0.3-2.2-0.4-4.4-0.6-6.6
				c0.2-0.2,0.4-0.3,0.5-0.3c4.2-2.2,8.6-3.7,13.2-4.4c0.8-0.1,1.5-0.3,2.3-0.4c0.1,0,0.3,0,0.5,0c0.1,0.3,0.2,0.5,0.2,0.8
				c0.1,1.4,0.2,2.9,0.3,4.3c0,0.7-0.3,1.3-1,1.6c-0.4,0.2-0.8,0.5-1.2,0.7C287.7,186.6,287.2,187.3,287.3,188.2z M291.5,231.4
				c0,1.2,0,2.4,0,3.8c-0.8-1-0.6-2.1-0.6-3.1C290.9,231.8,291,231.5,291.5,231.4z"/>
			<path class="st23" d="M228.2,292.3c-0.2-3.5-0.5-8.5-0.9-13.5c-0.5-6.1-1.4-12.2-2.5-18.2c-0.9-4.8-1.8-9.5-2.7-14.3
				c-0.2-1.3-0.4-2.5-0.6-3.8c-0.1-0.4-0.3-0.8-0.8-0.7c-0.5,0.1-0.6,0.5-0.5,0.9c0.1,0.8,0.2,1.7,0.3,2.5c0.7,3.8,1.4,7.5,2.1,11.3
				c1.8,9.1,3.2,18.2,3.6,27.4c0.4,7,0.6,14,0.9,21c0,0.2,0,0.4,0,0.6c0.1,0.3,0.3,0.6,0.6,0.5c0.2-0.1,0.5-0.3,0.5-0.5
				c0.1-0.3,0.1-0.7,0.1-1.1C228.5,300.9,228.3,297.4,228.2,292.3z"/>
			<path class="st23" d="M263.5,240.3c-0.4-0.1-0.6,0.2-0.7,0.6c-0.3,1.2-0.8,2.4-1,3.6c-1.1,4.7-2.1,9.3-3.1,14
				c-1,5-1.9,9.9-2.7,14.9c-0.7,4.6-1.3,9.3-1.8,13.9c-0.4,3.7-0.8,7.4-1.1,10.7c-0.1,1.3,0.1,1.7,0.6,1.6c0.7-0.1,0.7-0.6,0.7-1.1
				c0.5-4.6,0.9-9.2,1.5-13.7c0.5-4.5,1.1-9.1,1.8-13.6c0.8-5.1,1.9-10.2,2.9-15.2c1-4.9,1.9-9.7,3.4-14.5c0-0.1,0.1-0.2,0.1-0.3
				C264.1,240.7,264,240.4,263.5,240.3z"/>
			<path class="st23" d="M225.2,328.8c-0.5,0.1-0.5,0.4-0.6,0.9c0,0.5-0.2,1.1-0.5,1.6c-1.1,2.4-2.2,4.8-3.3,7.1
				c-2.6,5.3-5.1,10.6-8.4,15.5c-0.1,0.1-0.2,0.2-0.2,0.3c0,0.3-0.1,0.6,0.1,0.8c0.2,0.3,0.6,0.3,0.8,0c0.3-0.3,0.6-0.7,0.9-1.1
				c1-1.7,2.1-3.5,3-5.2c3.1-5.6,5.7-11.5,8.4-17.3c0.2-0.5,0.4-1,0.5-1.3c0-0.2,0-0.3,0-0.4C226,329.1,225.6,328.7,225.2,328.8z"/>
			<path class="st23" d="M203.5,361.2c-0.7-0.5-1.5-1-2.2-1.5c-0.5-0.3-0.9-0.7-1.4-1c-0.2-0.2-0.6-0.3-0.7,0.1
				c-0.1,0.2,0.1,0.5,0.2,0.7c0,0.1,0.1,0.1,0.2,0.1c1,0.7,2.1,1.5,3.1,2.2c0.2,0.2,0.5,0.3,0.7,0.4c0.2,0,0.4-0.2,0.7-0.3
				C203.9,361.6,203.7,361.3,203.5,361.2z"/>
			<path class="st23" d="M265.9,153.7c-1.4,0.2-2.9,0.4-4.3,0.4c-3.5,0.2-7.1,0.3-10.6-0.6c-0.8-0.2-1.1,0.2-1.1,1c0,1.7,0,3.3,0,5
				c0,0,0,0,0.1,0c0,0.6,0,1.1,0,1.7c0.1,2,0.3,4,0.4,5.9c0,0.4,0.1,0.9,0.5,1.2c2.1,1.7,4.2,3.4,6.2,5.1c1.6,1.3,1.7,1.3,3.3,0
				c1.8-1.5,3.6-2.9,5.2-4.5c0.5-0.6,0.8-1.1,0.9-1.8c0.1-4.2,0.3-8.4,0.5-12.5C267.1,153.8,266.8,153.6,265.9,153.7z M265.6,156.1
				c-0.1,3.6-0.3,7.2-0.4,10.8c0,0.4-0.1,0.8-0.5,1.1c-1.6,1.7-3.4,3.2-5.2,4.6c-0.7,0.6-0.7,0.6-1.4,0c-1.8-1.5-3.5-2.9-5.3-4.4
				c-0.8-0.7-1.3-1.5-1.3-2.5c-0.1-3.4-0.2-6.8-0.3-10.2c0-0.2,0.1-0.3,0.1-0.6c4.8,1,9.5,0.6,14.4,0.1
				C265.6,155.5,265.6,155.8,265.6,156.1z"/>
			<path class="st23" d="M244.6,139.3c1.8,0.2,3.6,0.4,5.4,0.6c0-0.1,0-0.1,0-0.2c0.8,0,1.6,0,2.3,0c6.8-0.4,11.6-4,15.1-9.6
				c0.1-0.1,0.1-0.2,0.1-0.3c0-0.2,0-0.5-0.1-0.5c-0.1-0.1-0.4,0-0.5,0.1c-0.2,0.2-0.4,0.6-0.6,0.9c-1.8,2.9-4.2,5.1-7.2,6.8
				c-1.2,0.7-2.4,1.2-3.7,1.5c-3.2,0.6-6.4,0.7-9.6,0.2c-0.5-0.1-1-0.1-1.5-0.1c-0.2,0-0.3,0.2-0.5,0.3c0.1,0.2,0.2,0.3,0.4,0.4
				C244.3,139.3,244.4,139.2,244.6,139.3z"/>
			<path class="st23" d="M275,175.1c-0.1,0.1-0.2,0.3-0.2,0.4c0,0.1,0.3,0.3,0.4,0.3c0.2,0,0.5-0.1,0.7-0.2c0.7-0.2,1.3-0.5,2-0.7
				c5-1.5,10.1-2.5,15.3-2.7c0.2,0,0.5,0,0.7-0.1c0.2,0,0.3-0.1,0.6-0.3c-0.4-0.3-0.5-0.5-0.7-0.5c-0.4-0.1-0.8-0.1-1.2,0
				c-2.3,0.2-4.5,0.4-6.8,0.8c-3.5,0.6-7,1.3-10.4,2.7C275.4,174.9,275.1,175,275,175.1z"/>
			<path class="st23" d="M227.1,130.8c1.9,2.8,4.6,4.7,7.8,5.8c0.3,0.1,0.5,0.2,0.8,0.2c0.1,0,0.3-0.2,0.4-0.3
				c-0.1-0.2-0.2-0.4-0.3-0.5c-0.2-0.1-0.5-0.2-0.8-0.3c-2.4-0.9-4.5-2.1-6.1-4.1c-1.8-2.1-3.3-4.4-4.4-7c-0.1-0.2-0.2-0.5-0.3-0.7
				c-0.1-0.1-0.3-0.2-0.5-0.1c-0.1,0-0.3,0.3-0.2,0.4c0,0.3,0.2,0.6,0.3,0.9C224.7,127.1,225.9,128.9,227.1,130.8z"/>
			<path class="st23" d="M221.4,201.9c0.1,0.1,0.4,0,0.5-0.1c0.2-0.2,0.4-0.5,0.5-0.8c2-3.9,3.4-8.1,4.7-12.3
				c0.1-0.2,0.1-0.5,0.2-0.9c-0.2-0.2-0.3-0.5-0.6-0.6c-0.3-0.1-0.4,0.3-0.4,0.6c0,0.3-0.1,0.6-0.2,0.9c-1.3,4.1-2.7,8.1-4.6,12
				c-0.1,0.2-0.2,0.4-0.3,0.7C221.2,201.6,221.3,201.8,221.4,201.9z"/>
			<path class="st23" d="M209.5,128.2c-0.3-0.8-0.8-1.6-1.3-2.3c-0.2-0.3-0.4-0.6-0.7-0.8c-0.2-0.1-0.6-0.2-0.7-0.1
				c-0.3,0.2-0.1,0.5,0.1,0.7c0.6,0.9,1.3,1.8,1.7,2.8c0.7,1.6,1.3,3.3,1.9,5c0.1,0.3,0.1,0.6,0.3,0.8c0.1,0.2,0.4,0.3,0.6,0.3
				c0.1,0,0.2-0.3,0.3-0.4c-0.1-0.3-0.1-0.6-0.2-0.9C210.8,131.6,210.2,129.9,209.5,128.2z"/>
			<path class="st23" d="M279.3,132.5c0.2-0.3,0.2-0.6-0.1-0.9c-0.3-0.2-0.6-0.1-0.9,0.1c-0.1,0.1-0.3,0.3-0.4,0.5
				c-0.9,2-1.8,4-2.8,6c0.5,0.2,0.8,0.4,1.2,0.5C277.3,136.6,278.3,134.5,279.3,132.5z"/>
			<path class="st23" d="M280.3,129.9c0-0.1-0.2-0.3-0.3-0.4c0,0-0.1-0.1-0.1-0.1v0c-0.1,0.1-0.1,0.1-0.2,0.2
				c-0.2,0.2-0.4,0.4-0.5,0.6c0,0.1,0.2,0.3,0.3,0.4C280,130.7,280.4,130.3,280.3,129.9z"/>
			<path class="st23" d="M250.7,109.3c-1.9-0.1-3.7,0.2-5.2,1.4c-0.5,0.4-0.8,0.8-0.8,1.4c0,0.8,0,1.7,0,2.5c0,0,0,0-0.1,0
				c0,0.7,0.1,1.4,0.1,2.2c0.1,0.8,0.4,1,1.1,0.6c0.4-0.2,0.8-0.3,1.3-0.2c0.4,0.1,0.7,0.1,1.1,0.3c1.4,0.5,2.1-0.3,2.3-1.4
				c0.2-0.7,0.3-1.4,0.4-2.1c0.2-1.2,0.4-2.5,0.6-3.7C251.6,109.6,251.4,109.4,250.7,109.3z"/>
			<path class="st23" d="M237.2,89.8c-0.7,1.1-0.9,2.2-0.9,3.5c0,1.6,0.4,3.1,1.3,4.4c1.5,2,3.8,1.9,5.1-0.3c1.3-2.2,1-5.9-0.6-7.9
				C240.6,87.6,238.5,87.8,237.2,89.8z M241.9,97c-0.8,1.3-2,1.4-3.1,0.3c-0.2-0.2-0.5-0.5-0.6-0.8c-1-1.8-1.1-3.7-0.4-5.6
				c0.3-0.9,0.9-1.7,1.9-1.8c1-0.1,1.7,0.6,2.2,1.4c0.6,1.1,0.9,2.2,0.9,3.4C242.7,95.1,242.5,96.1,241.9,97z"/>
			<path class="st23" d="M258.5,97.7c1-1.3,1.4-2.8,1.4-3.9c0-1.7-0.2-2.9-0.8-4c-1.2-2-3.4-2.2-4.9-0.4c-1.7,2-2,5.7-0.6,7.9
				C254.8,99.4,257,99.6,258.5,97.7z M253.8,92.4c0.2-1,0.5-1.8,1.2-2.6c1.1-1.1,2.3-1.1,3.2,0.2c0.6,0.8,0.9,2,0.8,3.2
				c0,1.1-0.3,2.2-0.8,3.1c-0.2,0.4-0.5,0.7-0.8,1c-1,0.9-2.1,0.8-2.9-0.3C253.5,95.7,253.5,94.1,253.8,92.4z"/>
			<path class="st23" d="M253.2,86.1c0.4,0,0.8,0,1.1-0.1c2.1-0.5,4.2-1.1,6.4-0.8c0.7,0,1.4,0,2.1,0c0.7,0,1-0.5,0.7-1.2
				c-0.2-0.4-0.5-0.7-1-0.7c-0.6-0.1-1.3-0.1-1.9-0.1c-2.2,0.1-4.4,0.8-6.5,1.6c-0.4,0.2-0.8,0.3-1.2,0.5c-0.1,0.1-0.2,0.3-0.2,0.4
				C252.9,85.9,253.1,86.1,253.2,86.1z"/>
			<path class="st23" d="M233.7,85.2c0.6,0,1.2-0.1,1.8-0.1c1.8,0,3,0,4.6,0.4c0.5,0.1,1.1,0.3,1.8,0.5c0.3,0.1,0.6,0.2,0.8,0.2
				c0.2,0,0.5-0.2,0.7-0.3c-0.2-0.2-0.3-0.5-0.5-0.6c-1.5-0.5-2.9-1.1-4.4-1.5c-1-0.3-2.2-0.4-3.2-0.5c-0.6-0.1-1.2,0-1.8,0.2
				c-0.6,0.1-1,0.8-0.9,1.3C232.8,85.2,233.3,85.2,233.7,85.2z"/>
			<path class="st23" d="M245.9,106.2c0.4-0.1,0.6-0.1,1,0.1c0.9,0.5,1.7,0.5,2.6,0c0.2-0.1,0.4-0.2,0.8-0.1c0.8,0.2,1.4,0,1.6-0.6
				c0.3-0.5,0.2-1.9-0.2-2.2c-0.1-0.1-0.3-0.2-0.5-0.1c-0.1,0-0.2,0.3-0.2,0.4c0,0.2,0.1,0.5,0.1,0.7c0,0.3,0.2,0.7-0.3,0.9
				c0-0.1,0-0.2-0.1-0.3c-0.1-0.2-0.2-0.5-0.3-0.7c-0.2,0.1-0.4,0.3-0.6,0.4c-0.2,0.2-0.3,0.4-0.5,0.5c-0.8,0.7-1.6,0.7-2.4,0
				c-0.2-0.2-0.4-0.5-0.6-0.7c-0.2-0.1-0.4-0.2-0.6-0.4c-0.1,0.5-0.2,0.8-0.2,1.2c-0.1-0.2-0.3-0.3-0.3-0.4c0-0.4,0.1-0.8,0.1-1.1
				c0-0.2-0.2-0.4-0.3-0.6c-0.2,0.1-0.5,0.2-0.5,0.4c-0.1,0.5-0.2,1-0.2,1.4C244.3,105.9,245,106.4,245.9,106.2z"/>
			<path class="st23" d="M260.4,106.1c-0.2,0.3-0.4,0.6-0.4,1c-0.3,1-0.5,2-0.7,3.2c0.1,0.2,0.2,0.5,0.4,0.6
				c0.4,0.1,0.5-0.3,0.5-0.6c0.1-0.5,0.2-1,0.3-1.6c0.2-1.2,0.7-2.3,1.6-3.2c0.6-0.5,1.1-1.1,1.6-1.7c0.1-0.2,0.1-0.5,0.2-0.7
				c-0.3,0-0.6,0-0.7,0.1C262.2,104.1,261.3,105,260.4,106.1z"/>
			<path class="st23" d="M235.7,108.1c0.1,0.7,0.3,1.5,0.4,2.2c0.1,0.3,0.2,0.6,0.6,0.4c0.2-0.1,0.3-0.3,0.4-0.5
				c-0.1-3.1-1.7-5.3-4-7.2c-0.1-0.1-0.5-0.2-0.6-0.1c-0.3,0.2-0.1,0.5,0.1,0.7c0.6,0.6,1.2,1.2,1.8,1.8
				C235,106.3,235.5,107.1,235.7,108.1z"/>
			<path class="st23" d="M258.6,101.1c-1.3-0.9-2.8-1.2-4.4-1.5c-0.1,0.1-0.6,0.2-0.6,0.4c-0.1,0.5,0.3,0.5,0.7,0.6
				c0.1,0,0.3,0,0.4,0.1c1.2,0.3,2.4,0.6,3.5,1.3c0.3,0.2,0.6,0.7,1,0.2C259.4,101.5,258.9,101.3,258.6,101.1z"/>
			<path class="st23" d="M242.5,99.7c-0.1-0.1-0.3-0.1-0.4-0.1c-1.6,0.3-3.1,0.6-4.4,1.5c-0.2,0.1-0.4,0.3-0.5,0.4
				c-0.1,0.1-0.1,0.4,0,0.5c0.1,0.1,0.4,0.1,0.5,0.1c0.1,0,0.2-0.1,0.3-0.2c1.1-0.8,2.5-1.1,3.8-1.4c0.2,0,0.5-0.1,0.7-0.2
				c0.1,0,0.2-0.2,0.2-0.3C242.7,99.9,242.6,99.7,242.5,99.7z"/>
			<path class="st23" d="M262,98.8c0.7-1,1.1-2.1,1.3-3.5c-0.1-0.1-0.3-0.4-0.5-0.5c-0.4-0.1-0.4,0.2-0.5,0.5
				c-0.2,0.8-0.5,1.5-0.8,2.3c-0.1,0.3-0.3,0.5-0.3,0.8c0,0.2,0.1,0.4,0.3,0.5C261.7,99,262,98.9,262,98.8z"/>
			<path class="st23" d="M233,95.3c-0.1,0.1-0.3,0.3-0.2,0.4c0.2,1,0.6,2,1.2,2.8c0.1,0.1,0.3,0.1,0.5,0.1c0.1,0,0.2-0.2,0.2-0.3
				c0-0.1,0-0.1,0-0.2c-0.4-0.9-0.8-1.8-1.2-2.7C233.4,95.3,233.1,95.2,233,95.3z"/>
			<path class="st23" d="M269.1,383c-0.4-0.1-0.7,0-0.9,0.4c-0.1,0.5,0.2,0.7,0.6,0.8c1.3,0.3,2.7,0.6,4,0.9c0.2,0,0.4,0,0.5-0.1
				c0.2-0.1,0.2-0.3,0.4-0.6c-0.3-0.2-0.5-0.5-0.8-0.5C271.7,383.6,270.4,383.3,269.1,383z"/>
			<path class="st23" d="M269.1,381c0.5,0,1-0.1,1.5-0.1c0.5,0,1,0.1,1.5,0.1c0.2,0,0.5-0.3,0.6-0.5c0-0.2-0.2-0.6-0.4-0.6
				c-1.2-0.3-2.4-0.3-3.6,0.1c-0.2,0.1-0.5,0.5-0.5,0.7C268.3,381,268.7,381.1,269.1,381z"/>
			<path class="st23" d="M202.4,379.1c-1.5,0.1-2.9,0.4-4.3,1c-0.3,0.1-0.5,0.4-0.4,0.8c0.1,0.2,0.4,0.3,0.5,0.5
				c0.3-0.1,0.4-0.1,0.5-0.1c1.1-0.3,2.3-0.5,3.4-0.8c0.2,0,0.5-0.1,0.6-0.2c0.1-0.2,0.3-0.5,0.2-0.7
				C203,379.2,202.6,379,202.4,379.1z"/>
			<path class="st23" d="M202.4,375.9c-0.5-0.1-1.1-0.2-1.7-0.2c-0.5,0.1-1.1,0.1-1.7,0.3c-0.2,0-0.4,0.4-0.4,0.6
				c0,0.1,0.3,0.3,0.5,0.4c0.1,0.1,0.3,0,0.4,0c0.9,0,1.8,0.1,2.6,0.1c0.4,0,0.7,0,0.9-0.4C203.1,376.2,202.8,376,202.4,375.9z"/>
			<path class="st23" d="M226.4,96c0.1-0.3,0-0.7-0.3-0.8c-0.2,0-0.6,0.1-0.8,0.3c-0.2,0.4-0.3,0.8-0.5,1.4c0.2,0.5,0.4,1.1,0.7,1.6
				c0.1,0.2,0.6,0.3,0.8,0.2c0.4-0.1,0.4-0.5,0.2-0.8C226.2,97.3,226.1,96.7,226.4,96z"/>
			<path class="st23" d="M269.9,98.8c0.4,0.2,0.7,0,0.9-0.3c0.3-0.5,0.4-1,0.6-1.5c-0.2-0.5-0.3-1-0.5-1.3c-0.1-0.2-0.5-0.3-0.8-0.3
				c-0.4,0.1-0.4,0.5-0.3,0.8c0.3,0.6,0.2,1.2-0.1,1.8C269.5,98.2,269.5,98.6,269.9,98.8z"/>
			<path class="st23" d="M262.9,158c-2.8-0.2-5.7-0.3-8.5-0.5c-0.1,0-0.2-0.1-0.3,0c-0.1,0.1-0.3,0.2-0.4,0.3c0,0.1,0.1,0.4,0.2,0.4
				c0.3,0.1,0.6,0.2,0.9,0.2c2.5,0.2,5,0.3,7.5,0.4c0.4,0,0.8-0.1,1.2-0.1C263.7,158.1,263.3,158.1,262.9,158z"/>
		</g>
	</g>
</g>
</svg>
