<?xml version="1.0" encoding="utf-8"?>
<!-- Generator: Adobe Illustrator 27.1.1, SVG Export Plug-In . SVG Version: 6.00 Build 0)  -->
<svg version="1.1" xmlns="http://www.w3.org/2000/svg" xmlns:xlink="http://www.w3.org/1999/xlink" x="0px" y="0px"
	 viewBox="0 0 734.3 223.4" style="enable-background:new 0 0 734.3 223.4;" xml:space="preserve">
<style type="text/css">
	.st0{fill:#070707;}
	.st1{fill:#E0DD7C;}
</style>
<g id="Слой_9">
	<g>
		<g>
			<path class="st0" d="M584.3,193.4c-2.2-3.2-3.9-6.8-5.5-10.3c0-0.2,0-0.3,0-0.5c-0.1-0.5-0.3-0.9-0.7-1.1
				c-0.8-1.7-1.6-3.4-2.4-5.1c-0.9-1.8-2-3.6-3.2-5.4c-0.4-1.7-1.5-3-2.4-4.4c-0.3-1-0.5-2-0.7-3c1.5-1.6,2.5-3.9,3.1-5.9
				c0.8-2.7-1.7-4.1-1.4-6.7c0.2-1.3-0.7-2.5-1.9-2.8c-0.7-1.5-1.5-3.1-1-4.6c0.4-1,0.1-1.5-0.6-2.3c-1.4-1.6-1.6-3-1.8-4.9
				c0.2-0.3,0.3-0.5,0.4-0.8c0.1-0.4,0.3-1,0-1.4c-0.1-0.2-0.5-0.4-0.9-0.5c-0.5-1.5-1.4-2.7-3.2-3.1c-1.8-0.4-3.9-0.4-5.9-0.3
				c-0.3-0.5-0.6-1-1-1.4c0.1-0.4,0.3-0.7,0.4-1.1c0.7-0.7,1.5-1.4,2.2-2.1c0.1-0.1,0.2-0.2,0.4-0.4c-0.3,0.9-0.6,1.7-0.9,2.6
				c0,0.1,0.1,0.2,0.2,0.1c0.4-0.8,0.8-1.6,1.1-2.4c0,0.4,0,0.9,0.1,1.3c0,0.1,0.1,0.1,0.2,0c0.1-0.8,0.2-1.6,0.2-2.4
				c0-0.1,0.1-0.2,0.1-0.4c0.7-0.6,1.3-0.9,1,0.6c-0.1,0.3,0.3,0.5,0.5,0.3c1.4-1.7,2.7-3.7,3.7-5.8c-0.4,1.1-0.7,2.1-1,3.2
				c0,0.1,0.1,0.1,0.1,0.1c1-2.1,1.9-4.4,2.5-6.8c0.6-1.1,1.1-2.1,1.3-3.2c0.1,0.1,0.1,0.2,0.2,0.3c0.1,0.3,0.5,0.1,0.5-0.1
				c0.3-3.3,0.7-6.4-0.1-9.6c0.4,0.6,0.8,1.4,1.1,2.2c0,0.1,0.1,0.1,0.1,0c-0.1-1.4-0.7-2.5-1.5-3.5c0,0,0,0,0-0.1
				c-1-2.9-3.5-5.5-5.4-7.9c0-0.1-0.1,0-0.1,0c-0.7-1-1.8-1.6-3.1-2c-1.1-0.3-2.3-0.5-3.4-0.7c2.3-0.3,4.5,0,6.7,1.2
				c0,0,0.1,0,0.1-0.1c-2.3-2-5.4-2.1-8.5-1.4c-0.8-0.2-1.7-0.4-2.5-0.8c-1.5-0.7-3-0.5-4.6-0.1c-0.5,0.1-0.9,0.3-1.4,0.5
				c-2.1,0.4-4.2,1.5-6,3c-1.5,0.1-2.9,0.5-4.2,1c-0.1,0-0.1,0.2,0.1,0.2c1.2-0.3,2.3-0.5,3.4-0.6c-1.9,0.7-3.5,1.9-4.3,3.6
				c0,0.1,0.1,0.1,0.1,0.1c0.9-1.2,2-2,3.2-2.6c-1.2,1.4-2.3,2.9-3,4.6c-0.2,0.2-0.4,0.3-0.4,0.3c-0.3-0.3-0.7-0.3-1.1-0.3
				c-2.4,0.1-4.3,4.5-5,6.3c-0.1,0.3,0.3,0.5,0.5,0.4c0.9-0.4,1.7-0.8,2.5-1.3c-0.6,1.6-0.8,3.4-0.5,5c-0.5,0.7-0.8,1.4-0.8,2.1
				c0,0.1,0.1,0.1,0.1,0c0.3-0.5,0.6-1.1,0.9-1.6c0.1,0.5,0.3,1,0.5,1.4c0,0,0.1,0,0.1,0c-0.1-0.6-0.2-1.3-0.3-1.9
				c0.2-0.2,0.3-0.4,0.5-0.6c0.2,1.5,0.3,3,0.2,4.5c-0.1,1.1,0,1.9,0.4,3c0.3,0.6,0.8,1.1,1.3,1.5c0,1.2,0.1,2.4,0.5,3.5
				c0,0.1,0.2,0.1,0.2-0.1c-0.1-1-0.2-1.9-0.2-2.9c0.1,0.2,0.3,0.4,0.4,0.6c0.3,0.7,0.2,1.6,0.2,2.4c-0.6,0.8-0.9,1.7-0.7,2.6
				c0,0.1,0.1,0,0.1,0c0.2-0.6,0.4-1.2,0.7-1.7c0,0.3,0.1,0.5,0.1,0.8c0.2,0.7,0.6,1.3,1.1,1.9c0.3,0.3,0.5,0.6,0.8,0.9
				c-3.1,1-5.5,3.4-5.9,6.4c-0.7,0.2-1.4,0.4-2,0.6c-1.8,0.5-3.6,1.1-5.4,1.9c-0.4,0.2-0.7,0.4-1,0.6c-0.2,0.1-0.4,0.2-0.5,0.3
				c-0.6,0.1-1.1,0.9-1.5,1.7c-0.6,0.6-1.1,1.3-1.1,2.2c0,1.6-1.7,1.7-2.1,3.1c-0.1,0.2-0.1,0.5-0.2,0.7c-1.1,1.4-2.2,2.9-3.1,4.4
				c-0.9,0.9-1.5,2.1-1.7,3.2c-0.4,0.8-0.7,1.6-1.1,2.4c-0.3,0.7-0.6,1.3-0.9,2c-1.6,0.4-3.1,2-3.6,3.5c-0.3,1-0.6,1.9-1.1,2.8
				c-0.6,1-1.4,1.7-1.9,2.7c-0.5,1.1,0.1,2.2,0.7,3.1c0.2,0.3,0.5,0.6,0.7,0.9c-0.8,2.2-2.1,4-3,6.1c-1,2.4-1.2,5.2-1.2,7.8
				c-0.1,5.6,0.2,11.3,0.9,16.9c0,0-0.1,0-0.1,0.1c-0.1,2.6-0.8,4.7-2.1,7c-0.5,0.9-1.1,1.7-1.7,2.5c-0.8,1.1-0.8,2.5-1.7,3.5
				c-0.9,1.1-1.9,1.5-2.5,2.9c-0.7,1.7,0.1,4.1,0.3,5.9c0,0.2,0.2,0.4,0.4,0.3c1.4-0.4,1.6-2.1,1.9-3.3c0-0.1,0.3-1,0.6-1
				c-0.1,2.3,0.5,4.6,0.6,6.9c0.1,2.4,0.5,4.6,1.6,6.8c0.1,0.3,0.5,0.2,0.5-0.1c0.1-0.4,0.3-0.8,0.4-1.1c0.9,1.5,2.2,2.7,3.8,3
				c0.3,0,0.5-0.1,0.5-0.4c0.2-1.9-0.7-3.5-0.5-5.5c0.2-1.3,0.4-2.5,0.5-3.9c0.1-1.1,0.2-2.3,0.4-3.4c0.4-2,2.3-2.9,3.5-0.9
				c0.4,0.6,2.9,8.9,4.7,5.6c0.9-1.7,0.5-3.9,0.1-5.8c-0.2-0.8-0.4-1.7-0.8-2.4c-0.9-1.8-0.9-4-1.8-5.9c-0.6-1.2-1.4-2.2-2.3-3.2
				c-1.1-1.3-1.7-2.8-1.9-4.3c0.2-2.2,0.8-4.4,1.5-6.5c0.5-1.6,1.3-3,1.9-4.6c0.5-1.5,0.6-3.5,1.4-4.8c0.5-0.8,0.6-1.6,0.7-2.6
				c0.2-1.7,0.7-3.3,0.9-5c0.2-1.4-0.1-2.8-0.2-4.1c0-0.9,0.1-1.7,0.3-2.6c3.2,0.5,5.2-3.1,6.9-5.3c0.1-0.1,0.2-0.3,0.1-0.4
				c-0.3-0.4-0.7-0.9-1-1.3c0.9-0.7,1.9-1.2,2.7-1.9c0.2-0.1,0.3-0.3,0.4-0.4c1.2,2.1,2.2,4.2,2.4,6.6c0.1,1.7-0.5,3.6-1.1,5.2
				c-0.4,0.9-0.3,1.7-0.9,2.5c-0.3,0.5-0.6,0.9-0.8,1.4c-0.2,0.6,0.5,1.1,0.9,1.5c1,0.7,0,1.9,0,2.7c0,0.6,0.3,1.3,0.4,1.9
				c0.1,0.4,0.2,0.8,0.4,1.2c-1.2,1.4-2.3,2.7-3.1,4.4c-0.6,1.4-1,2.9-1.4,4.5c-0.4,0.9-0.7,1.8-1,2.7c-0.6,0.7-0.9,1.8-0.7,2.6
				c-0.5,2.3-0.8,4.6-0.8,6.9c0,2.9,0.2,5.7,0.6,8.6c-1,4.1-1.5,8.3-2,12.3c-0.1,0.5-0.1,1-0.1,1.4c-0.2,0.7-0.4,1.5-0.6,2.2
				c-1,1.7-2,3.4-2.5,5.2c0,0.1,0.1,0.1,0.1,0.1c0.7-1,1.3-2,1.9-3.1c0,0.1,0,0.1,0,0.2c-1.6,4-2.2,8.7-2.7,12.8
				c0,0.1,0.1,0.1,0.1,0c0.9-2.2,1.3-4.5,1.8-6.8c-0.1,2.6-0.2,5.1-1.3,7.4c-1.1,2.1-2.1,3.9-1.4,6.3c0.1,0.3,0.4,0.4,0.7,0.3
				c0.2-0.1,0.4-0.3,0.6-0.5c-0.1,1.1-0.1,2.3,0.3,3.2c0,0.1,0.1,0.1,0.1,0c0-1.3,0.1-2.5,0.3-3.7c-0.1,3,0.7,6.1,2.4,8.1
				c0.1,0.1,0.2,0,0.2-0.1c-0.4-1.2-0.7-2.4-0.9-3.7c0.4,1,0.9,2,2,2.6c0.7,0.5,1.4,0.3,2.1-0.2c-0.4,1.1-0.8,2.3-1.3,3.3
				c0,0.1,0.1,0.2,0.2,0.1c0.7-0.9,1.2-1.9,1.7-2.9c0,0.1,0,0.2,0,0.3c-0.1,3-1.5,5.7-2,8.6c0,0.1,0.1,0.1,0.1,0.1
				c1.9-3.8,2.5-7.8,3.3-11.9c0,0,0.1-0.1,0.1-0.1c-0.1,3.2-0.4,6.3-1.1,9.5c-0.9,4.3-2.9,8.3-4.5,12.4c-2.2,5.7-2.4,11.7-2.7,17.7
				c-0.3,5.5-0.4,11-0.8,16.5c-0.2,3.1-1.6,5.9-2.5,8.9c0,0,0,0.1,0,0.1c-0.6,1.1-0.9,2.4-0.6,3.5c0,0,0.1,0,0.1,0
				c0.1-0.3,0.3-0.6,0.4-0.9c0.1,1.9,0.1,3.7-0.2,5.6c-0.4,0.2-0.6,0.6-0.6,1c-0.1,0.4,0.1,0.8,0.3,1.1c-0.1,0.4-0.1,0.8-0.2,1.2
				c-0.6,0.8-0.9,1.8-0.3,2.3c-0.2,1.9-0.3,3.8-0.3,5.8c1.4,3.7,7.9,4.1,11,4.1c4.3,0.1,9.2-1.4,7.4-6.5c-0.9-2.6-2.5-5-3.7-7.3
				c-0.4-0.7-0.8-1.5-1.2-2.2c0-0.1,0-0.3,0.1-0.4c-0.3-0.7-0.5-1.3-0.5-2.1c0-1.6,0.5-3.2,0.2-4.8c0-0.1,0-0.2,0-0.3
				c-0.1-1-0.1-2.1-0.1-3.1c0.2-7.1,2.7-14,4.4-20.8c1.4-5.7,2.5-11.5,5-16.9c1.8-2.8,3.7-5.6,5.3-8.6c-0.3,1.4-0.5,2.7-0.9,3.8
				c0,0.1,0.1,0.1,0.2,0.1c1-1.4,1.5-3.1,1.9-4.8c0.2-0.6,0.4-1.2,0.6-1.8c1.1-0.5,2.1-0.4,2.6,1.2c0.7,2,0.1,4.5,0.1,6.6
				c0,0.3,0.4,0.5,0.6,0.2c1.3-1.3,1.7-2.9,2.1-4.6c0-0.2,0.1-0.3,0.1-0.4c-0.2,2-0.1,3.9,0.5,5.5c0,0,0.1,0,0.1,0
				c0.1-3.2,0.3-6.1,1.3-9.2c0-0.1,0-0.1,0.1-0.2c0.6-0.6,1.5-1,2.6-1.3c1.1-0.3,1.8-0.7,2.4-1.3c0,0.8,0.1,1.6,0.2,2.4
				c0.1,0.9,0.5,1.7,0.8,2.6c0.2,2,0.2,3.8-0.3,5.9c0,0,0,0.1,0.1,0c0.8-1.3,0.9-2.7,0.9-4.1c0.1,0.3,0.2,0.6,0.2,0.9
				c0.4,2-0.4,3.5-0.5,5.3c0,0.1,0.1,0.1,0.1,0c1.3-2.6,1.2-5,0.6-7.8c-0.3-1.2-0.5-2.3-0.5-3.5c0.3,0.4,0.6,0.8,1,1.1
				c0.3,0.3,0.8,0.5,1.1,0.7c0.5,0.3,0.8,0.9,1,1.6c-0.1,1.5-0.5,3-0.6,4.5c0,0.1,0.1,0.1,0.1,0c0.5-1,0.8-2,1.1-3
				c-0.1,2.4-0.1,4.8,0,7.2c-0.2,4.8,0.4,9.2,1.2,14c1.1,5.7,1.1,11.6,1.6,17.4c0.3,3.1,0.4,6.1,0.6,9.2c-0.2,0.4-0.3,0.7-0.5,1.1
				c-0.4,2-1.1,3.8-1.9,5.7c-0.5,0.8-1,1.6-1.6,2.5c0,0.1,0,0.1,0.1,0.1c0.3-0.2,0.7-0.5,1-0.8c-0.2,0.6-0.3,1.1-0.5,1.7
				c-0.2,3.4-0.5,7.1,2.8,9.1c1.4,0.9,3.6,0.8,5.2,0.6c2.1-0.3,2.4,0,3.8,1c1.1,0.7,2.1,1.6,3.2,2.3c3.3,2.4,8.1,3.1,12.1,2.5
				c2.1-0.3,4.3-1.4,4-3.1c-1.8-1.6-3.5-3.3-5.2-4.9c-0.6-0.5-1.2-1-1.8-1.5c-0.6-0.5-1.1-1.1-1.5-1.7c-0.8-0.9-1.2-1.8-1.7-2.8
				c0.7,0.8,1.3,1.6,2.2,2.3c0.1,0,0.1,0,0.1-0.1c-1.4-2.6-3-4.9-5.1-6.9c-0.4-0.6-0.9-1.2-1.3-1.8c-0.4-0.4-0.9-0.7-1.3-1.1
				c-1.2-0.9-1.9-2.1-2.5-3.4c0.1-2.1,0.4-4.2,0.6-6.3c0.7-6.9,0.9-13.9,1.5-20.8c0.6-7.1,1.4-14.1,1.2-21.2
				c-0.1-3.2,0.4-6.3,0.6-9.4c0.1-2-0.3-4.2-0.7-6.3c0,0,0-0.1,0-0.1c0.1,0.5,0.2,0.9,0.3,1.4c0.7,3.4,0.6,7,1.3,10.4
				c0,0.1,0.1,0.1,0.1,0c0.6-3.3,0.3-7-0.1-10.3c0.1,0.2,0.2,0.4,0.2,0.7c0.7,1.9,0.2,3.7,1.3,5.4c0.2,0.2,0.5,0.2,0.6-0.1
				c1.4-5.5,0.6-11.1-0.8-16.5c0-0.2-0.1-0.4-0.1-0.6c-0.1-0.5-0.2-1-0.3-1.6c0.7,1.3,1.5,2.6,2.2,4c0,0.1,0.2,0,0.1-0.1
				c-0.4-2.3-1.6-4.5-2.9-6.7c-0.5-2.7-1.1-5.3-1.7-8c-0.9-3.9-1.5-8.2-2.6-12.2c-0.3-1.4-0.6-2.8-1.1-4.2c0-0.3,0-0.6-0.1-0.9
				c-0.3-2.9-1.3-5.6-2.4-8.3c-0.6-1.5-1.2-3-1.8-4.5c0.1,0.2,0.2,0.3,0.3,0.5c1.6,2.6,2.8,5.2,3.7,8.1c0,0.1,0.2,0.1,0.2,0
				c-0.1-4-2.9-7.8-4.9-11c-0.4-0.7-0.8-1.4-1.2-2.1c0-0.7-0.3-1.3-0.8-1.7c-0.6-1.4-1-2.7-1.3-4.1c0.1-0.3,0.2-0.7,0.3-1
				c0.7-2.1,0-4.7,1.1-6.6c0.4-0.8,2-2.3,1.6-3.4c-0.2-0.5-0.2-0.5-0.5-0.9c-0.2-0.2-0.4-0.3-0.6-0.5c-0.8-0.7,0.6-1.2,0.8-1.6
				c0.5-1,0-1.9-0.5-2.9c-1.3-2.3-0.9-4.4,0-6.8c0.3-0.8,0.6-1.5,0.9-2.3c2,2.4,3.9,4.9,5.8,7.4c0.4,0.6,0.8,1.1,1.2,1.7
				c0.2,0.4,0.4,0.8,0.6,1.1c0.1,0.2,0.3,0.3,0.6,0.5c1.1,1.5,2.2,3,3.3,4.5c1.7,2.3,3.6,4.3,4.4,7c0.7,2.3,0.5,4.3,1.5,6.4
				c-0.2,1.6-0.1,3.5-0.1,4.3c0,2.8-0.5,7.1,1.3,9.5c0.1,0.2,0.3,0.2,0.5,0.1c1.2-1,1.6-2.2,1.9-3.7c0.2-1.2,0.4-2.3,0.8-3.3
				c0,0,0,0.1,0.1,0.1c0.7,1.4,1.6,2.6,2.2,4.1c0.8,2,0,3.6-1.2,5.1c-1.2,1.6-2.8,2.9-3,5c0,0.2,0.3,0.4,0.5,0.3
				c0.9-0.6,1.8-1.3,2.7-2c0.3-0.2,0.7-0.5,1-0.7c1.6-0.9,0.9,2.1,0.8,2.6c0,0.3,0.3,0.5,0.5,0.3c1.1-1.3,1.9-2.7,2.4-4.2
				c0.2,0.4,0.4,0.7,0.6,1c0.2,0.3,0.6,0.2,0.7-0.1c0.9-2.5,0.3-4.9-0.4-7.3C590.5,204.7,587.4,198,584.3,193.4z M531.4,109.6
				c-0.1-0.6-0.1-1.1-0.1-1.7c0-0.5,0.1-1.1,0.3-1.6c0.1,0.9,0.2,1.8,0.3,2.7C531.8,109.3,531.6,109.4,531.4,109.6z M517.1,210.3
				c-0.1-1-0.1-2,0-3c0,0.1,0,0.2,0,0.4c0.1,2.3,0.6,4.5,0.9,6.8c-0.1,0.4-0.3,0.9-0.4,1.3C517.4,213.9,517.2,212.1,517.1,210.3z
				 M516,227.6c0,0.1,0,0.2-0.1,0.3c0.4-2.9,1-5.7,1.6-8.5c0.1,0.5,0.1,1,0.2,1.5C517.3,223.2,516.6,225.4,516,227.6z M518,219
				c0-0.4-0.1-0.7-0.1-1.1c0.1-0.4,0.2-0.8,0.3-1.2C518.1,217.4,518.1,218.2,518,219z M525.8,136c-0.9,0.3-2,0.6-3.1,1.1
				c0.4-0.3,0.8-0.5,1.3-0.7c1.5-0.4,3-0.9,4.5-1.3C527.6,135.4,526.7,135.7,525.8,136z M537.8,96.4
				C537.8,96.4,537.8,96.4,537.8,96.4c0-0.1,0.1-0.1,0.1-0.2c0.4-0.5,0.9-1,1.3-1.4C538.7,95.3,538.2,95.8,537.8,96.4z M570.4,237.7
				c0.5,2.2,0.9,4.3,1.4,6.5c-0.1-0.1-0.1-0.2-0.2-0.3c-0.6-2.1-1.3-4.2-1.9-6.3c-0.1-1.8-0.3-3.6-0.4-5.4c0-0.1,0-0.2,0-0.3
				C569.6,233.9,570,235.8,570.4,237.7z M568,226.4c0.4,2.2,0.7,4.4,0.9,6.7c0.1,0.8,0.1,1.6,0.2,2.5c-0.4-1.7-0.9-3.4-1.2-5.2
				c-0.4-2.1-0.5-4.3-0.5-6.4C567.6,224.8,567.8,225.6,568,226.4z"/>
		</g>
	</g>
</g>
<g id="Слой_10">
	<path class="st0" d="M6.1,271.5c0.5,1.3,1.5,2.9,2.4,3.9c0.5,0.5,1.5,1.6,2.3,0.9c0.7-0.6,1.1-1.5,0.7-2.4
		c-0.7-1.8-2.4-3.2-1.8-5.3c0-0.2,0.1-0.3,0.1-0.5c0.3,0.4,0.6,0.7,0.8,1c0.9,1.1,1.8,2.2,3,3c1.4,0.9,3.3,3.3,5.2,2.6
		c2.4-1-0.5-4.2-2.5-6.3c1.9,0.4,3.6,0.3,3.1-1.2c-0.5-1.5-3.3-1.5-4.2-2.5c-1.2-1.4-1.3-2.9-1.1-4.5c0,0,0,0,0,0.1
		c0.4,0.9,0.9,2,1.8,2.4c1.6,0.7,3.4-0.4,3.4-2.2c0.1-3-2-5.7-1.6-8.6c0.3-2.4,0-4.9-1.6-6.7c0.3-0.7,0.7-1.5,0.9-2.2
		c0.5-1.7,0.9-3.4,1.3-5.1c0.2-0.2,0.4-0.5,0.5-0.7c0.3-0.6,0.4-1.2,0.3-1.8c0,0,0-0.1,0-0.1c0.8-2.1,2.2-4.7,2.4-7
		c0.2-2.7,2.6-3,2.9-5.4c0.6-5.3,3.8-9.9,4.7-15.2c0.1-0.6,0.2-1.3,0.2-1.9c0,0.1,0,0.2,0,0.4c0.1,2.1-0.3,3.9-0.9,5.8
		c0,0,0,0.1,0.1,0c1.9-2.4,1.6-6.1,1-8.9c-0.4-1.9-0.5-3.8-0.5-5.7c1-2.7,1-5.5,1.7-8.3c0.8-3.1,2.6-5.7,3.4-8.7
		c0.2-0.8,0.4-1.6,0.5-2.4c0.7,2.2,0.8,4.6,1.6,6.8c-0.3,1.4-0.5,2.8-0.8,4.2c0,0.1,0.1,0.1,0.1,0c0.3-1.1,0.6-2.2,0.9-3.3
		c-0.1,1.1-0.2,2.2-0.5,3.3c-0.8,3.5-0.7,7,0.2,10.5c0,0.1,0.2,0.1,0.2,0c-0.1-2.3-0.5-4.5-0.2-6.8c0-0.3,0.1-0.7,0.2-1
		c0.3,2.3,1.1,4.6,1.1,7.1c0,4-2.1,7.8-1.6,11.8c0.1,0.6,0.1,1.2,0.1,1.8c-1,0.4-2,1.1-1.6,2.3c0.3,1,0.4,1.9,0,2.9
		c-0.3,0.6-0.6,1.3-0.7,1.9c-0.3,1.9,0.3,4.5-0.4,6.3c-0.6,1.5-1.2,4.1-2.5,5c-0.5,0.4-0.7,0.9-0.8,1.4c-0.4,0.3-0.8,0.7-1.2,1.2
		c0,0.1,0,0.2,0.1,0.1c0.3-0.2,0.6-0.4,0.9-0.6c-0.7,1.2-1.2,2.5-1.3,3.9c0,0.1,0.1,0.1,0.1,0c0.5-1,1-1.9,1.5-2.7
		c0.2,0.6,0.5,1.1,0.1,2.4c-0.3,1-0.8,1.9-1.3,2.7c-0.7,1-1.5,2-1.9,3.2c-0.5,1.5-0.7,2.9-0.7,4.5c0,0.3,0.1,0.6,0.1,0.9
		c0,1.7,0.2,3.4,0.4,5.1c0,0.1,0.1,0.1,0.1,0c0.1-1,0.1-1.9,0.1-2.9c0.2,0.6,0.4,1.3,0.5,1.9c0.4,2.5,0.7,5.1,0.3,7.6
		c-0.2,1.2-0.2,2.3,0.1,3.4c-0.1,2.3,0.1,4.5,0.7,6.9c0,0,0.1,0,0.1,0c0.1-1.5,0.1-3.1,0-4.6c1.3,3.5,2.5,7.3,1.1,11
		c-0.5,1.2-0.9,2.5-0.6,3.8c0.1,0.5,0.3,1.1,0.5,1.6c-0.4,3.7,0.6,8,1.5,11.2c0,0.1,0.1,0.1,0.1,0c-0.2-2.3-0.5-4.5-0.7-6.7
		c0.8,1.6,2,3.3,1.8,5c-0.1,1.6-1.1,4.1-0.4,5.8c0,0.1,0.1,0.2,0.1,0.3c-0.2,1-0.2,2,0.1,3c0,0,0.1,0,0.1,0c0.2-0.6,0.3-1.2,0.4-1.8
		c0.3,0.7,0.5,1.4,0.3,2.1c0,0.1-0.1,0.1-0.1,0.2c-1.3,2.4-2.2,5-2.2,8.1c0,0.1,0.1,0.1,0.1,0c0.4-1.1,0.7-2.3,1-3.5
		c-0.3,3.1-0.1,6.3-0.1,9.5c-0.1,0.2-0.2,0.3-0.3,0.5c-0.2,0.2-0.5,0.5-0.9,0.7c-1.2,0.6-2.4,0.9-3.3,1.9c0,0.1,0,0.1,0.1,0.1
		c0.9-0.6,2.1-0.9,3.1-1.4c-0.1,0.1-0.2,0.3-0.4,0.4c-1.1,1.3-0.8,3.1-0.9,4.7c0,0.2,0.4,0.3,0.4,0.1c0.4-1.7,1-2.8,2-3.9
		c-0.5,1.5-0.5,3.1-0.5,4.7c0.1,2.6,0.3,5.2,0.2,7.8c-0.8,3.3-1.1,6.7-0.5,10.1c0.1,0.5,0.2,1,0.3,1.6c-0.2,2.8,0,5.6,0.7,8.1
		c0,0.1,0.1,0,0.1,0c0.1-1.6,0-3.2,0-4.8c0.1,0.4,0.2,0.8,0.3,1.1c0.1,0.3,0.1,0.7,0.2,1c0.1,3.7,0.1,7.4,0.7,11
		c0,0.3,0.5,0.3,0.6,0c0.2-0.9,0.4-1.8,0.5-2.7c0.3,0.9,0.5,1.7,0.6,2.6c0.2,1.3,0.3,2.6,1,3.7c0.1,0.2,0.5,0.2,0.5-0.1
		c0.5-2.1,0.3-4.3,0.2-6.5c0.3,1.1,0.5,2.2,0.8,3.2c0,0.1,0.1,0,0.1,0c0.3-2.7-0.8-5.4-0.6-8.2c0-1.2,0.2-2.2,0.4-3.3
		c0.2-0.3,0.4-0.7,0.7-1c-0.5,3.1-0.6,6.3-0.1,9.3c0,0.1,0.2,0.1,0.2,0c0-2.4,0.2-4.7,0.4-7.1c0,3.2,0.3,6.3,0.1,9.6
		c-0.2,3.4,0.1,6.9,0.3,10.4c-0.6,2-1.7,4-1.6,6c0.1,2.8,0.9,5.3,0.4,8.2c-0.3,1.7-0.4,3.4-0.3,5.1c0.1,1.7,0.3,3.6,1.3,5
		c0.3,0.5,0.7,1,1.3,1.3c0.7,0.3,0.7,1,1.3,1.6c0.9,1,1.8,1.3,3,0.6c0.1,0,0.1-0.1,0.2-0.1c0.2,0.2,0.3,0.3,0.5,0.4
		c0.7,0.3,1.3,0.3,1.9-0.1c0.1,0.2,0.3,0.4,0.5,0.5c0.7,0.5,1.8,0.6,2.4,0c0.1-0.1,0.2-0.2,0.2-0.3c0.3,0.2,0.7,0.3,1.1,0.4
		c0.9,0.2,1.5-0.3,1.8-1c0.2,0.2,0.5,0.4,0.8,0.5c0.9,0.4,2,0.6,2.9,0.2c1.4,0.1,2.6-0.2,2.5-1.9c-0.1-1.6-1.2-2.8-2.2-4
		c-0.1-0.2-0.3-0.4-0.4-0.5c-1.9-4.3-4.8-7.9-5.5-12.7c-0.4-2.5,0.1-5-0.4-7.4c-0.2-0.9-0.4-1.8-0.7-2.6c0.1-0.6,0.2-1.2,0.3-1.8
		c0.3-1.8,1.1-3.6,1.3-5.4c0.1-0.6,0.2-1.2,0.3-1.8c0,0.1,0,0.1,0,0.2c-0.1,2.7-0.5,5.4-0.7,8.1c0,0.1,0.1,0.1,0.1,0
		c0.5-1.9,0.9-3.9,1.1-5.9c0.1,0.2,0.1,0.3,0.2,0.5c0.3,0.6,0.6,1.2,0.9,1.8c0.4,1.5,0.6,3,0.4,4.7c0,0.1,0.1,0.1,0.1,0
		c0.2-0.4,0.4-0.8,0.5-1.2c0.1,0.8,0.1,1.6,0.1,2.4c0,0.3,0.4,0.4,0.6,0.2c1.9-1.7,1.5-6,1.5-8.3c0-4.7,0.1-9.3,0.6-14
		c0.2-2.4-0.2-4.8,0.1-7.2c0.3-2.4,0.9-4.6,1.4-6.9c0.3-1.5,0.3-3.1,0.2-4.6c0.2-0.8,0.5-1.6,0.7-2.5c0.7-3.4-0.2-6.7,1.1-10
		c0-0.1,0.1-0.2,0.1-0.3c-0.1,1.4-0.2,2.7,0,4.1c0,0,0.1,0.1,0.1,0c0.3-1.7,0.7-3.5,0.7-5.3c0.1,0.4,0.2,0.9,0.4,1.3
		c0,0.1,0.1,0.1,0.1,0c0.2-1,0-1.9-0.4-2.9c1.5-5.8,1.2-12,1-17.8c-0.1-3.7-1.2-7.3-1.1-11.1c0.1-3.4-1.7-7-0.8-10.4
		c0.3-1.3,0.6-2.3,0.3-3.6c-0.4-1.7,0-3.5-0.1-5.2c-0.1-2.7-0.1-5.4,0.1-8c0.8,1.9,0.6,4.6,0.6,6.4c0,1.2,0.1,2.3,0.4,3.5
		c0.5,1.8,0.1,3.3,0.2,5.1c0,1.6,0.8,2.5,1.1,4c0.3,1.6,0.3,3.6,0.3,5.3c0,1.4-0.9,2.5-0.9,3.8c0,1.5,1.1,1.6,0.8,3.6
		c-0.2,1.1-0.2,1.8,0.3,2.8c1,1.7,0.5,3.9,0.7,5.8c0.2,2.1,0.7,4.1,0.3,6.2c-0.2,1.2-0.6,2.6-0.3,3.8c0.2,1,0.6,1.9,0.9,2.9
		c0.3,1,0.2,2,0.3,3c0.1,1,0.3,1.8,0.6,2.7c-0.2,0.7-0.4,1.3-0.6,2c-0.6,1.7-1.2,3.5-1.1,5.4c0.2,2.2,0.6,4.1,0.2,6.3
		c-0.2,1.3-0.1,2.6,0,3.8c-0.1,0.5-0.2,0.9-0.3,1.4c-0.6,4.3,0.6,8.5,1.1,12.8c0,0.1,0.1,0.1,0.1,0c0.3-2.4-0.3-4.8-0.6-7.2
		c-0.1-1.3-0.1-2.6,0-3.8c0.3,3.6,0.7,7.1,1.1,10.7c0.2,2.1,0,4.2,0.2,6.3c0.2,1.9,0.6,3.8,0.9,5.7c0.1,0.3,0.5,0.2,0.5-0.1
		c0-2.1,0.2-4.2,0.4-6.3c0.3,2,0.8,3.9,1.4,5.8c0,0.1,0.1,0.1,0.1,0c-0.2-1.3-0.4-2.6-0.6-3.9c0.9,1.8,2.1,3.6,1.7,5.6
		c-0.3,1.4-1.2,2.9-1,4.4c0.1,0.6,0.1,1.2,0.2,1.7c-0.5,1.7-0.8,3.3-1.5,4.9c-1.1,2.7-2.6,5.2-4,7.7c-1.3,2.3-2.7,4.4-4.3,6.5
		c-0.7,1-1.2,2-1.5,3.3c-0.4,2.3,2,3.3,3.9,2.6c0.2-0.1,0.4-0.2,0.6-0.4c0.2,0.4,0.5,0.8,0.8,1c0.7,0.5,1.6,0.4,2.2-0.1
		c0.4,0.2,0.8,0.3,1.1,0.3c0.8,0,1.5-0.4,1.8-1.1c0.4,0.3,0.8,0.4,1.2,0.4c0.7-0.1,1.3-0.4,1.7-1c0.8,0.3,1.6,0.3,2.4-0.2
		c2.7-1.8,4.3-4.5,5-7.7c0.5-2.5,1.2-4.6,2.1-7c0.8-2.1,0.6-3.6,0.5-5.7c-0.2-1.9,0.6-3.4,0.7-5.3c0.1-1.2-0.6-2.5-1.2-3.7
		c0.3-1.1,0.6-2.1,1.4-3c0.5-0.6,1.1-1.2,1.3-2c0.4-1.4,0.3-2.8,0.6-4.1c0.3-1.3,1-2.6,1.4-3.9c0.1,0.2,0.1,0.4,0.2,0.6
		c0.6,2.7-0.6,4.5-0.9,7.1c0,0,0.1,0.1,0.1,0c0.6-1.2,1.3-2.6,1.6-3.9c0.3,3.5-0.6,7.3,0,10.9c0.1,0.3,0.5,0.2,0.6-0.1
		c0.4-3.3,0.4-6.6,1.3-9.8c0.7-2.8,1.3-5.7,1.9-8.5c0.5-2.6,1.4-5.2,1.3-7.8c-0.2-2.8-0.4-5.6-0.5-8.4c-0.1-4,0-8,0-12
		c0,0.2,0,0.4,0.1,0.6c0.3,4.2,0.5,8.3,0.3,12.4c0,0.1,0.2,0.1,0.2,0c0.8-4.1,0.4-8.3,0.1-12.5c-0.2-2.4-0.3-4.7-0.3-7
		c1.2-2.3,1.9-4.4,1.7-6.9c1.3,1.4,2.3,2.9,3.1,4.7c0,0.1,0.1,0,0.1,0c0.2-1.2-0.3-2.4-1-3.5c1.4,1.2,2.3,2.6,3,4.6
		c0.1,0.3,0.5,0.2,0.5-0.1c0.2-3.5-1.4-5.1-3.1-7.9c-2.4-4-3.1-8.4-3-13c0.1-1.7,0.4-3.4-0.2-5c-0.9-2.4-0.5-4.2-0.1-6.7
		c0-0.1,0-0.1,0-0.2c0.1,1,0.1,2.1,0.1,3.2c0,0.1,0.1,0.1,0.1,0c0.2-0.6,0.4-1.3,0.4-2c0.2,1.2,0.3,2.3,0.5,3.5c0,0.1,0.1,0.1,0.2,0
		c0.5-3.4,0-7.6-1.4-11.3c0-0.1,0-0.2,0-0.3c0.1-1.2,1-2.8,0.7-4.1c-0.2-1.1-0.6-2.1-0.2-3.2c0.1-0.4,0.4-0.8,0.4-1.2
		c0-1.6-0.5-2.9-0.2-4.5c0-0.1,0-0.1,0-0.2c0.4,1.2,0.7,2.4,0.9,3.8c0,0.1,0.1,0.1,0.1,0c0.4-2.4-0.4-5-1.7-7.2
		c-0.7-1.6-0.7-3-0.7-4.8c0-1.8-0.5-3.3-0.9-5.1c-0.4-1.7-0.6-3.4-0.9-5c-0.1-0.5-0.3-1-0.4-1.4c0.8,1.1,1.5,2.3,2.2,3.5
		c0,0,0.1,0,0.1,0c-0.4-2.2-1.6-4.5-3.4-6.5c0.6,0.5,1.2,1.1,1.7,1.9c0,0.1,0.1,0,0.1,0c-0.4-1.2-1.3-2.2-2.4-3.1
		c0-0.6,0.1-1.2-0.1-1.8c-0.3-1-1.3-1.6-2-2.3c-1.7-1.6-2.3-3.4-2.3-5.7c0-0.9,0.1-1.8-0.4-2.6c-0.4-0.7-1.4-2.1-1.2-2.7
		c0.1-0.3,0.2-0.7,0.2-1.1c-0.1-1.3-0.7-1.8-1.5-2.4c0.6-1.7,1.6-3.3,1.5-5.2c-0.1-2.5-1-5-0.8-7.4c0.2-2.4,1.1-4.5,1.9-6.7
		c0,1.2,0,2.5-0.2,3.8c-0.2,2-0.5,3.9,0.1,5.8c0,0,0.1,0,0.1,0c-0.3-3.9,0.8-7.6,0.8-11.5c0.4,1.2,0.6,2.5,0.8,3.8
		c0,0.1,0.1,0.1,0.1,0c0.1-1.8-0.3-3.6-0.8-5.4c0.7-4.3,0.3-8.6,1.5-12.9c0.9-3.1,1.4-6.2,1.6-9.4c0.1,0.4,0.2,0.7,0.3,1.1
		c0,0.1,0.2,0.1,0.2,0c0.4-2.5-0.5-5.1-0.4-7.6c0.1-1,0.3-2,0.3-3c0.3-1.7,0.6-3.4,0.8-5.1c0.1-0.2,0.2-0.3,0.3-0.5
		c0.7-1,1.5-1.7,2-2.9c0.3-0.6,0.3-1.4,0.2-2.1c-0.1-1.1,0.4-1.9,1-2.4c0.8-0.2,1.7-0.3,2.7-0.1c0.7,0.2,1.7,0.1,2.3-0.5
		c1.6-1.5,3.2,0,4.9-0.6c1.5-0.6,2.6-1.6,3.8-2.5c0.6-0.4,1.2-0.8,1.8-1.1c1.5-0.2,3-0.3,4.6-0.1c3.3,0.3,5.5-1.4,8.2-3.1
		c2.8-1.8,4.6-3.6,6.5-6.3c1.6-2.3,3.8-4,5.5-6.2c0.3-0.1,0.6-0.3,0.8-0.5c0.4-0.4,0.7-1,1-1.7c1.2-0.7,2.3-1.7,3-2.5
		c1.7-2,2.9-4.8,3.4-7.5c0.5-0.8,1-1.6,2-1.9c0.6-0.2,1.1-0.8,1.6-1.1c0.7-0.4,1.6-0.2,2.4-0.1c0.8,0.1,1.4-0.5,1.8-1.1
		c0.9-1.6-1.2-3.2-2.6-3.2c-1.8,0-4.4,1.6-6.3,1.3c0.1-1.4,0.1-3.3,1.6-4.1c0.3-0.1,0.6-0.3,0.9-0.5c0.7-0.7,0.4-2.6-0.4-3.2
		c-1.2-0.8-2.9-0.6-3.9,0.5c-1.1,1.3-1.3,3.9-2.8,4.4c-0.1-0.5-0.1-1.1-0.1-1.6c0.1-1.3,0.7-2.3,0.9-3.5c0.2-1.1,0.2-2.2,0.7-3.2
		c0.8-1.7,1.2-4-0.9-4.8c-2.7-1-3.9,3.3-4.7,4.9c-1,2.1,0.6,4.7-0.7,6.6c-0.7-0.1-1.4-0.3-2.1-0.6c-0.7-1-1.6-1.9-2.2-3.1
		c-0.8-1.6-0.6-3.5-1.4-5c-1.1-2.1-3.3-1.1-4.5,0.5c-0.6,0.8-0.4,1.9,0.2,2.5c0.8,0.9,0.5,2.9,1,4c0.2,0.6,0.8,1.2,1.2,1.8
		c0.8,1,2.2,2.5,2,3.9c-0.2,1.5-1.1,2.6-1.9,3.8c-1.2,1.8-1.9,3.7-4.1,3.9c-0.1-0.1-0.2-0.2-0.3-0.4c-0.2-0.5-0.5-1.3-1-1.6
		c-1-0.8-3.8-1.9-4.8-0.3c-1.1,1.9,0.9,4.4,2.3,5.6c0.8,0.8,1.7,1.2,2.5,2.1c0.3,0.4,0.6,0.7,0.9,1c0.7,0.4,2.1,0.4,3.4,0.4
		c-1.4,0.7-2.6,1.7-4.4,1.8c-1,0.1-2.2,0.1-3.1,0.4c-2.7,1.1-4.9,2.9-7.6,4c-3.3,1.3-6.3,2.2-9.8,1.2c-2.5-0.7-4.9-1.5-7.5-1.7
		c-2.1-0.2-4.3-0.5-6.1,0.8c-1.2,0.9-2.1,1.5-3.6,1.8c-1.2,0.2-2.4,0.4-3.5,0.8c-1.6,0.5-3.3,1.6-4.7,2.9c-0.3,0.1-0.6,0.2-0.9,0.4
		c-2-0.9-4.2-1.2-6.1-2.4c-1.8-1.1-4.1-2.1-5.7-3.6c-0.5-1.1-0.8-2.3-1.3-3.5c-1.1-2.5-2.2-5-3.6-7.3c-0.1-0.2-0.2-0.3-0.3-0.5
		c-0.2-0.7-0.5-1.3-0.9-1.9c0.8,0.6,1.5,1.4,2.3,2.3c0,0,0.1,0,0.1-0.1c-0.8-1.4-1.9-2.6-3.1-3.5c-0.5-0.7-1.1-1.3-1.7-1.8
		c0.8-0.3,1.5-0.6,2.2-0.9c0.3-0.1,0.2-0.5-0.1-0.5c-1.2-0.1-2.4-0.3-3.5-0.6c0.7-0.2,1.4-0.5,2.1-0.9c0,0,0-0.1,0-0.1
		c-0.9,0.1-1.7,0.3-2.6,0.5c0.3-0.7,0.4-1.4,0.4-2.1c-0.1-1.7-0.8-2.9-2-4c-1.1-1-2.3-1.3-3.4-1c-0.7-0.7-1.5-1.3-2.2-1.8
		c-0.5-0.5-1-1-1.4-1.5c-1.2-1.4-2.5-2.6-4.5-2.8c-0.2,0-0.3,0.3-0.2,0.4c0.6,0.5,1.1,1.1,1.5,1.6c-0.9-0.3-1.8-0.6-2.8-0.8
		c-3.7-1.2-7.6-0.5-11.3,0.8c-1.2,0.4-1.9,1.1-2.3,1.9c-1.1,0.6-2.2,1.3-2.8,2.2c-0.4,0.6-0.7,1.1-0.6,1.9c0.1,1.2-0.5,2.2-1.2,3.1
		c-0.4,0.5-0.4,1.2-0.4,1.9c-0.7,2.4-0.4,4.7,0,7.4c0,0.1,0.2,0.1,0.2,0c0.3-1.7,0.2-3.3,0.4-4.9c0,0.2,0.1,0.3,0.1,0.5
		c0.4,1.5,0.4,3.1,0.5,4.7c-0.1,1.8-0.3,3.5-0.8,5.3c0,0.1,0.1,0.3,0.2,0.3c0.9,0.1,1.8-2.4,2.1-3c0.1-0.2,0.2-0.4,0.2-0.7
		c0.4,2.9,1.5,5.9,1.3,8.8c0,0.2,0.3,0.2,0.3,0c0.2-2-0.2-4.1,0.1-6c0.1,0.5,0.2,1,0.3,1.4c0.6,2.4,0.6,4.6,0.8,7
		c0,0.2,0.3,0.3,0.4,0.1c1.2-2.3,0.4-4.5,0.8-6.9c0,0.1,0.1,0.2,0.1,0.3c0.3,3.1,1.3,6.2,2.2,8.6c0,0.1,0.2,0.1,0.2,0
		c-0.1-0.8-0.3-1.6-0.4-2.5c1.8,2.9,5.6,5.2,6.7,8.4c0.1,0.2,0.5,0.2,0.5-0.1c0-2.2-0.7-3.5-2.1-5.2c-0.5-0.6-0.8-1.1-1-1.7
		c1.9,1.2,4.3,1.9,5.6,3.9c0.1,0.2,0.5,0.1,0.4-0.2c-0.2-0.7-0.6-1.5-0.7-2.3c0-0.3-0.1-0.6-0.1-0.9c0.5,0.2,0.9,0.4,1.4,0.7
		c1.1,0.6,1.5,1.6,2.1,2.6c0.1,0.2,0.4,0.2,0.4-0.1c0.1-0.6,0.2-1.2,0.3-1.7c0.2,0.6,0.4,1.2,0.7,1.8c0,0.1,0.1,0,0.1,0
		c0.1-0.8-0.1-1.6-0.2-2.4c0.5,0.1,0.9,0.1,1.4,0.1c-0.1,1.5,0,3,0.2,4.5c-1.2,1.4-2.8,2.1-4.4,3.5c-1.2,1-2,3.3-3.3,4
		c-1.1,0.6-2.4,1-3.4,1.8c-0.3,0.2-0.5,0.5-0.7,0.8c-0.8,0.1-1.4,0.5-1.7,1.4c-0.6,0.3-1.3,0.7-1.8,1.2c-1.9,1.6-3.5,3.4-4.1,5.9
		c-0.4,1.6-0.6,3.1-1.1,4.7c-0.3,1.1-0.7,2.2-0.7,3.4c0.1,2,0.2,3.7-0.2,5.7c-0.2,0.7-0.2,1.6-0.1,2.3c0.3,2,0.9,3.9,0.8,5.9
		c-0.1,1.8-0.3,3.7-0.7,5.5c-0.1,0.6-0.2,1.1-0.3,1.7c-0.5,0.5-0.8,1.2-0.7,1.9c0,0.3,0.1,0.6,0.2,1c-0.2,1.4-0.3,2.8-0.5,4.3
		c-0.4,3-1.5,6.2-2.2,9.3c-0.7,1.1-1.2,2.2-1.5,3.4c-0.1,0.7,0,1.4,0.1,2.1c-0.5,0.9-1,1.8-1.3,2.8c-0.4,1.6-0.3,3.2-0.3,4.8
		c0,2.5-0.4,4.9-0.9,7.3c-0.6,0.3-1.1,0.8-1,1.3c0.1,0.5,0.2,1,0.5,1.5c-0.1,0.7-0.3,1.5-0.3,2.2c-0.5,4.3-0.7,8.7-1,13.1
		c-0.3,3.6-1,7.2-1.4,10.9c-0.1,0.4-0.3,0.8-0.4,1.2c-0.4,1.1-1.1,2.1-1.3,3.2c-0.1,0.4,0.1,0.8,0.3,1.2c-0.6,1.2-1.3,2.5-1.1,3.8
		c0.2,1.5,0.4,2.8,0.2,4.3c-0.1,0.9-0.2,1.8-0.2,2.7C5.8,267.6,5.4,269.8,6.1,271.5z M91.2,145.9C91.2,145.9,91.2,145.9,91.2,145.9
		C91.2,145.9,91.2,145.9,91.2,145.9C91.2,145.9,91.2,145.9,91.2,145.9z M89.6,151c0-0.1,0-0.2,0-0.2c0.3-0.4,0.6-0.8,0.9-1.3
		c-0.1,0.4-0.4,0.8-0.7,1.2C89.8,150.8,89.7,150.9,89.6,151z M32.1,324c-0.1-1.8-0.2-3.6,0-5.4C32.1,320.4,32.2,322.2,32.1,324z"/>
</g>
<g id="Слой_8">
	<g>
		<path class="st0" d="M582.3,156.1c0.2,1.3,0.9,2.3,2.2,1.6c2-1,2.6-4.6,3.5-6.5c0.8-1.5,1.9-2.6,3.1-3.7c-0.4,0.9-0.6,1.8-0.6,2.9
			c0,1-1.2,3.8-0.2,4.6c1.1,1,2.2-1.2,2.4-1.9c0.4-1.4,0.6-3,1.4-4.2c0.9-1.3,2-2.4,3.3-3c0.7,0.6,1.4,1.5,1.9,2.2
			c0.9,1.2,1.3,2.4,1.7,3.9c0.2,0.7,0.3,1.4,0.8,1.9c0.7,0.9,3.5,3.9,4.6,1.8c0.3-0.6-0.5-1.7-0.8-2.1c-1.3-1.7-2.1-3.3-1.9-5.6
			c0.1-1.2,0.1-2.6-0.1-3.9c0,0,0,0,0,0c0.9,0.5,2.7,1.1,3.3,2c0.2,0.3,0.5,0.9,0.7,1.1c2,1.7,4.2,1,6.4,0.3c1.8-0.6,3.8-0.6,5.7-1
			c1.4-0.3,2.8-0.7,4.2-1.2c0.4-0.1,0.8-0.1,1.2-0.2c1.8-0.4,3.4-1.2,4.9-2c-1.2,1.8-2.5,3.7-3.1,5.7c0,0.1,0.1,0.1,0.1,0.1
			c0.7-0.9,1.4-1.9,2-2.9c-0.5,1.5-1,3.1-0.9,4.7c0.1,1.6,0.4,3.2,0.7,4.7c-0.3,0.7-0.4,1.5,0,2.2c0.1,0.3,0.2,0.5,0.4,0.7
			c0.1,1,0.2,1.9,0.3,2.9c-0.2,0.8-0.4,1.6-0.7,2.4c-0.1,0.4-0.3,0.7-0.3,1.1c0.1,0.9,1.1,1.7,0.5,2.7c-0.2,0.4-0.1,0.7,0,1.1
			c0.1,0.5,0.3,1,0.6,1.5c-0.5,1.1-0.8,2.3-1,3.4c0,0.1,0.1,0.1,0.1,0c0.3-0.9,0.6-1.7,1-2.6c0,0.2,0,0.4-0.1,0.5
			c-0.6,4-2,7.9-2.4,12c0,0.4,0.4,0.5,0.6,0.2c0.2-0.4,0.5-0.8,0.8-1.2c-0.1,0.8-0.3,1.5-0.5,2.3c-0.8,1.1-1.6,2.3-1.9,3.5
			c0,0.1,0.1,0.1,0.1,0.1c0.5-0.6,1-1.3,1.4-2c0,0.1-0.1,0.3-0.1,0.4c-0.9,3-2.9,5.4-4.1,8.3c-1.1,2.7-1.6,5.6-2.4,8.4
			c0,0.1-0.1,0.3-0.1,0.4c-0.7,0.8-1.6,1.6-1.5,2.7c0,0.4,0.1,0.7,0.1,1.1c-0.4,1.2-0.8,2.3-1,3.5c-0.2,1.1-0.3,2.3-0.4,3.4
			c-0.1,0.4-0.3,0.8-0.4,1.2c-0.4,0.9-0.8,1.8-1,2.8c-0.3,1.1,0.4,2-0.9,3c-0.3,0.2-0.3,0.7-0.4,1c-0.2,1.3-0.2,1.8-0.6,2.9
			c-0.2,0.5-0.3,1.1-0.4,1.6c0,1,0,1.9,0.1,2.9c-0.1,1.9,0.2,3.8,0.6,5.7c0,0.1,0.1,0.1,0.1,0c0.1-1-0.1-2-0.2-3c0-0.4,0-0.8,0-1.3
			c1,0.3,1.5,1.3,2.5,1.4c-0.2,0.5-0.3,1.1-0.5,1.6c0,0.1,0.1,0.1,0.1,0.1c0.4-0.3,0.7-0.9,1-1.5c-0.1,1.5-0.1,3.1,0.1,4.4
			c0,0.1,0.2,0.1,0.2,0c0.2-1,0.3-1.9,0.4-2.9c0,0.8,0.1,1.6,0.2,2.4c0,0.2,0.1,0.4,0.1,0.6c-0.2,3.1-0.1,6.3,0.2,9.4
			c0,0,0,0.1-0.1,0.1c-0.6,0.6-1,1-1.2,1.7c-0.2,0.6,0.3,1.3-0.2,2c-1,1.4-0.9,3.2-0.5,4.7c0.3,1.2,0.4,2.1-0.2,3.3
			c-0.1,0.2-0.2,0.4-0.2,0.6c0,0.6,0.1,0.9,0.6,1.3c1.1,1,0.2,2.2,1,3.2c0.8,1.1,1,2.1,1.1,3.5c0.3,2.9,0.7,5.7,1.3,8.4
			c0.2,2.2,0.7,4.5,0.9,6.6c0.2,1.6,0.3,3.3,1.3,4.7c0.8,1.3-0.4,2.3,0.2,3.5c1.7,3.4,2,7.6,2.4,11.5c0.2,0.8,0.4,1.6,0.5,2.5
			c1.1,2.6,0,4.8-1.5,6.8c0.2,1.1-0.5,2.2-1.3,3.2c-0.1,0.4-0.3,0.8-0.6,1.2c-1.4,2.2-3.1,4.3-5,6.2c-1,0.9-2,1.4-3.1,2.1
			c-0.3,0.2-0.6,0.3-0.8,0.6c-0.7,1.1-1.5,1.3-2.4,2.1c-0.5,0.4-0.9,1.3-1.2,1.9c-0.5,1-0.9,1.8-0.2,2.8c0.4,0.6,1,0.8,1.7,0.8
			c0.6,0.5,1.4,0.9,2.1,0.9c2.3,0,3.3-1.7,4.7-3.1c0.3-0.1,0.6-0.1,1-0.1c1.2-0.1,2.3-0.2,3.4-0.8c1-0.5,1.6-1.6,2.3-2.5
			c0.6-0.8,1.3-1.5,2.1-2.1c0.8,0.2,1.7,0.3,2.5,0.2c1.6-0.2,3.2-0.8,4.1-2.2c2-2.8,1.6-5.6,0.8-8.4c0-0.8-0.1-1.6-0.1-2.4
			c-0.5-1.3-1-2.6-1.1-4.1c-0.1-1.6,0.4-3.5,0.7-5c0.5-2.6,0.1-5-0.2-7.6c-0.6-4.8,0.6-9.5,1.3-14.3c0-1.5,0-3-0.2-4.4
			c-0.4-2.8-1.1-5.8-2.8-8.2c0-1,0-2,0.3-3c0.2-0.8,0.6-1.7,0.7-2.5c0.1-0.6,0.2-1.4-0.1-2c-0.1-0.3-0.5-0.9-0.3-1.3
			c0.5-1-0.5-1.9,0-3c0.8-1.4,0.2-3.3,0.1-4.8c0,0,0-0.1,0-0.1c0.3-2.1,0.5-4.2,0.8-6.2c0.1-1.1-0.6-3.1,0.2-4.1
			c0.2-0.2,0.4-0.8,0.5-1.1c0.1-0.7,0.1-1.4,0.1-2.1c0.1-0.3,0.2-0.6,0.3-0.9c0.1,0,0.1,0,0.2,0c0.2,1.6,0.2,3.2,0.3,4.8
			c0,0.1,0.1,0.1,0.1,0c0.4-1.6,0.5-3.3,0.3-5c0.9-0.2,1.9-0.4,2.6,0.1c0,0,0,0,0,0c0.2,0.7,0.4,1.4,0.7,2c0,0,0.1,0,0.1,0
			c0-0.4,0-0.9-0.2-1.4c0,0,0,0,0,0c0.1,0.2,0.1,0.3,0.2,0.5c0.3,0.7,0.4,1.4,0.8,2c0.1,0.1,0.2,0,0.2-0.1c0-0.6-0.2-1.2-0.4-1.9
			c0.2,0.1,0.5,0.1,0.8,0c1.5-0.4,2.5,0.5,3.3,1.5c0.5,0.4,0.9,0.8,1.3,1.2c0,0,0.1,0,0.1,0c0.1,0.9,0.2,1.8,0.4,2.7
			c0,0.1,0.1,0.1,0.1,0c0.1-1.2,0.2-2.5,0.2-3.8c0.4-2.1,0.9-4.6,3.6-3.3c0.1,0.1,0.3,0,0.4-0.1c0.5-1,1.2-1.5,1.9-1.6
			c0,1.9-0.1,3.7,0.5,5.4c0,0.1,0.1,0.1,0.1,0c-0.1-1.3,0-2.7,0-4.1c0.4,2.6,0.7,5.1,1.4,7.6c0,0.1,0.1,0.1,0.1,0
			c-0.1-1.2-0.2-2.5-0.4-3.9c0.3,1.1,0.5,2.2,0.7,3.3c0.5,2.9,1,5.7,1.3,8.6c0.3,2.2,1.2,4.1,1.7,6.2c0.5,2.2,0.5,4.5,1.5,6.6
			c0.6,1.3,1.7,2.4,2.7,3.4c1.5,2.5,2.7,5.3,4,7.8c0.8,1.6,1.6,4,3.1,5.2c1.1,0.9,0.5,2.2,1.4,3.1c0.8,0.7,1.5,1.4,2.1,2.3
			c0.7,1,1.5,2.1,2.1,3.2c1,1.9,2.2,3.8,3.3,5.7c2,3.7,2.6,7.7,3.5,11.7c0,1.4-0.2,2.8-0.9,4.1c-1.1,2.1-0.8,3.5-1.3,5.8
			c-0.3,1.4-1,6.2-2.6,6.6c-1.6,0.4-2.1,1.8-3.6,2.4c-1.9,0.7-0.6,2.8,0.7,3.3c1.3,0.4,2.5-0.1,3.3-1.1c0.4,0.2,0.8,0.3,1.2,0.3
			c0.7-0.1,1.2-0.5,1.6-1.1c0.2,0.1,0.5,0.1,0.8,0.1c0.7-0.1,1.6-0.5,2-1.2c0.4,0.1,0.7,0.2,1.2,0.2c0.5,0,0.8,0,1.3-0.1
			c1-0.4,1.6-1.4,2.6-1.8c0.7-0.3,1.4-0.6,2.1-1.1c1.4-1,2.2-3.2,2.6-4.7c0.3-1.1,0.5-2.5,1.1-3.5c0.6-1.1,1.6-1.7,2.3-2.7
			c0.8-1.2,1.3-2.7,0.7-4.2c-0.8-1.7-2.3-1.8-3.4-3.1c-0.8-0.9-1.5-1.1-2.5-1.7c-1.1-0.7-1.1-1.9-2-2.6c-0.4-0.3-0.8-0.5-1.2-0.7
			c-0.2-0.5-0.3-1-0.5-1.4c-0.7-2.5-1.2-4.9-2.3-7.3c-1-2.2-0.8-4.5-1.5-6.8c-0.4-1.3-0.8-2.5-1.2-3.7c-0.4-1.2-0.5-2.5-0.9-3.6
			c-0.5-1.3-1.1-2.2-1-3.6c0-0.4-0.1-0.8-0.3-1.2c-1.1-1.4-1.1-3.6-2.2-5.2c-0.8-1.2-1.9-2.5-3-3.7c-0.2-0.7-0.4-1.3-0.6-2
			c-0.5-1.5-1.2-3-1.5-4.6c-0.4-1.8-0.3-3.6-0.7-5.4c-0.3-1.5-0.9-2.9-1.1-4.4c-0.1-0.9-0.2-1.9-0.3-2.8c0.1-1.2,0.1-2.3,0.1-3.5
			c0-1.7,0-3.4-0.2-5.1c1-0.7,2-1.2,2.7-2.2c0,0.6,0,1.3,0.1,1.9c0,0.1,0.1,0.1,0.1,0c0.2-0.5,0.2-1,0.2-1.6
			c0.3,0.9,0.5,1.8,0.8,2.8c0,0.1,0.1,0,0.1,0c0-2-0.5-4.2-1.2-6.3c-0.1-0.7-0.3-1.4-0.5-2.1c-0.5-1.7-1-3.4-1.3-5.1
			c0.2,0.4,0.4,0.9,0.6,1.3c0,0.1,0.1,0,0.1,0c-0.9-3.6-2-7.4-3.3-11c-0.2-1.1-0.4-2.2-0.6-3.3c0.3-0.8,0.3-1.8,0.2-2.5
			c-0.1-0.7-0.5-1.3-0.9-1.9c-0.2-1.9-0.5-3.8-0.7-5.8c-0.1-0.9-0.1-1.7-0.2-2.5c0.6,3.3,1.8,6.6,2.6,9.5c0,0.1,0.1,0,0.1,0
			c-0.6-4.8-2.4-9.2-2.8-13.9c0-0.2,0-0.5,0-0.7c0,0,0,0,0,0c0.3,0.7,0.5,1.4,0.8,2.2c0,0,0,0,0.1,0.1c0,0,0,0,0,0.1
			c0,0.1,0.2,0.1,0.2,0c0-0.2,0.1-0.3,0.1-0.5c0.1-0.4,0.2-0.8,0.3-1.2c0.2-1.5,0.1-3-0.3-4.5c0.2-1.9,0-3.8-0.5-5.6
			c-0.4-1.4-0.6-2.8-0.7-4.2c0.2-1.1,0.4-2.2,0.5-3.3c0.3-2.7-0.3-5.3,0-8c0.1,1,0.2,2,0.4,2.8c0,0.1,0.1,0,0.1,0
			c0-1.7-0.1-3.4,0-5.1c0-0.1,0-0.2,0-0.3c0-0.1,0.1-0.3,0.1-0.4c0,1,0.1,1.9,0.4,2.8c0.1,0.2,0.3,0.3,0.5,0.2
			c0.1-0.1,0.2-0.2,0.4-0.4c0.3-1.6,0.8-3.3,1.3-4.9c0-0.1,0-0.2,0-0.4c0.2-3.3,0.2-6.5,1.1-9.7c0.3-1.2,0.7-2.2,1.1-3.2
			c0,0,0,0.1,0,0.1c-0.5,1.9-1.1,3.8-1,5.8c0,0.1,0.1,0.1,0.1,0c0.5-2.4,1.4-5,1.9-7.6c0.2-0.3,0.4-0.7,0.7-1c0.7-0.9,1-1.7,1-2.9
			c0-2,0.9-4,2-5.8c0.4-0.4,0.8-0.9,1.2-1.4c0,0,0,0,0.1-0.1c1.8-1.8,3.8-3.5,5.6-5.4c2-1.9,4.1-4.2,6.7-5.3
			c1.2-0.5,2.5-0.9,3.1-2.1c1-1.8,1.3-3.9,2.4-5.7c1.2-2,1.4-3.9,2.3-6c0.8-2,1.9-3.8,3.3-5.4c0.8-0.9,1.8-1.6,2.7-2.3
			c0.2,0.1,0.4,0.2,0.5,0.2c0.6,0.2,1.2,0.3,1.8,0.4c0.3,1.7,0.4,3.4-0.1,5.1c-0.3,1.3-1,2.5-1.3,3.8c0,0.2-0.1,0.6-0.1,1.1
			c0.4,0.9,1.2,0.9,2,0.5c0.8-1,1.1-2.5,1.4-3.6c0.5-1.6,0.3-3.8,1.1-5.3c2.2-0.7,3.4,1.7,3.5,3.8c0,1.4-0.2,2.8,0,4.3
			c0.2,1.3,1.2,2.3,2.5,2c1.4-0.3,0.4-4.4,0.4-5.2c0-0.2,0-0.4,0-0.6c0,0,0,0.1,0.1,0.1c0.7,0.7,2,1.8,3,0.8c0.9-0.9,0.9-1.9,0.2-3
			c-0.6-1-1.3-1.8-1.7-2.8c0.1,0,0.3,0,0.4,0c1.9,0,2.7,1.1,3.6,2.6c0.5,0.8,1.9,3.1,3.1,2.5c1.2-0.6,0.9-1.9,0.4-2.9
			c-0.5-0.8-1.1-1.6-1.7-2.4c-0.3-0.4-0.6-0.8-0.9-1.2c1-0.1,2-0.1,3,0.3c1.2,0.5,2.4,1.2,3.7,1.2c0.9,0,2.4-0.5,1.2-1.6
			c-0.9-0.8-1.9-1.1-2.9-1.7c-1-0.5-1.9-1.8-3-2.1c-1.1-0.3-2.8,0-4.1,0.6c-3-1.4-6.6-1.7-9.5-3.3c-2.4-1.4-5.3-1.5-8.1-1.4
			c-2,0.1-3.4,0.9-4,2.9c-1.3,1.9-2.7,3.8-4.1,5.6c-3,3.8-6.5,7.2-9.6,10.9c-1.8,2.1-3.6,3.6-5.8,5.2c-0.1,0.1-0.2,0.2-0.4,0.3
			c-0.5,0.2-1.1,0.5-1.6,1.1c-0.5,0.6-0.1,0.9-1.3,1.1c-0.5,0.1-0.8,0.1-1.1,0.5c-1.8,1.6-2.8,0.1-4.3-0.3c0.9,0,1.8,0.2,2.7,0.5
			c0.1,0,0.1-0.1,0.1-0.2c-1.5-0.8-3.5-1-5.4-0.7c-0.4-0.2-0.8-0.4-1.2-0.6c0.4,0,0.9,0.1,1.3,0.1c0.1,0,0.1-0.1,0-0.1
			c-0.9-0.3-1.9-0.4-2.8-0.5c0.4-0.1,0.7-0.2,1.1-0.2c0.1,0,0.1-0.1,0-0.1c-0.6-0.1-1.2,0-1.8,0.1c-0.1,0-0.1-0.1-0.2-0.1
			c-1-0.6-1.4-2-1.8-3c-0.2-0.6-0.4-1.1-0.6-1.6c0-0.1-0.1-0.1-0.1-0.2c0,0,0,0,0,0c-0.1-0.6-0.2-1.3,0-2c0.3-1.4,1.2-2.5,1.5-3.8
			c0-0.2,0-0.4-0.1-0.7c0-0.3-0.1-0.6-0.1-0.9c0.2-0.8,0.4-1.7,0.8-2.4c0.5-0.8,1.2-1.4,1.7-2.2c0,0,0,0,0-0.1
			c0.2-0.2,0.4-0.5,0.5-0.7c0.4-0.7,0.6-1.4,0.8-2.2c-0.2,1.8-0.8,3.5-2,5.2c0,0,0,0.1,0.1,0.1c2.1-1.7,2.8-4.7,2.4-7.4
			c0-0.1,0-0.2,0.1-0.3c0.1,0.1,0.2,0.3,0.4,0.4c0.1,0.2,0.5,0.2,0.5,0c1-2.5-0.3-4.9,0.2-7.5c0.2-1.1-0.1-2-0.5-2.9
			c0.6,0.8,1.1,1.7,1.5,2.8c0,0.1,0.1,0,0.1,0c0.4-1.8-1.5-3.6-2.7-4.6c-0.1,0-0.1-0.1-0.2-0.1c0-0.1-0.1-0.1-0.1-0.2
			c-1.2-1.4-2.6-2.4-4.1-3.2c0.6-0.5,1.3-1,2.1-1.4c0.3-0.2,0.1-0.6-0.2-0.6c-1.4-0.1-2.8,0-4.2,0c-0.4-0.9-1-1.7-1.7-2.3
			c-0.1,0-0.1,0-0.1,0.1c0.4,0.7,0.7,1.4,1,2c0,0,0,0,0,0c-0.6-0.4-1.2-0.8-1.8-1.1c-1.8-1.8-4.1-3-6.4-3c-0.1,0-0.1,0.1,0,0.1
			c1.6,0.5,2.9,1.1,4.1,1.9c-1.5-0.6-3.2-0.9-4.8-0.7c-2.8,0.3-4.9,2.1-7.4,3.3c-1.9,1-3.7,1.9-4.4,4c-0.8,2.3-1,4.9-1.3,7.4
			c-0.1,0.4,0.5,0.6,0.7,0.2c1-1.7,2-5.3,4.5-5.2c0.1,0,0.2,0,0.3,0c-0.9,1.5-1.1,3.5-1.6,5c-0.9,3.2,1.2,5.6,1.2,8.8
			c0.1,2.4-0.2,5.3,2,6.9c0.7,0.5,1.5,0.8,2.3,1.1c0.1,0.6,0.1,1.3,0.1,1.9c0,0.3,0,0.6,0,0.9c0.3,2.4-0.1,4.8-0.8,7.1
			c-0.4,1.4-0.9,2.3-1.7,2.7c-0.1,0.2-0.1,0.4-0.2,0.6c-0.6-0.2-1.2-0.4-1.7-0.5c0,0-0.1,0.1,0,0.1c0.3,0.2,0.7,0.3,1,0.5
			c-0.8-0.1-1.6,0-2.3,0.2c-0.1,0-0.1,0.1,0,0.1c0.8,0,1.5,0,2.2,0.1c-1,0.4-2.3,0.5-3.3,0.7c-0.9,0.2-1.6,0.8-2.5,1
			c-1.9,0.5-4.4-0.1-6.1,1.2c-0.7,0.5-1.2,1.1-1.7,1.8c-0.8,1-1.6,1.6-2.6,2.2c-1.3,0.8-2,2.3-2.4,3.7c0,0,0,0,0,0
			c-1.2-0.2-2.6,0.1-3.5,0.8c-0.2,0.1-0.3,0.3-0.4,0.4c-1.6,0.8-3.1,1.6-4.7,2.1c-1.5,0.5-3.2,1.1-4.9,1.5c-0.1-0.1-0.3-0.1-0.4-0.2
			c-1.4-0.7-2.6-1.5-3.9-2.3c-1.6-0.9-3.1-1.8-4.6-2.9c-0.8-0.6-1.4-0.8-2.4-1c-1.4-0.3-2.6-3.4-4.5-2.4c-1,0.5-1.6,1.8-2.1,3
			c-1,1.2-1.7,2.6-2.7,3.6c-1.6,1.7-3.2,3.4-4.6,5.2c-2.3,2.9-2.7,6.4-2.6,10c-0.1,0.3-0.2,0.6-0.4,0.9
			C582.9,153.9,582.2,155,582.3,156.1z M666.3,180.6c0,0.2,0.1,0.3,0.1,0.5c0.4,1.5,0.6,2.9,0.7,4.3
			C666.7,183.8,666.3,182.2,666.3,180.6z M667.9,207.2c0,0.2,0,0.3,0,0.5c-0.1-0.4-0.1-0.9-0.2-1.3
			C667.8,206.6,667.8,206.9,667.9,207.2z M670.1,240.4c0,0.4,0,0.8,0,1.2c-0.2-1.9-0.4-3.7-0.6-5.6c0,0,0.1-0.1,0.1-0.1
			c0.1-0.1,0.2-0.2,0.3-0.2C670,237.2,670.1,238.8,670.1,240.4z M620.3,245.6c0,0,0,0.1,0,0.1c0,0,0,0.1,0,0.1
			C620.3,245.7,620.3,245.7,620.3,245.6z M620,241.6c0-0.6,0-1.2-0.1-1.8c0.1,0.4,0.1,0.9,0.2,1.3C620.1,241.2,620,241.4,620,241.6z
			 M620.8,205.5c-0.1,0.2-0.2,0.5-0.3,0.7C620.5,206,620.6,205.7,620.8,205.5z M628.9,143.4c-0.7,0.4-1.3,0.7-2,0.9
			c0.1-0.1,0.1-0.1,0.2-0.2C627.7,143.9,628.3,143.7,628.9,143.4z M633.6,246.3c0-0.3,0-0.7,0.1-1c0,0.2,0,0.4,0,0.5
			C633.6,246,633.6,246.1,633.6,246.3z"/>
		<path class="st0" d="M582.3,156.1c0.2,1.3,0.9,2.3,2.2,1.6c2-1,2.6-4.6,3.5-6.5c0.8-1.5,1.9-2.6,3.1-3.7c-0.4,0.9-0.6,1.8-0.6,2.9
			c0,1-1.2,3.8-0.2,4.6c1.1,1,2.2-1.2,2.4-1.9c0.4-1.4,0.6-3,1.4-4.2c0.9-1.3,2-2.4,3.3-3c0.7,0.6,1.4,1.5,1.9,2.2
			c0.9,1.2,1.3,2.4,1.7,3.9c0.2,0.7,0.3,1.4,0.8,1.9c0.7,0.9,3.5,3.9,4.6,1.8c0.3-0.6-0.5-1.7-0.8-2.1c-1.3-1.7-2.1-3.3-1.9-5.6
			c0.1-1.2,0.1-2.6-0.1-3.9c0,0,0,0,0,0c0.9,0.5,2.7,1.1,3.3,2c0.2,0.3,0.5,0.9,0.7,1.1c2,1.7,4.2,1,6.4,0.3c1.8-0.6,3.8-0.6,5.7-1
			c1.4-0.3,2.8-0.7,4.2-1.2c0.4-0.1,0.8-0.1,1.2-0.2c1.8-0.4,3.4-1.2,4.9-2c-1.2,1.8-2.5,3.7-3.1,5.7c0,0.1,0.1,0.1,0.1,0.1
			c0.7-0.9,1.4-1.9,2-2.9c-0.5,1.5-1,3.1-0.9,4.7c0.1,1.6,0.4,3.2,0.7,4.7c-0.3,0.7-0.4,1.5,0,2.2c0.1,0.3,0.2,0.5,0.4,0.7
			c0.1,1,0.2,1.9,0.3,2.9c-0.2,0.8-0.4,1.6-0.7,2.4c-0.1,0.4-0.3,0.7-0.3,1.1c0.1,0.9,1.1,1.7,0.5,2.7c-0.2,0.4-0.1,0.7,0,1.1
			c0.1,0.5,0.3,1,0.6,1.5c-0.5,1.1-0.8,2.3-1,3.4c0,0.1,0.1,0.1,0.1,0c0.3-0.9,0.6-1.7,1-2.6c0,0.2,0,0.4-0.1,0.5
			c-0.6,4-2,7.9-2.4,12c0,0.4,0.4,0.5,0.6,0.2c0.2-0.4,0.5-0.8,0.8-1.2c-0.1,0.8-0.3,1.5-0.5,2.3c-0.8,1.1-1.6,2.3-1.9,3.5
			c0,0.1,0.1,0.1,0.1,0.1c0.5-0.6,1-1.3,1.4-2c0,0.1-0.1,0.3-0.1,0.4c-0.9,3-2.9,5.4-4.1,8.3c-1.1,2.7-1.6,5.6-2.4,8.4
			c0,0.1-0.1,0.3-0.1,0.4c-0.7,0.8-1.6,1.6-1.5,2.7c0,0.4,0.1,0.7,0.1,1.1c-0.4,1.2-0.8,2.3-1,3.5c-0.2,1.1-0.3,2.3-0.4,3.4
			c-0.1,0.4-0.3,0.8-0.4,1.2c-0.4,0.9-0.8,1.8-1,2.8c-0.3,1.1,0.4,2-0.9,3c-0.3,0.2-0.3,0.7-0.4,1c-0.2,1.3-0.2,1.8-0.6,2.9
			c-0.2,0.5-0.3,1.1-0.4,1.6c0,1,0,1.9,0.1,2.9c-0.1,1.9,0.2,3.8,0.6,5.7c0,0.1,0.1,0.1,0.1,0c0.1-1-0.1-2-0.2-3c0-0.4,0-0.8,0-1.3
			c1,0.3,1.5,1.3,2.5,1.4c-0.2,0.5-0.3,1.1-0.5,1.6c0,0.1,0.1,0.1,0.1,0.1c0.4-0.3,0.7-0.9,1-1.5c-0.1,1.5-0.1,3.1,0.1,4.4
			c0,0.1,0.2,0.1,0.2,0c0.2-1,0.3-1.9,0.4-2.9c0,0.8,0.1,1.6,0.2,2.4c0,0.2,0.1,0.4,0.1,0.6c-0.2,3.1-0.1,6.3,0.2,9.4
			c0,0,0,0.1-0.1,0.1c-0.6,0.6-1,1-1.2,1.7c-0.2,0.6,0.3,1.3-0.2,2c-1,1.4-0.9,3.2-0.5,4.7c0.3,1.2,0.4,2.1-0.2,3.3
			c-0.1,0.2-0.2,0.4-0.2,0.6c0,0.6,0.1,0.9,0.6,1.3c1.1,1,0.2,2.2,1,3.2c0.8,1.1,1,2.1,1.1,3.5c0.3,2.9,0.7,5.7,1.3,8.4
			c0.2,2.2,0.7,4.5,0.9,6.6c0.2,1.6,0.3,3.3,1.3,4.7c0.8,1.3-0.4,2.3,0.2,3.5c1.7,3.4,2,7.6,2.4,11.5c0.2,0.8,0.4,1.6,0.5,2.5
			c1.1,2.6,0,4.8-1.5,6.8c0.2,1.1-0.5,2.2-1.3,3.2c-0.1,0.4-0.3,0.8-0.6,1.2c-1.4,2.2-3.1,4.3-5,6.2c-1,0.9-2,1.4-3.1,2.1
			c-0.3,0.2-0.6,0.3-0.8,0.6c-0.7,1.1-1.5,1.3-2.4,2.1c-0.5,0.4-0.9,1.3-1.2,1.9c-0.5,1-0.9,1.8-0.2,2.8c0.4,0.6,1,0.8,1.7,0.8
			c0.6,0.5,1.4,0.9,2.1,0.9c2.3,0,3.3-1.7,4.7-3.1c0.3-0.1,0.6-0.1,1-0.1c1.2-0.1,2.3-0.2,3.4-0.8c1-0.5,1.6-1.6,2.3-2.5
			c0.6-0.8,1.3-1.5,2.1-2.1c0.8,0.2,1.7,0.3,2.5,0.2c1.6-0.2,3.2-0.8,4.1-2.2c2-2.8,1.6-5.6,0.8-8.4c0-0.8-0.1-1.6-0.1-2.4
			c-0.5-1.3-1-2.6-1.1-4.1c-0.1-1.6,0.4-3.5,0.7-5c0.5-2.6,0.1-5-0.2-7.6c-0.6-4.8,0.6-9.5,1.3-14.3c0-1.5,0-3-0.2-4.4
			c-0.4-2.8-1.1-5.8-2.8-8.2c0-1,0-2,0.3-3c0.2-0.8,0.6-1.7,0.7-2.5c0.1-0.6,0.2-1.4-0.1-2c-0.1-0.3-0.5-0.9-0.3-1.3
			c0.5-1-0.5-1.9,0-3c0.8-1.4,0.2-3.3,0.1-4.8c0,0,0-0.1,0-0.1c0.3-2.1,0.5-4.2,0.8-6.2c0.1-1.1-0.6-3.1,0.2-4.1
			c0.2-0.2,0.4-0.8,0.5-1.1c0.1-0.7,0.1-1.4,0.1-2.1c0.1-0.3,0.2-0.6,0.3-0.9c0.1,0,0.1,0,0.2,0c0.2,1.6,0.2,3.2,0.3,4.8
			c0,0.1,0.1,0.1,0.1,0c0.4-1.6,0.5-3.3,0.3-5c0.9-0.2,1.9-0.4,2.6,0.1c0,0,0,0,0,0c0.2,0.7,0.4,1.4,0.7,2c0,0,0.1,0,0.1,0
			c0-0.4,0-0.9-0.2-1.4c0,0,0,0,0,0c0.1,0.2,0.1,0.3,0.2,0.5c0.3,0.7,0.4,1.4,0.8,2c0.1,0.1,0.2,0,0.2-0.1c0-0.6-0.2-1.2-0.4-1.9
			c0.2,0.1,0.5,0.1,0.8,0c1.5-0.4,2.5,0.5,3.3,1.5c0.5,0.4,0.9,0.8,1.3,1.2c0,0,0.1,0,0.1,0c0.1,0.9,0.2,1.8,0.4,2.7
			c0,0.1,0.1,0.1,0.1,0c0.1-1.2,0.2-2.5,0.2-3.8c0.4-2.1,0.9-4.6,3.6-3.3c0.1,0.1,0.3,0,0.4-0.1c0.5-1,1.2-1.5,1.9-1.6
			c0,1.9-0.1,3.7,0.5,5.4c0,0.1,0.1,0.1,0.1,0c-0.1-1.3,0-2.7,0-4.1c0.4,2.6,0.7,5.1,1.4,7.6c0,0.1,0.1,0.1,0.1,0
			c-0.1-1.2-0.2-2.5-0.4-3.9c0.3,1.1,0.5,2.2,0.7,3.3c0.5,2.9,1,5.7,1.3,8.6c0.3,2.2,1.2,4.1,1.7,6.2c0.5,2.2,0.5,4.5,1.5,6.6
			c0.6,1.3,1.7,2.4,2.7,3.4c1.5,2.5,2.7,5.3,4,7.8c0.8,1.6,1.6,4,3.1,5.2c1.1,0.9,0.5,2.2,1.4,3.1c0.8,0.7,1.5,1.4,2.1,2.3
			c0.7,1,1.5,2.1,2.1,3.2c1,1.9,2.2,3.8,3.3,5.7c2,3.7,2.6,7.7,3.5,11.7c0,1.4-0.2,2.8-0.9,4.1c-1.1,2.1-0.8,3.5-1.3,5.8
			c-0.3,1.4-1,6.2-2.6,6.6c-1.6,0.4-2.1,1.8-3.6,2.4c-1.9,0.7-0.6,2.8,0.7,3.3c1.3,0.4,2.5-0.1,3.3-1.1c0.4,0.2,0.8,0.3,1.2,0.3
			c0.7-0.1,1.2-0.5,1.6-1.1c0.2,0.1,0.5,0.1,0.8,0.1c0.7-0.1,1.6-0.5,2-1.2c0.4,0.1,0.7,0.2,1.2,0.2c0.5,0,0.8,0,1.3-0.1
			c1-0.4,1.6-1.4,2.6-1.8c0.7-0.3,1.4-0.6,2.1-1.1c1.4-1,2.2-3.2,2.6-4.7c0.3-1.1,0.5-2.5,1.1-3.5c0.6-1.1,1.6-1.7,2.3-2.7
			c0.8-1.2,1.3-2.7,0.7-4.2c-0.8-1.7-2.3-1.8-3.4-3.1c-0.8-0.9-1.5-1.1-2.5-1.7c-1.1-0.7-1.1-1.9-2-2.6c-0.4-0.3-0.8-0.5-1.2-0.7
			c-0.2-0.5-0.3-1-0.5-1.4c-0.7-2.5-1.2-4.9-2.3-7.3c-1-2.2-0.8-4.5-1.5-6.8c-0.4-1.3-0.8-2.5-1.2-3.7c-0.4-1.2-0.5-2.5-0.9-3.6
			c-0.5-1.3-1.1-2.2-1-3.6c0-0.4-0.1-0.8-0.3-1.2c-1.1-1.4-1.1-3.6-2.2-5.2c-0.8-1.2-1.9-2.5-3-3.7c-0.2-0.7-0.4-1.3-0.6-2
			c-0.5-1.5-1.2-3-1.5-4.6c-0.4-1.8-0.3-3.6-0.7-5.4c-0.3-1.5-0.9-2.9-1.1-4.4c-0.1-0.9-0.2-1.9-0.3-2.8c0.1-1.2,0.1-2.3,0.1-3.5
			c0-1.7,0-3.4-0.2-5.1c1-0.7,2-1.2,2.7-2.2c0,0.6,0,1.3,0.1,1.9c0,0.1,0.1,0.1,0.1,0c0.2-0.5,0.2-1,0.2-1.6
			c0.3,0.9,0.5,1.8,0.8,2.8c0,0.1,0.1,0,0.1,0c0-2-0.5-4.2-1.2-6.3c-0.1-0.7-0.3-1.4-0.5-2.1c-0.5-1.7-1-3.4-1.3-5.1
			c0.2,0.4,0.4,0.9,0.6,1.3c0,0.1,0.1,0,0.1,0c-0.9-3.6-2-7.4-3.3-11c-0.2-1.1-0.4-2.2-0.6-3.3c0.3-0.8,0.3-1.8,0.2-2.5
			c-0.1-0.7-0.5-1.3-0.9-1.9c-0.2-1.9-0.5-3.8-0.7-5.8c-0.1-0.9-0.1-1.7-0.2-2.5c0.6,3.3,1.8,6.6,2.6,9.5c0,0.1,0.1,0,0.1,0
			c-0.6-4.8-2.4-9.2-2.8-13.9c0-0.2,0-0.5,0-0.7c0,0,0,0,0,0c0.3,0.7,0.5,1.4,0.8,2.2c0,0,0,0,0.1,0.1c0,0,0,0,0,0.1
			c0,0.1,0.2,0.1,0.2,0c0-0.2,0.1-0.3,0.1-0.5c0.1-0.4,0.2-0.8,0.3-1.2c0.2-1.5,0.1-3-0.3-4.5c0.2-1.9,0-3.8-0.5-5.6
			c-0.4-1.4-0.6-2.8-0.7-4.2c0.2-1.1,0.4-2.2,0.5-3.3c0.3-2.7-0.3-5.3,0-8c0.1,1,0.2,2,0.4,2.8c0,0.1,0.1,0,0.1,0
			c0-1.7-0.1-3.4,0-5.1c0-0.1,0-0.2,0-0.3c0-0.1,0.1-0.3,0.1-0.4c0,1,0.1,1.9,0.4,2.8c0.1,0.2,0.3,0.3,0.5,0.2
			c0.1-0.1,0.2-0.2,0.4-0.4c0.3-1.6,0.8-3.3,1.3-4.9c0-0.1,0-0.2,0-0.4c0.2-3.3,0.2-6.5,1.1-9.7c0.3-1.2,0.7-2.2,1.1-3.2
			c0,0,0,0.1,0,0.1c-0.5,1.9-1.1,3.8-1,5.8c0,0.1,0.1,0.1,0.1,0c0.5-2.4,1.4-5,1.9-7.6c0.2-0.3,0.4-0.7,0.7-1c0.7-0.9,1-1.7,1-2.9
			c0-2,0.9-4,2-5.8c0.4-0.4,0.8-0.9,1.2-1.4c0,0,0,0,0.1-0.1c1.8-1.8,3.8-3.5,5.6-5.4c2-1.9,4.1-4.2,6.7-5.3
			c1.2-0.5,2.5-0.9,3.1-2.1c1-1.8,1.3-3.9,2.4-5.7c1.2-2,1.4-3.9,2.3-6c0.8-2,1.9-3.8,3.3-5.4c0.8-0.9,1.8-1.6,2.7-2.3
			c0.2,0.1,0.4,0.2,0.5,0.2c0.6,0.2,1.2,0.3,1.8,0.4c0.3,1.7,0.4,3.4-0.1,5.1c-0.3,1.3-1,2.5-1.3,3.8c0,0.2-0.1,0.6-0.1,1.1
			c0.4,0.9,1.2,0.9,2,0.5c0.8-1,1.1-2.5,1.4-3.6c0.5-1.6,0.3-3.8,1.1-5.3c2.2-0.7,3.4,1.7,3.5,3.8c0,1.4-0.2,2.8,0,4.3
			c0.2,1.3,1.2,2.3,2.5,2c1.4-0.3,0.4-4.4,0.4-5.2c0-0.2,0-0.4,0-0.6c0,0,0,0.1,0.1,0.1c0.7,0.7,2,1.8,3,0.8c0.9-0.9,0.9-1.9,0.2-3
			c-0.6-1-1.3-1.8-1.7-2.8c0.1,0,0.3,0,0.4,0c1.9,0,2.7,1.1,3.6,2.6c0.5,0.8,1.9,3.1,3.1,2.5c1.2-0.6,0.9-1.9,0.4-2.9
			c-0.5-0.8-1.1-1.6-1.7-2.4c-0.3-0.4-0.6-0.8-0.9-1.2c1-0.1,2-0.1,3,0.3c1.2,0.5,2.4,1.2,3.7,1.2c0.9,0,2.4-0.5,1.2-1.6
			c-0.9-0.8-1.9-1.1-2.9-1.7c-1-0.5-1.9-1.8-3-2.1c-1.1-0.3-2.8,0-4.1,0.6c-3-1.4-6.6-1.7-9.5-3.3c-2.4-1.4-5.3-1.5-8.1-1.4
			c-2,0.1-3.4,0.9-4,2.9c-1.3,1.9-2.7,3.8-4.1,5.6c-3,3.8-6.5,7.2-9.6,10.9c-1.8,2.1-3.6,3.6-5.8,5.2c-0.1,0.1-0.2,0.2-0.4,0.3
			c-0.5,0.2-1.1,0.5-1.6,1.1c-0.5,0.6-0.1,0.9-1.3,1.1c-0.5,0.1-0.8,0.1-1.1,0.5c-1.8,1.6-2.8,0.1-4.3-0.3c0.9,0,1.8,0.2,2.7,0.5
			c0.1,0,0.1-0.1,0.1-0.2c-1.5-0.8-3.5-1-5.4-0.7c-0.4-0.2-0.8-0.4-1.2-0.6c0.4,0,0.9,0.1,1.3,0.1c0.1,0,0.1-0.1,0-0.1
			c-0.9-0.3-1.9-0.4-2.8-0.5c0.4-0.1,0.7-0.2,1.1-0.2c0.1,0,0.1-0.1,0-0.1c-0.6-0.1-1.2,0-1.8,0.1c-0.1,0-0.1-0.1-0.2-0.1
			c-1-0.6-1.4-2-1.8-3c-0.2-0.6-0.4-1.1-0.6-1.6c0-0.1-0.1-0.1-0.1-0.2c0,0,0,0,0,0c-0.1-0.6-0.2-1.3,0-2c0.3-1.4,1.2-2.5,1.5-3.8
			c0-0.2,0-0.4-0.1-0.7c0-0.3-0.1-0.6-0.1-0.9c0.2-0.8,0.4-1.7,0.8-2.4c0.5-0.8,1.2-1.4,1.7-2.2c0,0,0,0,0-0.1
			c0.2-0.2,0.4-0.5,0.5-0.7c0.4-0.7,0.6-1.4,0.8-2.2c-0.2,1.8-0.8,3.5-2,5.2c0,0,0,0.1,0.1,0.1c2.1-1.7,2.8-4.7,2.4-7.4
			c0-0.1,0-0.2,0.1-0.3c0.1,0.1,0.2,0.3,0.4,0.4c0.1,0.2,0.5,0.2,0.5,0c1-2.5-0.3-4.9,0.2-7.5c0.2-1.1-0.1-2-0.5-2.9
			c0.6,0.8,1.1,1.7,1.5,2.8c0,0.1,0.1,0,0.1,0c0.4-1.8-1.5-3.6-2.7-4.6c-0.1,0-0.1-0.1-0.2-0.1c0-0.1-0.1-0.1-0.1-0.2
			c-1.2-1.4-2.6-2.4-4.1-3.2c0.6-0.5,1.3-1,2.1-1.4c0.3-0.2,0.1-0.6-0.2-0.6c-1.4-0.1-2.8,0-4.2,0c-0.4-0.9-1-1.7-1.7-2.3
			c-0.1,0-0.1,0-0.1,0.1c0.4,0.7,0.7,1.4,1,2c0,0,0,0,0,0c-0.6-0.4-1.2-0.8-1.8-1.1c-1.8-1.8-4.1-3-6.4-3c-0.1,0-0.1,0.1,0,0.1
			c1.6,0.5,2.9,1.1,4.1,1.9c-1.5-0.6-3.2-0.9-4.8-0.7c-2.8,0.3-4.9,2.1-7.4,3.3c-1.9,1-3.7,1.9-4.4,4c-0.8,2.3-1,4.9-1.3,7.4
			c-0.1,0.4,0.5,0.6,0.7,0.2c1-1.7,2-5.3,4.5-5.2c0.1,0,0.2,0,0.3,0c-0.9,1.5-1.1,3.5-1.6,5c-0.9,3.2,1.2,5.6,1.2,8.8
			c0.1,2.4-0.2,5.3,2,6.9c0.7,0.5,1.5,0.8,2.3,1.1c0.1,0.6,0.1,1.3,0.1,1.9c0,0.3,0,0.6,0,0.9c0.3,2.4-0.1,4.8-0.8,7.1
			c-0.4,1.4-0.9,2.3-1.7,2.7c-0.1,0.2-0.1,0.4-0.2,0.6c-0.6-0.2-1.2-0.4-1.7-0.5c0,0-0.1,0.1,0,0.1c0.3,0.2,0.7,0.3,1,0.5
			c-0.8-0.1-1.6,0-2.3,0.2c-0.1,0-0.1,0.1,0,0.1c0.8,0,1.5,0,2.2,0.1c-1,0.4-2.3,0.5-3.3,0.7c-0.9,0.2-1.6,0.8-2.5,1
			c-1.9,0.5-4.4-0.1-6.1,1.2c-0.7,0.5-1.2,1.1-1.7,1.8c-0.8,1-1.6,1.6-2.6,2.2c-1.3,0.8-2,2.3-2.4,3.7c0,0,0,0,0,0
			c-1.2-0.2-2.6,0.1-3.5,0.8c-0.2,0.1-0.3,0.3-0.4,0.4c-1.6,0.8-3.1,1.6-4.7,2.1c-1.5,0.5-3.2,1.1-4.9,1.5c-0.1-0.1-0.3-0.1-0.4-0.2
			c-1.4-0.7-2.6-1.5-3.9-2.3c-1.6-0.9-3.1-1.8-4.6-2.9c-0.8-0.6-1.4-0.8-2.4-1c-1.4-0.3-2.6-3.4-4.5-2.4c-1,0.5-1.6,1.8-2.1,3
			c-1,1.2-1.7,2.6-2.7,3.6c-1.6,1.7-3.2,3.4-4.6,5.2c-2.3,2.9-2.7,6.4-2.6,10c-0.1,0.3-0.2,0.6-0.4,0.9
			C582.9,153.9,582.2,155,582.3,156.1z M666.3,180.6c0,0.2,0.1,0.3,0.1,0.5c0.4,1.5,0.6,2.9,0.7,4.3
			C666.7,183.8,666.3,182.2,666.3,180.6z M667.9,207.2c0,0.2,0,0.3,0,0.5c-0.1-0.4-0.1-0.9-0.2-1.3
			C667.8,206.6,667.8,206.9,667.9,207.2z M670.1,240.4c0,0.4,0,0.8,0,1.2c-0.2-1.9-0.4-3.7-0.6-5.6c0,0,0.1-0.1,0.1-0.1
			c0.1-0.1,0.2-0.2,0.3-0.2C670,237.2,670.1,238.8,670.1,240.4z M620.3,245.6c0,0,0,0.1,0,0.1c0,0,0,0.1,0,0.1
			C620.3,245.7,620.3,245.7,620.3,245.6z M620,241.6c0-0.6,0-1.2-0.1-1.8c0.1,0.4,0.1,0.9,0.2,1.3C620.1,241.2,620,241.4,620,241.6z
			 M620.8,205.5c-0.1,0.2-0.2,0.5-0.3,0.7C620.5,206,620.6,205.7,620.8,205.5z M628.9,143.4c-0.7,0.4-1.3,0.7-2,0.9
			c0.1-0.1,0.1-0.1,0.2-0.2C627.7,143.9,628.3,143.7,628.9,143.4z M633.6,246.3c0-0.3,0-0.7,0.1-1c0,0.2,0,0.4,0,0.5
			C633.6,246,633.6,246.1,633.6,246.3z"/>
	</g>
</g>
<g id="Слой_11">
	<g>
		<path class="st0" d="M93.9,259.1c-0.1-0.3-0.3-0.5-0.4-0.8c-0.4,0.5,0.1,1.4,0.7,1.4c-0.1-0.2-0.1-0.4-0.2-0.5
			C93.9,259.2,93.9,259.1,93.9,259.1z"/>
		<g>
			<path class="st0" d="M117,228.5c0,0.2-0.1,0.4-0.1,0.6C116.9,228.9,117,228.7,117,228.5z"/>
			<path class="st0" d="M93.9,259.1c0,0,0,0.1,0.1,0.1c0.1,0.2,0.2,0.4,0.4,0.5c-0.1,0-0.1,0-0.2,0c1.4,4.2-1.4,9.8,1,13.8
				c1.1,0,2.1,0.1,3.2,0.1c-0.3,0.9-0.5,1.8-0.5,2.5c0,0.7,0.3,1.3,0.4,2c0.2,1.6-0.8,3.5,0.1,4.9c-0.6,0.1-1.3,0.2-1.9,0.4
				c-0.3,0.7,0.1,1.5,0.7,2.1c0.6,0.5,1.3,1,1.5,1.7c0.1,0.4,0.1,0.7,0.1,1.1c0,2.8,0.4,5.7,1.3,8.4c0.5,0,1,0,1.4,0.1
				c-0.2,0.7,0.2,1.5,0.8,2c0.6,0.5,1.3,0.8,1.8,1.3c0.8,0.7,1.3,1.6,1.7,2.5c0.5,0,1.1-0.3,1.3-0.8c0.6,0.4,1.3,0.8,2,0.5
				c0.3-0.2,0.5-0.5,0.7-0.7c0.3-0.2,0.7-0.4,0.9-0.1c-0.6-1.7-1.8-3.1-3.4-4c1.6,0.1,3.3,0.2,4.9,0.3c-0.3-0.9,0.5-2-0.1-2.7
				c-0.4-0.5-1.2-0.4-1.8-0.3c-0.6,0.1-1.4-0.1-1.6-0.7c-0.4,0.2-0.8,0.3-1.1,0.5c-0.8-0.5-1.6-1-2-1.9s0.1-2.1,1.1-2.1
				c0.4,0,0.7,0.2,1.1,0.3c0.6,0.2,1.3,0.2,1.8-0.2c0.5-0.4,0.8-1.1,0.5-1.6c-0.4-0.7-1.5-0.7-2.3-0.7c-0.7,0-1.5,0-2.2-0.1
				c-0.1,0-0.3,0-0.4-0.1c-0.1-0.1-0.1-0.3-0.1-0.5c0-0.9,0.1-1.9,0.2-2.8c0.2-1.1,0.6-2.1,1.5-2.8c0.9-0.7,2.3-0.7,2.9,0.2
				c0.6,1.3,1,2.8,1,4.2c0,0.5,0,0.9,0.1,1.4c0.5,1,1.9,1.1,2.9,0.7c0-3.2,0-6.7-1.7-9.4c-0.2-0.3-0.4-0.6-0.6-0.9
				c-0.1-0.3-0.2-0.5-0.3-0.8c-0.6-1.5-2-2.5-3.5-3.2c0-0.1,0-0.2,0-0.2c1.2,0,2.5,0.1,3.7,0.1c0.3-4.6,0.1-9.3-0.5-13.9
				c-0.4-2.6-0.9-5.3-0.6-7.9c0.3-3,1.7-5.8,3.1-8.5c1-1.9,2.1-4,4.2-4.6c-2.1-2.4-3.6-5.3-4.4-8.4c0.6,0.8,1.1,1.6,1.7,2.3
				c0.3-2.2,0.7-4.4,1-6.5c0.6,0.3,1,1.1,1,1.8c1.4-6.5,2.1-13.1,2.1-19.8c0-3.9,0.1-8.4,3.3-10.5c0,0,0,0,0,0c0,0,0.1,0.1,0.1,0.1
				c1.9,1.2,2.4,3.8,3.5,5.7c3.5,5.8,12.8,5.6,16.5,11.2c-5.3-1.2-10.6-2.3-15.9-3.5c-0.9,1.4,0.9,2.9,2.4,3.6c2.3,1,4.6,2.1,7,3.1
				c2,0.9,4.3,2.3,4,4.4c-4-0.5-7.9-1.2-11.7-2.2c-0.3,0.6-0.6,1.3-0.9,1.9c2.1,3.5,8.5,2.5,10.1,6.3c-4.4,0.6-9,0.2-13.2-1.2
				c1.6,2.2,2.7,4.8,3.2,7.5c0.3,1.8,0.4,3.6,0.6,5.5c0.3,3.2,1,6.4,1.9,9.5c-0.2,0-0.5,0-0.8-0.1c-0.1,0.5-0.7,1.2-0.8,1.7
				c-1.2-0.4-3.4-1-4.3,0.3c-0.4,0.5-0.4,1.2-0.9,1.7c-1,0.9-2.6,0-3.9,0.3c-1.6,0.4-2.1,2.3-2.3,4c-0.5,5.7,0.1,11.5,1.7,17
				c0.3,0.9,0.6,1.8,0.5,2.7c-0.2,1.4-1.3,2.5-1.8,3.9c-0.4,1-0.4,2.2-0.4,3.3c0,0.8,0,1.7,0,2.5c-1,2.9-1.4,6-0.8,9
				c0.4,2.1,1.1,4.1,1.3,6.2c0.2,2.9-0.7,5.7-1,8.6c-0.4,3.9,0.4,7.9,1.2,11.8c-0.7-0.2-1.6-0.2-1.8,0.6c-0.2,0.7,0.4,1.7-0.3,1.9
				c-0.2,0-0.3,0-0.5,0c-0.7,0-1.2,0.6-1.3,1.3c-0.1,0.7,0.1,1.3,0.2,2c0.7,3.2,0.5,6.6-0.6,9.6c-0.3,0.7-0.6,1.5-1.3,1.9
				c-0.4,0.2-0.9,0.3-1.3,0.6c-0.9,0.8-0.2,2.2-0.1,3.4c0.1,1.4-0.9,2.7-1.4,4c-0.3,0.9-0.5,1.9-0.5,2.9v0c-0.4,0.8-0.6,1.7-0.8,2.5
				c-0.6,2.5-1.2,4.9-1.4,7.5c-0.2,2.6-0.1,5.3,0.1,8c0.1,1.7,0.2,3.4,0.3,5.1h17.3c-0.1-1.1,0-2.2,0.3-3.3c0.2-0.6,0.5-1.3,1.1-1.6
				c0.4-0.2,0.8-0.2,1.2-0.2c1.8,0,3.7,0.1,5.5,0.1c0-3-0.6-6-1.7-8.7c0.8-0.3,1.5-0.5,2.3-0.8c0-2.2,0-4.4,0.1-6.5
				c0.5-0.2,1-0.5,1.6-0.7c0.6-0.3-0.1-2.5-1.2-5.1c0.7,0.2,1.5,0.3,2.3,0.4c-0.2-1.6,0.3-3.2,1.2-4.4c0.6-2.3,0.9-4.8,0.9-7.2
				c0-1.9-0.1-4.1,1.3-5.3c0.7-0.6,1.7-0.9,2.3-1.6c0.7-0.8,0.6-2,0.9-3.1c0.4-1.6,1.5-3,3-3.7c-0.5-1.2-1.1-2.4-1-3.7
				c0.1-1.3,1.2-2.6,2.5-2.5c-0.3-0.8-0.6-1.8-0.3-2.6c0.3-0.8,1.5-1.4,2.1-0.7c0.4-4.6,1-9.1,1.6-13.6c0.1-0.8,0.3-1.6,0.8-2.2
				c0.7-0.7,1.8-0.7,2.5-1.4c1.2-1.2,0.2-3.3,0.4-5c0.2-1.4,1.3-2.7,2.8-3c0.7-0.1,0.7-5.2,0.5-6.2c0.9-0.8,1.8-1.6,2.5-2.6
				c1,1.1,2.4,2,2.6,3.4c0.1,0.8-0.1,1.6,0.2,2.3c0.4,0.8,1.4,1.2,1.7,2.1c0.4,0.8,0,1.8,0,2.7c0,0.7,0.3,1.4,0.6,2.1
				c1,2.5,2.1,5,3.1,7.5c1.1-0.9,1.5-2.6,2.6-3.5c1.1-1,2.8-1.1,4.2-0.7c1.4,0.4,2.7,1.4,3.8,2.3c-0.8,0.7-2.3-0.2-3,0.5
				c-0.4,0.5-0.3,1.2,0.1,1.8c0.3,0.5,0.8,1,1,1.6c-1.7-0.4-3.2-1.1-4.6-2.2c1.2,1.9,2.1,3.9,2.9,6c-1.4,0-2.8,0-4.2,0.1
				c-0.3,2.6,1.7,4.8,2.7,7.2c0.9,2.1,1,4.4,1.7,6.5c0.1,0.2,0.1,0.4,0.2,0.6c0,0.3-0.1,0.7-0.1,1c-0.2,4.4,0.3,8.9,2.6,12.7
				c0.8,1.3,1.7,2.4,2.2,3.8c0.5,1.3,0.5,2.7,0.5,4.1c0.1,3.1,0.1,6.2,0.2,9.2c0.2-2.1,0.7-4.1,1.5-6c1.4,3.2,0.5,7,0.5,10.5
				c0,4.8,1.7,9.4,2.3,14.2c0.2,1.8,0.3,3.6,0.4,5.4H210c0.1-2,0.1-3.9,0.2-5.9c0-1.3,0.1-2.6-0.2-3.9c-0.3-1.4-1-2.6-1.4-3.9
				c-0.6-1.9-0.8-4-0.9-6c-0.3-3.5-0.5-7-0.8-10.5c-0.1-0.8-0.1-1.6,0.5-2.1c0.3-0.2,0.7-0.3,0.9-0.7c0.3-0.4,0-0.9-0.2-1.4
				c-2.3-4.2-5.1-8.3-6-13.1c1.1,0.5,2.1,0.9,3.2,1.4c-0.9-2.2-1.7-5-0.1-6.9c0.3-0.3,0.6-0.6,0.7-1c0.2-0.4,0.1-0.9,0-1.3
				c-0.3-1.6-0.6-3.1-0.9-4.7c0.4,1.2-1,2.2-2.2,2.7c-2.5,1.1-5.1,2.2-7.8,2.4c-1.9,0.1-3.6-0.2-5-1.1c1-0.9,1.7-2.2,1.6-3.5
				c1.4,1,2.9,1.9,4.3,2.7c0.1-1.1,0.2-2.2,0.3-3.3c0-0.4,0.1-0.7,0.3-1.1c0.4-0.6,1.2-0.8,2-0.7c0.7,0.1,1.4,0.4,2.1,0.4
				c1.8,0,3.2-1.7,3.5-3.4c0.3-1.7-0.3-3.5-0.8-5.2c-1.5-4.7-3-9.5-4.5-14.2c-0.2-0.7-0.4-1.4-0.7-2.1c-1-3.2-2.1-6.5-3.1-9.7
				c0.7-0.5,1.3-1.1,1.7-1.8c0.8-1.6,0-3.5-0.7-5.2c-0.7-0.7-1.1-2.4-1.6-3.3c-0.9,0.6-1.5,0.7-1.9,0.3c0.5-2.9-0.2-6-0.2-9
				c0.1-3.6,2.4-7.9,6-7.4c2.1,0.3,3.4,2,4.3,4c-0.2,0.2-0.4,0.3-0.6,0.5c-0.9,0.5-2.5,0.4-3.1,1.3c-0.2,0.3-0.3,0.6-0.3,0.9
				c-0.3,2.1,0.5,4.2,1,6.2c0.8,2.9,1.3,5.8,1.5,8.8c0.1,1.1,0.1,2.2-0.3,3.2c-0.4,1-1.2,1.9-2.3,2.1c0.5,0.4,1.1,0.7,1.6,1.1
				c-0.3-0.3-0.8-0.1-1.1,0.2c-0.2,0.3-0.3,0.8-0.3,1.2c0,1.3-0.1,2.6-0.1,3.9c0,0,0,0.1,0,0.1c-0.3,0.6-0.6,1.3-0.5,2
				c0.1,0.7,0.6,1.4,1.3,1.4c0.6,0,1-0.4,1.5-0.8c1.8-1.5,4-2.4,6.3-2.6c0.3,1.3-1.4,2.2-2.6,2.7c-1.5,0.7-2.8,1.7-3.7,3
				c1.1,0.8,2.7,0.9,4.1,0.5c1.4-0.4,2.6-1.2,3.8-2c-1,2.3-1.8,4.6-2.6,6.9c0.3,0.7,1.4,0.5,1.9-0.1c0.5-0.6,0.6-1.4,1-2
				c0.5-0.7,1.2-1.1,1.8-1.7c1-1,1.4-2.6,1.6-4c0.4-1.9,0.8-3.7,1.1-5.6c0.2-1,0.4-1.9,0.1-2.9c-0.2-0.6-0.5-1.1-0.8-1.6
				c-0.5-2.1-1.1-4.1-1.6-6.2c-0.1-0.8-0.3-1.5-0.6-2.2c-0.1-0.4-0.2-0.8-0.3-1.2c-0.3-1.3-0.6-2.7,0-3.8c0.3-0.5,0.7-0.9,0.9-1.4
				c0.4-1.1-0.5-2.2-0.8-3.3c-0.5-2.1,1-4.2,1-6.4c0.1-3.6-3.7-6.3-3.6-9.9c0-1.4,0.6-2.7,1.1-4c0.9-2.9,0.9-6.1,0.8-9.2
				c0-1.1-0.1-2.3-0.9-3c-0.7-0.6-1.7-0.7-2.6-1.1c-2.4-1.1-2.3-4.5-0.5-6.1c-1.5-1.1-1.6-3.7-2.9-5.3c-0.8-1-2.1-2.2-3.3-2.9
				c0-0.7,0.1-1.5,0.2-2.2c1.4-0.3,2.7-0.6,4.1-0.9c-2.5-3.2-3.4-7.6-2.4-11.6c-0.3,1.8-3.4,1.5-4.1-0.2c-0.7-1.7,0.2-3.6,1-5.2
				c0.5,0.2,1.1,0.5,1.6,0.7c0-1.5-0.1-2.9-0.1-4.4c0.8,0.4,1.6,0.8,2.4,1.2c-3.8-6.1-1.5-14.1-3.2-21.1c-0.1,0.5-0.2,1.1-0.3,1.6
				c-1.1,1-3.1,0.1-3.6-1.3c-0.5-1.4-0.1-3,0.3-4.5c0.6,0,1.3,0.1,1.9,0.1c-1.6-0.9-0.4-3.2,0-4.9c0.5-2.2-0.6-4.6-2.6-5.6
				c0.3,1.2-1,2.5-2.2,2.2c-1.3-0.3-1.9-1.9-1.5-3.2c0.4-1.3,1.4-2.2,2.3-3.1c-1.2-3.7-4.2-6.8-7.8-8c-1.6-0.5-3.7-1.6-3-3.1
				c-2,0.9-3.2,0.1-4.4-0.9c1.6-0.9,3-2.3,4-3.8c2.7-4,3.7-9,3.2-13.7c-0.5-4.8-2.3-9.3-4.9-13.4c-2.8-4.6-5.9-5-10.9-5.2
				c-2.8-0.1-8.8-1.6-10.7,0.9c-1,1.2-0.6,3-1,4.5c-0.6,2.2-3,3.7-3.6,5.9c-0.2,0.9-0.2,2-0.9,2.6c-0.5,0.4-1.2,0.5-1.7,0.9
				c-2.1,1.6,1.2,5.3-0.2,7.5c-0.2,0.4-0.6,0.7-0.9,1.2c0,0,0,0.1-0.1,0.1c-3.7,0.8-7.4,2.2-10.3,2.9c-0.6,0.1-1.4,0.3-1.7,0.9
				c-0.9,1.3,1.1,3.1,0.4,4.6c-0.3,0.5-0.9,0.8-1.4,1.1c-1.7,0.8-3.4,1.6-5.1,2.4c-2.1,0.2-4,1.1-6,2c-6.2,2.8-12.3,5.6-18.5,8.5
				c0.6,0.1,0.9,0.7,0.8,1.3c-0.5,0.4-1.2,0.6-1.9,0.6c-0.1,3.2-0.1,6.5-1.2,9.5c-0.9,2.6-2.6,5-4.8,6.7c1.2,0.7,2.7,0.9,4.1,0.4
				c0.1,2-0.7,4.1-2.3,5.4c1.1-0.1,2.2-0.2,3.3-0.3c-0.5,1.9-1.6,3.7-3.1,5c0.6,0.1,1.3,0.2,1.9,0.3c-1.2,1.8-1.9,3.9-2.5,5.9
				c-1.1,3.5-2.2,7-2.9,10.7c-0.6,3.2-1,6.4-1,9.6c0,4.3,0.8,8.6,0.2,12.8c-0.6,4.1-2.3,8-3.3,12.1c-1.5,6.3-0.8,13.1,1.7,19.1
				c0.3,0.7,0.7,1.5,0.7,2.2c0.2,2-1.4,3.6-2.6,5.2C94,255.7,93.2,257.6,93.9,259.1z M204.9,279.6c0.4,0.7,0.3,1.6,0.1,2.4
				c-0.6,0.5-1.2,0.8-1.8,0.8c-0.6,0-1-0.3-1.5-0.5c0.2-0.3,0.4-0.7,0.4-1c0.1-0.7-0.2-1.4,0.1-2.1
				C202.7,278.2,204.4,278.6,204.9,279.6z"/>
		</g>
		<path class="st0" d="M180.7,354.1c0-1.3,0-2.7-0.1-4C180.5,351.4,180.5,352.7,180.7,354.1z"/>
		<path class="st1" d="M167.3,129.7c1,1,2.1,2,3.1,2.9c0.1,0.1,0.3,0.3,0.3,0.5c0,0.3-0.5,0.4-0.8,0.4c-1-0.1-2-0.2-3-0.3
			c-0.4-1-0.6-2.1-0.4-3.1c0.1-0.4,0.3-0.8,0.7-0.7"/>
		<path class="st1" d="M177.9,134.3c-1.1,0.2-2.1,0.4-3.2,0.6c-0.2,0.5,0.4,1,1,1.1c0.6,0.2,1.4,0.2,1.9-0.1
			c0.6-0.3,0.8-1.2,0.4-1.7"/>
		<path class="st1" d="M169.5,136.9c-0.6,0-1.3,0.5-1.2,1.2c0,0.6,0.7,1.2,1.3,0.9c0.4-0.2,0.7-0.6,0.7-1.1c0.1-0.4,0-0.9,0-1.3
			c-0.4-0.1-0.9,0-1.2,0.2"/>
	</g>
</g>
<g id="Слой_13">
	<path class="st0" d="M275.8,261.4c1.4,1.8,3,3.6,5.2,4.4c1.8,0.7,3.8,0.6,5.7,0.5c0-1-0.5-1.9-1.4-2.4c1.2-0.3,2.5-0.4,3.8-0.3
		c0.3-1.4,0.7-2.7,1-4.1c-0.9,0-1.9,0-2.8,0c0.1-0.9,0.9-1.5,1.3-2.3c0.4-0.8,0.5-2-0.3-2.3c-0.9,1-1.7,2-2.6,3
		c-0.8-0.1-1.6-0.2-2.4-0.3c-0.7-2-2.7-3.3-3.4-5.3c-0.2-0.7-0.3-1.4-0.4-2.1c0-0.1,0-0.1,0-0.2c0.4-0.1,0.8-0.2,1.2-0.3
		c1.7,2.1,3.3,4.1,5,6.2c1.4-0.4,2.3-2,1.8-3.3c-2.7-0.7-4-2.5-4.9-4.9c-0.6-1.5-1.4-3-2.4-4.4l17.8-19.5l8.7-6.4l0.5-31.6l-0.9-9.2
		l10.5,16.9l0.9,7.8l8.7,10.5l-10.5-3.7l4.6,10.5l-8.2-2.3l-10.5,11l-0.5,6.4l0.9,16l2.7,12.4l5.9,12.8l-0.5,16.9l4.1,14.2l0.5,18.8
		l-2.3,7.3l-0.5,18.3l7,27.1h12.1l-0.8-1.5l-0.5-15.6l0.9-37.1l1.4-8.7l1.4-7.8l-0.9-8.7l-1.8-13.3v-15.6l-0.5-15.6l5-1.4l0.5,9.2
		c0,0,3.2,12.4,4.6,15.1c1.4,2.7,5,18.8,5,18.8l0.9,14.2l1.8,7.3l1.4,3.7l5,2.3l-0.9,11l2.7,3.7l2.7,5l3.2,7.3l0.9,9.6l-3.9,17.9
		h12.9l1.1-4.7l4.6-14.2l-0.9-7.3l-6.4-5.5l3.2-17.8l-1.8-5.9l-4.6-11l-3.7-38.4l-1.8-8.2l-1.4-7.3l-1.4-10.5v-6.4l1.4-7.8l-0.5-16
		l-2.3-6.4l-1.4-4.1l16,5.5l25.2-0.9c1.1,1.7,2.2,3.3,3.7,4.7c0.6,0.6,1.2,1.1,1.7,1.8c0.5,0.7,0.8,1.5,1,2.3
		c0.6,2.2,0.8,4.4,0.7,6.6c0.5,0.3,1.2,0.5,1.8,0.5c0.1-1.5,0.4-3.1,0.7-4.6c1.7,3.5,1.5,7.8-0.4,11.2c0.9,0.8,2.3,0.6,3.2-0.2
		c0.9-0.8,1.3-2,1.6-3.1c0.7-2.7,0.8-5.5,0.4-8.3c2.2,0.6,3.5,2.9,4.3,5c0.7,2.2,1.2,4.5,2.5,6.3c0.5-0.1,1-0.1,1.6,0
		c-0.2-3.4-0.3-6.8-1.6-9.9c-0.2-0.6-0.5-1.1-0.8-1.6c1.2,0,2.3,0.7,2.9,1.6c0.4,0.6,0.6,1.3,1.1,1.8c0.7,0.6,1.7,0.7,2.5,0.3
		c-0.3-1.5-0.6-3.1-1.6-4.2c-0.4-0.4-0.8-0.7-1.3-1c-1.6-1.1-3.3-2.1-5.1-2.5c-0.7-0.1-1.4-0.2-2-0.4c-0.8-0.4-1.4-1.2-1.9-1.9
		c-2.4-3.6-4.7-7.4-8.1-10c-1-0.8-2-0.9-3-1c-0.5-0.1-1-0.3-1.8-0.5l0,0.2c-1.1-0.3-2.2-0.7-3.3-1c-2.7-0.7-5.4-1.4-8.1-2.1
		c-3.5-0.9-7.1-1.8-10.6-2.7l-14.6-2.3l-8.2-5.5l1.4-9.6l-1.4-13.3l0.5-10.1l-1.4-11l-20.1-1.8v-6.4l0.9-4.1l4.1,7.3
		c0,0,0.9-6.4,0.9-7.8c0-1.4,0.5-15.6,0.5-15.6l-4.1-6.4l-7.3-10.5l-8.2-7.3l-4.6,1.4l-5.5,3.2l-4.1,6.4l-4.1,3.2l-1.4,6.4
		l-0.9,17.4l2.3,15.6l0.5-2.4l1.8-8.6l3.7,6.9l1.8,5.9l-16,7.3l-0.9,11.9l2.3,10.1l1.4,29.3l-10.5,11l-13,21.8
		c-0.2,0.2-0.4,0.3-0.6,0.5c-0.3,0.2-0.6,0.4-0.8,0.7c-0.2,0.4-0.2,0.8-0.3,1.2c-0.3,4.7-0.5,9.6,1.4,13.9
		C273.5,258.3,274.6,259.9,275.8,261.4z"/>
</g>
</svg>
