<?xml version="1.0" encoding="utf-8"?>
<!-- Generator: Adobe Illustrator 27.1.1, SVG Export Plug-In . SVG Version: 6.00 Build 0)  -->
<svg version="1.1" xmlns="http://www.w3.org/2000/svg" xmlns:xlink="http://www.w3.org/1999/xlink" x="0px" y="0px"
	 viewBox="0 0 734.3 223.4" style="enable-background:new 0 0 734.3 223.4;" xml:space="preserve">
<style type="text/css">
	.st0{fill:#ADCC3B;stroke:#000000;stroke-width:7;stroke-linecap:round;stroke-linejoin:round;stroke-miterlimit:10;}
	.st1{fill:#ADCC3B;}
	.st2{fill:#B5403B;}
	.st3{stroke:#000000;stroke-width:8;stroke-miterlimit:10;}
	.st4{fill:#CEC93A;}
</style>
<g id="Слой_17">
	<g>
		<path class="st0" d="M278.3,61.6c-0.1,0.5-0.4,0.8-1,0.7l-4.9-0.7c-0.2,0-0.3-0.1-0.4-0.2c-0.1-0.1-0.2-0.3-0.3-0.4l0-0.1
			l2.1-15.2c0-0.2,0.1-0.4,0.3-0.5c0.2-0.1,0.4-0.2,0.7-0.1l7.1,1c0.3,0,0.6,0.2,0.8,0.4c0.2,0.2,0.4,0.4,0.5,0.6l9,16.7l0.1,0.2
			c0,0.2,0,0.3-0.1,0.4c-0.1,0.1-0.2,0.1-0.4,0.1l-4.9-0.7c-0.5-0.1-1-0.4-1.3-1l-1-1.8l-6.3-0.9L278.3,61.6z M279.6,50.3l-0.7,4.9
			l3.6,0.5L279.6,50.3z"/>
		<path class="st0" d="M297.8,64.6c-0.1,0.4-0.3,0.5-0.6,0.5l-3.2-0.4c-0.1,0-0.2-0.1-0.3-0.1c-0.1-0.1-0.1-0.2-0.2-0.3l0-0.1
			l1.4-10.1c0-0.1,0.1-0.3,0.2-0.3c0.1-0.1,0.3-0.1,0.5-0.1l4.8,0.7c0.2,0,0.4,0.1,0.5,0.2c0.1,0.1,0.3,0.3,0.3,0.4l6,11.1l0,0.1
			c0,0.1,0,0.2-0.1,0.2c-0.1,0.1-0.1,0.1-0.2,0.1l-3.2-0.4c-0.4-0.1-0.7-0.3-0.9-0.7l-0.7-1.2l-4.2-0.6L297.8,64.6z M298.6,57.1
			l-0.5,3.3l2.4,0.3L298.6,57.1z"/>
		<path class="st0" d="M314.7,66.6c-0.1,0.5-0.4,0.8-1,0.7l-4.9-0.7c-0.2,0-0.3-0.1-0.4-0.2c-0.1-0.1-0.2-0.3-0.3-0.4l0-0.1
			l2.1-15.2c0-0.2,0.1-0.4,0.3-0.5c0.2-0.1,0.4-0.2,0.7-0.1l7.1,1c0.3,0,0.6,0.2,0.8,0.4c0.2,0.2,0.4,0.4,0.5,0.6l9,16.7l0.1,0.2
			c0,0.2,0,0.3-0.1,0.4c-0.1,0.1-0.2,0.1-0.4,0.1l-4.9-0.7c-0.5-0.1-1-0.4-1.3-1l-1-1.8L315,65L314.7,66.6z M315.9,55.4l-0.7,4.9
			l3.6,0.5L315.9,55.4z"/>
		<path class="st0" d="M334.2,69.6c-0.1,0.4-0.3,0.5-0.6,0.5l-3.2-0.4c-0.1,0-0.2-0.1-0.3-0.1c-0.1-0.1-0.1-0.2-0.2-0.3l0-0.1
			l1.4-10.1c0-0.1,0.1-0.3,0.2-0.3c0.1-0.1,0.3-0.1,0.5-0.1l4.8,0.7c0.2,0,0.4,0.1,0.5,0.2c0.1,0.1,0.3,0.3,0.3,0.4l6,11.1l0,0.1
			c0,0.1,0,0.2-0.1,0.2c-0.1,0.1-0.1,0.1-0.2,0.1l-3.2-0.4c-0.4-0.1-0.7-0.3-0.9-0.7l-0.7-1.2l-4.2-0.6L334.2,69.6z M335,62.1
			l-0.5,3.3l2.4,0.3L335,62.1z"/>
		<path class="st0" d="M351.1,71.7c-0.1,0.5-0.4,0.8-1,0.7l-4.9-0.7c-0.2,0-0.3-0.1-0.4-0.2c-0.1-0.1-0.2-0.3-0.3-0.4l0-0.1
			l2.1-15.2c0-0.2,0.1-0.4,0.3-0.5c0.2-0.1,0.4-0.2,0.7-0.1l7.1,1c0.3,0,0.6,0.2,0.8,0.4c0.2,0.2,0.4,0.4,0.5,0.6l9,16.7l0.1,0.2
			c0,0.2,0,0.3-0.1,0.4c-0.1,0.1-0.2,0.1-0.4,0.1l-4.9-0.7c-0.5-0.1-1-0.4-1.3-1l-1-1.8l-6.3-0.9L351.1,71.7z M352.3,60.4l-0.7,4.9
			l3.6,0.5L352.3,60.4z"/>
		<path class="st0" d="M370.5,74.7c-0.1,0.4-0.3,0.5-0.6,0.5l-3.2-0.4c-0.1,0-0.2-0.1-0.3-0.1c-0.1-0.1-0.1-0.2-0.2-0.3l0-0.1
			l1.4-10.1c0-0.1,0.1-0.3,0.2-0.3c0.1-0.1,0.3-0.1,0.5-0.1l4.8,0.7c0.2,0,0.4,0.1,0.5,0.2c0.1,0.1,0.3,0.3,0.3,0.4l6,11.1l0,0.1
			c0,0.1,0,0.2-0.1,0.2c-0.1,0.1-0.1,0.1-0.2,0.1l-3.2-0.4c-0.4-0.1-0.7-0.3-0.9-0.7l-0.7-1.2l-4.2-0.6L370.5,74.7z M371.3,67.2
			l-0.5,3.3l2.4,0.3L371.3,67.2z"/>
	</g>
	<g>
		<path class="st1" d="M278.3,61.6c-0.1,0.5-0.4,0.8-1,0.7l-4.9-0.7c-0.2,0-0.3-0.1-0.4-0.2c-0.1-0.1-0.2-0.3-0.3-0.4l0-0.1
			l2.1-15.2c0-0.2,0.1-0.4,0.3-0.5c0.2-0.1,0.4-0.2,0.7-0.1l7.1,1c0.3,0,0.6,0.2,0.8,0.4c0.2,0.2,0.4,0.4,0.5,0.6l9,16.7l0.1,0.2
			c0,0.2,0,0.3-0.1,0.4c-0.1,0.1-0.2,0.1-0.4,0.1l-4.9-0.7c-0.5-0.1-1-0.4-1.3-1l-1-1.8l-6.3-0.9L278.3,61.6z M279.6,50.3l-0.7,4.9
			l3.6,0.5L279.6,50.3z"/>
		<path class="st1" d="M297.8,64.6c-0.1,0.4-0.3,0.5-0.6,0.5l-3.2-0.4c-0.1,0-0.2-0.1-0.3-0.1c-0.1-0.1-0.1-0.2-0.2-0.3l0-0.1
			l1.4-10.1c0-0.1,0.1-0.3,0.2-0.3c0.1-0.1,0.3-0.1,0.5-0.1l4.8,0.7c0.2,0,0.4,0.1,0.5,0.2c0.1,0.1,0.3,0.3,0.3,0.4l6,11.1l0,0.1
			c0,0.1,0,0.2-0.1,0.2c-0.1,0.1-0.1,0.1-0.2,0.1l-3.2-0.4c-0.4-0.1-0.7-0.3-0.9-0.7l-0.7-1.2l-4.2-0.6L297.8,64.6z M298.6,57.1
			l-0.5,3.3l2.4,0.3L298.6,57.1z"/>
		<path class="st1" d="M314.7,66.6c-0.1,0.5-0.4,0.8-1,0.7l-4.9-0.7c-0.2,0-0.3-0.1-0.4-0.2c-0.1-0.1-0.2-0.3-0.3-0.4l0-0.1
			l2.1-15.2c0-0.2,0.1-0.4,0.3-0.5c0.2-0.1,0.4-0.2,0.7-0.1l7.1,1c0.3,0,0.6,0.2,0.8,0.4c0.2,0.2,0.4,0.4,0.5,0.6l9,16.7l0.1,0.2
			c0,0.2,0,0.3-0.1,0.4c-0.1,0.1-0.2,0.1-0.4,0.1l-4.9-0.7c-0.5-0.1-1-0.4-1.3-1l-1-1.8L315,65L314.7,66.6z M315.9,55.4l-0.7,4.9
			l3.6,0.5L315.9,55.4z"/>
		<path class="st1" d="M334.2,69.6c-0.1,0.4-0.3,0.5-0.6,0.5l-3.2-0.4c-0.1,0-0.2-0.1-0.3-0.1c-0.1-0.1-0.1-0.2-0.2-0.3l0-0.1
			l1.4-10.1c0-0.1,0.1-0.3,0.2-0.3c0.1-0.1,0.3-0.1,0.5-0.1l4.8,0.7c0.2,0,0.4,0.1,0.5,0.2c0.1,0.1,0.3,0.3,0.3,0.4l6,11.1l0,0.1
			c0,0.1,0,0.2-0.1,0.2c-0.1,0.1-0.1,0.1-0.2,0.1l-3.2-0.4c-0.4-0.1-0.7-0.3-0.9-0.7l-0.7-1.2l-4.2-0.6L334.2,69.6z M335,62.1
			l-0.5,3.3l2.4,0.3L335,62.1z"/>
		<path class="st1" d="M351.1,71.7c-0.1,0.5-0.4,0.8-1,0.7l-4.9-0.7c-0.2,0-0.3-0.1-0.4-0.2c-0.1-0.1-0.2-0.3-0.3-0.4l0-0.1
			l2.1-15.2c0-0.2,0.1-0.4,0.3-0.5c0.2-0.1,0.4-0.2,0.7-0.1l7.1,1c0.3,0,0.6,0.2,0.8,0.4c0.2,0.2,0.4,0.4,0.5,0.6l9,16.7l0.1,0.2
			c0,0.2,0,0.3-0.1,0.4c-0.1,0.1-0.2,0.1-0.4,0.1l-4.9-0.7c-0.5-0.1-1-0.4-1.3-1l-1-1.8l-6.3-0.9L351.1,71.7z M352.3,60.4l-0.7,4.9
			l3.6,0.5L352.3,60.4z"/>
		<path class="st1" d="M370.5,74.7c-0.1,0.4-0.3,0.5-0.6,0.5l-3.2-0.4c-0.1,0-0.2-0.1-0.3-0.1c-0.1-0.1-0.1-0.2-0.2-0.3l0-0.1
			l1.4-10.1c0-0.1,0.1-0.3,0.2-0.3c0.1-0.1,0.3-0.1,0.5-0.1l4.8,0.7c0.2,0,0.4,0.1,0.5,0.2c0.1,0.1,0.3,0.3,0.3,0.4l6,11.1l0,0.1
			c0,0.1,0,0.2-0.1,0.2c-0.1,0.1-0.1,0.1-0.2,0.1l-3.2-0.4c-0.4-0.1-0.7-0.3-0.9-0.7l-0.7-1.2l-4.2-0.6L370.5,74.7z M371.3,67.2
			l-0.5,3.3l2.4,0.3L371.3,67.2z"/>
	</g>
</g>
<g id="Слой_12">
	<g>
		<g>
			<path class="st2" d="M133.1,78.8c-1,0-2-0.6-2.4-1.6c-0.3-0.6-0.4-1.4-0.3-2.2l5-29.5c0.1-0.7,0.4-1.3,0.7-1.8
				c0.7-1,1.5-1.3,2-1.4l4.3-0.9c0.2,0,0.4-0.1,0.6-0.1c1.1,0,2.4,0.6,2.9,2.4l0.7,2.6l0.5-3.2c0.1-0.7,0.4-1.3,0.7-1.8
				c0.7-1,1.5-1.3,2-1.4l5-1c0.2,0,0.4-0.1,0.6-0.1c1,0,2,0.6,2.4,1.6c0.3,0.7,0.4,1.4,0.3,2.2l-5,29.5c-0.1,0.7-0.4,1.3-0.7,1.8
				c-0.7,1-1.5,1.3-2,1.4l-4.3,0.9c-0.2,0-0.4,0.1-0.6,0.1c-1.1,0-2.4-0.6-3-2.4l-0.8-2.4l-0.5,3.1c-0.1,0.7-0.4,1.3-0.7,1.8
				c-0.7,1-1.5,1.3-2,1.4l-5,1C133.5,78.8,133.3,78.8,133.1,78.8z"/>
			<path d="M155.6,41.1c0.2,0,0.3,0.1,0.4,0.3c0.1,0.2,0.1,0.5,0.1,0.8l-5,29.5c-0.1,0.3-0.2,0.6-0.4,0.9c-0.2,0.3-0.4,0.4-0.6,0.5
				l-4.3,0.9c-0.1,0-0.1,0-0.2,0c-0.3,0-0.6-0.3-0.7-0.8l-3.7-11.5l-2.1,12.4c-0.1,0.3-0.2,0.6-0.4,0.9c-0.2,0.3-0.4,0.4-0.6,0.5
				l-5,1c0,0-0.1,0-0.1,0c-0.2,0-0.3-0.1-0.4-0.3c-0.1-0.2-0.1-0.5-0.1-0.8l5-29.5c0.1-0.3,0.2-0.6,0.4-0.9c0.2-0.3,0.4-0.4,0.6-0.5
				l4.3-0.9c0.1,0,0.1,0,0.2,0c0.3,0,0.6,0.2,0.7,0.7l3.5,12.5l2.3-13.4c0.1-0.3,0.2-0.6,0.4-0.9c0.2-0.3,0.4-0.4,0.6-0.5
				L155.6,41.1C155.5,41.1,155.6,41.1,155.6,41.1 M155.6,36.5c-0.3,0-0.7,0-1,0.1l-5,1c-1,0.2-2.4,0.8-3.5,2.4c-0.9-0.6-1.9-1-3-1
				c-0.4,0-0.7,0-1.1,0.1l-4.3,0.9c-1,0.2-2.4,0.8-3.5,2.4c-0.5,0.8-0.9,1.7-1.1,2.7l-5,29.5c-0.3,1.6,0.1,2.8,0.5,3.6
				c0.8,1.8,2.6,2.9,4.5,2.9c0.3,0,0.7,0,1-0.1l5-1c1-0.2,2.4-0.8,3.5-2.4c0,0,0,0,0,0c0.9,0.6,1.9,1,3.1,1c0.4,0,0.7,0,1.1-0.1
				l4.3-0.9c1-0.2,2.4-0.8,3.5-2.4c0.6-0.8,0.9-1.7,1.1-2.7l5-29.5c0.3-1.6-0.1-2.8-0.5-3.6C159.3,37.6,157.5,36.5,155.6,36.5
				L155.6,36.5z"/>
		</g>
		<g>
			<path class="st2" d="M108.5,86.9c-1,0-2-0.6-2.4-1.6c-0.3-0.6-0.4-1.4-0.3-2.2l1.2-6.9c0.1-0.7,0.4-1.3,0.7-1.8
				c0.7-1,1.5-1.3,2-1.4l3.3-0.7l1.4-8.3l-1.6,0.3c-0.2,0-0.4,0.1-0.6,0.1c-1,0-2-0.6-2.4-1.6c-0.3-0.6-0.4-1.4-0.3-2.2l1.2-6.9
				c0.1-0.7,0.4-1.3,0.7-1.8c0.7-1,1.5-1.3,2-1.4l17-3.5c0.2,0,0.4-0.1,0.5-0.1c1,0,2,0.6,2.4,1.6c0.3,0.6,0.4,1.4,0.3,2.2l-1.2,6.9
				c-0.1,0.7-0.4,1.3-0.7,1.8c-0.7,1-1.5,1.3-2,1.4l-3.3,0.7l-1.4,8.3l1.5-0.3c0.2,0,0.4-0.1,0.5-0.1c1,0,2,0.6,2.4,1.6
				c0.3,0.7,0.4,1.4,0.3,2.2l-1.2,6.9c-0.1,0.7-0.4,1.3-0.7,1.8c-0.7,1-1.5,1.3-2,1.4l-17,3.5C108.9,86.9,108.6,86.9,108.5,86.9z"/>
			<path d="M131,49.2c0.2,0,0.3,0.1,0.4,0.3c0.1,0.2,0.1,0.5,0.1,0.8l-1.2,6.9c-0.1,0.3-0.2,0.6-0.4,0.9c-0.2,0.3-0.4,0.4-0.6,0.5
				l-4.8,1l-2.2,13.2l4.8-1c0,0,0.1,0,0.1,0c0.2,0,0.3,0.1,0.4,0.3c0.1,0.2,0.1,0.5,0.1,0.8l-1.2,6.9c-0.1,0.3-0.2,0.6-0.4,0.9
				c-0.2,0.3-0.4,0.4-0.6,0.5l-17,3.5c0,0-0.1,0-0.1,0c-0.2,0-0.3-0.1-0.4-0.3c-0.1-0.2-0.1-0.5-0.1-0.8l1.2-6.9
				c0.1-0.3,0.2-0.6,0.4-0.9c0.2-0.3,0.4-0.4,0.6-0.5l4.9-1l2.2-13.2l-4.9,1c0,0-0.1,0-0.1,0c-0.2,0-0.3-0.1-0.4-0.3
				c-0.1-0.2-0.1-0.5-0.1-0.8L113,54c0.1-0.3,0.2-0.6,0.4-0.9c0.2-0.3,0.4-0.4,0.6-0.5L131,49.2C130.9,49.2,130.9,49.2,131,49.2
				 M131,44.6c-0.3,0-0.7,0-1,0.1l-17,3.5c-1,0.2-2.4,0.8-3.5,2.4c-0.6,0.8-0.9,1.7-1.1,2.7l-1.2,6.9c-0.3,1.6,0.1,2.8,0.5,3.6
				c0.8,1.6,2.2,2.7,3.9,2.9l-0.6,3.7l-1.8,0.4c-1,0.2-2.4,0.8-3.5,2.4c-0.6,0.8-0.9,1.7-1.1,2.7l-1.2,6.9c-0.3,1.6,0.1,2.8,0.5,3.6
				c0.8,1.8,2.6,2.9,4.5,2.9c0.3,0,0.7,0,1-0.1l17-3.5c1-0.2,2.4-0.8,3.5-2.4c0.6-0.8,0.9-1.7,1.1-2.7l1.2-6.9
				c0.3-1.6-0.1-2.8-0.4-3.6c-0.8-1.6-2.2-2.6-3.8-2.9l0.6-3.8l1.7-0.4c1-0.2,2.4-0.8,3.5-2.4c0.6-0.8,0.9-1.7,1.1-2.7L136,51
				c0.3-1.6-0.1-2.8-0.5-3.6C134.7,45.7,132.9,44.6,131,44.6L131,44.6z"/>
		</g>
		<g>
			<path class="st2" d="M84.5,88.2c-1,0-1.9-0.6-2.4-1.5c-0.3-0.6-0.4-1.3-0.2-2c0-0.1,0-0.1,0-0.2l0.1-0.3c0-0.1,0-0.1,0.1-0.2
				l10.7-30.3c0.2-0.6,0.5-1.2,0.9-1.7c0.7-1,1.7-1.4,2.3-1.5l7.4-1.5c0.2,0,0.5-0.1,0.7-0.1c1.1,0,2,0.6,2.6,1.5
				c0.3,0.6,0.5,1.3,0.5,2.1l0.9,27.9c0,0.1,0,0.2,0,0.2l0,0.3c0,0.1,0,0.1,0,0.2c-0.1,0.6-0.3,1.2-0.7,1.6
				c-0.6,0.9-1.4,1.2-1.9,1.4l-5.1,1c-0.2,0-0.4,0.1-0.6,0.1c-1.3,0-2.9-0.9-3.1-3.5l0-0.4L94,81.7l-0.8,2.1c-0.7,1.9-1.8,3-3.2,3.3
				l-5.1,1C84.9,88.2,84.6,88.2,84.5,88.2z"/>
			<path d="M104,51.1c0.2,0,0.4,0.1,0.5,0.3c0.1,0.3,0.2,0.6,0.2,1l0.9,28l0,0.3c0,0.3-0.1,0.5-0.3,0.7c-0.1,0.2-0.3,0.3-0.5,0.4
				l-5.1,1c-0.1,0-0.1,0-0.2,0c-0.5,0-0.7-0.4-0.8-1.3l-0.1-3.1l-6.5,1.3l-1.2,3.3c-0.4,1.1-0.9,1.7-1.5,1.8l-5.1,1c0,0-0.1,0-0.1,0
				c-0.1,0-0.2-0.1-0.3-0.2c-0.1-0.2-0.1-0.4-0.1-0.7l0.1-0.3l10.7-30.3c0.1-0.4,0.3-0.8,0.6-1.1c0.2-0.3,0.5-0.6,0.9-0.6l7.4-1.5
				C103.9,51.1,104,51.1,104,51.1 M95.1,70.6l3.8-0.8l-0.3-9.1L95.1,70.6 M104,46.5c-0.4,0-0.7,0-1.1,0.1l-7.4,1.5
				c-1.5,0.3-2.8,1.2-3.7,2.5c-0.5,0.7-0.9,1.5-1.2,2.3L79.8,83.2c0,0.1-0.1,0.2-0.1,0.4l-0.1,0.3c0,0.1-0.1,0.3-0.1,0.4
				c-0.3,1.5,0.1,2.7,0.4,3.4c0.8,1.7,2.5,2.8,4.5,2.8c0.3,0,0.7,0,1-0.1l5.1-1c1.5-0.3,3.5-1.3,4.8-4.4c1.1,1.7,2.8,2.4,4.4,2.4
				c0.4,0,0.7,0,1.1-0.1l5.1-1c1.4-0.3,2.5-1.1,3.4-2.3c0.5-0.8,0.9-1.6,1-2.6c0-0.1,0-0.3,0.1-0.4l0-0.3c0-0.2,0-0.3,0-0.5
				l-0.9-27.9c0-1.1-0.3-2.2-0.8-3.1C107.7,47.5,106,46.5,104,46.5L104,46.5z"/>
		</g>
		<g>
			<path class="st2" d="M63.7,97.4c-1,0-2-0.6-2.4-1.6c-0.3-0.6-0.4-1.4-0.3-2.2l5-29.5c0.1-0.7,0.4-1.3,0.7-1.8
				c0.7-1,1.5-1.3,2-1.4l10.4-2.1c0.7-0.1,1.4-0.2,2-0.2c1.4,0,2.6,0.3,3.6,1c1.6,1,2.7,2.6,3.2,4.7c0.4,1.9,0.4,4,0,6.6
				c-0.7,4.1-2.1,7.4-4.1,9.9l1.4,8.7c0.1,0.4,0,0.7,0,1.1c-0.1,0.6-0.3,1.2-0.7,1.7c-0.6,0.9-1.4,1.2-1.9,1.4l-6.1,1.2
				c-0.2,0-0.4,0.1-0.6,0.1c-0.8,0-1.5-0.3-2.1-0.9c-0.3-0.3-0.7-0.8-0.9-1.6l-0.1,0.5c-0.1,0.7-0.4,1.3-0.7,1.8
				c-0.7,1-1.5,1.3-2,1.4l-5.8,1.2C64.1,97.3,63.9,97.4,63.7,97.4z"/>
			<path d="M81.1,60.8c0.9,0,1.8,0.2,2.5,0.6c1.1,0.6,1.8,1.7,2.1,3.3c0.4,1.5,0.4,3.4,0,5.7c-0.7,4.1-2.1,7.3-4.3,9.6l1.5,9.8
				c0,0.1,0,0.2,0,0.4c0,0.3-0.1,0.5-0.3,0.7c-0.1,0.2-0.3,0.3-0.5,0.4L76,92.6c-0.1,0-0.1,0-0.2,0c-0.2,0-0.3-0.1-0.5-0.2
				c-0.2-0.2-0.3-0.4-0.3-0.7l-0.8-8.6L72,83.6l-1.5,8.9c-0.1,0.3-0.2,0.6-0.4,0.9c-0.2,0.3-0.4,0.4-0.6,0.5l-5.8,1.2
				c0,0-0.1,0-0.1,0c-0.2,0-0.3-0.1-0.4-0.3c-0.1-0.2-0.1-0.5-0.1-0.8l5-29.5c0.1-0.3,0.2-0.6,0.4-0.9c0.2-0.3,0.4-0.4,0.6-0.5
				L79.6,61C80.1,60.9,80.6,60.8,81.1,60.8 M73.4,75.1l3.3-0.7c0.4-0.1,0.7-0.4,1-0.8c0.3-0.5,0.5-1.1,0.6-1.7
				c0.1-0.7,0.1-1.2,0-1.7c-0.1-0.4-0.3-0.6-0.6-0.6c-0.1,0-0.1,0-0.2,0l-3.3,0.7L73.4,75.1 M81.1,56.2
				C81.1,56.2,81.1,56.2,81.1,56.2c-0.8,0-1.6,0.1-2.5,0.3l-10.4,2.1c-1,0.2-2.4,0.8-3.5,2.4c-0.6,0.8-0.9,1.7-1.1,2.7l-5,29.5
				c-0.3,1.6,0.1,2.8,0.5,3.6c0.8,1.8,2.6,2.9,4.5,2.9c0.3,0,0.7,0,1-0.1l5.8-1.2c0.8-0.2,2-0.6,3-1.8c0.7,0.4,1.5,0.6,2.4,0.6
				c0.4,0,0.7,0,1.1-0.1l6.1-1.2c1.4-0.3,2.5-1.1,3.4-2.3c0.5-0.8,0.9-1.6,1-2.6c0.1-0.6,0.1-1.2,0-1.8c0,0,0-0.1,0-0.1l-1.2-7.8
				c2-2.7,3.3-6.1,4-10.1c0.5-2.9,0.5-5.3,0-7.5c-0.8-3.5-2.8-5.3-4.2-6.2C84.5,56.7,82.9,56.2,81.1,56.2L81.1,56.2z"/>
		</g>
		<g>
			<path class="st2" d="M40,99.5c-1,0-2-0.6-2.5-1.6c-0.3-0.6-0.4-1.4-0.3-2.2l5-29.5c0.1-0.7,0.4-1.3,0.7-1.8c0.7-1,1.5-1.3,2-1.4
				l10.8-2.2c0.9-0.2,1.7-0.3,2.4-0.3c2.8,0,4.4,1.3,5.1,2.4c1.3,1.9,1.7,4.6,1,8.4l0,0.1c-0.3,1.7-0.8,3.3-1.6,4.6
				c-0.2,0.4-0.5,0.8-0.7,1.1c0.2,0.4,0.4,0.9,0.5,1.5c0.4,1.4,0.4,3.1,0.1,5c-0.6,3.8-1.9,6.8-3.7,9c-1.9,2.3-4.4,3.8-7.4,4.4
				l-11,2.2C40.4,99.5,40.1,99.5,40,99.5z"/>
			<path d="M58.1,62.8c1.5,0,2.6,0.5,3.3,1.4c0.9,1.3,1.1,3.6,0.6,6.7l0,0.1c-0.2,1.5-0.7,2.8-1.3,3.9c-0.6,1.1-1.2,1.9-1.8,2.3
				c0.6,0.2,1.1,0.9,1.4,2s0.3,2.5,0,4.1c-0.6,3.4-1.6,6-3.2,7.9c-1.6,1.9-3.6,3.1-6,3.6l-11,2.2c0,0-0.1,0-0.1,0
				c-0.2,0-0.3-0.1-0.4-0.3c-0.1-0.2-0.1-0.5-0.1-0.8l5-29.5c0.1-0.3,0.2-0.6,0.4-0.9c0.2-0.3,0.4-0.4,0.6-0.5l10.8-2.2
				C56.9,62.9,57.5,62.8,58.1,62.8 M49.6,76l3.6-0.7c0.4-0.1,0.7-0.3,0.9-0.8c0.3-0.5,0.4-1,0.5-1.5c0.1-0.5,0.1-1,0-1.4
				c-0.1-0.3-0.3-0.4-0.5-0.4c-0.1,0-0.1,0-0.2,0l-3.6,0.7L49.6,76 M47.6,88.1l3.9-0.8c0.4-0.1,0.8-0.4,1-0.9
				c0.3-0.5,0.5-1.1,0.6-1.6l0,0c0.1-0.6,0.1-1.1-0.1-1.4c-0.1-0.3-0.3-0.5-0.6-0.5c-0.1,0-0.1,0-0.2,0l-3.9,0.8L47.6,88.1
				 M58.1,58.2c-0.9,0-1.9,0.1-2.9,0.3l-10.8,2.2c-1,0.2-2.4,0.8-3.5,2.4c-0.5,0.8-0.9,1.7-1.1,2.7l-5,29.5
				c-0.3,1.6,0.1,2.8,0.5,3.6c0.8,1.8,2.6,2.9,4.5,2.9c0.3,0,0.7,0,1-0.1l11-2.2c3.5-0.7,6.4-2.5,8.7-5.2c2.1-2.5,3.5-5.9,4.2-10.1
				c0.4-2.2,0.3-4.2-0.1-6c-0.1-0.2-0.1-0.4-0.2-0.6c0-0.1,0.1-0.1,0.1-0.2c0.9-1.6,1.5-3.4,1.9-5.4l0-0.1c0.8-4.5,0.3-7.8-1.4-10.2
				C63.6,59.4,61.1,58.2,58.1,58.2L58.1,58.2z"/>
		</g>
	</g>
	<g>
		<g>
			<path class="st2" d="M155.9,41.4c0.1,0.2,0.1,0.5,0.1,0.8l-5,29.5c-0.1,0.3-0.2,0.6-0.4,0.9c-0.2,0.3-0.4,0.4-0.6,0.5l-4.3,0.9
				c-0.4,0.1-0.7-0.2-0.9-0.7l-3.7-11.5l-2.1,12.4c-0.1,0.3-0.2,0.6-0.4,0.9c-0.2,0.3-0.4,0.4-0.6,0.5l-5,1c-0.2,0-0.3,0-0.4-0.3
				c-0.1-0.2-0.1-0.5-0.1-0.8l5-29.5c0.1-0.3,0.2-0.6,0.4-0.9c0.2-0.3,0.4-0.4,0.6-0.5l4.3-0.9c0.4-0.1,0.7,0.1,0.9,0.7l3.5,12.5
				l2.3-13.4c0.1-0.3,0.2-0.6,0.4-0.9c0.2-0.3,0.4-0.4,0.6-0.5l5-1C155.7,41.1,155.8,41.2,155.9,41.4z"/>
		</g>
		<g>
			<path class="st2" d="M122.2,72.8l4.8-1c0.2,0,0.3,0,0.4,0.3c0.1,0.2,0.1,0.5,0.1,0.8l-1.2,6.9c-0.1,0.3-0.2,0.6-0.4,0.9
				c-0.2,0.3-0.4,0.4-0.6,0.5l-17,3.5c-0.2,0-0.3,0-0.4-0.3c-0.1-0.2-0.1-0.5-0.1-0.8l1.2-6.9c0.1-0.3,0.2-0.6,0.4-0.9
				c0.2-0.3,0.4-0.4,0.6-0.5l4.9-1l2.2-13.2l-4.9,1c-0.2,0-0.3,0-0.4-0.3c-0.1-0.2-0.1-0.5-0.1-0.8L113,54c0.1-0.3,0.2-0.6,0.4-0.9
				c0.2-0.3,0.4-0.4,0.6-0.5l17-3.5c0.2,0,0.3,0,0.4,0.3c0.1,0.2,0.1,0.5,0.1,0.8l-1.2,6.9c-0.1,0.3-0.2,0.6-0.4,0.9
				c-0.2,0.3-0.4,0.4-0.6,0.5l-4.8,1L122.2,72.8z"/>
		</g>
		<g>
			<path class="st2" d="M91.1,83.1c-0.4,1.1-0.9,1.7-1.5,1.8l-5.1,1c-0.2,0-0.3,0-0.4-0.2c-0.1-0.2-0.1-0.4-0.1-0.7l0.1-0.3
				l10.7-30.3c0.1-0.4,0.3-0.8,0.6-1.1c0.2-0.3,0.5-0.6,0.9-0.6l7.4-1.5c0.3-0.1,0.6,0,0.7,0.3c0.1,0.3,0.2,0.6,0.2,1l0.9,28l0,0.3
				c0,0.3-0.1,0.5-0.3,0.7c-0.1,0.2-0.3,0.3-0.5,0.4l-5.1,1c-0.6,0.1-0.9-0.3-0.9-1.3l-0.1-3.1l-6.5,1.3L91.1,83.1z M98.6,60.7
				l-3.5,9.9l3.8-0.8L98.6,60.7z"/>
		</g>
		<g>
			<path class="st2" d="M82.8,90.2c0,0.3-0.1,0.5-0.3,0.7c-0.1,0.2-0.3,0.3-0.5,0.4L76,92.6c-0.2,0.1-0.5,0-0.6-0.2
				c-0.2-0.2-0.3-0.4-0.3-0.7l-0.8-8.6L72,83.6l-1.5,8.9c-0.1,0.3-0.2,0.6-0.4,0.9c-0.2,0.3-0.4,0.4-0.6,0.5l-5.8,1.2
				c-0.2,0-0.3,0-0.4-0.3c-0.1-0.2-0.1-0.5-0.1-0.8l5-29.5c0.1-0.3,0.2-0.6,0.4-0.9c0.2-0.3,0.4-0.4,0.6-0.5L79.6,61
				c1.6-0.3,2.9-0.2,4,0.5c1.1,0.6,1.8,1.7,2.1,3.3c0.4,1.5,0.4,3.4,0,5.7c-0.7,4.1-2.1,7.3-4.3,9.6l1.5,9.8
				C82.9,89.9,82.9,90.1,82.8,90.2z M76.8,74.4c0.4-0.1,0.7-0.4,1-0.8c0.3-0.5,0.5-1.1,0.6-1.7c0.1-0.7,0.1-1.2,0-1.7
				c-0.1-0.5-0.4-0.6-0.8-0.6l-3.3,0.7l-0.8,4.8L76.8,74.4z"/>
		</g>
		<g>
			<path class="st2" d="M60.3,79.3c0.3,1.1,0.3,2.5,0,4.1c-0.6,3.4-1.6,6-3.2,7.9c-1.6,1.9-3.6,3.1-6,3.6l-11,2.2
				c-0.2,0-0.3,0-0.4-0.3c-0.1-0.2-0.1-0.5-0.1-0.8l5-29.5c0.1-0.3,0.2-0.6,0.4-0.9c0.2-0.3,0.4-0.4,0.6-0.5l10.8-2.2
				c2.5-0.5,4.3-0.1,5.2,1.2c0.9,1.3,1.1,3.6,0.6,6.7l0,0.1c-0.2,1.5-0.7,2.8-1.3,3.9c-0.6,1.1-1.2,1.9-1.8,2.3
				C59.5,77.5,60,78.2,60.3,79.3z M54.6,71.5c-0.1-0.4-0.4-0.5-0.7-0.4l-3.6,0.7L49.6,76l3.6-0.7c0.4-0.1,0.7-0.3,0.9-0.8
				c0.3-0.5,0.4-1,0.5-1.5C54.8,72.3,54.7,71.9,54.6,71.5z M51.5,87.3c0.4-0.1,0.8-0.4,1-0.9c0.3-0.5,0.5-1.1,0.6-1.6l0,0
				c0.1-0.6,0.1-1.1-0.1-1.4c-0.2-0.4-0.4-0.5-0.8-0.5l-3.9,0.8l-0.8,4.5L51.5,87.3z"/>
		</g>
	</g>
</g>
<g id="Слой_12__x28_копия_x29_">
	<g>
		<path class="st3" d="M504,38.8c0.1,0.1,0.2,0.3,0.2,0.5l0.4,18.3c0,0.2-0.1,0.4-0.2,0.6c-0.1,0.2-0.3,0.3-0.5,0.3l-5.1,1.2
			c-0.2,0-0.3,0-0.5-0.1c-0.1-0.1-0.2-0.3-0.2-0.5l-0.1-6l-4.9,1.2l0.1,6c0,0.2-0.1,0.4-0.2,0.6c-0.1,0.2-0.3,0.3-0.5,0.3l-5.1,1.2
			c-0.2,0-0.3,0-0.5-0.1c-0.1-0.1-0.2-0.3-0.2-0.5l-0.4-18.3c0-0.2,0.1-0.4,0.2-0.6c0.1-0.2,0.3-0.3,0.5-0.3l5.1-1.2
			c0.2,0,0.3,0,0.5,0.1c0.1,0.1,0.2,0.3,0.2,0.5l0.1,5.8l4.9-1.2l-0.1-5.8c0-0.2,0.1-0.4,0.2-0.6c0.1-0.2,0.3-0.3,0.5-0.3l5.1-1.2
			C503.7,38.6,503.9,38.7,504,38.8z"/>
		<path class="st3" d="M508.1,57.6c-0.2,0-0.3,0-0.5-0.1c-0.1-0.1-0.2-0.3-0.2-0.5l-0.3-13.3c0-0.2,0.1-0.4,0.2-0.6
			c0.1-0.2,0.3-0.3,0.5-0.3l3.6-0.8c0.2,0,0.3,0,0.5,0.1c0.1,0.1,0.2,0.3,0.2,0.5l0,1.1c0.5-0.7,1-1.2,1.7-1.7
			c0.6-0.5,1.3-0.8,2.1-1l1.1-0.3c0.2,0,0.3,0,0.5,0.1c0.1,0.1,0.2,0.3,0.2,0.5l0.1,3.7c0,0.2-0.1,0.4-0.2,0.6
			c-0.1,0.2-0.3,0.3-0.5,0.3l-2.8,0.6c-0.6,0.1-1,0.4-1.3,0.9c-0.3,0.4-0.5,1-0.4,1.7l0.1,6.8c0,0.2-0.1,0.4-0.2,0.6
			s-0.3,0.3-0.5,0.3L508.1,57.6z"/>
		<path class="st3" d="M520.1,54.7c-0.2,0-0.3,0-0.5-0.1c-0.1-0.1-0.2-0.3-0.2-0.5l-0.3-13.3c0-0.2,0.1-0.4,0.2-0.6
			c0.1-0.2,0.3-0.3,0.5-0.3l3.6-0.8c0.2,0,0.3,0,0.5,0.1s0.2,0.3,0.2,0.5l0,1.1c0.5-0.7,1-1.2,1.7-1.7c0.6-0.5,1.3-0.8,2.1-1
			l1.1-0.3c0.2,0,0.3,0,0.5,0.1c0.1,0.1,0.2,0.3,0.2,0.5l0.1,3.7c0,0.2-0.1,0.4-0.2,0.6c-0.1,0.2-0.3,0.3-0.5,0.3l-2.8,0.6
			c-0.6,0.1-1,0.4-1.3,0.9s-0.5,1-0.4,1.7l0.1,6.8c0,0.2-0.1,0.4-0.2,0.6c-0.1,0.2-0.3,0.3-0.5,0.3L520.1,54.7z"/>
		<path class="st3" d="M532.1,51.9c-0.2,0-0.3,0-0.5-0.1c-0.1-0.1-0.2-0.3-0.2-0.5l-0.3-13.3c0-0.2,0.1-0.4,0.2-0.6
			c0.1-0.2,0.3-0.3,0.5-0.3l3.6-0.8c0.2,0,0.3,0,0.5,0.1s0.2,0.3,0.2,0.5l0,1.1c0.5-0.7,1-1.2,1.7-1.7c0.6-0.5,1.3-0.8,2.1-1L541,35
			c0.2,0,0.3,0,0.5,0.1c0.1,0.1,0.2,0.3,0.2,0.5l0.1,3.7c0,0.2-0.1,0.4-0.2,0.6c-0.1,0.2-0.3,0.3-0.5,0.3l-2.8,0.6
			c-0.6,0.1-1,0.4-1.3,0.9c-0.3,0.4-0.5,1-0.4,1.7l0.1,6.8c0,0.2-0.1,0.4-0.2,0.6c-0.1,0.2-0.3,0.3-0.5,0.3L532.1,51.9z"/>
		<path class="st3" d="M544.2,49.1c-0.2,0-0.3,0-0.5-0.1c-0.1-0.1-0.2-0.3-0.2-0.5l-0.3-13.3c0-0.2,0.1-0.4,0.2-0.6s0.3-0.3,0.5-0.3
			l3.6-0.8c0.2,0,0.3,0,0.5,0.1c0.1,0.1,0.2,0.3,0.2,0.5l0,1.1c0.5-0.7,1-1.2,1.7-1.7c0.6-0.5,1.3-0.8,2.1-1l1.1-0.3
			c0.2,0,0.3,0,0.5,0.1s0.2,0.3,0.2,0.5l0.1,3.7c0,0.2-0.1,0.4-0.2,0.6c-0.1,0.2-0.3,0.3-0.5,0.3l-2.8,0.6c-0.6,0.1-1,0.4-1.3,0.9
			c-0.3,0.4-0.5,1-0.4,1.7l0.1,6.8c0,0.2-0.1,0.4-0.2,0.6s-0.3,0.3-0.5,0.3L544.2,49.1z"/>
	</g>
	<g>
		<path class="st4" d="M504,38.8c0.1,0.1,0.2,0.3,0.2,0.5l0.4,18.3c0,0.2-0.1,0.4-0.2,0.6c-0.1,0.2-0.3,0.3-0.5,0.3l-5.1,1.2
			c-0.2,0-0.3,0-0.5-0.1c-0.1-0.1-0.2-0.3-0.2-0.5l-0.1-6l-4.9,1.2l0.1,6c0,0.2-0.1,0.4-0.2,0.6c-0.1,0.2-0.3,0.3-0.5,0.3l-5.1,1.2
			c-0.2,0-0.3,0-0.5-0.1c-0.1-0.1-0.2-0.3-0.2-0.5l-0.4-18.3c0-0.2,0.1-0.4,0.2-0.6c0.1-0.2,0.3-0.3,0.5-0.3l5.1-1.2
			c0.2,0,0.3,0,0.5,0.1c0.1,0.1,0.2,0.3,0.2,0.5l0.1,5.8l4.9-1.2l-0.1-5.8c0-0.2,0.1-0.4,0.2-0.6c0.1-0.2,0.3-0.3,0.5-0.3l5.1-1.2
			C503.7,38.6,503.9,38.7,504,38.8z"/>
		<path class="st4" d="M508.1,57.6c-0.2,0-0.3,0-0.5-0.1c-0.1-0.1-0.2-0.3-0.2-0.5l-0.3-13.3c0-0.2,0.1-0.4,0.2-0.6
			c0.1-0.2,0.3-0.3,0.5-0.3l3.6-0.8c0.2,0,0.3,0,0.5,0.1c0.1,0.1,0.2,0.3,0.2,0.5l0,1.1c0.5-0.7,1-1.2,1.7-1.7
			c0.6-0.5,1.3-0.8,2.1-1l1.1-0.3c0.2,0,0.3,0,0.5,0.1c0.1,0.1,0.2,0.3,0.2,0.5l0.1,3.7c0,0.2-0.1,0.4-0.2,0.6
			c-0.1,0.2-0.3,0.3-0.5,0.3l-2.8,0.6c-0.6,0.1-1,0.4-1.3,0.9c-0.3,0.4-0.5,1-0.4,1.7l0.1,6.8c0,0.2-0.1,0.4-0.2,0.6
			s-0.3,0.3-0.5,0.3L508.1,57.6z"/>
		<path class="st4" d="M520.1,54.7c-0.2,0-0.3,0-0.5-0.1c-0.1-0.1-0.2-0.3-0.2-0.5l-0.3-13.3c0-0.2,0.1-0.4,0.2-0.6
			c0.1-0.2,0.3-0.3,0.5-0.3l3.6-0.8c0.2,0,0.3,0,0.5,0.1s0.2,0.3,0.2,0.5l0,1.1c0.5-0.7,1-1.2,1.7-1.7c0.6-0.5,1.3-0.8,2.1-1
			l1.1-0.3c0.2,0,0.3,0,0.5,0.1c0.1,0.1,0.2,0.3,0.2,0.5l0.1,3.7c0,0.2-0.1,0.4-0.2,0.6c-0.1,0.2-0.3,0.3-0.5,0.3l-2.8,0.6
			c-0.6,0.1-1,0.4-1.3,0.9s-0.5,1-0.4,1.7l0.1,6.8c0,0.2-0.1,0.4-0.2,0.6c-0.1,0.2-0.3,0.3-0.5,0.3L520.1,54.7z"/>
		<path class="st4" d="M532.1,51.9c-0.2,0-0.3,0-0.5-0.1c-0.1-0.1-0.2-0.3-0.2-0.5l-0.3-13.3c0-0.2,0.1-0.4,0.2-0.6
			c0.1-0.2,0.3-0.3,0.5-0.3l3.6-0.8c0.2,0,0.3,0,0.5,0.1s0.2,0.3,0.2,0.5l0,1.1c0.5-0.7,1-1.2,1.7-1.7c0.6-0.5,1.3-0.8,2.1-1L541,35
			c0.2,0,0.3,0,0.5,0.1c0.1,0.1,0.2,0.3,0.2,0.5l0.1,3.7c0,0.2-0.1,0.4-0.2,0.6c-0.1,0.2-0.3,0.3-0.5,0.3l-2.8,0.6
			c-0.6,0.1-1,0.4-1.3,0.9c-0.3,0.4-0.5,1-0.4,1.7l0.1,6.8c0,0.2-0.1,0.4-0.2,0.6c-0.1,0.2-0.3,0.3-0.5,0.3L532.1,51.9z"/>
		<path class="st4" d="M544.2,49.1c-0.2,0-0.3,0-0.5-0.1c-0.1-0.1-0.2-0.3-0.2-0.5l-0.3-13.3c0-0.2,0.1-0.4,0.2-0.6s0.3-0.3,0.5-0.3
			l3.6-0.8c0.2,0,0.3,0,0.5,0.1c0.1,0.1,0.2,0.3,0.2,0.5l0,1.1c0.5-0.7,1-1.2,1.7-1.7c0.6-0.5,1.3-0.8,2.1-1l1.1-0.3
			c0.2,0,0.3,0,0.5,0.1s0.2,0.3,0.2,0.5l0.1,3.7c0,0.2-0.1,0.4-0.2,0.6c-0.1,0.2-0.3,0.3-0.5,0.3l-2.8,0.6c-0.6,0.1-1,0.4-1.3,0.9
			c-0.3,0.4-0.5,1-0.4,1.7l0.1,6.8c0,0.2-0.1,0.4-0.2,0.6s-0.3,0.3-0.5,0.3L544.2,49.1z"/>
	</g>
</g>
</svg>
