<?xml version="1.0" encoding="utf-8"?>
<!-- Generator: Adobe Illustrator 27.1.1, SVG Export Plug-In . SVG Version: 6.00 Build 0)  -->
<svg version="1.1" id="Слой_1" xmlns="http://www.w3.org/2000/svg" xmlns:xlink="http://www.w3.org/1999/xlink" x="0px" y="0px"
	 viewBox="0 0 547.7 167.8" style="enable-background:new 0 0 547.7 167.8;" xml:space="preserve">
<style type="text/css">
	.st0{fill:#525D50;}
	.st1{fill:#3D443D;}
	.st2{fill:#667762;}
	.st3{fill:#3B4938;}
	.st4{fill:#2F332A;}
	.st5{fill:#3F4438;}
	.st6{fill:#1F1F21;}
	.st7{fill:#FFBC97;}
	.st8{fill:#4F594F;}
	.st9{fill:#343A34;}
	.st10{fill:#EFC7AE;}
	.st11{fill:#343631;stroke:#000000;stroke-width:0.6299;stroke-miterlimit:10;}
	.st12{fill:#343631;}
	.st13{fill:#DBAA8F;}
	.st14{display:none;}
	.st15{display:inline;fill:#FFFFFF;}
	.st16{display:inline;}
	.st17{fill:#1D1D1B;}
	.st18{fill:#FFFFFF;}
	.st19{fill:#793A33;}
	.st20{fill:#DBEDF4;}
</style>
<g id="Слой_6">
	<g id="Слой_12">
		<g>
			<g>
				<g transform="matrix(0.8448399901390076,0,0,0.8448399901390076,71.00550842285156,58.72979736328125)">
					<g transform="matrix(1,0,0,1,0,0)">
						<g transform="matrix(1,0,0,1,191.33900451660156,207.7429962158203)">
							<path class="st0" d="M191.8-139.6c1.3-8-1.2-15-6.4-22.4l-21.8-12.7c0,0-16.4-13.5-19.2-15.4c-10.7-10.9,0.7-30.5,19-22.2
								c1.7,0.5,16,5.6,16,5.6l15.3,8.1c11.9,2.3,22.1,7.4,29.5,17.1C221.2-165,205.7-142.2,191.8-139.6z"/>
						</g>
						<g transform="matrix(1,0,0,1,240.968994140625,212.36399841308594)">
							<path class="st1" d="M147.6-202.4c0,0-2.5,8.8-1,9.7c0.8,0.5,17.9,7.2,24.8,17.1c1.3-2.7,3.1-7.3,3.1-10.5
								C167.4-194.5,159-200.7,147.6-202.4z"/>
						</g>
						<g transform="matrix(1,0,0,1,174.33200073242188,148.197998046875)">
							<path class="st2" d="M190.7-149.3c-1.6-0.4-3.3-0.7-4.8-1.1c-2.3-0.6-4.5-1.4-6.5-2.6c-1.9-1.1-3.6-2.4-5.6-3.3l-0.1,0.1
								c2,3.8,5.9,6.6,9.9,8.1c1.7,0.6,3.5,1.1,5.3,1.5C189.4-147.5,190-148.4,190.7-149.3z"/>
						</g>
						<g transform="matrix(1,0,0,1,233.65899658203125,193.2760009765625)">
							<path class="st2" d="M172-173.5c-3.4-2.5-6.9-4.7-10.6-6.7c-1.6-0.9-3.3-1.6-5-2.2c-1.9-0.7-4.2-1-5.7-2.6
								c-0.3-0.3-0.7,0-0.6,0.4c1.6,3,5.8,3.9,8.7,5.1C163.4-177.7,167.8-175.9,172-173.5L172-173.5z"/>
						</g>
						<g transform="matrix(1,0,0,1,183.1540069580078,207.60800170898438)">
							<path class="st3" d="M226.6-165.3c-0.5,0.6-9.9,12.2-15.5,15.4c-2.3-6.4-6.3-11.4-11.6-15.5c-3.8-2.9-7.6-5.7-11.5-8.4
								c2.3-2.5,4.3-5.4,6.2-8.1c3.3-5,6.6-11.3,6.7-17.6l-4.9-2.6c-0.7,2.3-11.5,22.3-13.5,24.5c-0.9-0.6-15.5-7.2-18.1-9.1
								c-20.2-14.4-8.9-23.3-3.1-23.6c0.8,0,4.1-0.9,18.2,5.4l1.7-3.9c-6-2-15.4-8.2-22.6-5.4c-7.1,2.3-17.2,10.9-7.3,25.1
								c0.9,1,20.6,14.6,20.7,14.7l21.6,12.6c5.2,7.4,7.8,14.5,6.5,22.5C209.8-141.2,220.1-152.6,226.6-165.3z"/>
						</g>
						<g transform="matrix(1,0,0,1,177.8509979248047,187.25100708007812)">
							<path class="st4" d="M169.5-160.2c6.8-5,12-18,17.5-28.6c1.2-1.1,2.1-0.9,2.9-0.1c2.9-1.2,11.9,3.5,12.5,6
								c-0.6,11.1-10.2,24.5-20.4,33.3c-1,0.1-1.9-0.1-2.9-1.6c-2.7-0.1-4.8-1.3-6.2-4.3l-2.9,0.7l0.5-3.1
								C169.6-157.8,168.4-158.5,169.5-160.2z"/>
						</g>
						<g transform="matrix(1,0,0,1,172.10400390625,177.56700134277344)">
							<path class="st5" d="M191.4-161.9c2.5-5.2,3.2-11,3-16.7c0-0.2-0.1-0.4-0.2-0.5c0-0.7-1.1-0.9-1.4-0.2
								c-1.5,4.6-4.1,8.7-6.1,13.1c-1.1,2.3-2,4.8-3.3,7c-1.3,2.1-2.9,4-4.3,6.1l0,0c3.9-3.5,6.9-7.6,9.4-12.2
								c1.3-2.3,2.7-4.8,3.8-7.4c-0.5,3.5-1.4,6.9-2.9,10.1c-1.1,2.3-2.5,4.6-4,6.7c-1.7,2.3-3.8,4.2-5.4,6.5c0,0.1,0,0.1,0.1,0.1
								c2.7-1.2,4.9-3.7,6.8-5.9C188.6-157.2,190.2-159.5,191.4-161.9z"/>
						</g>
						<g transform="matrix(1,0,0,1,181.88999938964844,184.03900146484375)">
							<path class="st5" d="M188.2-185.4c-0.4-0.8-1.9-0.8-2.1,0.2c-0.5,2.6-0.1,5.3-0.6,7.9c-0.5,2.8-0.9,5.6-1.4,8.4
								c-0.4,2.8-1.3,5.7-2.3,8.4c-0.9,2.3-2.1,4.5-2.9,6.9c-0.5,0.9-1,1.8-1.5,2.7l0.1,0.1c2.4-1.8,4.3-4.9,5.9-7.5
								c1.7-2.7,3-5.6,3.8-8.7C188.8-172.6,190.9-179.8,188.2-185.4z"/>
						</g>
						<g transform="matrix(1,0,0,1,191.875,207.13499450683594)">
							<path d="M221.2-185.1c-5.6-6-12.6-10-20.5-12.2c-1.9-0.5-4.1-0.8-5.9-1.4c-1.6-0.6-4.3-2.8-5.4-3.7c-0.1-1.9-2.1-3.2-3.8-4.1
								c-2.5-1.2-6.3-3.7-9.2-3c-0.1,0-0.2,0.1-0.3,0.2c-0.4-0.5-1.4-0.7-1.9-0.5c-0.2,0.1-0.5,0.2-0.8,0.4
								c-2.2-0.6-4.4-1.2-6.5-1.8c-4.7-1.3-14.3-8.8-25.3,1.3c-0.4,0.3-0.4,0.9-0.6,1.3c0.4,0.4,0.9,0.8,1.3,1.2
								c8.2-9.3,16.9-5.1,20.6-3.4c2.9,1.4,5.8,2.4,9,3.2c-2.6,4.2-4.4,8.9-6.6,13.2c-1.4,2.9-3,5.8-4.8,8.4
								c-1.2,1.8-3.3,4.2-4.6,5.3c-5.3-3.4-10-5.3-14.1-11.3c-4.3-6.3-1.5-14.6,0.3-15c-0.4-0.5-0.8-1-1.3-1.4
								c-1,0.2-5.7,9.1-0.5,17.5c3.6,5.9,8.7,7.8,14.5,11.5c-0.5,1.2,0.1,2.1,1.2,2.4c-0.5,1.1-0.5,2.6-0.2,3c0.9-0.1,2-0.3,3.2-0.7
								c0.1,1.2,1.6,2.1,2.4,2.8c1,0.7,2.5,1.9,3.7,1.4c0.1,0.2,0.3,0.4,0.4,0.6c0.5,0.5,1.2,1,1.9,1.1s1.2-0.3,1.6-0.7
								c2.3,1.4,12.2,7.1,14.5,8.4c1.9,1.4,9.1,12,6.9,22.4c0.6,0.1,1.5,0.1,2,0.2c1.5-11.9-4.3-19.5-4.4-19.7
								c2.7,2,6.6,5.7,8.3,9.3c0,0-0.4-8.5-16-16.5c-2.6-1.3-8-4.5-9.7-5.4c2.5-2.2,5.6-5.6,8-8.6c2.6-3.3,5-6.7,6.9-10.5
								c2.3-4.6,3.2-8.5,3.6-10.2c2.1,1.6,4,3.2,6.6,3.8c8.6,2.1,16.4,5,22.7,11.4c1.9,1.9,3.7,4,5.4,6.1c0.3-0.8,0.5-1.6,0.8-2.3
								C223.5-182.5,222.4-183.8,221.2-185.1z M156.7-175.5c0-0.5,0.1-0.9,0.2-1.4c0.5,0,1-0.2,1.5-0.5c2.6-1.5,4.8-3.9,6.8-6.2
								c3.9-4.7,7.1-10.3,7.2-16.6c-1.6,8-9.9,18.1-12.3,20.1c-2,1.7-4.1,2-4.4,1.2c5.2-4.3,7.5-8.5,10-13.3
								c2.8-5.3,5.3-10.7,8.2-16c0.4-0.1,0.8-0.1,1.1,0c-0.3,5.9-0.6,11.7-2.1,17.6c-0.5,1.8-1,3.6-1.7,5.4
								C169-182.2,161.9-176.2,156.7-175.5z M164.5-171.7c-1,0-4.5-2.4-4.8-3.2c2.6-1,6.6-3,9.9-6.3
								C169.5-180.9,166.5-173.8,164.5-171.7z M180.6-185.1c-2,2.9-7.4,10.5-12.6,15.1l0,0c-0.5,0.1-1.4,0-2-1.3
								c1.9-2.4,3.3-5.4,4.5-8.1c1.7-3.6,3.1-7.4,4.1-11.2c1.5-5.5,2.6-11.7,2.3-17.6c2-0.5,9.8,3.5,11,5.5
								C187.6-198.3,184-190.2,180.6-185.1z"/>
						</g>
						<g transform="matrix(1,0,0,1,197.43699645996094,179.5399932861328)">
							<path class="st0" d="M177.7-168.1c-1.2-0.9-2.5-1.8-3.9-2.3c-0.5-0.2-0.7,0.5-0.4,0.8c1.2,0.9,2.5,1.7,3.6,2.6
								C177.7-166.6,178.4-167.7,177.7-168.1z"/>
						</g>
						<g transform="matrix(1,0,0,1,200.1179962158203,175.49600219726562)">
							<path class="st0" d="M176.6-166.3c-0.6-0.7-1.7-1.2-2.5-1.7c-0.8-0.4-1.7-0.9-2.6-0.9c-0.2,0-0.3,0.2-0.2,0.3
								c0.6,0.6,1.6,1,2.4,1.5c0.8,0.5,1.6,1.1,2.5,1.5C176.6-165.4,176.9-166,176.6-166.3z"/>
						</g>
						<g transform="matrix(1,0,0,1,201.5659942626953,171.74000549316406)">
							<path class="st0" d="M175.6-164.6c-0.4-0.8-1.6-1.4-2.4-1.8c-0.8-0.5-1.8-0.9-2.7-1c-0.2,0-0.4,0.3-0.2,0.4
								c0.7,0.6,1.6,1,2.3,1.5s1.6,1.3,2.4,1.5C175.4-163.8,175.8-164.2,175.6-164.6z"/>
						</g>
						<g transform="matrix(1,0,0,1,203.88699340820312,168.42799377441406)">
							<path class="st0" d="M174.3-163.4c-0.5-0.8-1.7-1.2-2.5-1.6c-1-0.5-2-0.9-3.2-1c-0.1,0-0.1,0.1,0,0.1
								c0.9,0.7,1.8,1.2,2.8,1.8c0.8,0.5,1.6,1.3,2.5,1.4C174.2-162.7,174.4-163.1,174.3-163.4z"/>
						</g>
						<g transform="matrix(1,0,0,1,200.39700317382812,173.927001953125)">
							<path class="st0" d="M175.5-171.3c-1,1.2-1.4,2.9-1.9,4.4c-0.5,1.6-1.4,3.3-1.7,5c0,0.1,0.1,0.3,0.2,0.2
								c1.3-0.9,1.7-2.5,2.1-3.9C174.8-167.3,175.7-169.4,175.5-171.3L175.5-171.3z"/>
						</g>
					</g>
				</g>
				<g transform="matrix(0.8448399901390076,0,0,0.8448399901390076,71.00550842285156,58.72979736328125)">
					<g transform="matrix(1,0,0,1,0,0)">
						<g transform="matrix(1,0,0,1,432.9930114746094,328.2640075683594)">
							<path class="st3" d="M37.2-259.6l19.7,20.8l13.1-6.7l16.6-3.9c0,0,7.7-3.7,13.8-4.5c8.3-1,19.7-2.5,22.2-9.8
								c4.5-12.9-17.4-15.4-27.4-16C82.8-282.1,48.5-278.4,37.2-259.6z"/>
						</g>
						<g transform="matrix(1,0,0,1,430.8529968261719,347.10198974609375)">
							<path d="M125.1-288c0-0.1-0.2,0-0.2,0c-0.5,3.4-0.9,6.5-3.9,8.9c-2.8,2.2-6.6,3-10,3.9c-3,0.7-7.8,1.4-11.9,2.3
								c-3,0.7-6,2.1-9,3.4c-3.1,1.4-6.4,1.7-9.7,2.3c-3.5,0.7-7,1.4-10.3,2.8c-3.6,1.5-7.3,3.4-10.8,5.6c-0.2,0.8-0.4,1.6-0.6,2.4
								c1.5-1,3-2,4.6-2.9c3.3-1.9,6.8-3.7,10.5-4.9c3.6-1.2,7.3-1.7,11-2.4c3.6-0.7,6.8-1.9,10-3.6c3.3-1.8,10.1-1.8,13.8-2.8
								c3.3-0.9,6.6-1.5,9.7-2.8C123.6-278,127.3-282.3,125.1-288z"/>
						</g>
						<g transform="matrix(1,0,0,1,411.24200439453125,301.67999267578125)">
							<path d="M145-242.9c-2.4-12.5-40.4-13.6-52.1-10.7c-8.1,2-31.1,8.2-34.6,21.1c-0.1,0.5,1.6,0.3,1.8-0.2
								c4.6-10.4,17-13.5,20.8-15.3c3.9-1.8,8.3-2.7,12.4-3.9c9.6-2.9,45.6-3,50.9,9C144.3-242.7,145.1-242.7,145-242.9z"/>
						</g>
					</g>
				</g>
				<g transform="matrix(0.8448399901390076,0,0,0.8448399901390076,71.00550842285156,58.72979736328125)">
					<g transform="matrix(1,0,0,1,0,0)">
						<g transform="matrix(1,0,0,1,357.06201171875,353.1619873046875)">
							<path class="st6" d="M124.5-266.5c0.6-0.1,0.4-1-0.2-0.9C123.7-267.3,123.9-266.4,124.5-266.5z"/>
						</g>
						<g transform="matrix(1,0,0,1,359.10101318359375,352.9830017089844)">
							<path class="st6" d="M123.5-266.7c0.6-0.1,0.4-1-0.2-0.9C122.7-267.5,122.9-266.6,123.5-266.7z"/>
						</g>
						<g transform="matrix(1,0,0,1,309.3590087890625,235.43499755859375)">
							<path class="st7" d="M126.4-206c5.9,15.2,30.1,20.8,30.1,20.8l6.2-13.5L132.3-215C132.3-215,126.3-206.7,126.4-206z"/>
						</g>
						<g transform="matrix(1,0,0,1,180.80999755859375,418.43798828125)">
							<path class="st4" d="M209.8-286l-4.9,17.3l9,4.6l6.2-16.6L209.8-286z"/>
						</g>
						<g transform="matrix(1,0,0,1,259.9670104980469,455.5150146484375)">
							<path class="st4" d="M179.4-306.8c-0.4,0.1-4.6,12.1-4.6,12.1l8.3-1.8l4.4-10.2L179.4-306.8z"/>
						</g>
						<g transform="matrix(1,0,0,1,215.4409942626953,328.0719909667969)">
							<path class="st1" d="M152-216.3l15.1-43.2c11.5,0.2,28.7-22.9,33.5-42.8l10.3,8c-0.7,12-2.8,23.6-6.8,34.7l22.2,30.1
								L206-182.2C184.6-189.7,164.6-198.9,152-216.3z"/>
						</g>
						<g transform="matrix(1,0,0,1,227.6750030517578,276.4119873046875)">
							<path class="st4" d="M148.6-195.7l3.2-8.5c13.9,6.5,34.9-21.1,38.8-45.5l6.7,4.4C193.5-211.9,166.5-185.1,148.6-195.7z"/>
						</g>
						<g transform="matrix(1,0,0,1,241.0279998779297,251.14599609375)">
							<path class="st8" d="M174.4-223.8c0,3.2-1.9,6.9-3.1,9.8c-1.3,3.2-3,6.3-4.8,9.3c-1.9,3.2-3.9,6.2-6.4,8.9
								c-2.4,2.6-5.1,5.2-7.2,8c-0.1,0.1,0.1,0.3,0.2,0.2c3.3-2.4,6.5-5.2,9.5-8c2.7-2.5,4.7-5.7,6.7-8.7s3.7-6.2,5-9.6
								c1.2-3.1,2.9-6.7,2.5-10.1C176.6-225.3,174.4-225.1,174.4-223.8z"/>
						</g>
						<g transform="matrix(1,0,0,1,321.1090087890625,306.2049865722656)">
							<path class="st0" d="M98.4-237.7c5.8-16.9,5.8-25.1,6.8-34.7c2.6-2.1,4.4-1.7,5.5,0.7l4.1-5.8c0.2,2.5,1.6,3.9,3,6
								c2.2,5.2,15.4,13,26.9,15.6c13.4,5.7,26.9,11.5,26.9,11.5c0.6,9-0.6,19-3,29.7L164-212l-12.9-0.8l-22.8,9.1l-2.3,5.3l-8.3-3
								l2.4-6.6L98.4-237.7z"/>
						</g>
						<g transform="matrix(1,0,0,1,237.63499450683594,259.5719909667969)">
							<path class="st5" d="M183.1-231.3c-0.9-0.5-2-1-3-1.6c-1.6,8.9-4.7,17.9-9.1,25.8c-2.2,4-4.8,7.9-8.1,11.3
								c-1.5,1.5-3.2,2.9-4.8,4.3c-2,1.7-4.2,2.9-6.3,4.4c-0.1,0.1,0,0.2,0.1,0.2c4.6-0.4,9.1-3.2,12.5-6.2c3.8-3.3,7-7.3,9.5-11.7
								s4.4-9,6.1-13.7c1.4-4.1,2.8-8.3,3.3-12.7L183.1-231.3z"/>
						</g>
						<g transform="matrix(1,0,0,1,309.0039978027344,317.1990051269531)">
							<path class="st3" d="M163.1-233.8c-0.4,1.3-0.8,2.5-1.3,3.7c-4.8,1.2-9.5,1.7-13.8,1.4h-0.2v0.2c-0.5,2.5-1.5,4.9-3.1,6.9
								c-4.5-1-8.5-2.7-11.8-5.1c1.2-2.1,2-4.3,2.6-6.9v-0.1l-0.1-0.1c-5.3-4.4-9.8-9.6-13.3-15.4c2.2-4,3.7-8.4,4.4-13.1
								c1.1-0.9,1.4-2.1,1-3.5l-0.4,0.1c0.4,1.3,0,2.4-0.9,3.1l-0.1,0.1v0.1c-0.7,4.7-2.2,9.2-4.4,13.2l-0.1,0.1l0.1,0.1
								c3.5,5.9,8,11.1,13.4,15.5c-0.6,2.5-1.4,4.8-2.6,6.8l-0.1,0.2l0.2,0.1c3.4,2.5,7.5,4.3,12.3,5.3h0.1l0.1-0.1
								c1.6-2.1,2.7-4.5,3.2-7c4.4,0.3,9.1-0.2,13.9-1.4h0.1v-0.1c0.6-1.3,1.1-2.7,1.5-4.1C163.5-233.9,163.3-233.8,163.1-233.8z"/>
						</g>
						<g transform="matrix(1,0,0,1,295.7659912109375,350.8210144042969)">
							<path class="st3" d="M146.4-244.8l11.6-27.1c-0.1-0.1-0.3-0.2-0.4-0.2L146-244.8C146.1-244.9,146.2-244.8,146.4-244.8z"/>
						</g>
						<g transform="matrix(1,0,0,1,299.8450012207031,353.3819885253906)">
							<path class="st3" d="M144.9-246.7l11.4-26.6c-0.1,0-0.3-0.1-0.4-0.2l-11.4,26.7C144.6-246.8,144.8-246.8,144.9-246.7z"/>
						</g>
						<g transform="matrix(1,0,0,1,371.07000732421875,344.61199951171875)">
							<path class="st3" d="M117.8-277.9c-0.4,8.7-1.3,17.3-3,25.8v0.1c-0.1,0.8,1.1,1.2,1.3,0.4c0.7-0.7,1.5-1.3,2.4-1.9
								c0.7-0.5,0.1-1.7-0.6-1.2c-0.5,0.3-0.9,0.6-1.4,0.9c1.4-8,2.3-16,2.6-24.1C119.2-278.7,117.8-278.8,117.8-277.9z"/>
						</g>
						<g transform="matrix(1,0,0,1,305.7080078125,307.90399169921875)">
							<path class="st3" d="M169.8-236.9c-0.4-0.3-0.9-0.2-1,0.3c-1.5,6.9-3,13.9-4.4,20.8c-3.3,1.2-21.2,8.5-21.2,8.6
								c-0.1,0-1.7,3.1-2.4,4.5c-1.5-0.6-3-1.3-4.5-2c0.7-1.5,1.3-3,1.8-4.6c0.2-0.2,0.3-0.6,0-0.9c-4.2-4.5-18.4-24.7-22-29.5
								c1.6-5.3,6.2-15.9,6.6-35c0-0.9-1.4-0.9-1.4-0.1c0.3,6.1-6.9,35-6.8,35.3c-0.1,0.4,18.1,25.1,22,29.6c-0.5,1-3.6,6.1-3,6.3
								c2.2,0.9,5.5,2.3,7.6,3.2c0.4,0.2,2.5-3.9,3.4-5.4c0.2-0.3,18-8,22.1-9.5c0.2-0.1,0.3-0.2,0.4-0.4c0.1-0.1,0.1-0.2,0.2-0.3
								c1.3-6.8,2.5-13.5,3.8-20.3C171.1-236.8,170.2-237.3,169.8-236.9z"/>
						</g>
						<g transform="matrix(1,0,0,1,288.74200439453125,272.70098876953125)">
							<path class="st3" d="M143.1-221c1.8,3.5,5,8,8.7,9.3c-3.4-3-5.4-6.1-7.1-9.3c-2-3.6-2.9-7.8-2.8-12
								C140.4-230.2,141.2-224.6,143.1-221z"/>
						</g>
						<g transform="matrix(1,0,0,1,290.3590087890625,269.6709899902344)">
							<path class="st3" d="M150-212.7c0,0-6.3-5.9-8.2-17.1C140-224.6,145.3-214.4,150-212.7z"/>
						</g>
						<g transform="matrix(1,0,0,1,159.9720001220703,393.2300109863281)">
							<path class="st0" d="M210.3-277.5c-0.8,7.5-3.8,9.1-3.1,14.9c1.2,7.9,8.6,13.5,18.4,18.2l5.1-16.4
								C221.2-266.7,215.6-272.1,210.3-277.5z"/>
						</g>
						<g transform="matrix(1,0,0,1,310.5159912109375,385.95599365234375)">
							<path class="st1" d="M119.7-238.6l19.3-45l23.1-9.6l4.4-21.6l11.7-4.4c0,5.5-2.4,20-4.7,34.2c-5.7,11.4-13.9,16.4-26.6,30.9
								l-9.8,17.1L119.7-238.6z"/>
						</g>
						<g transform="matrix(1,0,0,1,281.2080078125,260.8689880371094)">
							<path class="st2" d="M148-216.4c-0.1-2.8,0.5-5.7,0.3-8.5l0,0c-2.3,5.2-2.5,13.1,1.7,17.4c0,0,0.1,0,0.1-0.1
								C148.9-210.3,148.1-213.3,148-216.4z"/>
						</g>
						<g transform="matrix(1,0,0,1,292.5159912109375,257.4599914550781)">
							<path class="st2" d="M143.6-216.7c-0.5-2.1-0.6-4.6-1.8-6.5c-0.1-0.1-0.3-0.2-0.3,0c-2.4,4.6,1.5,11.1,4.3,14.5
								c0.1,0.1,0.2,0,0.1-0.1C144.8-211.4,144.2-214,143.6-216.7z"/>
						</g>
						<g transform="matrix(1,0,0,1,148.17599487304688,392.6839904785156)">
							<path class="st2" d="M232.3-247.4c-3.2-3.5-5.3-7.4-7.6-11.5c-1.3-2.2-1.9-4.4-2.4-6.9c-0.5-2.4-0.3-4.8-0.8-7.1
								c0-0.1-0.1-0.1-0.2,0c-2.1,5-3.4,10.6-0.8,15.4C222.7-253.5,228.1-249.2,232.3-247.4L232.3-247.4z"/>
						</g>
						<g transform="matrix(1,0,0,1,219.6739959716797,438.1889953613281)">
							<path class="st0" d="M175.7-285.2l5.4-14.9l20.9,7.3l5-11.3l8.3,3l-4.6,10.4l8.8,1.3l-4,11.4
								C201.9-277.5,188.7-280.1,175.7-285.2z"/>
						</g>
						<g transform="matrix(1,0,0,1,264.0419921875,396.6499938964844)">
							<path class="st4" d="M162.5-262.6l1.9-4.4l-11.5-5.3l6.9-16.6l11.7,5.4l3.5-8.3l8.3,3l-3.3,8.7l11.1,1.9l-7.9,16.7l-10.5-2.5
								l-1.8,4.4L162.5-262.6z"/>
						</g>
						<g transform="matrix(1,0,0,1,164.36599731445312,393.85699462890625)">
							<path class="st3" d="M206.5-278.2c-0.2,0.5-1.1,3.1-1.4,4c0.3,0.5,4.7,6.4,6.9,8.6c2.9,2.9,6,5.6,9.3,8
								c-0.6,2.2-2.2,9.3-2.6,10.8c1.1,0.7,2.2,1.3,3.3,2c0.6-2.5,3.9-16.1,4.1-17C224-263.1,212.9-269.7,206.5-278.2z"/>
						</g>
						<g transform="matrix(1,0,0,1,220.6199951171875,437.9010009765625)">
							<path class="st3" d="M213-285.1c-0.4,1-2.4,5.4-3,6.8c1.3,0.1,2.6,0.2,3.9,0.4c0.4-1.1,3.7-8.9,4.7-11.8
								c-2.2-0.1-9.1-0.8-9.1-0.8s3.3-7.4,4.6-10.6c-3.1-0.8-7.8-2.6-7.8-2.6l-4.8,11.5c0,0-21.1-7.7-21.4-7.8
								c-1.3,5.1-2.9,10.2-4.7,15.2c0.7,0.3,1.4,0.6,2.1,0.9c0.8-1.6,3.2-7.2,3.6-8.5c8.7,3.7,18,6,27.4,7
								C210-285.3,211.5-285.2,213-285.1z"/>
						</g>
						<g transform="matrix(1,0,0,1,354.44500732421875,361.0369873046875)">
							<path class="st4" d="M120.6-247l4.9-5.3c2.6-10.5,4.8-25.2,6.9-41.2l-6,2.2C125.6-277.1,123.8-262.5,120.6-247z"/>
						</g>
						<g transform="matrix(1,0,0,1,259.5429992675781,396.8320007324219)">
							<path class="st5" d="M188.4-270.5c-5.4,0-10.1-1.9-15-3.9c-2.1-0.9-4.3-1.7-6.4-2.6c-2.1-0.9-4.2-2.3-6.5-2.6
								c-0.8-0.1-1,0.8-0.6,1.3c1.4,1.9,3.8,2.8,5.9,3.7c2.5,1.1,5,2,7.6,2.9c4.8,1.6,10,2.8,15,1.6
								C188.6-270.2,188.6-270.5,188.4-270.5z"/>
						</g>
						<g transform="matrix(1,0,0,1,269.26300048828125,382.9110107421875)">
							<path class="st5" d="M182.3-265c-1.1-0.7-2.4-0.8-3.6-1.1c-1.4-0.3-2.7-0.8-4-1.1c-2.8-0.7-5.7-1.6-8.4-2.7
								c-2.8-1-5.4-2.3-8.1-3.6c-0.6-0.3-3.5-2-3.8-0.4c-0.3,2,3.3,3.3,4.7,4c2.5,1.3,5.2,2.3,7.8,3.2c2.5,0.8,5.2,1.4,7.8,1.8
								c2.3,0.4,5.5,0.9,7.7,0.1C182.4-264.8,182.4-264.9,182.3-265z"/>
						</g>
						<g transform="matrix(1,0,0,1,281.4259948730469,375.33099365234375)">
							<path class="st5" d="M164.7-267.8c-1.2-0.4-2.4-0.9-3.6-1.4c-1-0.4-2.2-1.1-3.4-1c-0.5,0-1.1,0.6-0.7,1.1
								c0.7,1,1.9,1.5,3,1.9c1.3,0.5,2.7,1,4,1.3C165.3-265.5,165.9-267.3,164.7-267.8z"/>
						</g>
						<g transform="matrix(1,0,0,1,175.1840057373047,415.7239990234375)">
							<path class="st5" d="M216.8-282.5c-0.7,0-1,0.4-1.3,0.9c-0.8,1.5-1.3,3.6-1.8,5.2c-1.1,3.3-2.8,7-2.6,10.5
								c0.1,1.4,1.9,1.9,2.5,0.5c1-2.6,1.6-5.3,2.4-8c0.8-2.6,1.6-5.1,2-7.8C218.1-281.9,217.4-282.5,216.8-282.5z"/>
						</g>
						<g transform="matrix(1,0,0,1,255.07000732421875,456.3489990234375)">
							<path class="st5" d="M186-307.5c-0.2-0.4-0.7-0.5-1.1-0.3c-1.6,0.7-2.1,3.2-2.7,4.8c-0.8,2-1.7,4.1-2,6.2
								c-0.2,1.2,1.8,1.8,2.4,0.7c1-1.9,1.5-4.1,2.2-6.1C185.5-303.9,186.7-305.8,186-307.5z"/>
						</g>
						<g transform="matrix(1,0,0,1,280.364990234375,239.11099243164062)">
							<path class="st6" d="M144.6-207.5c-0.1,0.5-0.2,1.1-0.3,1.6c0.7,0.5,1.3,1.1,2,1.6c0-0.6,0-1.3,0-1.9
								C145.7-206.6,145.2-207,144.6-207.5z"/>
						</g>
						<g transform="matrix(1,0,0,1,307.02801513671875,229.82699584960938)">
							<path class="st6" d="M134.5-209.8c-1.9,2.8-3.7,5.6-5.4,8.4v0.1c0,0.5,0,1,0.1,1.5c2.2-3.2,4.1-6.5,5.8-10
								C134.8-209.8,134.7-209.8,134.5-209.8z"/>
						</g>
						<g transform="matrix(1,0,0,1,291.1619873046875,272.3909912109375)">
							<path class="st6" d="M151.7-210.1c-4-2.7-6.7-6.4-8.9-10.6c-2.4-4.5-3.8-9.4-2.9-14.5h-0.1c-1.5,5.2-0.2,10.3,2.2,14.9
								C144.2-216.2,147.2-212.1,151.7-210.1C151.7-209.9,151.7-210,151.7-210.1z"/>
						</g>
						<g transform="matrix(1,0,0,1,292.25299072265625,268.6940002441406)">
							<path class="st6" d="M143.2-220c-1.6-3.3-2.5-6.7-3.2-10.3h-0.1c0.1,6.7,3.1,14.8,8.7,18.9l0.1-0.1
								C146.7-214.3,144.6-216.9,143.2-220z"/>
						</g>
						<g transform="matrix(1,0,0,1,261.7449951171875,316.6700134277344)">
							<path class="st6" d="M170.1-205c0.1,0.1,0.3,0.1,0.4,0.1l5.4-12.6l-22.3-30.7c1.4-4.3,5-15.6,6.8-25.7
								c-0.2,0.5-0.5,1-0.7,1.5c-1.9,9.7-5.2,20.1-6.5,24.2v0.1l22.3,30.7L170.1-205z"/>
						</g>
						<g transform="matrix(1,0,0,1,197.35400390625,385.30999755859375)">
							<path class="st6" d="M227.4-257.2l-5,11.6c-16.6-4.5-39.9-17.3-50.4-32.1l-0.4,0.3c10.6,14.9,34.2,27.8,50.9,32.3l0.2,0.1
								l5.2-12.1C227.7-257.2,227.5-257.2,227.4-257.2z"/>
						</g>
						<g transform="matrix(1,0,0,1,243.47900390625,273.4159851074219)">
							<path class="st6" d="M166.1-217.8c-1.1,0.3-0.7,2,0.4,1.8C167.6-216.3,167.2-218.1,166.1-217.8z"/>
						</g>
						<g transform="matrix(1,0,0,1,269.7090148925781,342.10699462890625)">
							<path class="st8" d="M168.6-244.7c0.7,1.4,0.7,2.5,0.2,4c-0.7,2.2-4.2,9.1-5,10.5c0.7,0.4,1.4,0.8,2.2,1.2
								c1-1.9,4.9-10.2,5.5-12.5c0.6-2.4-0.2-3.4-1.5-5.4c-2.9-4.4-15.4-21.7-19.4-24.8l0,0C152.3-267.5,168.1-245.7,168.6-244.7z"
								/>
						</g>
						<g transform="matrix(1,0,0,1,309.2919921875,376.29400634765625)">
							<path class="st8" d="M140.2-273.9c0,0-4.4,10.7-5.4,13.7c0.3,0.1,0.7,0.2,1,0.3c1.5-1.8,4.6-9.5,5.3-11.1
								c0.8-1.9,2.1-2.5,3.9-3.4c5.7-2.9,12.9-4.3,17.5-9C162.8-283.7,140.2-273.9,140.2-273.9z"/>
						</g>
						<g transform="matrix(1,0,0,1,317.0220031738281,385.6910095214844)">
							<path class="st9" d="M163.3-317.7c-0.1-0.1-0.2,0-0.3,0c-1.5,1.1-1.1,3.6-1.2,5.3c-0.2,2.6-0.5,5.1-0.9,7.7
								c-0.7,5.1-1.6,10.1-2.5,15.2c-0.8,4.9-1.8,9.8-3.3,14.6c-0.2,0.6-0.4,1.2-0.6,1.7c-0.4,0.4-0.8,0.7-1.2,1.1
								c-3.8,3.3-7.3,6.8-10.6,10.6c-3.1,3.6-6,7.3-8.5,11.4c-2.4,3.9-5.2,8.4-5.8,13.1c0,0.3,0,0.5,0.1,0.7
								c0.8,0.1,1.7,0.2,2.5,0.3c0.1-0.1,0.2-0.3,0.3-0.5c3.4-8.9,9-17,15.4-24c3.1-3.5,6.6-6.7,10-9.8c0.2-0.2,0.4-0.4,0.7-0.6
								c0.4-2,0.9-4.1,1.4-6.1c-0.1,0.1-0.1,0.1-0.2,0.2c1.1-4,1.8-8,2.4-12c0.8-5.2,1.8-10.4,2.5-15.6c0.4-2.5,0.6-5.1,0.8-7.7
								C164.3-314,164.8-316.6,163.3-317.7z"/>
						</g>
						<g transform="matrix(1,0,0,1,212.13800048828125,301.7030029296875)">
							<path class="st9" d="M202.3-239.5c-1.3,1.2-2,3-3,4.5c-1.4,1.8-2.7,3.6-4.2,5.2c-2.9,3-6.4,5.7-10,7.7s-7.8,3.6-12,4
								c-2.1,0.2-4-0.2-5.9-1.2c-0.6-0.4-1.9-1.1-2.5-0.1c0,0.1-0.1,0.2-0.1,0.2c-0.3,0.5-0.4,1.1-0.1,1.5c2.1,3.4,6.8,3.5,10.3,3
								c4.4-0.7,8.6-2.6,12.3-5.1c3.5-2.4,6.4-5.3,9-8.7c1.4-1.8,2.8-3.6,4-5.6c0.9-1.6,2.2-3.4,2.5-5.3
								C202.5-239.5,202.4-239.6,202.3-239.5z"/>
						</g>
						<g transform="matrix(1,0,0,1,247.8350067138672,278.9729919433594)">
							<path class="st6" d="M164.8-220.9c-1.1,0.3-0.7,2,0.4,1.8C166.3-219.4,165.9-221.1,164.8-220.9z"/>
						</g>
						<g transform="matrix(1,0,0,1,261.6449890136719,343.16400146484375)">
							<path d="M230.9-276.5c-0.3,5.4-1.1,10.8-2,16.1c-0.5,2.8-1.1,5.6-1.7,8.3c-0.9,0.6-1.9,1.3-2.6,1.8c0-0.3,0.1-0.5,0.1-0.8
								c1.1-7.4,2.2-14.9,2.8-22.3c-0.3,0.3-0.6,0.5-0.9,0.7c-1.2,6.9-2.2,13.8-3.3,20.7c-0.5,2.9-1,5.8-1.5,8.7
								c-0.3,0.6-0.6,1.2-1,1.7c2.2-11.3,3.9-23.2,4.9-30.8c-0.7,0.6-1.4,1.2-2.1,1.8c-0.3,2.1-0.6,4.5-1,7l-2.7,1.1
								c0.3-2.3,0.5-4.2,0.6-5.6c-0.7,0.6-1.4,1.2-2,1.8c-0.8,7.6-2.7,22.5-5.6,35.8c-3,3.5-6.2,6.8-9.4,10
								c-4,3.9-8.2,7.6-10.8,12.6c-0.7,1.4-2.9,5.4-4.9,9.3c-4.9,0.2-8.8,0.1-12.9-0.8l4-9.5c2.5,0.6,5,1,7.4,1.1
								c2.8-6.1,5.4-11.7,8.4-17.6c-2.8-0.1-5.6-0.6-8.4-1.2l4.9-11.7l22.8-8.9v-0.1c1.5-5.6,2.5-10.5,3.2-17l-0.5-0.1
								c-0.8,6.5-1.7,11.4-3.2,16.9l-22.8,8.9l-5,11.9c-0.8-0.2-1.7-0.4-2.5-0.6c2.7-6.3,4.9-11.5,5.6-13.1c2.2-0.8,22.4-8.8,23.1-9
								c0.4-1.6,2.2-9.8,2.6-12.4c-0.7,0.6-1.4,1.2-2.1,1.7c-0.4,1.9-1.9,8.3-2.3,9.7c-0.5,0.2-22.6,9-22.6,9l-2.1,4.9
								c-2.3-0.7-4.5-1.5-6.7-2.4c1.3-3.2,2.4-5.8,2.4-5.8l-1.1-1.4c-0.4-0.5-0.7-1-1.1-1.5c-2.7-3.7-15.7-21.3-19.9-26.8
								c1.2-3.6,2.2-7.2,3.1-10.9c1.2-4.8,2.1-9.7,2.7-14.7c0.3-2.9,0.7-5.8,0.8-8.8c0.8-0.6,2.1-1.1,2.9-0.6c1.1,0.7,1.5,1.7,1.6,3
								h0.1c0.4-0.5,0.5-1.1,0.5-1.7c1.2-1.5,2.3-3.2,3.4-4.8c0.6,1.9,1.3,11.8,28.1,20.8c0.1-0.8,0.1-1.3,0.3-2
								c-9.4-1.5-26.6-11.4-27.6-20.4c-0.1-0.5-0.8-0.7-1.1-0.2c-1.1,1.7-2.4,3.5-3.6,5.3c-0.3-0.5-0.7-1-1.2-1.3
								c-0.9-0.5-1.9-0.4-2.8,0c-0.4,0.2-0.9,0.4-1.3,0.7c-0.3-0.2-0.6-0.4-0.8-0.6c-0.4,3.2-0.6,6.4-1,9.5
								c-0.8,5.3-1.9,10.5-3.2,15.7c-0.9,3.4-2,7.4-3,10.7c1,1.5,21.6,29.9,22.2,30.6c-1.9,4.5-3.8,9-5.7,13.5
								c-4-1.7-7.9-3.6-11.4-5.5c-2.5,6.1-4.9,11.8-7.5,17.8c3.6,1.9,7.4,3.8,11.3,5.4c-2,4.6-4,9.3-5.9,13.9
								c-14-3.7-27.2-10.2-39-18.6c-5.3-3.8-9.9-8.4-13.7-13.6c1.2-4.2,7.3-22.9,9.4-29.3c3.4,1.6,7.4,1.9,11.6,1
								c1.6-0.3,3.1-0.9,4.7-1.6c11.9-5.1,27.2-21.5,31.5-50.8c0.1-0.3-0.1-0.7-0.4-0.9l-6.8-4.8c-0.3-0.2-0.6-0.2-0.9-0.1
								c-0.1,0.1-0.2,0.1-0.3,0.3c-0.7-0.5-1.3-1-1.9-1.4c-1.7,8.1-6.9,19.4-12.7,27.1c-3.1,4.1-6.5,8.2-10.4,11.6
								c-2.2,1.9-4.7,3.6-7.5,4.4c-0.9,0.3-2.1,0.4-3,0.5c-0.2,0.6-1.1,2.7-1.6,3.9c-0.2-0.1-0.4-0.1-0.5-0.2
								c-0.2-0.1-0.5-0.1-0.7,0s-0.4,0.3-0.5,0.5l-3.2,8.1c-0.2,0.4,0,0.8,0.3,1.1c0.3,0.2,0.6,0.4,0.9,0.6
								c-2.4,6.5-10,29.5-10,29.5c0.9,1.6,2,3.2,3.1,4.7c-0.1,0.6-0.2,1.2-0.4,1.8c-1.1,4.1-3.4,8.1-3.1,12.4
								c0.3,5,4.2,9.3,7.8,12.4c3.3,2.8,7,5.1,10.9,7l0,0c-0.1,0.4,0.1,0.9,0.5,1.1l9.1,4.5c0.2,0.1,0.4,0.1,0.6,0.1h0.1
								c0.2-0.1,0.4-0.3,0.5-0.5l0.1-0.4c10.8,4,22.3,6.3,33.8,6.5c1.4,0,2.9,0,4.3-0.1c0,0.3,0,0.5,0.2,0.7
								c0.2,0.3,0.6,0.4,0.9,0.3l7.9-1.8c0.3-0.1,0.5-0.3,0.6-0.5l4-9.4c0.3,0,0.6,0,0.9,0c2.6-4.6,4.9-10,7.6-14.5
								c3.1-5.3,8.1-9.3,12.3-13.6c1.9-1.9,3.9-3.9,5.8-6c0.1,0.1,0.1,0.1,0.2,0.2c0.2,0.1,0.4,0.1,0.6,0.1c0.2,0,0.4-0.1,0.5-0.3
								l5-5.9c0.1-0.1,0.2-0.2,0.2-0.4c0.2-0.8,0.3-1.5,0.5-2.3c1.4-2.1,2.7-4.2,3.7-6.4c0.4-2,0.7-4.1,1-6.1
								c1.7-1.2,4.3-2.9,4.5-3.1c0.1-0.5,1.4-6.8,1.8-9.3c0.9-5.4,1.4-10.8,1.3-16.3C231.5-277,231.2-276.8,230.9-276.5z
								 M139.9-268.4c-1.9-1.8-4.1-3.9-5.3-5.1l4.9,0.3L139.9-268.4z M134.7-274.4c1.5-1.2,2.9-2.5,4.4-4l0.3,4.3L134.7-274.4z
								 M140.8-268.6l-0.4-4.6l4.9,0.3C143.8-271.3,142.3-269.8,140.8-268.6z M140.4-274.1l-0.4-4.8l1,0.9l0.4-0.1l3.8,3.4l-0.1,0.2
								l0.7,0.7L140.4-274.1z M145.4-275.4l-3.3-2.9l0.7-0.2l2.8,2.5L145.4-275.4z M147.9-276.1l-0.9-1.8l1.2-1.6l1.8,0.5
								C149.4-278,148.7-277,147.9-276.1z M150.5-279.6l-2.4-0.7l-1.8,2.2l1.2,2.5c-0.4,0.4-0.7,0.9-1.1,1.3l-0.5-0.5l0.5-1.6
								l-3.4-3.1l-1.8,0.6l-0.9-0.9c0.2-0.2,0.4-0.4,0.6-0.7l3.2,0.3l1.8-2.4l-1.5-2.4c0.3-0.4,0.5-0.8,0.8-1.2l1.1,0.8v1.9l2.9,2.6
								l1.6-0.7l0.6,0.4C151-280.4,150.8-280,150.5-279.6z M141.3-280.9c0.9-1,1.7-2.1,2.5-3.2l1.1,1.7l-1.3,1.7L141.3-280.9z
								 M146.9-283.5v-0.9l3.1,2.6l-0.7,0.3L146.9-283.5z M151.7-281.4l-0.9-0.7l-0.2,0.1l-3.8-3.2v-0.2l-1.4-1
								c1.3-1.9,2.6-4,3.7-6.1l5.8,5.2C153.9-285.3,152.8-283.3,151.7-281.4z M157.2-315.4l5.1,3.6c-1.4,9.2-3.9,17-7,23.6l-5.8-5.1
								C153.2-300.3,155.9-307.9,157.2-315.4z M121-273.3c3-0.3,6.2-1.6,8.3-3c4.7-3.1,8.4-7.6,11.8-12c6.2-7.9,11.3-18.4,13.5-27.7
								c0.2,0.1,0.4,0.3,0.7,0.5c-3.1,17.6-14.7,36.6-26.3,42.8c-3.3,1.7-6.3,2.3-8.9,1.8C120.5-271.8,120.7-272.6,121-273.3z
								 M118.3-269.7c3.4,1.3,7.4,0.8,11.6-1.5c1.2-0.6,2.3-1.4,3.5-2.2c0.9,0.9,3.6,3.5,6.1,5.9c-2.6,2-5.1,3.5-7.5,4.6
								c-6.1,2.6-11.9,2.6-16.3-0.2L118.3-269.7z M177-210.7l2.9-6.5c0.5,0.1,1,0.2,1.5,0.3l-2.9,6.6
								C178-210.5,177.5-210.6,177-210.7z M174.2-211.5c-1.8-0.5-3.6-1.2-5.4-1.8c0.4-0.3,0.9-0.8,1.5-1.3l3.8,1.1L174.2-211.5z
								 M170.1-215.4l-0.1,0.1c-0.7,0.6-1.5,1.3-2,1.7c-0.3-0.1-0.5-0.2-0.8-0.3l0.3-0.7l1.8-0.5l1.2-3.2l-0.8-1.2l0.3-0.7
								c0.3,0.1,0.6,0.2,0.9,0.3l-0.2,2.9l4.2,1.6l2.7-2.4c0.4,0.1,0.9,0.2,1.3,0.3l-0.5,1.2l-1.8,0.1l-1.3,3.3l1,1.3L176-211
								c-0.4-0.1-0.8-0.2-1.2-0.4l-0.1-2.8L170.1-215.4z M169.4-218.8c0.1,0.2,0.2,0.3,0.4,0.6l-1,2.6l-0.9,0.2L169.4-218.8z
								 M173.3-227.6l0.8,2l-1.1,2.3l-2.1,1.1L173.3-227.6z M176.7-219.4c-1-0.3-2-0.6-3.1-1c0.3-0.4,0.7-0.9,1.1-1.5l2,0.7V-219.4z
								 M176.9-218l-2,1.8l-3.4-1.3l0.1-2.2C173.4-219,175.1-218.5,176.9-218z M176.1-213l1-2.5h1l-1.4,3.3L176.1-213z M179.7-219.1
								l-0.9-2.6l0.8-1.4l2.3-0.9L179.7-219.1z M182-216.1l1.2,3.1l-3.6,2.3L182-216.1z M180.2-210l3.3-2.1l1.1,2.7
								C183.1-209.5,181.7-209.7,180.2-210z M185.4-209.9l-1-2.7l3.4-2.2C186.9-213.2,186.1-211.6,185.4-209.9z M184-213.5l-1.2-3.2
								c1.7,0.3,3.5,0.5,5.2,0.6L184-213.5z M189.1-217.8l-1.2-3.2l4.1-2.5C191-221.5,190.1-219.6,189.1-217.8z M191.6-224.3l-4,2.5
								l-1.2-3.3C188.1-224.7,189.8-224.5,191.6-224.3z M188.3-217.4c-1.7-0.1-3.4-0.3-5.1-0.6l4-2.5L188.3-217.4z M186.8-221.3
								l-3.5,2.2l2.3-5.3L186.8-221.3z M183.6-225.7c0.5,0.1,1,0.2,1.5,0.3l-3.2,7.2c-0.5-0.1-1-0.2-1.5-0.3L183.6-225.7z
								 M177.8-237.4c2.2,0.9,4.4,1.7,6.7,2.4l-3.1,7c-2.2-0.7-4.4-1.4-6.5-2.3C175.6-231.9,176.7-234.7,177.8-237.4z M175.9-228.1
								c1.4,0.5,2.8,1,4.3,1.5l-1.9,1.9l-2.1-0.5L175.9-228.1z M173.9-228.9c0.4,0.2,0.9,0.4,1.4,0.5l0.4,3.7l2.9,0.7l2.4-2.4
								c0.6,0.2,1.2,0.4,1.8,0.5l-0.5,1l-3.2,1.3l-1.1,1.9l1,2.9c-0.6-0.1-1.1-0.3-1.7-0.4l0.1-2.4l-3-1l-0.2,0.2
								c-0.7,0.9-1.2,1.5-1.4,1.9c-0.7-0.2-1.4-0.5-2.1-0.8l2.7-1.4l1.3-2.7l-1.2-2.9L173.9-228.9z M173-229.3l-3.3,7.4
								c-0.5-0.2-1.1-0.4-1.6-0.6l3.3-7.5C172-229.7,172.5-229.5,173-229.3z M167.4-223.1c-0.6-1.6-1.4-3.4-2.1-5.2l5.1-1.8
								L167.4-223.1z M169.7-230.7l-4.6,1.6c-0.8-2-1.5-3.7-1.9-4.9C165.3-232.8,167.5-231.8,169.7-230.7z M166.4-223.2
								c-2.2-1-4.4-2-6.5-3.1l4.6-1.6C165-226.7,165.6-225.1,166.4-223.2z M162.2-233.8c0.3,0.9,0.9,2.4,1.9,5l-4.7,1.6
								C160.4-229.3,161.3-231.5,162.2-233.8z M165.9-222c-1.2,0.3-2.8,0.7-4.4,1l-2-4.1C161.6-224,163.7-222.9,165.9-222z
								 M158.5-224.9l2.1,4.3c-1.7,0.4-3.4,0.8-4.4,1C157-221.5,157.8-223.2,158.5-224.9z M156.7-218.8c1-0.2,2.6-0.6,4.3-1l2,4.2
								C160.9-216.7,158.8-217.7,156.7-218.8z M161.9-220.1c1.6-0.4,3.3-0.8,4.6-1.1l-2.5,5.6L161.9-220.1z M164.8-214.9l2.8-6.3
								c0.5,0.2,1.1,0.4,1.6,0.6l-2.8,6.3C165.8-214.5,165.3-214.7,164.8-214.9z M167.5-212.4c2.1,0.8,4.1,1.5,6.2,2.2l-1.2,2.7
								c-2.1-0.6-4.2-1.3-6.2-2.1C166.7-210.7,167.1-211.6,167.5-212.4z M120.8-197.6c-5.6-3.3-13.3-8.2-14.3-15.2
								c-0.4-2.5,0.6-4.9,1.3-7.2c0.6-1.8,1.1-3.8,1.5-5.8c2.1,2.5,4.4,4.8,6.9,6.9c3.6,3.1,7.5,5.9,11.6,8.5l-3.9,14.5
								C122.8-196.5,121.8-197,120.8-197.6z M132.7-190.1l-7.5-3.7l4.2-15.6c2.1,1.3,4.2,2.5,6.4,3.6c0.7,0.4,1.4,0.7,2.1,1.1
								L132.7-190.1z M142.4-188.5c-2.5-0.8-5-1.6-7.5-2.5l4.6-12.9c6.8,3.2,13.9,5.9,21.1,7.7c0,0,2.7-6.4,4.9-11.8
								c2,0.8,4.1,1.5,6.2,2.1l-4.8,11c3.1,0.6,6.2,1,9.4,1.3l-3.5,9.5C162.6-183.9,152.4-185.4,142.4-188.5z M180.4-184.9l-5.8,1.3
								l3.7-9.8c1.6,0.1,3.2,0.2,4.8,0.2c0.3,0,0.6,0,0.8,0L180.4-184.9z M186.1-195.7c-5.4,0-10.8-0.4-16.1-1.2
								c1.1-2.4,3.1-7.2,5.5-12.8c0.9,0.2,1.8,0.5,2.6,0.7l-4.2,10l0.3,0.1c4.2,1,8.2,1.1,13.1,0.9
								C186.9-197.3,186.5-196.5,186.1-195.7z M220.3-250.1l-0.2-0.2l0.4-3.2l0.5-0.7C220.8-252.9,220.6-251.5,220.3-250.1z
								 M219.7-261.9l2.7-1.1c-0.3,2.1-0.6,4.2-1,6.4l-2.5,0.9C219.2-257.9,219.5-260,219.7-261.9z M220.5-255.8l-0.4,0.8l-0.6,0.1
								l-0.1-0.5L220.5-255.8z M218.6-253.5l0.2,0.3l-0.4,2.9l-0.3,0.4C218.3-251.1,218.4-252.3,218.6-253.5z M218-249.1l0.9-0.9
								l0.4-3.3l-0.6-0.8c0-0.4,0.1-0.7,0.1-1l0.1-0.1l0.2,0.9l1.3-0.3l0.6-1.4l0.3-0.1c0,0.3-0.1,0.6-0.1,0.9l-1.1,1.5l-0.4,3.5
								l0.6,0.6c0,0.1,0,0.2-0.1,0.3l-0.3,0.1l-0.3-0.6l-1,0.2l-0.6,1h-0.1C217.9-248.7,218-248.9,218-249.1z M219.5-249l-0.8,0.3
								l0.2-0.4l0.5-0.1L219.5-249z M217.8-247.9l2.3-0.8c0,0.1,0,0.2-0.1,0.4l-1.5,2.8l-0.8-1.7
								C217.7-247.5,217.8-247.7,217.8-247.9z M217.6-246.5l0.6,1.4L217-243C217.2-244.2,217.4-245.3,217.6-246.5z M217.3-234.3
								l-2.4,2.9c0.7-3.3,1.4-6.7,1.9-10.1l2.2-0.9C218.4-239.7,217.9-237,217.3-234.3z M219-243l-2,0.8l1.4-2.4l0.6,1.4
								C219.1-243.2,219.1-243.1,219-243z M218.7-245.1l1.1-1.9c-0.2,1-0.4,2-0.6,3L218.7-245.1z"/>
						</g>
					</g>
				</g>
				
					<g transform="matrix(0.8384144902229309,-0.10399912297725677,0.10399912297725677,0.8384144902229309,56.56794357299805,76.8173828125)">
					<g transform="matrix(1,0,0,1,0,0)">
						<g transform="matrix(1,0,0,1,79.27300262451172,83.98600006103516)">
							<path class="st4" d="M265-46.1c4.5-10.6,11-18.9,18.7-25.9c-10.2-6.3-21.7-12.3-34-18.2l0.8-0.9l-6.2-3.6l-1.1,0.8l-9.3-7
								l0.6-0.8l-10-7.5l-1.1,0.2c-3.1-2.8-10.8-6.8-17.3-10.2c-5.5-3-10.1-5.6-11-5.2c-0.8,1.6,0.1,2.8,0.9,4c0,0-8-3.3-9.3-2.6
								c-1.3,0.7-0.7,1.5-0.7,1.5c-2.5-0.1-2.5,1.5-0.5,4.7c-2.1,1.5-0.8,4,2.9,7.1l5.5,2.2c8.2,6.4,17.5,13.2,21.7,18.5l-8.4,1.6
								c-5.2-0.1-12.1,2.7-10.8,7.2c1.8,2,6-1.7,11.8-1c3.4-0.4,7.3,0.8,11.6,2.8c5.1,1.3,9.6,1.7,13.3,0.5l6.1,4
								C244.8-70.3,254.9-58.1,265-46.1z"/>
						</g>
						<g transform="matrix(1,0,0,1,148.86900329589844,126.58399963378906)">
							<path class="st5" d="M205.7-116.6c-0.1,0.1-0.2,0.2-0.3,0.3c1.9,1.3,3.9,2.6,5.8,3.9c0.2-0.1,0.3-0.3,0.5-0.4
								C209.8-114.2,207.7-115.5,205.7-116.6z"/>
						</g>
						<g transform="matrix(1,0,0,1,144.8070068359375,128.95399475097656)">
							<path class="st5" d="M208.2-117.6c-0.3,0.2-0.5,0.5-0.8,0.7c1.1,0.8,2.3,1.6,3.4,2.5c0.8,0.6,1.5,1.2,2.3,1.8
								c0.3-0.3,0.6-0.6,0.8-0.9c-0.8-0.6-1.7-1.2-2.5-1.8C210.3-116.1,209.3-116.9,208.2-117.6z"/>
						</g>
						<g transform="matrix(1,0,0,1,141.61099243164062,131.06700134277344)">
							<path class="st5" d="M209.8-118.2c-0.2,0.2-0.4,0.4-0.6,0.6c1.1,0.8,2.2,1.6,3.2,2.4c0.9,0.6,1.7,1.3,2.5,2
								c0.2-0.3,0.5-0.5,0.7-0.8c-0.7-0.5-1.4-1-2-1.5C212.3-116.4,211-117.3,209.8-118.2z"/>
						</g>
						<g transform="matrix(1,0,0,1,137.59100341796875,133.9499969482422)">
							<path class="st5" d="M211.3-118.5c2,1.6,3.9,3.1,5.9,4.6c0.2-0.3,0.4-0.5,0.6-0.8c-1.9-1.6-3.9-3.1-5.9-4.5
								C211.7-118.9,211.5-118.7,211.3-118.5z"/>
						</g>
						<g transform="matrix(1,0,0,1,133.52000427246094,137.23199462890625)">
							<path class="st5" d="M213.6-119.6c2,1.5,4,3.1,6,4.6c0.1-0.2,0.3-0.4,0.4-0.6c-1.9-1.7-3.9-3.2-6.1-4.6
								C213.8-119.9,213.7-119.7,213.6-119.6z"/>
						</g>
						<g transform="matrix(1,0,0,1,129.89700317382812,140.58599853515625)">
							<path class="st5" d="M215.7-120.7c2,1.6,4,3.1,6,4.6c0.1-0.2,0.2-0.3,0.3-0.5c-1.9-1.6-4-3.2-6.1-4.6
								C215.9-121,215.8-120.8,215.7-120.7z"/>
						</g>
						<g transform="matrix(1,0,0,1,126.19400024414062,144.64300537109375)">
							<path class="st5" d="M217.9-122c1.9,1.5,3.8,3.1,5.7,4.5c0.2-0.2,0.3-0.5,0.5-0.7c-1.9-1.6-3.9-3-5.9-4.4
								C218.1-122.3,218-122.2,217.9-122z"/>
						</g>
						<g transform="matrix(1,0,0,1,122.28800201416016,148.9080047607422)">
							<path class="st5" d="M220.5-123.3c1.8,1.4,3.6,2.8,5.5,4.1c0.1-0.1,0.1-0.3,0.2-0.4c-1.8-1.4-3.6-2.8-5.5-4.1
								C220.6-123.6,220.6-123.4,220.5-123.3z"/>
						</g>
						<g transform="matrix(1,0,0,1,60.310001373291016,52.744998931884766)">
							<path class="st5" d="M245.5-76.3c-0.8-0.6-1.7-1.1-2.5-1.7c-2.8,1.3-5.4,3.6-7.1,5.6c-1,1.2-3,3.1-2.2,4.8
								c0.5,0.9,2,1.6,2.8,2.1c1.3,0.8,2.6,1.6,3.9,2.2l0.1-0.1c-0.5-0.8-1.1-1.5-1.7-2.2c-0.4-0.5-2.3-2.2-2.4-2.7
								c-0.1-1.3,2.1-3,3-3.9c1.3-1.2,2.8-2.3,4.4-3.1c0.6-0.3,1.2-0.6,1.8-0.9L245.5-76.3z"/>
						</g>
						<g transform="matrix(1,0,0,1,26.45599937438965,77.322998046875)">
							<path class="st5" d="M268.3-82.1c-5.5,1.6-10.3,0.4-14.5,2.4c-1.8,0.9-3.4,2.1-4.4,3.9c-0.7,1.3-1,1.2,0.3,2.4
								c0.2,0.2,0.6,0.2,0.8,0.1c1.4-0.5,0.9,0.7,1.4-0.6c0.9-2,2.9-2.9,4.8-3.7c3.7-1.6,8.2-2,11.6-4.4
								C268.4-81.9,268.4-82,268.3-82.1z"/>
						</g>
						<g transform="matrix(1,0,0,1,83.0250015258789,94.07099914550781)">
							<path class="st5" d="M231.9-93.8c-0.1,0.2-0.2,0.4-0.2,0.6c0.9,0.6,1.9,1.3,2.8,1.9c0.8,0.5,1.7,1.1,2.6,1.6
								c0.1-0.2,0.1-0.3,0.2-0.5c-0.6-0.4-1.2-0.7-1.8-1.1C234.3-92.2,233.1-93,231.9-93.8z"/>
						</g>
						<g transform="matrix(1,0,0,1,85.3219985961914,91.572998046875)">
							<path class="st5" d="M230.6-93c-0.1,0.2-0.2,0.5-0.3,0.7c1,0.6,1.9,1.1,2.8,1.7c0.9,0.6,1.8,1.2,2.7,1.8
								c0.1-0.2,0.2-0.4,0.3-0.6c-0.5-0.4-1-0.7-1.5-1.1C233.2-91.4,231.9-92.2,230.6-93z"/>
						</g>
						<g transform="matrix(1,0,0,1,87.79499816894531,88.58300018310547)">
							<path class="st5" d="M228.7-91.5c1.8,1.4,3.5,2.7,5.3,4c0.2-0.3,0.3-0.5,0.5-0.8c-1.8-1.3-3.6-2.6-5.5-3.8
								C228.9-91.9,228.8-91.7,228.7-91.5z"/>
						</g>
						<g transform="matrix(1,0,0,1,93.6729965209961,83.25299835205078)">
							<path class="st5" d="M225.3-89.8c1.9,1.3,3.7,2.6,5.6,3.8c0.2-0.2,0.3-0.4,0.5-0.6c-1.9-1.3-3.7-2.6-5.6-3.8
								C225.6-90.2,225.4-90,225.3-89.8z"/>
						</g>
						<g transform="matrix(1,0,0,1,96.48400115966797,81.46700286865234)">
							<path class="st5" d="M224.2-89.7c-0.1,0.1-0.3,0.3-0.4,0.4c1.9,1.2,3.8,2.5,5.8,3.7c0.2-0.2,0.3-0.3,0.5-0.4
								C228.1-87.4,226.1-88.6,224.2-89.7z"/>
						</g>
						<g transform="matrix(1,0,0,1,90.79399871826172,85.7509994506836)">
							<path class="st5" d="M227.2-91c-0.1,0.1-0.2,0.3-0.3,0.4c1.8,1.3,3.7,2.6,5.6,3.9c0.2-0.2,0.3-0.4,0.5-0.6
								C231.1-88.7,229.1-89.9,227.2-91z"/>
						</g>
						<g transform="matrix(1,0,0,1,81.07599639892578,97.19499969482422)">
							<path class="st5" d="M233.1-94.6c1.7,1.2,3.4,2.4,5.1,3.6c0-0.1,0.1-0.2,0.1-0.3c-1.7-1.2-3.4-2.4-5.2-3.5
								C233.2-94.8,233.2-94.7,233.1-94.6z"/>
						</g>
						<g transform="matrix(1,0,0,1,98.95500183105469,80.03199768066406)">
							<path class="st5" d="M222.5-89.1c1.8,1.3,3.7,2.6,5.7,3.7c0.1-0.1,0.2-0.2,0.3-0.3c-1.9-1.2-3.8-2.5-5.7-3.7
								C222.7-89.2,222.6-89.2,222.5-89.1z"/>
						</g>
						<g transform="matrix(1,0,0,1,18.243000030517578,23.256999969482422)">
							<path class="st5" d="M266.7-46.8c-3.9-2.1-8.1-3.6-12.1-5.7c-2.4-1.3-6-3.3-8.5-1.4c-0.2,0.1-0.2,0.4-0.2,0.6
								c0,0.1,0,0.2,0,0.3s0.1,0.2,0.2,0.2c3.1,0.5,6,1.6,9,2.8c3.7,1.4,7.6,2.6,11.5,3.4C266.7-46.6,266.8-46.7,266.7-46.8z"/>
						</g>
						<g transform="matrix(1,0,0,1,23.06599998474121,18.327999114990234)">
							<path class="st5" d="M266.1-44.5c-4.1-2.2-8.7-3.5-12.9-5.6c-3.5-1.7-7.8-4.7-11.8-4.4c-0.7,0.1-1.2,1-0.4,1.5
								c1.7,1,3.6,1.6,5.4,2.3c2.1,0.9,4.2,1.8,6.3,2.6c2,0.7,4,1.2,6,1.8c2.4,0.6,4.7,1.6,7.1,2.3C266.2-44,266.4-44.4,266.1-44.5z
								"/>
						</g>
						<g transform="matrix(1,0,0,1,25.17300033569336,13.024999618530273)">
							<path class="st5" d="M263-43.7c-3.1-2-7.1-3-10.6-4.2c-3.6-1.3-7.4-2.6-11.2-2.6c-0.5,0-0.8,0.7-0.3,1
								c3.2,2.1,7.2,3,10.9,3.8C255.3-44.9,259.2-43.6,263-43.7L263-43.7z"/>
						</g>
						<g transform="matrix(1,0,0,1,43.803001403808594,20.218000411987305)">
							<path class="st5" d="M261.6-40.5c-3-4.5-13.6-11.3-18.4-13.9c-2.3-1.3-4.7-2.5-7.1-3.6c-1.7-0.8-3.2-1.7-5.1-1.5
								c-0.7,0.1-0.5,1,0,1.2c8.8,3.8,24.7,10.1,30.2,18C261.4-40.1,261.7-40.3,261.6-40.5z"/>
						</g>
						<g transform="matrix(1,0,0,1,191.875,207.13499450683594)">
							<path d="M177.3-189.9c-0.8-0.5-1.3-1.3-5.2-4c-0.4-0.3-0.8-0.5-1.2-0.8c-0.4,0.4-0.6,0.6-1,1c3.5,2,3.7,2.2,7,4.8
								c13.6,11-4,30.1-19,21.6c-1.6-0.9-3.1-2.4-4.4-3.8c-0.2,0.6-0.4,1.2-0.6,1.8c0.7,0.8,2.9,2.8,4.1,3.6
								C175.7-157.7,190.5-180.5,177.3-189.9z"/>
						</g>
						<g transform="matrix(1,0,0,1,191.33900451660156,207.7429962158203)">
							<path class="st0" d="M161.1-165.9c-3-1.2-7.1-5.9-7.1-5.9c5.2-11.6,10.2-17.6,16.3-22.5c0,0,7.7,4.8,9.4,7.1
								C186.9-177.5,178.7-158.8,161.1-165.9z"/>
						</g>
						<g transform="matrix(1,0,0,1,183.1540069580078,207.60800170898438)">
							<path class="st3" d="M169.5-172.5c-1.2-4,0.9-6.7,2.9-9.4c2.3-3.2,4.9-6.2,7.7-8.9c0.6-0.6,1-1,1.6-1.5l-3.1-1.8
								c-6.2,4.9-11.2,10.9-16.3,22.5c0,0,3.8,4.7,7.1,5.9c4.7,1.8,7.6,1.7,7.7,1.8C177-164,170.6-168.9,169.5-172.5z"/>
						</g>
						<g transform="matrix(1,0,0,1,80.50299835205078,85.36599731445312)">
							<path d="M280.2-75.9c-3.9-2.3-7.9-4.5-11.9-6.6c-3.9-2-7.9-3.8-11.9-5.6c-1.9-0.9-5.9-2.8-7.1-3.5c0.3-0.3,0.6-0.6,0.9-0.8
								c-1.2-1-2.8-1.8-4-2.5c-0.8-0.4-3.1-2-3.6-1.6c-0.2,0.2-0.4,0.4-0.7,0.6c-2.3-1.8-7.1-5.3-8.3-6.2c0.4-0.5,0.3-1.2-0.2-1.6
								c-2.8-2.2-8.4-6.4-10.4-7.3c-0.2,0-0.5,0.1-0.8,0.2c-6.5-4.8-13.9-8-20.9-12c-2.7-1.6-7-4.3-8-3.2c-0.7,0.7-0.8,2.1-0.1,3.5
								c-0.1,0-0.1,0-0.2-0.1c-1.8-0.6-3.6-1.2-5.4-1.7c-0.9-0.3-2.3-0.8-3.2-0.2c-0.4,0.3-0.5,0.7-0.5,1.1c-0.9-0.1-1.7,0-2,1
								c-0.4,1.3,0.1,2.7,1.1,3.9c-0.5,0.2-0.9,0.7-1,1.5c-0.4,2.3,2.8,5.2,4.3,6.4c1.4,1.1,2.7,1.4,4.3,2c1.8,0.6,3.1,2.1,4.5,3.3
								c2.6,2.2,6,3.5,8.2,6c2.3,2.7,5.4,4.4,7.9,6.9c0.6,0.6,1.1,1.1,1.7,1.7c-1.2,0.1-2.5,0.4-3.9,0.8c-1.9,0.6-3.5,0.2-5.4,0.5
								c-5.8,0.8-8.4,3.1-9.5,5.3c-0.6,1.3-0.4,3.7,1.7,3.8c2.1,0.1,4.9-1.2,7.1-1.4c2-0.2,6.2-0.1,8.2,0.4c1.6,0.4,3.2,1.1,4.8,1.5
								c2.6,0.7,10.4,3.6,15.4,1.1c0.7,1.1,6,4.7,6.3,4.5c0-0.1,0.1-0.2,0.1-0.3c4.4,4.1,8.6,8.4,12.7,12.8c2.9,3.1,5.7,6.3,8.4,9.7
								c1.6,1.9,3.5,4.5,5.3,6.3c1.6-5,4.3-9.5,7.2-14c1.9-2.9,3.9-5.7,6.2-8.2c1.8-2,4.2-3.9,6.2-5.8
								C282.6-74.5,281.4-75.2,280.2-75.9z M232.2-103c-3.8,1.9-7.2,5.3-8.6,9c-0.8-0.5-8.6-6-10-7c0.2-0.4,0.3-0.8,0.6-1.3
								c0.7-1.2,1.6-2.2,2.5-3.1c1.9-1.9,4-3.8,6.6-4.7C225.5-108.3,231.5-103.6,232.2-103z M216.9-81.2c-2.2-0.6-4.3-1.5-6.5-1.9
								c-2.5-0.5-5.2-0.3-7.7-0.1c-1.2,0.1-6.5,2.2-6.9,1c-1-2.7,4.2-4.9,6-5.3c2.3-0.6,4.7-0.3,6.9-1c1.3-0.4,6.7-1.5,8-1.4
								c-0.5-0.3-1.1-0.5-1.6-0.6c-4.6-5.5-6.9-6.1-8.9-8c-1.1-1-1.7-2.3-2.7-3.2c-0.9-0.8-2.1-1.1-3.1-1.7
								c-2.6-1.5-4.5-3.6-6.8-5.4c-0.9-0.7-1.8-1.1-2.9-1.4c-1.6-0.4-3-1.2-4.2-2.4c-0.8-0.8-4.2-3.9-1.4-4.7
								c0.9-0.2,3.7,1.3,4.5,1.6c6.5,2.5,10.4,4.3,17.6,8.3c-5.9-5.1-12.2-7.8-19.4-10.4c-0.7-0.2-1.7-0.7-2.7-0.9
								c-1-1.1-1.8-2.2-1.3-3.1c0.6-1,4,1.1,5.1,1.6c1.5,0.7,3,1.3,4.5,2c5.6,2.5,12.3,4.6,16.2,7.3c-2.5-2.8-5.5-3.8-8.8-5.3
								c-4.5-2.1-9-4.2-13.5-6.2c-0.4-0.2-1-0.5-1.7-0.8c0.4-0.6,2.2,0.1,2.9,0.3c1.2,0.3,2.3,0.7,3.5,1c2.4,0.7,4.8,1.4,7.1,2.2
								c4.7,1.7,8.5,3.4,12.5,5.6c-5.1-4.2-10.5-6.2-16.5-8.2c-0.8-1.3-1.1-2.4-0.5-2.7c0.9-0.4,3,1.1,3.7,1.6
								c3.1,1.8,6.2,3.2,9.4,4.8c3.2,1.6,6.4,3.2,9.4,5.1c1.4,0.9,2.8,1.9,4.2,2.9c-3.6,1.7-9.1,6.5-8.7,10.1
								c1.9,1.6,8,5.9,10.5,7.6c0.5,0.4,1.2,0.2,1.6-0.3c1.4-2.2,2.9-4.5,5-6.2c0.9-0.8,1.9-1.5,3-2.1c2.7,2.2,5.7,4.3,8.7,6.1
								c-1.7,1.6-3.3,3.4-4.7,5.4c-2,2.8-4.1,6.5-4.9,10.1C226.2-78.3,221.5-80,216.9-81.2z M232.9-79c0.3-1.2,0.6-2.4,1.1-3.5
								c1-2.4,2.4-4.7,4-6.8s3.4-4,5.3-5.8c0,0,4.2,2.4,5,2.8c-5.7,3.7-9.3,9.6-11.3,16C236.3-76.7,233-78.9,232.9-79z M250.6-64.2
								c-3.8-4-7.7-8.5-12.2-11.9c0.8-2.4,1.9-4.8,3.2-6.9c1.8-2.9,4.3-5.5,6.9-7.9c1.2,0.7,4.9,2.8,6.6,3.6c3.8,2,7.7,3.8,11.5,5.8
								c2.8,1.5,5.6,3,8.4,4.5c-3.8,3.2-7.2,7-10.1,11c-2.3,3.4-4.5,7.3-5.7,11.3C256.5-57.8,253.6-61,250.6-64.2z M270.1-60.2
								c-2.2,3.3-4.7,7.2-6.2,11.2c-1.2-1.4-2.4-2.9-3.6-4.3c1.5-4.3,3.3-8.4,6-12.2c2.8-4,6.2-7.5,9.5-11c1.9,1.1,3.9,2.2,5.8,3.4
								C276.8-69.8,273.1-64.7,270.1-60.2z"/>
						</g>
					</g>
				</g>
			</g>
		</g>
	</g>
	<g id="Слой_10">
		<g>
			<path class="st10" d="M499.1,84.6c0.7,0.4,1,1.4,0.7,2.1s-0.8,1.4-1.3,2c-0.7,0.7-1.4,1.4-2.2,2.1c-0.8,0.7-1.6,1.4-2.3,2.1
				c-0.8,0.7-1.6,1.4-2.6,1.7c-1,0.2-2.3-0.3-2.5-1.3s0.6-1.8,1.2-2.5c1-1,2-2,3-3.1c1.5-1.6,3.3-3.2,5.5-3.4"/>
			<g>
				<path d="M499,84.9c0.8,0.5,0.8,1.6,0.4,2.4c-0.5,0.9-1.3,1.5-2,2.2c-0.8,0.7-1.6,1.4-2.4,2.2c-0.7,0.7-1.5,1.4-2.3,2
					c-0.7,0.5-1.5,0.9-2.4,0.7c-0.9-0.2-1.5-1.1-1-2c0.4-0.9,1.3-1.6,1.9-2.2c0.8-0.8,1.5-1.5,2.3-2.3c1.4-1.4,3-3,5.1-3.2
					c0.4,0,0.4-0.7,0-0.6c-2.2,0.2-3.9,1.7-5.5,3.2c-1,0.9-1.9,1.9-2.8,2.8c-0.7,0.7-1.7,1.5-1.8,2.6c-0.1,0.9,0.4,1.6,1.1,2
					c0.8,0.4,1.7,0.3,2.5,0c1-0.5,1.8-1.3,2.7-2.1c1-0.9,2-1.8,3-2.7c0.9-0.9,2-1.8,2.3-3c0.2-0.9,0-2-0.9-2.5
					C499,84.1,498.6,84.6,499,84.9L499,84.9z"/>
			</g>
		</g>
		<path class="st11" d="M445.7,70.4c0,0-3.4,8.1,1.4,12.6c4.8,4.6,7.5-10.5,7.5-10.5L445.7,70.4z"/>
		<path class="st11" d="M444.5,68.5c0,0-1.2-13.3,4.1-23.3s9.5-16.6,11.2-17.8c1-0.2,2-0.1,2-0.1s4.4-2.9,8.1-2.8
			c2.4-0.1,3.9-1,3.9-1l2.6-0.5c0,0,1.2-0.1,1.5-0.1s2.3-0.2,4,0.5c1.8,0.7,5.2,2.4,7,2.4c1.7,0,8.1,3.7,8.9,4.4
			c0.8,0.7,5.8,5.2,6.9,6.3s2.3,2.4,2.4,3.4c0.2,1,2,3,2,3s1,1.2,0.6,2.5c-0.4,1.2-0.5,2.3-0.5,2.3s2.2,0.2,3.3,1.3s1.2,2.3,1,2.7
			s-0.2,1.8-0.1,2.3c0.2,0.6-0.9,2-1.7,2.4s-1.1,1.6-1.1,1.6s1.9,0.8,1.8,1.9c-0.1,1.1-1.1,2-1.1,2s-0.7,1.3,0,2.7
			c0.7,1.3,0.2,5.4-0.4,6.9c-0.6,1.6-4.4,9.6-10.6,13.6c-3.9,0.1-8.6,9.2-8.6,9.2L444.5,68.5z"/>
		<g>
			<g>
				<path d="M445.7,58.5c0.6,0.7,0.8,1.6,0.7,2.5c0,0.1,0,0.3,0.2,0.3c0.1,0,0.3,0,0.3-0.2c0.1-1.1-0.1-2.1-0.8-3
					c-0.1-0.1-0.3-0.1-0.3,0C445.6,58.3,445.6,58.4,445.7,58.5L445.7,58.5z"/>
			</g>
		</g>
		<g>
			<g>
				<path d="M452.4,57.1c0-2.7,1-5.2,2.2-7.6c1.2-2.4,2.6-4.7,4-7.1c0.2-0.3-0.3-0.5-0.4-0.2c-1.4,2.5-2.9,5-4.2,7.5
					c-1.1,2.3-2,4.8-2,7.4C451.9,57.4,452.4,57.4,452.4,57.1L452.4,57.1z"/>
			</g>
		</g>
		<g>
			<g>
				<path d="M455.1,46.2c0.9-1,0.5-2.4,0.8-3.6c0.2-0.7,0.7-1.2,1.1-1.8c0.5-0.6,0.9-1.3,1.4-1.9c0.2-0.2-0.2-0.5-0.4-0.2
					c-0.5,0.6-0.9,1.2-1.4,1.8c-0.4,0.5-0.8,1-1.1,1.6c-0.5,1.2,0.2,2.7-0.8,3.7C454.5,46.1,454.8,46.5,455.1,46.2L455.1,46.2z"/>
			</g>
		</g>
		<g>
			<g>
				<path d="M464.3,31.1c0.3-0.9,0.6-1.7,0.9-2.6c0.2-0.7,0.6-1.6,1.4-1.6c0.3,0,0.3-0.5,0-0.5c-0.9,0-1.5,0.8-1.8,1.6
					c-0.4,1-0.7,2-1,2.9C463.8,31.3,464.2,31.4,464.3,31.1L464.3,31.1z"/>
			</g>
		</g>
		<g>
			<g>
				<path d="M463.9,40.2c0.1-2.3,0.3-5,2.5-6.4c0.9-0.5,1.8-0.9,2.5-1.6c0.8-0.7,1.4-1.5,1.8-2.4c0.1-0.3-0.3-0.5-0.4-0.2
					c-0.5,1-1.2,1.9-2.1,2.6s-2,1-2.8,1.8c-1.7,1.6-1.9,4.1-2,6.2C463.4,40.5,463.9,40.5,463.9,40.2L463.9,40.2z"/>
			</g>
		</g>
		<g>
			<g>
				<path d="M467.5,36.1c0-0.8,0-1.7,0-2.5c0-0.3-0.5-0.3-0.5,0c0,0.8,0,1.7,0,2.5C467,36.4,467.4,36.4,467.5,36.1L467.5,36.1z"/>
			</g>
		</g>
		<g>
			<g>
				<path d="M473.4,30.4c-0.9,2.4-1,5-0.5,7.6c0.1,0.3,0.5,0.2,0.5-0.1c-0.5-2.4-0.3-5,0.5-7.3C474,30.2,473.5,30.1,473.4,30.4
					L473.4,30.4z"/>
			</g>
		</g>
		<g>
			<g>
				<path d="M476.9,30.3c2.1,0.8,4.4,1.1,6.7,0.9c2.3-0.3,4.8-1.7,7.1-0.7c0.3,0.1,0.5-0.3,0.2-0.4c-2.1-0.9-4.3,0.1-6.4,0.5
					c-2.5,0.5-5.1,0.2-7.5-0.7C476.7,29.7,476.6,30.2,476.9,30.3L476.9,30.3z"/>
			</g>
		</g>
		<g>
			<g>
				<path d="M483,39.6c0.9-0.5,1.2-1.5,1.5-2.4s0.7-2,1.7-2.1c0.3,0,0.2-0.5-0.1-0.5c-1,0.1-1.6,1-1.9,1.9s-0.5,2.1-1.5,2.6
					C482.5,39.3,482.8,39.7,483,39.6L483,39.6z"/>
			</g>
		</g>
		<g>
			<g>
				<path d="M479.8,33.6c0.1,1-0.5,1.8-0.6,2.7c-0.1,0.7,0,1.5,0.7,2c0.3,0.2,0.5-0.2,0.2-0.4c-0.6-0.4-0.6-1.3-0.4-1.9
					c0.2-0.8,0.6-1.5,0.5-2.4C480.3,33.3,479.8,33.3,479.8,33.6L479.8,33.6z"/>
			</g>
		</g>
		<g>
			<g>
				<path d="M489.2,34.7c2.6-0.4,5,0.9,6.9,2.6c0.9,0.8,1.6,1.6,2.4,2.5c0.7,0.8,1.9,2.5,0.6,3.4c-0.3,0.2,0,0.6,0.2,0.4
					c1-0.7,1-1.9,0.4-2.9c-0.3-0.6-0.9-1.2-1.3-1.7c-0.5-0.6-1-1.1-1.6-1.7c-2.1-2-4.8-3.5-7.8-3.1
					C488.7,34.2,488.9,34.7,489.2,34.7L489.2,34.7z"/>
			</g>
		</g>
		<g>
			<g>
				<path d="M491.2,40.1c1.8,0.5,2.6,2.2,3.2,3.8s1,3.2,2.2,4.4c0.2,0.2,0.5-0.1,0.3-0.3c-2.3-2.4-1.8-7.3-5.6-8.4
					C491,39.6,490.9,40,491.2,40.1L491.2,40.1z"/>
			</g>
		</g>
		<g>
			<g>
				<path d="M500.4,49.8c0.8-0.2,1.3-1,1.6-1.7c0.4-0.9,0.7-1.8,1.1-2.7c0.1-0.3-0.3-0.4-0.5-0.1c-0.3,0.8-0.6,1.6-1,2.4
					c-0.3,0.7-0.6,1.5-1.4,1.7C500,49.4,500.1,49.8,500.4,49.8L500.4,49.8z"/>
			</g>
		</g>
		<g>
			<g>
				<path d="M504.6,47.4c0.2,0.8,0,1.6-0.3,2.2c-0.3,0.6-1,1.3-0.6,2c0.1,0.3,0.5,0,0.4-0.2c-0.2-0.4,0.1-0.7,0.3-1
					c0.2-0.3,0.4-0.6,0.5-1c0.3-0.7,0.3-1.4,0.2-2.2C505,47,504.6,47.1,504.6,47.4L504.6,47.4z"/>
			</g>
		</g>
		<g>
			<g>
				<path d="M506.2,56.1c1,0.7,2.4,0.4,3.3-0.3c1.1-0.8,1.7-2,2.2-3.2c0.1-0.3-0.3-0.4-0.5-0.1c-0.4,1.1-1,2.1-1.9,2.9
					c-0.8,0.7-2,0.9-3,0.3C506.2,55.5,505.9,55.9,506.2,56.1L506.2,56.1z"/>
			</g>
		</g>
		<g>
			<g>
				<path d="M509.7,51c-0.4-1.3-0.5-2.7-0.3-4.1c0.1-0.3-0.4-0.4-0.5-0.1c-0.3,1.4-0.2,2.9,0.3,4.3C509.4,51.4,509.8,51.3,509.7,51
					L509.7,51z"/>
			</g>
		</g>
		<g>
			<g>
				<path d="M507.8,66.4c0.8-0.2,1.8,0.3,2.1,1.1c0,0.1,0.2,0.2,0.3,0.2c0.1,0,0.2-0.2,0.2-0.3c-0.4-1-1.6-1.7-2.7-1.4
					c-0.1,0-0.2,0.2-0.2,0.3C507.6,66.4,507.7,66.4,507.8,66.4L507.8,66.4z"/>
			</g>
		</g>
		<g>
			<path class="st10" d="M453.2,64c0.1-0.8,0.1-1.7,0-2.5c-0.2-0.8-0.6-1.6-1.3-2.1c-0.9-0.6-2.1-0.5-3.1,0s-1.7,1.3-2.3,2.2
				c-1.5,2.1-2.6,4.4-3.1,6.9c-0.2,1.1-0.4,2.3,0.1,3.3c0.4,0.9,1.4,1.6,2.4,1.7s2.1-0.4,2.7-1.3"/>
			<g>
				<path d="M453.5,64c0.2-1.8,0.1-4.2-1.9-5c-1.9-0.8-3.8,0.5-5,2c-1.4,1.8-2.5,3.8-3.1,6c-0.6,1.8-1.2,4.3,0.2,5.9
					c1.4,1.6,3.9,1.3,5.1-0.3c0.2-0.3-0.3-0.6-0.5-0.3c-0.7,0.9-1.8,1.3-2.9,1c-1.2-0.4-1.9-1.4-1.9-2.6c-0.1-1.1,0.3-2.2,0.6-3.3
					c0.3-1.1,0.8-2.1,1.3-3.1c0.9-1.8,2.3-4.2,4.4-4.7c1.2-0.3,2.3,0.2,2.8,1.3c0.5,1,0.4,2.2,0.3,3.3
					C452.9,64.4,453.5,64.4,453.5,64L453.5,64z"/>
			</g>
		</g>
		<g>
			<g>
				<path d="M448.6,70.8c1-1.2,1.7-2.7,1.9-4.3c0.2-1.4-0.3-3.1-1.8-3.5c-0.7-0.2-1.4,0-1.9,0.5c-0.6,0.6-0.8,1.4-1,2.1
					s-0.3,1.4,0,2.1c0.3,0.5,0.9,0.7,1.4,0.7c1.5-0.1,1.8-2.1,0.5-2.8c-0.4-0.2-0.7,0.4-0.3,0.5c0.8,0.4,0.6,1.7-0.4,1.6
					c-1.3-0.1-0.7-1.9-0.4-2.6c0.3-1,1.2-2.1,2.4-1.4c1,0.6,1.1,2,0.8,3.1c-0.3,1.2-0.8,2.4-1.6,3.4
					C447.9,70.7,448.4,71.1,448.6,70.8L448.6,70.8z"/>
			</g>
		</g>
		<g>
			<path class="st12" d="M450.8,69.2c-4.2,5.6-8.1,14.3-9.4,19.5c-1,4.2,0.5,16.4,5.2,22s13,9.3,20.1,7.4c3.3-0.9,6.9-3.6,9.8-5.5
				c2.3-1.5,5-4.1,7-6c4.2-4.1,6.6-8.7,8.9-14.1"/>
		</g>
		<g>
			<path class="st10" d="M449.4,95.8c-0.4,1.2,1.9,7.3,3.9,9.3c1.1,1,3.8,3.1,5.2,2.4c0.9-0.4,0.4-3.2,1.1-3.9c1-1,2.4-0.4,3.7,0.3
				s3.5,1.3,3.3,2.7c-0.1,0.8-2.2,3.3-1.9,4c0.3,0.7,3.1,0.9,5.9,0.1c2.8-0.9,4.7-2.2,6.8-4.2c0.8-0.7,1.5-3,1.9-4s0.1-1.6-0.6-2.4
				c-0.9-1.1-2.6-1.1-4-1.1c-6.3-0.2-10.2-2.3-15.1-6c-1.5-1.2-3.2-2.6-5.1-2.5s-3,1.7-4.1,3.3C449.4,94.9,449.4,95.8,449.4,95.8"/>
		</g>
		<g>
			<path class="st10" d="M450.2,69.9c-4.5,9.5-4.8,11.8-4.7,18.3c0,0.8,0,2.2,0.5,2.9c0.4,0.7,1.3,1.2,2.1,0.9
				c0.7-0.3,1.5-1.1,1.8-1.8c1.4-2.7,4.2-4.2,7.2-3.7s6.2,2.2,8.7,3.9c2.6,1.7,5,3.8,8,4.3c1.7,0.3,2.4-0.2,3.7-0.4
				c1.7,0.4,5.2,3.7,5.9,6.3c-0.6,2.1-2,4.6-1.3,5.2c1.3,0.4,3.1-1.3,3.9-2.4c1.3-1.7,2.5-3.1,3.5-5c1.5-2.8,3.4-5.6,2.5-8.7
				c-0.9-2.9-4.5-5.6-7.1-7.4c-7.7-5.4-16.1-9.8-24.9-13c-1.5-0.6-3.1-1.1-4.7-1.3c-1.6-0.2-3.4,0.1-4.7,1"/>
		</g>
		<g>
			<path class="st10" d="M451,68.6c2.2-6,6.7-11.7,8.6-15.2c2.1-3.9,5.4-11,7-12.2c0,0,1.4-2.1,3.6-1.4c5.5,1.8,10,1.8,18,6
				c3.5,1.9,8.1,6.2,12.4,8c1.8,0.8,2.7,1.2,3.6,2.9c1.1,1.9,0.8,5.2,0.1,7.3c-0.7,2.1-1.1,4.4-2.2,6.3c-4.6,8.8-7.7,14.1-9.8,22.3"
				/>
		</g>
		<path class="st13" d="M457.5,62.3c0,0,1.8-3.1,3-3.6c1.3-0.5,4.6-3.8,6.7-7.8s4.4-6.8,9.7-6.6c5.3,0.2,11.9,3.5,11.9,3.5
			s8.9,5.2,9.7,4.7c-2.2,0-9.3-7.7-22.9-11.4c-3.3-0.9-5.7-2.1-8-0.8c-3.7,2.1-5.5,8.4-8.5,14c-4.1,7.7-8.8,14.9-9,16
			C453.7,69.5,457.5,62.3,457.5,62.3z"/>
		<g>
			<path class="st12" d="M460.2,63.2c1.6-1.5,3.8-2.2,5.9-2.1s4.2,0.8,6.1,1.9c1.8,1.1,3.5,2.5,5,3.9c0.4,0.3,0.7,0.7,0.9,1.1
				c0.2,0.4,0.3,1,0,1.4c-0.3,0.5-0.9,0.7-1.5,0.6c-0.5-0.1-1-0.4-1.5-0.7c-2.4-1.5-4.5-3.3-7-4.7s-5.4-2.2-8.1-1.4"/>
			<g>
				<path d="M460.4,63.5c2.7-2.4,6.5-2.4,9.6-1.1c1.7,0.7,3.3,1.8,4.8,2.9c0.6,0.5,1.1,1,1.7,1.5c0.6,0.6,2.6,2.4,0.8,2.9
					c-0.9,0.3-1.8-0.5-2.5-0.9c-0.6-0.4-1.3-0.8-1.9-1.3c-1.4-1-2.8-2-4.3-2.9c-2.6-1.5-5.6-2.4-8.6-1.6c-0.4,0.1-0.2,0.7,0.2,0.6
					c3.3-0.9,6.6,0.5,9.4,2.3c1.4,0.9,2.7,1.9,4,2.8c1,0.7,2.2,1.7,3.4,1.7c1,0,1.8-0.7,1.7-1.8c-0.1-1.3-1.5-2.2-2.4-3
					c-2.2-2-4.8-3.7-7.7-4.5c-3-0.8-6.2-0.3-8.6,1.8C459.6,63.3,460.1,63.7,460.4,63.5L460.4,63.5z"/>
			</g>
		</g>
		<g>
			<path class="st12" d="M496.9,80.3c-0.1-0.8-0.5-1.5-1-2.1s-1.2-1.1-1.8-1.5c-2.4-1.7-4.9-3.4-7.7-4.3c-0.4-0.1-0.8-0.3-1.3-0.3
				s-0.9,0.1-1.2,0.5c-0.6,0.6-0.3,1.7,0.3,2.3s1.5,0.8,2.3,1.1c3.6,1.2,6.9,3.3,9.5,6.1"/>
			<g>
				<path d="M497.2,80.3c-0.3-2.3-2.4-3.6-4.1-4.8c-2-1.4-4.2-2.7-6.5-3.5c-0.9-0.3-2-0.5-2.7,0.3c-0.6,0.6-0.5,1.5-0.1,2.2
					c0.5,0.8,1.4,1.2,2.3,1.5c1.2,0.4,2.3,0.8,3.4,1.3c2.4,1.2,4.6,2.9,6.5,4.9c0.3,0.3,0.7-0.1,0.4-0.4c-2.6-2.8-5.9-5-9.5-6.2
					c-0.9-0.3-2-0.5-2.5-1.4c-0.3-0.4-0.4-1.1,0-1.5c0.4-0.5,1.2-0.4,1.7-0.3c2,0.5,3.9,1.6,5.7,2.8c1,0.6,1.9,1.3,2.9,2
					c1,0.8,2,1.7,2.1,3C496.6,80.7,497.3,80.7,497.2,80.3L497.2,80.3z"/>
			</g>
		</g>
		<g class="st14">
			<path class="st15" d="M458.6,67.2c-0.4,0.5-0.4,1.2-0.1,1.7c0.2,0.5,0.6,0.8,1,1.2c2.8,2.2,6,3.8,9.5,4.6c0.5,0.1,1,0.2,1.6,0.2
				s1.1-0.3,1.5-0.8c0.6-0.7,0.7-1.8,0.5-2.6c-0.3-1.8-1.2-3.4-2.4-4.4c-1.2-1.1-2.8-1.7-4.4-2c-1.2-0.2-2.4-0.3-3.6,0
				s-2.5,1-3.4,2.1"/>
			<g class="st16">
				<path class="st17" d="M458.3,67c-0.6,1-0.3,2.2,0.5,3c1,1,2.3,1.7,3.5,2.4c1.2,0.7,2.5,1.3,3.8,1.8s2.9,1.2,4.3,1.1
					c2.8-0.2,2.9-3.4,2.1-5.5c-0.9-2.4-3-4.1-5.4-4.9c-3.1-1-6.4-0.7-8.7,1.8c-0.3,0.3,0.2,0.8,0.5,0.5c3.2-3.6,9.7-2.4,12.2,1.4
					c1,1.5,2.2,5.2-0.3,5.8c-1.1,0.3-2.5-0.3-3.6-0.6c-1.1-0.4-2.1-0.8-3.2-1.3c-1.1-0.6-2.2-1.2-3.2-1.9c-1-0.7-2.8-1.8-1.9-3.3
					C459.2,67,458.6,66.6,458.3,67L458.3,67z"/>
			</g>
		</g>
		<g>
			<path class="st18" d="M480.7,78.8c-0.4,0.2-0.5,0.7-0.3,1.1s0.5,0.7,0.8,1c2.7,2.2,5.8,3.9,9.2,5c0.5,0.1,1,0.3,1.5,0.2
				c0.5,0,1-0.3,1.3-0.7c0.2-0.4,0.2-0.8,0.1-1.2c-0.1-0.4-0.4-0.8-0.6-1.1c-1.6-2.1-3.4-3.4-5.8-4.5c-0.9-0.4-2.3-0.9-3.4-0.9
				c-1,0-2,0.2-2.6,1"/>
			<g>
				<path class="st17" d="M480.5,78.5c-2.1,1.5,2,3.8,3,4.4c2.2,1.4,4.6,2.6,7.1,3.3c0.9,0.3,2.2,0.3,2.8-0.7c0.6-1-0.1-2.1-0.7-2.8
					c-1.4-1.8-3.3-3.2-5.4-4.2C485.3,77.5,482.2,76.4,480.5,78.5c-0.3,0.2,0.1,0.7,0.4,0.4c1.3-1.5,3.6-0.9,5.2-0.2
					c1.7,0.7,3.3,1.6,4.6,2.8c0.7,0.6,1.3,1.3,1.8,2.1c0.3,0.4,0.6,1,0.4,1.6c-0.3,0.7-1.1,0.7-1.7,0.6c-0.9-0.2-1.9-0.6-2.8-0.9
					c-1-0.4-1.9-0.8-2.8-1.3c-1-0.5-1.9-1.1-2.8-1.7c-0.4-0.3-3-1.9-2-2.7C481.2,78.8,480.9,78.3,480.5,78.5L480.5,78.5z"/>
			</g>
		</g>
		<g>
			<path d="M491,82.3c-0.4-0.3-0.9-0.6-1.5-0.4c-0.6,0.1-1.1,0.7-1.2,1.3c-0.1,0.4,0.1,0.8,0.3,1.1c0.3,0.5,0.9,0.7,1.4,0.6
				c0.6-0.1,1.2-0.7,1.3-1.3c0.1-0.4-0.1-0.7-0.2-1c-0.2-0.3-0.4-0.5-0.7-0.7"/>
			<g>
				<path class="st17" d="M491.3,82c-0.7-0.6-1.6-0.8-2.4-0.4s-1.2,1.3-1,2.2c0.2,0.8,0.9,1.5,1.8,1.6c0.8,0.1,1.6-0.5,1.9-1.2
					c0.2-0.5,0.2-1,0-1.4c-0.2-0.5-0.5-0.8-0.9-1.2c-0.2-0.1-0.4-0.2-0.6,0s-0.2,0.5,0,0.6c0.2,0.2,0.5,0.4,0.6,0.7
					c0.1,0.2,0.2,0.5,0.2,0.7c-0.1,0.3-0.2,0.4-0.4,0.6c-0.1,0.1-0.1,0.1-0.3,0.2h-0.1c0.1,0,0,0,0,0H490h-0.1c-0.3,0-0.5,0-0.7-0.2
					c-0.2-0.1-0.4-0.3-0.5-0.6c-0.1-0.2-0.1-0.5,0-0.7c0-0.1,0,0,0,0s0-0.1,0.1-0.1l0.1-0.1l0.1-0.1c0,0,0,0,0.1-0.1
					c0,0,0.1-0.1,0.1,0c0.5-0.4,1.1-0.3,1.6,0.1c0.2,0.1,0.4,0.2,0.6,0C491.5,82.4,491.5,82.1,491.3,82L491.3,82z"/>
			</g>
		</g>
		<g>
			<path class="st18" d="M473.9,75c0,0.4-0.4,0.8-0.8,0.9s-0.8,0-1.2-0.2c-3.3-1.1-6.5-2.8-9.2-5c-0.4-0.3-0.8-0.7-1-1.1
				s-0.3-1-0.1-1.4c0.2-0.4,0.6-0.6,1-0.8c0.4-0.1,0.9-0.1,1.3-0.1c2.6,0.2,4.7,1.1,6.9,2.5c0.9,0.6,2.1,1.4,2.6,2.3
				C474,73,474.3,73.9,473.9,75"/>
			<g>
				<path class="st17" d="M473.6,75c-0.1,1.2-2.3,0.2-2.8,0c-0.9-0.4-1.9-0.8-2.8-1.2c-1.7-0.9-3.3-1.9-4.8-3.1
					c-0.7-0.6-2.1-1.7-1-2.7c0.7-0.7,2.2-0.3,3.1-0.2c1.7,0.3,3.4,1,4.9,1.9c1.7,1,4.3,2.8,3.6,5.1c-0.1,0.4,0.5,0.6,0.6,0.2
					c0.7-2.3-1.4-4.2-3.2-5.4c-1.9-1.3-4.1-2.2-6.4-2.5c-1-0.1-2.3-0.3-3.1,0.5c-0.7,0.7-0.4,1.8,0.1,2.5c0.8,0.9,1.9,1.7,2.9,2.4
					c1.1,0.7,2.2,1.4,3.3,2c1.2,0.6,2.5,1.2,3.9,1.6c0.9,0.3,2.4,0.3,2.4-1C474.2,74.6,473.6,74.6,473.6,75L473.6,75z"/>
			</g>
		</g>
		<g>
			<path d="M471.7,71.6c0.5,0.2,1,0.5,1.2,1s0.1,1.3-0.4,1.7c-0.3,0.3-0.7,0.4-1.1,0.4c-0.6,0-1.1-0.3-1.3-0.9
				c-0.2-0.5-0.1-1.3,0.4-1.8c0.3-0.3,0.7-0.4,1-0.4s0.7,0.1,1,0.2"/>
			<g>
				<path class="st17" d="M471.6,72c0.2,0.1,0.5,0.2,0.6,0.4c0.1,0.1,0.1,0.1,0.2,0.3c0,0.1,0-0.1,0,0c0,0,0,0,0,0.1v0.1
					c0,0.1,0-0.1,0,0s0,0.1,0,0.2v0.1c0,0.1,0,0,0,0c0,0.1,0,0.1,0,0.2v0.1v0.1l0,0c-0.1,0.2-0.2,0.4-0.5,0.5
					c-0.2,0.1-0.5,0.1-0.7,0.1c-0.1,0-0.1,0-0.2-0.1c0,0-0.1,0,0,0h-0.1c-0.1,0-0.1-0.1-0.2-0.1c0.1,0,0,0,0,0l-0.1-0.1
					c0,0-0.1-0.1,0,0c0,0,0-0.1-0.1-0.1c0,0,0-0.1-0.1-0.1c0-0.1,0,0,0,0c0-0.1,0-0.1-0.1-0.2v-0.1c0,0.1,0-0.1,0-0.1
					c0-0.1,0-0.1,0-0.2s0,0.1,0-0.1v-0.1c0-0.1,0-0.1,0.1-0.2c0,0,0-0.1,0,0c0,0,0-0.1,0.1-0.1c0.1-0.2,0.4-0.4,0.7-0.5h0.1h0.1
					c0.1,0,0.2,0,0.3,0c0.2,0,0.4,0.1,0.6,0.2s0.5-0.1,0.5-0.3c0.1-0.2-0.1-0.5-0.3-0.5c-0.5-0.2-1-0.3-1.5-0.2
					c-0.4,0.1-0.8,0.3-1.1,0.6c-0.5,0.6-0.6,1.6-0.2,2.3c0.5,0.7,1.4,1,2.2,0.8c0.9-0.2,1.4-1,1.4-1.9c0-1-0.7-1.7-1.6-2
					c-0.2-0.1-0.5,0.1-0.5,0.3C471.2,71.7,471.4,71.9,471.6,72L471.6,72z"/>
			</g>
		</g>
		<g class="st14">
			<path class="st16" d="M469.4,68.9c-0.9-0.4-2.1-0.1-2.7,0.7c-0.5,0.8-0.3,2.1,0.5,2.7c0.5,0.4,1.3,0.6,2,0.4
				c0.8-0.3,1.3-1.1,1.3-1.9s-0.5-1.6-1.3-2"/>
			<g class="st16">
				<path class="st17" d="M469.7,68.4c-1-0.4-2.1-0.3-2.9,0.4c-0.8,0.7-1,1.8-0.7,2.7c0.4,1.1,1.4,1.8,2.5,1.8s2.1-0.8,2.4-1.9
					c0.3-1.2-0.4-2.6-1.4-3.2c-0.3-0.1-0.6-0.1-0.8,0.2c-0.1,0.3-0.1,0.6,0.2,0.8c0.7,0.4,1,1,1,1.7c0,0.2,0-0.1,0,0.1v0.1
					c0,0.1,0,0.2-0.1,0.3c0-0.1,0,0.1,0,0.1s0,0.1-0.1,0.1l-0.1,0.1c-0.1,0.1,0,0-0.1,0.1c-0.1,0.2-0.2,0.2-0.4,0.3
					c-0.2,0.1-0.3,0.1-0.5,0.2c-0.1,0,0.1,0-0.1,0h-0.1c-0.1,0-0.1,0-0.2,0s-0.1,0,0,0c-0.2,0-0.4-0.1-0.6-0.2s-0.3-0.1-0.4-0.3
					c0,0,0-0.1-0.1-0.1c-0.1-0.1,0,0.1,0-0.1c-0.1-0.1-0.1-0.2-0.1-0.3c-0.1-0.2-0.2-0.5-0.2-0.9c0,0,0-0.2,0-0.1s0-0.1,0-0.1
					c0-0.1,0-0.2,0.1-0.2c0-0.1,0,0,0,0s0-0.1,0.1-0.1c0,0,0-0.1,0.1-0.1c0-0.1,0-0.1,0,0c0,0,0,0,0.1-0.1c0.3-0.3,0.5-0.4,0.9-0.5
					h0.1c-0.1,0,0,0,0.1,0s0.2,0,0.3,0c0.2,0-0.1,0,0,0s0.1,0,0.2,0h0.1c0,0,0.2,0.1,0.1,0c0.3,0.1,0.6,0.1,0.8-0.2
					C470.1,69,470,68.6,469.7,68.4L469.7,68.4z"/>
			</g>
		</g>
		<g>
			<g>
				<path d="M451,68.1c-2.1,3.4-3.9,7.1-5,11c-0.9,3.2-1.5,6.5-0.7,9.8c0.2,1,0.5,2.4,1.3,3.1c0.7,0.6,1.8,0.3,2.5-0.3
					c1.1-0.9,1.6-2.3,2.4-3.4c1.3-1.7,3.6-1.9,5.6-1.5c2.4,0.4,4.6,1.4,6.6,2.7c1.8,1.3,3.5,2.6,5.6,3.4c0.4,0.1,0.5-0.5,0.2-0.6
					c-3.4-1.3-6-4.2-9.5-5.5c-2.5-0.9-6-1.6-8.3,0.3c-1,0.8-1.4,1.9-2.1,2.9c-0.4,0.7-1,1.4-1.8,1.5c-1,0.2-1.4-0.9-1.6-1.7
					c-0.9-3.2-0.7-6.2,0.1-9.4c1-4.3,2.9-8.3,5.3-12.1C451.7,68.1,451.2,67.7,451,68.1L451,68.1z"/>
			</g>
		</g>
		<g>
			<g>
				<path d="M477.7,94.6c1.4,0.9,2.7,1.7,3.7,3c0.6,0.7,1.3,1.5,1.6,2.5c0.2,0.7,0,1.3-0.3,2c-0.4,1-1.1,2.2-1.2,3.3
					c-0.1,1.4,1.6,0.7,2.3,0.3c0.9-0.5,1.9-1.3,2.6-2.1c0.3-0.3-0.2-0.7-0.4-0.4c-0.7,0.7-1.5,1.3-2.2,1.9c-0.3,0.2-1.1,0.8-1.5,0.6
					c-0.3-0.1,0.1-1.1,0.2-1.3c0.2-0.6,0.5-1.2,0.7-1.7c0.2-0.4,0.4-0.9,0.5-1.4c0.3-1.6-0.9-2.9-1.8-4c-1.1-1.3-2.5-2.2-3.9-3.1
					C477.6,93.8,477.3,94.3,477.7,94.6L477.7,94.6z"/>
			</g>
		</g>
		<g>
			<g>
				<path d="M465.9,85.2c-0.8,0.7-1.7,1.6-1.5,2.8c0.2,1.2,1.5,2.2,2.3,2.9c1.9,1.6,4.3,3.6,6.9,3.9c1.8,0.3,4.4,0,5.6-1.6
					c0.6-0.8,0.6-1.8,0.4-2.7c-0.2-1.5-0.6-2.9-0.7-4.4c-0.1-3.8,1-7.4,3.2-10.5c0.2-0.3-0.3-0.6-0.5-0.3c-2.8,4-3.9,9.1-2.9,13.9
					c0.2,1,0.7,2.4,0.1,3.4c-0.5,0.9-1.7,1.3-2.7,1.5c-2.4,0.5-4.5-0.5-6.4-1.8c-1.1-0.8-2.3-1.6-3.3-2.6c-0.5-0.5-1.3-1.2-1.4-1.9
					c-0.1-0.9,0.7-1.7,1.4-2.2C466.7,85.4,466.2,85,465.9,85.2L465.9,85.2z"/>
			</g>
		</g>
		<g>
			<g>
				<path d="M450.5,69c-2.3,3.1-4.2,6.6-5.9,10.1c-1.4,3-2.8,6.2-3.6,9.5c-0.5,2.3-0.4,4.8-0.1,7.1c0.3,3.1,1,6.2,2.1,9.2
					c2.3,6.2,7,10.7,13.3,12.9c3.2,1.1,6.7,1.5,10.1,0.7c3.7-0.9,6.9-3.4,10.1-5.5c3.6-2.3,6.9-5.5,9.6-8.8
					c2.8-3.5,4.8-7.4,6.6-11.5c0.2-0.4-0.4-0.7-0.5-0.3c-1.5,3.4-3.1,6.7-5.2,9.7c-2.2,3.1-5,5.7-7.9,8.2c-2.8,2.4-6.2,4.6-9.5,6.4
					c-3.3,1.7-6.9,2.1-10.6,1.3c-6.5-1.4-12.3-5.8-14.9-12c-1.2-2.8-1.9-5.8-2.3-8.7c-0.4-2.5-0.6-5.2-0.2-7.7
					c0.5-3.3,2.1-6.5,3.4-9.5c1.7-3.7,3.7-7.3,6.1-10.6C451.3,69,450.7,68.7,450.5,69L450.5,69z"/>
			</g>
		</g>
		<g>
			<g>
				<path d="M449.1,95.7c-0.2,0.8,0.1,1.8,0.4,2.6c0.4,1.4,1,2.7,1.6,4c1.2,2.4,3,4.4,5.6,5.4c0.8,0.3,1.9,0.5,2.4-0.4
					c0.7-1.4-0.3-3.7,1.9-3.9c1-0.1,2.2,0.8,3.1,1.2c0.7,0.3,2,0.8,2.2,1.6c0.3,1.1-1.3,2.6-1.7,3.5c-1.1,2.8,4.5,1.7,5.7,1.4
					c1.8-0.5,3.5-1.3,5-2.4c1.2-0.9,2.5-1.9,3.2-3.3c0.5-1.1,1.5-2.8,1.3-4c-0.1-1.2-1.3-2.2-2.4-2.6c-1.8-0.5-3.8-0.2-5.7-0.5
					c-1.8-0.3-3.6-0.8-5.3-1.6c-1.9-0.9-3.6-2-5.3-3.2c-1.7-1.2-3.3-2.9-5.3-3.4c-1.7-0.4-3.2,0.3-4.3,1.6
					C450.4,92.9,449.2,94.3,449.1,95.7c0,0.5,0.6,0.5,0.6,0.1c0.1-1.4,1.4-2.9,2.3-3.9c1.6-1.7,3.6-1.4,5.4-0.2c2.7,1.8,5,3.9,8,5.3
					c2.6,1.2,5.3,1.9,8.2,2.1c1.8,0.1,4.1-0.2,5.2,1.6c0.7,1.2-0.5,3.4-1.1,4.5c-0.7,1.4-2.2,2.5-3.5,3.4c-1.5,1-3.2,1.7-4.9,2
					c-1,0.2-2,0.3-3,0.2c-0.9-0.1-1.5-0.3-1-1.3c0.5-0.9,1.2-1.7,1.5-2.6c0.7-2.1-2.8-3.1-4.2-3.7c-1-0.4-2.2-0.8-3.1,0
					c-0.7,0.6-0.7,1.6-0.8,2.4c-0.1,0.9-0.2,1.8-1.4,1.6c-0.8-0.1-1.6-0.7-2.3-1.1c-1.2-0.8-2.1-1.7-2.8-2.9
					c-0.8-1.3-1.4-2.7-1.9-4.1c-0.3-0.9-0.9-2.2-0.7-3.2C449.8,95.5,449.2,95.3,449.1,95.7L449.1,95.7z"/>
			</g>
		</g>
		<g>
			<g>
				<path d="M451.4,68.7c1.5-4,3.9-7.6,6.2-11.2c1.7-2.7,3.2-5.5,4.7-8.3c1.3-2.5,2.5-5.4,4.4-7.5c0.7-0.8,1.4-1.6,2.6-1.6
					c0.8,0,1.6,0.4,2.4,0.6c0.8,0.2,1.5,0.4,2.3,0.6c3.2,0.8,6.4,1.5,9.4,2.7c3.8,1.5,7.1,3.7,10.4,6.1c1.6,1.2,3.3,2.4,5.1,3.4
					c1.5,0.8,3.2,1.2,4.3,2.5c2.8,3.2,0.8,8.2-0.3,11.7c-0.8,2.5-2.1,4.7-3.3,7c-1,2-2.1,4-3.1,6c-1.9,3.9-3.4,7.9-4.5,12
					c-0.1,0.4,0.5,0.6,0.6,0.2c1.1-4.1,2.6-8.1,4.4-11.9c0.9-2,1.9-3.9,3-5.8c1.1-2,2.3-4,3.1-6.1c0.7-2,1.4-4.1,1.8-6.1
					c0.4-1.7,0.5-3.7-0.1-5.4c-0.5-1.4-1.5-2.5-2.7-3.2c-1.8-1-3.6-1.7-5.3-2.8c-3.6-2.4-6.8-5.1-10.7-7c-3.3-1.6-6.8-2.6-10.4-3.5
					c-1.6-0.4-3.1-0.7-4.6-1.2c-1.4-0.4-2.5-0.6-3.8,0.3c-1.7,1.3-2.8,3.5-3.8,5.3c-1.9,3.4-3.5,7.1-5.6,10.4
					c-2.6,4.1-5.4,8.2-7.1,12.8C450.6,68.9,451.2,69.1,451.4,68.7L451.4,68.7z"/>
			</g>
		</g>
		<g transform="matrix(0.8448399901390076,0,0,0.8448399901390076,71.00550842285156,58.72979736328125)">
			
				<g transform="matrix(0.7009963989257812,-0.7131648063659668,0.7131648063659668,0.7009963989257812,-106.14968872070312,343.1366882324219)">
				<g transform="matrix(1,0,0,1,362.3389892578125,316.4809875488281)">
					<path class="st19" d="M249.5-105l1.7-2.9l3.8,1.2l2,2.4c-1.8-1.1-3.4-1.7-4.1-1.3l-2,1.7L249.5-105z"/>
				</g>
				<g transform="matrix(1,0,0,1,338.40399169921875,280.74700927734375)">
					<path class="st19" d="M267.2-88.2l3,2l2.2-2.2l-0.2-1.8C270.5-89.9,268.3-89.5,267.2-88.2z"/>
				</g>
				<g transform="matrix(1,0,0,1,350.5159912109375,298.75299072265625)">
					<path class="st18" d="M264.1-93c-1.8-4-2.9-7.9-3.4-11.4c-0.2-0.7-0.3-1.4-0.4-2l-2,2.3l-3-1.8c-0.3,4.1,0.2,9,2.4,14.4
						c0.9,1.6,2.3,3.2,4,4.7l1.8-2.7l3.8,1.3L264.1-93z"/>
				</g>
				<g transform="matrix(1,0,0,1,355.64801025390625,294.7770080566406)">
					<path class="st20" d="M256-98.6c-0.3-1.3-0.6-2.6-0.8-3.7c-0.2,0.1-0.5,0.3-0.7,0.4c0,2.4,0.7,5.8,1.7,9
						c0.8,2.7,2.4,5.6,4.1,7.6c0.6,0.2,1.1,0.5,1.7,0.8C258.6-88.4,256.8-94.3,256-98.6z"/>
				</g>
				<g transform="matrix(1,0,0,1,345.9320068359375,302.49200439453125)">
					<path class="st20" d="M267.9-93.5c-0.4-0.5-0.9-1-1.3-1.5c-1-1.4-1.7-3-2.3-4.6c-1.1-3.1-1.1-5.4-1.5-7.9
						c-0.1-0.5-0.6-0.9-0.8-0.7c-0.6,0.6-0.3,2.4-0.1,3.8c0.2,1.8,0.7,3.9,1.5,5.9c0.9,2.4,2.3,4.8,3.9,6.1
						C267.5-92.9,267.7-93.2,267.9-93.5z"/>
				</g>
				<g transform="matrix(1,0,0,1,360.3630065917969,291.5920104980469)">
					<path class="st6" d="M259.5-78.9c-2.5-3-5.2-6.5-6.8-11.4c-1.4-4.4-1.9-8.1-2.4-11.4l0,0c-0.3,2.7,0.3,7.5,1.9,12.3
						C253.9-84.5,257-81,259.5-78.9L259.5-78.9z"/>
				</g>
				<g transform="matrix(1,0,0,1,353.6659851074219,296.0799865722656)">
					<path class="st6" d="M265.2-84.4c-0.2-0.1-2.1-1.2-2.9-1.4c-1.1-0.2-2,0.4-2.9,1.4c-1.4-1.2-3.1-2.8-4.1-4.6
						c-2.1-3.4-3-12.2-2.7-14c0.2-0.9,2.6-1.6,4.5-1.9v-1c-1.7,0.2-5.2,0.7-5.5,2.1c-0.4,2,0.4,11.4,3,15.6c1.4,2.3,3.7,4.3,5.2,5.5
						c1-1.8,2-2.3,3.1-2.1c1,0.2,3.3,1.3,3.3,1.3L265.2-84.4z"/>
				</g>
				<g transform="matrix(1,0,0,1,351.18701171875,298.375)">
					<path class="st6" d="M266.1-88.5l-3.4-1.1c-2.9-2.8-4.5-7.7-4.8-13.8l1.8-2.1c-0.1-0.3-0.1-0.7-0.1-1l-2.2,2.3l-2.8-1.8v0.7
						l1.4,0.9l1.2,0.8c0.2,6.1,1.9,11.3,4.9,14.3l-1.5,2.4l0.5,0.8l1.6-2.7l4,1.2C266.6-87.8,266.4-88.2,266.1-88.5z"/>
				</g>
			</g>
		</g>
	</g>
	<g id="Слой_13">
		<g transform="matrix(1.013808012008667,0,0,1.013808012008667,-3.3990657329559326,3.9356794357299805)">
			<g transform="matrix(1,0,0,1,0,0)">
				<g transform="matrix(1,0,0,1,437.5249938964844,294.2980041503906)">
					<path class="st4" d="M43-210.9l31.7,26.6c8.1-5.7,12.4-13.8,14.6-23.2l-38.6-18.4C49.9-219.2,47.6-214.1,43-210.9z"/>
				</g>
				<g>
					<g transform="matrix(1,0,0,1,148.86900329589844,126.58399963378906)">
						<path class="st5" d="M371.2-40.7c-0.1,0.2-0.2,0.5-0.3,0.7c2.1,1,4.3,2,6.7,3.1c0.1-0.2,0.2-0.3,0.2-0.5
							C375.6-38.7,373.4-39.8,371.2-40.7z"/>
					</g>
					<g transform="matrix(1,0,0,1,144.8070068359375,128.95399475097656)">
						<path class="st5" d="M376.7-39.1c-0.9-0.4-1.9-0.8-2.8-1.2c-0.2,0.4-0.5,0.9-0.7,1.3c0.9,0.3,1.8,0.7,2.6,1.1
							c1.3,0.6,2.7,1.2,4.1,1.9c0.2-0.4,0.4-0.8,0.6-1.2C379.3-37.9,378-38.5,376.7-39.1z"/>
					</g>
					<g transform="matrix(1,0,0,1,141.61099243164062,131.06700134277344)">
						<path class="st5" d="M378-39c-0.7-0.3-1.5-0.7-2.2-1c-0.2,0.4-0.4,0.7-0.6,1.1c1,0.4,1.9,0.8,2.9,1.2c1.2,0.6,2.5,1.2,3.9,1.8
							c0.2-0.3,0.4-0.6,0.5-1C380.9-37.7,379.5-38.4,378-39z"/>
					</g>
					<g transform="matrix(1,0,0,1,137.59100341796875,133.9499969482422)">
						<path class="st5" d="M384.7-36.8c-2.3-1.3-4.5-2.4-6.6-3.3c-0.2,0.3-0.4,0.6-0.6,0.9c2,1.1,4.3,2.1,6.7,3.3
							C384.3-36.2,384.5-36.5,384.7-36.8z"/>
					</g>
					<g transform="matrix(1,0,0,1,133.52000427246094,137.23199462890625)">
						<path class="st5" d="M386.7-37c-2.1-1.4-4.3-2.7-6.4-3.6c-0.2,0.2-0.3,0.4-0.5,0.7c2,1.1,4.1,2.3,6.4,3.6
							C386.4-36.6,386.6-36.8,386.7-37z"/>
					</g>
					<g transform="matrix(1,0,0,1,129.89700317382812,140.58599853515625)">
						<path class="st5" d="M388.3-37.8c-2.1-1.4-4.1-2.6-6.1-3.7c-0.1,0.1-0.2,0.3-0.3,0.4c1.9,1.2,3.9,2.4,6,3.7
							C388-37.5,388.2-37.7,388.3-37.8z"/>
					</g>
					<g transform="matrix(1,0,0,1,126.19400024414062,144.64300537109375)">
						<path class="st5" d="M389.7-39.5c-1.9-1.4-3.7-2.7-5.5-3.8c-0.2,0.2-0.3,0.4-0.5,0.6c1.7,1.2,3.6,2.3,5.5,3.5
							C389.4-39.2,389.5-39.3,389.7-39.5z"/>
					</g>
					<g transform="matrix(1,0,0,1,122.28800201416016,148.9080047607422)">
						<path class="st5" d="M391-41.5c-1.7-1.3-3.3-2.4-4.8-3.5c-0.1,0.1-0.2,0.2-0.3,0.3c1.4,1.2,3,2.4,4.7,3.5
							C390.8-41.3,390.9-41.4,391-41.5z"/>
					</g>
				</g>
				<g transform="matrix(1,0,0,1,357.7590026855469,226.61900329589844)">
					<path class="st4" d="M115.1-148.1c-6.8,3.2-16.5-4.8-25.6-11.8c-10.6-0.7-19.7,0.9-20.1-3.9c0-2.7,8.9,0.2,13.9-1.4
						c-6.8-2.3-16.1-3.7-14.9-9c-3.6-3-3.1-6,1.1-4.8c-1.8-3.1-1.2-4.3,2.4-3.3l19.1,4.2c-2.7-2.5-5.4-4.9-3.2-8.3
						c2.8-0.6,3.8,2,7.3,4.3c4.6,3,9.8,4.5,14.3,10.8l4.5,2.6l0.1,1.9l9.2,5.4C121.9-156,119.6-151.5,115.1-148.1z"/>
				</g>
				<g transform="matrix(1,0,0,1,468.81298828125,322.8219909667969)">
					<path class="st0" d="M43.3-213.3c3,2.1,9.4,4.3,16.5,1.2c3.8,0.4,7.3-1.1,8.5-3.6c3.1-5.1-7.1-18.1-10.6-20.6
						C56.3-226.5,51.6-218.9,43.3-213.3z"/>
				</g>
				<g transform="matrix(1,0,0,1,400.9779968261719,260.5660095214844)">
					<path class="st4" d="M71.2-181.4l7.2,5.3c6.3-4.3,8.4-10.3,8.6-17.1l-6.4-3.3C78.6-190.4,75.5-185.3,71.2-181.4z"/>
				</g>
				<g transform="matrix(1,0,0,1,445.49798583984375,298.29998779296875)">
					<path d="M89.7-202.6c-3.1-5.9-7.1-9.2-13-12.1c-6.5-3.2-13-6.3-19.7-9.3c-4.8-2.2-10-5-15-7.1c0,0.5-0.1,1.1-0.1,1.6
						c9.4,4.9,19.3,9,28.9,13.4c3.2,1.5,6.4,3,9.3,5c-0.7,4.3-2.8,8.6-5,12.1c-1.3,2-2.7,3.9-4.3,5.6c-1,1-2,2-3.1,2.7
						c-0.5,0.3-0.9,0.5-1.2,0.8c-3.9-2.3-7.5-5.5-10.9-8.7c-4-3.6-8.1-7.1-12.3-10.5c-2.5-2.1-5-4.2-7.6-6.2c-0.5,0.4-0.9,0.7-1.4,1
						c6.6,5.2,15.7,12.6,23.1,19.1c3.6,3.3,7.1,6.7,11.7,8.3c2.6,0.9,9.3,2.2,14.3-0.2c5.1,1.2,11-2.9,8.6-8.7
						c0.7,5.1-3.3,8.2-9.2,7.5c-5.3,2-10.2,1.7-14.6-0.8c1-0.6,2.8-1.7,3.5-2.4c2-2,3.8-4.4,5.3-6.8c1.4-2.4,2.7-4.9,3.5-7.5
						c0.4-1.2,0.9-2.9,1.2-4.4c1.3,1,2.5,2.1,3.6,3.4c1.9,2.4,3.8,5.3,5.2,8C92-195.6,91.8-198.7,89.7-202.6z"/>
				</g>
				<g transform="matrix(1,0,0,1,408.5159912109375,254.9040069580078)">
					<path class="st5" d="M78.9-182.9c-2.4-1.3-4.9-2.6-7.3-3.8c-0.1,0.1-0.1,0.3-0.2,0.4c2.4,1.4,4.9,2.7,7.4,3.9
						C78.9-182.6,78.9-182.8,78.9-182.9z"/>
				</g>
				<g transform="matrix(1,0,0,1,406.8789978027344,257.3420104980469)">
					<path class="st5" d="M79.9-183.1c0.1-0.2,0.2-0.4,0.2-0.6c-1.2-0.7-2.4-1.4-3.6-2.1c-1.3-0.7-2.5-1.5-3.9-2.2
						c-0.1,0.2-0.2,0.4-0.3,0.6c1.4,0.8,2.8,1.5,4.2,2.3C77.7-184.4,78.8-183.7,79.9-183.1z"/>
				</g>
				<g transform="matrix(1,0,0,1,404.24200439453125,260.8039855957031)">
					<path class="st5" d="M81.3-183.9c0.1-0.2,0.2-0.4,0.3-0.6c-2.3-1.8-4.8-3.5-7.2-5.1c-0.1,0.2-0.2,0.4-0.3,0.6
						c1.2,0.8,2.4,1.6,3.6,2.5C78.9-185.7,80.1-184.8,81.3-183.9z"/>
				</g>
				<g transform="matrix(1,0,0,1,401.82000732421875,263.34100341796875)">
					<path class="st5" d="M82.9-184.9c0.1-0.2,0.2-0.3,0.3-0.5c-2.4-1.7-4.9-3.4-7.5-4.9c-0.1,0.2-0.3,0.4-0.4,0.6
						C77.8-188.1,80.4-186.5,82.9-184.9z"/>
				</g>
				<g transform="matrix(1,0,0,1,399.50299072265625,265.614013671875)">
					<path class="st5" d="M84.3-185.8c0.1-0.2,0.2-0.3,0.3-0.5c-2.5-1.7-5.1-3.2-7.8-4.7c-0.1,0.1-0.2,0.3-0.3,0.4
						C79.1-188.8,81.7-187.2,84.3-185.8z"/>
				</g>
				<g transform="matrix(1,0,0,1,396.85699462890625,267.7139892578125)">
					<path class="st5" d="M85.8-186.4c0.1-0.1,0.2-0.2,0.2-0.3c-2.5-1.7-5.1-3.3-7.7-4.9c-0.1,0.1-0.2,0.2-0.3,0.3
						C80.6-189.7,83.2-188,85.8-186.4z"/>
				</g>
				<g transform="matrix(1,0,0,1,409.75799560546875,251.97799682617188)">
					<path class="st5" d="M77.8-181.7L77.8-181.7c-2.3-1.2-4.6-2.3-7-3.4c0,0.1-0.1,0.2-0.1,0.3C73.1-183.8,75.4-182.8,77.8-181.7
						L77.8-181.7z"/>
				</g>
				<g transform="matrix(1,0,0,1,364.1549987792969,197.91700744628906)">
					<path class="st5" d="M96.6-148.8c-3.6-1.8-6.9-4.1-10.1-6.5c-1.5-1.1-4.3-3.3-5.8-1c-0.2,0.3,0,0.6,0.3,0.6
						c2.8,0.2,5,2.8,7.4,4c2.6,1.3,5.3,2.1,8,3.1C96.6-148.5,96.8-148.8,96.6-148.8z"/>
				</g>
				<g transform="matrix(1,0,0,1,332.93798828125,199.27999877929688)">
					<path class="st5" d="M115.2-147.5c-5-0.9-10.1-1.3-15-2.5c-2.7-0.7-7.4-3.9-9.5-0.6c-0.2,0.3,0,0.6,0.3,0.7
						c1.9,0.6,3.9,0.7,5.9,1.2c1.7,0.4,3.4,0.7,5.1,0.9c4.4,0.4,8.8,0.6,13.3,0.8C115.5-147,115.5-147.4,115.2-147.5z"/>
				</g>
				<g transform="matrix(1,0,0,1,339.98699951171875,197.0919952392578)">
					<path class="st5" d="M112.5-147.1c-4.5-1.8-9.7-2.6-14.5-3.8c-2.3-0.5-4.6-1.1-6.9-1.6c-1.5-0.3-3.4-0.9-4.5,0.4
						c-0.2,0.2-0.2,0.5,0.1,0.6c1.4,0.9,3.3,0.9,4.9,1.2c2.3,0.4,4.6,0.8,6.9,1.2C103.1-148.3,107.8-147.1,112.5-147.1L112.5-147.1z
						"/>
				</g>
				<g transform="matrix(1,0,0,1,333.8489990234375,209.59300231933594)">
					<path class="st5" d="M115.6-153.1c-4.9-1.5-10-1.5-14.9-3c-2.1-0.6-4.5-1.8-6.7-1.3c-0.9,0.2-2.3,0.9-1.7,1.9
						c0,0.1,0.1,0.1,0.2,0.1c1.6-0.3,4,0.8,5.5,1.2c1.9,0.6,3.8,1,5.7,1.2C107.6-152.5,111.7-152.8,115.6-153.1
						C115.6-152.9,115.6-153,115.6-153.1z"/>
				</g>
				<g transform="matrix(1,0,0,1,331.2900085449219,223.2239990234375)">
					<path class="st5" d="M117.2-161.4c-2.9-2-5.9-0.5-9.1,0c-4,0.6-8-0.2-12,0.6c-0.7,0.1-0.5,1.1,0.1,1.2
						c3.3,0.6,6.9,0.4,10.3,0.2c3.5-0.3,6.9-2.1,10.5-1.5C117.2-160.9,117.4-161.2,117.2-161.4z"/>
				</g>
				<g transform="matrix(1,0,0,1,371.9949951171875,229.2100067138672)">
					<path class="st5" d="M91.2-175.6c0.2-1.8-2.5-1.9-2.7-0.1c-0.4,3.3-2,5.9-3.5,8.8c-0.4,0.8-0.1,1.6,0.7,2
						c2.6,1.2,4.8,3.3,7.5,4.3c0.1,0,0.1-0.1,0.1-0.1c-1.4-2.2-3.6-3.8-5.5-5.6C89.6-169.1,90.9-172.3,91.2-175.6z"/>
				</g>
				<path d="M520.6,83.2c0,0-2.4,10.3-14.5,21.8c-0.4,1.1,0.9,1,0.9,1s10.6-8.4,14.7-22.1C521.5,83.7,520.6,83.2,520.6,83.2z"/>
				<g transform="matrix(1,0,0,1,363.8789978027344,231.91900634765625)">
					<path d="M124.7-164.7c-0.3-0.9-1.3-1.3-2.1-1.7c-1-0.5-2-1-3-1.4c-0.7-0.3-2.2-1.2-2.8-0.2c-0.1,0.1-0.1,0.2-0.1,0.3
						c-2.8-1.7-5.6-3.4-8.4-5.1c0-0.2,0-0.3,0-0.5c0.1-0.6-0.3-1.2-0.8-1.5c-0.8-0.5-2-1.1-3.2-1.9c-1.8-2-3.6-3.9-5.7-5.5
						c-4-3.1-8.9-4.8-12.5-8.4c-1.1-1-2.2-2.3-3.9-2.1c-1.3,0.1-2.1,1.1-2.2,2.4c-0.2,2.3,1.2,4.5,3,6.2c-5.2-1.1-10.4-2.2-15.5-3.6
						c-1.4-0.4-5.4-2.1-5.8,0.6c-0.1,0.8,0.2,1.5,0.8,2.1c-1.4-0.2-2.6-0.1-3.1,1c-0.7,1.6,0.6,3.2,2.1,4.1c-1,1.4,0.2,3.7,1.9,4.8
						c3.3,2.1,7.4,3,12.3,4.4c-0.8,0.1-1.7,0.2-2.4,0.2c-1.9,0-10.2-1.6-10.7,1.3c-0.5,3,4.7,4.3,6.7,4.5c2.3,0.2,4.5-0.4,6.8-0.4
						c2.6,0,5.5,0.2,6.8,0.5c1.3,0.9,4.8,3.4,6.4,4.7c2.2,1.7,4.4,3.3,6.8,4.8c3.9,2.4,7.4,4.2,11.6,2.3c0.2,0.7,0.9,1.4,1.4,1.8
						c1.7,1.4,3.7,2.5,5.5,4c1.3,1.1,4.3-2.1,5-2.9c2.4-2.6,4-6.1,4.7-9.6c0.3-1.5,0.6-3.2,0.3-4.7
						C124.7-164.4,124.7-164.6,124.7-164.7z M104.8-164.6c-0.2,0.6-0.5,1.5-0.8,2c-1.9-1.1-8.8-5.4-10.4-6.2
						c0.3-0.6,0.6-1.3,0.9-1.9c1.2-2.6,2.4-5.5,3-8.4c3.1,1.7,6.4,3.6,9.8,5.5C106.8-170.5,106-167.5,104.8-164.6z M81.9-187.7
						c-0.4-0.8-0.8-2.6,0.3-3.1c1-0.5,2.2,0.7,2.9,1.2c2.3,2.1,4.9,3.7,7.6,5.2c3,1.7,5.9,3.5,8.4,6c-1.1-0.6-2.1-1.1-2.9-1.5
						c-0.5-0.3-1.1-0.1-1.5,0.3c-1.6-0.9-3.1-1.8-4.9-2.4c-1.4-0.5-2.8-0.8-4.3-1c-0.8-0.2-1.6-0.4-2.4-0.5
						C84.1-184.7,82.4-186.7,81.9-187.7z M101.9-153.9c-2.4-0.9-4.7-2.4-6.9-3.8c-3.8-2.4-11.2-7.8-11.2-7.8
						c-0.9-0.5-6.2-0.6-9.2-0.8c-1.5-0.1-2.9,0.4-4.4,0.3c-4.7-0.3-6.8-1.8-6.1-3.2c0.4-0.7,8.2-0.1,9.7-0.2
						c1.7-0.1,8.3-1.7,11.6-0.5c-2-1.5-4.9-1.3-7.7-1c-3.1-1.3-7.6-2.7-10.6-3.7c-3.7-1.3-4.9-3.2-4.1-4.3c0.8-1.2,4.1,0.3,5.5,0.7
						c3.3,0.8,6.6,1.6,10,2.2c3.3,0.6,5.8,0.5,9.1,1.2c-2.5-2.2-6.6-1.7-11.3-2.9c-2.6-0.7-5.1-1.4-7.7-2.1
						c-1.7-0.5-4.5-1.8-6.3-0.7c-1.7-1-2.1-2.5-1.1-3.2c1-0.6,4.8,0.9,5.6,1.1c2.4,0.5,4.2,0.9,6.6,1.3c5.3,0.9,10.9,1.4,15.9,3.4
						c-2.2-2.1-5.6-3.1-8.6-3.6c-4.7-0.8-9.5-1.5-14.2-2.5c-0.5-0.1-1.3-0.4-2.1-0.6c-2.3-2.6-0.2-3.1,2.1-2.2
						c2.5,1,7.4,1.9,10.4,2.6c4,0.9,10.9,1.7,14.5,3c1.7,0.6,3.3,1.6,4.9,2.6c-0.8,2.7-1.8,5.3-3.1,7.9c-0.2,0.5-0.5,1-0.8,1.4
						c-0.4,0.6-0.2,1.4,0.5,1.8c2.4,1.5,8.1,4.8,10.7,6.3c0.5,0.3,1.2,0.1,1.5-0.5c1.2-2.7,2.5-6.3,3.1-9.8c2.7,1.6,5.5,3.2,8.2,4.8
						c-0.1,0.2-0.1,0.5-0.2,0.7c-0.8,2.3-2,4.6-3.4,6.7c-0.8,1.2-1.8,2.4-2.8,3.4c-0.4,0.5-1.5,1.2-1.9,2
						C105.7-153,103.3-153.3,101.9-153.9z M121.1-156c-2.3,4.4-3.2,5.5-6,7.2c-1.1-0.9-5.6-4-5.6-4c2.4-2,3.7-4.2,4.6-5.5
						c1.6-2.7,2.9-5.6,3.8-8.6c1.3,0.8,3.9,2.1,5.1,2.7C123.1-163.4,123.2-159.9,121.1-156z"/>
				</g>
			</g>
		</g>
	</g>
</g>
</svg>
