<?xml version="1.0" encoding="utf-8"?>
<!-- Generator: Adobe Illustrator 27.1.1, SVG Export Plug-In . SVG Version: 6.00 Build 0)  -->
<svg version="1.1" xmlns="http://www.w3.org/2000/svg" xmlns:xlink="http://www.w3.org/1999/xlink" x="0px" y="0px"
	 viewBox="0 0 547.7 167.8" style="enable-background:new 0 0 547.7 167.8;" xml:space="preserve">
<style type="text/css">
	.st0{fill:#1B1B1C;}
	.st1{fill:#FFFFFF;}
</style>
<g id="Слой_8__x28_копия2_x29_">
	<g>
		<g>
			<path class="st0" d="M54.3,157.5c-0.4,0-0.8-0.3-0.9-0.7L43,114.5l-11.3-0.9l0,42.5c0,0.3-0.1,0.5-0.3,0.7
				c-0.2,0.2-0.4,0.3-0.7,0.3c0,0-17.6-0.3-17.6-0.3c-0.5,0-1-0.4-1-1V8c0-0.3,0.1-0.6,0.4-0.8C12.7,7.1,12.9,7,13.1,7
				c0.1,0,0.1,0,0.2,0l39.5,8.5c6.5,1.4,11.2,5.7,14,12.7C69.6,35,71,45.4,71.1,59l0.1,17.5c0,10.8-0.7,19.3-2.3,25.2
				c-1.5,5.8-4,9.7-7.4,11.6l10.7,43.2c0.1,0.3,0,0.6-0.2,0.8c-0.2,0.2-0.5,0.4-0.8,0.4C71.3,157.7,54.3,157.5,54.3,157.5z
				 M49.3,84.8c0.1,0,0.3,0,0.4,0l0,0c0.7,0,1.3-0.2,1.8-0.7c1-1,2.1-3.4,2.1-9.6l0-17.9c0-7.4-1.6-11.4-4.6-11.9l-17.3-3l0,41.2
				L49.3,84.8z"/>
			<path class="st0" d="M13.1,8l39.5,8.5c6.2,1.3,10.6,5.4,13.3,12.1c2.7,6.7,4.1,16.8,4.1,30.4l0.1,17.5c0,10.8-0.7,19.1-2.3,24.9
				c-1.6,5.9-4.1,9.7-7.5,11.4l10.9,43.9l-17-0.3l-10.5-42.9l-13.1-1l0,43.6l-17.6-0.3L13.1,8 M49.7,85.8c3.2,0,4.8-3.8,4.8-11.4
				l0-17.9c0-7.9-1.8-12.2-5.4-12.9l-18.5-3.2l0,43.2l18.5,2.1C49.4,85.8,49.5,85.8,49.7,85.8 M13.1,6.1c-0.4,0-0.9,0.2-1.2,0.4
				c-0.5,0.4-0.7,0.9-0.7,1.5l0,147.8c0,1.1,0.9,1.9,1.9,2l17.6,0.3c0,0,0,0,0,0c0.5,0,1-0.2,1.4-0.6c0.4-0.4,0.6-0.9,0.6-1.4
				l0-41.5l9.6,0.7L52.4,157c0.2,0.9,1,1.5,1.9,1.5l17,0.3c0,0,0,0,0,0c0.6,0,1.2-0.3,1.5-0.7c0.4-0.5,0.5-1.1,0.4-1.7l-10.6-42.5
				c3.3-2.2,5.7-6.2,7.2-11.8c1.6-6,2.4-14.5,2.3-25.4L72.1,59c0-14-1.5-24.1-4.3-31.1c-3-7.4-8-11.8-14.7-13.3L13.5,6.1
				C13.4,6.1,13.3,6.1,13.1,6.1L13.1,6.1z M32.6,81.9l0-39.1l16.2,2.8c3.1,0.5,3.8,6.2,3.8,10.9l0,17.9c0,6.2-1.1,8.3-1.8,9
				c-0.3,0.3-0.6,0.4-1.1,0.4c-0.1,0-0.2,0-0.3,0L32.6,81.9L32.6,81.9z"/>
		</g>
		<g>
			<path class="st0" d="M95.1,160c-6-0.1-10.5-3.4-13.2-9.9c-2.7-6.3-4.1-16.4-4.1-30l-0.4-98c0-0.3,0.1-0.6,0.4-0.8
				c0.2-0.1,0.4-0.2,0.6-0.2c0.1,0,0.1,0,0.2,0l14.5,3.1c0.4,0.1,0.8,0.5,0.8,1l0.5,95.9c0,4.8,0.7,10.5,3.9,10.6l11.5,0.6l0.1,0
				c0.6,0,1-0.2,1.4-0.6c0.9-0.9,1.9-3.2,1.9-9.2l-0.6-92.9c0-0.3,0.1-0.6,0.4-0.8c0.2-0.1,0.4-0.2,0.6-0.2c0.1,0,0.1,0,0.2,0
				l13.1,2.8c0.4,0.1,0.8,0.5,0.8,0.9l0.6,91c0.1,12.8-1,21.9-3.3,27.7c-2.4,6-6.4,9.1-11.9,9.1L95.1,160z"/>
			<path class="st0" d="M78.3,22.1l14.5,3.1l0.5,95.9c0,7.6,1.6,11.4,4.8,11.6l11.5,0.6c0.1,0,0.1,0,0.2,0c2.9,0,4.3-3.6,4.3-10.8
				l-0.6-92.9l13.1,2.8l0.6,91c0.1,12.6-1,21.7-3.2,27.3c-2.2,5.6-5.9,8.5-11,8.5c-0.1,0-0.1,0-0.2,0L95.1,159
				c-5.6-0.1-9.7-3.2-12.3-9.3c-2.6-6.2-4-16.1-4-29.6L78.3,22.1 M78.3,20.1c-0.4,0-0.9,0.2-1.2,0.4c-0.5,0.4-0.7,0.9-0.7,1.5
				l0.4,98c0.1,13.7,1.5,24,4.2,30.4c2.9,6.9,7.7,10.4,14.1,10.5l17.7,0.2l0.2,0c6,0,10.3-3.3,12.8-9.7c2.4-5.9,3.5-15.1,3.4-28.1
				l-0.6-91c0-0.9-0.6-1.7-1.5-1.9L114,27.7c-0.1,0-0.3,0-0.4,0c-0.4,0-0.9,0.2-1.2,0.4c-0.5,0.4-0.7,0.9-0.7,1.5l0.6,92.9
				c0,6.2-1.1,8-1.6,8.5c-0.2,0.2-0.4,0.3-0.7,0.3l-0.1,0l-11.5-0.6c-1.8-0.1-2.9-3.7-2.9-9.7l-0.5-95.9c0-0.9-0.6-1.7-1.5-1.9
				l-14.5-3.1C78.6,20.1,78.5,20.1,78.3,20.1L78.3,20.1z"/>
		</g>
		<g>
			<path class="st0" d="M149.6,160.7c-5.1-0.1-8.9-3.1-11.3-9.2c-2.3-5.8-3.5-15-3.6-27.5l-0.7-89.8c0-0.3,0.1-0.6,0.4-0.8
				c0.2-0.1,0.4-0.2,0.6-0.2c0.1,0,0.1,0,0.2,0l12.2,2.6c0.4,0.1,0.8,0.5,0.8,0.9l0.7,88c0,6.1,1.2,9.6,3.1,9.7c0,0,9.8,0.5,9.8,0.5
				c0.5,0,0.8-0.1,1.1-0.4c0.8-0.8,1.6-2.8,1.6-8.5l-0.8-85.5c0-0.3,0.1-0.6,0.4-0.8c0.2-0.1,0.4-0.2,0.6-0.2c0.1,0,0.1,0,0.2,0
				l11.1,2.4c0.4,0.1,0.8,0.5,0.8,0.9l0.8,83.9c0.1,11.8-0.8,20.2-2.7,25.5c-2,5.6-5.5,8.4-10.2,8.4L149.6,160.7z"/>
			<path class="st0" d="M135.1,34.3l12.2,2.6l0.7,88c0.1,6.9,1.4,10.5,4.1,10.6l9.7,0.5c0.1,0,0.1,0,0.1,0c2.4,0,3.6-3.3,3.6-9.9
				l-0.8-85.5l11.1,2.4l0.8,83.9c0.1,11.6-0.8,20-2.7,25.2c-1.9,5.2-5,7.8-9.3,7.8c0,0-0.1,0-0.1,0l-15-0.2
				c-4.7-0.1-8.2-2.9-10.4-8.5c-2.2-5.7-3.4-14.7-3.5-27.1L135.1,34.3 M135.1,32.3c-0.4,0-0.9,0.2-1.2,0.4c-0.5,0.4-0.7,0.9-0.7,1.5
				l0.7,89.8c0.1,12.6,1.3,21.9,3.6,27.8c3.1,8,8.4,9.7,12.2,9.8l15,0.2l0.2,0c3.6,0,8.4-1.6,11.1-9.1c2-5.5,2.9-13.9,2.8-25.9
				L177.8,43c0-0.9-0.7-1.7-1.5-1.9l-11.1-2.4c-0.1,0-0.3,0-0.4,0c-0.4,0-0.9,0.2-1.2,0.4c-0.5,0.4-0.7,0.9-0.7,1.5l0.8,85.5
				c0.1,6-1,7.5-1.3,7.8c-0.1,0.1-0.2,0.1-0.3,0.1l-9.8-0.5c-0.8,0-2.2-1.9-2.2-8.7l-0.7-88c0-0.9-0.6-1.7-1.5-1.9l-12.2-2.6
				C135.3,32.3,135.2,32.3,135.1,32.3L135.1,32.3z"/>
		</g>
		<g>
			<path class="st0" d="M195.8,161.3c-4.5-0.1-7.8-2.9-9.8-8.5c-1.9-5.3-3-13.8-3.1-25.3L182,44.6c0-0.3,0.1-0.6,0.4-0.8
				c0.2-0.1,0.4-0.2,0.6-0.2c0.1,0,0.1,0,0.2,0l10.4,2.2c0.4,0.1,0.8,0.5,0.8,0.9l0.9,81.4c0.1,5.5,1,8.8,2.6,8.8
				c0,0,8.3,0.4,8.3,0.4c0.3,0,0.5-0.1,0.8-0.3c0.5-0.5,1.4-2.3,1.4-7.9l-0.9-79.2c0-0.3,0.1-0.6,0.4-0.8c0.2-0.1,0.4-0.2,0.6-0.2
				c0.1,0,0.1,0,0.2,0l9.5,2.1c0.4,0.1,0.8,0.5,0.8,0.9l1,77.8c0.1,10.9-0.6,18.7-2.3,23.7c-1.7,5.2-4.7,7.9-8.9,7.9L195.8,161.3z"
				/>
			<path class="st0" d="M183,44.6l10.4,2.2l0.9,81.4c0.1,6.4,1.2,9.7,3.5,9.8l8.3,0.4c0,0,0.1,0,0.1,0c2.1,0,3.1-3.1,3-9.2
				l-0.9-79.2l9.5,2.1l1,77.8c0.1,10.7-0.6,18.5-2.2,23.3c-1.6,4.8-4.2,7.2-8,7.2c0,0-0.1,0-0.1,0l-12.8-0.2c-4-0.1-7-2.7-8.9-7.9
				c-1.9-5.2-2.9-13.6-3.1-25L183,44.6 M183,42.6c-0.4,0-0.9,0.2-1.2,0.4c-0.5,0.4-0.7,0.9-0.7,1.5l0.8,82.9
				c0.1,11.6,1.2,20.2,3.2,25.7c2.7,7.5,7.3,9.1,10.7,9.1l12.8,0.2l0.1,0c3.2,0,7.5-1.5,9.8-8.6c1.7-5.1,2.4-12.9,2.3-24l-1-77.8
				c0-0.9-0.7-1.7-1.5-1.9l-9.5-2.1c-0.1,0-0.3,0-0.4,0c-0.4,0-0.9,0.2-1.2,0.4c-0.5,0.4-0.7,0.9-0.7,1.5l0.9,79.2
				c0.1,6.4-1.1,7.2-1.1,7.2l-8.3-0.5c-0.3,0-1.6-1.4-1.7-7.9l-0.9-81.4c0-0.9-0.7-1.7-1.5-1.9l-10.4-2.2
				C183.3,42.7,183.2,42.6,183,42.6L183,42.6z"/>
		</g>
		<g>
			<path class="st0" d="M235.4,161.8c-3.9,0-6.8-2.7-8.6-7.9c-1.7-4.9-2.6-12.8-2.8-23.5l-1-76.9c0-0.3,0.1-0.6,0.4-0.8
				c0.2-0.1,0.4-0.2,0.6-0.2c0.1,0,0.1,0,0.2,0l9,1.9c0.4,0.1,0.8,0.5,0.8,0.9l1,75.6c0.1,7.4,1.7,8.1,2.1,8.1c0,0,7.2,0.4,7.2,0.4
				c0.2,0,0.3,0,0.5-0.2c0.5-0.5,1.2-2.1,1.2-7.4l-1-73.7c0-0.3,0.1-0.6,0.4-0.8c0.2-0.1,0.4-0.2,0.6-0.2c0.1,0,0.1,0,0.2,0l8.3,1.8
				c0.4,0.1,0.8,0.5,0.8,0.9l1,72.5c0.1,10.2-0.5,17.4-1.9,22.1c-1.5,4.9-4.1,7.4-7.8,7.4C246.6,162,235.4,161.8,235.4,161.8z"/>
			<path class="st0" d="M224.1,53.4l9,1.9l1,75.6c0.1,6,1.1,9,3.1,9.1l7.2,0.4c0,0,0.1,0,0.1,0c1.8,0,2.7-2.9,2.6-8.6l-1-73.7
				l8.3,1.8l1,72.5c0.1,10-0.5,17.3-1.8,21.8c-1.4,4.5-3.7,6.7-6.9,6.7c0,0-0.1,0-0.1,0l-11-0.1c-3.5,0-6-2.5-7.7-7.3
				c-1.7-4.8-2.6-12.6-2.7-23.2L224.1,53.4 M224.1,51.5c-0.4,0-0.9,0.2-1.2,0.4c-0.5,0.4-0.7,0.9-0.7,1.5l1,76.9
				c0.1,10.9,1.1,18.7,2.8,23.8c2.4,7,6.5,8.6,9.5,8.6l11,0.1l0.1,0c2.9,0,6.7-1.4,8.8-8.1c1.4-4.7,2.1-12,1.9-22.4l-1-72.5
				c0-0.9-0.7-1.7-1.5-1.9l-8.3-1.8c-0.1,0-0.3,0-0.4,0c-0.4,0-0.9,0.2-1.2,0.4c-0.5,0.4-0.7,0.9-0.7,1.5l1,73.7
				c0.1,4.8-0.6,6.2-0.8,6.6l-7-0.4c-0.2-0.2-1.2-1.3-1.2-7.2l-1-75.6c0-0.9-0.7-1.7-1.5-1.9l-9-1.9
				C224.3,51.5,224.2,51.5,224.1,51.5L224.1,51.5z"/>
		</g>
		<g>
			<path class="st0" d="M269.8,162.3c-3.5,0-6-2.6-7.6-7.5c-1.5-4.6-2.3-12-2.5-21.9l-1.1-71.8c0-0.3,0.1-0.6,0.4-0.8
				c0.2-0.1,0.4-0.2,0.6-0.2c0.1,0,0.1,0,0.2,0l7.8,1.7c0.4,0.1,0.8,0.5,0.8,0.9l1.1,70.6c0.1,7.2,1.6,7.5,1.8,7.5
				c0,0,6.3,0.3,6.3,0.3c0.1,0,0.2,0,0.3-0.1c0.3-0.3,1.1-1.7,1-6.9l-1.1-69c0-0.3,0.1-0.6,0.4-0.8c0.2-0.1,0.4-0.2,0.6-0.2
				c0.1,0,0.1,0,0.2,0l7.2,1.6c0.4,0.1,0.8,0.5,0.8,0.9l1.1,67.9c0.2,9.6-0.4,16.3-1.6,20.7c-1.3,4.7-3.7,7-7,7
				C279.5,162.4,269.8,162.3,269.8,162.3z"/>
			<path class="st0" d="M259.6,61.1l7.8,1.7l1.1,70.6c0.1,5.6,1,8.4,2.7,8.5l6.3,0.3c0,0,0.1,0,0.1,0c1.6,0,2.3-2.7,2.3-8l-1.1-69
				l7.2,1.6l1.1,67.9c0.2,9.4-0.4,16.2-1.6,20.4c-1.2,4.2-3.2,6.3-6,6.3c0,0,0,0-0.1,0l-9.6-0.1c-3,0-5.3-2.3-6.7-6.8
				c-1.5-4.5-2.3-11.7-2.4-21.6L259.6,61.1 M259.6,59.1c-0.4,0-0.9,0.2-1.2,0.4c-0.5,0.4-0.7,0.9-0.7,1.5l1.1,71.8
				c0.2,10.2,1,17.5,2.5,22.2c2.2,6.7,5.8,8.1,8.6,8.1l9.6,0.1l0.1,0c2.6,0,6.1-1.3,7.9-7.7c1.3-4.4,1.8-11.3,1.6-20.9l-1.1-67.9
				c0-0.9-0.7-1.7-1.5-1.9l-7.2-1.6c-0.1,0-0.3,0-0.4,0c-0.4,0-0.9,0.2-1.2,0.4c-0.5,0.4-0.7,0.9-0.7,1.5l1.1,69
				c0.1,4.1-0.4,5.6-0.6,6l-5.8-0.3c-0.2-0.3-0.9-1.7-1-6.6l-1.1-70.6c0-0.9-0.7-1.7-1.5-1.9l-7.8-1.7
				C259.9,59.2,259.7,59.1,259.6,59.1L259.6,59.1z"/>
		</g>
		<g>
			<path class="st0" d="M299.9,162.7c-3.1,0-5.4-2.4-6.8-7.1c-1.3-4.3-2.1-11.2-2.2-20.5l-1.1-67.3c0-0.3,0.1-0.6,0.4-0.8
				c0.2-0.1,0.4-0.2,0.6-0.2c0.1,0,0.1,0,0.2,0l6.9,1.5c0.4,0.1,0.8,0.5,0.8,0.9l1.1,66.3c0.1,6.8,1.4,7,1.5,7c0,0,5.5,0.3,5.5,0.3
				c0,0,0.1,0,0.1-0.1c0.3-0.3,1-1.5,0.9-6.5l-1.1-64.8c0-0.3,0.1-0.6,0.4-0.8c0.2-0.1,0.4-0.2,0.6-0.2c0.1,0,0.1,0,0.2,0l6.4,1.4
				c0.4,0.1,0.8,0.5,0.8,0.9l1.2,63.9c0.2,9-0.3,15.3-1.4,19.4c-1.2,4.4-3.3,6.7-6.2,6.7C308.5,162.8,299.9,162.7,299.9,162.7z"/>
			<path class="st0" d="M290.7,67.8l6.9,1.5l1.1,66.3c0.1,5.2,0.9,7.9,2.4,7.9l5.5,0.3c0,0,0,0,0.1,0c1.4,0,2.1-2.5,2-7.5l-1.1-64.8
				l6.4,1.4l1.1,63.9c0.2,8.8-0.3,15.2-1.3,19.2c-1,4-2.8,5.9-5.3,5.9c0,0,0,0-0.1,0l-8.5-0.1c-2.7,0-4.6-2.1-5.9-6.4
				c-1.3-4.2-2-11-2.2-20.3L290.7,67.8 M290.7,65.8c-0.4,0-0.9,0.2-1.2,0.4c-0.5,0.4-0.7,0.9-0.7,1.5l1.1,67.3
				c0.2,9.5,0.9,16.4,2.3,20.8c1.6,5.1,4.2,7.7,7.8,7.7l8.5,0.1l0.1,0c2.4,0,5.6-1.3,7.2-7.4c1.1-4.2,1.6-10.6,1.4-19.7l-1.1-63.9
				c0-0.9-0.7-1.7-1.5-1.9l-6.4-1.4c-0.1,0-0.3,0-0.4,0c-0.4,0-0.9,0.2-1.2,0.4c-0.5,0.4-0.7,0.9-0.7,1.5l1.1,64.8
				c0.1,3.6-0.3,5-0.5,5.5l-4.7-0.3c-0.2-0.4-0.8-1.8-0.8-6l-1.1-66.3c0-0.9-0.7-1.7-1.5-1.9l-6.9-1.5
				C291,65.9,290.8,65.8,290.7,65.8L290.7,65.8z"/>
		</g>
		<g>
			<path class="st0" d="M333.6,161.9c-0.5,0-0.9-0.3-0.9-0.8l-6.7-38.9l0.7,38.6c0,0.3-0.1,0.5-0.3,0.7c-0.2,0.2-0.4,0.3-0.7,0.3
				c0,0-6.1-0.1-6.1-0.1c-0.5,0-1-0.4-1-1l-1.6-87c0-0.3,0.1-0.6,0.4-0.8c0.2-0.1,0.4-0.2,0.6-0.2c0.1,0,0.1,0,0.2,0l6.4,1.4
				c0.4,0.1,0.7,0.4,0.8,0.8l6.6,39.1l-0.7-37.3c0-0.3,0.1-0.6,0.4-0.8c0.2-0.1,0.4-0.2,0.6-0.2c0.1,0,0.1,0,0.2,0l5.7,1.2
				c0.4,0.1,0.8,0.5,0.8,0.9l1.6,83c0,0.3-0.1,0.5-0.3,0.7c-0.2,0.2-0.4,0.3-0.7,0.3C339.7,162,333.6,161.9,333.6,161.9z"/>
			<path class="st0" d="M318.1,73.7l6.4,1.4l8.8,52.1l-1-50.4l5.7,1.2l1.6,83l-6-0.1l-8.8-51.7l1,51.6l-6.1-0.1L318.1,73.7
				 M318.1,71.7c-0.4,0-0.9,0.2-1.2,0.4c-0.5,0.4-0.7,0.9-0.7,1.5l1.6,87c0,1.1,0.9,1.9,1.9,1.9l6.1,0.1c0,0,0,0,0,0
				c0.5,0,1-0.2,1.4-0.6c0.4-0.4,0.6-0.9,0.6-1.4l-0.5-25.7l4.5,26.2c0.2,0.9,1,1.6,1.9,1.6l6,0.1c0,0,0,0,0,0c0.5,0,1-0.2,1.4-0.6
				c0.4-0.4,0.6-0.9,0.6-1.4L340,78c0-0.9-0.7-1.7-1.5-1.9l-5.7-1.2c-0.1,0-0.3,0-0.4,0c-0.4,0-0.9,0.2-1.2,0.4
				c-0.5,0.4-0.7,1-0.7,1.5l0.5,24.1l-4.4-26.2c-0.1-0.8-0.7-1.4-1.5-1.6l-6.4-1.4C318.4,71.8,318.2,71.7,318.1,71.7L318.1,71.7z"/>
		</g>
	</g>
</g>
<g id="Слой_8">
	<g>
		<g>
			<path class="st1" d="M61.1,157.5c-0.4,0-0.8-0.3-0.9-0.7l-10.3-42.3l-11.3-0.9l0,42.5c0,0.3-0.1,0.5-0.3,0.7
				c-0.2,0.2-0.4,0.3-0.7,0.3c0,0-17.6-0.3-17.6-0.3c-0.5,0-1-0.4-1-1V8c0-0.3,0.1-0.6,0.4-0.8C19.5,7.1,19.7,7,19.9,7
				c0.1,0,0.1,0,0.2,0l39.5,8.5c6.5,1.4,11.2,5.7,14,12.7c2.8,6.8,4.2,17.1,4.2,30.8l0.1,17.5c0,10.8-0.7,19.3-2.3,25.2
				c-1.5,5.8-4,9.7-7.4,11.6L79,156.5c0.1,0.3,0,0.6-0.2,0.8c-0.2,0.2-0.5,0.4-0.8,0.4C78.1,157.7,61.1,157.5,61.1,157.5z
				 M56.1,84.8c0.1,0,0.3,0,0.4,0l0,0c0.7,0,1.3-0.2,1.8-0.7c1-1,2.1-3.4,2.1-9.6l0-17.9c0-7.4-1.6-11.4-4.6-11.9l-17.3-3l0,41.2
				L56.1,84.8z"/>
			<path class="st0" d="M19.9,8l39.5,8.5c6.2,1.3,10.6,5.4,13.3,12.1c2.7,6.7,4.1,16.8,4.1,30.4L77,76.5c0,10.8-0.7,19.1-2.3,24.9
				c-1.6,5.9-4.1,9.7-7.5,11.4l10.9,43.9l-17-0.3l-10.5-42.9l-13.1-1l0,43.6l-17.6-0.3L19.9,8 M56.5,85.8c3.2,0,4.8-3.8,4.8-11.4
				l0-17.9c0-7.9-1.8-12.2-5.4-12.9l-18.5-3.2l0,43.2L56,85.8C56.2,85.8,56.3,85.8,56.5,85.8 M19.9,6.1c-0.4,0-0.9,0.2-1.2,0.4
				C18.2,6.9,18,7.4,18,8l0,147.8c0,1.1,0.9,1.9,1.9,2l17.6,0.3c0,0,0,0,0,0c0.5,0,1-0.2,1.4-0.6c0.4-0.4,0.6-0.9,0.6-1.4l0-41.5
				l9.6,0.7L59.2,157c0.2,0.9,1,1.5,1.9,1.5l17,0.3c0,0,0,0,0,0c0.6,0,1.2-0.3,1.5-0.7c0.4-0.5,0.5-1.1,0.4-1.7l-10.6-42.5
				c3.3-2.2,5.7-6.2,7.2-11.8c1.6-6,2.4-14.5,2.3-25.4L78.9,59c0-14-1.5-24.1-4.3-31.1c-3-7.4-8-11.8-14.7-13.3L20.3,6.1
				C20.2,6.1,20.1,6.1,19.9,6.1L19.9,6.1z M39.4,81.9l0-39.1l16.2,2.8c3.1,0.5,3.8,6.2,3.8,10.9l0,17.9c0,6.2-1.1,8.3-1.8,9
				c-0.3,0.3-0.6,0.4-1.1,0.4c-0.1,0-0.2,0-0.3,0L39.4,81.9L39.4,81.9z"/>
		</g>
		<g>
			<path class="st1" d="M101.9,160c-6-0.1-10.5-3.4-13.2-9.9c-2.7-6.3-4.1-16.4-4.1-30l-0.4-98c0-0.3,0.1-0.6,0.4-0.8
				c0.2-0.1,0.4-0.2,0.6-0.2c0.1,0,0.1,0,0.2,0l14.5,3.1c0.4,0.1,0.8,0.5,0.8,1l0.5,95.9c0,4.8,0.7,10.5,3.9,10.6l11.5,0.6l0.1,0
				c0.6,0,1-0.2,1.4-0.6c0.9-0.9,1.9-3.2,1.9-9.2l-0.6-92.9c0-0.3,0.1-0.6,0.4-0.8c0.2-0.1,0.4-0.2,0.6-0.2c0.1,0,0.1,0,0.2,0
				l13.1,2.8c0.4,0.1,0.8,0.5,0.8,0.9l0.6,91c0.1,12.8-1,21.9-3.3,27.7c-2.4,6-6.4,9.1-11.9,9.1L101.9,160z"/>
			<path class="st0" d="M85.1,22.1l14.5,3.1l0.5,95.9c0,7.6,1.6,11.4,4.8,11.6l11.5,0.6c0.1,0,0.1,0,0.2,0c2.9,0,4.3-3.6,4.3-10.8
				l-0.6-92.9l13.1,2.8l0.6,91c0.1,12.6-1,21.7-3.2,27.3c-2.2,5.6-5.9,8.5-11,8.5c-0.1,0-0.1,0-0.2,0l-17.7-0.2
				c-5.6-0.1-9.7-3.2-12.3-9.3c-2.6-6.2-4-16.1-4-29.6L85.1,22.1 M85.1,20.1c-0.4,0-0.9,0.2-1.2,0.4c-0.5,0.4-0.7,0.9-0.7,1.5
				l0.4,98c0.1,13.7,1.5,24,4.2,30.4c2.9,6.9,7.7,10.4,14.1,10.5l17.7,0.2l0.2,0c6,0,10.3-3.3,12.8-9.7c2.4-5.9,3.5-15.1,3.4-28.1
				l-0.6-91c0-0.9-0.6-1.7-1.5-1.9l-13.1-2.8c-0.1,0-0.3,0-0.4,0c-0.4,0-0.9,0.2-1.2,0.4c-0.5,0.4-0.7,0.9-0.7,1.5l0.6,92.9
				c0,6.2-1.1,8-1.6,8.5c-0.2,0.2-0.4,0.3-0.7,0.3l-0.1,0l-11.5-0.6c-1.8-0.1-2.9-3.7-2.9-9.7l-0.5-95.9c0-0.9-0.6-1.7-1.5-1.9
				l-14.5-3.1C85.4,20.1,85.3,20.1,85.1,20.1L85.1,20.1z"/>
		</g>
		<g>
			<path class="st1" d="M156.4,160.7c-5.1-0.1-8.9-3.1-11.3-9.2c-2.3-5.8-3.5-15-3.6-27.5l-0.7-89.8c0-0.3,0.1-0.6,0.4-0.8
				c0.2-0.1,0.4-0.2,0.6-0.2c0.1,0,0.1,0,0.2,0l12.2,2.6c0.4,0.1,0.8,0.5,0.8,0.9l0.7,88c0,6.1,1.2,9.6,3.1,9.7c0,0,9.8,0.5,9.8,0.5
				c0.5,0,0.8-0.1,1.1-0.4c0.8-0.8,1.6-2.8,1.6-8.5l-0.8-85.5c0-0.3,0.1-0.6,0.4-0.8c0.2-0.1,0.4-0.2,0.6-0.2c0.1,0,0.1,0,0.2,0
				l11.1,2.4c0.4,0.1,0.8,0.5,0.8,0.9l0.8,83.9c0.1,11.8-0.8,20.2-2.7,25.5c-2,5.6-5.5,8.4-10.2,8.4L156.4,160.7z"/>
			<path class="st0" d="M141.9,34.3l12.2,2.6l0.7,88c0.1,6.9,1.4,10.5,4.1,10.6l9.7,0.5c0.1,0,0.1,0,0.1,0c2.4,0,3.6-3.3,3.6-9.9
				l-0.8-85.5l11.1,2.4l0.8,83.9c0.1,11.6-0.8,20-2.7,25.2c-1.9,5.2-5,7.8-9.3,7.8c0,0-0.1,0-0.1,0l-15-0.2
				c-4.7-0.1-8.2-2.9-10.4-8.5c-2.2-5.7-3.4-14.7-3.5-27.1L141.9,34.3 M141.9,32.3c-0.4,0-0.9,0.2-1.2,0.4c-0.5,0.4-0.7,0.9-0.7,1.5
				l0.7,89.8c0.1,12.6,1.3,21.9,3.6,27.8c3.1,8,8.4,9.7,12.2,9.8l15,0.2l0.2,0c3.6,0,8.4-1.6,11.1-9.1c2-5.5,2.9-13.9,2.8-25.9
				L184.6,43c0-0.9-0.7-1.7-1.5-1.9L172,38.8c-0.1,0-0.3,0-0.4,0c-0.4,0-0.9,0.2-1.2,0.4c-0.5,0.4-0.7,0.9-0.7,1.5l0.8,85.5
				c0.1,6-1,7.5-1.3,7.8c-0.1,0.1-0.2,0.1-0.3,0.1l-9.8-0.5c-0.8,0-2.2-1.9-2.2-8.7l-0.7-88c0-0.9-0.6-1.7-1.5-1.9l-12.2-2.6
				C142.2,32.3,142,32.3,141.9,32.3L141.9,32.3z"/>
		</g>
		<g>
			<path class="st1" d="M202.6,161.3c-4.5-0.1-7.8-2.9-9.8-8.5c-1.9-5.3-3-13.8-3.1-25.3l-0.8-82.9c0-0.3,0.1-0.6,0.4-0.8
				c0.2-0.1,0.4-0.2,0.6-0.2c0.1,0,0.1,0,0.2,0l10.4,2.2c0.4,0.1,0.8,0.5,0.8,0.9l0.9,81.4c0.1,5.5,1,8.8,2.6,8.8
				c0,0,8.3,0.4,8.3,0.4c0.3,0,0.5-0.1,0.8-0.3c0.5-0.5,1.4-2.3,1.4-7.9l-0.9-79.2c0-0.3,0.1-0.6,0.4-0.8c0.2-0.1,0.4-0.2,0.6-0.2
				c0.1,0,0.1,0,0.2,0l9.5,2.1c0.4,0.1,0.8,0.5,0.8,0.9l1,77.8c0.1,10.9-0.6,18.7-2.3,23.7c-1.7,5.2-4.7,7.9-8.9,7.9L202.6,161.3z"
				/>
			<path class="st0" d="M189.8,44.6l10.4,2.2l0.9,81.4c0.1,6.4,1.2,9.7,3.5,9.8l8.3,0.4c0,0,0.1,0,0.1,0c2.1,0,3.1-3.1,3-9.2
				l-0.9-79.2l9.5,2.1l1,77.8c0.1,10.7-0.6,18.5-2.2,23.3c-1.6,4.8-4.2,7.2-8,7.2c0,0-0.1,0-0.1,0l-12.8-0.2c-4-0.1-7-2.7-8.9-7.9
				c-1.9-5.2-2.9-13.6-3.1-25L189.8,44.6 M189.8,42.6c-0.4,0-0.9,0.2-1.2,0.4c-0.5,0.4-0.7,0.9-0.7,1.5l0.8,82.9
				c0.1,11.6,1.2,20.2,3.2,25.7c2.7,7.5,7.3,9.1,10.7,9.1l12.8,0.2l0.1,0c3.2,0,7.5-1.5,9.8-8.6c1.7-5.1,2.4-12.9,2.3-24l-1-77.8
				c0-0.9-0.7-1.7-1.5-1.9l-9.5-2.1c-0.1,0-0.3,0-0.4,0c-0.4,0-0.9,0.2-1.2,0.4c-0.5,0.4-0.7,0.9-0.7,1.5l0.9,79.2
				c0.1,6.4-1.1,7.2-1.1,7.2l-8.3-0.5c-0.3,0-1.6-1.4-1.7-7.9l-0.9-81.4c0-0.9-0.7-1.7-1.5-1.9l-10.4-2.2
				C190.1,42.7,190,42.6,189.8,42.6L189.8,42.6z"/>
		</g>
		<g>
			<path class="st1" d="M242.2,161.8c-3.9,0-6.8-2.7-8.6-7.9c-1.7-4.9-2.6-12.8-2.8-23.5l-1-76.9c0-0.3,0.1-0.6,0.4-0.8
				c0.2-0.1,0.4-0.2,0.6-0.2c0.1,0,0.1,0,0.2,0l9,1.9c0.4,0.1,0.8,0.5,0.8,0.9l1,75.6c0.1,7.4,1.7,8.1,2.1,8.1c0,0,7.2,0.4,7.2,0.4
				c0.2,0,0.3,0,0.5-0.2c0.5-0.5,1.2-2.1,1.2-7.4l-1-73.7c0-0.3,0.1-0.6,0.4-0.8c0.2-0.1,0.4-0.2,0.6-0.2c0.1,0,0.1,0,0.2,0l8.3,1.8
				c0.4,0.1,0.8,0.5,0.8,0.9l1,72.5c0.1,10.2-0.5,17.4-1.9,22.1c-1.5,4.9-4.1,7.4-7.8,7.4C253.4,162,242.2,161.8,242.2,161.8z"/>
			<path class="st0" d="M230.9,53.4l9,1.9l1,75.6c0.1,6,1.1,9,3.1,9.1l7.2,0.4c0,0,0.1,0,0.1,0c1.8,0,2.7-2.9,2.6-8.6l-1-73.7
				l8.3,1.8l1,72.5c0.1,10-0.5,17.3-1.8,21.8c-1.4,4.5-3.7,6.7-6.9,6.7c0,0-0.1,0-0.1,0l-11-0.1c-3.5,0-6-2.5-7.7-7.3
				c-1.7-4.8-2.6-12.6-2.7-23.2L230.9,53.4 M230.9,51.5c-0.4,0-0.9,0.2-1.2,0.4c-0.5,0.4-0.7,0.9-0.7,1.5l1,76.9
				c0.1,10.9,1.1,18.7,2.8,23.8c2.4,7,6.5,8.6,9.5,8.6l11,0.1l0.1,0c2.9,0,6.7-1.4,8.8-8.1c1.4-4.7,2.1-12,1.9-22.4l-1-72.5
				c0-0.9-0.7-1.7-1.5-1.9l-8.3-1.8c-0.1,0-0.3,0-0.4,0c-0.4,0-0.9,0.2-1.2,0.4c-0.5,0.4-0.7,0.9-0.7,1.5l1,73.7
				c0.1,4.8-0.6,6.2-0.8,6.6l-7-0.4c-0.2-0.2-1.2-1.3-1.2-7.2l-1-75.6c0-0.9-0.7-1.7-1.5-1.9l-9-1.9C231.2,51.5,231,51.5,230.9,51.5
				L230.9,51.5z"/>
		</g>
		<g>
			<path class="st1" d="M276.6,162.3c-3.5,0-6-2.6-7.6-7.5c-1.5-4.6-2.3-12-2.5-21.9l-1.1-71.8c0-0.3,0.1-0.6,0.4-0.8
				c0.2-0.1,0.4-0.2,0.6-0.2c0.1,0,0.1,0,0.2,0l7.8,1.7c0.4,0.1,0.8,0.5,0.8,0.9l1.1,70.6c0.1,7.2,1.6,7.5,1.8,7.5
				c0,0,6.3,0.3,6.3,0.3c0.1,0,0.2,0,0.3-0.1c0.3-0.3,1.1-1.7,1-6.9l-1.1-69c0-0.3,0.1-0.6,0.4-0.8c0.2-0.1,0.4-0.2,0.6-0.2
				c0.1,0,0.1,0,0.2,0l7.2,1.6c0.4,0.1,0.8,0.5,0.8,0.9l1.1,67.9c0.2,9.6-0.4,16.3-1.6,20.7c-1.3,4.7-3.7,7-7,7
				C286.3,162.4,276.6,162.3,276.6,162.3z"/>
			<path class="st0" d="M266.4,61.1l7.8,1.7l1.1,70.6c0.1,5.6,1,8.4,2.7,8.5l6.3,0.3c0,0,0.1,0,0.1,0c1.6,0,2.3-2.7,2.3-8l-1.1-69
				l7.2,1.6l1.1,67.9c0.2,9.4-0.4,16.2-1.6,20.4c-1.2,4.2-3.2,6.3-6,6.3c0,0,0,0-0.1,0l-9.6-0.1c-3,0-5.3-2.3-6.7-6.8
				c-1.5-4.5-2.3-11.7-2.4-21.6L266.4,61.1 M266.4,59.1c-0.4,0-0.9,0.2-1.2,0.4c-0.5,0.4-0.7,0.9-0.7,1.5l1.1,71.8
				c0.2,10.2,1,17.5,2.5,22.2c2.2,6.7,5.8,8.1,8.6,8.1l9.6,0.1l0.1,0c2.6,0,6.1-1.3,7.9-7.7c1.3-4.4,1.8-11.3,1.6-20.9l-1.1-67.9
				c0-0.9-0.7-1.7-1.5-1.9l-7.2-1.6c-0.1,0-0.3,0-0.4,0c-0.4,0-0.9,0.2-1.2,0.4c-0.5,0.4-0.7,0.9-0.7,1.5l1.1,69
				c0.1,4.1-0.4,5.6-0.6,6l-5.8-0.3c-0.2-0.3-0.9-1.7-1-6.6l-1.1-70.6c0-0.9-0.7-1.7-1.5-1.9l-7.8-1.7
				C266.7,59.2,266.6,59.1,266.4,59.1L266.4,59.1z"/>
		</g>
		<g>
			<path class="st1" d="M306.7,162.7c-3.1,0-5.4-2.4-6.8-7.1c-1.3-4.3-2.1-11.2-2.2-20.5l-1.1-67.3c0-0.3,0.1-0.6,0.4-0.8
				c0.2-0.1,0.4-0.2,0.6-0.2c0.1,0,0.1,0,0.2,0l6.9,1.5c0.4,0.1,0.8,0.5,0.8,0.9l1.1,66.3c0.1,6.8,1.4,7,1.5,7c0,0,5.5,0.3,5.5,0.3
				c0,0,0.1,0,0.1-0.1c0.3-0.3,1-1.5,0.9-6.5l-1.1-64.8c0-0.3,0.1-0.6,0.4-0.8c0.2-0.1,0.4-0.2,0.6-0.2c0.1,0,0.1,0,0.2,0l6.4,1.4
				c0.4,0.1,0.8,0.5,0.8,0.9l1.2,63.9c0.2,9-0.3,15.3-1.4,19.4c-1.2,4.4-3.3,6.7-6.2,6.7C315.3,162.8,306.7,162.7,306.7,162.7z"/>
			<path class="st0" d="M297.5,67.8l6.9,1.5l1.1,66.3c0.1,5.2,0.9,7.9,2.4,7.9l5.5,0.3c0,0,0,0,0.1,0c1.4,0,2.1-2.5,2-7.5l-1.1-64.8
				l6.4,1.4l1.1,63.9c0.2,8.8-0.3,15.2-1.3,19.2c-1,4-2.8,5.9-5.3,5.9c0,0,0,0-0.1,0l-8.5-0.1c-2.7,0-4.6-2.1-5.9-6.4
				c-1.3-4.2-2-11-2.2-20.3L297.5,67.8 M297.5,65.8c-0.4,0-0.9,0.2-1.2,0.4c-0.5,0.4-0.7,0.9-0.7,1.5l1.1,67.3
				c0.2,9.5,0.9,16.4,2.3,20.8c1.6,5.1,4.2,7.7,7.8,7.7l8.5,0.1l0.1,0c2.4,0,5.6-1.3,7.2-7.4c1.1-4.2,1.6-10.6,1.4-19.7l-1.1-63.9
				c0-0.9-0.7-1.7-1.5-1.9l-6.4-1.4c-0.1,0-0.3,0-0.4,0c-0.4,0-0.9,0.2-1.2,0.4c-0.5,0.4-0.7,0.9-0.7,1.5l1.1,64.8
				c0.1,3.6-0.3,5-0.5,5.5l-4.7-0.3c-0.2-0.4-0.8-1.8-0.8-6l-1.1-66.3c0-0.9-0.7-1.7-1.5-1.9l-6.9-1.5
				C297.8,65.9,297.6,65.8,297.5,65.8L297.5,65.8z"/>
		</g>
		<g>
			<path class="st1" d="M340.5,161.9c-0.5,0-0.9-0.3-0.9-0.8l-6.7-38.9l0.7,38.6c0,0.3-0.1,0.5-0.3,0.7c-0.2,0.2-0.4,0.3-0.7,0.3
				c0,0-6.1-0.1-6.1-0.1c-0.5,0-1-0.4-1-1l-1.6-87c0-0.3,0.1-0.6,0.4-0.8c0.2-0.1,0.4-0.2,0.6-0.2c0.1,0,0.1,0,0.2,0l6.4,1.4
				c0.4,0.1,0.7,0.4,0.8,0.8l6.6,39.1l-0.7-37.3c0-0.3,0.1-0.6,0.4-0.8c0.2-0.1,0.4-0.2,0.6-0.2c0.1,0,0.1,0,0.2,0l5.7,1.2
				c0.4,0.1,0.8,0.5,0.8,0.9l1.6,83c0,0.3-0.1,0.5-0.3,0.7c-0.2,0.2-0.4,0.3-0.7,0.3C346.5,162,340.5,161.9,340.5,161.9z"/>
			<path class="st0" d="M324.9,73.7l6.4,1.4l8.8,52.1l-1-50.4l5.7,1.2l1.6,83l-6-0.1l-8.8-51.7l1,51.6l-6.1-0.1L324.9,73.7
				 M324.9,71.7c-0.4,0-0.9,0.2-1.2,0.4c-0.5,0.4-0.7,0.9-0.7,1.5l1.6,87c0,1.1,0.9,1.9,1.9,1.9l6.1,0.1c0,0,0,0,0,0
				c0.5,0,1-0.2,1.4-0.6c0.4-0.4,0.6-0.9,0.6-1.4l-0.5-25.7l4.5,26.2c0.2,0.9,1,1.6,1.9,1.6l6,0.1c0,0,0,0,0,0c0.5,0,1-0.2,1.4-0.6
				c0.4-0.4,0.6-0.9,0.6-1.4l-1.6-83c0-0.9-0.7-1.7-1.5-1.9l-5.7-1.2c-0.1,0-0.3,0-0.4,0c-0.4,0-0.9,0.2-1.2,0.4
				c-0.5,0.4-0.7,1-0.7,1.5l0.5,24.1l-4.4-26.2c-0.1-0.8-0.7-1.4-1.5-1.6l-6.4-1.4C325.2,71.8,325,71.7,324.9,71.7L324.9,71.7z"/>
		</g>
	</g>
</g>
</svg>
