<?xml version="1.0" encoding="utf-8"?>
<!-- Generator: Adobe Illustrator 27.1.1, SVG Export Plug-In . SVG Version: 6.00 Build 0)  -->
<svg version="1.1" id="Слой_8" xmlns="http://www.w3.org/2000/svg" xmlns:xlink="http://www.w3.org/1999/xlink" x="0px" y="0px"
	 viewBox="0 0 547.7 167.8" style="enable-background:new 0 0 547.7 167.8;" xml:space="preserve">
<style type="text/css">
	.st0{fill:#202B3D;}
	.st1{fill:#2E405B;}
</style>
<g>
	<path class="st0" d="M216.3,169.9l-73.4,2.2c-0.2-0.3-22.3,2.3-22.7,2.3c-0.1,0-17-1.9-17.1-1.8l-47.7-4.8l-59.2,4.8L-2.2-3.5
		L341.1,0l141.8-3.5l70.3,3.6l-4.7,169.1L216.3,169.9z"/>
	<path class="st1" d="M553.3,97.9c-127.3,3-103,1.5-115.3,1.1c-4.7-0.1-14.9-0.1,18-1.4c17.8-0.7,54.1-2,103.9-3.7l-0.4,3.9
		C557.4,97.8,555.3,97.8,553.3,97.9z M496.8,60.7l66.8-3.8l0.3-2.7c-63,4.1-120.6,7.9-152.7,10.2c-31.9,2.2-37.2,2.7-13.8,1.3
		c12.5-0.7,32.6-2,43.8-2.6c24.6-1.4-0.4,0.4-3.3,0.7C434.2,64.2,464.9,62.5,496.8,60.7z M562.6,66l0.1-1
		c-77.1,4.1-192.2,10.4-279.8,15.4c-21.1,1.2-41.2,2.4-56,3.2c-29.1,1.7-32.5,2.1-32.4,2.2c0.2,0.3-12.8,1.6,133.2-6.5
		C394.2,75.7,493.8,70,562.6,66z M561.9,73.1l0.2-2.1c-28.1,1.4-58.3,2.9-88.4,4.4c-49.4,2.5-88,4.6-106.8,5.7
		c-18.1,1-21.9,1.4-24.4,1.6c-8,0.8-4.9,1.1,9.5,0.8c3.5-0.1,12.4-0.4,43.9-1.9c33.8-1.6,69.3-3.4,96-4.8
		C515.4,75.6,539,74.3,561.9,73.1z M512.4,88.6c15.6-0.5,31.6-1,48.1-1.5l0.3-2.6c-57,2.3-107.6,4.3-137.1,5.6
		c-33,1.4-38.5,1.8-14.3,1c12.9-0.4,33.8-1.2,45.4-1.6c25.5-0.8-0.4,0.4-3.4,0.7C447.5,90.6,479.3,89.6,512.4,88.6z M564.6,46.2
		c-35.3,2.5-68.9,5-99.3,7.2c-73.7,5.4-116.6,8.7-152,11.4c-126.7,9.7-223,17.1-298.7,22.9c-6.7,0.5-13.3,1-19.5,1.5v1.1
		c5.6-0.4,11.7-0.8,18.3-1.2c71.2-4.8,102.4-7.5,145.7-10.7c79.2-5.8,156.5-11,321.9-22.3c28.9-2,56.5-3.9,83.1-5.7L564.6,46.2z
		 M131.4,97.7c31.4-1,65.6-2.1,102.9-3.3c6.6-0.2,17.4-0.6,39.7-1.5c15.7-0.7,30.5-1.3,43.9-2c25.9-1.2,53.3-2.4,82.3-3.8
		c36.7-1.7,77-3.5,106.8-4.9c95.7-4.6,39.2-2.6-30.7,0.2c-39.6,1.5-82.9,3.3-140.5,5.7c-51.4,2.2-113.8,5-163,7.2
		c-16.8,0.8-32.2,1.5-41.5,2c-6.4,0.3-9.9,0.5-10.8,0.6C118.7,98.1,125,97.9,131.4,97.7z M117.8,105.2c24.1-1.2-57,1.4-122.4,3.8v1
		c1.9-0.1,3.9-0.1,6-0.2C41.2,108.4,104.9,105.9,117.8,105.2z M-4.8,94.1v0.2C-1.6,94.1-1,93.9-4.8,94.1z M103.5,77.1
		c44.2-3.6,83.7-7,84.8-7.5c0.7-0.3-14.2,0.6-35.9,2.1C134.1,73,105.1,75,63,78.3c-28.2,2.2-52.8,4.2-68,5.5v1.6
		c4.2-0.2,9.4-0.6,16.1-1C49.3,81.5,80,79,103.5,77.1z M236.6,170.9c-102.4-4.9-198.4-9.3-240.5-11v1.2c39.4,2.2,135.2,7,206.5,10.8
		c15,0.8,29,1.6,49.6,2.6c41.2,2.1,89.5,4.4,132.1,6.5c52,2.5,110.5,5.3,165.8,7.9l0.2-1.6c-72-3.5-148.3-7.1-182.7-8.9
		c-0.9-0.3-14.9-1.3-40.2-2.8c-6-0.3-12.8-0.7-24.9-1.4C285.5,173.3,260.3,172.1,236.6,170.9z M-3.8,169.2v3.4
		c18.7,1.3,40.5,2.9,56.4,4.1c22.5,1.7,28,2.2,44.7,3.6c17.5,1.4,61,4.6,109,7.8c36.1,2.5,57.6,3.8,76.3,5
		c73.7,4.6,160.8,9.9,265.5,16.4l0.4-3.5c-88-6.6-240.8-17.1-401.5-27.8c-13.2-0.9-27.5-1.8-44.4-2.9c-27.4-1.7-48-2.9-62.7-3.7
		C24.6,170.8,9.9,170-3.8,169.2z M558.7,105.1l0.5-4.5c-35.1,0.7-70.3,1.5-103.8,2.2c-104.5,2.2-228.2,5.1-350.4,8.5
		c-50.2,1.4-88,2.6-109.4,3.3v2.3c21.9-0.4,55.1-1.1,85.2-1.7c53.6-1,46.3-0.6,91.3-1.4C246.9,112.6,419.2,108.6,558.7,105.1z
		 M-3.7,176.8c3.5,0.3,7,0.5,10.7,0.8c100.7,7.4,140.4,9.7,29,1.2c-9-0.7-18.5-1.4-25.7-2c-6.6-0.5-10.7-0.9-13.9-1.1L-3.7,176.8z
		 M554.1,149.9l0.2-1.5c-7-0.1-14.2-0.2-21.6-0.4c-27.2-0.4-55.3-0.9-76.3-1.2c-43.6-0.8-48.8-1-73.3-1.5c-48.2-1-150-2.5-223-3.5
		c-37.4-0.5-74.4-1-98-1.3c-35.6-0.4-26.1,0.1,0.9,0.6c60,1.3,158.8,3.7,384.6,7.2C485.1,148.9,520.9,149.4,554.1,149.9z
		 M545.1,161.6C424.1,157.8,90.4,149-4,146.8v0.7c13.5,0.5,21.3,0.9,22,1c0.9,0.2-8.3,0.2,15.1,1c36.6,1.3,131.3,3.9,215.3,6.2
		c104,2.8,228.3,5.9,304.4,7.6l0.2-1.5C550.4,161.8,547.8,161.7,545.1,161.6z M243.2,115c-6.5,0.5-4,0.8,7.7,1
		c2.8,0,10.1,0,35.5-0.4c27.1-0.4,55.4-1,76.5-1.4c78-1.6,154.9-3.3,188.3-4.3c2.7-0.1,5.1-0.2,7.1-0.2l0.1-0.5
		c-13.4,0-43.4,0.4-91,1.2c-32.7,0.5-75.6,1.3-118.7,2.1c-39.3,0.8-70.4,1.5-85.5,1.9C248.4,114.6,245.2,114.8,243.2,115z
		 M554.9,142.1l0.5-5.3c-48.8-0.3-102.1-0.6-160.4-0.9c-197.2-1-285.4-1.3-347-2.1c-20.5-0.3-29.9-0.7-52.3-1v3.3
		c17.5,0.4,36.1,0.7,55.7,1.1c18.3,0.4,40.5,0.8,88.9,1.4c67.7,0.8,178.6,1.9,275.2,2.6C465.1,141.6,510.7,141.9,554.9,142.1z
		 M557.7,114.4l0.1-1.4c-10.6,0.3-17.6,0.5-21.6,0.6C522.4,114.2,539.7,114.3,557.7,114.4z M556.3,128.4l0.5-4.9
		c-102.9,0-223.6,0.4-341.9,0.9c-15.2,0.1-31.7,0.1-51.1,0.3c-31.4,0.2-54.9,0.5-71.5,0.8c-36.9,0.5-70.7,1-96.6,1.4v2.5
		c2,0.1,5,0.1,11.5,0.2c19.8,0.1,69.1,0.1,99.6,0.2c25.6,0.1,32,0.3,51.1,0.4c20.1,0.1,70.4,0.3,126.1,0.1
		c42.3-0.1,67.5-0.3,89.5-0.4C427.6,129.4,488.2,128.9,556.3,128.4z"/>
	<path class="st1" d="M553.8,2.9l0.8,3.8c-49.7,4.2-85.9,7.1-103.6,8.5c-32.8,2.5-22.7,1.4-18,0.7c12.2-1.8-12.1-0.5,114.7-12.4
		C549.7,3.3,551.7,3.1,553.8,2.9z M437,50.8c3,0,27.9-1.1,3.4,0.3c-11.2,0.7-31.3,1.8-43.8,2.5c-23.4,1.4-18,1.3,13.9-0.3
		c32.1-1.6,89.7-4.5,152.8-7.8l-0.6-2.6l-66.8,4C464,48.9,433.4,50.8,437,50.8z M325.9,48.2c-146,9.1-132.9,8.8-133.1,9.1
		c-0.1,0.1,3.3,0.1,32.4-1.6c14.7-0.8,34.8-2,56-3.3C368.8,47.1,483.8,40,560.9,35l-0.2-1C491.9,38.1,392.3,44,325.9,48.2z
		 M489.2,31.6c-26.7,1.7-62.2,4.1-95.9,6.4c-31.5,2.2-40.4,2.9-43.8,3.2c-14.3,1.4-17.4,2-9.3,1.9c2.5,0,6.4-0.2,24.5-1.2
		c18.7-1.1,57.4-3.6,106.7-6.8c30.1-2,60.2-4,88.3-5.9l-0.5-2.1C536.2,28.5,512.7,30,489.2,31.6z M447.2,23
		c3.1-0.1,28.9-1.9,3.5,0.3c-11.6,1-32.3,2.7-45.2,3.8c-24.1,2-18.6,1.8,14.3-0.7c29.5-2.2,80-6,136.9-10.4l-0.6-2.6
		c-16.4,1.4-32.4,2.8-48,4.1C475.1,20.3,443.5,23,447.2,23z M564.1,49.4c-26.6,1.3-54.3,2.6-83.2,4.1c-165.6,8.2-243,12-322.3,15.5
		c-43.4,1.9-74.8,2.8-146,6.4C6,75.7-0.1,76-5.7,76.3l0.1,1.1c6.2-0.3,12.8-0.5,19.5-0.8c75.8-3.1,172.3-7,299.3-12.2
		c35.5-1.4,78.5-3.2,152.3-6.5c30.4-1.3,64.1-2.9,99.5-4.5L564.1,49.4z M117.8,54c1,0,4.4-0.2,10.8-0.7c9.3-0.6,24.7-1.7,41.5-2.9
		c49.1-3.5,111.4-8,162.7-11.9c57.5-4.3,100.7-7.6,140.2-10.7c69.7-5.5,126.1-10.1,30.5-3.4c-29.7,2.1-69.9,5-106.6,7.6
		c-29,2.1-56.3,4-82.2,5.9c-13.4,1-28.2,2-43.8,3.2c-22.3,1.7-33.1,2.6-39.6,3.1c-37.2,3.2-71.3,6.1-102.6,8.7
		C122.3,53.5,116,54,117.8,54z M-1.8,56.1c-2.1,0.2-4.1,0.3-6,0.5l0.1,1c65.2-5.3,146.1-12.2,122-10.6
		C101.4,47.9,37.9,52.9-1.8,56.1z M-6.2,72.2v0.2C-2.3,72.2-3,72.1-6.2,72.2z M10.9,80.2c-6.7,0.3-12,0.6-16.1,0.9l0.2,1.6
		c15.2-0.5,39.9-1.4,68.1-2.5c42.2-1.7,71.3-3,89.6-3.9c21.7-1.1,36.6-1.9,35.9-2.1c-1.2-0.3-40.8,0.9-85.1,2.5
		C79.8,77.5,49.1,78.6,10.9,80.2z M289.7-43c11.9-2,18.6-3.2,24.5-4.3c25-4.4,38.7-7,39.6-7.5c33.9-5.8,109.3-18.3,180.4-30.2
		l-0.3-1.5c-54.7,9-112.5,18.6-163.8,27.2c-42,7-89.8,14.9-130.4,21.9c-20.3,3.5-34.1,5.9-48.9,8.4C120.4-16.9,25.8-1-13,5.8
		l0.1,1.2c41.6-6.6,136.4-22.2,237.5-39.1C248.1-36,272.9-40.1,289.7-43z M29.2-9.8c14.5-2.5,34.8-6.1,61.8-11
		c16.7-3,30.7-5.6,43.7-8C293-58.1,443.6-86.5,530.2-103.3l-0.8-3.4c-103.1,18.6-189,34.2-261.7,47.3c-18.4,3.3-39.6,7.2-75.2,13.8
		C145.3-36.7,102.4-28.4,85.2-25c-16.4,3.3-21.8,4.5-44,8.8c-15.6,3-37.1,7.1-55.5,10.6l0.3,3.4C-0.4-4.6,14.1-7.1,29.2-9.8z
		 M167.2,32.1c-44.9,4.5-37.6,4-90.9,9.3c-29.9,2.9-63,6.1-84.8,8.3l0.2,2.3c21.4-1.8,59.1-5,109.1-9.5
		C222.6,31.6,345.7,20,449.8,10c33.4-3.2,68.4-6.6,103.4-9.9l-1-4.4C413.2,8.5,241.7,24.6,167.2,32.1z M-14.6-8.7
		c3.2-0.7,7.2-1.5,13.7-2.8c7.1-1.4,16.5-3.2,25.3-5C134.2-37.9,95-31-4.1-11.9c-3.6,0.7-7.1,1.4-10.6,2L-14.6-8.7z M436.8-34.3
		C213-4.4,115.1,9.5,55.7,17.8c-26.8,3.7-36.2,5.3-0.9,0.7c23.4-3,60.1-7.8,97.2-12.7c72.4-9.5,173.3-22.9,221-29.5
		c24.3-3.4,29.4-4.2,72.6-10.1c20.9-2.8,48.7-6.5,75.6-10.2c7.3-1,14.5-1.9,21.4-2.9l-0.3-1.5C509.5-43.9,474-39.2,436.8-34.3z
		 M539.8-60l-0.3-1.5C464.1-50.9,341-33.3,238.1-18.3C154.9-6.3,61.1,7.4,24.9,13c-23.1,3.6-14,2.4-14.9,2.8
		c-0.7,0.3-8.3,1.5-21.7,3.6l0.1,0.7C82,6.9,412.3-40.9,532.1-58.8C534.7-59.2,537.3-59.6,539.8-60z M257.5,21.1
		c15.1-1.4,46-4.3,85.1-8.1c42.9-4.2,85.6-8.5,118.1-11.8c47.4-4.8,77.3-7.9,90.5-9.5l-0.1-0.5c-2,0.2-4.3,0.4-7.1,0.6
		c-33.2,3-109.7,10.3-187.3,17.8c-21.1,2-49.3,4.8-76.2,7.5c-25.3,2.6-32.5,3.4-35.3,3.8c-11.6,1.5-14,2.2-7.5,1.9
		C239.8,22.7,242.9,22.5,257.5,21.1z M405.9-23.5c-95.9,12-205.8,26-273,34.7c-48,6.2-70,9.3-88.1,11.8c-19.5,2.7-37.9,5.2-55.2,7.6
		l0.3,3.2c22.2-3,31.5-4.5,51.8-7.1C102.8,18.7,190.4,8,386.1-16c57.9-7.1,110.8-13.6,159.2-19.6l-1.2-5.2
		C500.3-35.2,455-29.6,405.9-23.5z M528.9-10.2c4-0.3,11-0.9,21.5-1.9l-0.3-1.4C532.3-11.3,515.1-9.2,528.9-10.2z M365.4-7.2
		c-21.9,2.4-47,5.2-89,10C221,9.2,171.1,15.2,151.2,17.7c-18.9,2.4-25.2,3.3-50.7,6.4c-30.3,3.7-79.3,9.4-98.9,11.8
		c-6.4,0.8-9.4,1.2-11.4,1.5l0.3,2.5c25.7-2.6,59.4-6.1,96.1-9.9c16.6-1.7,40-4.2,71.1-7.6c19.3-2.1,35.6-4,50.8-5.7
		C326,3.4,445.9-10.4,548.2-22.3l-1.1-4.8C479.4-19.7,419.2-13.1,365.4-7.2z"/>
</g>
</svg>
