<?xml version="1.0" encoding="utf-8"?>
<!-- Generator: Adobe Illustrator 27.1.1, SVG Export Plug-In . SVG Version: 6.00 Build 0)  -->
<svg version="1.1" id="Слой_1" xmlns="http://www.w3.org/2000/svg" xmlns:xlink="http://www.w3.org/1999/xlink" x="0px" y="0px"
	 viewBox="0 0 316.2 521.2" style="enable-background:new 0 0 316.2 521.2;" xml:space="preserve">
<style type="text/css">
	.st0{fill:#FFFFFF;stroke:#000000;stroke-width:3;stroke-linecap:round;stroke-linejoin:round;stroke-miterlimit:10;}
</style>
<g id="Слой_2_00000150091423706408175680000006041109558726102939_">
	<path class="st0" d="M102.3,88.6c0,0-25.8-6-39.3-26.7C14.1,59.4,1.6,38,1.6,38L1.5,1.3l147.1,0.1c0,0,5.7,51.2-57,59.6
		C85,71.8,102.3,88.6,102.3,88.6z"/>
</g>
<g id="Слой_3">
	<g>
		<path d="M31.2,9.2c-0.1,0-0.3,0-0.4-0.1c-1.1-0.3-2.2-0.4-3.2-0.4c-0.5,0-1.1,0-1.6,0.1c-0.6,0.1-1.2,0.2-1.9,0.4
			c0,0.9,0,2.2-0.1,4c0.4,0,1.7-0.2,4-0.4c1.3-0.1,2.1-0.2,2.5-0.2s0.7,0.1,1,0.4c0.3,0.3,0.4,0.6,0.4,1c0,0.8-0.4,1.3-1.3,1.4
			c-0.5,0-1.4,0.1-2.4,0.2c-1,0.1-2.4,0.2-4.3,0.4c0,0.9-0.1,1.6-0.1,2.1c0,1.3,0.1,2.1,0.2,2.3c0.1,0.1,0.5,0.1,1.3,0.1
			c0.4,0,1.1,0,1.9,0s1.5,0,1.9,0c0.1,0,0.3,0,0.6-0.1c0.3,0,0.5-0.1,0.6-0.1c0.4,0,0.7,0.1,1,0.3c0.3,0.3,0.5,0.6,0.5,1.1
			c0,0.8-0.4,1.2-1.2,1.4c-0.7,0.1-2.1,0.2-4.2,0.2c-2.2,0-3.6-0.3-4.3-0.9c-0.7-0.7-1.1-2.1-1.1-4.3c0-0.9,0.1-2.3,0.2-4.1
			s0.2-3.2,0.2-4.1c0-0.2,0-0.6-0.1-1.1S21.2,8,21.2,7.7c0-1,0.5-1.5,1.4-1.5c0.3,0,0.6,0.1,0.8,0.3c0.8-0.2,1.5-0.3,2.2-0.4
			S27,6,27.6,6c1.7,0,3.1,0.2,4.1,0.6c0.6,0.2,0.9,0.7,0.9,1.3c0,0.4-0.1,0.7-0.4,0.9C32,9.1,31.6,9.2,31.2,9.2z"/>
		<path d="M42.7,22.8c-0.3,0-0.8-0.3-1.5-0.9c-0.6,0.3-1.2,0.5-1.6,0.7c-0.5,0.2-0.9,0.2-1.2,0.2c-1.6,0-2.9-0.4-3.7-1.3
			s-1.2-2.2-1.2-3.9c0-1.6,0.6-3,1.8-4.2s2.6-1.7,4.3-1.7c0.6,0,1.4,0.2,2.2,0.5c1,0.4,1.5,0.9,1.5,1.5c0,0.2-0.1,0.5-0.2,0.6
			c-0.1,0.3-0.1,0.6-0.2,1s-0.1,0.9-0.1,1.4c0,1.3,0.1,2.2,0.3,2.8c0,0.1,0.2,0.4,0.5,1s0.4,0.9,0.4,1c0,0.4-0.1,0.6-0.4,0.9
			S43.1,22.8,42.7,22.8z M40.2,15.9c0-0.2,0-0.5,0-0.7c0-0.3,0.1-0.6,0.1-0.9c-0.1-0.1-0.3-0.1-0.4-0.1c-0.1,0-0.2,0-0.3,0
			c-0.9,0-1.7,0.4-2.4,1.1c-0.7,0.7-1,1.6-1,2.5c0,0.9,0.2,1.6,0.5,2c0.3,0.5,0.8,0.7,1.5,0.7c0.4,0,0.8-0.1,1.2-0.2
			s0.7-0.3,1.1-0.6C40.3,17.9,40.2,16.7,40.2,15.9z"/>
		<path d="M52.7,14.8c-0.7,0-1.1-0.3-1.2-0.8c-0.3,0-0.5-0.1-0.8-0.1c-1.6,0-2.4,0.2-2.4,0.7c0,0.3,0.5,0.6,1.5,1.1
			c1.3,0.6,2.2,1.1,2.7,1.4c1,0.7,1.5,1.5,1.5,2.4c0,1.2-0.5,2-1.6,2.6c-0.9,0.5-1.9,0.7-3.2,0.7c-0.9,0-1.7-0.1-2.5-0.4
			c-1-0.4-1.5-0.9-1.5-1.7c0-0.7,0.4-1,1.2-1c0.3,0,0.8,0.1,1.4,0.3c0.6,0.2,1,0.3,1.4,0.3c1.4,0,2.1-0.3,2.1-0.8
			c0-0.3-0.5-0.7-1.4-1.1c-1.4-0.6-2.3-1.1-2.7-1.3c-1-0.7-1.4-1.5-1.4-2.4c0-1.4,0.7-2.3,2.2-2.8c0.8-0.3,2.1-0.4,3.9-0.4
			c0.7,0,1.2,0.1,1.5,0.3c0.4,0.2,0.7,0.7,0.7,1.3C53.6,14.2,53.3,14.8,52.7,14.8z"/>
		<path d="M65.7,13.7c-0.7,1.5-1.9,3.9-3.5,7.2c-0.9,1.8-1.5,3.2-2,4.4c-0.1,0.4-0.4,1-0.7,1.9c-0.2,0.6-0.7,1-1.3,1
			c-0.4,0-0.7-0.1-1-0.4s-0.4-0.6-0.4-0.9c0-0.6,0.7-2.5,2.2-5.6c-0.7-1.5-1.9-3.6-3.5-6.5c-0.2-0.3-0.3-0.5-0.5-0.8
			s-0.3-0.6-0.3-0.9c0-0.4,0.1-0.7,0.4-1c0.3-0.3,0.6-0.4,1-0.4s0.8,0.2,1,0.5c1,1.3,2.1,3.2,3.4,5.8c0.7-1.6,1.2-2.6,1.3-2.9
			c0.5-1,1-1.9,1.4-2.7c0.3-0.5,0.7-0.7,1.2-0.7c0.4,0,0.7,0.1,1,0.4c0.3,0.3,0.4,0.6,0.4,0.9C65.9,13.2,65.8,13.4,65.7,13.7z"/>
		<path d="M79.3,16.6c-0.1,0-0.4,0-0.9-0.1c0,0.9-0.1,2.5-0.1,4.7c0,0.4-0.1,0.7-0.4,0.9c-0.3,0.3-0.6,0.4-1,0.4s-0.7-0.1-1-0.4
			s-0.4-0.6-0.4-0.9v-2.8c0-1,0.1-2.6,0.2-4.7C76,11.6,76.1,10,76.1,9c0-1.8,0.5-2.6,1.5-2.5c0.2-0.1,0.5-0.1,1-0.1
			c0.4,0,0.9,0,1.5,0c1.3,0,2.6,0.4,3.7,1.3c1.3,1,1.9,2.1,1.9,3.5c0,1.7-0.7,3.1-2.1,4.1C82.4,16.1,81,16.6,79.3,16.6z M79.8,8.9
			c-0.2,0-0.4,0-0.6,0s-0.3,0-0.4,0c0,0.3,0,0.8,0,1.4c0,0.8-0.1,1.9-0.2,3.5c0.3,0.1,0.6,0.1,0.7,0.1c1.1,0,1.9-0.2,2.6-0.8
			c0.7-0.5,1.1-1.2,1.1-2.1c0-0.6-0.3-1.1-1-1.5S80.6,8.9,79.8,8.9z"/>
		<path d="M92.3,22.7c-1.6,0-2.9-0.4-4-1.2c-1.1-0.9-1.7-2.1-1.7-3.6c0-1.7,0.4-3.2,1.3-4.3c1-1.3,2.4-2,4-2c1.2,0,2.2,0.2,2.9,0.6
			c1,0.5,1.5,1.3,1.5,2.3c0,0.7-0.4,1.4-1.2,2c-0.4,0.3-1.1,0.6-2.3,1.2l-3.4,1.5c0.3,0.4,0.7,0.6,1.2,0.8c0.5,0.2,1,0.3,1.6,0.3
			c0.9,0,1.7-0.2,2.3-0.6c0.6-0.3,1-0.5,1.3-0.5c0.7,0,1.1,0.3,1.1,1c0,0.8-0.6,1.4-1.7,1.9C94.4,22.5,93.4,22.7,92.3,22.7z
			 M92.1,14.1c-0.6,0-1.2,0.2-1.6,0.6c-0.4,0.4-0.8,1-1.1,1.9c0.8-0.3,1.5-0.7,2.3-1c0.9-0.4,1.6-0.8,2.2-1.1
			C93.4,14.2,92.8,14.1,92.1,14.1z"/>
		<path d="M107.6,22.8c-0.3,0-0.8-0.3-1.5-0.9c-0.6,0.3-1.2,0.5-1.6,0.7c-0.5,0.2-0.9,0.2-1.2,0.2c-1.6,0-2.9-0.4-3.7-1.3
			c-0.8-0.9-1.2-2.2-1.2-3.9c0-1.6,0.6-3,1.8-4.2c1.2-1.2,2.6-1.7,4.3-1.7c0.6,0,1.4,0.2,2.2,0.5c1,0.4,1.5,0.9,1.5,1.5
			c0,0.2-0.1,0.5-0.2,0.6c-0.1,0.3-0.1,0.6-0.2,1s-0.1,0.9-0.1,1.4c0,1.3,0.1,2.2,0.3,2.8c0,0.1,0.2,0.4,0.5,1s0.4,0.9,0.4,1
			c0,0.4-0.1,0.6-0.4,0.9S107.9,22.8,107.6,22.8z M105.1,15.9c0-0.2,0-0.5,0-0.7c0-0.3,0.1-0.6,0.1-0.9c-0.1-0.1-0.3-0.1-0.4-0.1
			s-0.2,0-0.3,0c-0.9,0-1.7,0.4-2.4,1.1c-0.7,0.7-1,1.6-1,2.5c0,0.9,0.2,1.6,0.5,2c0.3,0.5,0.8,0.7,1.5,0.7c0.4,0,0.8-0.1,1.2-0.2
			s0.7-0.3,1.1-0.6C105.2,17.9,105.1,16.7,105.1,15.9z"/>
		<path d="M117.5,14.8c-0.7,0-1.1-0.3-1.2-0.8c-0.3,0-0.5-0.1-0.8-0.1c-1.6,0-2.4,0.2-2.4,0.7c0,0.3,0.5,0.6,1.5,1.1
			c1.3,0.6,2.2,1.1,2.7,1.4c1,0.7,1.5,1.5,1.5,2.4c0,1.2-0.5,2-1.6,2.6c-0.9,0.5-1.9,0.7-3.2,0.7c-0.9,0-1.7-0.1-2.5-0.4
			c-1-0.4-1.5-0.9-1.5-1.7c0-0.7,0.4-1,1.2-1c0.3,0,0.8,0.1,1.4,0.3c0.6,0.2,1,0.3,1.4,0.3c1.4,0,2.1-0.3,2.1-0.8
			c0-0.3-0.5-0.7-1.4-1.1c-1.4-0.6-2.3-1.1-2.7-1.3c-1-0.7-1.4-1.5-1.4-2.4c0-1.4,0.7-2.3,2.2-2.8c0.8-0.3,2.1-0.4,3.9-0.4
			c0.7,0,1.2,0.1,1.5,0.3c0.4,0.2,0.7,0.7,0.7,1.3C118.5,14.2,118.2,14.8,117.5,14.8z"/>
		<path d="M130.6,13.7c-0.7,1.5-1.9,3.9-3.5,7.2c-0.9,1.8-1.5,3.2-2,4.4c-0.1,0.4-0.4,1-0.7,1.9c-0.2,0.6-0.7,1-1.3,1
			c-0.4,0-0.7-0.1-1-0.4s-0.4-0.6-0.4-0.9c0-0.6,0.7-2.5,2.2-5.6c-0.7-1.5-1.9-3.6-3.5-6.5c-0.2-0.3-0.3-0.5-0.5-0.8
			s-0.3-0.6-0.3-0.9c0-0.4,0.1-0.7,0.4-1s0.6-0.4,1-0.4s0.8,0.2,1,0.5c1,1.3,2.1,3.2,3.4,5.8c0.7-1.6,1.2-2.6,1.3-2.9
			c0.5-1,1-1.9,1.4-2.7c0.3-0.5,0.7-0.7,1.2-0.7c0.4,0,0.7,0.1,1,0.4c0.3,0.3,0.4,0.6,0.4,0.9C130.8,13.2,130.7,13.4,130.6,13.7z"/>
		<path d="M37.8,36.8c0.9-0.1,1.6-0.1,1.9-0.1c1.3,0,1.9,0.4,1.9,1.3c0,0.9-0.7,1.3-2,1.3c-0.4,0-1.1,0-1.9,0.1c0,0.7,0,1.6,0,2.7
			c0,1.6,0,2.5,0,2.7c0,1.2-0.1,2.2-0.2,2.9c-0.2,0.7-0.6,1.1-1.3,1.1c-0.4,0-0.7-0.1-1-0.4c-0.3-0.2-0.4-0.6-0.4-0.9
			c0-0.1,0-0.2,0-0.3c0.2-1,0.2-1.9,0.2-2.7v-5.1c-0.1,0-0.3,0-0.7,0.1c-0.3,0-0.5,0.1-0.6,0.1c-0.4,0-0.8-0.1-1-0.4s-0.4-0.6-0.4-1
			c0-0.6,0.3-1,1-1.2c0.3-0.1,0.9-0.1,1.8-0.2c0-0.1,0.1-0.5,0.1-1.1c0.2-1.5,0.6-2.6,1.2-3.4c0.8-0.9,2-1.4,3.6-1.4
			c1.2,0,1.9,0.4,1.9,1.3c0,0.9-0.6,1.3-1.7,1.3c-0.8,0-1.4,0.3-1.8,0.9c-0.3,0.4-0.5,1.1-0.6,2V36.8z"/>
		<path d="M47.7,47.8c-1.3,0-2.3-0.4-3.2-1.3c-1-0.9-1.5-2.2-1.6-3.8c0-1.5,0.4-2.8,1.2-4c1-1.4,2.5-2.1,4.3-2.1
			c1.4,0,2.4,0.5,3.2,1.6c0.7,1,1.1,2.2,1.1,3.6c0,1.6-0.4,2.9-1.3,4C50.6,47.2,49.3,47.8,47.7,47.8z M48.3,39.3
			c-0.8,0-1.5,0.4-2,1.1c-0.4,0.6-0.6,1.4-0.6,2.3c0,0.8,0.2,1.4,0.7,1.9c0.4,0.3,0.8,0.5,1.3,0.5c0.6,0,1.1-0.2,1.5-0.6
			c0.5-0.5,0.8-1.1,0.8-1.9C50.2,40.4,49.6,39.3,48.3,39.3z"/>
		<path d="M63,39.9c-0.1,1-0.5,1.6-1.4,1.6s-1.3-0.4-1.3-1.3l-0.1-1c-1.5,0.2-2.6,1-3.3,2.3v5.1c0,0.4-0.1,0.7-0.4,1
			c-0.3,0.3-0.6,0.4-1,0.4s-0.7-0.1-1-0.4c-0.2-0.2-0.3-0.6-0.3-0.9v-6.6c0-0.2,0-0.5,0-0.9s0-0.7,0-0.9c0-0.4,0.1-0.7,0.3-0.9
			c0.2-0.3,0.5-0.4,1-0.4c0.8,0,1.2,0.4,1.3,1.2c1.2-0.9,2.5-1.3,4-1.3c1.4,0,2,0.9,2,2.7C63,39.5,63,39.8,63,39.9z"/>
		<path d="M84.6,34.7c-0.1,0-0.3,0-0.6,0c-0.3,0-0.5,0-0.6,0h-0.8c0-0.1,0,0.1,0,0.7c0,4.8-0.3,8.4-1,10.6c-0.5,1.6-1.4,2.4-2.7,2.4
			c-1.3,0-2.5-0.4-3.7-1.3c-1.4-1-2.1-2.1-2.1-3.4c0-1.1,0.5-1.6,1.4-1.6s1.4,0.5,1.4,1.6c0,0.4,0.3,0.8,1,1.3s1.3,0.7,1.9,0.7
			c0.2,0,0.4-0.5,0.5-1.4c0-0.2,0.1-1.3,0.2-3.2c0.1-1.5,0.2-3.5,0.2-5.8c0-0.1,0-0.3,0-0.7h-0.2c-0.3,0-0.7,0-1.2,0
			c-0.6,0-1,0-1.2,0c-0.4,0-0.7-0.1-1-0.4c-0.3-0.3-0.4-0.6-0.4-1c0-0.9,0.6-1.4,1.8-1.4c0.2,0,0.6,0,1,0c0.5,0,0.8,0,1,0
			c0.4,0,1.1,0,1.9-0.1s1.5-0.1,1.9-0.1c1.8,0,2.7,0.5,2.7,1.5c0,0.4-0.1,0.7-0.4,0.9C85.4,34.6,85,34.7,84.6,34.7z"/>
		<path d="M91.5,47.8c-1.3,0-2.3-0.4-3.2-1.3c-1-0.9-1.5-2.2-1.6-3.8c0-1.5,0.4-2.8,1.2-4c1-1.4,2.5-2.1,4.3-2.1
			c1.4,0,2.4,0.5,3.2,1.6c0.7,1,1.1,2.2,1.1,3.6c0,1.6-0.4,2.9-1.3,4C94.3,47.2,93.1,47.8,91.5,47.8z M92.1,39.3
			c-0.8,0-1.5,0.4-2,1.1c-0.4,0.6-0.6,1.4-0.6,2.3c0,0.8,0.2,1.4,0.7,1.9c0.4,0.3,0.8,0.5,1.3,0.5c0.6,0,1.1-0.2,1.5-0.6
			c0.5-0.5,0.8-1.1,0.8-1.9C93.9,40.4,93.3,39.3,92.1,39.3z"/>
		<path d="M105.4,39.7c-0.7,0-1.1-0.3-1.2-0.8c-0.3,0-0.5-0.1-0.8-0.1c-1.6,0-2.4,0.2-2.4,0.7c0,0.3,0.5,0.6,1.5,1.1
			c1.3,0.6,2.2,1.1,2.7,1.4c1,0.7,1.5,1.5,1.5,2.4c0,1.2-0.5,2-1.6,2.6c-0.9,0.5-1.9,0.7-3.2,0.7c-0.9,0-1.7-0.1-2.5-0.4
			c-1-0.4-1.5-0.9-1.5-1.7c0-0.7,0.4-1,1.2-1c0.3,0,0.8,0.1,1.4,0.3s1,0.3,1.4,0.3c1.4,0,2.1-0.3,2.1-0.8c0-0.3-0.5-0.7-1.4-1.1
			c-1.4-0.6-2.3-1.1-2.7-1.3c-1-0.7-1.4-1.5-1.4-2.4c0-1.4,0.7-2.3,2.2-2.8c0.8-0.3,2.1-0.4,3.9-0.4c0.7,0,1.2,0.1,1.5,0.3
			c0.4,0.2,0.7,0.7,0.7,1.3C106.4,39.1,106,39.7,105.4,39.7z"/>
		<path d="M113.5,47.6c-1.6,0-2.9-0.4-4-1.2c-1.1-0.9-1.7-2.1-1.7-3.6c0-1.7,0.4-3.2,1.3-4.3c1-1.3,2.4-2,4-2c1.2,0,2.2,0.2,2.9,0.6
			c1,0.5,1.5,1.3,1.5,2.3c0,0.7-0.4,1.4-1.2,2c-0.4,0.3-1.1,0.6-2.3,1.2l-3.4,1.5c0.3,0.4,0.7,0.6,1.2,0.8s1,0.3,1.6,0.3
			c0.9,0,1.7-0.2,2.3-0.6c0.6-0.3,1-0.5,1.3-0.5c0.7,0,1.1,0.3,1.1,1c0,0.8-0.6,1.4-1.7,1.9C115.5,47.4,114.5,47.6,113.5,47.6z
			 M113.2,39c-0.6,0-1.2,0.2-1.6,0.6c-0.4,0.4-0.8,1-1.1,1.9c0.8-0.3,1.5-0.7,2.3-1c0.9-0.4,1.6-0.8,2.2-1.1
			C114.5,39.2,113.9,39,113.2,39z"/>
	</g>
</g>
</svg>
