<?xml version="1.0" encoding="utf-8"?>
<!-- Generator: Adobe Illustrator 27.1.1, SVG Export Plug-In . SVG Version: 6.00 Build 0)  -->
<svg version="1.1" id="Слой_1" xmlns="http://www.w3.org/2000/svg" xmlns:xlink="http://www.w3.org/1999/xlink" x="0px" y="0px"
	 viewBox="0 0 316.2 521.2" style="enable-background:new 0 0 316.2 521.2;" xml:space="preserve">
<style type="text/css">
	.st0{fill-rule:evenodd;clip-rule:evenodd;fill:url(#SVGID_1_);}
	.st1{fill:#6DCAFF;}
	.st2{fill:#FFFFFF;}
	.st3{fill:#475293;}
	.st4{fill:#26262D;}
	.st5{fill:#182138;}
</style>
<g id="Слой_2_00000080179358136705631670000003329721878937673656_">
	<g>
		
			<linearGradient id="SVGID_1_" gradientUnits="userSpaceOnUse" x1="157.2" y1="499.2" x2="157.2" y2="-23.5" gradientTransform="matrix(1 0 0 1 0 22)">
			<stop  offset="0" style="stop-color:#2E405B"/>
			<stop  offset="0.5279" style="stop-color:#003366"/>
			<stop  offset="0.9575" style="stop-color:#072D44"/>
		</linearGradient>
		<polygon class="st0" points="-3,521.2 317.4,521.2 317.4,-1.5 -3,-1.5 		"/>
		<g>
			<g>
				<path class="st1" d="M225.8,85C225.8,85,225.8,84.9,225.8,85C225.8,84.9,225.8,85,225.8,85z"/>
			</g>
			<g>
				<path class="st1" d="M218.2,127.4L218.2,127.4L218.2,127.4z"/>
			</g>
			<g>
				<path class="st1" d="M66.7,198.2c0.8,0,0.8-1.2,0-1.2C65.9,197,65.9,198.2,66.7,198.2z"/>
			</g>
			<g>
				<path class="st1" d="M195,154.3c0.8,0,0.8-1.2,0-1.2S194.2,154.3,195,154.3z"/>
			</g>
			<g>
				<path class="st1" d="M318,201c0.8,0,0.8-1.2,0-1.2C317.3,199.8,317.3,201,318,201z"/>
			</g>
			<g>
				<path class="st1" d="M46.7,45.6c0.8,0,0.8-1.2,0-1.2C45.9,44.4,45.9,45.6,46.7,45.6z"/>
			</g>
			<g>
				<path class="st1" d="M77,85c0.8,0,0.8-1.2,0-1.2C76.2,83.9,76.2,85,77,85z"/>
			</g>
			<g>
				<path class="st1" d="M117.2,52.5c0.8,0,0.8-1.2,0-1.2C116.4,51.3,116.4,52.5,117.2,52.5z"/>
			</g>
			<g>
				<path class="st1" d="M139.2,70.6c0.8,0,0.8-1.2,0-1.2C138.4,69.5,138.4,70.6,139.2,70.6z"/>
			</g>
			<g>
				<path class="st1" d="M280.1,28.2c0.8,0,0.8-1.2,0-1.2C279.4,27,279.4,28.2,280.1,28.2z"/>
			</g>
			<g>
				<path class="st1" d="M268,235.1c0.8,0,0.8-1.2,0-1.2C267.2,233.9,267.2,235.1,268,235.1z"/>
			</g>
			<g>
				<path class="st1" d="M140.7,290.4c0.8,0,0.8-1.2,0-1.2C139.9,289.2,139.9,290.4,140.7,290.4z"/>
			</g>
			<g>
				<path class="st1" d="M117.9,329.8c0.8,0,0.8-1.2,0-1.2C117.2,328.7,117.2,329.8,117.9,329.8z"/>
			</g>
			<g>
				<path class="st1" d="M3.5,298c0.8,0,0.8-1.2,0-1.2S2.7,298,3.5,298z"/>
			</g>
			<g>
				<path class="st1" d="M176.2,318.2c0.8,0,0.8-1.2,0-1.2S175.4,318.2,176.2,318.2z"/>
			</g>
			<g>
				<path class="st1" d="M50.5,279.8c0.8,0,0.8-1.2,0-1.2C49.7,278.6,49.7,279.8,50.5,279.8z"/>
			</g>
			<g>
				<path class="st1" d="M-5.6,167.7c0.8,0,0.8-1.2,0-1.2S-6.4,167.7-5.6,167.7z"/>
			</g>
			<g>
				<path class="st1" d="M49,127.5c0.8,0,0.8-1.2,0-1.2S48.2,127.5,49,127.5z"/>
			</g>
			<g>
				<path class="st1" d="M258.1,88.8c0.8,0,0.8-1.2,0-1.2C257.4,87.6,257.4,88.8,258.1,88.8z"/>
			</g>
			<g>
				<path class="st1" d="M268.8,138.1c0.8,0,0.8-1.2,0-1.2C268,136.9,268,138.1,268.8,138.1z"/>
			</g>
			<g>
				<path class="st1" d="M234.7,183.6c0.8,0,0.8-1.2,0-1.2C233.9,182.4,233.9,183.6,234.7,183.6z"/>
			</g>
			<g>
				<path class="st1" d="M160.4,176c0.8,0,0.8-1.2,0-1.2C159.6,174.8,159.6,176,160.4,176z"/>
			</g>
			<g>
				<path class="st1" d="M149,121.4c0.8,0,0.8-1.2,0-1.2C148.2,120.2,148.2,121.4,149,121.4z"/>
			</g>
			<g>
				<path class="st1" d="M199.8,76.7c0.8,0,0.8-1.2,0-1.2S199,76.7,199.8,76.7z"/>
			</g>
			<g>
				<path class="st1" d="M216.5,41.1c0.8,0,0.8-1.2,0-1.2C215.7,39.9,215.7,41.1,216.5,41.1z"/>
			</g>
			<g>
				<path class="st1" d="M308.9,114.6c0.8,0,0.8-1.2,0-1.2C308.2,113.4,308.2,114.6,308.9,114.6z"/>
			</g>
			<g>
				<path class="st1" d="M322.6,285.1c0.8,0,0.8-1.2,0-1.2C321.8,283.9,321.8,285.1,322.6,285.1z"/>
			</g>
			<g>
				<path class="st1" d="M326.4,313.9c0.8,0,0.8-1.2,0-1.2C325.6,312.7,325.6,313.9,326.4,313.9z"/>
			</g>
			<g>
				<path class="st1" d="M278.6,313.9c0.8,0,0.8-1.2,0-1.2C277.8,312.7,277.8,313.9,278.6,313.9z"/>
			</g>
			<g>
				<path class="st1" d="M180.1,248.7c0.8,0,0.8-1.2,0-1.2C179.3,247.6,179.3,248.7,180.1,248.7z"/>
			</g>
			<g>
				<path class="st1" d="M113.4,208.6c0.8,0,0.8-1.2,0-1.2C112.6,207.4,112.6,208.6,113.4,208.6z"/>
			</g>
			<g>
				<path class="st1" d="M5.8,220.7c0.8,0,0.8-1.2,0-1.2S5,220.7,5.8,220.7z"/>
			</g>
			<g>
				<path class="st1" d="M48.2,151.7c0.8,0,0.8-1.2,0-1.2S47.4,151.7,48.2,151.7z"/>
			</g>
			<g>
				<path class="st1" d="M11.1,94.1c0.8,0,0.8-1.2,0-1.2S10.3,94.1,11.1,94.1z"/>
			</g>
			<g>
				<path class="st1" d="M94.4,26.7c0.8,0,0.8-1.2,0-1.2C93.7,25.5,93.7,26.7,94.4,26.7z"/>
			</g>
			<g>
				<path class="st1" d="M124.8,122.2c0.8,0,0.8-1.2,0-1.2S124,122.2,124.8,122.2z"/>
			</g>
			<g>
				<path class="st1" d="M233.9,103.2c0.8,0,0.8-1.2,0-1.2C233.1,102,233.1,103.2,233.9,103.2z"/>
			</g>
			<g>
				<path class="st1" d="M265,10.8c0.8,0,0.8-1.2,0-1.2S264.2,10.8,265,10.8z"/>
			</g>
			<g>
				<path class="st1" d="M83.5,163.5c0.8,0,0.8-1.2,0-1.2S82.7,163.5,83.5,163.5z"/>
			</g>
			<g>
				<path class="st1" d="M76.6,173.3c0.8,0,0.8-1.2,0-1.2C75.9,172.1,75.9,173.3,76.6,173.3z"/>
			</g>
			<g>
				<path class="st1" d="M79.7,163.1c0.8,0,0.8-1.2,0-1.2C78.9,161.9,78.9,163.1,79.7,163.1z"/>
			</g>
			<g>
				<path class="st1" d="M65.3,172.6c0.8,0,0.8-1.2,0-1.2C64.5,171.4,64.5,172.6,65.3,172.6z"/>
			</g>
			<g>
				<path class="st1" d="M50.5,187c0.8,0,0.8-1.2,0-1.2S49.7,187,50.5,187z"/>
			</g>
			<g>
				<path class="st1" d="M49.3,169.9c0.8,0,0.8-1.2,0-1.2C48.6,168.7,48.6,169.9,49.3,169.9z"/>
			</g>
			<g>
				<path class="st1" d="M66,181.7c0.8,0,0.8-1.2,0-1.2C65.3,180.5,65.3,181.7,66,181.7z"/>
			</g>
			<g>
				<path class="st1" d="M58.4,188.9c0.8,0,0.8-1.2,0-1.2C57.7,187.7,57.7,188.9,58.4,188.9z"/>
			</g>
			<g>
				<path class="st1" d="M55.8,181.3c0.8,0,0.8-1.2,0-1.2S55,181.3,55.8,181.3z"/>
			</g>
			<g>
				<path class="st1" d="M42.9,201c0.8,0,0.8-1.2,0-1.2C42.1,199.8,42.1,201,42.9,201z"/>
			</g>
			<g>
				<path class="st1" d="M22.1,216.2c0.8,0,0.8-1.2,0-1.2C21.3,215,21.3,216.2,22.1,216.2z"/>
			</g>
			<g>
				<path class="st1" d="M109.6,135.1c0.8,0,0.8-1.2,0-1.2C108.8,133.9,108.8,135.1,109.6,135.1z"/>
			</g>
			<g>
				<path class="st1" d="M86.9,122.2c0.8,0,0.8-1.2,0-1.2S86.1,122.2,86.9,122.2z"/>
			</g>
			<g>
				<path class="st1" d="M94.1,138.1c0.8,0,0.8-1.2,0-1.2C93.3,136.9,93.3,138.1,94.1,138.1z"/>
			</g>
			<g>
				<path class="st1" d="M105.4,156.3c0.8,0,0.8-1.2,0-1.2C104.7,155.1,104.7,156.3,105.4,156.3z"/>
			</g>
			<g>
				<path class="st1" d="M120.6,141.9c0.8,0,0.8-1.2,0-1.2C119.8,140.7,119.8,141.9,120.6,141.9z"/>
			</g>
			<g>
				<path class="st1" d="M106.2,143.8c0.8,0,0.8-1.2,0-1.2C105.4,142.6,105.4,143.8,106.2,143.8z"/>
			</g>
			<g>
				<path class="st1" d="M97.5,144.2c0.8,0,0.8-1.2,0-1.2S96.7,144.2,97.5,144.2z"/>
			</g>
			<g>
				<path class="st1" d="M101.3,91.5c0.8,0,0.8-1.2,0-1.2S100.5,91.5,101.3,91.5z"/>
			</g>
			<g>
				<path class="st1" d="M111.5,64.6c0.8,0,0.8-1.2,0-1.2C110.7,63.4,110.7,64.6,111.5,64.6z"/>
			</g>
			<g>
				<path class="st1" d="M138.8,77.1c0.8,0,0.8-1.2,0-1.2S138,77.1,138.8,77.1z"/>
			</g>
			<g>
				<path class="st1" d="M123.2,77.5c0.8,0,0.8-1.2,0-1.2C122.5,76.3,122.5,77.5,123.2,77.5z"/>
			</g>
			<g>
				<path class="st1" d="M138.8,99.1c0.8,0,0.8-1.2,0-1.2S138,99.1,138.8,99.1z"/>
			</g>
			<g>
				<path class="st1" d="M138.4,127.1c0.8,0,0.8-1.2,0-1.2C137.6,125.9,137.6,127.1,138.4,127.1z"/>
			</g>
			<g>
				<path class="st1" d="M158.1,126.3c0.8,0,0.8-1.2,0-1.2C157.3,125.2,157.3,126.3,158.1,126.3z"/>
			</g>
			<g>
				<path class="st1" d="M171,85c0.8,0,0.8-1.2,0-1.2C170.2,83.9,170.2,85,171,85z"/>
			</g>
			<g>
				<path class="st1" d="M158.5,69.9c0.8,0,0.8-1.2,0-1.2C157.7,68.7,157.7,69.9,158.5,69.9z"/>
			</g>
			<g>
				<path class="st1" d="M155.5,90.7c0.8,0,0.8-1.2,0-1.2S154.7,90.7,155.5,90.7z"/>
			</g>
			<g>
				<path class="st1" d="M143.3,86.9c0.8,0,0.8-1.2,0-1.2C142.6,85.7,142.6,86.9,143.3,86.9z"/>
			</g>
			<g>
				<path class="st1" d="M153.2,71.4c0.8,0,0.8-1.2,0-1.2C152.4,70.2,152.4,71.4,153.2,71.4z"/>
			</g>
			<g>
				<path class="st1" d="M130.8,90c0.8,0,0.8-1.2,0-1.2C130.1,88.8,130.1,90,130.8,90z"/>
			</g>
			<g>
				<path class="st1" d="M136.9,111.9c0.8,0,0.8-1.2,0-1.2C136.1,110.8,136.1,111.9,136.9,111.9z"/>
			</g>
			<g>
				<path class="st1" d="M155.1,107c0.8,0,0.8-1.2,0-1.2S154.3,107,155.1,107z"/>
			</g>
			<g>
				<path class="st1" d="M133.1,108.5c0.8,0,0.8-1.2,0-1.2S132.3,108.5,133.1,108.5z"/>
			</g>
			<g>
				<path class="st1" d="M139.2,138.9c0.8,0,0.8-1.2,0-1.2S138.4,138.9,139.2,138.9z"/>
			</g>
			<g>
				<path class="st1" d="M133.1,152.5c0.8,0,0.8-1.2,0-1.2S132.3,152.5,133.1,152.5z"/>
			</g>
			<g>
				<path class="st1" d="M119.1,152.5c0.8,0,0.8-1.2,0-1.2C118.3,151.3,118.3,152.5,119.1,152.5z"/>
			</g>
			<g>
				<path class="st1" d="M114.1,170.3c0.8,0,0.8-1.2,0-1.2C113.4,169.1,113.4,170.3,114.1,170.3z"/>
			</g>
			<g>
				<path class="st1" d="M95.6,171.4c0.8,0,0.8-1.2,0-1.2C94.8,170.3,94.8,171.4,95.6,171.4z"/>
			</g>
			<g>
				<path class="st1" d="M92.9,164.6c0.8,0,0.8-1.2,0-1.2C92.2,163.4,92.2,164.6,92.9,164.6z"/>
			</g>
			<g>
				<path class="st1" d="M54.7,119.9c0.8,0,0.8-1.2,0-1.2C53.9,118.7,53.9,119.9,54.7,119.9z"/>
			</g>
			<g>
				<path class="st1" d="M59.2,136.6c0.8,0,0.8-1.2,0-1.2C58.4,135.4,58.4,136.6,59.2,136.6z"/>
			</g>
			<g>
				<path class="st1" d="M44.8,137c0.8,0,0.8-1.2,0-1.2S44,137,44.8,137z"/>
			</g>
			<g>
				<path class="st1" d="M30.8,140c0.8,0,0.8-1.2,0-1.2S30,140,30.8,140z"/>
			</g>
			<g>
				<path class="st1" d="M36.5,162.1L36.5,162.1L36.5,162.1z"/>
			</g>
			<g>
				<path class="st1" d="M41.4,168.8c0.8,0,0.8-1.2,0-1.2C40.6,167.6,40.6,168.8,41.4,168.8z"/>
			</g>
			<g>
				<path class="st1" d="M32.3,176.7c0.8,0,0.8-1.2,0-1.2C31.5,175.6,31.5,176.7,32.3,176.7z"/>
			</g>
			<g>
				<path class="st1" d="M20.9,168.8c0.8,0,0.8-1.2,0-1.2C20.2,167.6,20.2,168.8,20.9,168.8z"/>
			</g>
			<g>
				<path class="st1" d="M30.4,155.5c0.8,0,0.8-1.2,0-1.2S29.6,155.5,30.4,155.5z"/>
			</g>
			<g>
				<path class="st1" d="M66,197.2c0.8,0,0.8-1.2,0-1.2C65.3,196,65.3,197.2,66,197.2z"/>
			</g>
			<g>
				<path class="st1" d="M53.1,195.7c0.8,0,0.8-1.2,0-1.2C52.4,194.5,52.4,195.7,53.1,195.7z"/>
			</g>
			<g>
				<path class="st1" d="M78.5,204c0.8,0,0.8-1.2,0-1.2C77.8,202.8,77.8,204,78.5,204z"/>
			</g>
			<g>
				<path class="st1" d="M84.2,183.2c0.8,0,0.8-1.2,0-1.2C83.4,182,83.4,183.2,84.2,183.2z"/>
			</g>
			<g>
				<path class="st1" d="M122.1,186.2c0.8,0,0.8-1.2,0-1.2C121.3,185,121.3,186.2,122.1,186.2z"/>
			</g>
			<g>
				<path class="st1" d="M75.5,215c0.8,0,0.8-1.2,0-1.2S74.7,215,75.5,215z"/>
			</g>
			<g>
				<path class="st1" d="M55.4,223c0.8,0,0.8-1.2,0-1.2C54.6,221.8,54.6,223,55.4,223z"/>
			</g>
			<g>
				<path class="st1" d="M57.3,237.4c0.8,0,0.8-1.2,0-1.2S56.5,237.4,57.3,237.4z"/>
			</g>
			<g>
				<path class="st1" d="M72.8,237.8c0.8,0,0.8-1.2,0-1.2C72.1,236.6,72.1,237.8,72.8,237.8z"/>
			</g>
			<g>
				<path class="st1" d="M98.2,199.1c0.8,0,0.8-1.2,0-1.2C97.5,197.9,97.5,199.1,98.2,199.1z"/>
			</g>
			<g>
				<path class="st1" d="M293.5,138.1c0.8,0,0.8-1.2,0-1.2C292.8,136.9,292.7,138.1,293.5,138.1z"/>
			</g>
			<g>
				<path class="st1" d="M302.1,158.3c0.8,0,0.8-1.2,0-1.2C301.3,157.1,301.3,158.3,302.1,158.3z"/>
			</g>
			<g>
				<path class="st1" d="M274.8,181.5c0.8,0,0.8-1.2,0-1.2C274.1,180.4,274.1,181.5,274.8,181.5z"/>
			</g>
			<g>
				<path class="st1" d="M255.1,164.4c0.8,0,0.8-1.2,0-1.2C254.4,163.2,254.3,164.4,255.1,164.4z"/>
			</g>
			<g>
				<path class="st1" d="M276.8,190.1c0.8,0,0.8-1.2,0-1.2C276.1,188.9,276.1,190.1,276.8,190.1z"/>
			</g>
			<g>
				<path class="st1" d="M281.9,181.5c0.8,0,0.8-1.2,0-1.2C281.1,180.4,281.1,181.5,281.9,181.5z"/>
			</g>
			<g>
				<path class="st1" d="M291.5,191.1c0.8,0,0.8-1.2,0-1.2C290.7,190,290.7,191.1,291.5,191.1z"/>
			</g>
			<g>
				<path class="st1" d="M290,264.4c0.8,0,0.8-1.2,0-1.2C289.2,263.2,289.2,264.4,290,264.4z"/>
			</g>
			<g>
				<path class="st1" d="M250.1,241.7c0.8,0,0.8-1.2,0-1.2S249.3,241.7,250.1,241.7z"/>
			</g>
			<g>
				<path class="st1" d="M211.2,252.8c0.8,0,0.8-1.2,0-1.2S210.4,252.8,211.2,252.8z"/>
			</g>
			<g>
				<path class="st1" d="M216.7,272.5c0.8,0,0.8-1.2,0-1.2C216,271.3,215.9,272.5,216.7,272.5z"/>
			</g>
			<g>
				<path class="st1" d="M203.1,279.6c0.8,0,0.8-1.2,0-1.2S202.3,279.6,203.1,279.6z"/>
			</g>
			<g>
				<path class="st1" d="M210.7,296.2c0.8,0,0.8-1.2,0-1.2C209.9,295.1,209.9,296.2,210.7,296.2z"/>
			</g>
			<g>
				<path class="st1" d="M209.6,305.8c0.8,0,0.8-1.2,0-1.2C208.9,304.7,208.9,305.8,209.6,305.8z"/>
			</g>
			<g>
				<path class="st1" d="M250.1,269.5c0.8,0,0.8-1.2,0-1.2S249.3,269.5,250.1,269.5z"/>
			</g>
			<g>
				<path class="st1" d="M233.4,224c0.8,0,0.8-1.2,0-1.2C232.6,222.8,232.6,224,233.4,224z"/>
			</g>
			<g>
				<path class="st1" d="M203.1,196.2c0.8,0,0.8-1.2,0-1.2S202.3,196.2,203.1,196.2z"/>
			</g>
			<g>
				<path class="st1" d="M182.4,214.4c0.8,0,0.8-1.2,0-1.2C181.6,213.2,181.6,214.4,182.4,214.4z"/>
			</g>
			<g>
				<path class="st1" d="M194.5,217.4c0.8,0,0.8-1.2,0-1.2S193.7,217.4,194.5,217.4z"/>
			</g>
			<g>
				<path class="st1" d="M149,246.2c0.8,0,0.8-1.2,0-1.2S148.2,246.2,149,246.2z"/>
			</g>
			<g>
				<path class="st1" d="M130.3,241.7c0.8,0,0.8-1.2,0-1.2C129.6,240.5,129.5,241.7,130.3,241.7z"/>
			</g>
			<g>
				<path class="st1" d="M94.9,246.2c0.8,0,0.8-1.2,0-1.2C94.2,245,94.2,246.2,94.9,246.2z"/>
			</g>
			<g>
				<path class="st1" d="M103.5,265.9c0.8,0,0.8-1.2,0-1.2C102.8,264.7,102.8,265.9,103.5,265.9z"/>
			</g>
			<g>
				<path class="st1" d="M81.8,259.4c0.8,0,0.8-1.2,0-1.2C81,258.2,81,259.4,81.8,259.4z"/>
			</g>
			<g>
				<path class="st1" d="M40.4,244.7c0.8,0,0.8-1.2,0-1.2C39.6,243.5,39.6,244.7,40.4,244.7z"/>
			</g>
			<g>
				<path class="st1" d="M76.8,280.1c0.8,0,0.8-1.2,0-1.2S76,280.1,76.8,280.1z"/>
			</g>
			<g>
				<path class="st1" d="M96.5,284.1c0.8,0,0.8-1.2,0-1.2S95.7,284.1,96.5,284.1z"/>
			</g>
			<g>
				<path class="st1" d="M132.8,284.1c0.8,0,0.8-1.2,0-1.2C132.1,282.9,132.1,284.1,132.8,284.1z"/>
			</g>
			<g>
				<path class="st1" d="M103.5,311.4c0.8,0,0.8-1.2,0-1.2C102.8,310.2,102.8,311.4,103.5,311.4z"/>
			</g>
			<g>
				<path class="st1" d="M141.9,328.1c0.8,0,0.8-1.2,0-1.2C141.2,326.9,141.2,328.1,141.9,328.1z"/>
			</g>
			<g>
				<path class="st1" d="M177.3,300.8c0.8,0,0.8-1.2,0-1.2C176.5,299.6,176.5,300.8,177.3,300.8z"/>
			</g>
			<g>
				<path class="st1" d="M170.2,272.5c0.8,0,0.8-1.2,0-1.2C169.5,271.3,169.5,272.5,170.2,272.5z"/>
			</g>
			<g>
				<path class="st1" d="M315.7,158.6c0.8,0,0.8-1.2,0-1.2C315,157.4,315,158.6,315.7,158.6z"/>
			</g>
			<g>
				<path class="st1" d="M322.6,147.9c0.8,0,0.8-1.2,0-1.2C321.8,146.8,321.8,147.9,322.6,147.9z"/>
			</g>
			<g>
				<path class="st1" d="M291.5,155.5c0.8,0,0.8-1.2,0-1.2S290.7,155.5,291.5,155.5z"/>
			</g>
			<g>
				<path class="st1" d="M300.6,178.3c0.8,0,0.8-1.2,0-1.2C299.8,177.1,299.8,178.3,300.6,178.3z"/>
			</g>
			<g>
				<path class="st1" d="M326.4,181.3c0.8,0,0.8-1.2,0-1.2S325.6,181.3,326.4,181.3z"/>
			</g>
		</g>
		<g>
			<g>
				<path class="st2" d="M172.6,121.8c1.1,0,1.2-1.8,0-1.8C171.4,120,171.4,121.8,172.6,121.8z"/>
			</g>
			<g>
				<path class="st2" d="M184.2,138.5c1.1,0,1.2-1.8,0-1.8C183.1,136.7,183.1,138.5,184.2,138.5z"/>
			</g>
			<g>
				<path class="st2" d="M113,143c1.1,0,1.2-1.8,0-1.8S111.8,143,113,143z"/>
			</g>
			<g>
				<path class="st2" d="M193.8,86.4c1.1,0,1.2-1.8,0-1.8C192.7,84.6,192.7,86.4,193.8,86.4z"/>
			</g>
			<g>
				<path class="st2" d="M241.8,84.4c1.1,0,1.2-1.8,0-1.8C240.7,82.6,240.7,84.4,241.8,84.4z"/>
			</g>
			<g>
				<path class="st2" d="M266.1,120.3c1.1,0,1.2-1.8,0-1.8S264.9,120.3,266.1,120.3z"/>
			</g>
			<g>
				<path class="st2" d="M66.5,233.4c1.1,0,1.2-1.8,0-1.8C65.3,231.7,65.3,233.4,66.5,233.4z"/>
			</g>
			<g>
				<path class="st2" d="M0.3,206.7c1.1,0,1.2-1.8,0-1.8S-0.9,206.7,0.3,206.7z"/>
			</g>
			<g>
				<path class="st2" d="M18.5,261.6L18.5,261.6L18.5,261.6z"/>
			</g>
			<g>
				<path class="st2" d="M48,272.3c1.1,0,1.2-1.8,0-1.8C46.9,270.6,46.9,272.3,48,272.3z"/>
			</g>
			<g>
				<path class="st2" d="M26.1,256.4c1.1,0,1.2-1.8,0-1.8C24.9,254.6,24.9,256.4,26.1,256.4z"/>
			</g>
			<g>
				<path class="st2" d="M76.8,295.8c1.1,0,1.2-1.8,0-1.8C75.7,294.1,75.7,295.8,76.8,295.8z"/>
			</g>
			<g>
				<path class="st2" d="M244.3,212.5c1.1,0,1.2-1.8,0-1.8C243.2,210.7,243.2,212.5,244.3,212.5z"/>
			</g>
		</g>
		<g>
			<g>
				<path class="st3" d="M295.2,119.8c0.8,0,0.8-1.2,0-1.2C294.5,118.6,294.5,119.8,295.2,119.8z"/>
			</g>
			<g>
				<path class="st3" d="M261.8,162.1c0.8,0,0.8-1.2,0-1.2C261,160.9,261,162.1,261.8,162.1z"/>
			</g>
			<g>
				<path class="st3" d="M56.7,109.2L56.7,109.2L56.7,109.2z"/>
			</g>
			<g>
				<path class="st3" d="M63,144.3L63,144.3L63,144.3z"/>
			</g>
			<g>
				<path class="st3" d="M188.5,203.1c0.8,0,0.8-1.2,0-1.2C187.8,201.9,187.7,203.1,188.5,203.1z"/>
			</g>
			<g>
				<path class="st3" d="M82.2,166.7c0.8,0,0.8-1.2,0-1.2C81.4,165.5,81.4,166.7,82.2,166.7z"/>
			</g>
			<g>
				<path class="st3" d="M319.9,231.8c0.8,0,0.8-1.2,0-1.2C319.2,230.6,319.2,231.8,319.9,231.8z"/>
			</g>
			<g>
				<path class="st3" d="M205,76.7c0.8,0,0.8-1.2,0-1.2C204.3,75.5,204.3,76.7,205,76.7z"/>
			</g>
			<g>
				<path class="st3" d="M179.9,109.3c0.8,0,0.8-1.2,0-1.2C179.2,108.1,179.2,109.3,179.9,109.3z"/>
			</g>
			<g>
				<path class="st3" d="M146.7,82.3c0.8,0,0.8-1.2,0-1.2C145.9,81.2,145.9,82.3,146.7,82.3z"/>
			</g>
			<g>
				<path class="st3" d="M128.5,97.4c0.8,0,0.8-1.2,0-1.2C127.7,96.2,127.7,97.4,128.5,97.4z"/>
			</g>
			<g>
				<path class="st3" d="M11.7,62.3c0.8,0,0.8-1.2,0-1.2S10.9,62.3,11.7,62.3z"/>
			</g>
			<g>
				<path class="st3" d="M21.7,233.6c0.8,0,0.8-1.2,0-1.2C21,232.4,21,233.6,21.7,233.6z"/>
			</g>
			<g>
				<path class="st3" d="M127.2,279.5c0.8,0,0.8-1.2,0-1.2C126.4,278.3,126.4,279.5,127.2,279.5z"/>
			</g>
			<g>
				<path class="st3" d="M146,312.1c0.8,0,0.8-1.2,0-1.2C145.3,310.9,145.3,312.1,146,312.1z"/>
			</g>
			<g>
				<path class="st3" d="M277.9,303.3c0.8,0,0.8-1.2,0-1.2C277.1,302.1,277.1,303.3,277.9,303.3z"/>
			</g>
			<g>
				<path class="st3" d="M284.8,302.7c0.8,0,0.8-1.2,0-1.2S284,302.7,284.8,302.7z"/>
			</g>
			<g>
				<path class="st3" d="M294.8,261.3L294.8,261.3L294.8,261.3z"/>
			</g>
			<g>
				<path class="st3" d="M240.8,285.7c0.8,0,0.8-1.2,0-1.2C240.1,284.6,240.1,285.7,240.8,285.7z"/>
			</g>
			<g>
				<path class="st3" d="M228.3,309.6c0.8,0,0.8-1.2,0-1.2S227.5,309.6,228.3,309.6z"/>
			</g>
			<g>
				<path class="st3" d="M201.9,270.7c0.8,0,0.8-1.2,0-1.2C201.1,269.5,201.1,270.7,201.9,270.7z"/>
			</g>
			<g>
				<path class="st3" d="M248.4,177.8c0.8,0,0.8-1.2,0-1.2C247.6,176.6,247.6,177.8,248.4,177.8z"/>
			</g>
			<g>
				<path class="st3" d="M203.2,144.5c0.8,0,0.8-1.2,0-1.2S202.4,144.5,203.2,144.5z"/>
			</g>
			<g>
				<path class="st3" d="M250.2,79.8c0.8,0,0.8-1.2,0-1.2C249.5,78.6,249.5,79.8,250.2,79.8z"/>
			</g>
			<g>
				<path class="st3" d="M312.4,57.2c0.8,0,0.8-1.2,0-1.2S311.6,57.2,312.4,57.2z"/>
			</g>
			<g>
				<path class="st3" d="M29.9,112.5c0.8,0,0.8-1.2,0-1.2S29.1,112.5,29.9,112.5z"/>
			</g>
			<g>
				<path class="st3" d="M21.1,153.3c0.8,0,0.8-1.2,0-1.2C20.3,152.1,20.3,153.3,21.1,153.3z"/>
			</g>
			<g>
				<path class="st3" d="M49.4,190.9c0.8,0,0.8-1.2,0-1.2C48.6,189.8,48.6,190.9,49.4,190.9z"/>
			</g>
			<g>
				<path class="st3" d="M110.9,184.7c0.8,0,0.8-1.2,0-1.2S110.1,184.7,110.9,184.7z"/>
			</g>
			<g>
				<path class="st3" d="M120.3,139.5c0.8,0,0.8-1.2,0-1.2S119.5,139.5,120.3,139.5z"/>
			</g>
			<g>
				<path class="st3" d="M78.2,102.4c0.8,0,0.8-1.2,0-1.2C77.5,101.2,77.5,102.4,78.2,102.4z"/>
			</g>
			<g>
				<path class="st3" d="M64.4,72.9c0.8,0,0.8-1.2,0-1.2C63.7,71.7,63.7,72.9,64.4,72.9z"/>
			</g>
			<g>
				<path class="st3" d="M13,298.9c0.8,0,0.8-1.2,0-1.2C12.2,297.7,12.2,298.9,13,298.9z"/>
			</g>
			<g>
				<path class="st3" d="M94.6,244.9c0.8,0,0.8-1.2,0-1.2C93.8,243.7,93.8,244.9,94.6,244.9z"/>
			</g>
			<g>
				<path class="st3" d="M149.8,211.7c0.8,0,0.8-1.2,0-1.2S149,211.7,149.8,211.7z"/>
			</g>
			<g>
				<path class="st3" d="M238.9,221.7c0.8,0,0.8-1.2,0-1.2C238.2,220.5,238.2,221.7,238.9,221.7z"/>
			</g>
			<g>
				<path class="st3" d="M276.6,191.6c0.8,0,0.8-1.2,0-1.2C275.8,190.4,275.8,191.6,276.6,191.6z"/>
			</g>
			<g>
				<path class="st3" d="M256.5,242.4c0.8,0,0.8-1.2,0-1.2C255.8,241.2,255.8,242.4,256.5,242.4z"/>
			</g>
			<g>
				<path class="st3" d="M254,214.8c0.8,0,0.8-1.2,0-1.2S253.2,214.8,254,214.8z"/>
			</g>
			<g>
				<path class="st3" d="M301.1,285.1c0.8,0,0.8-1.2,0-1.2C300.3,283.9,300.3,285.1,301.1,285.1z"/>
			</g>
			<g>
				<path class="st3" d="M273.5,282c0.8,0,0.8-1.2,0-1.2S272.7,282,273.5,282z"/>
			</g>
			<g>
				<path class="st3" d="M323.7,202.2c0.8,0,0.8-1.2,0-1.2C322.9,201.1,322.9,202.2,323.7,202.2z"/>
			</g>
			<g>
				<path class="st3" d="M203.8,164.6c0.8,0,0.8-1.2,0-1.2C203,163.4,203,164.6,203.8,164.6z"/>
			</g>
			<g>
				<path class="st3" d="M234.6,116.9c0.8,0,0.8-1.2,0-1.2C233.8,115.7,233.8,116.9,234.6,116.9z"/>
			</g>
			<g>
				<path class="st3" d="M165.5,61c0.8,0,0.8-1.2,0-1.2S164.7,61,165.5,61z"/>
			</g>
			<g>
				<path class="st3" d="M140.4,140.1c0.8,0,0.8-1.2,0-1.2C139.6,138.9,139.6,140.1,140.4,140.1z"/>
			</g>
			<g>
				<path class="st3" d="M50,124.4c0.8,0,0.8-1.2,0-1.2C49.2,123.2,49.2,124.4,50,124.4z"/>
			</g>
			<g>
				<path class="st3" d="M24.3,47.8c0.8,0,0.8-1.2,0-1.2S23.5,47.8,24.3,47.8z"/>
			</g>
			<g>
				<path class="st3" d="M332.5,257.7c0.8,0,0.8-1.2,0-1.2S331.7,257.7,332.5,257.7z"/>
			</g>
			<g>
				<path class="st3" d="M318,313.6C318.1,313.6,318.1,313.6,318,313.6L318,313.6z"/>
			</g>
			<g>
				<path class="st3" d="M333.7,344.4c0.8,0,0.8-1.2,0-1.2C333,343.2,333,344.4,333.7,344.4z"/>
			</g>
			<g>
				<path class="st3" d="M307.4,323.6c0.8,0,0.8-1.2,0-1.2S306.6,323.6,307.4,323.6z"/>
			</g>
			<g>
				<path class="st3" d="M276.4,55.7c0.8,0,0.8-1.2,0-1.2S275.6,55.7,276.4,55.7z"/>
			</g>
			<g>
				<path class="st3" d="M262,111.6L262,111.6L262,111.6z"/>
			</g>
			<g>
				<path class="st3" d="M292.1,92.7c0.8,0,0.8-1.2,0-1.2C291.3,91.5,291.3,92.7,292.1,92.7z"/>
			</g>
			<g>
				<path class="st3" d="M311.6,125.4c0.8,0,0.8-1.2,0-1.2C310.8,124.2,310.8,125.4,311.6,125.4z"/>
			</g>
			<g>
				<path class="st3" d="M277.7,142.3c0.8,0,0.8-1.2,0-1.2C276.9,141.1,276.9,142.3,277.7,142.3z"/>
			</g>
			<g>
				<path class="st3" d="M251.3,121.6c0.8,0,0.8-1.2,0-1.2S250.5,121.6,251.3,121.6z"/>
			</g>
			<g>
				<path class="st3" d="M15.9,187.5c0.8,0,0.8-1.2,0-1.2C15.2,186.3,15.2,187.5,15.9,187.5z"/>
			</g>
			<g>
				<path class="st3" d="M-2.3,202.6c0.8,0,0.8-1.2,0-1.2C-3,201.4-3.1,202.6-2.3,202.6z"/>
			</g>
			<g>
				<path class="st3" d="M-3.5,384.6c0.8,0,0.8-1.2,0-1.2S-4.3,384.6-3.5,384.6z"/>
			</g>
			<g>
				<path class="st3" d="M15.3,417.3c0.8,0,0.8-1.2,0-1.2C14.5,416.1,14.5,417.3,15.3,417.3z"/>
			</g>
			<g>
				<path class="st3" d="M19.1,316.8c0.8,0,0.8-1.2,0-1.2C18.3,315.6,18.3,316.8,19.1,316.8z"/>
			</g>
			<g>
				<path class="st3" d="M34.8,166.2c0.8,0,0.8-1.2,0-1.2S34,166.2,34.8,166.2z"/>
			</g>
			<g>
				<path class="st3" d="M9.6,245.2c0.8,0,0.8-1.2,0-1.2C8.9,244.1,8.9,245.2,9.6,245.2z"/>
			</g>
			<g>
				<path class="st3" d="M321.3,218.3L321.3,218.3L321.3,218.3z"/>
			</g>
			<g>
				<path class="st3" d="M327.6,253.5L327.6,253.5L327.6,253.5z"/>
			</g>
			<g>
				<path class="st3" d="M231.1,244.2c0.8,0,0.8-1.2,0-1.2S230.3,244.2,231.1,244.2z"/>
			</g>
			<g>
				<path class="st3" d="M244.9,314.5c0.8,0,0.8-1.2,0-1.2C244.1,313.3,244.1,314.5,244.9,314.5z"/>
			</g>
			<g>
				<path class="st3" d="M276.3,171.4c0.8,0,0.8-1.2,0-1.2S275.5,171.4,276.3,171.4z"/>
			</g>
			<g>
				<path class="st3" d="M146.4,167c0.8,0,0.8-1.2,0-1.2C145.6,165.8,145.6,167,146.4,167z"/>
			</g>
			<g>
				<path class="st3" d="M131.9,222.9L131.9,222.9L131.9,222.9z"/>
			</g>
			<g>
				<path class="st3" d="M141.3,309.5c0.8,0,0.8-1.2,0-1.2C140.6,308.3,140.6,309.5,141.3,309.5z"/>
			</g>
			<g>
				<path class="st3" d="M286.3,342.8c0.8,0,0.8-1.2,0-1.2C285.6,341.6,285.6,342.8,286.3,342.8z"/>
			</g>
			<g>
				<path class="st3" d="M294.5,221.6c0.8,0,0.8-1.2,0-1.2C293.7,220.4,293.7,221.6,294.5,221.6z"/>
			</g>
			<g>
				<path class="st3" d="M285.7,262.4c0.8,0,0.8-1.2,0-1.2C285,261.2,284.9,262.4,285.7,262.4z"/>
			</g>
			<g>
				<path class="st3" d="M314,300.1c0.8,0,0.8-1.2,0-1.2S313.2,300.1,314,300.1z"/>
			</g>
			<g>
				<path class="st3" d="M329,182.1c0.8,0,0.8-1.2,0-1.2C328.3,180.9,328.3,182.1,329,182.1z"/>
			</g>
			<g>
				<path class="st3" d="M234.2,193.4c0.8,0,0.8-1.2,0-1.2C233.5,192.2,233.5,193.4,234.2,193.4z"/>
			</g>
			<g>
				<path class="st3" d="M252.4,243c0.8,0,0.8-1.2,0-1.2C251.7,241.8,251.7,243,252.4,243z"/>
			</g>
			<g>
				<path class="st3" d="M226.7,213.5c0.8,0,0.8-1.2,0-1.2S225.9,213.5,226.7,213.5z"/>
			</g>
			<g>
				<path class="st3" d="M200.3,170.8c0.8,0,0.8-1.2,0-1.2C199.6,169.6,199.6,170.8,200.3,170.8z"/>
			</g>
			<g>
				<path class="st3" d="M162,204c0.8,0,0.8-1.2,0-1.2C161.3,202.9,161.3,204,162,204z"/>
			</g>
			<g>
				<path class="st3" d="M181.5,236.7c0.8,0,0.8-1.2,0-1.2S180.7,236.7,181.5,236.7z"/>
			</g>
			<g>
				<path class="st3" d="M190.3,297.6c0.8,0,0.8-1.2,0-1.2S189.5,297.6,190.3,297.6z"/>
			</g>
			<g>
				<path class="st3" d="M145.7,335.9c0.8,0,0.8-1.2,0-1.2C145,334.7,145,335.9,145.7,335.9z"/>
			</g>
			<g>
				<path class="st3" d="M105.5,321.4c0.8,0,0.8-1.2,0-1.2C104.8,320.2,104.8,321.4,105.5,321.4z"/>
			</g>
			<g>
				<path class="st3" d="M96.8,249.9c0.8,0,0.8-1.2,0-1.2S96,249.9,96.8,249.9z"/>
			</g>
			<g>
				<path class="st3" d="M131.9,276.2c0.8,0,0.8-1.2,0-1.2C131.1,275,131.1,276.2,131.9,276.2z"/>
			</g>
			<g>
				<path class="st3" d="M147.6,253.6c0.8,0,0.8-1.2,0-1.2C146.8,252.4,146.8,253.6,147.6,253.6z"/>
			</g>
			<g>
				<path class="st3" d="M121.2,232.9c0.8,0,0.8-1.2,0-1.2C120.5,231.7,120.5,232.9,121.2,232.9z"/>
			</g>
			<g>
				<path class="st3" d="M90.5,161.4c0.8,0,0.8-1.2,0-1.2S89.7,161.4,90.5,161.4z"/>
			</g>
			<g>
				<path class="st3" d="M82.9,204.1C83,204.1,83,204.1,82.9,204.1L82.9,204.1z"/>
			</g>
			<g>
				<path class="st3" d="M184,343.4c0.8,0,0.8-1.2,0-1.2C183.3,342.2,183.3,343.4,184,343.4z"/>
			</g>
			<g>
				<path class="st3" d="M241.1,384.2c0.8,0,0.8-1.2,0-1.2C240.4,383,240.4,384.2,241.1,384.2z"/>
			</g>
			<g>
				<path class="st3" d="M238,408.1c0.8,0,0.8-1.2,0-1.2S237.2,408.1,238,408.1z"/>
			</g>
			<g>
				<path class="st3" d="M198.5,394.9L198.5,394.9L198.5,394.9z"/>
			</g>
			<g>
				<path class="st3" d="M277.6,408.1c0.8,0,0.8-1.2,0-1.2C276.8,406.9,276.8,408.1,277.6,408.1z"/>
			</g>
			<g>
				<path class="st3" d="M314.6,233.6c0.8,0,0.8-1.2,0-1.2C313.8,232.4,313.8,233.6,314.6,233.6z"/>
			</g>
			<g>
				<path class="st3" d="M288.9,157c0.8,0,0.8-1.2,0-1.2S288.1,157,288.9,157z"/>
			</g>
			<g>
				<path class="st3" d="M211,160.1c0.8,0,0.8-1.2,0-1.2C210.2,158.9,210.2,160.1,211,160.1z"/>
			</g>
			<g>
				<path class="st3" d="M121.5,146.8L121.5,146.8C121.4,146.8,121.4,146.8,121.5,146.8z"/>
			</g>
			<g>
				<path class="st3" d="M127.7,182L127.7,182L127.7,182z"/>
			</g>
			<g>
				<path class="st3" d="M147,204.4c0.8,0,0.8-1.2,0-1.2S146.2,204.4,147,204.4z"/>
			</g>
			<g>
				<path class="st3" d="M31.3,172.8c0.8,0,0.8-1.2,0-1.2S30.5,172.8,31.3,172.8z"/>
			</g>
			<g>
				<path class="st3" d="M45.1,243.1c0.8,0,0.8-1.2,0-1.2C44.3,241.9,44.3,243.1,45.1,243.1z"/>
			</g>
			<g>
				<path class="st3" d="M211.4,120c0.8,0,0.8-1.2,0-1.2C210.7,118.8,210.7,120,211.4,120z"/>
			</g>
			<g>
				<path class="st3" d="M193.2,135.1c0.8,0,0.8-1.2,0-1.2C192.5,133.9,192.5,135.1,193.2,135.1z"/>
			</g>
			<g>
				<path class="st3" d="M76.5,99.9c0.8,0,0.8-1.2,0-1.2C75.7,98.7,75.7,99.9,76.5,99.9z"/>
			</g>
			<g>
				<path class="st3" d="M86.5,271.3c0.8,0,0.8-1.2,0-1.2C85.7,270.1,85.7,271.3,86.5,271.3z"/>
			</g>
			<g>
				<path class="st3" d="M192,317.1c0.8,0,0.8-1.2,0-1.2C191.2,316,191.2,317.1,192,317.1z"/>
			</g>
			<g>
				<path class="st3" d="M210.8,349.8c0.8,0,0.8-1.2,0-1.2C210,348.6,210,349.8,210.8,349.8z"/>
			</g>
			<g>
				<path class="st3" d="M94.7,150.2c0.8,0,0.8-1.2,0-1.2C93.9,149,93.9,150.2,94.7,150.2z"/>
			</g>
			<g>
				<path class="st3" d="M85.9,191c0.8,0,0.8-1.2,0-1.2S85.1,191,85.9,191z"/>
			</g>
			<g>
				<path class="st3" d="M114.1,228.6c0.8,0,0.8-1.2,0-1.2C113.4,227.4,113.4,228.6,114.1,228.6z"/>
			</g>
			<g>
				<path class="st3" d="M175.6,222.4c0.8,0,0.8-1.2,0-1.2C174.9,221.2,174.9,222.4,175.6,222.4z"/>
			</g>
			<g>
				<path class="st3" d="M185.1,177.2c0.8,0,0.8-1.2,0-1.2S184.3,177.2,185.1,177.2z"/>
			</g>
			<g>
				<path class="st3" d="M143,140.1c0.8,0,0.8-1.2,0-1.2C142.2,138.9,142.2,140.1,143,140.1z"/>
			</g>
			<g>
				<path class="st3" d="M129.2,110.6c0.8,0,0.8-1.2,0-1.2S128.4,110.6,129.2,110.6z"/>
			</g>
			<g>
				<path class="st3" d="M34.4,121.9c0.8,0,0.8-1.2,0-1.2C33.6,120.7,33.6,121.9,34.4,121.9z"/>
			</g>
			<g>
				<path class="st3" d="M52.6,171.5c0.8,0,0.8-1.2,0-1.2S51.8,171.5,52.6,171.5z"/>
			</g>
			<g>
				<path class="st3" d="M26.9,142c0.8,0,0.8-1.2,0-1.2S26.1,142,26.9,142z"/>
			</g>
			<g>
				<path class="st3" d="M0.5,99.3c0.8,0,0.8-1.2,0-1.2C-0.3,98.1-0.3,99.3,0.5,99.3z"/>
			</g>
			<g>
				<path class="st3" d="M41.3,312.8c0.8,0,0.8-1.2,0-1.2C40.5,311.6,40.5,312.8,41.3,312.8z"/>
			</g>
			<g>
				<path class="st3" d="M38.2,336.6c0.8,0,0.8-1.2,0-1.2S37.4,336.6,38.2,336.6z"/>
			</g>
			<g>
				<path class="st3" d="M-1.4,323.5L-1.4,323.5L-1.4,323.5z"/>
			</g>
			<g>
				<path class="st3" d="M77.7,336.6c0.8,0,0.8-1.2,0-1.2C76.9,335.4,76.9,336.6,77.7,336.6z"/>
			</g>
			<g>
				<path class="st3" d="M159.3,282.6c0.8,0,0.8-1.2,0-1.2C158.6,281.4,158.6,282.6,159.3,282.6z"/>
			</g>
			<g>
				<path class="st3" d="M214.6,249.3c0.8,0,0.8-1.2,0-1.2C213.8,248.2,213.8,249.3,214.6,249.3z"/>
			</g>
			<g>
				<path class="st3" d="M230.3,98.7c0.8,0,0.8-1.2,0-1.2S229.5,98.7,230.3,98.7z"/>
			</g>
			<g>
				<path class="st3" d="M205.2,177.8c0.8,0,0.8-1.2,0-1.2S204.4,177.8,205.2,177.8z"/>
			</g>
			<g>
				<path class="st3" d="M114.8,162.1c0.8,0,0.8-1.2,0-1.2C114,160.9,114,162.1,114.8,162.1z"/>
			</g>
			<g>
				<path class="st3" d="M311.9,75.6L311.9,75.6L311.9,75.6z"/>
			</g>
			<g>
				<path class="st3" d="M318.1,110.8C318.2,110.8,318.2,110.8,318.1,110.8L318.1,110.8z"/>
			</g>
			<g>
				<path class="st3" d="M276.9,200.1c0.8,0,0.8-1.2,0-1.2C276.2,198.9,276.2,200.1,276.9,200.1z"/>
			</g>
			<g>
				<path class="st3" d="M285.1,79c0.8,0,0.8-1.2,0-1.2C284.3,77.8,284.3,79,285.1,79z"/>
			</g>
			<g>
				<path class="st3" d="M276.3,119.8c0.8,0,0.8-1.2,0-1.2C275.5,118.6,275.5,119.8,276.3,119.8z"/>
			</g>
			<g>
				<path class="st3" d="M304.5,157.4c0.8,0,0.8-1.2,0-1.2C303.8,156.2,303.8,157.4,304.5,157.4z"/>
			</g>
			<g>
				<path class="st3" d="M305.2,90.9c0.8,0,0.8-1.2,0-1.2C304.4,89.7,304.4,90.9,305.2,90.9z"/>
			</g>
			<g>
				<path class="st3" d="M274.2,283.3c0.8,0,0.8-1.2,0-1.2C273.5,282.1,273.5,283.3,274.2,283.3z"/>
			</g>
			<g>
				<path class="st3" d="M289.9,132.6c0.8,0,0.8-1.2,0-1.2C289.2,131.4,289.2,132.6,289.9,132.6z"/>
			</g>
			<g>
				<path class="st3" d="M286.4,139.2c0.8,0,0.8-1.2,0-1.2C285.7,138,285.7,139.2,286.4,139.2z"/>
			</g>
			<g>
				<path class="st3" d="M300.3,209.5c0.8,0,0.8-1.2,0-1.2C299.5,208.4,299.5,209.5,300.3,209.5z"/>
			</g>
			<g>
				<path class="st3" d="M289.6,88.4c0.8,0,0.8-1.2,0-1.2C288.8,87.2,288.8,88.4,289.6,88.4z"/>
			</g>
			<g>
				<path class="st3" d="M307.8,138c0.8,0,0.8-1.2,0-1.2S307,138,307.8,138z"/>
			</g>
			<g>
				<path class="st3" d="M282,108.5c0.8,0,0.8-1.2,0-1.2C281.3,107.3,281.3,108.5,282,108.5z"/>
			</g>
			<g>
				<path class="st3" d="M296.5,279.2c0.8,0,0.8-1.2,0-1.2S295.7,279.2,296.5,279.2z"/>
			</g>
			<g>
				<path class="st3" d="M293.3,303.1c0.8,0,0.8-1.2,0-1.2C292.6,301.9,292.6,303.1,293.3,303.1z"/>
			</g>
			<g>
				<path class="st3" d="M332.9,303.1c0.8,0,0.8-1.2,0-1.2S332.1,303.1,332.9,303.1z"/>
			</g>
			<g>
				<path class="st3" d="M36.6,144.7C36.6,144.7,36.6,144.6,36.6,144.7C36.6,144.6,36.6,144.7,36.6,144.7z"/>
			</g>
			<g>
				<path class="st3" d="M42.9,179.8L42.9,179.8L42.9,179.8z"/>
			</g>
			<g>
				<path class="st3" d="M168.5,238.6c0.8,0,0.8-1.2,0-1.2C167.7,237.4,167.7,238.6,168.5,238.6z"/>
			</g>
			<g>
				<path class="st3" d="M62.2,202.2c0.8,0,0.8-1.2,0-1.2S61.4,202.2,62.2,202.2z"/>
			</g>
			<g>
				<path class="st3" d="M159.9,144.8c0.8,0,0.8-1.2,0-1.2C159.1,143.6,159.1,144.8,159.9,144.8z"/>
			</g>
			<g>
				<path class="st3" d="M1.7,269.1c0.8,0,0.8-1.2,0-1.2S0.9,269.1,1.7,269.1z"/>
			</g>
			<g>
				<path class="st3" d="M107.1,315c0.8,0,0.8-1.2,0-1.2C106.4,313.8,106.4,315,107.1,315z"/>
			</g>
			<g>
				<path class="st3" d="M126,347.6c0.8,0,0.8-1.2,0-1.2S125.2,347.6,126,347.6z"/>
			</g>
			<g>
				<path class="st3" d="M181.9,306.2c0.8,0,0.8-1.2,0-1.2C181.1,305,181.1,306.2,181.9,306.2z"/>
			</g>
			<g>
				<path class="st3" d="M183.1,180c0.8,0,0.8-1.2,0-1.2S182.3,180,183.1,180z"/>
			</g>
			<g>
				<path class="st3" d="M9.8,148c0.8,0,0.8-1.2,0-1.2C9.1,146.8,9.1,148,9.8,148z"/>
			</g>
			<g>
				<path class="st3" d="M1.1,188.8c0.8,0,0.8-1.2,0-1.2S0.3,188.8,1.1,188.8z"/>
			</g>
			<g>
				<path class="st3" d="M29.3,226.4c0.8,0,0.8-1.2,0-1.2S28.5,226.4,29.3,226.4z"/>
			</g>
			<g>
				<path class="st3" d="M90.8,220.2c0.8,0,0.8-1.2,0-1.2C90.1,219,90.1,220.2,90.8,220.2z"/>
			</g>
			<g>
				<path class="st3" d="M100.2,175c0.8,0,0.8-1.2,0-1.2C99.5,173.8,99.5,175,100.2,175z"/>
			</g>
			<g>
				<path class="st3" d="M74.5,280.4c0.8,0,0.8-1.2,0-1.2C73.7,279.2,73.7,280.4,74.5,280.4z"/>
			</g>
			<g>
				<path class="st3" d="M129.7,247.2c0.8,0,0.8-1.2,0-1.2C129,246,129,247.2,129.7,247.2z"/>
			</g>
			<g>
				<path class="st3" d="M183.7,200.1c0.8,0,0.8-1.2,0-1.2C183,198.9,183,200.1,183.7,200.1z"/>
			</g>
			<g>
				<path class="st3" d="M120.3,175.6c0.8,0,0.8-1.2,0-1.2C119.6,174.4,119.6,175.6,120.3,175.6z"/>
			</g>
			<g>
				<path class="st3" d="M29.9,159.9c0.8,0,0.8-1.2,0-1.2C29.2,158.7,29.2,159.9,29.9,159.9z"/>
			</g>
			<g>
				<path class="st3" d="M-1,352.3c0.8,0,0.8-1.2,0-1.2C-1.8,351.1-1.8,352.3-1,352.3z"/>
			</g>
			<g>
				<path class="st3" d="M14.7,201.6c0.8,0,0.8-1.2,0-1.2C13.9,200.4,13.9,201.6,14.7,201.6z"/>
			</g>
			<g>
				<path class="st3" d="M126.3,202.5c0.8,0,0.8-1.2,0-1.2S125.5,202.5,126.3,202.5z"/>
			</g>
			<g>
				<path class="st3" d="M111.9,258.4L111.9,258.4C111.8,258.4,111.8,258.4,111.9,258.4z"/>
			</g>
			<g>
				<path class="st3" d="M121.3,345c0.8,0,0.8-1.2,0-1.2S120.5,345,121.3,345z"/>
			</g>
			<g>
				<path class="st3" d="M180.3,206.3c0.8,0,0.8-1.2,0-1.2S179.5,206.3,180.3,206.3z"/>
			</g>
			<g>
				<path class="st3" d="M142,239.5c0.8,0,0.8-1.2,0-1.2S141.2,239.5,142,239.5z"/>
			</g>
			<g>
				<path class="st3" d="M161.4,272.2c0.8,0,0.8-1.2,0-1.2C160.7,271,160.7,272.2,161.4,272.2z"/>
			</g>
			<g>
				<path class="st3" d="M170.2,333.1c0.8,0,0.8-1.2,0-1.2C169.5,331.9,169.5,333.1,170.2,333.1z"/>
			</g>
			<g>
				<path class="st3" d="M125.7,371.4c0.8,0,0.8-1.2,0-1.2C124.9,370.2,124.9,371.4,125.7,371.4z"/>
			</g>
			<g>
				<path class="st3" d="M85.5,356.9c0.8,0,0.8-1.2,0-1.2C84.7,355.7,84.7,356.9,85.5,356.9z"/>
			</g>
			<g>
				<path class="st3" d="M76.7,285.4c0.8,0,0.8-1.2,0-1.2C75.9,284.2,75.9,285.4,76.7,285.4z"/>
			</g>
			<g>
				<path class="st3" d="M111.9,311.7c0.8,0,0.8-1.2,0-1.2S111.1,311.7,111.9,311.7z"/>
			</g>
			<g>
				<path class="st3" d="M127.6,289.1c0.8,0,0.8-1.2,0-1.2S126.8,289.1,127.6,289.1z"/>
			</g>
			<g>
				<path class="st3" d="M101.2,268.4c0.8,0,0.8-1.2,0-1.2C100.4,267.2,100.4,268.4,101.2,268.4z"/>
			</g>
			<g>
				<path class="st3" d="M70.4,196.8c0.8,0,0.8-1.2,0-1.2C69.7,195.7,69.7,196.8,70.4,196.8z"/>
			</g>
			<g>
				<path class="st3" d="M62.9,239.6L62.9,239.6L62.9,239.6z"/>
			</g>
			<g>
				<path class="st3" d="M164,378.9c0.8,0,0.8-1.2,0-1.2C163.2,377.7,163.2,378.9,164,378.9z"/>
			</g>
			<g>
				<path class="st3" d="M178.4,430.4L178.4,430.4L178.4,430.4z"/>
			</g>
			<g>
				<path class="st3" d="M191,195.6c0.8,0,0.8-1.2,0-1.2C190.2,194.4,190.2,195.6,191,195.6z"/>
			</g>
			<g>
				<path class="st3" d="M101.4,182.3L101.4,182.3L101.4,182.3z"/>
			</g>
			<g>
				<path class="st3" d="M107.7,217.5L107.7,217.5L107.7,217.5z"/>
			</g>
			<g>
				<path class="st3" d="M126.9,239.8c0.8,0,0.8-1.2,0-1.2C126.2,238.7,126.2,239.8,126.9,239.8z"/>
			</g>
			<g>
				<path class="st3" d="M11.2,208.2c0.8,0,0.8-1.2,0-1.2C10.4,207.1,10.4,208.2,11.2,208.2z"/>
			</g>
			<g>
				<path class="st3" d="M25,278.6c0.8,0,0.8-1.2,0-1.2S24.2,278.6,25,278.6z"/>
			</g>
			<g>
				<path class="st3" d="M191.4,155.5c0.8,0,0.8-1.2,0-1.2C190.6,154.3,190.6,155.5,191.4,155.5z"/>
			</g>
			<g>
				<path class="st3" d="M173.2,170.6c0.8,0,0.8-1.2,0-1.2C172.4,169.4,172.4,170.6,173.2,170.6z"/>
			</g>
			<g>
				<path class="st3" d="M66.4,306.8c0.8,0,0.8-1.2,0-1.2C65.7,305.6,65.7,306.8,66.4,306.8z"/>
			</g>
			<g>
				<path class="st3" d="M171.9,352.6c0.8,0,0.8-1.2,0-1.2C171.1,351.4,171.1,352.6,171.9,352.6z"/>
			</g>
			<g>
				<path class="st3" d="M190.7,385.3c0.8,0,0.8-1.2,0-1.2C190,384.1,190,385.3,190.7,385.3z"/>
			</g>
			<g>
				<path class="st3" d="M74.6,185.6c0.8,0,0.8-1.2,0-1.2C73.8,184.5,73.8,185.6,74.6,185.6z"/>
			</g>
			<g>
				<path class="st3" d="M65.8,226.5c0.8,0,0.8-1.2,0-1.2C65.1,225.3,65.1,226.5,65.8,226.5z"/>
			</g>
			<g>
				<path class="st3" d="M94.1,264.1c0.8,0,0.8-1.2,0-1.2C93.3,262.9,93.3,264.1,94.1,264.1z"/>
			</g>
			<g>
				<path class="st3" d="M155.6,257.8c0.8,0,0.8-1.2,0-1.2C154.8,256.7,154.8,257.8,155.6,257.8z"/>
			</g>
			<g>
				<path class="st3" d="M165,212.6c0.8,0,0.8-1.2,0-1.2C164.2,211.5,164.2,212.6,165,212.6z"/>
			</g>
			<g>
				<path class="st3" d="M122.9,175.6c0.8,0,0.8-1.2,0-1.2C122.2,174.4,122.2,175.6,122.9,175.6z"/>
			</g>
			<g>
				<path class="st3" d="M109.1,146.1c0.8,0,0.8-1.2,0-1.2C108.4,144.9,108.4,146.1,109.1,146.1z"/>
			</g>
			<g>
				<path class="st3" d="M14.3,157.4c0.8,0,0.8-1.2,0-1.2C13.6,156.2,13.6,157.4,14.3,157.4z"/>
			</g>
			<g>
				<path class="st3" d="M32.5,207c0.8,0,0.8-1.2,0-1.2C31.8,205.8,31.8,207,32.5,207z"/>
			</g>
			<g>
				<path class="st3" d="M6.8,177.5c0.8,0,0.8-1.2,0-1.2S6,177.5,6.8,177.5z"/>
			</g>
			<g>
				<path class="st3" d="M21.2,348.2c0.8,0,0.8-1.2,0-1.2C20.5,347.1,20.5,348.2,21.2,348.2z"/>
			</g>
			<g>
				<path class="st3" d="M18.1,372.1c0.8,0,0.8-1.2,0-1.2C17.3,370.9,17.3,372.1,18.1,372.1z"/>
			</g>
			<g>
				<path class="st3" d="M57.7,372.1c0.8,0,0.8-1.2,0-1.2S56.9,372.1,57.7,372.1z"/>
			</g>
			<g>
				<path class="st3" d="M139.3,318.1c0.8,0,0.8-1.2,0-1.2S138.5,318.1,139.3,318.1z"/>
			</g>
			<g>
				<path class="st3" d="M194.5,284.8c0.8,0,0.8-1.2,0-1.2C193.7,283.6,193.7,284.8,194.5,284.8z"/>
			</g>
			<g>
				<path class="st3" d="M185.1,213.3c0.8,0,0.8-1.2,0-1.2S184.3,213.3,185.1,213.3z"/>
			</g>
			<g>
				<path class="st3" d="M94.7,197.6c0.8,0,0.8-1.2,0-1.2C93.9,196.4,93.9,197.6,94.7,197.6z"/>
			</g>
			<g>
				<path class="st3" d="M50.1,225.7c0.8,0,0.8-1.2,0-1.2S49.3,225.7,50.1,225.7z"/>
			</g>
			<g>
				<path class="st3" d="M41.5,132c0.8,0,0.8-1.2,0-1.2C40.8,130.8,40.8,132,41.5,132z"/>
			</g>
			<g>
				<path class="st3" d="M7.6,334.7c0.8,0,0.8-1.2,0-1.2C6.9,333.6,6.9,334.7,7.6,334.7z"/>
			</g>
			<g>
				<path class="st3" d="M63.5,293.3c0.8,0,0.8-1.2,0-1.2C62.7,292.1,62.7,293.3,63.5,293.3z"/>
			</g>
			<g>
				<path class="st3" d="M64.7,167.1c0.8,0,0.8-1.2,0-1.2C64,165.9,64,167.1,64.7,167.1z"/>
			</g>
			<g>
				<path class="st3" d="M11.4,234.3c0.8,0,0.8-1.2,0-1.2C10.6,233.1,10.6,234.3,11.4,234.3z"/>
			</g>
			<g>
				<path class="st3" d="M65.4,187.2c0.8,0,0.8-1.2,0-1.2S64.6,187.2,65.4,187.2z"/>
			</g>
			<g>
				<path class="st3" d="M2,162.7c0.8,0,0.8-1.2,0-1.2C1.2,161.6,1.2,162.7,2,162.7z"/>
			</g>
			<g>
				<path class="st3" d="M7.9,189.6c0.8,0,0.8-1.2,0-1.2C7.2,188.5,7.2,189.6,7.9,189.6z"/>
			</g>
			<g>
				<path class="st3" d="M2.9,332.2c0.8,0,0.8-1.2,0-1.2S2.1,332.2,2.9,332.2z"/>
			</g>
			<g>
				<path class="st3" d="M61.9,193.4c0.8,0,0.8-1.2,0-1.2C61.2,192.2,61.2,193.4,61.9,193.4z"/>
			</g>
			<g>
				<path class="st3" d="M23.6,226.7c0.8,0,0.8-1.2,0-1.2C22.9,225.5,22.9,226.7,23.6,226.7z"/>
			</g>
			<g>
				<path class="st3" d="M43.1,259.3c0.8,0,0.8-1.2,0-1.2C42.3,258.1,42.3,259.3,43.1,259.3z"/>
			</g>
			<g>
				<path class="st3" d="M51.9,320.2c0.8,0,0.8-1.2,0-1.2C51.1,319,51.1,320.2,51.9,320.2z"/>
			</g>
			<g>
				<path class="st3" d="M7.3,358.5c0.8,0,0.8-1.2,0-1.2S6.5,358.5,7.3,358.5z"/>
			</g>
			<g>
				<path class="st3" d="M-6.5,298.9c0.8,0,0.8-1.2,0-1.2C-7.3,297.7-7.3,298.9-6.5,298.9z"/>
			</g>
			<g>
				<path class="st3" d="M9.2,276.3c0.8,0,0.8-1.2,0-1.2C8.4,275.1,8.4,276.3,9.2,276.3z"/>
			</g>
			<g>
				<path class="st3" d="M45.6,366.1c0.8,0,0.8-1.2,0-1.2S44.8,366.1,45.6,366.1z"/>
			</g>
			<g>
				<path class="st3" d="M60,417.6L60,417.6L60,417.6z"/>
			</g>
			<g>
				<path class="st3" d="M72.6,182.7c0.8,0,0.8-1.2,0-1.2C71.8,181.6,71.8,182.7,72.6,182.7z"/>
			</g>
			<g>
				<path class="st3" d="M8.6,227c0.8,0,0.8-1.2,0-1.2S7.8,227,8.6,227z"/>
			</g>
			<g>
				<path class="st3" d="M73,142.7c0.8,0,0.8-1.2,0-1.2S72.2,142.7,73,142.7z"/>
			</g>
			<g>
				<path class="st3" d="M54.8,157.7c0.8,0,0.8-1.2,0-1.2S54,157.7,54.8,157.7z"/>
			</g>
			<g>
				<path class="st3" d="M53.6,339.8c0.8,0,0.8-1.2,0-1.2C52.8,338.6,52.8,339.8,53.6,339.8z"/>
			</g>
			<g>
				<path class="st3" d="M72.4,372.4c0.8,0,0.8-1.2,0-1.2C71.6,371.2,71.6,372.4,72.4,372.4z"/>
			</g>
			<g>
				<path class="st3" d="M37.2,245c0.8,0,0.8-1.2,0-1.2C36.5,243.8,36.5,245,37.2,245z"/>
			</g>
			<g>
				<path class="st3" d="M46.6,199.8c0.8,0,0.8-1.2,0-1.2C45.9,198.6,45.9,199.8,46.6,199.8z"/>
			</g>
			<g>
				<path class="st3" d="M4.6,162.8c0.8,0,0.8-1.2,0-1.2S3.8,162.8,4.6,162.8z"/>
			</g>
			<g>
				<path class="st3" d="M-9.2,133.3c0.8,0,0.8-1.2,0-1.2S-10,133.3-9.2,133.3z"/>
			</g>
			<g>
				<path class="st3" d="M20.9,305.3c0.8,0,0.8-1.2,0-1.2C20.1,304.1,20.1,305.3,20.9,305.3z"/>
			</g>
			<g>
				<path class="st3" d="M76.2,272c0.8,0,0.8-1.2,0-1.2C75.4,270.8,75.4,272,76.2,272z"/>
			</g>
			<g>
				<path class="st3" d="M66.7,200.4c0.8,0,0.8-1.2,0-1.2C66,199.2,66,200.4,66.7,200.4z"/>
			</g>
			<g>
				<path class="st3" d="M89,85.5c0.8,0,0.8-1.2,0-1.2S88.2,85.5,89,85.5z"/>
			</g>
			<g>
				<path class="st3" d="M11.2,88.6c0.8,0,0.8-1.2,0-1.2S10.4,88.6,11.2,88.6z"/>
			</g>
		</g>
	</g>
</g>
<g id="Слой_3">
	<path class="st4" d="M328.1,463.1c0.5-14.8,0.1-29.5,0.5-44.3c0.4-11.9,0.6-23.8-0.5-35.7c-0.8-4.3-1.8-8.5-3.2-12.7H318v81.1h-9.9
		v-91l-27.9-27.9v114.5h-9.3V383h-16.4v-15.3h-42.2V445h-46.7v-69.2h-26.7v-7.4H122v59.2H85.5V329H54.7v138.1h-8.2V339.5H15.6v118
		l-18,1.6v-88.4l-3.9-3.9v0.1v-0.1l0,0c0.9,7.7,1.6,15.5,2.1,23.2c0.7,11.5-0.2,22.1-1.8,33.6c-0.7,5.1-1.6,10.1-2.6,15.1
		c0,0.3,0,0.6,0,0.8c-0.1,9.6-1.2,19-2.2,28.5c-1.7,18.1,0.2,36.3,2.4,54.3h337.3c-1.8-7.8-2.6-16.1-2.7-24.1
		C326.1,486.5,327.8,474.8,328.1,463.1z"/>
	<path class="st5" d="M-8.5,522.4h337.3c-1.8-7.8-2.6-16.1-2.7-24.1c0-2.4,0.1-4.9,0.2-7.3l-31-31l-37.5,37.5v-21.9h-37.3V355h-47.7
		v145.6h-31.1v-84.2l-13.9-0.8v-12.3h-53v13.6H60v83.8H41.9v-116H-2.5v110.1h-8.8C-10.7,504.1-9.6,513.3-8.5,522.4z"/>
</g>
</svg>
