<?xml version="1.0" encoding="utf-8"?>
<!-- Generator: Adobe Illustrator 27.1.1, SVG Export Plug-In . SVG Version: 6.00 Build 0)  -->
<svg version="1.1" id="Слой_8" xmlns="http://www.w3.org/2000/svg" xmlns:xlink="http://www.w3.org/1999/xlink" x="0px" y="0px"
	 viewBox="0 0 447.3 283" style="enable-background:new 0 0 447.3 283;" xml:space="preserve">
<style type="text/css">
	.st0{fill:#9FACBC;}
	.st1{fill:#626E7E;}
	.st2{opacity:0.32;fill:#4D4E50;enable-background:new    ;}
	.st3{fill:none;stroke:#000000;stroke-miterlimit:10;}
	.st4{fill:#4D4E50;}
	.st5{fill:#18191B;}
	.st6{opacity:0.5;fill:#1C1E1F;enable-background:new    ;}
	.st7{opacity:0.5;fill:#565759;enable-background:new    ;}
</style>
<g id="Слой_3">
	<g>
		<g>
			<g>
				<g>
					<g>
						<g>
							<path class="st0" d="M158.8,190c0,0,0-62.2,0-66.3c0-4-3.5-4.2-3.5-4.2h-30.2c0,0-3.5,0.2-3.5,4.2s0,66.3,0,66.3
								s-1.1,4.2,3.3,4.4h30.6C160,194.3,158.8,190,158.8,190z M146.2,157.9h-11.9c-4.2-0.2-4-4.1-4-4.1s-0.2-25,0-27.3
								s3.8-2.8,3.8-2.8h12.1c0,0,3.6,0.5,3.8,2.8s0,27.3,0,27.3S150.4,157.7,146.2,157.9z"/>
						</g>
						<g>
							<path class="st1" d="M155.3,119.7h-30.2c0,0-3.5,0.2-3.5,4.2v51.8h37.3v-51.8C158.8,119.7,155.3,119.7,155.3,119.7z
								 M146.2,157.9h-11.9c-4.2-0.2-4-4.1-4-4.1s-0.2-25,0-27.3s3.8-2.8,3.8-2.8h12.1c0,0,3.6,0.5,3.8,2.8s0,27.3,0,27.3
								S150.4,157.7,146.2,157.9z"/>
						</g>
						<path class="st2" d="M158.9,190c0,0,0-62.2,0-66.2s-3.5-4.2-3.5-4.2H145h-9.5h-10.4c0,0-3.5,0.2-3.5,4.2s0,66.2,0,66.2
							s-1.1,4.2,3.3,4.4h10.6h9.5h10.6C160,194.3,158.9,190,158.9,190z M153.8,189h-9.4H136h-9.4c-3.9-0.2-2.9-3.9-2.9-3.9
							s0-55,0-58.6s3.1-3.7,3.1-3.7h9.2h8.4h9.2c0,0,3.1,0.1,3.1,3.7s0,58.6,0,58.6S157.7,188.9,153.8,189z"/>
						<path class="st2" d="M158.9,188.5c-0.1,0.1-0.2,0.3-0.3,0.4c-0.6,0.8-1.5,1.5-2.4,2c-1.3,0.6-2.7,0.9-4.1,1.1
							c-2,0.3-3.9,0.4-5.9,0.5c-3.8,0.1-7.7,0-11.5,0c-1.8,0-3.7,0-5.5-0.1c-0.9-0.1-1.8-0.2-2.6-0.3c-0.8-0.1-1.6-0.3-2.4-0.6
							c-1.1-0.4-1.9-1.2-2.5-2.2c0,0.6,0,1,0,1s-1.1,4.2,3.3,4.4h30.6c4.4-0.2,3.3-4.4,3.3-4.4S158.9,189.5,158.9,188.5z"/>
						<path class="st3" d="M158.9,190c0,0,0-62.2,0-66.2s-3.5-4.2-3.5-4.2H145h-9.5h-10.4c0,0-3.5,0.2-3.5,4.2s0,66.2,0,66.2
							s-1.1,4.2,3.3,4.4h10.6h9.5h10.6C160,194.3,158.9,190,158.9,190z"/>
					</g>
					<g>
						<g>
							<path class="st4" d="M151.5,125.2c-0.2-2.5-4.4-3.1-4.4-3.1h-13.9c0,0-4.2,0.6-4.4,3.1s0,29.8,0,29.8s-0.3,4.3,4.5,4.5H147
								c4.8-0.2,4.5-4.5,4.5-4.5S151.8,127.7,151.5,125.2z M150.1,153.7c0,0,0.3,3.9-4,4.1h-11.9c-4.2-0.2-4-4.1-4-4.1
								s-0.2-25,0-27.3s3.8-2.8,3.8-2.8h12.1c0,0,3.6,0.5,3.8,2.8C150.3,128.7,150.1,153.7,150.1,153.7z"/>
							<path class="st5" d="M145.2,159.6h-11.8c-1.6-0.1-2.8-0.6-3.6-1.5c-1.2-1.4-1.1-3.1-1.1-3.2c0-1.1-0.2-27.3,0-29.8
								c0.2-2.6,4.3-3.2,4.5-3.2h13.9c0.2,0,4.3,0.7,4.5,3.2l0,0c0.2,2.5,0,28.7,0,29.8c0,0.1,0.1,1.8-1.1,3.2
								c-0.8,0.9-2,1.4-3.6,1.5C146.9,159.6,145.2,159.6,145.2,159.6z M133.3,122.3c0,0-4,0.6-4.2,2.9c-0.2,2.4,0,29.5,0,29.7
								c0,0-0.1,1.7,1,3c0.7,0.8,1.9,1.3,3.3,1.4H147c1.5-0.1,2.6-0.5,3.3-1.4c1.1-1.2,1-2.9,1-3c0-0.3,0.2-27.3,0-29.8l0,0
								c-0.2-2.3-4.2-2.9-4.2-2.9L133.3,122.3z"/>
						</g>
						<g>
							<path class="st6" d="M150.1,126.5c-0.2-2.3-3.8-2.8-3.8-2.8h-8h-0.9h-3.3c0,0-3.6,0.6-3.8,2.8c-0.2,2.3,0,27.3,0,27.3
								s-0.3,3.9,3.9,4.1h1.6h8.7h1.6c4.2-0.2,3.9-4.1,3.9-4.1S150.3,128.7,150.1,126.5z"/>
							<path class="st5" d="M144.6,158.1h-10.3c-1.3-0.1-2.4-0.5-3.1-1.3c-1.1-1.2-1-2.9-1-3c0-1-0.2-25.1,0-27.3
								c0.2-2.4,3.8-2.9,4-3h12.2c0.2,0,3.8,0.6,4,3l0,0c0.2,2.3,0,26.3,0,27.3c0,0.1,0.1,1.7-1,3c-0.7,0.8-1.7,1.2-3.1,1.3
								C146.3,158.1,144.6,158.1,144.6,158.1z M134.2,123.8c0,0-3.5,0.6-3.7,2.7c-0.2,2.2,0,27,0,27.3c0,0-0.1,1.6,0.9,2.8
								c0.7,0.7,1.6,1.1,2.9,1.2h11.9c1.2-0.1,2.2-0.5,2.9-1.2c1-1.1,0.9-2.8,0.9-2.8c0-0.3,0.2-25.1,0-27.3l0,0
								c-0.2-2.1-3.7-2.7-3.7-2.7H134.2z"/>
						</g>
					</g>
					<path class="st7" d="M137.3,135.7c4.3-0.6,8.6-1.1,12.9-1.6c0-3.8,0-6.9-0.1-7.6c-0.2-2.3-3.8-2.8-3.8-2.8h-12.1
						c0,0-3.6,0.6-3.8,2.8c-0.1,0.9-0.1,5.3-0.1,10.3C132.6,136.3,135,136,137.3,135.7z"/>
				</g>
			</g>
		</g>
	</g>
</g>
</svg>
