<?xml version="1.0" encoding="utf-8"?>
<!-- Generator: Adobe Illustrator 27.1.1, SVG Export Plug-In . SVG Version: 6.00 Build 0)  -->
<svg version="1.1" xmlns="http://www.w3.org/2000/svg" xmlns:xlink="http://www.w3.org/1999/xlink" x="0px" y="0px"
	 viewBox="0 0 380 298" style="enable-background:new 0 0 380 298;" xml:space="preserve">
<style type="text/css">
	.st0{fill:#FFFFFF;stroke:#000000;stroke-width:3;stroke-linecap:round;stroke-linejoin:round;stroke-miterlimit:10;}
</style>
<g id="Слой_3_00000115490948249377400760000005136581133489233040_">
	<path class="st0" d="M209.9,105.7c0,0-7.8,48.1,55.7,49.5c69.7,1.5,62.7-46.3,62.7-46.3S327.6,70,266.6,70
		c-48.9,0.1-53,20.6-53,20.6s-15.7,0.2-20-14.8C196.2,100.9,209.9,105.7,209.9,105.7z"/>
</g>
<g id="Слой_2">
	<g>
		<path d="M232.8,89.6c-0.5,0-1.2,0-2.1-0.1c-0.9-0.1-1.6-0.1-2.1-0.1c0,0.7,0.1,1.9,0.2,3.6c0.1,1.5,0.2,2.7,0.2,3.6
			c0,0.2,0,0.5,0.1,0.9c0,0.4,0.1,0.7,0.1,0.9c0,0.4-0.1,0.8-0.3,1.2c-0.2,0.5-0.6,0.7-1,0.7c-0.3,0-0.6-0.1-0.9-0.3
			c-0.3-0.2-0.4-0.5-0.4-0.9c0-0.1,0-0.2,0-0.4c0-0.2,0-0.3,0-0.4c0-0.3,0-0.7-0.1-1.2c0-0.5-0.1-1-0.1-1.2c0-0.8-0.1-1.8-0.2-3.2
			c-0.1-1.5-0.2-2.6-0.2-3.2h-0.5c-1.3,0-2.3-0.1-3.1-0.3c-0.6-0.2-1-0.5-1-1.1c0-0.3,0.1-0.6,0.3-0.8c0.2-0.3,0.6-0.4,1-0.4
			c0.2,0,0.7,0.1,1.4,0.1c0.6,0.1,1,0.1,1.4,0.1c0.4,0,0.9,0,1.6,0s1.2,0,1.6,0c0.4,0,1.1,0,2,0.1c0.9,0.1,1.6,0.1,2,0.1
			c0.4,0,0.6,0.1,0.9,0.3c0.2,0.2,0.4,0.5,0.4,0.8s-0.1,0.6-0.4,0.8C233.4,89.5,233.1,89.6,232.8,89.6z"/>
		<path d="M237.4,92.1c0.4-0.4,0.9-0.7,1.4-0.9c0.5-0.2,1-0.3,1.6-0.3c1,0,1.7,0.3,2.2,0.8c0.3,0.4,0.5,1.1,0.6,1.9
			c0,0.7,0.1,1.4,0.1,2.2c0.1,0.9,0.2,1.5,0.2,1.7c0.1,0.6,0.2,1.2,0.3,1.7c0,0.1,0,0.2,0,0.3c0,0.3-0.1,0.6-0.4,0.8
			c-0.2,0.2-0.5,0.3-0.9,0.3c-0.6,0-1-0.3-1.1-0.9c-0.1-0.5-0.3-1.1-0.4-2c-0.1-0.8-0.2-1.5-0.2-2c0-0.1,0-0.4,0-0.7s0-0.5,0-0.7
			c0-0.4,0-0.7,0-0.8c-0.1-0.3-0.2-0.5-0.5-0.5c-0.6,0-1.2,0.3-1.8,0.9c-0.3,0.3-0.6,0.9-1.1,1.7c0,2.1-0.1,3.4-0.3,3.8
			c-0.2,0.5-0.6,0.7-1.1,0.7c-0.3,0-0.6-0.1-0.9-0.3c-0.3-0.2-0.4-0.5-0.4-0.8c0-0.1,0-0.3,0.1-0.5c0-0.1,0.1-0.9,0.1-2.4
			c0-1.2,0-3.1,0-5.9l0-0.3c0-0.7,0.1-1.2,0.1-1.4c0-0.2,0-0.4-0.1-0.8c-0.1-0.4-0.1-0.6-0.1-0.8c0-0.3,0.1-0.6,0.4-0.8
			c0.2-0.2,0.5-0.3,0.9-0.3c0.6,0,1,0.3,1.2,0.9c0.1,0.4,0.2,0.9,0.2,1.6c0,0.6,0,1.2-0.1,1.8C237.4,91,237.4,91.5,237.4,92.1z"/>
		<path d="M252.7,100.6c-0.3,0-0.7-0.3-1.3-0.8c-0.5,0.3-1,0.5-1.4,0.6c-0.4,0.1-0.8,0.2-1,0.2c-1.4,0-2.5-0.4-3.2-1.1
			s-1.1-1.9-1.1-3.4c0-1.4,0.5-2.6,1.6-3.6c1-1,2.3-1.5,3.7-1.5c0.6,0,1.2,0.2,1.9,0.5c0.9,0.4,1.3,0.8,1.3,1.3
			c0,0.2-0.1,0.4-0.2,0.5c-0.1,0.2-0.1,0.5-0.1,0.9s0,0.8,0,1.2c0,1.1,0.1,1.9,0.2,2.4c0,0.1,0.2,0.4,0.4,0.9
			c0.2,0.5,0.3,0.8,0.3,0.9c0,0.3-0.1,0.6-0.4,0.8C253.3,100.5,253.1,100.6,252.7,100.6z M250.6,94.7c0-0.2,0-0.4,0-0.6
			s0.1-0.5,0.1-0.8c-0.1-0.1-0.2-0.1-0.3-0.1s-0.2,0-0.2,0c-0.8,0-1.5,0.3-2.1,0.9s-0.9,1.3-0.9,2.2c0,0.8,0.1,1.4,0.4,1.8
			c0.3,0.4,0.7,0.6,1.3,0.6c0.4,0,0.7-0.1,1-0.2c0.3-0.1,0.6-0.3,0.9-0.5C250.7,96.4,250.6,95.4,250.6,94.7z"/>
		<path d="M262.1,100.7c-0.7,0-1.1-0.4-1.2-1.1c-0.1-0.6-0.2-1.2-0.2-1.8c-0.1-0.6-0.1-1.2-0.1-1.8c0-0.2,0-0.4,0-0.8s0-0.6,0-0.8
			c0,0,0-0.1,0-0.3c0-0.2,0-0.3,0-0.4c0-0.5-0.1-0.7-0.4-0.7c-0.5,0-1,0.3-1.5,1c-0.5,0.6-0.9,1.5-1.1,2.5c0,0.2,0,0.5-0.1,0.8
			c0,0.3,0,0.5,0,0.8c0,0.2,0,0.4-0.1,0.8c0,0.3-0.1,0.6-0.1,0.8c0,0.3-0.1,0.6-0.3,0.8c-0.2,0.2-0.5,0.3-0.9,0.3
			c-0.4,0-0.6-0.1-0.9-0.3c-0.2-0.2-0.3-0.5-0.3-0.8c0-0.2,0-0.4-0.1-0.8c0-0.3-0.1-0.6-0.1-0.8c0-0.6,0-1.4,0.1-2.4
			c0.1-1,0.1-1.8,0.1-2.4c0-0.2,0-0.4,0-0.8s0-0.6,0-0.8c0-0.3,0.1-0.6,0.4-0.8c0.2-0.2,0.5-0.3,0.9-0.3c0.8,0,1.2,0.5,1.2,1.4
			l0,0.1c0.9-0.9,1.8-1.3,2.7-1.3c1.1,0,1.9,0.5,2.3,1.4c0.3,0.6,0.4,1.5,0.4,2.8v0.6c0,0.3,0,0.5,0,0.6c0,0.5,0.1,1,0.2,1.8
			s0.2,1.3,0.2,1.8c0,0.3-0.1,0.6-0.4,0.8C262.7,100.6,262.4,100.7,262.1,100.7z"/>
		<path d="M271.9,100.5c-0.5,0-0.8-0.2-1.1-0.7c-0.3-0.5-0.7-1.2-1.3-1.9c-0.9-1.1-1.4-1.7-1.4-1.8c-0.5,0.3-0.9,0.6-1.2,0.8
			c-0.1,0.8-0.1,1.6-0.1,2.3c0,0.3-0.1,0.6-0.3,0.8c-0.2,0.2-0.5,0.3-0.9,0.3c-0.8,0-1.2-0.5-1.2-1.5c0-0.5,0-1.2,0.1-2.1
			s0.1-1.6,0.1-2.1c0-0.8,0-1.8,0-2.9c0-1.1,0-2.1,0-2.9c0-0.3,0-0.5,0-0.9s0-0.6,0-0.9c0-0.3,0.1-0.6,0.3-0.8
			c0.2-0.2,0.5-0.3,0.9-0.3c0.4,0,0.6,0.1,0.9,0.3c0.2,0.2,0.3,0.5,0.3,0.8c0,0.3,0,0.6,0,0.9s0,0.7,0,0.9c0,0.7,0,1.5-0.1,2.5
			c0,0.9,0,1.7,0,2.4c0.8-0.6,2-1.7,3.6-3.4c0.3-0.3,0.5-0.4,0.9-0.4c0.3,0,0.6,0.1,0.9,0.4c0.3,0.2,0.4,0.5,0.4,0.8
			c0,0.3-0.1,0.5-0.3,0.8c-0.7,0.8-1.5,1.6-2.5,2.4l1.8,2.4c0.9,1.2,1.3,2,1.3,2.4c0,0.3-0.1,0.6-0.4,0.8
			C272.6,100.4,272.3,100.5,271.9,100.5z"/>
		<path d="M280.4,93.7c-0.6,0-0.9-0.2-1-0.7c-0.2,0-0.5-0.1-0.7-0.1c-1.4,0-2.1,0.2-2.1,0.6c0,0.2,0.4,0.5,1.3,0.9
			c1.2,0.5,1.9,0.9,2.4,1.2c0.8,0.6,1.3,1.3,1.3,2.1c0,1-0.5,1.8-1.4,2.3c-0.8,0.4-1.7,0.6-2.8,0.6c-0.8,0-1.5-0.1-2.1-0.4
			c-0.9-0.3-1.3-0.8-1.3-1.4c0-0.6,0.3-0.9,1-0.9c0.3,0,0.7,0.1,1.2,0.3s0.9,0.3,1.2,0.3c1.2,0,1.8-0.2,1.8-0.7c0-0.3-0.4-0.6-1.2-1
			c-1.2-0.5-2-0.9-2.3-1.1c-0.8-0.6-1.2-1.3-1.2-2.1c0-1.2,0.6-2,1.9-2.4c0.7-0.2,1.8-0.4,3.3-0.4c0.6,0,1,0.1,1.3,0.2
			c0.4,0.2,0.6,0.6,0.6,1.1C281.3,93.2,281,93.7,280.4,93.7z"/>
		<path d="M295,91.1c0.8-0.1,1.3-0.1,1.7-0.1c1.1,0,1.6,0.4,1.6,1.1c0,0.8-0.6,1.1-1.7,1.1c-0.4,0-0.9,0-1.7,0.1c0,0.6,0,1.4,0,2.4
			c0,1.4,0,2.2,0,2.4c0,1.1-0.1,1.9-0.2,2.5c-0.1,0.6-0.5,0.9-1.2,0.9c-0.3,0-0.6-0.1-0.9-0.3c-0.2-0.2-0.4-0.5-0.4-0.8
			c0-0.1,0-0.1,0-0.2c0.1-0.8,0.2-1.6,0.2-2.4v-4.4c-0.1,0-0.3,0-0.6,0.1c-0.2,0-0.4,0-0.5,0c-0.4,0-0.7-0.1-0.9-0.3
			c-0.2-0.2-0.4-0.5-0.4-0.8c0-0.5,0.3-0.9,0.9-1.1c0.3-0.1,0.8-0.1,1.5-0.1c0-0.1,0-0.4,0.1-1c0.2-1.3,0.5-2.3,1.1-2.9
			c0.7-0.8,1.7-1.2,3.1-1.2c1.1,0,1.6,0.4,1.6,1.1c0,0.8-0.5,1.1-1.5,1.1c-0.7,0-1.2,0.2-1.5,0.7c-0.2,0.4-0.4,0.9-0.5,1.7L295,91.1
			z"/>
		<path d="M303.6,100.6c-1.1,0-2-0.4-2.8-1.1c-0.9-0.8-1.3-1.9-1.3-3.3c0-1.3,0.3-2.4,1.1-3.5c0.9-1.2,2.1-1.8,3.7-1.8
			c1.2,0,2.1,0.5,2.8,1.4c0.6,0.8,0.9,1.9,0.9,3.1c0,1.4-0.4,2.5-1.1,3.5C306,100.1,304.9,100.6,303.6,100.6z M304.1,93.3
			c-0.7,0-1.3,0.3-1.7,1c-0.4,0.6-0.5,1.2-0.5,1.9c0,0.7,0.2,1.2,0.6,1.6c0.3,0.3,0.7,0.4,1.1,0.4c0.5,0,1-0.2,1.3-0.5
			c0.4-0.4,0.7-1,0.7-1.6C305.6,94.3,305.2,93.3,304.1,93.3z"/>
		<path d="M316.8,93.8c-0.1,0.9-0.5,1.3-1.2,1.3c-0.7,0-1.1-0.4-1.1-1.1l0-0.9c-1.3,0.2-2.3,0.9-2.8,2l0,4.4c0,0.3-0.1,0.6-0.3,0.8
			c-0.2,0.2-0.5,0.3-0.9,0.3c-0.4,0-0.6-0.1-0.8-0.4c-0.2-0.2-0.3-0.5-0.3-0.8v-5.7c0-0.2,0-0.5,0-0.8s0-0.6,0-0.8
			c0-0.3,0.1-0.6,0.3-0.8s0.5-0.3,0.8-0.3c0.6,0,1,0.3,1.2,1c1-0.8,2.2-1.2,3.4-1.2c1.2,0,1.8,0.8,1.8,2.3
			C316.8,93.5,316.8,93.7,316.8,93.8z"/>
		<path d="M238.8,114.3c-0.6,1.3-1.6,3.4-3,6.3c-0.7,1.5-1.3,2.8-1.7,3.8c-0.1,0.4-0.3,0.9-0.6,1.6c-0.2,0.5-0.6,0.8-1.1,0.8
			c-0.3,0-0.6-0.1-0.9-0.3c-0.3-0.2-0.4-0.5-0.4-0.8c0-0.5,0.6-2.2,1.9-4.8c-0.6-1.3-1.7-3.1-3.1-5.6c-0.1-0.2-0.3-0.4-0.4-0.7
			c-0.2-0.3-0.2-0.5-0.2-0.7c0-0.3,0.1-0.6,0.4-0.8c0.3-0.2,0.5-0.4,0.9-0.4c0.4,0,0.7,0.1,0.9,0.4c0.8,1.1,1.8,2.8,2.9,5
			c0.6-1.4,1-2.2,1.1-2.5c0.4-0.9,0.8-1.6,1.2-2.3c0.3-0.4,0.6-0.6,1-0.6c0.3,0,0.6,0.1,0.9,0.3c0.3,0.2,0.4,0.5,0.4,0.8
			C239,113.9,238.9,114.1,238.8,114.3z"/>
		<path d="M243.6,122.2c-1.1,0-2-0.4-2.8-1.1c-0.9-0.8-1.3-1.9-1.3-3.3c0-1.3,0.3-2.4,1.1-3.5c0.9-1.2,2.1-1.8,3.7-1.8
			c1.2,0,2.1,0.5,2.8,1.4c0.6,0.8,0.9,1.9,0.9,3.1c0,1.4-0.4,2.5-1.1,3.5C246.1,121.7,245,122.2,243.6,122.2z M244.2,114.9
			c-0.7,0-1.3,0.3-1.7,1c-0.4,0.6-0.5,1.2-0.5,1.9c0,0.7,0.2,1.2,0.6,1.6c0.3,0.3,0.7,0.4,1.1,0.4c0.5,0,1-0.2,1.3-0.5
			c0.4-0.4,0.7-1,0.7-1.6C245.7,115.9,245.2,114.9,244.2,114.9z"/>
		<path d="M257.2,116.6c0,0.4,0,1,0,1.8c0,0.8,0,1.4,0,1.8c0,0.1,0,0.3,0,0.5s0,0.4,0,0.5c0,0.3-0.1,0.6-0.4,0.8
			c-0.2,0.2-0.5,0.3-0.9,0.3c-0.5,0-0.8-0.2-1.1-0.7c-0.7,0.3-1.5,0.4-2.3,0.4c-0.8,0-1.5-0.2-2.1-0.5c-0.6-0.4-1-1-1.1-1.8
			c-0.2-1.5-0.3-2.8-0.3-3.9c0-0.8,0.1-1.6,0.3-2.6c0.1-0.7,0.5-1,1.2-1c0.3,0,0.6,0.1,0.9,0.3c0.2,0.2,0.4,0.5,0.4,0.8
			c0,0.3,0,0.7-0.1,1.2c-0.1,0.5-0.1,1-0.1,1.2c0,0.8,0,1.5,0.1,2.1s0.1,1.1,0.2,1.5c0.1,0.1,0.3,0.1,0.4,0.1c0.1,0,0.3,0.1,0.4,0.1
			c0.6,0,1.4-0.1,2.1-0.3c0-0.5,0-1,0-1.5c0-0.7,0-1.2,0-1.5c0-1.2,0.1-2.2,0.2-3.1c0.1-0.7,0.5-1,1.2-1c0.3,0,0.6,0.1,0.9,0.3
			s0.4,0.5,0.3,0.8C257.2,115.8,257.2,116.8,257.2,116.6z"/>
		<path d="M266.2,115.4c-0.1,0.9-0.5,1.3-1.2,1.3c-0.7,0-1.1-0.4-1.1-1.1l0-0.9c-1.3,0.2-2.3,0.9-2.8,2l0,4.4c0,0.3-0.1,0.6-0.3,0.8
			c-0.2,0.2-0.5,0.3-0.9,0.3c-0.4,0-0.6-0.1-0.8-0.4c-0.2-0.2-0.3-0.5-0.3-0.8v-5.7c0-0.2,0-0.5,0-0.8s0-0.6,0-0.8
			c0-0.3,0.1-0.6,0.3-0.8s0.5-0.3,0.8-0.3c0.6,0,1,0.3,1.2,1c1-0.8,2.2-1.2,3.4-1.2c1.2,0,1.8,0.8,1.8,2.3
			C266.2,115.1,266.2,115.3,266.2,115.4z"/>
		<path d="M277.9,113.7c0.4-0.4,0.9-0.7,1.4-0.9c0.5-0.2,1-0.3,1.6-0.3c1,0,1.7,0.3,2.2,0.8c0.3,0.4,0.5,1.1,0.6,1.9
			c0,0.7,0.1,1.4,0.1,2.2c0.1,0.9,0.2,1.5,0.2,1.7c0.1,0.6,0.2,1.2,0.3,1.7c0,0.1,0,0.2,0,0.3c0,0.3-0.1,0.6-0.4,0.8
			c-0.2,0.2-0.5,0.3-0.9,0.3c-0.6,0-1-0.3-1.1-0.9c-0.1-0.5-0.3-1.1-0.4-2c-0.1-0.8-0.2-1.5-0.2-2c0-0.1,0-0.4,0-0.7s0-0.5,0-0.7
			c0-0.4,0-0.7,0-0.8c-0.1-0.3-0.2-0.5-0.5-0.5c-0.6,0-1.2,0.3-1.8,0.9c-0.3,0.3-0.6,0.9-1.1,1.7c0,2.1-0.1,3.4-0.3,3.8
			c-0.2,0.5-0.6,0.7-1.1,0.7c-0.3,0-0.6-0.1-0.9-0.3c-0.3-0.2-0.4-0.5-0.4-0.8c0-0.1,0-0.3,0.1-0.5c0-0.1,0.1-0.9,0.1-2.4
			c0-1.2,0-3.1,0-5.9l0-0.3c0-0.7,0.1-1.2,0.1-1.4c0-0.2,0-0.4-0.1-0.8c-0.1-0.4-0.1-0.6-0.1-0.8c0-0.3,0.1-0.6,0.4-0.8
			c0.2-0.2,0.5-0.3,0.9-0.3c0.6,0,1,0.3,1.2,0.9c0.1,0.4,0.2,0.9,0.2,1.6c0,0.6,0,1.2-0.1,1.8C277.9,112.5,277.9,113.1,277.9,113.7z
			"/>
		<path d="M290.1,122.1c-1.4,0-2.5-0.3-3.4-1c-1-0.7-1.5-1.8-1.5-3.1c0-1.5,0.4-2.7,1.2-3.8c0.9-1.1,2-1.7,3.5-1.7
			c1,0,1.9,0.2,2.5,0.5c0.9,0.4,1.3,1.1,1.3,2c0,0.6-0.4,1.2-1.1,1.7c-0.3,0.2-1,0.6-2,1l-3,1.3c0.3,0.3,0.6,0.5,1,0.7
			c0.4,0.2,0.9,0.2,1.4,0.2c0.8,0,1.4-0.2,2-0.5c0.5-0.3,0.9-0.4,1.2-0.4c0.6,0,0.9,0.3,0.9,0.9c0,0.7-0.5,1.2-1.5,1.6
			C291.8,121.9,291,122.1,290.1,122.1z M289.8,114.6c-0.5,0-1,0.2-1.4,0.5c-0.4,0.4-0.7,0.9-0.9,1.6c0.7-0.3,1.3-0.6,2-0.9
			c0.8-0.4,1.4-0.7,1.9-1C291,114.7,290.5,114.6,289.8,114.6z"/>
		<path d="M298.4,120.4c0,1.1-0.4,1.7-1.2,1.7c-0.4,0-0.6-0.1-0.9-0.3c-0.2-0.2-0.3-0.5-0.3-0.9v-12.1c0-0.3,0.1-0.6,0.4-0.8
			c0.2-0.2,0.5-0.3,0.9-0.3c0.3,0,0.6,0.1,0.9,0.3c0.2,0.2,0.3,0.5,0.3,0.8V120.4z"/>
		<path d="M304.7,122.2c-0.5,0-1-0.1-1.6-0.2l0,3.6c0,0.3-0.1,0.6-0.3,0.8c-0.2,0.2-0.5,0.3-0.9,0.3c-0.4,0-0.6-0.1-0.9-0.3
			c-0.2-0.2-0.3-0.5-0.3-0.8c0-0.3,0-1.4,0-3.3c0-1.4,0-2.6,0-3.5c0-1.3-0.1-2.4-0.1-3.3c-0.1-1.3-0.1-1.8-0.1-1.7
			c0-0.5,0.1-0.9,0.3-1.2c0.3-0.4,0.6-0.6,1-0.6c0.3,0,0.6,0.1,0.8,0.3c0.2,0.2,0.3,0.5,0.3,0.8l0,0.1c0.4-0.2,0.8-0.4,1.2-0.5
			c0.4-0.1,0.8-0.2,1.2-0.2c1.3,0,2.3,0.6,2.9,1.7c0.5,0.9,0.7,2,0.7,3.3c0,1.3-0.4,2.3-1.1,3.2C307,121.7,306,122.2,304.7,122.2z
			 M305.3,114.9c-0.4,0-0.7,0.1-1.1,0.3c-0.4,0.2-0.8,0.4-1.1,0.8c0.1,1.2,0.1,2.4,0.1,3.6c0.5,0.2,1,0.3,1.6,0.3
			c0.6,0,1.1-0.2,1.4-0.6c0.3-0.4,0.4-0.9,0.4-1.6c0-0.8,0-1.3-0.1-1.6C306.2,115.3,305.8,114.9,305.3,114.9z"/>
		<path d="M248.8,143.6c-0.8,0-1.6-0.1-2.3-0.4c-0.2,0.2-0.5,0.3-0.8,0.3c-0.3,0-0.6-0.1-0.8-0.3c-0.2-0.2-0.3-0.5-0.3-0.8
			c0-0.1,0-0.4,0-0.6c0-0.3,0-0.5,0-0.6v-9.9c0-0.4,0.1-0.8,0.3-1.1c0.2-0.4,0.6-0.6,1-0.6c0.6,0,0.9,0.3,0.9,1c0,0.1,0,0.2,0,0.4
			c0,0.2,0,0.3,0,0.4v3.4c0.4-0.2,0.8-0.4,1.2-0.5c0.4-0.1,0.8-0.2,1.2-0.2c1.4,0,2.5,0.5,3.3,1.5c0.8,0.9,1.2,2.1,1.2,3.4
			c0,1.4-0.5,2.5-1.4,3.4C251.3,143.1,250.2,143.6,248.8,143.6z M249.1,136.1c-0.3,0-0.7,0.1-1.1,0.3c-0.4,0.2-0.8,0.4-1.3,0.8
			c0,0.6,0,1.8,0,3.7c0.8,0.3,1.5,0.5,2.1,0.5c0.7,0,1.4-0.2,1.8-0.8c0.5-0.5,0.7-1.1,0.7-1.9s-0.2-1.4-0.6-1.9
			C250.4,136.3,249.8,136.1,249.1,136.1z"/>
		<path d="M263,138.2c0,0.4,0,1,0,1.8c0,0.8,0,1.4,0,1.8c0,0.1,0,0.3,0,0.5s0,0.4,0,0.5c0,0.3-0.1,0.6-0.4,0.8
			c-0.2,0.2-0.5,0.3-0.9,0.3c-0.5,0-0.8-0.2-1.1-0.7c-0.7,0.3-1.5,0.4-2.3,0.4c-0.8,0-1.5-0.2-2.1-0.5c-0.6-0.4-1-1-1.1-1.8
			c-0.2-1.5-0.3-2.8-0.3-3.9c0-0.8,0.1-1.6,0.3-2.6c0.1-0.7,0.5-1,1.2-1c0.3,0,0.6,0.1,0.9,0.3c0.2,0.2,0.4,0.5,0.4,0.8
			c0,0.3,0,0.7-0.1,1.2c-0.1,0.5-0.1,1-0.1,1.2c0,0.8,0,1.5,0.1,2.1s0.1,1.1,0.2,1.5c0.1,0.1,0.3,0.1,0.4,0.1c0.1,0,0.3,0.1,0.4,0.1
			c0.6,0,1.4-0.1,2.1-0.3c0-0.5,0-1,0-1.5c0-0.7,0-1.2,0-1.5c0-1.2,0.1-2.2,0.2-3.1c0.1-0.7,0.5-1,1.2-1c0.3,0,0.6,0.1,0.9,0.3
			s0.4,0.5,0.3,0.8C263,137.3,263,138.3,263,138.2z"/>
		<path d="M271.1,134.4c0.1-2,0.2-3.4,0.3-4.1c0.1-0.7,0.5-1,1.1-1c0.3,0,0.6,0.1,0.8,0.3c0.2,0.2,0.3,0.5,0.3,0.8
			c0,0.9-0.1,2.1-0.2,3.8c-0.1,1.7-0.2,3-0.2,3.8c0,2.1,0.1,3.5,0.2,4.2c0,0.1,0,0.2,0,0.3c0,0.3-0.1,0.6-0.4,0.8
			c-0.2,0.2-0.5,0.3-0.8,0.3c-0.4,0-0.8-0.2-1-0.6c-0.4,0.2-0.8,0.4-1.2,0.5s-0.9,0.1-1.3,0.1c-1.3,0-2.4-0.4-3.3-1.3
			c-0.9-0.9-1.3-1.9-1.3-3.3c0-1.6,0.4-2.8,1.3-3.8c0.9-1,2.1-1.5,3.5-1.5c0.4,0,0.8,0,1.2,0.1C270.5,134.1,270.8,134.2,271.1,134.4
			z M270.9,137.2c-0.2-0.4-0.4-0.6-0.8-0.8c-0.3-0.2-0.7-0.3-1.1-0.3c-0.9,0-1.5,0.2-1.9,0.8c-0.4,0.5-0.6,1.3-0.6,2.3
			c0,0.6,0.2,1.2,0.7,1.6c0.5,0.5,1,0.7,1.6,0.7c0.5,0,0.8-0.1,1-0.2c0.2-0.1,0.4-0.3,0.8-0.6c0.1-0.1,0.2-0.2,0.3-0.3
			C270.9,140.1,270.9,139.1,270.9,137.2z"/>
		<path d="M281.6,134.4c0.1-2,0.2-3.4,0.3-4.1c0.1-0.7,0.5-1,1.1-1c0.3,0,0.6,0.1,0.8,0.3c0.2,0.2,0.3,0.5,0.3,0.8
			c0,0.9-0.1,2.1-0.2,3.8c-0.1,1.7-0.2,3-0.2,3.8c0,2.1,0.1,3.5,0.2,4.2c0,0.1,0,0.2,0,0.3c0,0.3-0.1,0.6-0.4,0.8
			c-0.2,0.2-0.5,0.3-0.8,0.3c-0.4,0-0.8-0.2-1-0.6c-0.4,0.2-0.8,0.4-1.2,0.5s-0.9,0.1-1.3,0.1c-1.3,0-2.4-0.4-3.3-1.3
			c-0.9-0.9-1.3-1.9-1.3-3.3c0-1.6,0.4-2.8,1.3-3.8c0.9-1,2.1-1.5,3.5-1.5c0.4,0,0.8,0,1.2,0.1C281.1,134.1,281.4,134.2,281.6,134.4
			z M281.4,137.2c-0.2-0.4-0.4-0.6-0.8-0.8c-0.3-0.2-0.7-0.3-1.1-0.3c-0.9,0-1.5,0.2-1.9,0.8c-0.4,0.5-0.6,1.3-0.6,2.3
			c0,0.6,0.2,1.2,0.7,1.6c0.5,0.5,1,0.7,1.6,0.7c0.5,0,0.8-0.1,1-0.2c0.2-0.1,0.4-0.3,0.8-0.6c0.1-0.1,0.2-0.2,0.3-0.3
			C281.4,140.1,281.4,139.1,281.4,137.2z"/>
		<path d="M294.5,135.8c-0.6,1.3-1.6,3.4-3,6.3c-0.7,1.5-1.3,2.8-1.7,3.8c-0.1,0.4-0.3,0.9-0.6,1.6c-0.2,0.5-0.6,0.8-1.1,0.8
			c-0.3,0-0.6-0.1-0.9-0.3c-0.3-0.2-0.4-0.5-0.4-0.8c0-0.5,0.6-2.2,1.9-4.8c-0.6-1.3-1.7-3.1-3.1-5.6c-0.1-0.2-0.3-0.4-0.4-0.7
			c-0.2-0.3-0.2-0.5-0.2-0.7c0-0.3,0.1-0.6,0.4-0.8c0.3-0.2,0.5-0.4,0.9-0.4c0.4,0,0.7,0.1,0.9,0.4c0.8,1.1,1.8,2.8,2.9,5
			c0.6-1.4,1-2.2,1.1-2.5c0.4-0.9,0.8-1.6,1.2-2.3c0.3-0.4,0.6-0.6,1-0.6c0.3,0,0.6,0.1,0.9,0.3c0.3,0.2,0.4,0.5,0.4,0.8
			C294.6,135.4,294.6,135.6,294.5,135.8z"/>
	</g>
</g>
</svg>
