<?xml version="1.0" encoding="utf-8"?>
<!-- Generator: Adobe Illustrator 27.1.1, SVG Export Plug-In . SVG Version: 6.00 Build 0)  -->
<svg version="1.1" id="Слой_1" xmlns="http://www.w3.org/2000/svg" xmlns:xlink="http://www.w3.org/1999/xlink" x="0px" y="0px"
	 viewBox="0 0 389.1 256.1" style="enable-background:new 0 0 389.1 256.1;" xml:space="preserve">
<style type="text/css">
	.st0{fill-rule:evenodd;clip-rule:evenodd;fill:url(#SVGID_1_);}
	.st1{fill:#6DCAFF;}
	.st2{fill:#FFFFFF;}
	.st3{fill:#475293;}
	.st4{fill:url(#SVGID_00000038405185574878941810000002073720416870147475_);}
</style>
<g id="Слой_2_00000142876045709877041070000003559191153532091568_">
	<g id="Слой_2_00000080179358136705631670000003329721878937673656_">
		<g>
			
				<linearGradient id="SVGID_1_" gradientUnits="userSpaceOnUse" x1="194.55" y1="22.9" x2="194.55" y2="281.9" gradientTransform="matrix(1 0 0 -1 0 280)">
				<stop  offset="0" style="stop-color:#2E405B"/>
				<stop  offset="0.5279" style="stop-color:#003366"/>
				<stop  offset="0.9575" style="stop-color:#072D44"/>
			</linearGradient>
			<polygon class="st0" points="0,257.1 389.1,257.1 389.1,-1.9 0,-1.9 			"/>
		</g>
	</g>
</g>
<g id="Слой_3">
	<g>
		<g>
			<path class="st1" d="M133.9,5L133.9,5L133.9,5z"/>
		</g>
		<g>
			<path class="st1" d="M129.4,29.6L129.4,29.6L129.4,29.6z"/>
		</g>
		<g>
			<path class="st1" d="M40.1,70.5c0.5,0,0.5-0.7,0-0.7S39.6,70.5,40.1,70.5z"/>
		</g>
		<g>
			<path class="st1" d="M115.7,45.1c0.5,0,0.5-0.7,0-0.7S115.2,45.1,115.7,45.1z"/>
		</g>
		<g>
			<path class="st1" d="M188.2,72.1c0.5,0,0.5-0.7,0-0.7C187.8,71.4,187.8,72.1,188.2,72.1z"/>
		</g>
		<g>
			<path class="st1" d="M28.3-17.7c0.5,0,0.5-0.7,0-0.7C27.8-18.4,27.8-17.7,28.3-17.7z"/>
		</g>
		<g>
			<path class="st1" d="M46.2,5c0.5,0,0.5-0.7,0-0.7C45.7,4.4,45.7,5,46.2,5z"/>
		</g>
		<g>
			<path class="st1" d="M69.9-13.7c0.5,0,0.5-0.7,0-0.7S69.4-13.7,69.9-13.7z"/>
		</g>
		<g>
			<path class="st1" d="M82.8-3.3c0.5,0,0.5-0.7,0-0.7C82.3-3.9,82.3-3.3,82.8-3.3z"/>
		</g>
		<g>
			<path class="st1" d="M165.9-27.8c0.5,0,0.5-0.7,0-0.7C165.5-28.5,165.5-27.8,165.9-27.8z"/>
		</g>
		<g>
			<path class="st1" d="M158.7,91.8c0.5,0,0.5-0.7,0-0.7C158.3,91.2,158.3,91.8,158.7,91.8z"/>
		</g>
		<g>
			<path class="st1" d="M83.7,123.8c0.5,0,0.5-0.7,0-0.7C83.2,123.1,83.2,123.8,83.7,123.8z"/>
		</g>
		<g>
			<path class="st1" d="M70.3,146.6c0.5,0,0.5-0.7,0-0.7C69.9,146,69.9,146.6,70.3,146.6z"/>
		</g>
		<g>
			<path class="st1" d="M2.8,128.2c0.5,0,0.5-0.7,0-0.7S2.4,128.2,2.8,128.2z"/>
		</g>
		<g>
			<path class="st1" d="M104.6,139.9c0.5,0,0.5-0.7,0-0.7C104.2,139.2,104.2,139.9,104.6,139.9z"/>
		</g>
		<g>
			<path class="st1" d="M30.5,117.7c0.5,0,0.5-0.7,0-0.7C30.1,117,30.1,117.7,30.5,117.7z"/>
		</g>
		<g>
			<path class="st1" d="M-2.5,52.9c0.5,0,0.5-0.7,0-0.7S-3,52.9-2.5,52.9z"/>
		</g>
		<g>
			<path class="st1" d="M29.7,29.6c0.5,0,0.5-0.7,0-0.7S29.2,29.6,29.7,29.6z"/>
		</g>
		<g>
			<path class="st1" d="M152.9,7.2c0.5,0,0.5-0.7,0-0.7C152.5,6.6,152.5,7.2,152.9,7.2z"/>
		</g>
		<g>
			<path class="st1" d="M159.2,35.8c0.5,0,0.5-0.7,0-0.7S158.7,35.8,159.2,35.8z"/>
		</g>
		<g>
			<path class="st1" d="M139.1,62.1c0.5,0,0.5-0.7,0-0.7C138.6,61.4,138.6,62.1,139.1,62.1z"/>
		</g>
		<g>
			<path class="st1" d="M95.3,57.7c0.5,0,0.5-0.7,0-0.7S94.8,57.7,95.3,57.7z"/>
		</g>
		<g>
			<path class="st1" d="M88.6,26.1c0.5,0,0.5-0.7,0-0.7S88.1,26.1,88.6,26.1z"/>
		</g>
		<g>
			<path class="st1" d="M118.5,0.2c0.5,0,0.5-0.7,0-0.7C118.1-0.4,118.1,0.2,118.5,0.2z"/>
		</g>
		<g>
			<path class="st1" d="M128.4-20.3c0.5,0,0.5-0.7,0-0.7C127.9-21,127.9-20.3,128.4-20.3z"/>
		</g>
		<g>
			<path class="st1" d="M182.9,22.2c0.5,0,0.5-0.7,0-0.7S182.4,22.2,182.9,22.2z"/>
		</g>
		<g>
			<path class="st1" d="M190.9,120.8c0.5,0,0.5-0.7,0-0.7C190.5,120.1,190.5,120.8,190.9,120.8z"/>
		</g>
		<g>
			<path class="st1" d="M193.2,137.4c0.5,0,0.5-0.7,0-0.7S192.7,137.4,193.2,137.4z"/>
		</g>
		<g>
			<path class="st1" d="M165,137.4c0.5,0,0.5-0.7,0-0.7S164.5,137.4,165,137.4z"/>
		</g>
		<g>
			<path class="st1" d="M106.9,99.7c0.5,0,0.5-0.7,0-0.7C106.5,99.1,106.5,99.7,106.9,99.7z"/>
		</g>
		<g>
			<path class="st1" d="M67.6,76.5c0.5,0,0.5-0.7,0-0.7S67.1,76.5,67.6,76.5z"/>
		</g>
		<g>
			<path class="st1" d="M4.2,83.5c0.5,0,0.5-0.7,0-0.7S3.7,83.5,4.2,83.5z"/>
		</g>
		<g>
			<path class="st1" d="M29.2,43.6c0.5,0,0.5-0.7,0-0.7C28.7,42.9,28.7,43.6,29.2,43.6z"/>
		</g>
		<g>
			<path class="st1" d="M7.3,10.3c0.5,0,0.5-0.7,0-0.7S6.8,10.3,7.3,10.3z"/>
		</g>
		<g>
			<path class="st1" d="M56.4-28.7c0.5,0,0.5-0.7,0-0.7C56-29.4,56-28.7,56.4-28.7z"/>
		</g>
		<g>
			<path class="st1" d="M74.3,26.6c0.5,0,0.5-0.7,0-0.7C73.9,25.9,73.9,26.6,74.3,26.6z"/>
		</g>
		<g>
			<path class="st1" d="M138.6,15.6c0.5,0,0.5-0.7,0-0.7C138.2,14.9,138.2,15.6,138.6,15.6z"/>
		</g>
		<g>
			<path class="st1" d="M157-37.9c0.5,0,0.5-0.7,0-0.7S156.5-37.9,157-37.9z"/>
		</g>
		<g>
			<path class="st1" d="M50,50.4c0.5,0,0.5-0.7,0-0.7S49.5,50.4,50,50.4z"/>
		</g>
		<g>
			<path class="st1" d="M45.9,56.1c0.5,0,0.5-0.7,0-0.7C45.5,55.4,45.5,56.1,45.9,56.1z"/>
		</g>
		<g>
			<path class="st1" d="M47.7,50.2c0.5,0,0.5-0.7,0-0.7C47.3,49.5,47.3,50.2,47.7,50.2z"/>
		</g>
		<g>
			<path class="st1" d="M39.3,55.7c0.5,0,0.5-0.7,0-0.7S38.8,55.7,39.3,55.7z"/>
		</g>
		<g>
			<path class="st1" d="M30.5,64c0.5,0,0.5-0.7,0-0.7C30.1,63.3,30.1,64,30.5,64z"/>
		</g>
		<g>
			<path class="st1" d="M29.8,54.1c0.5,0,0.5-0.7,0-0.7C29.4,53.5,29.4,54.1,29.8,54.1z"/>
		</g>
		<g>
			<path class="st1" d="M39.7,61c0.5,0,0.5-0.7,0-0.7C39.3,60.3,39.3,61,39.7,61z"/>
		</g>
		<g>
			<path class="st1" d="M35.2,65.1c0.5,0,0.5-0.7,0-0.7C34.8,64.4,34.8,65.1,35.2,65.1z"/>
		</g>
		<g>
			<path class="st1" d="M33.7,60.7c0.5,0,0.5-0.7,0-0.7S33.2,60.7,33.7,60.7z"/>
		</g>
		<g>
			<path class="st1" d="M26.1,72.1c0.5,0,0.5-0.7,0-0.7S25.6,72.1,26.1,72.1z"/>
		</g>
		<g>
			<path class="st1" d="M13.8,80.9c0.5,0,0.5-0.7,0-0.7C13.3,80.2,13.3,80.9,13.8,80.9z"/>
		</g>
		<g>
			<path class="st1" d="M65.4,34c0.5,0,0.5-0.7,0-0.7S64.9,34,65.4,34z"/>
		</g>
		<g>
			<path class="st1" d="M52,26.6c0.5,0,0.5-0.7,0-0.7S51.5,26.6,52,26.6z"/>
		</g>
		<g>
			<path class="st1" d="M56.2,35.8c0.5,0,0.5-0.7,0-0.7C55.8,35.1,55.8,35.8,56.2,35.8z"/>
		</g>
		<g>
			<path class="st1" d="M62.9,46.3c0.5,0,0.5-0.7,0-0.7C62.5,45.6,62.5,46.3,62.9,46.3z"/>
		</g>
		<g>
			<path class="st1" d="M71.9,38c0.5,0,0.5-0.7,0-0.7S71.4,38,71.9,38z"/>
		</g>
		<g>
			<path class="st1" d="M63.4,39.1c0.5,0,0.5-0.7,0-0.7C62.9,38.4,62.9,39.1,63.4,39.1z"/>
		</g>
		<g>
			<path class="st1" d="M58.2,39.3c0.5,0,0.5-0.7,0-0.7S57.8,39.3,58.2,39.3z"/>
		</g>
		<g>
			<path class="st1" d="M60.5,8.8c0.5,0,0.5-0.7,0-0.7S60,8.8,60.5,8.8z"/>
		</g>
		<g>
			<path class="st1" d="M66.5-6.7c0.5,0,0.5-0.7,0-0.7C66-7.4,66-6.7,66.5-6.7z"/>
		</g>
		<g>
			<path class="st1" d="M82.6,0.5c0.5,0,0.5-0.7,0-0.7C82.1-0.2,82.1,0.5,82.6,0.5z"/>
		</g>
		<g>
			<path class="st1" d="M73.4,0.7c0.5,0,0.5-0.7,0-0.7C73,0,73,0.7,73.4,0.7z"/>
		</g>
		<g>
			<path class="st1" d="M82.6,13.2c0.5,0,0.5-0.7,0-0.7S82.1,13.2,82.6,13.2z"/>
		</g>
		<g>
			<path class="st1" d="M82.3,29.4c0.5,0,0.5-0.7,0-0.7C81.9,28.7,81.9,29.4,82.3,29.4z"/>
		</g>
		<g>
			<path class="st1" d="M94,28.9c0.5,0,0.5-0.7,0-0.7C93.5,28.3,93.5,28.9,94,28.9z"/>
		</g>
		<g>
			<path class="st1" d="M101.6,5c0.5,0,0.5-0.7,0-0.7C101.1,4.4,101.1,5,101.6,5z"/>
		</g>
		<g>
			<path class="st1" d="M94.2-3.7c0.5,0,0.5-0.7,0-0.7S93.7-3.7,94.2-3.7z"/>
		</g>
		<g>
			<path class="st1" d="M92.4,8.3c0.5,0,0.5-0.7,0-0.7S92,8.3,92.4,8.3z"/>
		</g>
		<g>
			<path class="st1" d="M85.2,6.1c0.5,0,0.5-0.7,0-0.7C84.8,5.5,84.8,6.1,85.2,6.1z"/>
		</g>
		<g>
			<path class="st1" d="M91.1-2.8c0.5,0,0.5-0.7,0-0.7S90.6-2.8,91.1-2.8z"/>
		</g>
		<g>
			<path class="st1" d="M77.9,7.9c0.5,0,0.5-0.7,0-0.7C77.5,7.2,77.5,7.9,77.9,7.9z"/>
		</g>
		<g>
			<path class="st1" d="M81.5,20.6c0.5,0,0.5-0.7,0-0.7C81,20,81,20.6,81.5,20.6z"/>
		</g>
		<g>
			<path class="st1" d="M92.2,17.8c0.5,0,0.5-0.7,0-0.7C91.7,17.1,91.7,17.8,92.2,17.8z"/>
		</g>
		<g>
			<path class="st1" d="M79.2,18.6c0.5,0,0.5-0.7,0-0.7S78.8,18.6,79.2,18.6z"/>
		</g>
		<g>
			<path class="st1" d="M82.8,36.2c0.5,0,0.5-0.7,0-0.7S82.3,36.2,82.8,36.2z"/>
		</g>
		<g>
			<path class="st1" d="M79.2,44.1c0.5,0,0.5-0.7,0-0.7S78.8,44.1,79.2,44.1z"/>
		</g>
		<g>
			<path class="st1" d="M71,44.1c0.5,0,0.5-0.7,0-0.7S70.5,44.1,71,44.1z"/>
		</g>
		<g>
			<path class="st1" d="M68,54.4c0.5,0,0.5-0.7,0-0.7C67.6,53.7,67.6,54.4,68,54.4z"/>
		</g>
		<g>
			<path class="st1" d="M57.1,55c0.5,0,0.5-0.7,0-0.7C56.6,54.4,56.6,55,57.1,55z"/>
		</g>
		<g>
			<path class="st1" d="M55.5,51.1c0.5,0,0.5-0.7,0-0.7C55.1,50.4,55.1,51.1,55.5,51.1z"/>
		</g>
		<g>
			<path class="st1" d="M33,25.2c0.5,0,0.5-0.7,0-0.7S32.5,25.2,33,25.2z"/>
		</g>
		<g>
			<path class="st1" d="M35.7,34.9c0.5,0,0.5-0.7,0-0.7S35.2,34.9,35.7,34.9z"/>
		</g>
		<g>
			<path class="st1" d="M27.2,35.1c0.5,0,0.5-0.7,0-0.7C26.7,34.4,26.7,35.1,27.2,35.1z"/>
		</g>
		<g>
			<path class="st1" d="M18.9,36.9c0.5,0,0.5-0.7,0-0.7C18.5,36.2,18.5,36.9,18.9,36.9z"/>
		</g>
		<g>
			<path class="st1" d="M22.3,49.6L22.3,49.6L22.3,49.6z"/>
		</g>
		<g>
			<path class="st1" d="M25.2,53.5c0.5,0,0.5-0.7,0-0.7S24.7,53.5,25.2,53.5z"/>
		</g>
		<g>
			<path class="st1" d="M19.8,58.1c0.5,0,0.5-0.7,0-0.7C19.3,57.4,19.3,58.1,19.8,58.1z"/>
		</g>
		<g>
			<path class="st1" d="M13.1,53.5c0.5,0,0.5-0.7,0-0.7C12.7,52.8,12.7,53.5,13.1,53.5z"/>
		</g>
		<g>
			<path class="st1" d="M18.7,45.8c0.5,0,0.5-0.7,0-0.7S18.2,45.8,18.7,45.8z"/>
		</g>
		<g>
			<path class="st1" d="M39.7,69.9c0.5,0,0.5-0.7,0-0.7C39.3,69.2,39.3,69.9,39.7,69.9z"/>
		</g>
		<g>
			<path class="st1" d="M32.1,69.1c0.5,0,0.5-0.7,0-0.7C31.7,68.4,31.7,69.1,32.1,69.1z"/>
		</g>
		<g>
			<path class="st1" d="M47,73.9c0.5,0,0.5-0.7,0-0.7C46.6,73.2,46.6,73.9,47,73.9z"/>
		</g>
		<g>
			<path class="st1" d="M50.4,61.8c0.5,0,0.5-0.7,0-0.7S49.9,61.8,50.4,61.8z"/>
		</g>
		<g>
			<path class="st1" d="M72.7,63.6c0.5,0,0.5-0.7,0-0.7S72.3,63.6,72.7,63.6z"/>
		</g>
		<g>
			<path class="st1" d="M45.3,80.2c0.5,0,0.5-0.7,0-0.7S44.8,80.2,45.3,80.2z"/>
		</g>
		<g>
			<path class="st1" d="M33.4,84.9c0.5,0,0.5-0.7,0-0.7C33,84.2,33,84.9,33.4,84.9z"/>
		</g>
		<g>
			<path class="st1" d="M34.5,93.2c0.5,0,0.5-0.7,0-0.7C34.1,92.5,34.1,93.2,34.5,93.2z"/>
		</g>
		<g>
			<path class="st1" d="M43.7,93.4c0.5,0,0.5-0.7,0-0.7C43.3,92.7,43.3,93.4,43.7,93.4z"/>
		</g>
		<g>
			<path class="st1" d="M58.7,71c0.5,0,0.5-0.7,0-0.7S58.2,71,58.7,71z"/>
		</g>
		<g>
			<path class="st1" d="M173.8,35.8c0.5,0,0.5-0.7,0-0.7C173.4,35.1,173.3,35.8,173.8,35.8z"/>
		</g>
		<g>
			<path class="st1" d="M178.8,47.4c0.5,0,0.5-0.7,0-0.7C178.4,46.7,178.4,47.4,178.8,47.4z"/>
		</g>
		<g>
			<path class="st1" d="M162.8,60.9c0.5,0,0.5-0.7,0-0.7S162.3,60.9,162.8,60.9z"/>
		</g>
		<g>
			<path class="st1" d="M151.1,51c0.5,0,0.5-0.7,0-0.7C150.7,50.3,150.7,51,151.1,51z"/>
		</g>
		<g>
			<path class="st1" d="M163.9,65.8c0.5,0,0.5-0.7,0-0.7C163.5,65.1,163.5,65.8,163.9,65.8z"/>
		</g>
		<g>
			<path class="st1" d="M166.9,60.9c0.5,0,0.5-0.7,0-0.7C166.5,60.2,166.5,60.9,166.9,60.9z"/>
		</g>
		<g>
			<path class="st1" d="M172.6,66.4c0.5,0,0.5-0.7,0-0.7C172.1,65.8,172.1,66.4,172.6,66.4z"/>
		</g>
		<g>
			<path class="st1" d="M171.7,108.8c0.5,0,0.5-0.7,0-0.7C171.2,108.1,171.2,108.8,171.7,108.8z"/>
		</g>
		<g>
			<path class="st1" d="M148.2,95.7c0.5,0,0.5-0.7,0-0.7S147.7,95.7,148.2,95.7z"/>
		</g>
		<g>
			<path class="st1" d="M125.3,102.1c0.5,0,0.5-0.7,0-0.7S124.8,102.1,125.3,102.1z"/>
		</g>
		<g>
			<path class="st1" d="M128.5,113.5c0.5,0,0.5-0.7,0-0.7C128.1,112.8,128,113.5,128.5,113.5z"/>
		</g>
		<g>
			<path class="st1" d="M120.5,117.6c0.5,0,0.5-0.7,0-0.7S120,117.6,120.5,117.6z"/>
		</g>
		<g>
			<path class="st1" d="M125,127.2c0.5,0,0.5-0.7,0-0.7S124.5,127.2,125,127.2z"/>
		</g>
		<g>
			<path class="st1" d="M124.3,132.7c0.5,0,0.5-0.7,0-0.7C123.9,132.1,123.9,132.7,124.3,132.7z"/>
		</g>
		<g>
			<path class="st1" d="M148.2,111.7c0.5,0,0.5-0.7,0-0.7S147.7,111.7,148.2,111.7z"/>
		</g>
		<g>
			<path class="st1" d="M138.3,85.4c0.5,0,0.5-0.7,0-0.7C137.9,84.7,137.9,85.4,138.3,85.4z"/>
		</g>
		<g>
			<path class="st1" d="M120.5,69.4c0.5,0,0.5-0.7,0-0.7C120,68.7,120,69.4,120.5,69.4z"/>
		</g>
		<g>
			<path class="st1" d="M108.3,79.9c0.5,0,0.5-0.7,0-0.7S107.8,79.9,108.3,79.9z"/>
		</g>
		<g>
			<path class="st1" d="M115.4,81.6c0.5,0,0.5-0.7,0-0.7S114.9,81.6,115.4,81.6z"/>
		</g>
		<g>
			<path class="st1" d="M88.6,98.3c0.5,0,0.5-0.7,0-0.7C88.1,97.6,88.1,98.3,88.6,98.3z"/>
		</g>
		<g>
			<path class="st1" d="M77.6,95.7c0.5,0,0.5-0.7,0-0.7C77.2,95,77.1,95.7,77.6,95.7z"/>
		</g>
		<g>
			<path class="st1" d="M56.7,98.3c0.5,0,0.5-0.7,0-0.7C56.3,97.6,56.3,98.3,56.7,98.3z"/>
		</g>
		<g>
			<path class="st1" d="M61.8,109.7c0.5,0,0.5-0.7,0-0.7C61.4,109,61.4,109.7,61.8,109.7z"/>
		</g>
		<g>
			<path class="st1" d="M49,105.9c0.5,0,0.5-0.7,0-0.7C48.5,105.2,48.5,105.9,49,105.9z"/>
		</g>
		<g>
			<path class="st1" d="M24.6,97.4c0.5,0,0.5-0.7,0-0.7C24.1,96.7,24.1,97.4,24.6,97.4z"/>
		</g>
		<g>
			<path class="st1" d="M46,117.9c0.5,0,0.5-0.7,0-0.7S45.6,117.9,46,117.9z"/>
		</g>
		<g>
			<path class="st1" d="M57.7,120.2c0.5,0,0.5-0.7,0-0.7S57.2,120.2,57.7,120.2z"/>
		</g>
		<g>
			<path class="st1" d="M79,120.2c0.5,0,0.5-0.7,0-0.7C78.6,119.5,78.6,120.2,79,120.2z"/>
		</g>
		<g>
			<path class="st1" d="M61.8,136c0.5,0,0.5-0.7,0-0.7C61.4,135.3,61.4,136,61.8,136z"/>
		</g>
		<g>
			<path class="st1" d="M84.4,145.6c0.5,0,0.5-0.7,0-0.7C84,144.9,84,145.6,84.4,145.6z"/>
		</g>
		<g>
			<path class="st1" d="M105.3,129.8c0.5,0,0.5-0.7,0-0.7S104.8,129.8,105.3,129.8z"/>
		</g>
		<g>
			<path class="st1" d="M101.1,113.5c0.5,0,0.5-0.7,0-0.7C100.7,112.8,100.7,113.5,101.1,113.5z"/>
		</g>
		<g>
			<path class="st1" d="M186.9,47.6c0.5,0,0.5-0.7,0-0.7C186.4,46.9,186.4,47.6,186.9,47.6z"/>
		</g>
		<g>
			<path class="st1" d="M190.9,41.4c0.5,0,0.5-0.7,0-0.7C190.5,40.8,190.5,41.4,190.9,41.4z"/>
		</g>
		<g>
			<path class="st1" d="M172.6,45.8c0.5,0,0.5-0.7,0-0.7S172.1,45.8,172.6,45.8z"/>
		</g>
		<g>
			<path class="st1" d="M178,59c0.5,0,0.5-0.7,0-0.7S177.5,59,178,59z"/>
		</g>
		<g>
			<path class="st1" d="M193.2,60.7c0.5,0,0.5-0.7,0-0.7S192.7,60.7,193.2,60.7z"/>
		</g>
	</g>
	<g>
		<g>
			<path class="st2" d="M102.5,26.3c0.6,0,0.7-1,0-1S101.8,26.3,102.5,26.3z"/>
		</g>
		<g>
			<path class="st2" d="M109.3,36c0.6,0,0.7-1,0-1C108.7,34.9,108.7,36,109.3,36z"/>
		</g>
		<g>
			<path class="st2" d="M67.4,38.6c0.6,0,0.7-1,0-1C66.7,37.5,66.7,38.6,67.4,38.6z"/>
		</g>
		<g>
			<path class="st2" d="M115,5.9c0.6,0,0.7-1,0-1C114.4,4.8,114.4,5.9,115,5.9z"/>
		</g>
		<g>
			<path class="st2" d="M143.3,4.7c0.6,0,0.7-1,0-1C142.7,3.7,142.7,4.7,143.3,4.7z"/>
		</g>
		<g>
			<path class="st2" d="M157.6,25.5c0.6,0,0.7-1,0-1C156.9,24.4,156.9,25.5,157.6,25.5z"/>
		</g>
		<g>
			<path class="st2" d="M40,90.9c0.6,0,0.7-1,0-1S39.3,90.9,40,90.9z"/>
		</g>
		<g>
			<path class="st2" d="M0.9,75.4c0.6,0,0.7-1,0-1S0.2,75.4,0.9,75.4z"/>
		</g>
		<g>
			<path class="st2" d="M11.7,107.2L11.7,107.2L11.7,107.2z"/>
		</g>
		<g>
			<path class="st2" d="M29.1,113.4c0.6,0,0.7-1,0-1S28.4,113.4,29.1,113.4z"/>
		</g>
		<g>
			<path class="st2" d="M16.2,104.2c0.6,0,0.7-1,0-1C15.4,103.1,15.4,104.2,16.2,104.2z"/>
		</g>
		<g>
			<path class="st2" d="M46,127c0.6,0,0.7-1,0-1C45.4,126,45.4,127,46,127z"/>
		</g>
		<g>
			<path class="st2" d="M144.8,78.8c0.6,0,0.7-1,0-1C144.1,77.7,144.1,78.8,144.8,78.8z"/>
		</g>
	</g>
	<g>
		<g>
			<path class="st3" d="M174.8,25.2c0.5,0,0.5-0.7,0-0.7C174.4,24.5,174.4,25.2,174.8,25.2z"/>
		</g>
		<g>
			<path class="st3" d="M155.1,49.6c0.5,0,0.5-0.7,0-0.7C154.6,48.9,154.6,49.6,155.1,49.6z"/>
		</g>
		<g>
			<path class="st3" d="M34.2,19L34.2,19L34.2,19z"/>
		</g>
		<g>
			<path class="st3" d="M37.9,39.3L37.9,39.3L37.9,39.3z"/>
		</g>
		<g>
			<path class="st3" d="M111.9,73.3c0.5,0,0.5-0.7,0-0.7C111.5,72.6,111.4,73.3,111.9,73.3z"/>
		</g>
		<g>
			<path class="st3" d="M49.2,52.3c0.5,0,0.5-0.7,0-0.7S48.8,52.3,49.2,52.3z"/>
		</g>
		<g>
			<path class="st3" d="M189.3,89.9c0.5,0,0.5-0.7,0-0.7C188.9,89.2,188.9,89.9,189.3,89.9z"/>
		</g>
		<g>
			<path class="st3" d="M121.6,0.2c0.5,0,0.5-0.7,0-0.7C121.2-0.4,121.2,0.2,121.6,0.2z"/>
		</g>
		<g>
			<path class="st3" d="M106.8,19.1c0.5,0,0.5-0.7,0-0.7C106.4,18.4,106.4,19.1,106.8,19.1z"/>
		</g>
		<g>
			<path class="st3" d="M87.2,3.5c0.5,0,0.5-0.7,0-0.7C86.8,2.9,86.8,3.5,87.2,3.5z"/>
		</g>
		<g>
			<path class="st3" d="M76.5,12.2c0.5,0,0.5-0.7,0-0.7S76,12.2,76.5,12.2z"/>
		</g>
		<g>
			<path class="st3" d="M7.7-8.1c0.5,0,0.5-0.7,0-0.7S7.2-8.1,7.7-8.1z"/>
		</g>
		<g>
			<path class="st3" d="M13.6,91c0.5,0,0.5-0.7,0-0.7S13.1,91,13.6,91z"/>
		</g>
		<g>
			<path class="st3" d="M75.7,117.5c0.5,0,0.5-0.7,0-0.7C75.3,116.8,75.3,117.5,75.7,117.5z"/>
		</g>
		<g>
			<path class="st3" d="M86.8,136.4c0.5,0,0.5-0.7,0-0.7C86.4,135.7,86.4,136.4,86.8,136.4z"/>
		</g>
		<g>
			<path class="st3" d="M164.6,131.3c0.5,0,0.5-0.7,0-0.7S164.1,131.3,164.6,131.3z"/>
		</g>
		<g>
			<path class="st3" d="M168.6,130.9c0.5,0,0.5-0.7,0-0.7C168.2,130.2,168.2,130.9,168.6,130.9z"/>
		</g>
		<g>
			<path class="st3" d="M174.5,107L174.5,107L174.5,107z"/>
		</g>
		<g>
			<path class="st3" d="M142.7,121.1c0.5,0,0.5-0.7,0-0.7C142.3,120.5,142.3,121.1,142.7,121.1z"/>
		</g>
		<g>
			<path class="st3" d="M135.3,134.9c0.5,0,0.5-0.7,0-0.7S134.9,134.9,135.3,134.9z"/>
		</g>
		<g>
			<path class="st3" d="M119.8,112.4c0.5,0,0.5-0.7,0-0.7C119.3,111.7,119.3,112.4,119.8,112.4z"/>
		</g>
		<g>
			<path class="st3" d="M147.2,58.7c0.5,0,0.5-0.7,0-0.7S146.7,58.7,147.2,58.7z"/>
		</g>
		<g>
			<path class="st3" d="M120.5,39.5c0.5,0,0.5-0.7,0-0.7S120.1,39.5,120.5,39.5z"/>
		</g>
		<g>
			<path class="st3" d="M148.3,2c0.5,0,0.5-0.7,0-0.7S147.8,2,148.3,2z"/>
		</g>
		<g>
			<path class="st3" d="M184.9-11c0.5,0,0.5-0.7,0-0.7S184.4-11,184.9-11z"/>
		</g>
		<g>
			<path class="st3" d="M18.4,21c0.5,0,0.5-0.7,0-0.7S17.9,21,18.4,21z"/>
		</g>
		<g>
			<path class="st3" d="M13.2,44.5c0.5,0,0.5-0.7,0-0.7C12.7,43.9,12.7,44.5,13.2,44.5z"/>
		</g>
		<g>
			<path class="st3" d="M29.9,66.3c0.5,0,0.5-0.7,0-0.7C29.4,65.7,29.4,66.3,29.9,66.3z"/>
		</g>
		<g>
			<path class="st3" d="M66.1,62.7c0.5,0,0.5-0.7,0-0.7C65.7,62,65.7,62.7,66.1,62.7z"/>
		</g>
		<g>
			<path class="st3" d="M71.7,36.6c0.5,0,0.5-0.7,0-0.7C71.2,35.9,71.2,36.6,71.7,36.6z"/>
		</g>
		<g>
			<path class="st3" d="M46.9,15.1c0.5,0,0.5-0.7,0-0.7C46.5,14.4,46.5,15.1,46.9,15.1z"/>
		</g>
		<g>
			<path class="st3" d="M38.7-1.9c0.5,0,0.5-0.7,0-0.7C38.3-2.6,38.3-1.9,38.7-1.9z"/>
		</g>
		<g>
			<path class="st3" d="M8.4,128.7c0.5,0,0.5-0.7,0-0.7C8,128.1,8,128.7,8.4,128.7z"/>
		</g>
		<g>
			<path class="st3" d="M56.5,97.5c0.5,0,0.5-0.7,0-0.7C56.1,96.8,56.1,97.5,56.5,97.5z"/>
		</g>
		<g>
			<path class="st3" d="M89.1,78.3c0.5,0,0.5-0.7,0-0.7C88.6,77.6,88.6,78.3,89.1,78.3z"/>
		</g>
		<g>
			<path class="st3" d="M141.6,84.1c0.5,0,0.5-0.7,0-0.7C141.2,83.4,141.2,84.1,141.6,84.1z"/>
		</g>
		<g>
			<path class="st3" d="M163.8,66.7c0.5,0,0.5-0.7,0-0.7S163.3,66.7,163.8,66.7z"/>
		</g>
		<g>
			<path class="st3" d="M152,96.1c0.5,0,0.5-0.7,0-0.7C151.6,95.4,151.6,96.1,152,96.1z"/>
		</g>
		<g>
			<path class="st3" d="M150.5,80.1c0.5,0,0.5-0.7,0-0.7S150,80.1,150.5,80.1z"/>
		</g>
		<g>
			<path class="st3" d="M178.3,120.8c0.5,0,0.5-0.7,0-0.7S177.8,120.8,178.3,120.8z"/>
		</g>
		<g>
			<path class="st3" d="M162,119c0.5,0,0.5-0.7,0-0.7S161.5,119,162,119z"/>
		</g>
		<g>
			<path class="st3" d="M191.6,72.8c0.5,0,0.5-0.7,0-0.7C191.1,72.2,191.1,72.8,191.6,72.8z"/>
		</g>
		<g>
			<path class="st3" d="M120.9,51.1c0.5,0,0.5-0.7,0-0.7C120.4,50.4,120.4,51.1,120.9,51.1z"/>
		</g>
		<g>
			<path class="st3" d="M139.1,23.5c0.5,0,0.5-0.7,0-0.7S138.6,23.5,139.1,23.5z"/>
		</g>
		<g>
			<path class="st3" d="M98.3-8.8c0.5,0,0.5-0.7,0-0.7C97.9-9.5,97.9-8.8,98.3-8.8z"/>
		</g>
		<g>
			<path class="st3" d="M83.5,36.9c0.5,0,0.5-0.7,0-0.7C83.1,36.2,83.1,36.9,83.5,36.9z"/>
		</g>
		<g>
			<path class="st3" d="M30.2,27.8c0.5,0,0.5-0.7,0-0.7C29.8,27.1,29.8,27.8,30.2,27.8z"/>
		</g>
		<g>
			<path class="st3" d="M15.1-16.5c0.5,0,0.5-0.7,0-0.7S14.6-16.5,15.1-16.5z"/>
		</g>
		<g>
			<path class="st3" d="M196.8,104.9c0.5,0,0.5-0.7,0-0.7S196.3,104.9,196.8,104.9z"/>
		</g>
		<g>
			<path class="st3" d="M188.2,137.2C188.3,137.2,188.3,137.2,188.2,137.2L188.2,137.2z"/>
		</g>
		<g>
			<path class="st3" d="M197.5,155.1c0.5,0,0.5-0.7,0-0.7C197.1,154.4,197.1,155.1,197.5,155.1z"/>
		</g>
		<g>
			<path class="st3" d="M182,143c0.5,0,0.5-0.7,0-0.7S181.5,143,182,143z"/>
		</g>
		<g>
			<path class="st3" d="M163.7-11.9c0.5,0,0.5-0.7,0-0.7C163.2-12.6,163.2-11.9,163.7-11.9z"/>
		</g>
		<g>
			<path class="st3" d="M155.2,20.4L155.2,20.4L155.2,20.4z"/>
		</g>
		<g>
			<path class="st3" d="M172.9,9.5c0.5,0,0.5-0.7,0-0.7C172.5,8.8,172.5,9.5,172.9,9.5z"/>
		</g>
		<g>
			<path class="st3" d="M184.4,28.4c0.5,0,0.5-0.7,0-0.7C184,27.7,184,28.4,184.4,28.4z"/>
		</g>
		<g>
			<path class="st3" d="M164.5,38.2c0.5,0,0.5-0.7,0-0.7S164,38.2,164.5,38.2z"/>
		</g>
		<g>
			<path class="st3" d="M148.9,26.2c0.5,0,0.5-0.7,0-0.7S148.4,26.2,148.9,26.2z"/>
		</g>
		<g>
			<path class="st3" d="M10.1,64.3c0.5,0,0.5-0.7,0-0.7C9.7,63.6,9.7,64.3,10.1,64.3z"/>
		</g>
		<g>
			<path class="st3" d="M-0.6,73.1c0.5,0,0.5-0.7,0-0.7C-1,72.4-1.1,73.1-0.6,73.1z"/>
		</g>
		<g>
			<path class="st3" d="M-1.3,178.3c0.5,0,0.5-0.7,0-0.7S-1.8,178.3-1.3,178.3z"/>
		</g>
		<g>
			<path class="st3" d="M12,139.1c0.5,0,0.5-0.7,0-0.7C11.6,138.4,11.6,139.1,12,139.1z"/>
		</g>
		<g>
			<path class="st3" d="M21.3,52c0.5,0,0.5-0.7,0-0.7S20.8,52,21.3,52z"/>
		</g>
		<g>
			<path class="st3" d="M6.4,97.7c0.5,0,0.5-0.7,0-0.7C6,97.1,6,97.7,6.4,97.7z"/>
		</g>
		<g>
			<path class="st3" d="M190.2,82.1L190.2,82.1L190.2,82.1z"/>
		</g>
		<g>
			<path class="st3" d="M193.9,102.5L193.9,102.5L193.9,102.5z"/>
		</g>
		<g>
			<path class="st3" d="M137,97.1c0.5,0,0.5-0.7,0-0.7S136.5,97.1,137,97.1z"/>
		</g>
		<g>
			<path class="st3" d="M145.1,137.8c0.5,0,0.5-0.7,0-0.7C144.7,137.1,144.7,137.8,145.1,137.8z"/>
		</g>
		<g>
			<path class="st3" d="M163.6,55c0.5,0,0.5-0.7,0-0.7S163.2,55,163.6,55z"/>
		</g>
		<g>
			<path class="st3" d="M87.1,52.5c0.5,0,0.5-0.7,0-0.7S86.6,52.5,87.1,52.5z"/>
		</g>
		<g>
			<path class="st3" d="M78.5,84.8L78.5,84.8L78.5,84.8z"/>
		</g>
		<g>
			<path class="st3" d="M84.1,134.9c0.5,0,0.5-0.7,0-0.7S83.6,134.9,84.1,134.9z"/>
		</g>
		<g>
			<path class="st3" d="M169.5,154.1c0.5,0,0.5-0.7,0-0.7C169.1,153.4,169.1,154.1,169.5,154.1z"/>
		</g>
		<g>
			<path class="st3" d="M174.4,84c0.5,0,0.5-0.7,0-0.7S173.9,84,174.4,84z"/>
		</g>
		<g>
			<path class="st3" d="M169.2,107.6c0.5,0,0.5-0.7,0-0.7C168.8,106.9,168.7,107.6,169.2,107.6z"/>
		</g>
		<g>
			<path class="st3" d="M185.9,129.4c0.5,0,0.5-0.7,0-0.7S185.4,129.4,185.9,129.4z"/>
		</g>
		<g>
			<path class="st3" d="M194.7,61.2c0.5,0,0.5-0.7,0-0.7C194.3,60.5,194.3,61.2,194.7,61.2z"/>
		</g>
		<g>
			<path class="st3" d="M138.8,67.7c0.5,0,0.5-0.7,0-0.7C138.4,67,138.4,67.7,138.8,67.7z"/>
		</g>
		<g>
			<path class="st3" d="M149.5,96.4c0.5,0,0.5-0.7,0-0.7C149.1,95.7,149.1,96.4,149.5,96.4z"/>
		</g>
		<g>
			<path class="st3" d="M134.4,79.4c0.5,0,0.5-0.7,0-0.7C133.9,78.7,133.9,79.4,134.4,79.4z"/>
		</g>
		<g>
			<path class="st3" d="M118.8,54.7c0.5,0,0.5-0.7,0-0.7C118.4,54,118.4,54.7,118.8,54.7z"/>
		</g>
		<g>
			<path class="st3" d="M96.3,73.9c0.5,0,0.5-0.7,0-0.7C95.8,73.2,95.8,73.9,96.3,73.9z"/>
		</g>
		<g>
			<path class="st3" d="M107.8,92.8c0.5,0,0.5-0.7,0-0.7C107.3,92.1,107.3,92.8,107.8,92.8z"/>
		</g>
		<g>
			<path class="st3" d="M112.9,128c0.5,0,0.5-0.7,0-0.7C112.5,127.3,112.5,128,112.9,128z"/>
		</g>
		<g>
			<path class="st3" d="M86.7,150.1c0.5,0,0.5-0.7,0-0.7C86.2,149.4,86.2,150.1,86.7,150.1z"/>
		</g>
		<g>
			<path class="st3" d="M63,141.8c0.5,0,0.5-0.7,0-0.7S62.5,141.8,63,141.8z"/>
		</g>
		<g>
			<path class="st3" d="M57.8,100.4c0.5,0,0.5-0.7,0-0.7S57.4,100.4,57.8,100.4z"/>
		</g>
		<g>
			<path class="st3" d="M78.5,115.6c0.5,0,0.5-0.7,0-0.7S78,115.6,78.5,115.6z"/>
		</g>
		<g>
			<path class="st3" d="M87.8,102.5c0.5,0,0.5-0.7,0-0.7C87.3,101.9,87.3,102.5,87.8,102.5z"/>
		</g>
		<g>
			<path class="st3" d="M72.2,90.6c0.5,0,0.5-0.7,0-0.7C71.8,89.9,71.8,90.6,72.2,90.6z"/>
		</g>
		<g>
			<path class="st3" d="M54.1,49.2c0.5,0,0.5-0.7,0-0.7S53.6,49.2,54.1,49.2z"/>
		</g>
		<g>
			<path class="st3" d="M49.6,73.9C49.7,73.9,49.7,73.9,49.6,73.9L49.6,73.9z"/>
		</g>
		<g>
			<path class="st3" d="M109.2,154.5c0.5,0,0.5-0.7,0-0.7C108.8,153.8,108.8,154.5,109.2,154.5z"/>
		</g>
		<g>
			<path class="st3" d="M142.9,178.1c0.5,0,0.5-0.7,0-0.7C142.5,177.4,142.5,178.1,142.9,178.1z"/>
		</g>
		<g>
			<path class="st3" d="M141.1,191.9c0.5,0,0.5-0.7,0-0.7S140.6,191.9,141.1,191.9z"/>
		</g>
		<g>
			<path class="st3" d="M117.8,184.3L117.8,184.3L117.8,184.3z"/>
		</g>
		<g>
			<path class="st3" d="M164.4,191.9c0.5,0,0.5-0.7,0-0.7S163.9,191.9,164.4,191.9z"/>
		</g>
		<g>
			<path class="st3" d="M186.2,91c0.5,0,0.5-0.7,0-0.7S185.7,91,186.2,91z"/>
		</g>
		<g>
			<path class="st3" d="M171.1,46.7c0.5,0,0.5-0.7,0-0.7S170.6,46.7,171.1,46.7z"/>
		</g>
		<g>
			<path class="st3" d="M125.1,48.5c0.5,0,0.5-0.7,0-0.7C124.7,47.8,124.7,48.5,125.1,48.5z"/>
		</g>
		<g>
			<path class="st3" d="M72.4,40.8L72.4,40.8C72.3,40.8,72.3,40.8,72.4,40.8z"/>
		</g>
		<g>
			<path class="st3" d="M76,61.1L76,61.1L76,61.1z"/>
		</g>
		<g>
			<path class="st3" d="M87.4,74.1c0.5,0,0.5-0.7,0-0.7S86.9,74.1,87.4,74.1z"/>
		</g>
		<g>
			<path class="st3" d="M19.2,55.8c0.5,0,0.5-0.7,0-0.7S18.7,55.8,19.2,55.8z"/>
		</g>
		<g>
			<path class="st3" d="M27.4,96.5c0.5,0,0.5-0.7,0-0.7S26.9,96.5,27.4,96.5z"/>
		</g>
		<g>
			<path class="st3" d="M125.4,25.3c0.5,0,0.5-0.7,0-0.7C125,24.6,125,25.3,125.4,25.3z"/>
		</g>
		<g>
			<path class="st3" d="M114.7,34c0.5,0,0.5-0.7,0-0.7S114.2,34,114.7,34z"/>
		</g>
		<g>
			<path class="st3" d="M45.9,13.7c0.5,0,0.5-0.7,0-0.7S45.4,13.7,45.9,13.7z"/>
		</g>
		<g>
			<path class="st3" d="M51.8,112.8c0.5,0,0.5-0.7,0-0.7C51.3,112.1,51.3,112.8,51.8,112.8z"/>
		</g>
		<g>
			<path class="st3" d="M113.9,139.3c0.5,0,0.5-0.7,0-0.7C113.5,138.6,113.5,139.3,113.9,139.3z"/>
		</g>
		<g>
			<path class="st3" d="M125,158.2c0.5,0,0.5-0.7,0-0.7C124.6,157.5,124.6,158.2,125,158.2z"/>
		</g>
		<g>
			<path class="st3" d="M56.6,42.8c0.5,0,0.5-0.7,0-0.7S56.1,42.8,56.6,42.8z"/>
		</g>
		<g>
			<path class="st3" d="M51.4,66.3c0.5,0,0.5-0.7,0-0.7S50.9,66.3,51.4,66.3z"/>
		</g>
		<g>
			<path class="st3" d="M68,88.1c0.5,0,0.5-0.7,0-0.7C67.6,87.4,67.6,88.1,68,88.1z"/>
		</g>
		<g>
			<path class="st3" d="M104.3,84.5c0.5,0,0.5-0.7,0-0.7C103.9,83.8,103.9,84.5,104.3,84.5z"/>
		</g>
		<g>
			<path class="st3" d="M109.9,58.4c0.5,0,0.5-0.7,0-0.7S109.4,58.4,109.9,58.4z"/>
		</g>
		<g>
			<path class="st3" d="M85.1,36.9c0.5,0,0.5-0.7,0-0.7S84.6,36.9,85.1,36.9z"/>
		</g>
		<g>
			<path class="st3" d="M76.9,19.9c0.5,0,0.5-0.7,0-0.7C76.5,19.2,76.5,19.9,76.9,19.9z"/>
		</g>
		<g>
			<path class="st3" d="M21,26.4c0.5,0,0.5-0.7,0-0.7C20.6,25.7,20.6,26.4,21,26.4z"/>
		</g>
		<g>
			<path class="st3" d="M31.8,55.1c0.5,0,0.5-0.7,0-0.7S31.3,55.1,31.8,55.1z"/>
		</g>
		<g>
			<path class="st3" d="M16.6,38c0.5,0,0.5-0.7,0-0.7C16.2,37.3,16.2,38,16.6,38z"/>
		</g>
		<g>
			<path class="st3" d="M1.1,13.3c0.5,0,0.5-0.7,0-0.7S0.6,13.3,1.1,13.3z"/>
		</g>
		<g>
			<path class="st3" d="M25.1,136.8c0.5,0,0.5-0.7,0-0.7S24.6,136.8,25.1,136.8z"/>
		</g>
		<g>
			<path class="st3" d="M23.3,150.5c0.5,0,0.5-0.7,0-0.7C22.8,149.9,22.8,150.5,23.3,150.5z"/>
		</g>
		<g>
			<path class="st3" d="M-0.1,143L-0.1,143L-0.1,143z"/>
		</g>
		<g>
			<path class="st3" d="M46.6,150.5c0.5,0,0.5-0.7,0-0.7C46.1,149.9,46.1,150.5,46.6,150.5z"/>
		</g>
		<g>
			<path class="st3" d="M94.7,119.3c0.5,0,0.5-0.7,0-0.7C94.3,118.6,94.3,119.3,94.7,119.3z"/>
		</g>
		<g>
			<path class="st3" d="M127.3,100.1c0.5,0,0.5-0.7,0-0.7S126.8,100.1,127.3,100.1z"/>
		</g>
		<g>
			<path class="st3" d="M136.5,13c0.5,0,0.5-0.7,0-0.7S136,13,136.5,13z"/>
		</g>
		<g>
			<path class="st3" d="M121.7,58.7c0.5,0,0.5-0.7,0-0.7S121.3,58.7,121.7,58.7z"/>
		</g>
		<g>
			<path class="st3" d="M68.4,49.6c0.5,0,0.5-0.7,0-0.7C68,48.9,68,49.6,68.4,49.6z"/>
		</g>
		<g>
			<path class="st3" d="M184.6-0.4L184.6-0.4L184.6-0.4z"/>
		</g>
		<g>
			<path class="st3" d="M188.3,20L188.3,20L188.3,20z"/>
		</g>
		<g>
			<path class="st3" d="M164,71.6c0.5,0,0.5-0.7,0-0.7C163.6,70.9,163.6,71.6,164,71.6z"/>
		</g>
		<g>
			<path class="st3" d="M168.8,1.6c0.5,0,0.5-0.7,0-0.7C168.4,0.9,168.4,1.6,168.8,1.6z"/>
		</g>
		<g>
			<path class="st3" d="M163.6,25.2c0.5,0,0.5-0.7,0-0.7C163.2,24.5,163.2,25.2,163.6,25.2z"/>
		</g>
		<g>
			<path class="st3" d="M180.3,46.9c0.5,0,0.5-0.7,0-0.7S179.8,46.9,180.3,46.9z"/>
		</g>
		<g>
			<path class="st3" d="M180.7,8.5c0.5,0,0.5-0.7,0-0.7S180.2,8.5,180.7,8.5z"/>
		</g>
		<g>
			<path class="st3" d="M162.4,119.7c0.5,0,0.5-0.7,0-0.7C162,119,162,119.7,162.4,119.7z"/>
		</g>
		<g>
			<path class="st3" d="M171.7,32.6c0.5,0,0.5-0.7,0-0.7C171.2,31.9,171.2,32.6,171.7,32.6z"/>
		</g>
		<g>
			<path class="st3" d="M169.6,36.4c0.5,0,0.5-0.7,0-0.7C169.2,35.7,169.2,36.4,169.6,36.4z"/>
		</g>
		<g>
			<path class="st3" d="M177.8,77c0.5,0,0.5-0.7,0-0.7C177.3,76.4,177.3,77,177.8,77z"/>
		</g>
		<g>
			<path class="st3" d="M171.5,7c0.5,0,0.5-0.7,0-0.7S171,7,171.5,7z"/>
		</g>
		<g>
			<path class="st3" d="M182.2,35.7c0.5,0,0.5-0.7,0-0.7S181.7,35.7,182.2,35.7z"/>
		</g>
		<g>
			<path class="st3" d="M167,18.6c0.5,0,0.5-0.7,0-0.7C166.6,17.9,166.6,18.6,167,18.6z"/>
		</g>
		<g>
			<path class="st3" d="M175.5,117.4c0.5,0,0.5-0.7,0-0.7S175.1,117.4,175.5,117.4z"/>
		</g>
		<g>
			<path class="st3" d="M173.7,131.2c0.5,0,0.5-0.7,0-0.7S173.2,131.2,173.7,131.2z"/>
		</g>
		<g>
			<path class="st3" d="M197,131.2c0.5,0,0.5-0.7,0-0.7S196.5,131.2,197,131.2z"/>
		</g>
		<g>
			<path class="st3" d="M22.3,39.6C22.3,39.6,22.3,39.5,22.3,39.6C22.3,39.5,22.3,39.6,22.3,39.6z"/>
		</g>
		<g>
			<path class="st3" d="M26.1,59.9L26.1,59.9L26.1,59.9z"/>
		</g>
		<g>
			<path class="st3" d="M100.1,93.9c0.5,0,0.5-0.7,0-0.7C99.6,93.2,99.6,93.9,100.1,93.9z"/>
		</g>
		<g>
			<path class="st3" d="M37.4,72.8c0.5,0,0.5-0.7,0-0.7C37,72.1,37,72.8,37.4,72.8z"/>
		</g>
		<g>
			<path class="st3" d="M95,39.6c0.5,0,0.5-0.7,0-0.7C94.6,38.9,94.6,39.6,95,39.6z"/>
		</g>
		<g>
			<path class="st3" d="M1.8,111.5c0.5,0,0.5-0.7,0-0.7S1.3,111.5,1.8,111.5z"/>
		</g>
		<g>
			<path class="st3" d="M63.9,138.1c0.5,0,0.5-0.7,0-0.7C63.5,137.4,63.5,138.1,63.9,138.1z"/>
		</g>
		<g>
			<path class="st3" d="M75,156.9c0.5,0,0.5-0.7,0-0.7C74.6,156.2,74.6,156.9,75,156.9z"/>
		</g>
		<g>
			<path class="st3" d="M108,133c0.5,0,0.5-0.7,0-0.7S107.5,133,108,133z"/>
		</g>
		<g>
			<path class="st3" d="M108.7,60c0.5,0,0.5-0.7,0-0.7S108.2,60,108.7,60z"/>
		</g>
		<g>
			<path class="st3" d="M6.5,41.5c0.5,0,0.5-0.7,0-0.7C6.1,40.8,6.1,41.5,6.5,41.5z"/>
		</g>
		<g>
			<path class="st3" d="M1.4,65.1c0.5,0,0.5-0.7,0-0.7S0.9,65.1,1.4,65.1z"/>
		</g>
		<g>
			<path class="st3" d="M18,86.8c0.5,0,0.5-0.7,0-0.7C17.6,86.1,17.6,86.8,18,86.8z"/>
		</g>
		<g>
			<path class="st3" d="M54.3,83.2c0.5,0,0.5-0.7,0-0.7C53.9,82.5,53.9,83.2,54.3,83.2z"/>
		</g>
		<g>
			<path class="st3" d="M59.8,57.1c0.5,0,0.5-0.7,0-0.7C59.4,56.4,59.4,57.1,59.8,57.1z"/>
		</g>
		<g>
			<path class="st3" d="M44.7,118c0.5,0,0.5-0.7,0-0.7C44.2,117.4,44.2,118,44.7,118z"/>
		</g>
		<g>
			<path class="st3" d="M77.2,98.8c0.5,0,0.5-0.7,0-0.7C76.8,98.2,76.8,98.8,77.2,98.8z"/>
		</g>
		<g>
			<path class="st3" d="M109.1,71.6c0.5,0,0.5-0.7,0-0.7S108.6,71.6,109.1,71.6z"/>
		</g>
		<g>
			<path class="st3" d="M71.7,57.4c0.5,0,0.5-0.7,0-0.7C71.3,56.7,71.3,57.4,71.7,57.4z"/>
		</g>
		<g>
			<path class="st3" d="M18.4,48.4c0.5,0,0.5-0.7,0-0.7C18,47.7,18,48.4,18.4,48.4z"/>
		</g>
		<g>
			<path class="st3" d="M0.2,159.6c0.5,0,0.5-0.7,0-0.7C-0.3,158.9-0.3,159.6,0.2,159.6z"/>
		</g>
		<g>
			<path class="st3" d="M9.4,72.5c0.5,0,0.5-0.7,0-0.7C9,71.8,9,72.5,9.4,72.5z"/>
		</g>
		<g>
			<path class="st3" d="M75.2,73c0.5,0,0.5-0.7,0-0.7S74.7,73,75.2,73z"/>
		</g>
		<g>
			<path class="st3" d="M66.7,105.3L66.7,105.3L66.7,105.3z"/>
		</g>
		<g>
			<path class="st3" d="M72.3,155.4c0.5,0,0.5-0.7,0-0.7S71.8,155.4,72.3,155.4z"/>
		</g>
		<g>
			<path class="st3" d="M107,75.2c0.5,0,0.5-0.7,0-0.7C106.6,74.5,106.6,75.2,107,75.2z"/>
		</g>
		<g>
			<path class="st3" d="M84.5,94.4c0.5,0,0.5-0.7,0-0.7C84,93.7,84,94.4,84.5,94.4z"/>
		</g>
		<g>
			<path class="st3" d="M95.9,113.3c0.5,0,0.5-0.7,0-0.7C95.5,112.6,95.5,113.3,95.9,113.3z"/>
		</g>
		<g>
			<path class="st3" d="M101.1,148.5c0.5,0,0.5-0.7,0-0.7C100.7,147.8,100.7,148.5,101.1,148.5z"/>
		</g>
		<g>
			<path class="st3" d="M74.9,170.7c0.5,0,0.5-0.7,0-0.7S74.4,170.7,74.9,170.7z"/>
		</g>
		<g>
			<path class="st3" d="M51.2,162.3c0.5,0,0.5-0.7,0-0.7S50.7,162.3,51.2,162.3z"/>
		</g>
		<g>
			<path class="st3" d="M46,120.9c0.5,0,0.5-0.7,0-0.7C45.5,120.2,45.5,120.9,46,120.9z"/>
		</g>
		<g>
			<path class="st3" d="M66.7,136.1c0.5,0,0.5-0.7,0-0.7S66.3,136.1,66.7,136.1z"/>
		</g>
		<g>
			<path class="st3" d="M76,123.1c0.5,0,0.5-0.7,0-0.7S75.5,123.1,76,123.1z"/>
		</g>
		<g>
			<path class="st3" d="M60.4,111.1c0.5,0,0.5-0.7,0-0.7S59.9,111.1,60.4,111.1z"/>
		</g>
		<g>
			<path class="st3" d="M42.3,69.7c0.5,0,0.5-0.7,0-0.7C41.9,69.1,41.9,69.7,42.3,69.7z"/>
		</g>
		<g>
			<path class="st3" d="M37.8,94.5L37.8,94.5L37.8,94.5z"/>
		</g>
		<g>
			<path class="st3" d="M97.4,175c0.5,0,0.5-0.7,0-0.7C97,174.3,97,175,97.4,175z"/>
		</g>
		<g>
			<path class="st3" d="M105.9,204.8L105.9,204.8L105.9,204.8z"/>
		</g>
		<g>
			<path class="st3" d="M113.4,69c0.5,0,0.5-0.7,0-0.7S112.9,69,113.4,69z"/>
		</g>
		<g>
			<path class="st3" d="M60.5,61.3L60.5,61.3L60.5,61.3z"/>
		</g>
		<g>
			<path class="st3" d="M64.3,81.7L64.3,81.7L64.3,81.7z"/>
		</g>
		<g>
			<path class="st3" d="M75.6,94.6c0.5,0,0.5-0.7,0-0.7C75.2,93.9,75.2,94.6,75.6,94.6z"/>
		</g>
		<g>
			<path class="st3" d="M7.4,76.3c0.5,0,0.5-0.7,0-0.7C6.9,75.7,6.9,76.3,7.4,76.3z"/>
		</g>
		<g>
			<path class="st3" d="M15.5,117c0.5,0,0.5-0.7,0-0.7S15,117,15.5,117z"/>
		</g>
		<g>
			<path class="st3" d="M113.6,45.8c0.5,0,0.5-0.7,0-0.7S113.1,45.8,113.6,45.8z"/>
		</g>
		<g>
			<path class="st3" d="M102.9,54.5c0.5,0,0.5-0.7,0-0.7C102.4,53.9,102.4,54.5,102.9,54.5z"/>
		</g>
		<g>
			<path class="st3" d="M39.9,133.3c0.5,0,0.5-0.7,0-0.7C39.5,132.6,39.5,133.3,39.9,133.3z"/>
		</g>
		<g>
			<path class="st3" d="M102.1,159.8c0.5,0,0.5-0.7,0-0.7S101.6,159.8,102.1,159.8z"/>
		</g>
		<g>
			<path class="st3" d="M113.2,178.7c0.5,0,0.5-0.7,0-0.7C112.8,178,112.8,178.7,113.2,178.7z"/>
		</g>
		<g>
			<path class="st3" d="M44.7,63.2c0.5,0,0.5-0.7,0-0.7C44.3,62.6,44.3,63.2,44.7,63.2z"/>
		</g>
		<g>
			<path class="st3" d="M39.6,86.9c0.5,0,0.5-0.7,0-0.7C39.1,86.2,39.1,86.9,39.6,86.9z"/>
		</g>
		<g>
			<path class="st3" d="M56.2,108.6c0.5,0,0.5-0.7,0-0.7C55.8,107.9,55.8,108.6,56.2,108.6z"/>
		</g>
		<g>
			<path class="st3" d="M92.5,105c0.5,0,0.5-0.7,0-0.7S92,105,92.5,105z"/>
		</g>
		<g>
			<path class="st3" d="M98,78.8c0.5,0,0.5-0.7,0-0.7C97.6,78.2,97.6,78.8,98,78.8z"/>
		</g>
		<g>
			<path class="st3" d="M73.2,57.4c0.5,0,0.5-0.7,0-0.7C72.8,56.7,72.8,57.4,73.2,57.4z"/>
		</g>
		<g>
			<path class="st3" d="M65.1,40.4c0.5,0,0.5-0.7,0-0.7C64.7,39.7,64.7,40.4,65.1,40.4z"/>
		</g>
		<g>
			<path class="st3" d="M9.2,46.9c0.5,0,0.5-0.7,0-0.7C8.8,46.2,8.8,46.9,9.2,46.9z"/>
		</g>
		<g>
			<path class="st3" d="M19.9,75.6c0.5,0,0.5-0.7,0-0.7C19.5,74.9,19.5,75.6,19.9,75.6z"/>
		</g>
		<g>
			<path class="st3" d="M4.8,58.5c0.5,0,0.5-0.7,0-0.7S4.3,58.5,4.8,58.5z"/>
		</g>
		<g>
			<path class="st3" d="M13.3,157.3c0.5,0,0.5-0.7,0-0.7C12.9,156.6,12.9,157.3,13.3,157.3z"/>
		</g>
		<g>
			<path class="st3" d="M11.4,171.1c0.5,0,0.5-0.7,0-0.7C11,170.4,11,171.1,11.4,171.1z"/>
		</g>
		<g>
			<path class="st3" d="M34.8,171.1c0.5,0,0.5-0.7,0-0.7S34.3,171.1,34.8,171.1z"/>
		</g>
		<g>
			<path class="st3" d="M82.9,139.8c0.5,0,0.5-0.7,0-0.7S82.4,139.8,82.9,139.8z"/>
		</g>
		<g>
			<path class="st3" d="M115.4,120.6c0.5,0,0.5-0.7,0-0.7S114.9,120.6,115.4,120.6z"/>
		</g>
		<g>
			<path class="st3" d="M109.9,79.2c0.5,0,0.5-0.7,0-0.7S109.4,79.2,109.9,79.2z"/>
		</g>
		<g>
			<path class="st3" d="M56.6,70.2c0.5,0,0.5-0.7,0-0.7S56.1,70.2,56.6,70.2z"/>
		</g>
		<g>
			<path class="st3" d="M30.3,86.4c0.5,0,0.5-0.7,0-0.7C29.8,85.7,29.8,86.4,30.3,86.4z"/>
		</g>
		<g>
			<path class="st3" d="M25.2,32.2c0.5,0,0.5-0.7,0-0.7C24.8,31.5,24.8,32.2,25.2,32.2z"/>
		</g>
		<g>
			<path class="st3" d="M5.2,149.4c0.5,0,0.5-0.7,0-0.7C4.8,148.8,4.8,149.4,5.2,149.4z"/>
		</g>
		<g>
			<path class="st3" d="M38.2,125.5c0.5,0,0.5-0.7,0-0.7S37.7,125.5,38.2,125.5z"/>
		</g>
		<g>
			<path class="st3" d="M38.9,52.5c0.5,0,0.5-0.7,0-0.7C38.5,51.8,38.5,52.5,38.9,52.5z"/>
		</g>
		<g>
			<path class="st3" d="M7.5,91.4c0.5,0,0.5-0.7,0-0.7S7,91.4,7.5,91.4z"/>
		</g>
		<g>
			<path class="st3" d="M39.3,64.1c0.5,0,0.5-0.7,0-0.7S38.8,64.1,39.3,64.1z"/>
		</g>
		<g>
			<path class="st3" d="M1.9,50c0.5,0,0.5-0.7,0-0.7C1.5,49.3,1.5,50,1.9,50z"/>
		</g>
		<g>
			<path class="st3" d="M5.4,65.5c0.5,0,0.5-0.7,0-0.7C5,64.9,5,65.5,5.4,65.5z"/>
		</g>
		<g>
			<path class="st3" d="M2.5,148c0.5,0,0.5-0.7,0-0.7S2,148,2.5,148z"/>
		</g>
		<g>
			<path class="st3" d="M37.3,67.7c0.5,0,0.5-0.7,0-0.7S36.8,67.7,37.3,67.7z"/>
		</g>
		<g>
			<path class="st3" d="M14.7,87c0.5,0,0.5-0.7,0-0.7C14.3,86.3,14.3,87,14.7,87z"/>
		</g>
		<g>
			<path class="st3" d="M26.2,105.8c0.5,0,0.5-0.7,0-0.7C25.7,105.1,25.7,105.8,26.2,105.8z"/>
		</g>
		<g>
			<path class="st3" d="M31.4,141.1c0.5,0,0.5-0.7,0-0.7S30.9,141.1,31.4,141.1z"/>
		</g>
		<g>
			<path class="st3" d="M5.1,163.2c0.5,0,0.5-0.7,0-0.7S4.6,163.2,5.1,163.2z"/>
		</g>
		<g>
			<path class="st3" d="M-3.1,128.7c0.5,0,0.5-0.7,0-0.7C-3.5,128.1-3.5,128.7-3.1,128.7z"/>
		</g>
		<g>
			<path class="st3" d="M6.2,115.7c0.5,0,0.5-0.7,0-0.7S5.7,115.7,6.2,115.7z"/>
		</g>
		<g>
			<path class="st3" d="M27.6,167.6c0.5,0,0.5-0.7,0-0.7C27.2,166.9,27.2,167.6,27.6,167.6z"/>
		</g>
		<g>
			<path class="st3" d="M36.1,197.4L36.1,197.4L36.1,197.4z"/>
		</g>
		<g>
			<path class="st3" d="M43.6,61.5c0.5,0,0.5-0.7,0-0.7C43.1,60.9,43.1,61.5,43.6,61.5z"/>
		</g>
		<g>
			<path class="st3" d="M5.8,87.2c0.5,0,0.5-0.7,0-0.7C5.4,86.5,5.4,87.2,5.8,87.2z"/>
		</g>
		<g>
			<path class="st3" d="M43.8,38.4c0.5,0,0.5-0.7,0-0.7S43.3,38.4,43.8,38.4z"/>
		</g>
		<g>
			<path class="st3" d="M33.1,47.1c0.5,0,0.5-0.7,0-0.7S32.6,47.1,33.1,47.1z"/>
		</g>
		<g>
			<path class="st3" d="M32.4,152.4c0.5,0,0.5-0.7,0-0.7C31.9,151.7,31.9,152.4,32.4,152.4z"/>
		</g>
		<g>
			<path class="st3" d="M43.4,171.2c0.5,0,0.5-0.7,0-0.7C43,170.6,43,171.2,43.4,171.2z"/>
		</g>
		<g>
			<path class="st3" d="M22.7,97.6c0.5,0,0.5-0.7,0-0.7C22.3,96.9,22.3,97.6,22.7,97.6z"/>
		</g>
		<g>
			<path class="st3" d="M28.2,71.4c0.5,0,0.5-0.7,0-0.7C27.8,70.7,27.8,71.4,28.2,71.4z"/>
		</g>
		<g>
			<path class="st3" d="M3.5,50c0.5,0,0.5-0.7,0-0.7S3,50,3.5,50z"/>
		</g>
		<g>
			<path class="st3" d="M-4.7,33c0.5,0,0.5-0.7,0-0.7S-5.1,33-4.7,33z"/>
		</g>
		<g>
			<path class="st3" d="M13.1,132.4c0.5,0,0.5-0.7,0-0.7C12.6,131.8,12.6,132.4,13.1,132.4z"/>
		</g>
		<g>
			<path class="st3" d="M45.7,113.2c0.5,0,0.5-0.7,0-0.7S45.2,113.2,45.7,113.2z"/>
		</g>
		<g>
			<path class="st3" d="M40.1,71.8c0.5,0,0.5-0.7,0-0.7C39.7,71.1,39.7,71.8,40.1,71.8z"/>
		</g>
		<g>
			<path class="st3" d="M53.2,5.3c0.5,0,0.5-0.7,0-0.7S52.8,5.3,53.2,5.3z"/>
		</g>
		<g>
			<path class="st3" d="M7.4,7.1c0.5,0,0.5-0.7,0-0.7S6.9,7.1,7.4,7.1z"/>
		</g>
	</g>
</g>
<g id="Слой_3__x28_копия_x29_">
	<g>
		<g>
			<path class="st1" d="M332,9.7C332,9.7,332,9.6,332,9.7C332,9.6,332,9.7,332,9.7z"/>
		</g>
		<g>
			<path class="st1" d="M327.6,34.2L327.6,34.2L327.6,34.2z"/>
		</g>
		<g>
			<path class="st1" d="M238.3,75.1c0.5,0,0.5-0.7,0-0.7S237.8,75.1,238.3,75.1z"/>
		</g>
		<g>
			<path class="st1" d="M313.9,49.7c0.5,0,0.5-0.7,0-0.7C313.4,49.1,313.4,49.7,313.9,49.7z"/>
		</g>
		<g>
			<path class="st1" d="M386.4,76.8c0.5,0,0.5-0.7,0-0.7C386,76.1,386,76.8,386.4,76.8z"/>
		</g>
		<g>
			<path class="st1" d="M226.5-13.1c0.5,0,0.5-0.7,0-0.7S226-13.1,226.5-13.1z"/>
		</g>
		<g>
			<path class="st1" d="M244.3,9.7c0.5,0,0.5-0.7,0-0.7C243.9,9,243.9,9.7,244.3,9.7z"/>
		</g>
		<g>
			<path class="st1" d="M268-9.1c0.5,0,0.5-0.7,0-0.7C267.6-9.8,267.6-9.1,268-9.1z"/>
		</g>
		<g>
			<path class="st1" d="M281,1.3c0.5,0,0.5-0.7,0-0.7C280.5,0.7,280.5,1.3,281,1.3z"/>
		</g>
		<g>
			<path class="st1" d="M364.1-23.2c0.5,0,0.5-0.7,0-0.7C363.6-23.9,363.6-23.2,364.1-23.2z"/>
		</g>
		<g>
			<path class="st1" d="M356.9,96.5c0.5,0,0.5-0.7,0-0.7S356.4,96.5,356.9,96.5z"/>
		</g>
		<g>
			<path class="st1" d="M281.9,128.5c0.5,0,0.5-0.7,0-0.7S281.4,128.5,281.9,128.5z"/>
		</g>
		<g>
			<path class="st1" d="M268.4,151.2c0.5,0,0.5-0.7,0-0.7C268,150.6,268,151.2,268.4,151.2z"/>
		</g>
		<g>
			<path class="st1" d="M201,132.9c0.5,0,0.5-0.7,0-0.7S200.5,132.9,201,132.9z"/>
		</g>
		<g>
			<path class="st1" d="M302.8,144.5c0.5,0,0.5-0.7,0-0.7S302.3,144.5,302.8,144.5z"/>
		</g>
		<g>
			<path class="st1" d="M228.7,122.3c0.5,0,0.5-0.7,0-0.7C228.2,121.6,228.2,122.3,228.7,122.3z"/>
		</g>
		<g>
			<path class="st1" d="M195.6,57.5c0.5,0,0.5-0.7,0-0.7S195.2,57.5,195.6,57.5z"/>
		</g>
		<g>
			<path class="st1" d="M227.8,34.3c0.5,0,0.5-0.7,0-0.7C227.4,33.6,227.4,34.3,227.8,34.3z"/>
		</g>
		<g>
			<path class="st1" d="M351.1,11.9c0.5,0,0.5-0.7,0-0.7C350.7,11.2,350.7,11.9,351.1,11.9z"/>
		</g>
		<g>
			<path class="st1" d="M357.4,40.4c0.5,0,0.5-0.7,0-0.7S356.9,40.4,357.4,40.4z"/>
		</g>
		<g>
			<path class="st1" d="M337.3,66.7c0.5,0,0.5-0.7,0-0.7S336.8,66.7,337.3,66.7z"/>
		</g>
		<g>
			<path class="st1" d="M293.5,62.3c0.5,0,0.5-0.7,0-0.7S293,62.3,293.5,62.3z"/>
		</g>
		<g>
			<path class="st1" d="M286.8,30.7c0.5,0,0.5-0.7,0-0.7S286.3,30.7,286.8,30.7z"/>
		</g>
		<g>
			<path class="st1" d="M316.7,4.9c0.5,0,0.5-0.7,0-0.7C316.2,4.2,316.2,4.9,316.7,4.9z"/>
		</g>
		<g>
			<path class="st1" d="M326.6-15.7c0.5,0,0.5-0.7,0-0.7S326.1-15.7,326.6-15.7z"/>
		</g>
		<g>
			<path class="st1" d="M381,26.8c0.5,0,0.5-0.7,0-0.7C380.6,26.1,380.6,26.8,381,26.8z"/>
		</g>
		<g>
			<path class="st1" d="M389.1,125.4c0.5,0,0.5-0.7,0-0.7S388.6,125.4,389.1,125.4z"/>
		</g>
		<g>
			<path class="st1" d="M391.3,142c0.5,0,0.5-0.7,0-0.7C390.9,141.4,390.9,142,391.3,142z"/>
		</g>
		<g>
			<path class="st1" d="M363.2,142c0.5,0,0.5-0.7,0-0.7C362.7,141.4,362.7,142,363.2,142z"/>
		</g>
		<g>
			<path class="st1" d="M305.1,104.3c0.5,0,0.5-0.7,0-0.7C304.6,103.7,304.6,104.3,305.1,104.3z"/>
		</g>
		<g>
			<path class="st1" d="M265.8,81.2c0.5,0,0.5-0.7,0-0.7S265.3,81.2,265.8,81.2z"/>
		</g>
		<g>
			<path class="st1" d="M202.4,88.1c0.5,0,0.5-0.7,0-0.7C201.9,87.5,201.9,88.1,202.4,88.1z"/>
		</g>
		<g>
			<path class="st1" d="M227.4,48.2c0.5,0,0.5-0.7,0-0.7C226.9,47.6,226.9,48.2,227.4,48.2z"/>
		</g>
		<g>
			<path class="st1" d="M205.5,14.9c0.5,0,0.5-0.7,0-0.7S205,14.9,205.5,14.9z"/>
		</g>
		<g>
			<path class="st1" d="M254.6-24c0.5,0,0.5-0.7,0-0.7C254.2-24.7,254.2-24,254.6-24z"/>
		</g>
		<g>
			<path class="st1" d="M272.5,31.2c0.5,0,0.5-0.7,0-0.7S272,31.2,272.5,31.2z"/>
		</g>
		<g>
			<path class="st1" d="M336.8,20.2c0.5,0,0.5-0.7,0-0.7S336.3,20.2,336.8,20.2z"/>
		</g>
		<g>
			<path class="st1" d="M355.2-33.2c0.5,0,0.5-0.7,0-0.7S354.7-33.2,355.2-33.2z"/>
		</g>
		<g>
			<path class="st1" d="M248.2,55.1c0.5,0,0.5-0.7,0-0.7C247.7,54.4,247.7,55.1,248.2,55.1z"/>
		</g>
		<g>
			<path class="st1" d="M244.1,60.7c0.5,0,0.5-0.7,0-0.7C243.7,60,243.7,60.7,244.1,60.7z"/>
		</g>
		<g>
			<path class="st1" d="M245.9,54.8c0.5,0,0.5-0.7,0-0.7C245.5,54.1,245.5,54.8,245.9,54.8z"/>
		</g>
		<g>
			<path class="st1" d="M237.4,60.3c0.5,0,0.5-0.7,0-0.7C237,59.6,237,60.3,237.4,60.3z"/>
		</g>
		<g>
			<path class="st1" d="M228.7,68.7c0.5,0,0.5-0.7,0-0.7S228.2,68.7,228.7,68.7z"/>
		</g>
		<g>
			<path class="st1" d="M228,58.8c0.5,0,0.5-0.7,0-0.7C227.6,58.1,227.6,58.8,228,58.8z"/>
		</g>
		<g>
			<path class="st1" d="M237.8,65.6c0.5,0,0.5-0.7,0-0.7C237.4,64.9,237.4,65.6,237.8,65.6z"/>
		</g>
		<g>
			<path class="st1" d="M233.4,69.8c0.5,0,0.5-0.7,0-0.7C233,69.1,233,69.8,233.4,69.8z"/>
		</g>
		<g>
			<path class="st1" d="M231.8,65.4c0.5,0,0.5-0.7,0-0.7C231.4,64.7,231.4,65.4,231.8,65.4z"/>
		</g>
		<g>
			<path class="st1" d="M224.2,76.8c0.5,0,0.5-0.7,0-0.7C223.8,76.1,223.8,76.8,224.2,76.8z"/>
		</g>
		<g>
			<path class="st1" d="M212,85.5c0.5,0,0.5-0.7,0-0.7C211.5,84.9,211.5,85.5,212,85.5z"/>
		</g>
		<g>
			<path class="st1" d="M263.5,38.6c0.5,0,0.5-0.7,0-0.7C263.1,38,263.1,38.6,263.5,38.6z"/>
		</g>
		<g>
			<path class="st1" d="M250.2,31.2c0.5,0,0.5-0.7,0-0.7S249.7,31.2,250.2,31.2z"/>
		</g>
		<g>
			<path class="st1" d="M254.4,40.4c0.5,0,0.5-0.7,0-0.7S253.9,40.4,254.4,40.4z"/>
		</g>
		<g>
			<path class="st1" d="M261.1,50.9c0.5,0,0.5-0.7,0-0.7C260.7,50.2,260.7,50.9,261.1,50.9z"/>
		</g>
		<g>
			<path class="st1" d="M270,42.6c0.5,0,0.5-0.7,0-0.7C269.6,41.9,269.6,42.6,270,42.6z"/>
		</g>
		<g>
			<path class="st1" d="M261.5,43.7c0.5,0,0.5-0.7,0-0.7C261.1,43,261.1,43.7,261.5,43.7z"/>
		</g>
		<g>
			<path class="st1" d="M256.4,43.9c0.5,0,0.5-0.7,0-0.7S255.9,43.9,256.4,43.9z"/>
		</g>
		<g>
			<path class="st1" d="M258.7,13.4c0.5,0,0.5-0.7,0-0.7S258.2,13.4,258.7,13.4z"/>
		</g>
		<g>
			<path class="st1" d="M264.7-2.1c0.5,0,0.5-0.7,0-0.7S264.2-2.1,264.7-2.1z"/>
		</g>
		<g>
			<path class="st1" d="M280.8,5.1c0.5,0,0.5-0.7,0-0.7S280.3,5.1,280.8,5.1z"/>
		</g>
		<g>
			<path class="st1" d="M271.6,5.3c0.5,0,0.5-0.7,0-0.7C271.2,4.6,271.2,5.3,271.6,5.3z"/>
		</g>
		<g>
			<path class="st1" d="M280.8,17.8c0.5,0,0.5-0.7,0-0.7C280.3,17.1,280.3,17.8,280.8,17.8z"/>
		</g>
		<g>
			<path class="st1" d="M280.5,34c0.5,0,0.5-0.7,0-0.7C280.1,33.3,280.1,34,280.5,34z"/>
		</g>
		<g>
			<path class="st1" d="M292.1,33.6c0.5,0,0.5-0.7,0-0.7C291.7,32.9,291.7,33.6,292.1,33.6z"/>
		</g>
		<g>
			<path class="st1" d="M299.7,9.7c0.5,0,0.5-0.7,0-0.7C299.3,9,299.3,9.7,299.7,9.7z"/>
		</g>
		<g>
			<path class="st1" d="M292.4,0.9c0.5,0,0.5-0.7,0-0.7C291.9,0.2,291.9,0.9,292.4,0.9z"/>
		</g>
		<g>
			<path class="st1" d="M290.6,13c0.5,0,0.5-0.7,0-0.7S290.1,13,290.6,13z"/>
		</g>
		<g>
			<path class="st1" d="M283.4,10.8c0.5,0,0.5-0.7,0-0.7C283,10.1,283,10.8,283.4,10.8z"/>
		</g>
		<g>
			<path class="st1" d="M289.2,1.8c0.5,0,0.5-0.7,0-0.7C288.8,1.1,288.8,1.8,289.2,1.8z"/>
		</g>
		<g>
			<path class="st1" d="M276,12.6c0.5,0,0.5-0.7,0-0.7C275.6,11.9,275.6,12.6,276,12.6z"/>
		</g>
		<g>
			<path class="st1" d="M279.6,25.2c0.5,0,0.5-0.7,0-0.7C279.2,24.6,279.2,25.2,279.6,25.2z"/>
		</g>
		<g>
			<path class="st1" d="M290.4,22.4c0.5,0,0.5-0.7,0-0.7S289.9,22.4,290.4,22.4z"/>
		</g>
		<g>
			<path class="st1" d="M277.4,23.3c0.5,0,0.5-0.7,0-0.7S276.9,23.3,277.4,23.3z"/>
		</g>
		<g>
			<path class="st1" d="M281,40.8c0.5,0,0.5-0.7,0-0.7S280.5,40.8,281,40.8z"/>
		</g>
		<g>
			<path class="st1" d="M277.4,48.7c0.5,0,0.5-0.7,0-0.7S276.9,48.7,277.4,48.7z"/>
		</g>
		<g>
			<path class="st1" d="M269.1,48.7c0.5,0,0.5-0.7,0-0.7C268.7,48,268.7,48.7,269.1,48.7z"/>
		</g>
		<g>
			<path class="st1" d="M266.2,59c0.5,0,0.5-0.7,0-0.7C265.8,58.3,265.8,59,266.2,59z"/>
		</g>
		<g>
			<path class="st1" d="M255.3,59.6c0.5,0,0.5-0.7,0-0.7C254.8,59,254.8,59.6,255.3,59.6z"/>
		</g>
		<g>
			<path class="st1" d="M253.7,55.7c0.5,0,0.5-0.7,0-0.7C253.3,55,253.3,55.7,253.7,55.7z"/>
		</g>
		<g>
			<path class="st1" d="M231.2,29.9c0.5,0,0.5-0.7,0-0.7C230.7,29.2,230.7,29.9,231.2,29.9z"/>
		</g>
		<g>
			<path class="st1" d="M233.8,39.5c0.5,0,0.5-0.7,0-0.7C233.4,38.8,233.4,39.5,233.8,39.5z"/>
		</g>
		<g>
			<path class="st1" d="M225.4,39.7c0.5,0,0.5-0.7,0-0.7C224.9,39.1,224.9,39.7,225.4,39.7z"/>
		</g>
		<g>
			<path class="st1" d="M217.1,41.5c0.5,0,0.5-0.7,0-0.7S216.6,41.5,217.1,41.5z"/>
		</g>
		<g>
			<path class="st1" d="M220.5,54.3L220.5,54.3L220.5,54.3z"/>
		</g>
		<g>
			<path class="st1" d="M223.3,58.1c0.5,0,0.5-0.7,0-0.7S222.9,58.1,223.3,58.1z"/>
		</g>
		<g>
			<path class="st1" d="M218,62.7c0.5,0,0.5-0.7,0-0.7C217.5,62.1,217.5,62.7,218,62.7z"/>
		</g>
		<g>
			<path class="st1" d="M211.3,58.1c0.5,0,0.5-0.7,0-0.7C210.9,57.4,210.9,58.1,211.3,58.1z"/>
		</g>
		<g>
			<path class="st1" d="M216.9,50.4c0.5,0,0.5-0.7,0-0.7S216.4,50.4,216.9,50.4z"/>
		</g>
		<g>
			<path class="st1" d="M237.8,74.6c0.5,0,0.5-0.7,0-0.7C237.4,73.9,237.4,74.6,237.8,74.6z"/>
		</g>
		<g>
			<path class="st1" d="M230.2,73.7c0.5,0,0.5-0.7,0-0.7C229.8,73,229.8,73.7,230.2,73.7z"/>
		</g>
		<g>
			<path class="st1" d="M245.2,78.5c0.5,0,0.5-0.7,0-0.7C244.8,77.8,244.8,78.5,245.2,78.5z"/>
		</g>
		<g>
			<path class="st1" d="M248.6,66.5c0.5,0,0.5-0.7,0-0.7S248.1,66.5,248.6,66.5z"/>
		</g>
		<g>
			<path class="st1" d="M270.9,68.2c0.5,0,0.5-0.7,0-0.7S270.4,68.2,270.9,68.2z"/>
		</g>
		<g>
			<path class="st1" d="M243.4,84.9c0.5,0,0.5-0.7,0-0.7C243,84.2,243,84.9,243.4,84.9z"/>
		</g>
		<g>
			<path class="st1" d="M231.6,89.5c0.5,0,0.5-0.7,0-0.7S231.1,89.5,231.6,89.5z"/>
		</g>
		<g>
			<path class="st1" d="M232.7,97.8c0.5,0,0.5-0.7,0-0.7S232.2,97.8,232.7,97.8z"/>
		</g>
		<g>
			<path class="st1" d="M241.9,98c0.5,0,0.5-0.7,0-0.7S241.4,98,241.9,98z"/>
		</g>
		<g>
			<path class="st1" d="M256.8,75.7c0.5,0,0.5-0.7,0-0.7C256.4,75,256.4,75.7,256.8,75.7z"/>
		</g>
		<g>
			<path class="st1" d="M372,40.4c0.5,0,0.5-0.7,0-0.7S371.5,40.4,372,40.4z"/>
		</g>
		<g>
			<path class="st1" d="M377,52.1c0.5,0,0.5-0.7,0-0.7C376.5,51.4,376.5,52.1,377,52.1z"/>
		</g>
		<g>
			<path class="st1" d="M360.9,65.5c0.5,0,0.5-0.7,0-0.7C360.5,64.8,360.5,65.5,360.9,65.5z"/>
		</g>
		<g>
			<path class="st1" d="M349.3,55.6c0.5,0,0.5-0.7,0-0.7C348.9,54.9,348.8,55.6,349.3,55.6z"/>
		</g>
		<g>
			<path class="st1" d="M362.1,70.5c0.5,0,0.5-0.7,0-0.7C361.7,69.8,361.7,70.5,362.1,70.5z"/>
		</g>
		<g>
			<path class="st1" d="M365.1,65.5c0.5,0,0.5-0.7,0-0.7S364.6,65.5,365.1,65.5z"/>
		</g>
		<g>
			<path class="st1" d="M370.8,71c0.5,0,0.5-0.7,0-0.7C370.3,70.4,370.3,71,370.8,71z"/>
		</g>
		<g>
			<path class="st1" d="M369.9,113.4c0.5,0,0.5-0.7,0-0.7C369.4,112.7,369.4,113.4,369.9,113.4z"/>
		</g>
		<g>
			<path class="st1" d="M346.4,100.3c0.5,0,0.5-0.7,0-0.7C345.9,99.6,345.9,100.3,346.4,100.3z"/>
		</g>
		<g>
			<path class="st1" d="M323.4,106.7c0.5,0,0.5-0.7,0-0.7C323,106,323,106.7,323.4,106.7z"/>
		</g>
		<g>
			<path class="st1" d="M326.7,118.1c0.5,0,0.5-0.7,0-0.7C326.3,117.4,326.2,118.1,326.7,118.1z"/>
		</g>
		<g>
			<path class="st1" d="M318.7,122.2c0.5,0,0.5-0.7,0-0.7S318.2,122.2,318.7,122.2z"/>
		</g>
		<g>
			<path class="st1" d="M323.1,131.8c0.5,0,0.5-0.7,0-0.7C322.7,131.2,322.7,131.8,323.1,131.8z"/>
		</g>
		<g>
			<path class="st1" d="M322.5,137.4c0.5,0,0.5-0.7,0-0.7C322.1,136.7,322.1,137.4,322.5,137.4z"/>
		</g>
		<g>
			<path class="st1" d="M346.4,116.4c0.5,0,0.5-0.7,0-0.7C345.9,115.7,345.9,116.4,346.4,116.4z"/>
		</g>
		<g>
			<path class="st1" d="M336.5,90.1c0.5,0,0.5-0.7,0-0.7S336.1,90.1,336.5,90.1z"/>
		</g>
		<g>
			<path class="st1" d="M318.7,74c0.5,0,0.5-0.7,0-0.7S318.2,74,318.7,74z"/>
		</g>
		<g>
			<path class="st1" d="M306.5,84.5c0.5,0,0.5-0.7,0-0.7S306,84.5,306.5,84.5z"/>
		</g>
		<g>
			<path class="st1" d="M313.6,86.2c0.5,0,0.5-0.7,0-0.7S313.1,86.2,313.6,86.2z"/>
		</g>
		<g>
			<path class="st1" d="M286.8,102.9c0.5,0,0.5-0.7,0-0.7C286.3,102.2,286.3,102.9,286.8,102.9z"/>
		</g>
		<g>
			<path class="st1" d="M275.8,100.3c0.5,0,0.5-0.7,0-0.7C275.3,99.6,275.3,100.3,275.8,100.3z"/>
		</g>
		<g>
			<path class="st1" d="M254.9,102.9c0.5,0,0.5-0.7,0-0.7C254.5,102.2,254.5,102.9,254.9,102.9z"/>
		</g>
		<g>
			<path class="st1" d="M260,114.3c0.5,0,0.5-0.7,0-0.7C259.5,113.6,259.5,114.3,260,114.3z"/>
		</g>
		<g>
			<path class="st1" d="M247.2,110.5c0.5,0,0.5-0.7,0-0.7S246.7,110.5,247.2,110.5z"/>
		</g>
		<g>
			<path class="st1" d="M222.8,102c0.5,0,0.5-0.7,0-0.7S222.3,102,222.8,102z"/>
		</g>
		<g>
			<path class="st1" d="M244.2,122.5c0.5,0,0.5-0.7,0-0.7S243.7,122.5,244.2,122.5z"/>
		</g>
		<g>
			<path class="st1" d="M255.8,124.8c0.5,0,0.5-0.7,0-0.7S255.4,124.8,255.8,124.8z"/>
		</g>
		<g>
			<path class="st1" d="M277.2,124.8c0.5,0,0.5-0.7,0-0.7C276.8,124.1,276.8,124.8,277.2,124.8z"/>
		</g>
		<g>
			<path class="st1" d="M260,140.6c0.5,0,0.5-0.7,0-0.7C259.5,139.9,259.5,140.6,260,140.6z"/>
		</g>
		<g>
			<path class="st1" d="M282.6,150.3c0.5,0,0.5-0.7,0-0.7C282.2,149.6,282.2,150.3,282.6,150.3z"/>
		</g>
		<g>
			<path class="st1" d="M303.5,134.5c0.5,0,0.5-0.7,0-0.7S303,134.5,303.5,134.5z"/>
		</g>
		<g>
			<path class="st1" d="M299.3,118.1c0.5,0,0.5-0.7,0-0.7C298.9,117.4,298.9,118.1,299.3,118.1z"/>
		</g>
		<g>
			<path class="st1" d="M385,52.2c0.5,0,0.5-0.7,0-0.7C384.6,51.5,384.6,52.2,385,52.2z"/>
		</g>
		<g>
			<path class="st1" d="M389.1,46c0.5,0,0.5-0.7,0-0.7C388.6,45.4,388.6,46,389.1,46z"/>
		</g>
		<g>
			<path class="st1" d="M370.8,50.4c0.5,0,0.5-0.7,0-0.7S370.3,50.4,370.8,50.4z"/>
		</g>
		<g>
			<path class="st1" d="M376.1,63.6c0.5,0,0.5-0.7,0-0.7C375.7,62.9,375.7,63.6,376.1,63.6z"/>
		</g>
		<g>
			<path class="st1" d="M391.3,65.4c0.5,0,0.5-0.7,0-0.7S390.9,65.4,391.3,65.4z"/>
		</g>
	</g>
	<g>
		<g>
			<path class="st2" d="M300.7,31c0.6,0,0.7-1,0-1S300,31,300.7,31z"/>
		</g>
		<g>
			<path class="st2" d="M307.5,40.6c0.6,0,0.7-1,0-1C306.9,39.6,306.9,40.6,307.5,40.6z"/>
		</g>
		<g>
			<path class="st2" d="M265.6,43.2c0.6,0,0.7-1,0-1C264.8,42.2,264.8,43.2,265.6,43.2z"/>
		</g>
		<g>
			<path class="st2" d="M313.2,10.5c0.6,0,0.7-1,0-1C312.5,9.4,312.5,10.5,313.2,10.5z"/>
		</g>
		<g>
			<path class="st2" d="M341.5,9.3c0.6,0,0.7-1,0-1S340.8,9.3,341.5,9.3z"/>
		</g>
		<g>
			<path class="st2" d="M355.8,30.1c0.6,0,0.7-1,0-1C355.1,29,355.1,30.1,355.8,30.1z"/>
		</g>
		<g>
			<path class="st2" d="M238.1,95.5c0.6,0,0.7-1,0-1C237.4,94.5,237.4,95.5,238.1,95.5z"/>
		</g>
		<g>
			<path class="st2" d="M199.1,80.1c0.6,0,0.7-1,0-1C198.4,79,198.4,80.1,199.1,80.1z"/>
		</g>
		<g>
			<path class="st2" d="M209.8,111.8L209.8,111.8L209.8,111.8z"/>
		</g>
		<g>
			<path class="st2" d="M227.2,118c0.6,0,0.7-1,0-1C226.6,117,226.6,118,227.2,118z"/>
		</g>
		<g>
			<path class="st2" d="M214.3,108.8c0.6,0,0.7-1,0-1S213.6,108.8,214.3,108.8z"/>
		</g>
		<g>
			<path class="st2" d="M244.2,131.6c0.6,0,0.7-1,0-1C243.6,130.6,243.6,131.6,244.2,131.6z"/>
		</g>
		<g>
			<path class="st2" d="M342.9,83.4c0.6,0,0.7-1,0-1C342.3,82.4,342.3,83.4,342.9,83.4z"/>
		</g>
	</g>
	<g>
		<g>
			<path class="st3" d="M373,29.8c0.5,0,0.5-0.7,0-0.7C372.5,29.1,372.5,29.8,373,29.8z"/>
		</g>
		<g>
			<path class="st3" d="M353.3,54.3c0.5,0,0.5-0.7,0-0.7S352.8,54.3,353.3,54.3z"/>
		</g>
		<g>
			<path class="st3" d="M232.4,23.7L232.4,23.7L232.4,23.7z"/>
		</g>
		<g>
			<path class="st3" d="M236.1,44L236.1,44L236.1,44z"/>
		</g>
		<g>
			<path class="st3" d="M310.1,78c0.5,0,0.5-0.7,0-0.7S309.6,78,310.1,78z"/>
		</g>
		<g>
			<path class="st3" d="M247.4,56.9c0.5,0,0.5-0.7,0-0.7S246.9,56.9,247.4,56.9z"/>
		</g>
		<g>
			<path class="st3" d="M387.5,94.6c0.5,0,0.5-0.7,0-0.7C387.1,93.9,387.1,94.6,387.5,94.6z"/>
		</g>
		<g>
			<path class="st3" d="M319.8,4.9c0.5,0,0.5-0.7,0-0.7C319.4,4.2,319.4,4.9,319.8,4.9z"/>
		</g>
		<g>
			<path class="st3" d="M305,23.7c0.5,0,0.5-0.7,0-0.7C304.6,23,304.6,23.7,305,23.7z"/>
		</g>
		<g>
			<path class="st3" d="M285.4,8.1c0.5,0,0.5-0.7,0-0.7C284.9,7.5,284.9,8.1,285.4,8.1z"/>
		</g>
		<g>
			<path class="st3" d="M274.7,16.8c0.5,0,0.5-0.7,0-0.7C274.2,16.2,274.2,16.8,274.7,16.8z"/>
		</g>
		<g>
			<path class="st3" d="M205.8-3.5c0.5,0,0.5-0.7,0-0.7S205.4-3.5,205.8-3.5z"/>
		</g>
		<g>
			<path class="st3" d="M211.7,95.6c0.5,0,0.5-0.7,0-0.7C211.3,94.9,211.3,95.6,211.7,95.6z"/>
		</g>
		<g>
			<path class="st3" d="M273.9,122.2c0.5,0,0.5-0.7,0-0.7S273.5,122.2,273.9,122.2z"/>
		</g>
		<g>
			<path class="st3" d="M285,141c0.5,0,0.5-0.7,0-0.7C284.6,140.3,284.6,141,285,141z"/>
		</g>
		<g>
			<path class="st3" d="M362.8,135.9c0.5,0,0.5-0.7,0-0.7S362.3,135.9,362.8,135.9z"/>
		</g>
		<g>
			<path class="st3" d="M366.8,135.6c0.5,0,0.5-0.7,0-0.7S366.4,135.6,366.8,135.6z"/>
		</g>
		<g>
			<path class="st3" d="M372.7,111.6L372.7,111.6L372.7,111.6z"/>
		</g>
		<g>
			<path class="st3" d="M340.9,125.7c0.5,0,0.5-0.7,0-0.7C340.5,125.1,340.5,125.7,340.9,125.7z"/>
		</g>
		<g>
			<path class="st3" d="M333.5,139.6c0.5,0,0.5-0.7,0-0.7C333,138.9,333,139.6,333.5,139.6z"/>
		</g>
		<g>
			<path class="st3" d="M318,117.1c0.5,0,0.5-0.7,0-0.7S317.5,117.1,318,117.1z"/>
		</g>
		<g>
			<path class="st3" d="M345.4,63.3c0.5,0,0.5-0.7,0-0.7S344.9,63.3,345.4,63.3z"/>
		</g>
		<g>
			<path class="st3" d="M318.7,44.1c0.5,0,0.5-0.7,0-0.7C318.3,43.4,318.3,44.1,318.7,44.1z"/>
		</g>
		<g>
			<path class="st3" d="M346.4,6.7c0.5,0,0.5-0.7,0-0.7C346,6,346,6.7,346.4,6.7z"/>
		</g>
		<g>
			<path class="st3" d="M383.1-6.4c0.5,0,0.5-0.7,0-0.7S382.6-6.4,383.1-6.4z"/>
		</g>
		<g>
			<path class="st3" d="M216.6,25.6c0.5,0,0.5-0.7,0-0.7S216.1,25.6,216.6,25.6z"/>
		</g>
		<g>
			<path class="st3" d="M211.4,49.2c0.5,0,0.5-0.7,0-0.7S210.9,49.2,211.4,49.2z"/>
		</g>
		<g>
			<path class="st3" d="M228.1,70.9c0.5,0,0.5-0.7,0-0.7C227.6,70.3,227.6,70.9,228.1,70.9z"/>
		</g>
		<g>
			<path class="st3" d="M264.3,67.3c0.5,0,0.5-0.7,0-0.7C263.8,66.6,263.8,67.3,264.3,67.3z"/>
		</g>
		<g>
			<path class="st3" d="M269.9,41.2c0.5,0,0.5-0.7,0-0.7S269.4,41.2,269.9,41.2z"/>
		</g>
		<g>
			<path class="st3" d="M245,19.7c0.5,0,0.5-0.7,0-0.7C244.6,19,244.6,19.7,245,19.7z"/>
		</g>
		<g>
			<path class="st3" d="M236.9,2.7c0.5,0,0.5-0.7,0-0.7C236.5,2,236.5,2.7,236.9,2.7z"/>
		</g>
		<g>
			<path class="st3" d="M206.6,133.4c0.5,0,0.5-0.7,0-0.7S206.1,133.4,206.6,133.4z"/>
		</g>
		<g>
			<path class="st3" d="M254.7,102.1c0.5,0,0.5-0.7,0-0.7S254.2,102.1,254.7,102.1z"/>
		</g>
		<g>
			<path class="st3" d="M287.2,82.9c0.5,0,0.5-0.7,0-0.7C286.8,82.2,286.8,82.9,287.2,82.9z"/>
		</g>
		<g>
			<path class="st3" d="M339.8,88.7c0.5,0,0.5-0.7,0-0.7C339.4,88,339.4,88.7,339.8,88.7z"/>
		</g>
		<g>
			<path class="st3" d="M362,71.3c0.5,0,0.5-0.7,0-0.7C361.5,70.6,361.5,71.3,362,71.3z"/>
		</g>
		<g>
			<path class="st3" d="M350.1,100.7c0.5,0,0.5-0.7,0-0.7C349.7,100,349.7,100.7,350.1,100.7z"/>
		</g>
		<g>
			<path class="st3" d="M348.7,84.7c0.5,0,0.5-0.7,0-0.7S348.2,84.7,348.7,84.7z"/>
		</g>
		<g>
			<path class="st3" d="M376.4,125.4c0.5,0,0.5-0.7,0-0.7C376,124.7,376,125.4,376.4,125.4z"/>
		</g>
		<g>
			<path class="st3" d="M360.2,123.6c0.5,0,0.5-0.7,0-0.7S359.7,123.6,360.2,123.6z"/>
		</g>
		<g>
			<path class="st3" d="M389.8,77.4c0.5,0,0.5-0.7,0-0.7C389.3,76.8,389.3,77.4,389.8,77.4z"/>
		</g>
		<g>
			<path class="st3" d="M319.1,55.7c0.5,0,0.5-0.7,0-0.7S318.6,55.7,319.1,55.7z"/>
		</g>
		<g>
			<path class="st3" d="M337.2,28.1c0.5,0,0.5-0.7,0-0.7C336.8,27.4,336.8,28.1,337.2,28.1z"/>
		</g>
		<g>
			<path class="st3" d="M296.5-4.2c0.5,0,0.5-0.7,0-0.7S296-4.2,296.5-4.2z"/>
		</g>
		<g>
			<path class="st3" d="M281.7,41.5c0.5,0,0.5-0.7,0-0.7S281.2,41.5,281.7,41.5z"/>
		</g>
		<g>
			<path class="st3" d="M228.4,32.5c0.5,0,0.5-0.7,0-0.7S227.9,32.5,228.4,32.5z"/>
		</g>
		<g>
			<path class="st3" d="M213.3-11.8c0.5,0,0.5-0.7,0-0.7S212.8-11.8,213.3-11.8z"/>
		</g>
		<g>
			<path class="st3" d="M394.9,109.5c0.5,0,0.5-0.7,0-0.7S394.5,109.5,394.9,109.5z"/>
		</g>
		<g>
			<path class="st3" d="M386.4,141.9C386.5,141.9,386.5,141.9,386.4,141.9L386.4,141.9z"/>
		</g>
		<g>
			<path class="st3" d="M395.6,159.7c0.5,0,0.5-0.7,0-0.7C395.2,159,395.2,159.7,395.6,159.7z"/>
		</g>
		<g>
			<path class="st3" d="M380.1,147.7c0.5,0,0.5-0.7,0-0.7S379.7,147.7,380.1,147.7z"/>
		</g>
		<g>
			<path class="st3" d="M361.9-7.3c0.5,0,0.5-0.7,0-0.7S361.4-7.3,361.9-7.3z"/>
		</g>
		<g>
			<path class="st3" d="M353.4,25.1L353.4,25.1L353.4,25.1z"/>
		</g>
		<g>
			<path class="st3" d="M371.1,14.1c0.5,0,0.5-0.7,0-0.7S370.7,14.1,371.1,14.1z"/>
		</g>
		<g>
			<path class="st3" d="M382.6,33c0.5,0,0.5-0.7,0-0.7S382.1,33,382.6,33z"/>
		</g>
		<g>
			<path class="st3" d="M362.6,42.8c0.5,0,0.5-0.7,0-0.7C362.2,42.1,362.2,42.8,362.6,42.8z"/>
		</g>
		<g>
			<path class="st3" d="M347.1,30.8c0.5,0,0.5-0.7,0-0.7S346.6,30.8,347.1,30.8z"/>
		</g>
		<g>
			<path class="st3" d="M208.3,68.9c0.5,0,0.5-0.7,0-0.7C207.9,68.3,207.9,68.9,208.3,68.9z"/>
		</g>
		<g>
			<path class="st3" d="M197.6,77.7c0.5,0,0.5-0.7,0-0.7C197.2,77,197.1,77.7,197.6,77.7z"/>
		</g>
		<g>
			<path class="st3" d="M196.9,182.9c0.5,0,0.5-0.7,0-0.7S196.4,182.9,196.9,182.9z"/>
		</g>
		<g>
			<path class="st3" d="M208,201.8c0.5,0,0.5-0.7,0-0.7S207.5,201.8,208,201.8z"/>
		</g>
		<g>
			<path class="st3" d="M210.2,143.7c0.5,0,0.5-0.7,0-0.7S209.7,143.7,210.2,143.7z"/>
		</g>
		<g>
			<path class="st3" d="M219.5,56.6c0.5,0,0.5-0.7,0-0.7C219,55.9,219,56.6,219.5,56.6z"/>
		</g>
		<g>
			<path class="st3" d="M204.6,102.3c0.5,0,0.5-0.7,0-0.7C204.2,101.7,204.2,102.3,204.6,102.3z"/>
		</g>
		<g>
			<path class="st3" d="M388.3,86.8L388.3,86.8L388.3,86.8z"/>
		</g>
		<g>
			<path class="st3" d="M392.1,107.1L392.1,107.1L392.1,107.1z"/>
		</g>
		<g>
			<path class="st3" d="M335.2,101.7c0.5,0,0.5-0.7,0-0.7S334.7,101.7,335.2,101.7z"/>
		</g>
		<g>
			<path class="st3" d="M343.3,142.4c0.5,0,0.5-0.7,0-0.7S342.8,142.4,343.3,142.4z"/>
		</g>
		<g>
			<path class="st3" d="M361.8,59.6c0.5,0,0.5-0.7,0-0.7S361.3,59.6,361.8,59.6z"/>
		</g>
		<g>
			<path class="st3" d="M285.2,57.1c0.5,0,0.5-0.7,0-0.7C284.8,56.4,284.8,57.1,285.2,57.1z"/>
		</g>
		<g>
			<path class="st3" d="M276.7,89.4L276.7,89.4L276.7,89.4z"/>
		</g>
		<g>
			<path class="st3" d="M282.2,139.5c0.5,0,0.5-0.7,0-0.7C281.8,138.8,281.8,139.5,282.2,139.5z"/>
		</g>
		<g>
			<path class="st3" d="M367.7,158.8c0.5,0,0.5-0.7,0-0.7C367.3,158.1,367.3,158.8,367.7,158.8z"/>
		</g>
		<g>
			<path class="st3" d="M372.5,88.7c0.5,0,0.5-0.7,0-0.7C372.1,88,372.1,88.7,372.5,88.7z"/>
		</g>
		<g>
			<path class="st3" d="M367.4,112.3c0.5,0,0.5-0.7,0-0.7C366.9,111.6,366.9,112.3,367.4,112.3z"/>
		</g>
		<g>
			<path class="st3" d="M384,134.1c0.5,0,0.5-0.7,0-0.7S383.6,134.1,384,134.1z"/>
		</g>
		<g>
			<path class="st3" d="M392.9,65.8c0.5,0,0.5-0.7,0-0.7C392.5,65.1,392.5,65.8,392.9,65.8z"/>
		</g>
		<g>
			<path class="st3" d="M337,72.4c0.5,0,0.5-0.7,0-0.7C336.6,71.7,336.6,72.4,337,72.4z"/>
		</g>
		<g>
			<path class="st3" d="M347.7,101c0.5,0,0.5-0.7,0-0.7C347.3,100.4,347.3,101,347.7,101z"/>
		</g>
		<g>
			<path class="st3" d="M332.6,84c0.5,0,0.5-0.7,0-0.7S332.1,84,332.6,84z"/>
		</g>
		<g>
			<path class="st3" d="M317,59.3c0.5,0,0.5-0.7,0-0.7C316.6,58.6,316.6,59.3,317,59.3z"/>
		</g>
		<g>
			<path class="st3" d="M294.4,78.5c0.5,0,0.5-0.7,0-0.7C294,77.9,294,78.5,294.4,78.5z"/>
		</g>
		<g>
			<path class="st3" d="M305.9,97.4c0.5,0,0.5-0.7,0-0.7S305.5,97.4,305.9,97.4z"/>
		</g>
		<g>
			<path class="st3" d="M311.1,132.6c0.5,0,0.5-0.7,0-0.7C310.6,131.9,310.6,132.6,311.1,132.6z"/>
		</g>
		<g>
			<path class="st3" d="M284.8,154.8c0.5,0,0.5-0.7,0-0.7C284.4,154.1,284.4,154.8,284.8,154.8z"/>
		</g>
		<g>
			<path class="st3" d="M261.1,146.4c0.5,0,0.5-0.7,0-0.7C260.7,145.7,260.7,146.4,261.1,146.4z"/>
		</g>
		<g>
			<path class="st3" d="M256,105c0.5,0,0.5-0.7,0-0.7S255.5,105,256,105z"/>
		</g>
		<g>
			<path class="st3" d="M276.7,120.2c0.5,0,0.5-0.7,0-0.7S276.2,120.2,276.7,120.2z"/>
		</g>
		<g>
			<path class="st3" d="M285.9,107.2c0.5,0,0.5-0.7,0-0.7C285.5,106.5,285.5,107.2,285.9,107.2z"/>
		</g>
		<g>
			<path class="st3" d="M270.4,95.2c0.5,0,0.5-0.7,0-0.7C270,94.5,270,95.2,270.4,95.2z"/>
		</g>
		<g>
			<path class="st3" d="M252.3,53.9c0.5,0,0.5-0.7,0-0.7S251.8,53.9,252.3,53.9z"/>
		</g>
		<g>
			<path class="st3" d="M247.8,78.5C247.9,78.5,247.9,78.5,247.8,78.5L247.8,78.5z"/>
		</g>
		<g>
			<path class="st3" d="M307.4,159.1c0.5,0,0.5-0.7,0-0.7C307,158.4,307,159.1,307.4,159.1z"/>
		</g>
		<g>
			<path class="st3" d="M341.1,182.7c0.5,0,0.5-0.7,0-0.7S340.6,182.7,341.1,182.7z"/>
		</g>
		<g>
			<path class="st3" d="M339.2,196.5c0.5,0,0.5-0.7,0-0.7C338.8,195.8,338.8,196.5,339.2,196.5z"/>
		</g>
		<g>
			<path class="st3" d="M316,188.9L316,188.9L316,188.9z"/>
		</g>
		<g>
			<path class="st3" d="M362.6,196.5c0.5,0,0.5-0.7,0-0.7S362.1,196.5,362.6,196.5z"/>
		</g>
		<g>
			<path class="st3" d="M384.4,95.6c0.5,0,0.5-0.7,0-0.7S383.9,95.6,384.4,95.6z"/>
		</g>
		<g>
			<path class="st3" d="M369.2,51.3c0.5,0,0.5-0.7,0-0.7S368.8,51.3,369.2,51.3z"/>
		</g>
		<g>
			<path class="st3" d="M323.3,53.1c0.5,0,0.5-0.7,0-0.7C322.8,52.4,322.8,53.1,323.3,53.1z"/>
		</g>
		<g>
			<path class="st3" d="M270.6,45.4L270.6,45.4C270.5,45.4,270.5,45.4,270.6,45.4z"/>
		</g>
		<g>
			<path class="st3" d="M274.2,65.8L274.2,65.8L274.2,65.8z"/>
		</g>
		<g>
			<path class="st3" d="M285.6,78.7c0.5,0,0.5-0.7,0-0.7S285.1,78.7,285.6,78.7z"/>
		</g>
		<g>
			<path class="st3" d="M217.4,60.4c0.5,0,0.5-0.7,0-0.7C216.9,59.8,216.9,60.4,217.4,60.4z"/>
		</g>
		<g>
			<path class="st3" d="M225.5,101.1c0.5,0,0.5-0.7,0-0.7C225.1,100.4,225.1,101.1,225.5,101.1z"/>
		</g>
		<g>
			<path class="st3" d="M323.6,29.9c0.5,0,0.5-0.7,0-0.7C323.1,29.2,323.1,29.9,323.6,29.9z"/>
		</g>
		<g>
			<path class="st3" d="M312.8,38.6c0.5,0,0.5-0.7,0-0.7C312.4,38,312.4,38.6,312.8,38.6z"/>
		</g>
		<g>
			<path class="st3" d="M244,18.3c0.5,0,0.5-0.7,0-0.7C243.6,17.6,243.6,18.3,244,18.3z"/>
		</g>
		<g>
			<path class="st3" d="M249.9,117.4c0.5,0,0.5-0.7,0-0.7C249.5,116.7,249.5,117.4,249.9,117.4z"/>
		</g>
		<g>
			<path class="st3" d="M312.1,143.9c0.5,0,0.5-0.7,0-0.7C311.6,143.3,311.6,143.9,312.1,143.9z"/>
		</g>
		<g>
			<path class="st3" d="M323.2,162.8c0.5,0,0.5-0.7,0-0.7S322.7,162.8,323.2,162.8z"/>
		</g>
		<g>
			<path class="st3" d="M254.8,47.4c0.5,0,0.5-0.7,0-0.7S254.3,47.4,254.8,47.4z"/>
		</g>
		<g>
			<path class="st3" d="M249.6,71c0.5,0,0.5-0.7,0-0.7S249.1,71,249.6,71z"/>
		</g>
		<g>
			<path class="st3" d="M266.2,92.7c0.5,0,0.5-0.7,0-0.7C265.8,92,265.8,92.7,266.2,92.7z"/>
		</g>
		<g>
			<path class="st3" d="M302.5,89.1c0.5,0,0.5-0.7,0-0.7S302,89.1,302.5,89.1z"/>
		</g>
		<g>
			<path class="st3" d="M308.1,63c0.5,0,0.5-0.7,0-0.7S307.6,63,308.1,63z"/>
		</g>
		<g>
			<path class="st3" d="M283.2,41.5c0.5,0,0.5-0.7,0-0.7C282.8,40.8,282.8,41.5,283.2,41.5z"/>
		</g>
		<g>
			<path class="st3" d="M275.1,24.5c0.5,0,0.5-0.7,0-0.7S274.6,24.5,275.1,24.5z"/>
		</g>
		<g>
			<path class="st3" d="M219.2,31c0.5,0,0.5-0.7,0-0.7S218.7,31,219.2,31z"/>
		</g>
		<g>
			<path class="st3" d="M229.9,59.7c0.5,0,0.5-0.7,0-0.7C229.5,59,229.5,59.7,229.9,59.7z"/>
		</g>
		<g>
			<path class="st3" d="M214.8,42.6c0.5,0,0.5-0.7,0-0.7C214.3,41.9,214.3,42.6,214.8,42.6z"/>
		</g>
		<g>
			<path class="st3" d="M199.2,17.9c0.5,0,0.5-0.7,0-0.7C198.8,17.2,198.8,17.9,199.2,17.9z"/>
		</g>
		<g>
			<path class="st3" d="M223.3,141.4c0.5,0,0.5-0.7,0-0.7S222.8,141.4,223.3,141.4z"/>
		</g>
		<g>
			<path class="st3" d="M221.5,155.2c0.5,0,0.5-0.7,0-0.7S221,155.2,221.5,155.2z"/>
		</g>
		<g>
			<path class="st3" d="M198.1,147.6L198.1,147.6L198.1,147.6z"/>
		</g>
		<g>
			<path class="st3" d="M244.7,155.2c0.5,0,0.5-0.7,0-0.7C244.3,154.5,244.3,155.2,244.7,155.2z"/>
		</g>
		<g>
			<path class="st3" d="M292.8,123.9c0.5,0,0.5-0.7,0-0.7C292.4,123.3,292.4,123.9,292.8,123.9z"/>
		</g>
		<g>
			<path class="st3" d="M325.4,104.7c0.5,0,0.5-0.7,0-0.7C325,104.1,325,104.7,325.4,104.7z"/>
		</g>
		<g>
			<path class="st3" d="M334.7,17.6c0.5,0,0.5-0.7,0-0.7S334.2,17.6,334.7,17.6z"/>
		</g>
		<g>
			<path class="st3" d="M319.9,63.3c0.5,0,0.5-0.7,0-0.7S319.4,63.3,319.9,63.3z"/>
		</g>
		<g>
			<path class="st3" d="M266.6,54.3c0.5,0,0.5-0.7,0-0.7S266.1,54.3,266.6,54.3z"/>
		</g>
		<g>
			<path class="st3" d="M382.8,4.2L382.8,4.2L382.8,4.2z"/>
		</g>
		<g>
			<path class="st3" d="M386.5,24.6L386.5,24.6L386.5,24.6z"/>
		</g>
		<g>
			<path class="st3" d="M362.2,76.2c0.5,0,0.5-0.7,0-0.7C361.8,75.5,361.8,76.2,362.2,76.2z"/>
		</g>
		<g>
			<path class="st3" d="M367,6.2c0.5,0,0.5-0.7,0-0.7S366.5,6.2,367,6.2z"/>
		</g>
		<g>
			<path class="st3" d="M361.8,29.8c0.5,0,0.5-0.7,0-0.7C361.3,29.1,361.3,29.8,361.8,29.8z"/>
		</g>
		<g>
			<path class="st3" d="M378.4,51.5c0.5,0,0.5-0.7,0-0.7C378,50.8,378,51.5,378.4,51.5z"/>
		</g>
		<g>
			<path class="st3" d="M378.8,13.1c0.5,0,0.5-0.7,0-0.7C378.4,12.4,378.4,13.1,378.8,13.1z"/>
		</g>
		<g>
			<path class="st3" d="M360.6,124.3c0.5,0,0.5-0.7,0-0.7C360.2,123.7,360.2,124.3,360.6,124.3z"/>
		</g>
		<g>
			<path class="st3" d="M369.8,37.2c0.5,0,0.5-0.7,0-0.7C369.4,36.5,369.4,37.2,369.8,37.2z"/>
		</g>
		<g>
			<path class="st3" d="M367.8,41c0.5,0,0.5-0.7,0-0.7C367.4,40.3,367.4,41,367.8,41z"/>
		</g>
		<g>
			<path class="st3" d="M376,81.7c0.5,0,0.5-0.7,0-0.7S375.5,81.7,376,81.7z"/>
		</g>
		<g>
			<path class="st3" d="M369.7,11.6c0.5,0,0.5-0.7,0-0.7C369.2,10.9,369.2,11.6,369.7,11.6z"/>
		</g>
		<g>
			<path class="st3" d="M380.4,40.3c0.5,0,0.5-0.7,0-0.7S379.9,40.3,380.4,40.3z"/>
		</g>
		<g>
			<path class="st3" d="M365.2,23.3c0.5,0,0.5-0.7,0-0.7C364.8,22.6,364.8,23.3,365.2,23.3z"/>
		</g>
		<g>
			<path class="st3" d="M373.7,122c0.5,0,0.5-0.7,0-0.7S373.2,122,373.7,122z"/>
		</g>
		<g>
			<path class="st3" d="M371.8,135.8c0.5,0,0.5-0.7,0-0.7C371.4,135.1,371.4,135.8,371.8,135.8z"/>
		</g>
		<g>
			<path class="st3" d="M395.2,135.8c0.5,0,0.5-0.7,0-0.7S394.7,135.8,395.2,135.8z"/>
		</g>
		<g>
			<path class="st3" d="M220.5,44.2C220.5,44.2,220.5,44.1,220.5,44.2C220.5,44.1,220.5,44.2,220.5,44.2z"/>
		</g>
		<g>
			<path class="st3" d="M224.2,64.5L224.2,64.5L224.2,64.5z"/>
		</g>
		<g>
			<path class="st3" d="M298.3,98.5c0.5,0,0.5-0.7,0-0.7S297.8,98.5,298.3,98.5z"/>
		</g>
		<g>
			<path class="st3" d="M235.6,77.4c0.5,0,0.5-0.7,0-0.7C235.1,76.8,235.1,77.4,235.6,77.4z"/>
		</g>
		<g>
			<path class="st3" d="M293.2,44.3c0.5,0,0.5-0.7,0-0.7S292.7,44.3,293.2,44.3z"/>
		</g>
		<g>
			<path class="st3" d="M199.9,116.1c0.5,0,0.5-0.7,0-0.7C199.5,115.4,199.5,116.1,199.9,116.1z"/>
		</g>
		<g>
			<path class="st3" d="M262.1,142.7c0.5,0,0.5-0.7,0-0.7C261.7,142,261.7,142.7,262.1,142.7z"/>
		</g>
		<g>
			<path class="st3" d="M273.2,161.5c0.5,0,0.5-0.7,0-0.7S272.7,161.5,273.2,161.5z"/>
		</g>
		<g>
			<path class="st3" d="M306.2,137.6c0.5,0,0.5-0.7,0-0.7S305.7,137.6,306.2,137.6z"/>
		</g>
		<g>
			<path class="st3" d="M306.9,64.6c0.5,0,0.5-0.7,0-0.7C306.4,63.9,306.4,64.6,306.9,64.6z"/>
		</g>
		<g>
			<path class="st3" d="M204.7,46.1c0.5,0,0.5-0.7,0-0.7C204.3,45.4,204.3,46.1,204.7,46.1z"/>
		</g>
		<g>
			<path class="st3" d="M199.6,69.7c0.5,0,0.5-0.7,0-0.7S199.1,69.7,199.6,69.7z"/>
		</g>
		<g>
			<path class="st3" d="M216.2,91.4c0.5,0,0.5-0.7,0-0.7S215.7,91.4,216.2,91.4z"/>
		</g>
		<g>
			<path class="st3" d="M252.5,87.9c0.5,0,0.5-0.7,0-0.7C252.1,87.2,252.1,87.9,252.5,87.9z"/>
		</g>
		<g>
			<path class="st3" d="M258,61.7c0.5,0,0.5-0.7,0-0.7C257.6,61,257.6,61.7,258,61.7z"/>
		</g>
		<g>
			<path class="st3" d="M242.9,122.7c0.5,0,0.5-0.7,0-0.7S242.4,122.7,242.9,122.7z"/>
		</g>
		<g>
			<path class="st3" d="M275.4,103.5c0.5,0,0.5-0.7,0-0.7C275,102.8,275,103.5,275.4,103.5z"/>
		</g>
		<g>
			<path class="st3" d="M307.2,76.2c0.5,0,0.5-0.7,0-0.7C306.8,75.5,306.8,76.2,307.2,76.2z"/>
		</g>
		<g>
			<path class="st3" d="M269.9,62.1c0.5,0,0.5-0.7,0-0.7C269.4,61.4,269.4,62.1,269.9,62.1z"/>
		</g>
		<g>
			<path class="st3" d="M216.6,53c0.5,0,0.5-0.7,0-0.7C216.2,52.3,216.2,53,216.6,53z"/>
		</g>
		<g>
			<path class="st3" d="M198.4,164.3c0.5,0,0.5-0.7,0-0.7S197.9,164.3,198.4,164.3z"/>
		</g>
		<g>
			<path class="st3" d="M207.6,77.1c0.5,0,0.5-0.7,0-0.7S207.1,77.1,207.6,77.1z"/>
		</g>
		<g>
			<path class="st3" d="M273.4,77.6c0.5,0,0.5-0.7,0-0.7S272.9,77.6,273.4,77.6z"/>
		</g>
		<g>
			<path class="st3" d="M264.9,109.9L264.9,109.9C264.8,109.9,264.8,109.9,264.9,109.9z"/>
		</g>
		<g>
			<path class="st3" d="M270.4,160c0.5,0,0.5-0.7,0-0.7C270,159.3,270,160,270.4,160z"/>
		</g>
		<g>
			<path class="st3" d="M305.2,79.8c0.5,0,0.5-0.7,0-0.7C304.8,79.1,304.8,79.8,305.2,79.8z"/>
		</g>
		<g>
			<path class="st3" d="M282.6,99c0.5,0,0.5-0.7,0-0.7C282.2,98.3,282.2,99,282.6,99z"/>
		</g>
		<g>
			<path class="st3" d="M294.1,117.9c0.5,0,0.5-0.7,0-0.7C293.7,117.2,293.7,117.9,294.1,117.9z"/>
		</g>
		<g>
			<path class="st3" d="M299.3,153.1c0.5,0,0.5-0.7,0-0.7C298.9,152.5,298.9,153.1,299.3,153.1z"/>
		</g>
		<g>
			<path class="st3" d="M273,175.3c0.5,0,0.5-0.7,0-0.7C272.6,174.6,272.6,175.3,273,175.3z"/>
		</g>
		<g>
			<path class="st3" d="M249.3,166.9c0.5,0,0.5-0.7,0-0.7C248.9,166.2,248.9,166.9,249.3,166.9z"/>
		</g>
		<g>
			<path class="st3" d="M244.2,125.6c0.5,0,0.5-0.7,0-0.7S243.7,125.6,244.2,125.6z"/>
		</g>
		<g>
			<path class="st3" d="M264.9,140.8c0.5,0,0.5-0.7,0-0.7S264.4,140.8,264.9,140.8z"/>
		</g>
		<g>
			<path class="st3" d="M274.2,127.7c0.5,0,0.5-0.7,0-0.7S273.7,127.7,274.2,127.7z"/>
		</g>
		<g>
			<path class="st3" d="M258.6,115.7c0.5,0,0.5-0.7,0-0.7S258.1,115.7,258.6,115.7z"/>
		</g>
		<g>
			<path class="st3" d="M240.4,74.3c0.5,0,0.5-0.7,0-0.7C240,73.7,240,74.3,240.4,74.3z"/>
		</g>
		<g>
			<path class="st3" d="M236,99.1L236,99.1L236,99.1z"/>
		</g>
		<g>
			<path class="st3" d="M295.6,179.6c0.5,0,0.5-0.7,0-0.7C295.1,178.9,295.1,179.6,295.6,179.6z"/>
		</g>
		<g>
			<path class="st3" d="M304.1,209.4L304.1,209.4L304.1,209.4z"/>
		</g>
		<g>
			<path class="st3" d="M311.5,73.6c0.5,0,0.5-0.7,0-0.7C311.1,72.9,311.1,73.6,311.5,73.6z"/>
		</g>
		<g>
			<path class="st3" d="M258.7,65.9L258.7,65.9L258.7,65.9z"/>
		</g>
		<g>
			<path class="st3" d="M262.4,86.3L262.4,86.3L262.4,86.3z"/>
		</g>
		<g>
			<path class="st3" d="M273.7,99.2c0.5,0,0.5-0.7,0-0.7C273.3,98.6,273.3,99.2,273.7,99.2z"/>
		</g>
		<g>
			<path class="st3" d="M205.5,80.9c0.5,0,0.5-0.7,0-0.7C205.1,80.3,205.1,80.9,205.5,80.9z"/>
		</g>
		<g>
			<path class="st3" d="M213.7,121.6c0.5,0,0.5-0.7,0-0.7S213.2,121.6,213.7,121.6z"/>
		</g>
		<g>
			<path class="st3" d="M311.8,50.4c0.5,0,0.5-0.7,0-0.7S311.3,50.4,311.8,50.4z"/>
		</g>
		<g>
			<path class="st3" d="M301,59.2c0.5,0,0.5-0.7,0-0.7C300.6,58.5,300.6,59.2,301,59.2z"/>
		</g>
		<g>
			<path class="st3" d="M238.1,137.9c0.5,0,0.5-0.7,0-0.7C237.7,137.2,237.7,137.9,238.1,137.9z"/>
		</g>
		<g>
			<path class="st3" d="M300.3,164.4c0.5,0,0.5-0.7,0-0.7S299.8,164.4,300.3,164.4z"/>
		</g>
		<g>
			<path class="st3" d="M311.4,183.3c0.5,0,0.5-0.7,0-0.7S310.9,183.3,311.4,183.3z"/>
		</g>
		<g>
			<path class="st3" d="M242.9,67.9c0.5,0,0.5-0.7,0-0.7C242.4,67.2,242.4,67.9,242.9,67.9z"/>
		</g>
		<g>
			<path class="st3" d="M237.7,91.5c0.5,0,0.5-0.7,0-0.7C237.3,90.8,237.3,91.5,237.7,91.5z"/>
		</g>
		<g>
			<path class="st3" d="M254.4,113.2c0.5,0,0.5-0.7,0-0.7C253.9,112.6,253.9,113.2,254.4,113.2z"/>
		</g>
		<g>
			<path class="st3" d="M290.7,109.6c0.5,0,0.5-0.7,0-0.7C290.2,109,290.2,109.6,290.7,109.6z"/>
		</g>
		<g>
			<path class="st3" d="M296.2,83.5c0.5,0,0.5-0.7,0-0.7S295.7,83.5,296.2,83.5z"/>
		</g>
		<g>
			<path class="st3" d="M271.4,62.1c0.5,0,0.5-0.7,0-0.7C271,61.4,271,62.1,271.4,62.1z"/>
		</g>
		<g>
			<path class="st3" d="M263.3,45c0.5,0,0.5-0.7,0-0.7S262.8,45,263.3,45z"/>
		</g>
		<g>
			<path class="st3" d="M207.4,51.5c0.5,0,0.5-0.7,0-0.7C207,50.8,207,51.5,207.4,51.5z"/>
		</g>
		<g>
			<path class="st3" d="M218.1,80.2c0.5,0,0.5-0.7,0-0.7C217.7,79.5,217.7,80.2,218.1,80.2z"/>
		</g>
		<g>
			<path class="st3" d="M203,63.2c0.5,0,0.5-0.7,0-0.7S202.5,63.2,203,63.2z"/>
		</g>
		<g>
			<path class="st3" d="M211.4,161.9c0.5,0,0.5-0.7,0-0.7C211,161.2,211,161.9,211.4,161.9z"/>
		</g>
		<g>
			<path class="st3" d="M209.6,175.7c0.5,0,0.5-0.7,0-0.7S209.1,175.7,209.6,175.7z"/>
		</g>
		<g>
			<path class="st3" d="M233,175.7c0.5,0,0.5-0.7,0-0.7S232.5,175.7,233,175.7z"/>
		</g>
		<g>
			<path class="st3" d="M281.1,144.5c0.5,0,0.5-0.7,0-0.7S280.6,144.5,281.1,144.5z"/>
		</g>
		<g>
			<path class="st3" d="M313.6,125.2c0.5,0,0.5-0.7,0-0.7S313.1,125.2,313.6,125.2z"/>
		</g>
		<g>
			<path class="st3" d="M308.1,83.9c0.5,0,0.5-0.7,0-0.7C307.6,83.2,307.6,83.9,308.1,83.9z"/>
		</g>
		<g>
			<path class="st3" d="M254.8,74.8c0.5,0,0.5-0.7,0-0.7C254.3,74.1,254.3,74.8,254.8,74.8z"/>
		</g>
		<g>
			<path class="st3" d="M228.5,91c0.5,0,0.5-0.7,0-0.7S228,91,228.5,91z"/>
		</g>
		<g>
			<path class="st3" d="M223.4,36.9c0.5,0,0.5-0.7,0-0.7C223,36.2,223,36.9,223.4,36.9z"/>
		</g>
		<g>
			<path class="st3" d="M203.4,154.1c0.5,0,0.5-0.7,0-0.7C203,153.4,203,154.1,203.4,154.1z"/>
		</g>
		<g>
			<path class="st3" d="M236.4,130.1c0.5,0,0.5-0.7,0-0.7C235.9,129.4,235.9,130.1,236.4,130.1z"/>
		</g>
		<g>
			<path class="st3" d="M237.1,57.2c0.5,0,0.5-0.7,0-0.7C236.7,56.5,236.7,57.2,237.1,57.2z"/>
		</g>
		<g>
			<path class="st3" d="M205.7,96c0.5,0,0.5-0.7,0-0.7S205.2,96,205.7,96z"/>
		</g>
		<g>
			<path class="st3" d="M237.5,68.8c0.5,0,0.5-0.7,0-0.7S237,68.8,237.5,68.8z"/>
		</g>
		<g>
			<path class="st3" d="M200.1,54.6c0.5,0,0.5-0.7,0-0.7C199.7,54,199.7,54.6,200.1,54.6z"/>
		</g>
		<g>
			<path class="st3" d="M203.6,70.2c0.5,0,0.5-0.7,0-0.7C203.2,69.5,203.2,70.2,203.6,70.2z"/>
		</g>
		<g>
			<path class="st3" d="M200.7,152.6c0.5,0,0.5-0.7,0-0.7C200.2,151.9,200.2,152.6,200.7,152.6z"/>
		</g>
		<g>
			<path class="st3" d="M235.4,72.4c0.5,0,0.5-0.7,0-0.7C235,71.7,235,72.4,235.4,72.4z"/>
		</g>
		<g>
			<path class="st3" d="M212.9,91.6c0.5,0,0.5-0.7,0-0.7S212.4,91.6,212.9,91.6z"/>
		</g>
		<g>
			<path class="st3" d="M224.3,110.5c0.5,0,0.5-0.7,0-0.7C223.9,109.8,223.9,110.5,224.3,110.5z"/>
		</g>
		<g>
			<path class="st3" d="M229.5,145.7c0.5,0,0.5-0.7,0-0.7S229.1,145.7,229.5,145.7z"/>
		</g>
		<g>
			<path class="st3" d="M203.2,167.8c0.5,0,0.5-0.7,0-0.7C202.8,167.1,202.8,167.8,203.2,167.8z"/>
		</g>
		<g>
			<path class="st3" d="M195.1,133.4c0.5,0,0.5-0.7,0-0.7S194.6,133.4,195.1,133.4z"/>
		</g>
		<g>
			<path class="st3" d="M204.4,120.3c0.5,0,0.5-0.7,0-0.7C203.9,119.6,203.9,120.3,204.4,120.3z"/>
		</g>
		<g>
			<path class="st3" d="M225.8,172.2c0.5,0,0.5-0.7,0-0.7C225.4,171.5,225.4,172.2,225.8,172.2z"/>
		</g>
		<g>
			<path class="st3" d="M234.3,202L234.3,202L234.3,202z"/>
		</g>
		<g>
			<path class="st3" d="M241.7,66.2c0.5,0,0.5-0.7,0-0.7C241.3,65.5,241.3,66.2,241.7,66.2z"/>
		</g>
		<g>
			<path class="st3" d="M204,91.8c0.5,0,0.5-0.7,0-0.7C203.5,91.1,203.5,91.8,204,91.8z"/>
		</g>
		<g>
			<path class="st3" d="M242,43c0.5,0,0.5-0.7,0-0.7S241.5,43,242,43z"/>
		</g>
		<g>
			<path class="st3" d="M231.2,51.7c0.5,0,0.5-0.7,0-0.7C230.8,51,230.8,51.7,231.2,51.7z"/>
		</g>
		<g>
			<path class="st3" d="M230.5,157c0.5,0,0.5-0.7,0-0.7C230.1,156.3,230.1,157,230.5,157z"/>
		</g>
		<g>
			<path class="st3" d="M241.6,175.9c0.5,0,0.5-0.7,0-0.7S241.1,175.9,241.6,175.9z"/>
		</g>
		<g>
			<path class="st3" d="M220.9,102.2c0.5,0,0.5-0.7,0-0.7C220.5,101.5,220.5,102.2,220.9,102.2z"/>
		</g>
		<g>
			<path class="st3" d="M226.4,76.1c0.5,0,0.5-0.7,0-0.7C226,75.4,226,76.1,226.4,76.1z"/>
		</g>
		<g>
			<path class="st3" d="M201.7,54.7c0.5,0,0.5-0.7,0-0.7S201.2,54.7,201.7,54.7z"/>
		</g>
		<g>
			<path class="st3" d="M193.5,37.6c0.5,0,0.5-0.7,0-0.7C193,36.9,193,37.6,193.5,37.6z"/>
		</g>
		<g>
			<path class="st3" d="M211.3,137.1c0.5,0,0.5-0.7,0-0.7C210.8,136.4,210.8,137.1,211.3,137.1z"/>
		</g>
		<g>
			<path class="st3" d="M243.9,117.8c0.5,0,0.5-0.7,0-0.7C243.4,117.1,243.4,117.8,243.9,117.8z"/>
		</g>
		<g>
			<path class="st3" d="M238.3,76.4c0.5,0,0.5-0.7,0-0.7C237.8,75.7,237.8,76.4,238.3,76.4z"/>
		</g>
		<g>
			<path class="st3" d="M251.4,10c0.5,0,0.5-0.7,0-0.7S250.9,10,251.4,10z"/>
		</g>
		<g>
			<path class="st3" d="M205.5,11.8c0.5,0,0.5-0.7,0-0.7C205.1,11.1,205.1,11.8,205.5,11.8z"/>
		</g>
	</g>
</g>
<g id="Слой_4">
	<g>
		
			<linearGradient id="SVGID_00000147184042057241766150000017799723196555635344_" gradientUnits="userSpaceOnUse" x1="191.95" y1="88.4492" x2="191.95" y2="-13.0541" gradientTransform="matrix(1 0 0 -1 0 258)">
			<stop  offset="1.449280e-02" style="stop-color:#28242D"/>
			<stop  offset="0.7546" style="stop-color:#0B1022"/>
			<stop  offset="1" style="stop-color:#00081E"/>
		</linearGradient>
		<path style="fill:url(#SVGID_00000147184042057241766150000017799723196555635344_);" d="M400.4,218.1l-7.8,1.4v-21.3l-5.9-1.3
			l-10.3,2.4v-2.7l-13.2-3.1l-10.3,2.3V211l-5.9,1.3v3.8l-4.5-0.8l-11.7,3.2v1.4h1.5v0.1l0.1,23.2l-2.6-0.8l-3.4,0.7v-10.8l-3.3-0.7
			l-5.5,1.2v-1.4l-6.6-1.6l-5.1,1.2v7.7l-4.4,0.7v1.9l-1.9-0.4l-5.5,1.6v0.7l0,0v0.1v9.4l-1.5-0.7v-8.3l-4.9-1.1l-3.9,0.8v9.1v-0.2
			v-4.5l-4.9-1.1l-3.9,0.8v6.6l-3-0.8l-3,0.7v-4.3l0,0l0,0V249l-4.4-1.3v-8.3l-4.9-1.1l-3.9,0.8v9.1V248v-4.5l-4.9-1.1l-3.9,0.8v6.6
			l-2.9-0.8l-1.5,0.2v-6.6v-0.1h1.5v-1.1l-8.6-2.5l-4.7,0.9v-13.1L227,226l-6.5,1.5v-1.7l-8.3-1.9l-6.5,1.4v9.4l-4.4,0.8v2.3
			l-2.2-0.5l-6.6,2v0.9l0,0v0.1l0.3,9.1l-1.2-0.4l-3.4,0.7v-10.8v-0.1v-26.2v-0.1l0,0v-1.3l-10.3-2.9v-18.6l-10.7-2.6l-8.4,1.9v20.3
			l-1.5-0.4v-10l-11.5-2.5l-9.1,1.9V213l-5.5-1.7l-6.2,1.2v1.2l0.3-0.3H125v1.3l-2.7-0.7l-7.6,1.7V234l-1.5-0.3v-9.1l-9.9-2.3
			l-7.8,1.7v13.4l-5.1-1.5l-3.9,0.8l-1.3-0.4v-12.9l-7.4-1.8l-5.8,1.3V237l-1.5-0.3v-7l-5.5-1.2L64.6,211l0,0l1.5-0.1v-2.1
			l-15.5-4.7l-8,1.7v-25l-7-1.6l-12.2,2.9v-3.2L7,175.2l-13,2.7v17.9l-7.4,1.6v4.4l-4.6-0.9l-13,3.8v1.7l1.5,0.1v0.1v49.1l9.2,1.9
			l7-2.1v15.8L0.9,268l6.2,1.2v-10.7l0,0v2.7l8.5,1.7l1.8-0.5v8.9l16.8-3.9l3.8,0.8v1.4l14.9,4.4l11.6-2.3v-3.1l5.9,1.2V263l1.5-0.2
			l0,0l5.5-1.2l1.9,0.5v2.9l5.9,1.5v0.9l6.9,2.1l3.4-0.7v7.1l7.8-1.6l9.9,2.3v-8.8l1.5-0.2v0.1l7.6-1.6h-0.2v3.3l2.9,0.6v0.5
			l4.4,1.2v4.4l6.2-1.4l2.6,0.5v-3.1l1.1-0.2l2.7,0.5l0.7-0.2v3.9l7.2-1.7l1.6,0.3v0.6l6.6,1.9l5.2-1v-5l1.5-0.3v6.8l6.2-1.4
			l2.7,0.5v-4.6l0,0v1.2l3.7,0.7l0.7-0.2v3.9l7.2-1.7l1.6,0.3v0.6l6.4,1.9l5-1v-11h-0.2l3.5-1.1v8.3l8-1.7l3.7,0.6v-5.6l0,0v1.4
			l4,0.9l0.4-0.3v4.7l9.3-2l2.5,0.4v0.7l7.7,2.3l6.1-1.2l-0.1-9.4l2.1,0.6l1.9-0.4v3.5l3.9-0.8l4.9,1.1v-4.4v-0.1l0,0l4.1-0.8
			l1.8,0.3v1.8l4.3,1.2l3.1-0.6v2.3l3.8,1l2.1-0.4v3.5l3.9-0.8l4.9,1.1v-4.4v-0.1l0,0l4.1-0.8l1.8,0.3v1.8l4.1,1.2l3.2-0.6V265
			l1.9,0.5l2.5-0.9v6.8l6.9-1.4l3.4,0.5v-4.6l0,0v1.2l3.7,0.7l0.7-0.2v3.9l6.5-1.7l0.9,0.3v0.6l7,1.9l5.3-1l0.1-9l4.7,0.9l6.4-1.8
			v13.4l11.6-2.7l4.6,1v-9.1l0,0v2.3l8,1.4l2.3-0.4v7.6l14.3-3.3l3.3,0.7v1.2l12.5,3.7l9.8-2l-0.2-51.5v-0.1l1.5-0.1V222
			L400.4,218.1z"/>
	</g>
</g>
</svg>
