<?xml version="1.0" encoding="utf-8"?>
<!-- Generator: Adobe Illustrator 27.1.1, SVG Export Plug-In . SVG Version: 6.00 Build 0)  -->
<svg version="1.1" id="Слой_2_00000160886382111977425210000008069768998097933447_"
	 xmlns="http://www.w3.org/2000/svg" xmlns:xlink="http://www.w3.org/1999/xlink" x="0px" y="0px" viewBox="0 0 390.5 247.1"
	 style="enable-background:new 0 0 390.5 247.1;" xml:space="preserve">
<style type="text/css">
	.st0{opacity:0.2;fill:#FFD506;enable-background:new    ;}
	.st1{fill:#102030;}
	.st2{fill:#181C22;}
	.st3{fill:#626E7E;}
	.st4{fill:#49525E;}
	.st5{fill:none;stroke:#000000;stroke-width:0.5;stroke-miterlimit:10;}
	.st6{fill:#76808C;stroke:#000000;stroke-width:0.5;stroke-miterlimit:10;}
	.st7{fill:#9FACBC;stroke:#000000;stroke-width:0.5;stroke-miterlimit:10;}
	.st8{fill:#19334D;}
	.st9{fill:#1C1E1F;}
	.st10{fill:#696B6D;}
	.st11{fill:#19334D;stroke:#000000;stroke-width:0.5;stroke-miterlimit:10.0006;}
	.st12{fill:#363B3F;stroke:#000000;stroke-width:0.5;stroke-miterlimit:10;}
	.st13{fill:#3C424E;stroke:#000000;stroke-width:0.5;stroke-miterlimit:10;}
	.st14{fill:#4E546A;stroke:#000000;stroke-width:0.5;stroke-miterlimit:10;}
	.st15{fill:#D6D6D6;}
	.st16{opacity:0.5;}
	.st17{opacity:0.44;}
	.st18{fill:#C2C4C6;}
	.st19{fill:#B3B5B8;}
	.st20{opacity:0.44;fill:#B3B5B8;enable-background:new    ;}
	.st21{opacity:0.86;fill:#FFFFFF;enable-background:new    ;}
</style>
<g id="Слой_6">
	<g id="Слой_3_00000112617719142256626300000002319748690652128446_">
		<g id="Слой_4_00000049922414954584627020000008093837521146518658_">
			<path class="st0" d="M193.5,127.9l-72-35l-6-2.9c-0.1,0-0.1-0.1-0.2-0.1c-8-5.1-13.2-13.6-13.2-23.1c0-15.5,13.7-28.1,30.6-28.1
				c10.9,0,20.6,5.3,25.9,13.2c0.2,0.3,0.4,0.6,0.6,0.9l2.9,6.3L193.5,127.9z"/>
		</g>
	</g>
	<g id="Слой_2_00000013873463630548965580000007157347432318055814_">
		<g>
			
				<rect x="245.4" y="186.9" transform="matrix(0.7071 -0.7071 0.7071 0.7071 -58.6382 233.3844)" class="st1" width="14" height="1.2"/>
			<g>
				<path class="st2" d="M226.1,141.9L226.1,141.9c0.4-0.4,0.4-1,0-1.3l-23.4-23.4c-0.4-0.4-1-0.4-1.3,0l0,0c-0.4,0.4-0.4,1,0,1.3
					l23.4,23.4C225.1,142.2,225.7,142.2,226.1,141.9z"/>
				<polygon class="st2" points="205.4,125.8 205.3,121.4 204.6,120.8 204.7,125.1 				"/>
				<polygon class="st2" points="211.7,132.1 213.9,130 213.2,129.4 211,131.4 				"/>
				<polygon class="st2" points="218.6,139.3 222.7,139.1 222,138.5 218,138.7 				"/>
				<path class="st2" d="M206.8,161.1L206.8,161.1c-0.4,0.4-1,0.4-1.3,0l-23.4-23.3c-0.4-0.4-0.4-1,0-1.3l0,0c0.4-0.4,1-0.4,1.3,0
					l23.4,23.4C207.2,160.2,207.2,160.8,206.8,161.1z"/>
				<polygon class="st2" points="190.7,140.4 186.4,140.3 185.7,139.7 190.1,139.8 				"/>
				<polygon class="st2" points="197,146.8 195,148.9 194.3,148.3 196.4,146.1 				"/>
				<polygon class="st2" points="204.3,153.7 204,157.7 203.4,157.1 203.6,153 				"/>
			</g>
			<path class="st1" d="M200.5,135.6L200.5,135.6c-0.4,0.4-1.8-0.5-3.1-1.8l-21.6-22.5c-0.1-0.1-0.1-0.3,0-0.3l0,0
				c0.1-0.1,0.2-0.1,0.3,0l22.5,21.6C200,133.8,200.9,135.2,200.5,135.6z"/>
			<path class="st3" d="M180.5,115.6c4-4,13.9-0.8,17.9,3.3l17.1,17.1c3.8,3.8,6.9,8.2,9.1,13.1l3.6,7.9c1.8,3.9,4.2,7.5,7.3,10.5
				l20.3,20.3c0.8,0.8,0.8,2.2,0,3l0,0c-0.8,0.8-2.2,0.8-3,0l-20.3-20.3c-3-3-6.6-5.5-10.5-7.3l-7.9-3.6c-4.9-2.2-9.3-5.3-13.1-9.1
				l-17.1-17.1C179.8,129.5,176.5,119.7,180.5,115.6z"/>
			<path class="st1" d="M179.6,116.5c0.1,0.1,0.6-0.2,1.1-0.7s0.8-1,0.7-1.1s-0.6,0.2-1.1,0.7S179.5,116.4,179.6,116.5z"/>
			<path class="st4" d="M179.5,117.1c-0.1,0.7,0.2,1.5,0.9,2.2l41.3,41.3c1.3,1.3,3,1,4.1,0l28.3,28.3c0.7,0.7,1.5,0.9,2.3,0.9
				c-0.1,0.4-0.2,0.8-0.5,1.1l0,0c-0.8,0.8-2.2,0.8-3,0l-20.3-20.3c-3-3-6.6-5.5-10.5-7.3l-7.9-3.6c-4.9-2.2-9.3-5.3-13.1-9.1
				L184,133.5C180.2,129.9,177.2,121.7,179.5,117.1z"/>
			<path class="st5" d="M180.5,115.6c4-4,13.9-0.8,17.9,3.3l17.1,17.1c3.8,3.8,6.9,8.2,9.1,13.1l3.6,7.9c1.8,3.9,4.2,7.5,7.3,10.5
				l20.3,20.3c0.8,0.8,0.8,2.2,0,3l0,0c-0.8,0.8-2.2,0.8-3,0l-20.3-20.3c-3-3-6.6-5.5-10.5-7.3l-7.9-3.6c-4.9-2.2-9.3-5.3-13.1-9.1
				l-17.1-17.1C179.8,129.5,176.5,119.7,180.5,115.6z"/>
			<path class="st6" d="M226.5,161.5L226.5,161.5c1.1-1.1,1.3-3,0.4-4.5c-5.4-8.3-11.5-16.3-19.1-22.4c-3-2.1-7.2-2.3-8.8-0.7l0,0
				c-1.6,1.6-1.4,5.8,0.7,8.8c6.1,7.7,14.1,13.8,22.4,19.1C223.4,162.8,225.4,162.6,226.5,161.5z"/>
			<path class="st7" d="M224.6,158.8L224.6,158.8c0.9-0.9,1-2.5,0.2-3.8c-4.8-7.2-10.2-14.2-16.9-19.5c-2.6-1.9-6.2-2.2-7.5-0.8l0,0
				c-1.3,1.3-1.1,4.9,0.8,7.5c5.4,6.7,12.4,12.1,19.5,16.9C222,159.8,223.7,159.7,224.6,158.8z"/>
			<polygon class="st8" points="214.7,152.5 217.5,149.8 216.6,148.9 213.8,151.7 			"/>
			<polygon class="st8" points="216.3,153.9 218.8,151.4 218.1,150.6 215.5,153.2 			"/>
			<polygon class="st8" points="217.7,155.1 220,152.8 219.4,152.1 217,154.5 			"/>
			<g>
				<path class="st9" d="M198.4,128.8c-0.8,0.1-1.6,0.4-2.4,1l-9.6-9.6c3.2-2.5,7.5-1.3,11.5,1.2C198,123.9,198.2,126.4,198.4,128.8
					z"/>
				<path class="st9" d="M200,122.8c3.8,2.8,7.2,6.2,9,8l-0.8,1.9c0,0-3.8-3.4-7.7-3.9C200.2,126.8,200.1,124.8,200,122.8z"/>
				<path class="st9" d="M193.8,133.5c0.1-0.8,0.4-1.6,1-2.4l-9.6-9.6c-2.5,3.2-1.3,7.5,1.2,11.5
					C188.9,133.1,191.3,133.2,193.8,133.5z"/>
				<path class="st9" d="M187.8,135.1c2.8,3.8,6.2,7.2,8,9l1.9-0.8c0,0-3.4-3.8-3.9-7.7C191.8,135.3,189.8,135.2,187.8,135.1z"/>
			</g>
			<g>
				<path class="st10" d="M192.3,126.1l-5.8-5.8c3.2-2.5,7.5-1.3,11.5,1.2c0,1.5,0.1,3.1,0.2,4.6
					C196.2,126.1,194.2,126.1,192.3,126.1z"/>
				<path class="st10" d="M200.2,126.1c-0.1-1.1-0.2-2.1-0.2-3.2c1.4,1,2.7,2.1,4,3.2H200.2z"/>
				<path class="st10" d="M183.8,126.1c-0.1-1.6,0.3-3.2,1.4-4.5l4.5,4.5H183.8z"/>
				<path class="st10" d="M190.8,138.8c-0.8-0.9-1.5-1.8-2.2-2.7c1.8,0,3.6,0,5.3,0c0.2,0.9,0.5,1.9,1,2.7H190.8z"/>
			</g>
			<g>
				
					<rect x="194.4" y="144.9" transform="matrix(0.9945 -0.1049 0.1049 0.9945 -14.1788 22.0155)" class="st11" width="15.6" height="1.8"/>
				<polygon class="st12" points="158.8,151.3 160.7,151.1 162.8,150.9 164.4,150.7 166.3,150.5 201.6,146.8 192,144.2 165.9,147 
					164,147.2 162.5,147.3 160.4,147.5 158.4,147.8 				"/>
				
					<rect x="209.9" y="143.4" transform="matrix(0.9945 -0.1049 0.1049 0.9945 -13.9359 23.6331)" class="st11" width="15.6" height="1.8"/>
				<polygon class="st12" points="218.3,143.3 227.9,145.8 253.9,143.1 255.9,142.9 257.4,142.7 259.5,142.5 261.5,142.3 
					261.1,138.8 259.2,139 257.1,139.2 255.5,139.4 253.6,139.6 				"/>
			</g>
			<path class="st13" d="M207.2,147.8c1.5,1.5,4,1.5,5.5,0s1.5-4,0-5.5s-4-1.5-5.5,0S205.7,146.3,207.2,147.8z"/>
			<circle class="st14" cx="210" cy="145" r="2"/>
			<path class="st15" d="M209,145c0.3,0.3,0.9,0.3,1.2,0s0.3-0.9,0-1.2s-0.9-0.3-1.2,0S208.7,144.7,209,145z"/>
			<path class="st15" d="M255.3,197L255.3,197l-11.6-11.6c-0.6-0.6-1.5-0.6-2,0l0,0l11.6,11.6C253.9,197.6,254.8,197.6,255.3,197z"
				/>
		</g>
	</g>
	<g id="Слой_5_00000145044420349027226400000007972778917823498386_" class="st16">
		<g>
			<g class="st17">
				<ellipse class="st18" cx="210" cy="145.9" rx="52.5" ry="52.5"/>
				<path class="st19" d="M240.5,189.1c-23.8,16.8-56.9,11.1-73.7-12.7s-11.1-56.9,12.7-73.7s56.9-11.1,73.7,12.7
					S264.4,172.3,240.5,189.1z M180,103.3c-23.5,16.6-29.1,49.2-12.5,72.6s49.2,29.1,72.6,12.5s29.1-49.2,12.5-72.6
					S203.5,86.7,180,103.3z"/>
			</g>
			<path class="st20" d="M234.7,180.9c-19.3,13.6-46.1,9-59.7-10.3s-9-46.1,10.3-59.7s46.1-9,59.7,10.3S254,167.3,234.7,180.9z
				 M185.7,111.4c-19,13.4-23.6,39.8-10.2,58.8s39.8,23.6,58.8,10.2s23.6-39.8,10.2-58.8C231.1,102.5,204.7,98,185.7,111.4z"/>
			<path class="st20" d="M225.7,168.1c-12.4,8.7-29.5,5.8-38.3-6.6c-8.7-12.4-5.8-29.5,6.6-38.3c12.4-8.7,29.5-5.8,38.3,6.6
				C241,142.2,238.1,159.4,225.7,168.1z M194.3,123.6c-12.2,8.6-15.1,25.5-6.5,37.7s25.5,15.1,37.7,6.5s15.1-25.5,6.5-37.7
				S206.5,115,194.3,123.6z"/>
			<path class="st21" d="M199.7,152.6c-1.7-1.5-2.9-3.3-4.4-5c-0.5-0.5-1.3-0.2-1.8,0.2c-0.6,0.5-1,1.4-0.9,2.1
				c0.1,1.1,0.4,2.2,0.9,3.3c0-0.1-0.1-0.1-0.1-0.2c-2.4-3.8-4.1-8-5.3-12.3c-0.2-0.8-1-1.2-1.7-0.8c-0.8,0.4-1.3,1.4-1.2,2.3
				c0.6,9,4.6,17,9.6,24.4c-1.4-1.2-2.7-2.4-4-3.7c-3.8-3.8-7.3-7.9-10-12.6c-1.2-2.1-2.3-4.3-3.1-6.7c-0.2-0.6-0.4-1.3-0.6-1.9
				c-0.3-0.8-1-1.1-1.7-0.6s-1.1,1.6-0.9,2.4c1.1,3.3,1.4,6.8,2.4,10.1c1.1,3.5,2.4,6.9,4.1,10.2c2,3.9,4.8,7.5,7.8,10.7
				c-1.1-0.9-2.2-1.8-3.3-2.7c-5.8-5.1-10.4-11.4-13.7-18.3c-1.8-3.9-3.1-8-4-12.2c-0.1-0.7-0.9-1-1.5-0.7s-1.1,1.2-1,1.9
				c0.1,0.4,0.1,0.9,0.2,1.3c0,0.5,0,1.1,0,1.6c0,1,0,2,0.1,3c0.2,2.3,0.5,4.6,0.9,6.9c0.9,4.6,2.9,9.1,5.2,13.2
				c2.8,5,6.3,9.6,10.3,13.6c-2-1.7-4-3.5-5.8-5.4c-6.5-6.9-11.4-15.4-13.4-24.7c-0.5-2.5-0.8-4.9-0.9-7.6c0-1.2-0.1-2.4,0-3.6
				c0.1-1.3,0.1-2.6,0.3-4c0.1-0.8-0.7-0.8-1-0.2c-0.2,0.6-0.4,1.2-0.6,1.8c-0.2,0.6-0.5,1.3-0.6,1.9c-0.2,1.2-0.4,2.5-0.6,3.7
				c-0.3,2.5-0.2,4.9,0.1,7.5c0.7,5.1,2.3,10,4.5,14.6c4.4,8.8,11.2,16.6,19.3,22.2c5.7,3.9,12.3,6.6,19.1,7.7l0,0l0,0
				c0.1,0,0.2,0,0.3,0.1c0.7,0.1,1.3-0.9,1.4-1.4c0.2-0.6,0.1-1.5-0.6-1.8c-2-0.8-3.9-1.7-5.7-2.8c-1.9-1.1-3.7-2.3-5.4-3.5
				c-3.5-2.5-6.8-5.3-9.8-8.5s-5.6-6.8-7.9-10.6c-1.7-2.8-3.3-5.8-4.5-8.8c1.1,2.2,2.4,4.3,3.8,6.4c4.5,6.6,10.4,12.3,17.3,16.4
				c3.9,2.4,8.1,4.4,12.5,5.6c0.9,0.2,1.6-0.4,2-1.2c0.3-0.7,0.5-2-0.2-2.4c-5.6-3.6-11-7.6-15.6-12.5c-2.4-2.5-4.5-5.2-6.2-8.2
				c-0.8-1.3-1.5-2.7-2.1-4.2c0.2,0.2,0.3,0.4,0.5,0.6c3.3,4.3,7.1,8.3,11.4,11.7c2.3,1.9,4.8,3.5,7.5,4.8c0.7,0.3,1.4-0.4,1.7-0.9
				c0.4-0.6,0.6-1.7,0.1-2.3c-2.4-3.1-4.8-6.3-7-9.7c1.5,1.4,3.2,2.6,5,3.5c0.7,0.4,1.5-0.4,1.9-0.9c0.4-0.7,0.6-1.7,0.1-2.4
				c-1.5-2.2-2.9-4.4-4.1-6.7C200.2,155.3,200.7,153.4,199.7,152.6z"/>
			<path class="st21" d="M219.7,138.5c-0.8-2.1-2.2-3.9-3.2-5.8c-0.3-0.6,0.3-1.3,0.7-1.6c0.7-0.4,1.6-0.5,2.3-0.1
				c1,0.5,2,1.2,2.8,1.9c0-0.1-0.1-0.1-0.1-0.2c-2.8-3.5-6.2-6.5-9.9-9.1c-0.7-0.5-0.8-1.3-0.2-1.9c0.7-0.6,1.7-0.7,2.6-0.4
				c8.3,3.6,14.5,10,19.8,17.2c-0.6-1.7-1.4-3.3-2.1-5c-2.3-4.9-5-9.5-8.5-13.6c-1.6-1.9-3.3-3.6-5.3-5.1c-0.5-0.4-1.1-0.8-1.6-1.2
				c-0.6-0.5-0.7-1.3,0-1.8s1.8-0.5,2.5,0c2.7,2.2,6,3.6,8.7,5.7c2.9,2.2,5.7,4.6,8.2,7.3c3,3.2,5.4,7,7.4,11
				c-0.4-1.4-0.9-2.7-1.5-4c-2.9-7.1-7.2-13.6-12.7-19c-3.1-3-6.5-5.6-10.2-7.9c-0.6-0.4-0.6-1.2-0.1-1.6c0.5-0.5,1.5-0.7,2.2-0.3
				c0.4,0.2,0.8,0.4,1.2,0.6c0.5,0.2,1,0.4,1.5,0.6c0.9,0.3,1.9,0.7,2.8,1.1c2.1,1,4.2,2,6.2,3.2c4.1,2.5,7.6,5.8,10.7,9.4
				c3.8,4.4,6.9,9.1,9.4,14.3c-0.9-2.5-1.9-4.9-3.1-7.2c-4.3-8.4-10.7-15.9-18.7-20.9c-2.2-1.3-4.3-2.4-6.8-3.4
				c-1.1-0.4-2.3-0.9-3.5-1.2c-1.3-0.3-2.5-0.7-3.9-1c-0.8-0.2-0.5-1,0.2-1c0.6,0,1.2,0,1.9,0s1.4,0,2,0.1c1.2,0.2,2.5,0.4,3.7,0.7
				c2.5,0.6,4.7,1.4,7,2.6c4.6,2.3,8.6,5.5,12.2,9.2c6.9,7.1,11.9,16.1,14.4,25.6c1.8,6.7,2.1,13.8,0.8,20.6l0,0l0,0
				c0,0.1,0,0.2-0.1,0.3c-0.1,0.7-1.3,0.9-1.8,0.9c-0.7-0.1-1.4-0.4-1.5-1.2c-0.1-2.2-0.3-4.2-0.7-6.4c-0.4-2.1-0.9-4.2-1.5-6.3
				c-1.2-4.1-2.7-8.2-4.7-12.1c-2-3.9-4.6-7.5-7.3-11c-2.1-2.6-4.3-5-6.8-7.2c1.7,1.8,3.3,3.7,4.7,5.7c4.7,6.5,8.1,13.9,9.7,21.8
				c0.9,4.5,1.4,9.1,1.1,13.7c-0.1,0.9-0.9,1.4-1.7,1.5c-0.7,0.1-2-0.2-2.2-1c-1.6-6.5-3.5-12.9-6.5-18.8c-1.6-3.1-3.4-6-5.7-8.6
				c-1-1.2-2.1-2.3-3.2-3.3c0.1,0.2,0.3,0.4,0.4,0.7c2.9,4.6,5.4,9.5,7.2,14.6c1,2.8,1.7,5.7,1.9,8.7c0.1,0.7-0.8,1.2-1.4,1.4
				c-0.7,0.1-1.8,0-2.2-0.6c-2.2-3.3-4.3-6.7-6.7-9.9c0.8,1.9,1.4,3.8,1.6,5.9c0.1,0.8-0.9,1.3-1.5,1.5c-0.8,0.2-1.8,0-2.3-0.7
				c-1.5-2.1-3.2-4.2-4.9-6.2C222.1,139.8,220.2,139.7,219.7,138.5z"/>
		</g>
	</g>
</g>
</svg>
