<?xml version="1.0" encoding="utf-8"?>
<!-- Generator: Adobe Illustrator 27.1.1, SVG Export Plug-In . SVG Version: 6.00 Build 0)  -->
<svg version="1.1" xmlns="http://www.w3.org/2000/svg" xmlns:xlink="http://www.w3.org/1999/xlink" x="0px" y="0px"
	 viewBox="0 0 390.5 247.1" style="enable-background:new 0 0 390.5 247.1;" xml:space="preserve">
<style type="text/css">
	.st0{fill:#FFFFFF;stroke:#000000;stroke-width:3.3941;stroke-linecap:round;stroke-linejoin:round;stroke-miterlimit:10;}
</style>
<g id="Слой_3">
	<g id="Слой_3_00000115490948249377400760000005136581133489233040_">
		<path class="st0" d="M200.3,145.3c-4.9,17-22.6,16.7-22.6,16.7s-4.6-23.2-60-23.3c-69,0-69.8,44-69.8,44s-7.9,54.1,70.9,52.4
			c71.8-1.6,63-56,63-56S197.3,173.7,200.3,145.3z"/>
	</g>
</g>
<g id="Слой_2">
	<g>
		<path d="M74.4,181.2c-1.5,0-2.7-0.3-3.5-1c-0.7-0.6-1.1-1.2-1.1-1.9c0-0.4,0.1-0.7,0.3-0.9c0.2-0.2,0.5-0.4,0.9-0.4
			c0.5,0,0.9,0.3,1.2,0.8c0.3,0.7,1.1,1.1,2.3,1.1c1,0,2-0.2,2.9-0.7c1-0.5,1.5-1,1.5-1.5c0-0.7-0.3-1.2-0.9-1.5
			c-0.4-0.2-1.3-0.3-2.6-0.3c-1,0-1.9-0.2-2.7-0.6c-1.1-0.5-1.6-1.2-1.6-2.1c0-1.1,0.6-2.2,1.8-3.2c1.2-1,2.5-1.4,4-1.4
			c0.6,0,1.3,0.1,2.1,0.4c1.1,0.3,1.6,0.7,1.6,1.1c0,0.3-0.1,0.6-0.3,0.8c-0.2,0.3-0.5,0.4-0.9,0.4c-0.3,0-0.7-0.1-1.2-0.2
			c-0.6-0.1-1-0.2-1.2-0.2c-0.8,0-1.5,0.2-2.2,0.5c-0.7,0.4-1.1,0.8-1.1,1.2c0,0.2,0.1,0.4,0.3,0.6c0.2,0.1,0.5,0.2,1,0.3
			c0.8,0,1.5,0.1,2.3,0.1c1.3,0.1,2.3,0.5,3.1,1.1c0.8,0.7,1.3,1.7,1.3,2.9c0,1.5-0.9,2.7-2.6,3.5C77.6,180.9,76.1,181.2,74.4,181.2
			z"/>
		<path d="M87.3,181c-1.4,0-2.6-0.3-3.5-1c-1-0.7-1.5-1.8-1.5-3.1c0-1.5,0.4-2.7,1.2-3.8c0.9-1.1,2-1.7,3.5-1.7c1,0,1.9,0.2,2.6,0.5
			c0.9,0.4,1.3,1.1,1.3,2c0,0.6-0.4,1.2-1.1,1.7c-0.3,0.2-1,0.6-2,1l-3,1.3c0.3,0.3,0.6,0.5,1,0.7c0.4,0.2,0.9,0.2,1.4,0.2
			c0.8,0,1.5-0.2,2-0.5c0.5-0.3,0.9-0.4,1.2-0.4c0.6,0,0.9,0.3,0.9,0.9c0,0.7-0.5,1.2-1.5,1.6C89.1,180.8,88.2,181,87.3,181z
			 M87,173.5c-0.5,0-1,0.2-1.4,0.5c-0.4,0.4-0.7,0.9-0.9,1.6c0.7-0.3,1.3-0.6,2-0.9c0.8-0.4,1.4-0.7,1.9-1
			C88.2,173.6,87.7,173.5,87,173.5z"/>
		<path d="M97.4,181c-1.4,0-2.6-0.3-3.5-1c-1-0.7-1.5-1.8-1.5-3.1c0-1.5,0.4-2.7,1.2-3.8c0.9-1.1,2-1.7,3.5-1.7c1,0,1.9,0.2,2.6,0.5
			c0.9,0.4,1.3,1.1,1.3,2c0,0.6-0.4,1.2-1.1,1.7c-0.3,0.2-1,0.6-2,1l-3,1.3c0.3,0.3,0.6,0.5,1,0.7c0.4,0.2,0.9,0.2,1.4,0.2
			c0.8,0,1.5-0.2,2-0.5c0.5-0.3,0.9-0.4,1.2-0.4c0.6,0,0.9,0.3,0.9,0.9c0,0.7-0.5,1.2-1.5,1.6C99.2,180.8,98.3,181,97.4,181z
			 M97.1,173.5c-0.5,0-1,0.2-1.4,0.5c-0.4,0.4-0.7,0.9-0.9,1.6c0.7-0.3,1.3-0.6,2-0.9c0.8-0.4,1.4-0.7,1.9-1
			C98.3,173.6,97.8,173.5,97.1,173.5z"/>
		<path d="M119.6,173.2c-0.6,1.3-1.7,3.4-3,6.3c-0.8,1.5-1.3,2.8-1.7,3.8c-0.1,0.4-0.3,0.9-0.6,1.6c-0.2,0.6-0.6,0.8-1.1,0.8
			c-0.3,0-0.6-0.1-0.9-0.3c-0.3-0.2-0.4-0.5-0.4-0.8c0-0.5,0.6-2.2,1.9-4.9c-0.6-1.3-1.7-3.2-3.1-5.6c-0.1-0.2-0.3-0.5-0.4-0.7
			c-0.2-0.3-0.2-0.5-0.2-0.7c0-0.3,0.1-0.6,0.4-0.8c0.3-0.2,0.5-0.4,0.9-0.4c0.4,0,0.7,0.1,0.9,0.4c0.8,1.1,1.8,2.8,2.9,5
			c0.6-1.4,1-2.2,1.1-2.5c0.4-0.9,0.8-1.6,1.2-2.3c0.3-0.4,0.6-0.6,1-0.6c0.3,0,0.6,0.1,0.9,0.3c0.3,0.2,0.4,0.5,0.4,0.8
			C119.8,172.8,119.7,173,119.6,173.2z"/>
		<path d="M124.5,181.1c-1.1,0-2-0.4-2.8-1.1c-0.9-0.8-1.3-1.9-1.4-3.3c0-1.3,0.3-2.5,1.1-3.5c0.9-1.2,2.1-1.8,3.7-1.8
			c1.2,0,2.1,0.5,2.8,1.4c0.6,0.8,0.9,1.9,0.9,3.2c0,1.4-0.4,2.5-1.1,3.5C127,180.6,125.9,181.1,124.5,181.1z M125,173.8
			c-0.7,0-1.3,0.3-1.7,1c-0.4,0.6-0.5,1.2-0.5,2c0,0.7,0.2,1.2,0.6,1.6c0.3,0.3,0.7,0.5,1.1,0.5c0.5,0,1-0.2,1.3-0.5
			c0.4-0.4,0.7-1,0.7-1.7C126.6,174.8,126.1,173.8,125,173.8z"/>
		<path d="M138.1,175.5c0,0.4,0,1,0,1.8c0,0.8,0,1.4,0,1.8c0,0.1,0,0.3,0,0.6c0,0.2,0,0.4,0,0.6c0,0.3-0.1,0.6-0.4,0.8
			c-0.2,0.2-0.5,0.3-0.9,0.3c-0.5,0-0.8-0.2-1.1-0.7c-0.8,0.3-1.5,0.4-2.3,0.4c-0.8,0-1.5-0.2-2.1-0.5c-0.6-0.4-1-1-1.1-1.8
			c-0.2-1.5-0.3-2.8-0.3-3.9c0-0.8,0.1-1.6,0.3-2.6c0.1-0.7,0.5-1,1.2-1c0.3,0,0.6,0.1,0.9,0.3c0.2,0.2,0.4,0.5,0.4,0.8
			c0,0.3,0,0.7-0.1,1.2c-0.1,0.6-0.1,1-0.1,1.3c0,0.8,0,1.5,0.1,2.2c0.1,0.6,0.1,1.1,0.3,1.5c0.1,0.1,0.3,0.1,0.4,0.1
			c0.1,0,0.3,0.1,0.4,0.1c0.7,0,1.4-0.1,2.2-0.3c0-0.5,0-1,0-1.5c0-0.7,0-1.2,0-1.5c0-1.2,0.1-2.2,0.2-3.1c0.1-0.7,0.5-1.1,1.2-1.1
			c0.3,0,0.6,0.1,0.9,0.3c0.2,0.2,0.4,0.5,0.3,0.8C138.2,174.6,138.1,175.7,138.1,175.5z"/>
		<path d="M150.4,176.5c0,0.3,0,0.9,0,1.6c0,0.7,0,1.3,0,1.6c0,0.3-0.1,0.6-0.3,0.8c-0.2,0.2-0.5,0.3-0.9,0.3
			c-0.4,0-0.6-0.1-0.9-0.3c-0.2-0.2-0.3-0.5-0.3-0.8c0-0.3,0-0.9,0-1.6c0-0.7,0-1.3,0-1.6c0-0.5,0-1.2,0.1-2c0.1-0.8,0.1-1.4,0.1-2
			c0-0.3,0.1-0.6,0.3-0.8c0.2-0.2,0.5-0.3,0.9-0.3c0.4,0,0.6,0.1,0.9,0.3c0.2,0.2,0.3,0.5,0.3,0.8c0,0.5,0,1.2-0.1,2
			C150.4,175.3,150.4,176,150.4,176.5z M149.6,170c-0.4,0-0.7-0.1-1-0.4s-0.4-0.6-0.4-0.9c0-0.4,0.1-0.7,0.4-0.9
			c0.3-0.3,0.6-0.4,1-0.4s0.7,0.1,1,0.4c0.3,0.3,0.4,0.6,0.4,0.9c0,0.4-0.1,0.7-0.4,0.9C150.3,169.9,150,170,149.6,170z"/>
		<path d="M159.6,181.2c-0.7,0-1.1-0.4-1.2-1.1c-0.1-0.6-0.2-1.2-0.2-1.8c-0.1-0.6-0.1-1.3-0.1-1.8c0-0.2,0-0.4,0-0.8
			c0-0.4,0-0.6,0-0.8c0,0,0-0.1,0-0.3c0-0.2,0-0.3,0-0.4c0-0.5-0.1-0.7-0.4-0.7c-0.5,0-1,0.3-1.5,1c-0.5,0.6-0.9,1.5-1.1,2.5
			c0,0.2,0,0.5-0.1,0.8c0,0.3,0,0.5,0,0.8c0,0.2,0,0.4-0.1,0.8c0,0.3-0.1,0.6-0.1,0.8c0,0.3-0.1,0.6-0.3,0.9
			c-0.2,0.2-0.5,0.3-0.9,0.3c-0.4,0-0.6-0.1-0.9-0.3c-0.2-0.2-0.3-0.5-0.3-0.8c0-0.2,0-0.4-0.1-0.8c0-0.3-0.1-0.6-0.1-0.8
			c0-0.6,0-1.4,0.1-2.4c0.1-1,0.1-1.8,0.1-2.4c0-0.2,0-0.4,0-0.8c0-0.4,0-0.6,0-0.8c0-0.3,0.1-0.6,0.4-0.8c0.2-0.2,0.5-0.3,0.9-0.3
			c0.8,0,1.2,0.5,1.2,1.4l0,0.1c0.9-0.9,1.8-1.3,2.7-1.3c1.1,0,1.9,0.5,2.3,1.4c0.3,0.6,0.4,1.6,0.4,2.8v0.6c0,0.3,0,0.5,0,0.6
			c0,0.5,0.1,1.1,0.2,1.8c0.1,0.7,0.2,1.3,0.2,1.8c0,0.3-0.1,0.6-0.4,0.8C160.3,181.1,160,181.2,159.6,181.2z"/>
		<path d="M65.2,202c-0.7,0.3-1.8,0.6-3.2,0.8c-1.3,0.2-2.4,0.3-3.3,0.3c-1.4,0-2.2-0.6-2.2-1.9c0,0.1,0.1-0.8,0.2-2.8
			c0.2-2.6,0.2-5.4,0.2-8.5c0-0.3,0.1-0.6,0.3-0.9c0.2-0.2,0.5-0.4,0.9-0.4c0.4,0,0.6,0.1,0.9,0.4c0.2,0.2,0.4,0.5,0.4,0.9
			c0,3.1-0.1,6-0.2,8.7c-0.1,0.5-0.1,1.2-0.2,2.2c1.4,0,3.2-0.4,5.4-1c0.1,0,0.3-0.1,0.4-0.1c0.4,0,0.7,0.1,0.9,0.4
			c0.2,0.2,0.3,0.5,0.3,0.8C66,201.4,65.7,201.8,65.2,202z"/>
		<path d="M74.5,202.8c-0.3,0-0.7-0.3-1.3-0.8c-0.5,0.3-1,0.5-1.4,0.6c-0.4,0.1-0.8,0.2-1.1,0.2c-1.4,0-2.5-0.4-3.2-1.1
			c-0.7-0.8-1.1-1.9-1.1-3.4c0-1.4,0.5-2.6,1.6-3.6c1-1,2.3-1.5,3.8-1.5c0.6,0,1.2,0.2,1.9,0.5c0.9,0.4,1.3,0.8,1.3,1.3
			c0,0.2-0.1,0.4-0.2,0.6c-0.1,0.2-0.1,0.5-0.1,0.9c0,0.4,0,0.8,0,1.2c0,1.1,0.1,1.9,0.2,2.4c0,0.1,0.2,0.4,0.4,0.9
			c0.2,0.5,0.3,0.8,0.3,0.9c0,0.3-0.1,0.6-0.4,0.8C75.1,202.7,74.8,202.8,74.5,202.8z M72.3,196.8c0-0.2,0-0.4,0-0.6
			c0-0.2,0.1-0.5,0.1-0.8c-0.1-0.1-0.2-0.1-0.3-0.1c-0.1,0-0.2,0-0.2,0c-0.8,0-1.5,0.3-2.1,0.9c-0.6,0.6-0.9,1.4-0.9,2.2
			c0,0.8,0.1,1.4,0.4,1.8c0.3,0.4,0.7,0.6,1.3,0.6c0.4,0,0.7-0.1,1-0.2c0.3-0.1,0.6-0.3,0.9-0.5C72.4,198.6,72.3,197.5,72.3,196.8z"
			/>
		<path d="M83.1,195.9c-0.6,0-0.9-0.2-1.1-0.7c-0.2,0-0.5-0.1-0.7-0.1c-1.4,0-2.1,0.2-2.1,0.6c0,0.2,0.4,0.5,1.3,0.9
			c1.2,0.5,2,1,2.4,1.3c0.9,0.6,1.3,1.3,1.3,2.1c0,1-0.5,1.8-1.4,2.3c-0.8,0.4-1.7,0.6-2.8,0.6c-0.8,0-1.5-0.1-2.1-0.4
			c-0.9-0.3-1.3-0.8-1.3-1.5c0-0.6,0.4-0.9,1.1-0.9c0.3,0,0.7,0.1,1.2,0.3c0.5,0.2,0.9,0.3,1.2,0.3c1.2,0,1.8-0.2,1.8-0.7
			c0-0.3-0.4-0.6-1.2-1c-1.2-0.5-2-0.9-2.3-1.2c-0.8-0.6-1.2-1.3-1.2-2.1c0-1.2,0.6-2,1.9-2.4c0.7-0.2,1.9-0.4,3.4-0.4
			c0.6,0,1,0.1,1.3,0.2c0.4,0.2,0.6,0.6,0.6,1.1C84,195.3,83.7,195.9,83.1,195.9z"/>
		<path d="M92,195.2c-0.1,0-0.3,0-0.4,0c-0.2,0-0.3,0-0.4,0c-0.2,0-0.5,0-0.8,0.1c0.1,2.4,0.2,3.9,0.2,4.7c0,0.1,0,0.2,0,0.4
			c0,0.2,0,0.4,0,0.5c0,1.4-0.4,2-1.3,2c-0.3,0-0.6-0.1-0.8-0.3c-0.3-0.2-0.4-0.5-0.4-0.8c0-0.2,0-0.5,0-1c0-0.4,0-0.7,0-1
			c0-0.7-0.1-2.2-0.2-4.6c-0.4,0-0.9-0.1-1.7-0.1c-0.7-0.1-1.1-0.5-1.1-1.1c0-0.3,0.1-0.6,0.3-0.8c0.2-0.2,0.5-0.3,0.9-0.3
			c0.2,0,0.7,0,1.5,0.1c0-0.2,0-0.5,0-0.9c0-0.4,0-0.7,0-0.9c0-0.3,0.1-0.6,0.4-0.8s0.5-0.3,0.9-0.3c0.9,0,1.3,0.7,1.3,2.2l0,0.7
			c0.4-0.1,0.7-0.1,0.9-0.1c0.7,0,1.1,0,1.4,0.1c0.5,0.2,0.7,0.5,0.7,1.1c0,0.3-0.1,0.6-0.3,0.8C92.6,195.1,92.3,195.2,92,195.2z"/>
		<path d="M111.1,202.4c-0.3,0-0.6-0.1-0.9-0.4c-1.8-1.7-3.7-2.8-5.9-3.5c0.1,1.7,0.1,2.7,0.1,2.9c0,0.3-0.1,0.6-0.4,0.9
			c-0.2,0.2-0.5,0.3-0.9,0.3c-0.4,0-0.6-0.1-0.9-0.3c-0.2-0.2-0.4-0.5-0.4-0.9c0-0.4,0-1.1,0-2c0-0.9,0-1.5,0-2l0-7.1
			c0-0.4,0.1-0.7,0.3-1c0.3-0.4,0.7-0.6,1.2-0.5c1.4,0.1,2.2,0.2,2.2,0.2c0.8,0.1,1.5,0.3,2.1,0.6c2.5,1.3,3.8,2.8,3.8,4.7
			c0,0.8-0.3,1.5-0.8,2c-0.5,0.6-1.3,1.1-2.4,1.5c1.6,0.9,2.7,1.8,3.5,2.7c0.2,0.2,0.3,0.5,0.3,0.8c0,0.3-0.1,0.6-0.4,0.9
			C111.8,202.3,111.5,202.4,111.1,202.4z M105.5,191.3c0,0-0.4,0-1-0.1v4.7c0.1,0,0.3,0,0.4,0c1.4,0,2.5-0.2,3.2-0.5
			c0.3-0.2,0.6-0.4,0.8-0.6s0.4-0.4,0.4-0.6c0-0.7-0.4-1.3-1.3-1.9C107.2,191.7,106.4,191.4,105.5,191.3z"/>
		<path d="M118.1,202.7c-1.4,0-2.6-0.3-3.5-1c-1-0.7-1.5-1.8-1.5-3.1c0-1.5,0.4-2.7,1.2-3.8c0.9-1.1,2-1.7,3.5-1.7
			c1,0,1.9,0.2,2.6,0.5c0.9,0.4,1.3,1.1,1.3,2c0,0.6-0.4,1.2-1.1,1.7c-0.3,0.2-1,0.6-2,1l-3,1.3c0.3,0.3,0.6,0.5,1,0.7
			c0.4,0.2,0.9,0.2,1.4,0.2c0.8,0,1.5-0.2,2-0.5c0.5-0.3,0.9-0.4,1.2-0.4c0.6,0,0.9,0.3,0.9,0.9c0,0.7-0.5,1.2-1.5,1.6
			C119.9,202.5,119,202.7,118.1,202.7z M117.9,195.2c-0.5,0-1,0.2-1.4,0.5c-0.4,0.4-0.7,0.9-0.9,1.6c0.7-0.3,1.3-0.6,2-0.9
			c0.8-0.4,1.4-0.7,1.9-1C119,195.3,118.5,195.2,117.9,195.2z"/>
		<path d="M126.1,194.5c0.9-1,1.7-1.5,2.5-1.5c0.9,0,1.6,0.3,2,1c0.4-0.3,0.8-0.6,1.2-0.7c0.4-0.2,0.9-0.2,1.4-0.2
			c1.2,0,1.9,0.6,2.3,1.7c0.1,0.2,0.2,1,0.4,2.4c0.2,1,0.4,2.5,0.6,4.8c0,0.3-0.1,0.6-0.3,0.8c-0.3,0.2-0.6,0.3-0.9,0.3
			c-0.7,0-1.1-0.3-1.2-1c-0.1-0.6-0.2-1.5-0.3-2.6c-0.1-1.2-0.2-2.1-0.3-2.6c-0.2-1.1-0.4-1.6-0.6-1.6c-0.1,0-0.4,0.1-0.9,0.4
			c-0.5,0.3-0.8,0.5-1.1,0.7c0,0.7,0.1,1.6,0.2,2.9c0.2,1.3,0.2,2.3,0.2,2.9c0,0.3-0.1,0.6-0.3,0.8c-0.2,0.2-0.5,0.3-0.9,0.3
			c-0.4,0-0.6-0.1-0.9-0.3c-0.2-0.2-0.3-0.5-0.3-0.8c0-0.7-0.1-1.7-0.2-3c-0.1-1.3-0.2-2.3-0.2-3c0-0.4,0-0.7-0.1-0.9
			c-0.7,0.4-1.4,1.1-2.1,2c0,0-0.1,0.1-0.2,0.2c0,1.2,0,2.1,0,2.8c0,0.2,0,0.4,0,0.7c0,0.3,0,0.5,0,0.6c0,0.3-0.1,0.6-0.4,0.8
			c-0.2,0.2-0.5,0.3-0.9,0.3c-0.5,0-0.8-0.2-1-0.7c-0.1-0.3-0.2-0.8-0.2-1.4v-3.3c0-0.3,0-0.7,0-1.3c0-0.6,0-1,0-1.3
			c0-0.5,0.1-1,0.3-1.4c0.2-0.5,0.6-0.8,1-0.8c0.3,0,0.6,0.1,0.9,0.4c0.3,0.3,0.4,0.5,0.4,0.8C126.1,193.6,126.1,193.9,126.1,194.5z
			"/>
		<path d="M145.4,202.8c-0.3,0-0.7-0.3-1.3-0.8c-0.5,0.3-1,0.5-1.4,0.6s-0.8,0.2-1.1,0.2c-1.4,0-2.5-0.4-3.2-1.1
			c-0.7-0.8-1.1-1.9-1.1-3.4c0-1.4,0.5-2.6,1.6-3.6c1-1,2.3-1.5,3.8-1.5c0.6,0,1.2,0.2,1.9,0.5c0.9,0.4,1.3,0.8,1.3,1.3
			c0,0.2-0.1,0.4-0.2,0.6c-0.1,0.2-0.1,0.5-0.1,0.9c0,0.4,0,0.8,0,1.2c0,1.1,0.1,1.9,0.2,2.4c0,0.1,0.2,0.4,0.4,0.9
			c0.2,0.5,0.3,0.8,0.3,0.9c0,0.3-0.1,0.6-0.4,0.8C146,202.7,145.8,202.8,145.4,202.8z M143.3,196.8c0-0.2,0-0.4,0-0.6
			s0.1-0.5,0.1-0.8c-0.1-0.1-0.2-0.1-0.3-0.1c-0.1,0-0.2,0-0.2,0c-0.8,0-1.5,0.3-2.1,0.9c-0.6,0.6-0.9,1.4-0.9,2.2
			c0,0.8,0.1,1.4,0.4,1.8c0.3,0.4,0.7,0.6,1.3,0.6c0.4,0,0.7-0.1,1-0.2c0.3-0.1,0.6-0.3,0.9-0.5
			C143.3,198.6,143.3,197.5,143.3,196.8z"/>
		<path d="M150.6,198.2c0,0.3,0,0.9,0,1.6c0,0.7,0,1.3,0,1.6c0,0.3-0.1,0.6-0.3,0.8c-0.2,0.2-0.5,0.3-0.9,0.3
			c-0.4,0-0.6-0.1-0.9-0.3c-0.2-0.2-0.3-0.5-0.3-0.8c0-0.3,0-0.9,0-1.6c0-0.7,0-1.3,0-1.6c0-0.5,0-1.2,0.1-2c0.1-0.8,0.1-1.4,0.1-2
			c0-0.3,0.1-0.6,0.3-0.8c0.2-0.2,0.5-0.3,0.9-0.3c0.4,0,0.6,0.1,0.9,0.3c0.2,0.2,0.3,0.5,0.3,0.8c0,0.5,0,1.2-0.1,2
			C150.7,197,150.6,197.7,150.6,198.2z M149.9,191.7c-0.4,0-0.7-0.1-1-0.4c-0.3-0.3-0.4-0.6-0.4-0.9c0-0.4,0.1-0.7,0.4-0.9
			c0.3-0.3,0.6-0.4,1-0.4s0.7,0.1,1,0.4c0.3,0.3,0.4,0.6,0.4,0.9c0,0.4-0.1,0.7-0.4,0.9C150.6,191.6,150.3,191.7,149.9,191.7z"/>
		<path d="M159.9,202.9c-0.7,0-1.1-0.4-1.2-1.1c-0.1-0.6-0.2-1.2-0.2-1.8c-0.1-0.6-0.1-1.3-0.1-1.8c0-0.2,0-0.4,0-0.8
			c0-0.4,0-0.6,0-0.8c0,0,0-0.1,0-0.3c0-0.2,0-0.3,0-0.4c0-0.5-0.1-0.7-0.4-0.7c-0.5,0-1,0.3-1.5,1s-0.9,1.5-1.1,2.5
			c0,0.2,0,0.5-0.1,0.8c0,0.3,0,0.5,0,0.8c0,0.2,0,0.4-0.1,0.8c0,0.3-0.1,0.6-0.1,0.8c0,0.3-0.1,0.6-0.3,0.9
			c-0.2,0.2-0.5,0.3-0.9,0.3c-0.4,0-0.6-0.1-0.9-0.3c-0.2-0.2-0.3-0.5-0.3-0.8c0-0.2,0-0.4-0.1-0.8c0-0.3-0.1-0.6-0.1-0.8
			c0-0.6,0-1.4,0.1-2.4c0.1-1,0.1-1.8,0.1-2.4c0-0.2,0-0.4,0-0.8c0-0.4,0-0.6,0-0.8c0-0.3,0.1-0.6,0.4-0.8c0.2-0.2,0.5-0.3,0.9-0.3
			c0.8,0,1.2,0.5,1.2,1.4l0,0.1c0.9-0.9,1.8-1.3,2.7-1.3c1.1,0,1.9,0.5,2.3,1.4c0.3,0.6,0.4,1.6,0.4,2.8v0.6c0,0.3,0,0.5,0,0.6
			c0,0.5,0.1,1.1,0.2,1.8c0.1,0.7,0.2,1.3,0.2,1.8c0,0.3-0.1,0.6-0.4,0.8C160.5,202.8,160.2,202.9,159.9,202.9z"/>
		<path d="M168.6,195.9c-0.6,0-0.9-0.2-1.1-0.7c-0.2,0-0.5-0.1-0.7-0.1c-1.4,0-2.1,0.2-2.1,0.6c0,0.2,0.4,0.5,1.3,0.9
			c1.2,0.5,2,1,2.4,1.3c0.9,0.6,1.3,1.3,1.3,2.1c0,1-0.5,1.8-1.4,2.3c-0.8,0.4-1.7,0.6-2.8,0.6c-0.8,0-1.5-0.1-2.1-0.4
			c-0.9-0.3-1.3-0.8-1.3-1.5c0-0.6,0.4-0.9,1.1-0.9c0.3,0,0.7,0.1,1.2,0.3c0.5,0.2,0.9,0.3,1.2,0.3c1.2,0,1.8-0.2,1.8-0.7
			c0-0.3-0.4-0.6-1.2-1c-1.2-0.5-2-0.9-2.3-1.2c-0.8-0.6-1.2-1.3-1.2-2.1c0-1.2,0.6-2,1.9-2.4c0.7-0.2,1.9-0.4,3.4-0.4
			c0.6,0,1,0.1,1.3,0.2c0.4,0.2,0.6,0.6,0.6,1.1C169.5,195.3,169.2,195.9,168.6,195.9z"/>
		<path d="M172.4,202.9c-0.4,0-0.7-0.2-1-0.6c-0.3-0.3-0.4-0.7-0.4-1c0-0.3,0.1-0.6,0.4-0.8c0.2-0.2,0.5-0.3,0.8-0.3
			c0.4,0,0.7,0.2,1,0.6c0.3,0.3,0.4,0.7,0.4,1c0,0.3-0.1,0.6-0.4,0.8C173,202.8,172.7,202.9,172.4,202.9z M172.4,199.7
			c-0.3,0-0.6-0.1-0.8-0.3c-0.2-0.2-0.3-0.5-0.3-0.8c0-0.2,0-0.6,0-1c0-0.5,0-0.8,0-1c0-0.8,0-2,0-3.7c0-1.6,0-2.8,0-3.7
			c0-0.3,0.1-0.6,0.3-0.8c0.2-0.2,0.5-0.3,0.8-0.3s0.6,0.1,0.8,0.3c0.2,0.2,0.3,0.5,0.3,0.8v9.4c0,0.3-0.1,0.6-0.3,0.8
			C173.1,199.6,172.8,199.7,172.4,199.7z"/>
	</g>
</g>
</svg>
