<?xml version="1.0" encoding="utf-8"?>
<!-- Generator: Adobe Illustrator 27.1.1, SVG Export Plug-In . SVG Version: 6.00 Build 0)  -->
<svg version="1.1" id="Слой_1" xmlns="http://www.w3.org/2000/svg" xmlns:xlink="http://www.w3.org/1999/xlink" x="0px" y="0px"
	 viewBox="0 0 310.8 538.5" style="enable-background:new 0 0 310.8 538.5;" xml:space="preserve">
<style type="text/css">
	.st0{fill:#160D03;}
	.st1{opacity:5.000000e-02;}
	.st2{opacity:0.55;fill:#C08657;}
	.st3{opacity:0.28;fill:#E39E67;}
	.st4{opacity:0.18;fill:#C08657;}
</style>
<g id="Слой_1_00000148642185261824383580000006336488861983552385_">
	<g id="Слой_6">
		<rect x="-4.3" y="-2.3" class="st0" width="319.6" height="553.2"/>
	</g>
</g>
<g id="Слой_4_00000024716186299204692160000016162445236374901929_" class="st1">
	<path class="st2" d="M247.2,19.4c1.1,45,16.2,89.7,19.5,134.7c1.6,22,1,44.1-2.1,66.1c-3.1,22.4-9.1,44.6-9.7,67
		c-0.6,22.5,2.1,44.8,4.2,67.3c2.2,22.8,3,45.6,2.6,68.4c-0.8,42.8-6.2,85.5-15.4,128h69V-2.3H248C247.5,4.9,247,12.2,247.2,19.4z"
		/>
	<path class="st2" d="M153.6,153.5c1.2,8.7,2.6,17.4,4.4,26.1c1.7,8,4.1,16,6.2,24c3.6,13.7,6.1,27.9,15.7,41.1
		c0.3-1.3,0.6-2.6,0.9-3.9c3-17.5-1.9-35-4.2-52.5c-1.2-8.9-1.2-17.9-1.6-26.8c-0.4-9.6-0.8-19.2-1.1-28.8
		c-0.3-9.6-0.6-19.2-0.7-28.8c-0.2-9.6-0.5-19.2,0.2-28.9c1.4-19.1,6.5-38.1,8-57.2c0.5-6.7,0.4-13.4,0-20.1h-33.8
		c0,17.7,0,35.5,0.2,53.2C148.2,85.1,149.1,119.3,153.6,153.5z"/>
	<path class="st3" d="M231.8,353.7c0.1-0.7,0.2-1.4,0.3-2.1c2.8-19.2,6.1-38.5,10.5-57.7c4.3-18.6,9.3-37.1,11.8-55.8
		c4.7-35.6,2.5-71.7-14.8-106.7c-0.4,20.7-0.2,41.4,0,62.2c0.1,20.1,0.1,40.1-0.9,60.2c-1,20-4.7,39.8-6.7,59.8
		C230.6,326.9,230.9,340.3,231.8,353.7z"/>
	<path class="st2" d="M218.4,482.7c-1.9-9.3-3.5-18.6-3.8-27.9c-0.4-9.3-0.6-18.7-1-28c-0.3-9.3-0.8-18.5-1.4-27.8
		c-0.7-9.2-2.1-18.5-2.8-27.7c-1.3-17,0.9-34.1-4.6-51c-8.3,15.7-3,32.3-3.2,48.3c-0.2,17.1-4.1,34.1-7.5,51.2
		c-3.4,17.1-5.1,34.3-5.7,51.5c-1,26.6,0.5,53.1,2,79.7h41.7c-0.4-4.3-0.9-8.6-1.6-12.8C227.8,519.6,222.1,501.2,218.4,482.7z"/>
	<path class="st4" d="M61.4,519.8c-0.4-13.9,0.5-27.7,2.8-41.6c2.3-13.7,6.3-27.3,7.3-41.1c2-27.5-1.8-55.1,5.6-82.5
		c0.2-0.7,2.2-0.9,2.7-0.2c7.5,10.5,12.6,21.2,16.4,32.1c13.2,38.3,10.4,78.6,44.7,114.8c3-5.6,1.5-11.8-0.1-17.4
		c-1.8-6.5-4.3-12.9-4.9-19.4c-1.6-17.6-2.1-35.2-2.6-52.7c-1-31.4,0.1-62.7,1.9-94.1c1.8-31.8,0.9-63.3-3.6-95
		c-4.4-31.3-10.8-62.6-10.2-94c0.3-15.8,3-31.6,3.3-47.4c0.2-14.5-0.2-29.1,0.3-43.6c-5.9,8.5-7.1,17.5-9.9,26.2
		c-13.1,41.2-29.1,82.2-43.8,123.3c-0.3,0.7-2.9,0.5-2.7-0.2c3.5-17.2-3.4-34.4-5-51.5c-3-30.7-0.3-61.5-2.8-92.2
		c-1.2-15.2-2.6-30.5-2.7-45.7H4.5C4,12.4,4.8,27.1,5.5,41.7C5.9,51.6,7,61.6,6,71.4c-1,9.2-4,18.3-6.5,27.4
		C-3.1,107.9-5,117-4,126.1c1.1,9.8,3.6,19.7,5.5,29.5c3.7,19.5,7.2,39.1,9.5,58.6c4.4,38.9,7.8,77.9,1.7,116.7
		c-3.1,19.2-7,38.5-6.2,57.8c0.7,19.2,1.4,38.4,0.2,57.6c-2.2,34.8-15.8,69.8-7.3,104.5h65.1C62.7,540.6,61.7,530.2,61.4,519.8z"/>
	<path class="st2" d="M107.6,238.6c-2.3,13.2-5.7,26.4-6.6,39.7c-0.9,13.5,0.7,27,2.6,40.4c0.2,1.5,0.5,2.9,0.7,4.4
		c1.6-7.5,3.5-15.1,5.6-22.6c3.2-11.5,6.8-22.9,9.5-34.4c5.2-22.1,7.6-45.3-6.2-66.9c-0.3,0.6-0.6,1.3-0.8,1.9
		C108,213.5,109.8,226.1,107.6,238.6z"/>
	<path class="st4" d="M44.5,158.9c-2.1-6.9-4.4-13.8-6.5-20.6c0.2,14.1,1,28.1,3.2,42.2c2.7,17.2,7.6,34.4,16.1,51.3
		c2-7.7,1.3-15.5-0.1-23.2c-1.5-8.2-4.1-16.4-6.4-24.5C48.5,175.6,47,167.2,44.5,158.9z"/>
	<path class="st4" d="M53.1,314.3c-3,8.9-5.3,17.8-7,26.7c-3.4,17.8-4.6,35.6-4.7,53.4c0,2.2,0,4.5,0,6.7c0,0,0-0.1,0-0.1
		c1.6-4.8,3.4-9.6,5.2-14.5c3.3-8.4,7.1-16.8,9.3-25.3c2.2-8.4,3.2-17,2.7-25.5C58.2,328.6,56.6,321.3,53.1,314.3z"/>
	<path class="st3" d="M21.7,550.5c9-38.5,13.2-77.3,11.9-116.1c-0.7-19.4-3.9-38.8-4.7-58.3c-0.8-19.5,0.2-39.1,1.5-58.6
		c1.4-19.8,3.1-39.6,3.6-59.4c0.6-19.7-1.2-39.3-4.4-59c-3.2-19.8-7.2-39.6-9.3-59.5c-2-19.7-1-39.4,0.6-59.1
		c1.6-19.9,3.6-39.8,7.3-59.7c1.5-7.7,3.3-15.5,3.5-23.2H4.5C4,12.4,4.8,27.1,5.5,41.7C5.9,51.6,7,61.6,6,71.4
		c-1,9.2-4,18.3-6.5,27.4C-3.1,107.9-5,117-4,126.1c1.1,9.8,3.6,19.7,5.5,29.5c3.7,19.5,7.2,39.1,9.5,58.6
		c4.4,38.9,7.8,77.9,1.7,116.7c-3.1,19.2-7,38.5-6.2,57.8c0.7,19.2,1.4,38.4,0.2,57.6c-2.2,34.8-15.8,69.8-7.3,104.5h22.4
		C21.7,550.8,21.7,550.6,21.7,550.5z"/>
</g>
</svg>
