<?xml version="1.0" encoding="utf-8"?>
<!-- Generator: Adobe Illustrator 27.1.1, SVG Export Plug-In . SVG Version: 6.00 Build 0)  -->
<svg version="1.1" id="Слой_1" xmlns="http://www.w3.org/2000/svg" xmlns:xlink="http://www.w3.org/1999/xlink" x="0px" y="0px"
	 viewBox="0 0 310.8 538.5" style="enable-background:new 0 0 310.8 538.5;" xml:space="preserve">
<style type="text/css">
	.st0{opacity:0.9;fill:#56250E;enable-background:new    ;}
	.st1{fill:none;stroke:#000000;stroke-width:0.75;stroke-linecap:round;stroke-linejoin:round;stroke-miterlimit:10;}
	.st2{opacity:0.8;fill:#784623;enable-background:new    ;}
	.st3{opacity:0.8;fill:#56250E;enable-background:new    ;}
	.st4{fill:none;stroke:#000000;stroke-width:0.843;stroke-linecap:round;stroke-linejoin:round;stroke-miterlimit:10;}
	.st5{opacity:0.8;}
	.st6{fill:#784623;}
	.st7{opacity:0.5;}
	.st8{fill:#56250E;}
	.st9{opacity:0.6;}
	.st10{fill:none;stroke:#A65E2D;stroke-width:3.372;stroke-linecap:round;stroke-linejoin:round;stroke-miterlimit:10;}
	.st11{opacity:0.78;fill:#56250E;enable-background:new    ;}
	.st12{fill:none;stroke:#000000;stroke-width:0.7949;stroke-linecap:round;stroke-linejoin:round;stroke-miterlimit:10;}
	.st13{fill:none;stroke:#000000;stroke-width:0.7949;stroke-miterlimit:10;}
	.st14{fill:none;stroke:#A65E2D;stroke-width:3.1796;stroke-linecap:round;stroke-linejoin:round;stroke-miterlimit:10;}
	.st15{fill:#231F20;}
	.st16{fill:#FF5757;stroke:#000000;stroke-miterlimit:10;}
	.st17{fill:#FFFFFF;}
</style>
<g id="Слой_2_00000101808252425812813230000006198216738594872500_">
	<g id="Слой_37">
		<g id="Слой_33__x28_копия_x29_">
			<polygon class="st0" points="193.7,314.6 196,317.4 196.8,329.6 180.2,333.5 178,331.2 194.2,327.7 			"/>
			<polygon class="st1" points="193.7,314.6 196,317.4 196.8,329.6 180.2,333.5 178,331.2 194.2,327.7 			"/>
		</g>
		<g id="Слой_33">
			<polygon class="st2" points="193.7,314.6 178,331.2 194.2,327.7 			"/>
			<polygon class="st1" points="193.7,314.6 178,331.2 194.2,327.7 			"/>
		</g>
		<g id="Слой_35__x28_копия_x29_">
			<polygon class="st0" points="178,346.2 169.4,348.5 166.8,345.9 175.5,343.9 179.4,336.9 181.6,339.1 			"/>
			<polygon class="st1" points="178,346.2 169.4,348.5 166.8,345.9 175.5,343.9 179.4,336.9 181.6,339.1 			"/>
		</g>
		<g id="Слой_35">
			<polygon class="st2" points="172.3,338.5 166.8,345.9 175.5,343.9 179.4,336.9 			"/>
			<polygon class="st1" points="172.3,338.5 166.8,345.9 175.5,343.9 179.4,336.9 			"/>
		</g>
	</g>
	<g id="Слой_14_копия_2">
		<g id="Слой_3_копия_8">
			<path class="st3" d="M113.7,324l8.3-0.2c0,0,1.6,1.2,3.4,2.3c1.5-0.3,2.6-0.5,2.6-0.5l2.7,1.6l4.9-5.7l0.8,1.1l5.8-3.5L140,318
				l-5.8,3.3l-10.6-2.3L113.7,324z"/>
			<path class="st4" d="M113.7,324l8.3-0.2c0,0,1.6,1.2,3.4,2.3c1.5-0.3,2.6-0.5,2.6-0.5l2.7,1.6l4.9-5.7l0.8,1.1l5.8-3.5L140,318
				l-5.8,3.3l-10.6-2.3L113.7,324z"/>
		</g>
		<g id="Слой_3_копия_7" class="st5">
			<g>
				<path class="st6" d="M160.2,323.5c0,0-5,42.9-6.3,53.8c-1.3,11-10.3,10-10.3,10s-20.7-2.4-29.1-3.4s-6.5-11.5-6.5-11.5l5.6-48.4
					l8.3-0.2c0,0,1.6,1.2,3.4,2.3c1.5-0.3,2.6-0.5,2.6-0.5l2.7,1.6l4.9-5.7l0.8,1.1l5.8-3.5l0.7,0.8l2.4-1.3l1,1.9l4.4-2
					L160.2,323.5z"/>
			</g>
		</g>
		<g id="Слой_9_копия_2" class="st7">
			<path class="st8" d="M108.2,377.8l17.2,2c0,0,13.2,2.1,14.9-12.4s5.5-47.5,5.5-47.5l0.4,0.4c0,0,3.1-1.1,4.4-2
				c4.8,2.5,9.6,5,9.6,5c-2.5,21.5-6.2,53.3-6.2,53.3s-0.4,12.4-12.1,10.5c-5.4-0.2-27.9-3.2-27.9-3.2S109.4,383.7,108.2,377.8z"/>
		</g>
		<g id="Слой_3_копия_6">
			<path class="st4" d="M160.2,323.5c0,0-5,42.9-6.3,53.8c-1.3,11-10.3,10-10.3,10s-20.7-2.4-29.1-3.4s-6.5-11.5-6.5-11.5l5.6-48.4
				l8.3-0.2c0,0,1.6,1.2,3.4,2.3c1.5-0.3,2.6-0.5,2.6-0.5l2.7,1.6l4.9-5.7l0.8,1.1l5.8-3.5l0.7,0.8l2.4-1.3l1,1.9l4.4-2L160.2,323.5
				z"/>
		</g>
		<g id="Слой_7__x28_копия_x29_" class="st9">
			<line class="st10" x1="117" y1="329.6" x2="113" y2="364.2"/>
		</g>
	</g>
	<g id="Слой_14__x28_копия_x29_">
		<g id="Слой_3_копия_5" class="st5">
			<path class="st6" d="M215.7,241.1l-20,23.1c0,0-6.5,6.2-6.3,12.5c1,8.3-2.5,12-2.5,12l-13.6,13.9c0,0-1.9-2-3.4-3.5
				c-0.7-1.7-1.4-3.1-1.4-3.1c-1.4-1-4.6-2.1-4.6-2.1c-0.2-3.1-0.3-5.8-0.5-9.6c-3.9,0.6-10.3,1.6-15.8,2.4c-0.8-1.8-1.2-3-1.2-3
				s-1.4-0.6-2.6-0.9c-0.4-2.1-2.1-5.3-2.1-5.3l-5-3.5l1.1-1.1l15.4-15.7c0,0,3.9-4.9,11.2-4.2c7.3,0.6,13.8-5.3,13.8-5.3l23.6-20.4
				"/>
		</g>
		<g id="Слой_4__x28_копия2_x29_" class="st5">
			<path class="st6" d="M201.7,224.9c0,0-1.1,0.6-0.3,1.9c0.6,1,4.4,6.4,14.1,14.3c1.6,1.1,2.2-0.1,2.2-0.1s3.1-3,3.1-5.1
				c-6.6-5.2-14.1-13.8-14.1-13.8S205.2,221.3,201.7,224.9z"/>
		</g>
		<g id="Слой_5__x28_копия2_x29_" class="st5">
			<path class="st6" d="M206.4,221.9c0,0,0.7-2.4,2.9-1.3c7.6,8.6,13,13,13,13s0.9,2.5-1.5,2.3"/>
		</g>
		<g id="Слой_9__x28_копия_x29_" class="st7">
			<path class="st8" d="M163.7,291.2l8-8.1c0,0,4.6-4.5,6.5-10.3c0.8-2.4,6.3-7.6,6.3-7.6l27.4-27c0,0,3.7-0.2,5.4-5
				c1.4-0.3,1.8-2.2,1.8-2.2s1.8,1.7,3.1,2.8c0.7,2.8-1.5,2.3-1.5,2.3s-0.1,2.2-3,5c-0.7,0.6-1,1-2.1,0.2
				c-6.1,7.1-20.5,23.6-20.5,23.6s-6.2,5.7-5.8,12.6c0.6,6.8-1.4,10.3-3,11.9c-0.6,0.6-5.6,5.6-13.2,13.5c-1.2-1.2-2.2-2.2-3.4-3.5
				c-0.8-1.4-1.4-3.1-1.4-3.1c-1.1-0.7-2.7-1.4-4.7-2.4C163.5,292.8,163.7,291.2,163.7,291.2z"/>
		</g>
		<g id="Слой_3_копия_3">
			<path class="st11" d="M136.4,274.1l5,3.5c0,0,0.9,1.7,1.5,3.5l-1.9-0.5L136.4,274.1z"/>
			<path class="st12" d="M136.4,274.1l5,3.5c0,0,0.9,1.7,1.5,3.5l-1.9-0.5L136.4,274.1z"/>
		</g>
		<g id="Слой_3_копия_4">
			<path class="st3" d="M168.2,296.1c-1.4-1-4.6-2.1-4.6-2.1c-0.2-3.1-0.3-5.8-0.5-9.6c-2.8,0.4-6.8,1.1-10.9,1.7l3.3,6.9
				L168.2,296.1z"/>
			<path class="st12" d="M168.2,296.1c-1.4-1-4.6-2.1-4.6-2.1c-0.2-3.1-0.3-5.8-0.5-9.6c-2.8,0.4-6.8,1.1-10.9,1.7l3.3,6.9
				L168.2,296.1z"/>
		</g>
		<g id="Слой_3_копия_2">
			<path class="st12" d="M215.7,241.1l-20,23.1c0,0-6.5,6.2-6.3,12.5c1,8.3-2.5,12-2.5,12l-13.6,13.9c0,0-1.9-2-3.4-3.5
				c-0.7-1.7-1.4-3.1-1.4-3.1c-1.4-1-4.6-2.1-4.6-2.1c-0.2-3.1-0.3-5.8-0.5-9.6c-3.9,0.6-10.3,1.6-15.8,2.4c-0.8-1.8-1.2-3-1.2-3
				s-1.4-0.6-2.6-0.9c-0.4-2.1-2.1-5.3-2.1-5.3l-5-3.5l1.1-1.1l15.4-15.7c0,0,3.9-4.9,11.2-4.2c7.3,0.6,13.8-5.3,13.8-5.3l23.6-20.4
				"/>
		</g>
		<g id="Слой_25">
		</g>
		<g id="Слой_4_копия_2">
			<path class="st13" d="M201.7,224.9c0,0-1.1,0.6-0.3,1.9c0.6,1,4.4,6.4,14.1,14.3c1.6,1.1,2.2-0.1,2.2-0.1s3.1-3,3.1-5.1
				c-6.6-5.2-14.1-13.8-14.1-13.8S205.2,221.3,201.7,224.9z"/>
		</g>
		<g id="Слой_5_копия_2">
			<path class="st12" d="M206.4,221.9c0,0,0.7-2.4,2.9-1.3c7.6,8.6,13,13,13,13s0.9,2.5-1.5,2.3"/>
		</g>
		<g id="Слой_10__x28_копия_x29_" class="st9">
			<path class="st14" d="M167.9,257.3c0,0-6.6-0.6-11.1,4.5"/>
		</g>
		<g id="Слой_6__x28_копия_x29_" class="st9">
			<line class="st14" x1="201.9" y1="233.4" x2="176.6" y2="256.2"/>
		</g>
	</g>
</g>
<g id="Слой_3">
	<path class="st15" d="M156.3,416.3c0,0,31.7-12.3,29.4-24c-1.3-7.7-15-15.3-15-15.3s26.4,7.1,29.4-0.6c2.9-7.7-8.1-32.3-8.1-32.3
		s20.1,27.3,26.5,23.7c6.3-3.6,5.7-25.9,5.7-25.9s7.1,26.2,21.8,11.1c6.9-7,13.3-27.9,13.3-27.9s-7,31.2,2.9,31.9
		c9.9,0.8,33.7-10.7,33.7-10.7s-28,21.6-24.8,29.6c3.6,8.9,21.5,9,21.5,9s-15.1,1.5-17.1,9.4c-2.1,7.9,14.2,16.9,14.2,16.9
		s-22.5-10.4-27-3.6c-4.6,6.9,8,31,8,31s-13.1-14.8-20.5-10.9s-6.3,22.3-6.3,22.3s-11.4-21.1-18.9-19.3c-7,1.6-11,12.1-13.2,22.2
		c0,0-2.6-19.7-10.1-24.1C194.3,424.5,183,439,183,439s4.9-15,1.5-21.1C181.1,411.9,156.3,416.3,156.3,416.3z"/>
	<g>
		<path class="st16" d="M148.7,413c0,0,31.7-12.3,29.4-24c-1.3-7.7-15-15.3-15-15.3s26.4,7.1,29.4-0.6c2.9-7.7-8.1-32.3-8.1-32.3
			s20.1,27.3,26.5,23.7c6.3-3.6,5.7-25.9,5.7-25.9s7.1,26.2,21.8,11.1c6.9-7,13.3-27.9,13.3-27.9s-7,31.2,2.9,31.9
			c9.9,0.8,33.7-10.7,33.7-10.7s-28,21.6-24.8,29.6c3.6,8.9,21.5,9,21.5,9s-15,1.4-17,9.3c-2.1,7.9,14.2,16.9,14.2,16.9
			s-22.5-10.4-27-3.6c-4.6,6.9,8,31,8,31s-13.1-14.8-20.5-10.9s-6.3,22.3-6.3,22.3s-11.4-21.1-18.9-19.3c-7,1.6-11,12.1-13.2,22.2
			c0,0-2.6-19.7-10.1-24.1c-7.4-4.3-18.7,10.2-18.7,10.2s4.9-15,1.5-21.1C173.5,408.5,148.7,413,148.7,413z"/>
		<path class="st15" d="M190.7,351.6c0.9,1.1,1.9,2.2,2.9,3.3c3.4,3.7,6.4,6.6,8.9,8.6c3.7,2.8,6.5,3.8,8.7,2.9
			c0.2-0.1,0.4-0.2,0.5-0.3c3.2-1.8,5.3-7,6.2-15.7c0.1-1,0.2-2,0.3-3c1.7,3.1,4.1,6.2,7.2,7.8c2.5,1.3,5.2,1.4,8,0.3
			c2.1-0.8,4.2-2.3,6.4-4.5c2.8-2.9,5.5-7.9,7.8-12.9c-0.4,7.2,0.4,12.2,2.4,14.9c1.1,1.5,2.7,2.4,4.5,2.6
			c4.5,0.4,11.9-1.5,22.1-5.5c0.2-0.1,0.5-0.2,0.7-0.3c-1.3,1.2-2.6,2.4-3.9,3.6c-12.6,12.3-12.7,17.2-11.6,19.8
			c2,5.1,7.9,7.6,13.2,8.9c-5,2-8,4.8-8.9,8.4c-0.9,3.4,0.7,7.2,4.6,11.2c-6.3-1.8-11-2.1-14.1-0.9c-1.4,0.5-2.4,1.4-3.1,2.4
			c-2.3,3.4-1.6,9.9,2.1,19.8c0.6,1.5,1.1,3,1.7,4.3c-0.1-0.1-0.2-0.2-0.3-0.2c-5.9-4.6-10.9-6.2-14.6-4.8c-0.2,0.1-0.5,0.2-0.7,0.3
			c-3.7,1.9-6,6.6-6.9,14c-0.1,1.1-0.2,2.2-0.3,3.3c-1-1.5-2.1-3.1-3.3-4.8c-5.6-7.4-10.2-10.6-14.2-9.7c-0.5,0.1-1,0.3-1.4,0.4
			c-4.6,1.8-8.3,7-11.1,15.4c-0.2-0.9-0.5-1.8-0.7-2.7c-2.2-7.7-5.2-12.7-8.7-14.8c-2.3-1.3-5-1.4-8-0.2c-2.9,1.1-5.7,3.3-7.9,5.4
			c0.1-0.4,0.2-0.9,0.2-1.3c1.1-6.4,0.9-11.2-0.8-14.1c-1.1-1.9-3.5-3.2-7.2-3.7c-2.6-0.4-6-0.5-10-0.3c-0.4,0-0.8,0-1.2,0.1
			c1.8-0.9,3.6-1.9,5.5-3c4.5-2.7,7.9-5.3,10.3-7.9c3.2-3.5,4.6-6.9,3.9-10.1c-0.6-3.5-3.3-7.3-8.1-11.2c6.1,1,13.8,1.8,18.4,0
			c2-0.8,3.4-2,4-3.7c1.4-3.7,0.4-10.3-2.9-20.3C191.1,352.8,190.9,352.2,190.7,351.6L190.7,351.6z M184.4,340.7
			c0,0,11,24.6,8.1,32.3c-0.5,1.2-1.5,2.1-2.9,2.6c-7.7,3-26.4-2-26.4-2s13.7,7.6,15,15.3c2.2,11.4-28.1,23.5-29.4,24l0,0
			c0,0,24.9-4.4,28.3,1.6c3.4,6.1-1.5,21.1-1.5,21.1s6.1-7.9,12.3-10.3c2.2-0.9,4.4-1,6.4,0.1c7.4,4.3,10.1,24.1,10.1,24.1
			c2.1-9.6,5.7-19.4,12-21.9c0.4-0.1,0.8-0.3,1.2-0.4c7.5-1.8,18.9,19.3,18.9,19.3s-1.2-18.4,6.3-22.3c0.2-0.1,0.3-0.2,0.5-0.2
			c7.5-3,20,11.2,20,11.2s-12.5-24.1-8-31c0.5-0.8,1.3-1.4,2.3-1.7c7.2-2.8,24.8,5.3,24.8,5.3s-16.3-9-14.2-16.9
			c0.9-3.5,4.4-5.8,8-7.2c4.5-1.8,9.1-2.2,9.1-2.2s-17.9-0.1-21.5-9c-3.2-8,24.8-29.6,24.8-29.6s-5.6,2.7-12.4,5.4
			c-7.3,2.9-16.1,5.8-21.3,5.4c-9.9-0.8-2.9-31.9-2.9-31.9s-6.5,20.9-13.3,27.9c-2.1,2.1-4,3.4-5.7,4.1
			c-10.9,4.3-16.1-15.2-16.1-15.2s0.6,22.4-5.7,25.9c-0.1,0.1-0.2,0.1-0.3,0.1C204,367.2,184.4,340.7,184.4,340.7L184.4,340.7z"/>
	</g>
	<g>
		<g>
			<path class="st17" d="M170.7,389.3c1-0.6,2.9-1.9,5.7-3.8c2.4-1.6,4.3-2.9,5.8-3.7c0.6-0.3,1.2-0.5,1.8-0.8
				c4.5-1.8,7.4-1.1,8.7,2.2c1.8,4.6,0.8,10.3-3.1,17.1c3.5-1.6,5.9-1.4,7.3,0.6c0.3,0.4,0.5,0.9,0.7,1.4c1,2.6,0.8,5.7-0.6,9.3
				c-1.1,2.8-2.7,5.5-4.9,8.1c-2.6,3.2-6.1,5.6-10.4,7.3c-0.7,0.3-1.4,0.5-2.1,0.8c-1.4-7.6-3.7-17.7-6.7-30.2
				C172,394.1,171.3,391.3,170.7,389.3z M184.6,408.6c0.2,1.4,0.6,3.3,1.2,5.7c4.3-3.4,6-6,5.3-7.9c-0.3-0.7-1-0.8-2.2-0.3
				C187.8,406.5,186.4,407.3,184.6,408.6z M182,393.7c0.2,1.2,0.4,2.5,0.6,3.7l0.6,3.7c1.9-2.5,3-5,3.3-7.5c0.1-0.5,0-1-0.1-1.2
				c-0.2-0.6-0.8-0.7-1.7-0.4C184,392.3,183.1,392.8,182,393.7z"/>
			<path class="st15" d="M183.9,381c4.5-1.8,7.4-1.1,8.7,2.2c1.8,4.6,0.8,10.3-3.1,17.1c0.3-0.2,0.7-0.3,1-0.4
				c2.9-1.2,5.1-0.8,6.4,1c0.3,0.4,0.5,0.9,0.7,1.4c1,2.6,0.8,5.7-0.6,9.3c-1.1,2.8-2.7,5.5-4.9,8.1c-2.6,3.2-6.1,5.6-10.4,7.3
				c-0.7,0.3-1.4,0.5-2.1,0.8c-1.4-7.6-3.7-17.7-6.7-30.2c-0.8-3.6-1.6-6.3-2.1-8.3c1-0.6,2.9-1.9,5.7-3.8c2.4-1.6,4.3-2.9,5.8-3.7
				C182.8,381.5,183.4,381.3,183.9,381L183.9,381z M183.2,401.1c1.9-2.5,3-5,3.3-7.5c0.1-0.5,0-1-0.1-1.2c-0.2-0.6-0.8-0.7-1.7-0.4
				c-0.7,0.3-1.6,0.8-2.7,1.7c0.2,1.2,0.4,2.5,0.6,3.7L183.2,401.1L183.2,401.1z M185.8,414.3c4.3-3.4,6-6,5.3-7.9
				c-0.3-0.7-1-0.8-2.2-0.3c-1.1,0.4-2.5,1.3-4.3,2.6C184.8,410.1,185.2,411.9,185.8,414.3L185.8,414.3z M183.3,379.3
				c-0.6,0.2-1.2,0.5-1.9,0.8l0,0l0,0c-1.6,0.8-3.6,2.1-6,3.8l0,0l0,0c-2.7,1.9-4.5,3.2-5.5,3.7l-1.3,0.7l0.4,1.4
				c0.6,2,1.3,4.7,2.1,8.3l0,0l0,0c3,12.5,5.3,22.6,6.7,30.1l0.4,2.1l2-0.7c0.7-0.2,1.5-0.5,2.2-0.8c4.6-1.8,8.4-4.5,11.2-7.9
				c2.3-2.8,4.1-5.7,5.2-8.6c1.6-4.1,1.8-7.7,0.6-10.7c-0.2-0.6-0.6-1.2-0.9-1.8l0,0l0,0c-0.9-1.3-2.2-2.1-3.8-2.4
				c-0.5-0.1-1-0.1-1.5-0.1c0.9-2.1,1.6-4.2,1.9-6.1c0.6-3.2,0.3-6.1-0.7-8.7c-0.7-1.8-1.8-3.1-3.4-3.8
				C189,377.9,186.4,378,183.3,379.3L183.3,379.3z M184,394.5c0.2-0.1,0.3-0.2,0.4-0.3c-0.1,0.4-0.2,0.8-0.3,1.2
				C184.1,395.1,184,394.8,184,394.5L184,394.5z M186.6,409.5c1.2-0.8,2-1.3,2.6-1.5c-0.1,0.2-0.3,0.5-0.4,0.8
				c-0.4,0.6-1,1.3-1.8,2.1C186.8,410.4,186.7,409.9,186.6,409.5L186.6,409.5z M190.1,407.6L190.1,407.6L190.1,407.6z"/>
		</g>
		<g>
			<path class="st17" d="M198.7,421c0-14.9-0.8-29-2.4-42.2L211,370c2.3,11.1,6.4,23.8,12.1,38l-10,6.8l-1.8-6.8l-3.2,2l0.7,5
				L198.7,421z M209.5,400.8l-5.3-20.4h-0.1l3,21.9L209.5,400.8z"/>
			<path class="st15" d="M211,370c2.3,11.1,6.4,23.8,12.1,38l-10,6.8l-1.8-6.8l-3.2,2l0.7,5l-10.2,5.9c0-14.9-0.8-29-2.4-42.2
				L211,370L211,370z M204.2,380.4L204.2,380.4l2.9,21.9l2.3-1.5L204.2,380.4L204.2,380.4z M212.3,367l-2.3,1.4l-14.7,8.8l-1,0.6
				l0.1,1.2c1.6,13.1,2.4,27.2,2.4,42v3.2l2.8-1.6l10.2-5.9l1.1-0.6l-0.2-1.2l-0.5-3.8l0,0l1.1,4.3l0.7,2.6l2.2-1.5l10-6.8l1.2-0.9
				l-0.6-1.4c-5.7-14-9.8-26.7-12-37.7L212.3,367L212.3,367z"/>
		</g>
		<g>
			<path class="st17" d="M216.1,371.4l8.2-5.3c0.4,1.1,0.9,2.6,1.7,4.6c1.8,4.7,3.6,8.7,5.3,12.2c1,2,1.9,3.5,2.7,4.6l-4.4-21.5
				l8.2-5.1c1.8,15.2,4.2,28.1,7.1,38.7l-7.3,5.5c-0.1-0.1-0.5-0.6-1.4-1.5l-5.7-6.6c-0.9-1.1-1.5-1.8-1.7-2.1
				c0.9,4.4,1.9,8.5,2.9,12.5l-7.3,5.7L216.1,371.4z"/>
			<path class="st15" d="M237.9,360.8c1.8,15.2,4.2,28.1,7.1,38.7l-7.3,5.5c-0.1-0.1-0.5-0.6-1.4-1.5l-5.7-6.6
				c-0.9-1.1-1.5-1.8-1.7-2.1c0.9,4.4,1.9,8.5,2.9,12.5l-7.3,5.7l-8.4-41.6l8.2-5.3c0.4,1.1,0.9,2.6,1.7,4.6
				c1.8,4.7,3.6,8.7,5.3,12.2c1,2,1.9,3.5,2.7,4.6l-4.4-21.5L237.9,360.8L237.9,360.8z M239.4,357.7l-2.5,1.6l-8.2,5.1l-1.1,0.7
				l0.3,1.3l1.6,7.7c-0.5-1.3-1.1-2.6-1.6-4c-0.8-1.9-1.3-3.4-1.6-4.5l-0.7-2.3l-2.1,1.3l-8.2,5.3l-1.1,0.7l0.3,1.3l8.4,41.6l0.6,3
				l2.4-1.9l7.3-5.7l1-0.8l-0.3-1.2c-0.5-1.6-0.9-3.3-1.3-5.1l2.5,2.9l0,0l0,0c1.4,1.5,1.4,1.6,1.5,1.7l1.1,1l1.2-0.9l7.3-5.5l1-0.8
				l-0.3-1.2c-2.8-10.4-5.2-23.4-7-38.4L239.4,357.7L239.4,357.7z"/>
		</g>
		<g>
			<path class="st17" d="M257.6,398.5c-3.7,1.4-7,0.5-10.1-2.8c-1.6-1.7-2.8-3.7-3.8-6.1c-0.9-2.3-1.5-5-1.9-8
				c-0.6-5.2-0.2-10.4,1.4-15.5c1.9-6.3,4.9-10.2,9.2-11.9c3.7-1.4,7.1-0.4,10.2,3l-3.3,8.4c-1-0.7-2.1-0.8-3.3-0.3
				c-2.3,0.9-3.9,3.4-4.7,7.5c-0.6,3.1-0.7,6.2-0.3,9.5c0.2,1.3,0.4,2.4,0.8,3.3c0.6,1.4,1.4,2.4,2.4,3c1.2,0.7,2.5,0.7,3.9,0.1
				c1.6-0.6,2.8-2,3.6-4c0.6-1.6,1-3.4,0.9-5.5c-2.3,1.5-4.5,3-6.5,4.4l-1.3-8.2l12.6-8.3c0.9,2.2,1.5,5,1.6,8.3
				c0.1,2.9-0.2,5.7-0.7,8.4C266.7,391.4,263.1,396.4,257.6,398.5z"/>
			<path class="st15" d="M252.4,354.1c3.7-1.4,7.1-0.4,10.2,3l-3.3,8.4c-1-0.7-2.1-0.8-3.3-0.3c-2.3,0.9-3.9,3.4-4.7,7.5
				c-0.6,3.1-0.7,6.2-0.3,9.5c0.1,1.3,0.4,2.4,0.8,3.3c0.6,1.4,1.4,2.4,2.4,3c1.2,0.7,2.5,0.7,3.9,0.1c1.6-0.6,2.8-2,3.6-4
				c0.6-1.6,1-3.4,0.9-5.5c-2.3,1.5-4.5,3-6.5,4.4l-1.3-8.2l12.6-8.3c0.9,2.2,1.5,5,1.6,8.3c0.1,2.9-0.2,5.7-0.7,8.4
				c-1.6,7.8-5.2,12.8-10.7,14.9c-3.7,1.4-7,0.5-10.1-2.8c-1.6-1.7-2.8-3.7-3.8-6.1c-0.9-2.3-1.5-5-1.9-8
				c-0.6-5.2-0.2-10.4,1.4-15.5C245.1,359.7,248.1,355.8,252.4,354.1L252.4,354.1z M251.7,352.4c-4.8,1.9-8.2,6.3-10.3,13.1
				c-1.6,5.4-2.1,10.8-1.4,16.3c0.4,3.2,1.1,6,2,8.5c1,2.7,2.4,4.9,4.2,6.7c4.5,4.9,9.1,4.5,12.1,3.3c6.1-2.4,10.1-7.9,11.8-16.3
				c0.6-2.8,0.8-5.8,0.7-8.8l0,0l0,0c-0.1-3.5-0.7-6.5-1.7-8.9l-0.9-2.1l-1.9,1.2l-12.6,8.3l-0.9,0.6c0.1-0.4,0.1-0.9,0.2-1.3
				c0.7-3.4,1.9-5.4,3.6-6.1c0.8-0.3,1.2-0.1,1.5,0.1l1.9,1.4l0.9-2.2l3.3-8.4l0.4-1.1l-0.8-0.9
				C259.4,350.8,254.8,351.2,251.7,352.4L251.7,352.4z M254.8,386.6c-0.5-0.4-1-1-1.3-1.8s-0.5-1.7-0.7-2.9l0,0l0,0
				c-0.3-2.5-0.3-4.9,0-7.3l0.2,0.9l1.3,8.2L254.8,386.6L254.8,386.6z M254.9,386.7l2.4-1.7c1-0.7,2-1.4,3-2.1
				c-0.1,0.4-0.2,0.7-0.3,1l0,0l0,0c-0.6,1.5-1.4,2.5-2.6,2.9c-1.1,0.5-1.8,0.2-2.3,0l0,0l0,0C255,386.8,254.9,386.8,254.9,386.7
				L254.9,386.7z"/>
		</g>
		<g>
			<path class="st17" d="M276.6,379.9c1.1-0.6,2.3-0.9,3.4-0.7c1.3,0.1,2.2,0.8,2.7,1.9c0.6,1.6,0.3,3.4-0.8,5.3
				c-0.9,1.5-2.1,2.7-3.6,3.5c-1.2,0.7-2.3,0.9-3.4,0.8c-1.3-0.1-2.2-0.8-2.6-2c-0.6-1.6-0.4-3.4,0.7-5.3
				C273.9,381.9,275.1,380.7,276.6,379.9z M269.8,345.5l11.5-2.4c-0.8,6.3-1.4,11.1-1.6,14.5c-0.3,4.7-0.2,9.6,0.2,14.8l-7.3,2.5
				L269.8,345.5z"/>
			<path class="st15" d="M269.8,345.5l11.5-2.4c-0.8,6.3-1.4,11.1-1.6,14.5c-0.3,4.7-0.2,9.6,0.2,14.8l-7.3,2.5L269.8,345.5
				L269.8,345.5z M277.4,379.5c0.9-0.3,1.7-0.4,2.6-0.3c1.3,0.1,2.2,0.8,2.7,1.9c0.6,1.6,0.3,3.4-0.8,5.3c-0.9,1.5-2.1,2.7-3.6,3.5
				c-0.3,0.2-0.6,0.3-1,0.5c-0.8,0.3-1.6,0.5-2.4,0.4c-1.3-0.1-2.2-0.8-2.6-2c-0.6-1.6-0.4-3.4,0.7-5.3c0.9-1.6,2.1-2.8,3.6-3.6
				C276.9,379.7,277.2,379.6,277.4,379.5L277.4,379.5z M267.8,344l0.2,1.7l2.8,29.4l0.2,2.4l2.2-0.8l7.3-2.5l1.4-0.5l-0.1-1.4
				c-0.4-5.1-0.5-10-0.2-14.5c0.2-3.4,0.7-8.2,1.6-14.4l0.4-2.6l-2.6,0.5l-11.5,2.4L267.8,344L267.8,344z M276.8,377.8L276.8,377.8
				c-0.4,0.1-0.7,0.3-1.1,0.5c-1.8,1-3.3,2.5-4.3,4.3l0,0l0,0c-1.4,2.5-1.6,4.8-0.8,6.9c0.7,1.8,2.2,2.9,4.2,3.1l0,0l0,0
				c1.1,0.1,2.2-0.1,3.3-0.5c0.4-0.2,0.8-0.3,1.2-0.6c1.8-1,3.2-2.4,4.3-4.2c1.5-2.5,1.8-4.8,1-7c-0.7-1.8-2.2-2.9-4.2-3.1
				C279,377.2,277.9,377.3,276.8,377.8L276.8,377.8z"/>
		</g>
	</g>
</g>
</svg>
