<?xml version="1.0" encoding="utf-8"?>
<!-- Generator: Adobe Illustrator 27.1.1, SVG Export Plug-In . SVG Version: 6.00 Build 0)  -->
<svg version="1.1" id="Слой_6_00000011744300001992755590000002544651710531989385_"
	 xmlns="http://www.w3.org/2000/svg" xmlns:xlink="http://www.w3.org/1999/xlink" x="0px" y="0px" viewBox="0 0 310.8 538.5"
	 style="enable-background:new 0 0 310.8 538.5;" xml:space="preserve">
<style type="text/css">
	.st0{fill:#2F332A;stroke:#000000;stroke-width:2;stroke-linecap:round;stroke-linejoin:round;stroke-miterlimit:10;}
	.st1{fill:#161911;}
	.st2{fill:none;stroke:#000000;stroke-width:2;stroke-linecap:round;stroke-linejoin:round;stroke-miterlimit:10;}
	.st3{display:none;}
	.st4{display:inline;}
	.st5{fill:#2F332A;}
	.st6{fill:#3F4438;}
	.st7{fill:none;stroke:#000000;stroke-width:4;stroke-linecap:round;stroke-linejoin:round;stroke-miterlimit:10;}
</style>
<g>
	<g>
		<g>
			<g>
				<g>
					<g>
						<g>
							<g>
								<g>
									<g>
										<g>
											<g>
												<g>
													<g>
														<g>
															<path class="st0" d="M93.8,440.4L91,415.7c0,0-18.3-23.4-19.2-36.8c-8-7.1-24.8-43.8-26.6-52.2L91,235.2
																c0,0,71.1,43.1,78.5,60c7.4,16.9,12,25.1,12,25.1l3.8-14.3c0,0-8-28.5-6-36.6c2-8.2,7.2-13.1,18.8-15.8
																c0.6,10.5,9.4,37,15.4,43.4c1.3,3.9-1.5,12.3-1.5,12.3s0,28.7,0.2,43.1l-2.9,6.6c0,0-11.4,46.1-19.4,63.4l3.9,25.6
																C193.7,447.9,148,456,93.8,440.4z"/>
														</g>
													</g>
												</g>
											</g>
										</g>
									</g>
								</g>
							</g>
						</g>
					</g>
				</g>
			</g>
		</g>
		<g>
			<g>
				<g>
					<g>
						<g>
							<g>
								<g>
									<g>
										<g>
											<g>
												<g>
													<g>
														<path class="st1" d="M156.5,365.4c4.9-18,21.6-29,21.6-29l2.6-14.4l0.9-2.1l-14.2-27.8l-92.3-45.5l-25.4,90.2
															c0,0,11.2,33.4,22.1,42c0.4,3,1.5,8.6,3.6,12c11-2.2,37.9-1.5,50.4,6.9c-9.2-3.1-16.9-4.6-20.9-4.8
															c7.5,1.9,21.6,6.5,26.8,10.5l-0.8,10.1c0,0,3.2,8.3,5,12.2c-1.2-7.4-1.2-18.2-0.7-22.8c5.5-2.9,16.2-9.6,19-24.4
															C157,363.9,156.5,365.4,156.5,365.4z"/>
													</g>
												</g>
											</g>
										</g>
									</g>
								</g>
							</g>
						</g>
					</g>
				</g>
			</g>
		</g>
		<g>
			<g>
				<g>
					<g>
						<g>
							<g>
								<g>
									<g>
										<g>
											<g>
												<g>
													<g>
														<path d="M91.7,415.2c1,1.2,2,2.4,3.1,3.6c0.5,0.6,1.1,1.1,1.6,1.7c0.5,0.5,1.1,1.1,1.7,1.5l-0.6-0.2
															c2.7,0,5.4,0,8.1,0c2.7,0,5.4-0.1,8.1-0.3c2.7-0.2,5.4-0.4,8.1-0.7c2.7-0.3,5.4-0.8,8-1.6c-2.5,1.2-5.1,2-7.8,2.6
															c-2.7,0.6-5.4,1-8.1,1.3c-2.7,0.3-5.5,0.5-8.2,0.6c-2.7,0.1-5.5,0.2-8.2,0.1l-0.3,0l-0.2-0.2
															c-0.7-0.6-1.3-1.1-1.8-1.7c-0.6-0.6-1.1-1.2-1.7-1.8c-0.5-0.6-1-1.2-1.6-1.9c-0.5-0.6-1-1.3-1.5-1.9L91.7,415.2z"/>
													</g>
												</g>
											</g>
										</g>
									</g>
								</g>
							</g>
						</g>
					</g>
				</g>
			</g>
		</g>
		<g>
			<g>
				<g>
					<g>
						<g>
							<g>
								<g>
									<g>
										<g>
											<g>
												<g>
													<g>
														<path d="M92.5,428c5,2.8,16.2,1.1,20.3-4c3.7,0.3,13-3.3,13-3.3l-1.5,0.1l-11.6,1.6l-15.3,0.4l-6.1-6.6l0.3,4.8
															L92.5,428z"/>
													</g>
												</g>
											</g>
										</g>
									</g>
								</g>
							</g>
						</g>
					</g>
				</g>
			</g>
		</g>
		<g>
			<g>
				<g>
					<g>
						<g>
							<g>
								<g>
									<g>
										<g>
											<g>
												<g>
													<g>
														<path d="M190.8,424.1c-0.7,0.6-1.3,1-2,1.4c-0.7,0.4-1.4,0.8-2.1,1.1c-1.4,0.7-2.9,1.3-4.4,1.8
															c-1.5,0.5-3,0.9-4.6,1.3c-1.5,0.4-3.1,0.6-4.7,0.7c0.7-0.3,1.5-0.6,2.2-0.9c0.7-0.3,1.4-0.6,2.1-0.9
															c0.7-0.3,1.4-0.7,2.1-1c0.7-0.3,1.4-0.7,2-1.1c1.4-0.7,2.7-1.5,3.9-2.3c0.6-0.4,1.3-0.8,1.9-1.2l1.8-1.2L190.8,424.1z
															"/>
													</g>
												</g>
											</g>
										</g>
									</g>
								</g>
							</g>
						</g>
					</g>
				</g>
			</g>
		</g>
		<g>
			<g>
				<g>
					<g>
						<g>
							<g>
								<g>
									<g>
										<g>
											<g>
												<g>
													<g>
														<path d="M163.5,429.1c2.2-0.4,4.3-1.1,6.4-1.8c2.1-0.7,4.1-1.5,6.2-2.4c2-0.9,4-1.8,6-2.9c2-1,3.9-2.1,5.8-3.4
															c-1.6,1.6-3.4,2.9-5.3,4.1c-1.9,1.2-3.9,2.2-6,3.1c-2.1,0.9-4.2,1.7-6.4,2.2C167.9,428.7,165.7,429.1,163.5,429.1z"/>
													</g>
												</g>
											</g>
										</g>
									</g>
								</g>
							</g>
						</g>
					</g>
				</g>
			</g>
		</g>
		<g>
			<g>
				<g>
					<g>
						<g>
							<g>
								<g>
									<g>
										<g>
											<g>
												<g>
													<g>
														<path d="M182.4,319.9l-1.2,7.2l-1.2,7.2c-0.4,2.4-0.8,4.8-1.2,7.2l-1.3,7.2l0-0.2c0,0.4,0.1,1,0.1,1.5
															c0,0.5,0.1,1,0.2,1.5c0.1,1,0.3,2.1,0.4,3.1c0.4,2.1,0.9,4.1,1.5,6.2c0.6,2,1.3,4.1,2.2,6c0.4,1,0.9,2,1.3,2.9
															c0.5,1,1,1.9,1.4,2.9c-0.6-0.9-1.2-1.8-1.7-2.7c-0.5-0.9-1.1-1.8-1.6-2.8c-1.1-1.9-2-3.9-2.9-5.8
															c-0.8-2-1.6-4.1-2.2-6.2c-0.3-1.1-0.6-2.1-0.8-3.2c-0.1-0.5-0.2-1.1-0.3-1.6c0-0.3-0.1-0.6-0.1-0.8
															c0-0.3-0.1-0.6-0.1-0.9l0-0.2l0.2-3.7c0.1-1.2,0.1-2.5,0.2-3.7c0.1-2.5,0.5-4.9,1-7.3c0.2-1.2,0.5-2.4,0.7-3.6
															c0.2-1.2,0.5-2.4,0.8-3.6c0.6-2.4,1.3-4.8,2.1-7.1L182.4,319.9z"/>
													</g>
												</g>
											</g>
										</g>
									</g>
								</g>
							</g>
						</g>
					</g>
				</g>
			</g>
		</g>
		<g>
			<g>
				<g>
					<g>
						<g>
							<g>
								<g>
									<g>
										<g>
											<g>
												<g>
													<g>
														<path d="M186.3,308.9c-0.1,0.7-0.1,1.5-0.2,2.2c0,0.7,0,1.5,0,2.2c0,0.7,0,1.5,0.1,2.2l0.2,2.2l0.2,2.2l0.2,2.2
															c0.2,1.4,0.4,2.9,0.6,4.3c-0.4-1.4-0.8-2.8-1.2-4.2c-0.4-1.4-0.7-2.8-1-4.2c-0.3-1.4-0.7-2.8-0.9-4.2
															c-0.3-1.4-0.5-2.8-0.7-4.3L186.3,308.9z"/>
													</g>
												</g>
											</g>
										</g>
									</g>
								</g>
							</g>
						</g>
					</g>
				</g>
			</g>
		</g>
		<g>
			<g>
				<g>
					<g>
						<g>
							<g>
								<g>
									<g>
										<g>
											<g>
												<g>
													<g>
														<path d="M190.7,318.7c-0.9-0.8-1.6-1.8-2.2-2.8c-0.6-1-1.2-2-1.8-3.1c-0.3-0.5-0.5-1-0.8-1.6
															c-0.2-0.5-0.5-1.1-0.7-1.6l-0.7-1.6c-0.2-0.5-0.4-1.1-0.1-1.8l1.6-0.5c0.3,1.1,0.6,2.2,0.9,3.3
															c0.3,1.1,0.7,2.2,1.1,3.3C188.8,314.5,189.6,316.6,190.7,318.7z"/>
													</g>
												</g>
											</g>
										</g>
									</g>
								</g>
							</g>
						</g>
					</g>
				</g>
			</g>
		</g>
		<g>
			<g>
				<g>
					<g>
						<g>
							<g>
								<g>
									<g>
										<g>
											<g>
												<g>
													<g>
														<path d="M214,302.8c-1.3,0.7-2.6,1.1-3.9,1.5c-1.3,0.3-2.7,0.5-4,0.6c-1.4,0.1-2.7,0.2-4.1,0.2c-1.4,0-2.7-0.1-4-0.3
															c1.3-0.2,2.7-0.4,4-0.6c1.3-0.2,2.6-0.5,3.9-0.8c1.3-0.3,2.6-0.6,3.8-1c1.2-0.4,2.5-0.7,3.6-1.2L214,302.8z"/>
													</g>
												</g>
											</g>
										</g>
									</g>
								</g>
							</g>
						</g>
					</g>
				</g>
			</g>
		</g>
		<g>
			<g>
				<g>
					<g>
						<g>
							<g>
								<g>
									<g>
										<g>
											<g>
												<g>
													<g>
														<path d="M204.5,279.4c-2.1,0.2-4.1,0-6.1-0.2c-2-0.3-3.9-0.7-5.8-1.2c2,0.2,3.9,0.3,5.9,0.3c2,0,3.9-0.1,5.7-0.6
															L204.5,279.4z"/>
													</g>
												</g>
											</g>
										</g>
									</g>
								</g>
							</g>
						</g>
					</g>
				</g>
			</g>
		</g>
		<g>
			<g>
				<g>
					<g>
						<g>
							<g>
								<g>
									<g>
										<g>
											<g>
												<g>
													<g>
														<path d="M198.9,258.1c-1.3,1.2-2.8,2.1-4.4,2.9c-0.8,0.4-1.6,0.8-2.4,1.1c-0.8,0.3-1.6,0.7-2.4,0.9l0,0l0.7-1
															c0.1,0.4,0.2,0.8,0.3,1.2c0.1,0.4,0.2,0.8,0.4,1.2c0.3,0.8,0.6,1.6,1,2.4c0.8,1.5,1.7,3,2.9,4.2
															c0.3,0.3,0.6,0.6,0.9,0.9c0.3,0.3,0.6,0.6,1,0.9l1,0.8l1.1,0.7l0.6,0.4c0.2,0.1,0.4,0.2,0.6,0.3l1.2,0.6
															c0.8,0.4,1.6,0.7,2.5,1l-0.2,0.5c-0.9-0.3-1.8-0.5-2.6-0.8c-0.8-0.4-1.7-0.6-2.5-1.1l-1.2-0.7l-1.2-0.8
															c-0.4-0.2-0.8-0.5-1.1-0.8c-0.3-0.3-0.7-0.6-1.1-0.9c-1.4-1.3-2.5-2.8-3.5-4.4c-0.5-0.8-0.9-1.7-1.2-2.5
															c-0.3-0.9-0.6-1.8-0.8-2.8l-0.1-0.8l0.8-0.2l0,0c0.8-0.2,1.6-0.4,2.4-0.7c0.8-0.3,1.6-0.5,2.3-0.9
															c1.5-0.6,3-1.4,4.3-2.4L198.9,258.1z"/>
													</g>
												</g>
											</g>
										</g>
									</g>
								</g>
							</g>
						</g>
					</g>
				</g>
			</g>
		</g>
		<g>
			<g>
				<g>
					<g>
						<g>
							<g>
								<g>
									<g>
										<g>
											<g>
												<g>
													<g>
														<path d="M211.8,295.5c-2.5,0.5-5,0.8-7.5,1.3c-1.2,0.2-2.5,0.5-3.6,0.8c-0.6,0.2-1.2,0.3-1.7,0.6
															c-0.5,0.2-1,0.5-1.3,0.8c-0.1,0.1-0.2,0.3-0.2,0.3c0,0,0,0,0,0c0,0,0-0.1,0-0.1c0,0,0-0.1-0.1-0.1c0,0,0,0,0,0
															c0,0,0.1,0,0.1,0.1c0.3,0.2,1,0.3,1.5,0.4c1.2,0.2,2.5,0.2,3.7,0.3c2.5,0.1,5.1,0.1,7.6,0.1c-2.5,0.6-5,1-7.6,1.2
															c-1.3,0.1-2.6,0.1-3.9,0c-0.7-0.1-1.3-0.1-2.2-0.5c-0.1-0.1-0.2-0.1-0.3-0.2c-0.1-0.1-0.2-0.2-0.3-0.3
															c-0.1-0.1-0.2-0.4-0.3-0.5c0-0.1,0-0.2,0-0.3c0-0.1,0-0.2,0-0.3c0.1-0.6,0.4-1,0.7-1.3c0.6-0.6,1.3-0.9,1.9-1.2
															c0.6-0.3,1.3-0.5,1.9-0.7c1.3-0.4,2.5-0.6,3.8-0.9c2.5-0.5,5.1-0.8,7.6-1L211.8,295.5z"/>
													</g>
												</g>
											</g>
										</g>
									</g>
								</g>
							</g>
						</g>
					</g>
				</g>
			</g>
		</g>
		<g>
			<g>
				<g>
					<g>
						<g>
							<g>
								<g>
									<g>
										<g>
											<g>
												<g>
													<g>
														<g>
															<path d="M169.9,448.3c1.2,0,2.3,0,3.4-0.5c0,0,0,0,0.1,0l0.5-1.2c-2.9-1.1-5.7-2.7-8.4-4.4c-2.8-1.7-5.4-3.5-8.1-5.4
																c-2.6-1.9-5.2-3.9-7.7-6c-2.5-2.1-5-4.2-7.3-6.5c2.1,2.5,4.4,4.9,6.7,7.1c2.3,2.3,4.8,4.5,7.2,6.7
																c2.5,2.1,5,4.2,7.7,6.2C165.9,445.7,167.8,447.1,169.9,448.3z"/>
														</g>
													</g>
												</g>
											</g>
										</g>
									</g>
								</g>
							</g>
						</g>
					</g>
				</g>
			</g>
		</g>
		<g>
			<g>
				<g>
					<g>
						<g>
							<g>
								<g>
									<g>
										<g>
											<g>
												<g>
													<g>
														<path d="M136.4,420.9c2,2.6,4.2,5,6.5,7.4c2.3,2.3,4.7,4.6,7.1,6.7c2.4,2.2,4.9,4.3,7.4,6.4c1.3,1,2.5,2.1,3.8,3.1
															c1.3,1,2.6,2,3.9,2.9l-0.6,1c-2.8-1.8-5.3-3.9-7.9-6c-2.5-2.1-5-4.3-7.3-6.6c-2.4-2.3-4.7-4.6-6.9-7.1
															C140.2,426.2,138.1,423.7,136.4,420.9z"/>
													</g>
												</g>
											</g>
										</g>
									</g>
								</g>
							</g>
						</g>
					</g>
				</g>
			</g>
		</g>
		<g>
			<g>
				<g>
					<g>
						<g>
							<g>
								<g>
									<g>
										<g>
											<g>
												<g>
													<g>
														<path d="M176.9,337.1c-1.6,2.7-2.7,5.9-3.6,9.1c-0.9,3.3-1.5,6.6-2,10.1c-0.4,3.4-0.7,6.9-0.7,10.3
															c0,3.5,0.3,6.9,1,10.3c-1.2-3.3-1.9-6.8-2.3-10.3c-0.4-3.5-0.6-7-0.6-10.6c0-3.5,0.3-7.1,0.8-10.7
															c0.5-3.6,5.3-16.8,9.6-19.9L176.9,337.1z"/>
													</g>
												</g>
											</g>
										</g>
									</g>
								</g>
							</g>
						</g>
					</g>
				</g>
			</g>
		</g>
		<g>
			<g>
				<g>
					<g>
						<g>
							<g>
								<g>
									<g>
										<g>
											<g>
												<g>
													<g>
														<path d="M165.4,353.8c-0.2,3-0.3,5.9-0.2,8.9c0.1,2.9,0.2,5.9,0.6,8.8c0.4,2.9,0.9,5.8,1.6,8.7c0.8,2.8,1.7,5.6,3,8.3
															c-1.7-2.5-2.9-5.2-3.8-8.1c-0.9-2.8-1.5-5.8-1.9-8.8c-0.4-3-0.5-6-0.4-9C164.4,359.6,164.8,356.7,165.4,353.8z"/>
													</g>
												</g>
											</g>
										</g>
									</g>
								</g>
							</g>
						</g>
					</g>
				</g>
			</g>
		</g>
		<g>
			<g>
				<g>
					<g>
						<g>
							<g>
								<g>
									<g>
										<g>
											<g>
												<g>
													<g>
														<path d="M95.2,397.4c2.1-0.1,4.3,0,6.4,0.3c2.1,0.3,4.3,0.7,6.4,1.2c2.1,0.5,4.2,1.2,6.2,2c2,0.8,4,1.7,5.7,3
															c-0.9-0.5-1.9-1-2.9-1.4c-1-0.4-2-0.8-3-1.2c-2-0.7-4.1-1.3-6.1-1.8c-2.1-0.5-4.2-1-6.3-1.3c-1.1-0.2-2.1-0.3-3.2-0.4
															l-1.6-0.2C96.3,397.4,95.7,397.4,95.2,397.4z"/>
													</g>
												</g>
											</g>
										</g>
									</g>
								</g>
							</g>
						</g>
					</g>
				</g>
			</g>
		</g>
		<g>
			<g>
				<g>
					<g>
						<g>
							<g>
								<g>
									<g>
										<g>
											<g>
												<g>
													<g>
														<path d="M104.6,416.9c2.1,0,4.3,0,6.4,0c2.1-0.1,4.2-0.1,6.4-0.2l6.4-0.3c2.1-0.1,4.2-0.2,6.4-0.3
															c-4.2,0.8-8.4,1.3-12.7,1.5C113.1,417.6,108.8,417.6,104.6,416.9z"/>
													</g>
												</g>
											</g>
										</g>
									</g>
								</g>
							</g>
						</g>
					</g>
				</g>
			</g>
		</g>
		<g>
			<g>
				<g>
					<g>
						<g>
							<g>
								<g>
									<g>
										<g>
											<g>
												<g>
													<g>
														<path d="M98.6,395c2.3-0.1,4.5,0,6.8,0.2c2.3,0.2,4.5,0.6,6.7,1.3c2.2,0.7,4.3,1.6,6.3,2.6c2,1,4,2.2,5.8,3.4
															c-2-1-4.1-2-6.1-2.7c-2.1-0.8-4.2-1.5-6.3-2.1c-2.1-0.6-4.3-1.3-6.4-1.7C103.1,395.6,100.9,395.3,98.6,395z"/>
													</g>
												</g>
											</g>
										</g>
									</g>
								</g>
							</g>
						</g>
					</g>
				</g>
			</g>
		</g>
		<g>
			<g>
				<g>
					<g>
						<g>
							<g>
								<g>
									<g>
										<g>
											<g>
												<g>
													<g>
														<polygon points="138.2,448.3 134.8,437.3 140.8,447.2 														"/>
													</g>
												</g>
											</g>
										</g>
									</g>
								</g>
							</g>
						</g>
					</g>
				</g>
			</g>
		</g>
		<g>
			<g>
				<g>
					<g>
						<g>
							<g>
								<g>
									<g>
										<g>
											<g>
												<g>
													<g>
														<path d="M131.3,418.7c0.4,1.5,0.9,2.8,1.4,4.1c0.6,1.3,1.2,2.6,1.9,3.8c0.7,1.2,1.5,2.4,2.3,3.6
															c0.8,1.2,1.7,2.3,2.7,3.5c-1.4-0.6-2.6-1.6-3.7-2.6c-1.1-1.1-2-2.3-2.8-3.6c-0.8-1.3-1.4-2.8-1.7-4.2
															C131.1,421.8,130.9,420.2,131.3,418.7z"/>
													</g>
												</g>
											</g>
										</g>
									</g>
								</g>
							</g>
						</g>
					</g>
				</g>
			</g>
		</g>
		<g>
			<g>
				<g>
					<g>
						<g>
							<g>
								<g>
									<g>
										<g>
											<g>
												<g>
													<g>
														<path d="M130.7,425.4c0.4,1.4,1,2.7,1.8,4c0.7,1.2,1.6,2.4,2.6,3.4c1,1,2.1,2,3.3,2.8c0.6,0.4,1.2,0.8,1.8,1.2
															c0.6,0.4,1.3,0.7,1.9,1.1c-0.7-0.3-1.4-0.6-2-0.9c-0.3-0.2-0.7-0.3-1-0.5c-0.3-0.2-0.6-0.4-1-0.6
															c-1.3-0.8-2.4-1.7-3.4-2.8c-1-1.1-1.9-2.3-2.6-3.6c-0.2-0.3-0.3-0.7-0.5-1c-0.1-0.3-0.3-0.7-0.4-1
															c-0.1-0.4-0.2-0.7-0.3-1.1C130.8,426.1,130.7,425.8,130.7,425.4z"/>
													</g>
												</g>
											</g>
										</g>
									</g>
								</g>
							</g>
						</g>
					</g>
				</g>
			</g>
		</g>
		<g>
			<g>
				<g>
					<g>
						<g>
							<g>
								<g>
									<g>
										<g>
											<g>
												<g>
													<g>
														<path d="M126.1,446.5l-2.5-12.6l0.1,0.3c-0.6-0.6-1.2-1.3-1.7-1.9c-0.6-0.6-1.1-1.3-1.7-2c-1.1-1.3-2.2-2.7-3.1-4.2
															c1.4,1.1,2.7,2.2,3.9,3.4c0.6,0.6,1.2,1.2,1.8,1.8c0.6,0.6,1.2,1.3,1.7,1.9l0.1,0.1l0.1,0.2l4,12.2L126.1,446.5z"/>
													</g>
												</g>
											</g>
										</g>
									</g>
								</g>
							</g>
						</g>
					</g>
				</g>
			</g>
		</g>
		<g>
			<g>
				<g>
					<g>
						<g>
							<g>
								<g>
									<g>
										<g>
											<g>
												<g>
													<g>
														<path d="M125.4,438c-2.8-0.9-4.6-0.7-5.3-8.9l4.2,4.6L125.4,438z"/>
													</g>
												</g>
											</g>
										</g>
									</g>
								</g>
							</g>
						</g>
					</g>
				</g>
			</g>
		</g>
		<g>
			<g>
				<g>
					<g>
						<g>
							<g>
								<g>
									<g>
										<g>
											<g>
												<g>
													<g>
														<g>
															<path class="st2" d="M93.8,440.4L91,415.7c0,0-18.3-23.4-19.2-36.8c-8-7.1-24.8-43.8-26.6-52.2L91,235.2
																c0,0,71.1,43.1,78.5,60c7.4,16.9,12,25.1,12,25.1l3.8-14.3c0,0-8-28.5-6-36.6c2-8.2,7.2-13.1,18.8-15.8
																c0.6,10.5,9.4,37,15.4,43.4c1.3,3.9-1.5,12.3-1.5,12.3s0,28.7,0.2,43.1l-2.9,6.6c0,0-11.4,46.1-19.4,63.4l3.9,25.6
																C193.7,447.9,148,456,93.8,440.4z"/>
														</g>
													</g>
												</g>
											</g>
										</g>
									</g>
								</g>
							</g>
						</g>
					</g>
				</g>
			</g>
		</g>
		<g class="st3">
			<g class="st4">
				<g>
					<g>
						<g>
							<g>
								<g>
									<g>
										<g>
											<g>
												<g>
													<g>
														<path d="M94.1,428.7c0.2,3.3-0.5,5.2,3.7,7.8c4.2,2.5,28.1,9.1,54.2,9.9s40.7,0.1,39.7-6l0.5-2l1.4,9.5
															c0,0-22.7,3.6-41.9,1.8c0,0-21.9-1.3-37.5-4.2c-15.6-3-20.5-5.1-20.5-5.1l-2.5-18.1l3.4,2.8L94.1,428.7z"/>
													</g>
												</g>
											</g>
										</g>
									</g>
								</g>
							</g>
						</g>
					</g>
				</g>
			</g>
		</g>
	</g>
	<g>
		<g>
			<g>
				<g>
					<g>
						<g>
							<g>
								<g>
									<g>
										<g>
											<g>
												<g>
													<g>
														<path class="st5" d="M107.3,244.6l-24.4,18c0,0-4.9-4.9-9.8-10.4c-2.5-2.8-5-5.7-6.9-8.1c-0.8-1-1.4-1.9-1.9-2.7
															c-0.5-0.3-0.9-0.6-1.3-0.9c-9-6.6-16.4-19.1-16.8-22.8c0.6-4.6,3.8-13,11.5-14.4c14.7,18.8,25.8,27.2,32.8,31
															C96.3,237.4,107.3,244.6,107.3,244.6z"/>
													</g>
												</g>
											</g>
										</g>
									</g>
								</g>
							</g>
						</g>
					</g>
				</g>
			</g>
		</g>
		<g>
			<g>
				<g>
					<g>
						<g>
							<g>
								<g>
									<g>
										<g>
											<g>
												<g>
													<g>
														<g>
															<path d="M75,247.2c-1.1,0-7.2-1-8.8-3.1c-0.8-1-1.4-1.9-1.9-2.7c-0.5-0.3-0.9-0.6-1.3-0.9l0.3-0.5
																c0.8,0.6,0.8,0.3,1.6,0.8c0.8,0.5,2.3,2.1,3.2,2.6C69.8,244.4,73.3,246.2,75,247.2z"/>
														</g>
													</g>
												</g>
											</g>
										</g>
									</g>
								</g>
							</g>
						</g>
					</g>
				</g>
			</g>
		</g>
		<g>
			<g>
				<g>
					<g>
						<g>
							<g>
								<g>
									<g>
										<g>
											<g>
												<g>
													<g>
														<g>
															<path d="M73.1,234.6c-1.2,0.7-2.4,1.3-3.6,1.9c-1.2,0.6-2.5,1-3.8,1.4c-1.3,0.4-2.6,0.7-3.9,0.9l0.1,1
																c0.1,0,0.2,0,0.3,0c0.4,0.1,0.7,0.3,1,0.5c1-0.2,2.1-0.4,3-0.8c1.4-0.5,2.6-1.2,3.8-1.9c1.2-0.7,2.4-1.6,3.4-2.5
																c1.1-0.9,2.1-1.9,3.1-2.8C75.4,233.1,74.3,233.9,73.1,234.6z"/>
														</g>
													</g>
												</g>
											</g>
										</g>
									</g>
								</g>
							</g>
						</g>
					</g>
				</g>
			</g>
		</g>
		<g>
			<g>
				<g>
					<g>
						<g>
							<g>
								<g>
									<g>
										<g>
											<g>
												<g>
													<g>
														<path d="M69.6,241.6c0.8-1.2,1.8-2.4,2.8-3.4c1.1-1,2.2-1.9,3.5-2.8c1.3-0.8,2.6-1.5,4-2c1.4-0.4,3-0.7,4.5-0.2
															c-1.5,0.2-2.8,0.7-4.1,1.2c-1.3,0.5-2.6,1.1-3.8,1.9c-0.6,0.4-1.2,0.7-1.8,1.1c-0.6,0.4-1.2,0.8-1.8,1.3
															C71.7,239.6,70.6,240.6,69.6,241.6z"/>
													</g>
												</g>
											</g>
										</g>
									</g>
								</g>
							</g>
						</g>
					</g>
				</g>
			</g>
		</g>
		<g>
			<g>
				<g>
					<g>
						<g>
							<g>
								<g>
									<g>
										<g>
											<g>
												<g>
													<g>
														<path d="M68.4,244c1-1,2-1.9,3.2-2.7c1.1-0.8,2.3-1.5,3.6-2.2c1.2-0.6,2.5-1.2,3.8-1.6c1.3-0.4,2.7-0.7,4.1-0.8
															c-1.3,0.6-2.4,1.2-3.6,1.9c-1.2,0.7-2.3,1.4-3.4,2.1c-2.2,1.4-4.4,3-6.4,4.6L68.4,244z"/>
													</g>
												</g>
											</g>
										</g>
									</g>
								</g>
							</g>
						</g>
					</g>
				</g>
			</g>
		</g>
		<g>
			<g>
				<g>
					<g>
						<g>
							<g>
								<g>
									<g>
										<g>
											<g>
												<g>
													<g>
														<path class="st1" d="M168.2,293.8l-85.3-31.2c0,0-5.3-5.4-10.2-10.8c3.5,2.4,6.4-1.9,11.4-9c2.3-3.3,4.6-6.2,6.5-8.5
															C156.1,273.6,168.2,293.8,168.2,293.8z"/>
													</g>
												</g>
											</g>
										</g>
									</g>
								</g>
							</g>
						</g>
					</g>
				</g>
			</g>
		</g>
		<g>
			<g>
				<g>
					<g>
						<g>
							<g>
								<g>
									<g>
										<g>
											<g>
												<g>
													<g>
														<path class="st2" d="M82.9,262.6c0,0-4.9-4.9-9.8-10.4c-2.5-2.8-5-5.7-6.9-8.1c-0.8-1-1.4-1.9-1.9-2.7
															c-0.5-0.3-0.9-0.6-1.3-0.9c-9-6.6-16.4-19.1-16.8-22.8c0.6-4.6,3.8-13,11.5-14.4c14.7,18.8,25.8,27.2,32.8,31
															c5.7,3.1,18.7,12.4,18.7,12.4"/>
													</g>
												</g>
											</g>
										</g>
									</g>
								</g>
							</g>
						</g>
					</g>
				</g>
			</g>
		</g>
	</g>
</g>
<g id="Слой_8">
	
		<g transform="matrix(-0.8211942315101624,-0.19848044216632843,0.19848044216632843,-0.8211942315101624,321.744384765625,483.827392578125)">
		<g transform="matrix(1,0,0,1,0,0)">
			<path class="st5" d="M271.6-15.4l-6.3,1.2c-7.9,1.6-8.4,0.4-14.3,1.9c-4.1,1-39,2.1-90.2,29.8l-5.4-26.1
				c21.5-11.4,33.8-16.1,54.9-22.3c15.1-4.5,46.7-9.4,46.7-9.4l7.3-0.2L271.6-15.4z"/>
			<g transform="matrix(1,0,0,1,83.0250015258789,94.07099914550781)">
				<path class="st6" d="M109.5-100.7c0.6,2.4,1.2,5,1.9,7.5c-0.9,0.4-1.8,0.8-2.8,1.2c-1-3.5-2-7.1-2.8-10.7
					c-0.9-4.1-1.6-8.2-2.3-12.3c1-0.5,2-1,3-1.4C107.4-111.2,108.4-106,109.5-100.7z"/>
			</g>
			<g transform="matrix(1,0,0,1,85.3219985961914,91.572998046875)">
				<path class="st6" d="M118.3-101c0.5,2.3,0.7,4.6,1.1,6.8c-1.1,0.4-2.3,0.9-3.5,1.3c-0.8-3.8-1.4-7.7-2.3-11.5
					c-0.8-4-1.9-7.8-3-11.8c1.4-0.5,2.5-1,3.9-1.5C115.9-112.1,117.2-106.5,118.3-101z"/>
			</g>
			<g transform="matrix(1,0,0,1,87.79499816894531,88.58300018310547)">
				<path class="st6" d="M124-119.6c1.6,8,2.9,16.2,4,24.4c-1.7,0.5-3.3,1-5,1.6c-1.2-8.1-2-16.4-2.7-24.7
					C121.6-118.8,122.8-119.2,124-119.6z"/>
			</g>
			<g transform="matrix(1,0,0,1,93.6729965209961,83.25299835205078)">
				<path class="st6" d="M141.7-120.6c1.9,8.1,3.2,16.4,4.5,24.7c-1.4,0.3-2.9,0.6-4.3,1c-1.7-8.1-3.1-16.5-4.5-24.7
					C138.8-120,140.2-120.3,141.7-120.6z"/>
			</g>
			<g transform="matrix(1,0,0,1,96.48400115966797,81.46700286865234)">
				<path class="st6" d="M153.5-95.6c-1.2,0.1-2.3,0.4-3.4,0.5c-1.8-8.2-3.6-16.3-5.4-24.5c1.1-0.2,2.1-0.3,3.2-0.4
					C150.1-112.1,152.1-104,153.5-95.6z"/>
			</g>
			<g transform="matrix(1,0,0,1,90.79399871826172,85.7509994506836)">
				<path class="st6" d="M137.7-95.8c-1.5,0.4-2.9,0.7-4.3,1.1c-1.4-8.2-2.7-16.5-4-24.7c0.9-0.3,1.7-0.5,2.6-0.7
					C134.1-112.1,136.1-104,137.7-95.8z"/>
			</g>
			<g transform="matrix(1,0,0,1,81.07599639892578,97.19499969482422)">
				<path class="st6" d="M97.8-114.2c1.4,7.6,2.8,15.1,3.9,22.7c-0.6,0.3-1.1,0.5-1.6,0.8c-1.4-7.6-2.5-15.2-3.6-22.8
					C97-113.8,97.4-114,97.8-114.2z"/>
			</g>
			<g transform="matrix(1,0,0,1,98.95500183105469,80.03199768066406)">
				<path class="st6" d="M153.5-119.6c1.7,8.2,3.5,16.4,5.1,24.6c-0.7,0.1-1.3,0.1-2.1,0.2c-2.4-8-3.9-16.2-5.1-24.7
					C152.2-119.5,152.8-119.6,153.5-119.6z"/>
			</g>
			<path class="st7" d="M272.8-14.4l-7.5,0.2c-7.9,1.6-8.4,0.4-14.3,1.9c-4.1,1-36.7,1.5-87.9,29.2l-9.9-24.2
				c21.5-11.4,36-17.4,57.1-23.7c15.1-4.5,46.7-9.4,46.7-9.4l7.8-0.9L272.8-14.4z"/>
		</g>
	</g>
</g>
</svg>
