<?xml version="1.0" encoding="utf-8"?>
<!-- Generator: Adobe Illustrator 27.1.1, SVG Export Plug-In . SVG Version: 6.00 Build 0)  -->
<svg version="1.1" id="Слой_3" xmlns="http://www.w3.org/2000/svg" xmlns:xlink="http://www.w3.org/1999/xlink" x="0px" y="0px"
	 viewBox="0 0 310.8 538.5" style="enable-background:new 0 0 310.8 538.5;" xml:space="preserve">
<style type="text/css">
	.st0{opacity:0.8;}
	.st1{fill:#784623;}
	.st2{opacity:0.5;}
	.st3{fill:#56250E;}
	.st4{fill:none;stroke:#000000;stroke-width:1.7417;stroke-miterlimit:10;}
	.st5{fill:none;stroke:#000000;stroke-width:1.7417;stroke-linecap:round;stroke-linejoin:round;stroke-miterlimit:10;}
	.st6{opacity:0.6;}
	.st7{fill:none;stroke:#A65E2D;stroke-width:6.9666;stroke-linecap:round;stroke-linejoin:round;stroke-miterlimit:10;}
</style>
<g id="Слой_14_00000142871093399348656130000005338380850551506337_">
	<g id="Слой_3__x28_копия_x29__00000106827309581611276020000002589236931691977363_" class="st0">
		<path class="st1" d="M270.7,187.8l-47.4,52.8c0,0-15.1,14.4-15.8,28.1c1,18.2-7.4,26.6-7.4,26.6l-29.6,29.6
			c0,0-63.1,63.1-79.2,79.2c-16.1,16.1-29.6,3-29.6,3s-30.4-30.4-42.7-42.7s4.2-27.1,4.2-27.1l71.2-71.2l36.1-36.1
			c0,0,9.4-11.1,25.2-10.5s31.2-13.2,31.2-13.2l54.8-47.4"/>
	</g>
	<g id="Слой_4__x28_копия_x29_" class="st0">
		<path class="st1" d="M242.5,153.7c0,0-2.5,1.5-1,4.2c1.1,2.1,8.7,13.7,28.8,29.8c3.4,2.2,4.8-0.4,4.8-0.4s7.3-7,7.5-11.5
			c-13.7-10.7-28.8-28.8-28.8-28.8S250.5,145.5,242.5,153.7z"/>
	</g>
	<g id="Слой_5__x28_копия_x29_" class="st0">
		<path class="st1" d="M253.1,146.6c0,0,2-5.4,6.5-3.1c15.4,18.1,26.5,27.2,26.5,27.2s1.6,5.3-3.6,5.3"/>
	</g>
	<g id="Слой_9" class="st2">
		<path class="st3" d="M16.5,346.5l25.2,25.2c0,0,18.6,20.3,40-1.1c21.4-21.4,69.8-69.8,69.8-69.8l16.3-16.3
			c0,0,10.7-10.5,15.8-23.4c2.2-5.4,14.9-17.4,14.9-17.4l64.3-62.3c0,0,8.1-0.7,12.6-11.6c3.2-0.7,4.3-5,4.3-5s3.7,3.4,6.4,5.9
			c1.1,6-3.6,5.3-3.6,5.3s-0.6,4.8-7.3,11.2c-1.6,1.4-2.3,2.3-4.7,0.7c-14.4,16.1-48.5,53.9-48.5,53.9s-14.4,13.2-14.5,28.3
			c0.4,14.9-4.6,22.8-8.4,26.4c-3.9,3.7-106.8,106.8-106.8,106.8s-16.6,19.6-33,1.5c-8.5-7.3-41-41-41-41S10.9,357.6,16.5,346.5z"/>
	</g>
	<g id="Слой_3_00000008149455967839716310000014776347385933664703_">
		<path class="st4" d="M270.7,187.8l-47.4,52.8c0,0-15.1,14.4-15.8,28.1c1,18.2-7.4,26.6-7.4,26.6l-29.6,29.6
			c0,0-63.1,63.1-79.2,79.2c-16.1,16.1-29.6,3-29.6,3s-30.4-30.4-42.7-42.7s4.2-27.1,4.2-27.1l71.2-71.2l36.1-36.1
			c0,0,9.4-11.1,25.2-10.5s31.2-13.2,31.2-13.2l54.8-47.4"/>
	</g>
	<g id="Слой_4">
		<path class="st4" d="M242.5,153.7c0,0-2.5,1.5-1,4.2c1.1,2.1,8.7,13.7,28.8,29.8c3.4,2.2,4.8-0.4,4.8-0.4s7.3-7,7.5-11.5
			c-13.7-10.7-28.8-28.8-28.8-28.8S250.5,145.5,242.5,153.7z"/>
	</g>
	<g id="Слой_5">
		<path class="st5" d="M253.1,146.6c0,0,2-5.4,6.5-3.1c15.4,18.1,26.5,27.2,26.5,27.2s1.6,5.3-3.6,5.3"/>
	</g>
	<g id="Слой_7" class="st6">
		<line class="st7" x1="92.6" y1="279.5" x2="41.7" y2="330.5"/>
		<line class="st7" x1="241.5" y1="172.5" x2="182.5" y2="225"/>
		<path class="st7" d="M163.5,228.4c0,0-14.4-0.6-25.1,11.1"/>
	</g>
</g>
</svg>
