<?xml version="1.0" encoding="utf-8"?>
<!-- Generator: Adobe Illustrator 27.1.1, SVG Export Plug-In . SVG Version: 6.00 Build 0)  -->
<svg version="1.1" id="Слой_10" xmlns="http://www.w3.org/2000/svg" xmlns:xlink="http://www.w3.org/1999/xlink" x="0px"
	 y="0px" viewBox="0 0 310.8 538.5" style="enable-background:new 0 0 310.8 538.5;" xml:space="preserve">
<style type="text/css">
	.st0{fill:#2F332A;}
	.st1{fill:none;stroke:#000000;stroke-width:2;stroke-linecap:round;stroke-linejoin:round;stroke-miterlimit:10;}
</style>
<g id="Слой_6__x28_копия_x29__00000064332779615668320010000011861106980608630656_">
	<g>
		<g>
			<g>
				<g>
					<g>
						<g>
							<g>
								<g>
									<g>
										<g>
											<g>
												<g>
													<g>
														<g>
															<g>
																<path class="st0" d="M181.5,320.3C181.5,320.3,181.5,320.2,181.5,320.3c0.1,1.6,0.1,3.4,0.2,5.1
																	c5,1.7,10.1,3.1,15.3,4.4c4.9,1.2,10,2.3,15,3.5c-0.1-12.2-0.1-24-0.1-24s2.9-8.5,1.5-12.3
																	c-6-6.4-14.8-32.9-15.4-43.4c-11.6,2.8-16.8,7.7-18.8,15.8c-2,8.2,6,36.6,6,36.6L181.5,320.3z"/>
															</g>
														</g>
													</g>
												</g>
											</g>
										</g>
									</g>
								</g>
							</g>
						</g>
					</g>
				</g>
			</g>
			<g>
				<g>
					<g>
						<g>
							<g>
								<g>
									<g>
										<g>
											<g>
												<g>
													<g>
														<g>
															<path d="M181.6,324.1l0.7-4.2l-0.9-0.2C181.5,321.2,181.6,322.6,181.6,324.1z"/>
														</g>
													</g>
												</g>
											</g>
										</g>
									</g>
								</g>
							</g>
						</g>
					</g>
				</g>
			</g>
			<g>
				<g>
					<g>
						<g>
							<g>
								<g>
									<g>
										<g>
											<g>
												<g>
													<g>
														<g>
															<path d="M186.3,308.9c-0.1,0.7-0.1,1.5-0.2,2.2c0,0.7,0,1.5,0,2.2c0,0.7,0,1.5,0.1,2.2l0.2,2.2l0.2,2.2l0.2,2.2
																c0.2,1.4,0.4,2.9,0.6,4.3c-0.4-1.4-0.8-2.8-1.2-4.2c-0.4-1.4-0.7-2.8-1-4.2c-0.3-1.4-0.7-2.8-0.9-4.2
																c-0.3-1.4-0.5-2.8-0.7-4.3L186.3,308.9z"/>
														</g>
													</g>
												</g>
											</g>
										</g>
									</g>
								</g>
							</g>
						</g>
					</g>
				</g>
			</g>
			<g>
				<g>
					<g>
						<g>
							<g>
								<g>
									<g>
										<g>
											<g>
												<g>
													<g>
														<g>
															<path d="M190.7,318.7c-0.9-0.8-1.6-1.8-2.2-2.8c-0.6-1-1.2-2-1.8-3.1c-0.3-0.5-0.5-1-0.8-1.6
																c-0.2-0.5-0.5-1.1-0.7-1.6l-0.7-1.6c-0.2-0.5-0.4-1.1-0.1-1.8l1.6-0.5c0.3,1.1,0.6,2.2,0.9,3.3
																c0.3,1.1,0.7,2.2,1.1,3.3C188.8,314.5,189.6,316.6,190.7,318.7z"/>
														</g>
													</g>
												</g>
											</g>
										</g>
									</g>
								</g>
							</g>
						</g>
					</g>
				</g>
			</g>
			<g>
				<g>
					<g>
						<g>
							<g>
								<g>
									<g>
										<g>
											<g>
												<g>
													<g>
														<g>
															<path d="M214,302.8c-1.3,0.7-2.6,1.1-3.9,1.5c-1.3,0.3-2.7,0.5-4,0.6c-1.4,0.1-2.7,0.2-4.1,0.2c-1.4,0-2.7-0.1-4-0.3
																c1.3-0.2,2.7-0.4,4-0.6c1.3-0.2,2.6-0.5,3.9-0.8c1.3-0.3,2.6-0.6,3.8-1c1.2-0.4,2.5-0.7,3.6-1.2L214,302.8z"/>
														</g>
													</g>
												</g>
											</g>
										</g>
									</g>
								</g>
							</g>
						</g>
					</g>
				</g>
			</g>
			<g>
				<g>
					<g>
						<g>
							<g>
								<g>
									<g>
										<g>
											<g>
												<g>
													<g>
														<g>
															<path d="M211.8,295.5c-2.5,0.5-5,0.8-7.5,1.3c-1.2,0.2-2.5,0.5-3.6,0.8c-0.6,0.2-1.2,0.3-1.7,0.6
																c-0.5,0.2-1,0.5-1.3,0.8c-0.1,0.1-0.2,0.3-0.2,0.3c0,0,0,0,0,0c0,0,0-0.1,0-0.1c0,0,0-0.1-0.1-0.1c0,0,0,0,0,0
																c0,0,0.1,0,0.1,0.1c0.3,0.2,1,0.3,1.5,0.4c1.2,0.2,2.5,0.2,3.7,0.3c2.5,0.1,5.1,0.1,7.6,0.1c-2.5,0.6-5,1-7.6,1.2
																c-1.3,0.1-2.6,0.1-3.9,0c-0.7-0.1-1.3-0.1-2.2-0.5c-0.1-0.1-0.2-0.1-0.3-0.2c-0.1-0.1-0.2-0.2-0.3-0.3
																c-0.1-0.1-0.2-0.4-0.3-0.5c0-0.1,0-0.2,0-0.3c0-0.1,0-0.2,0-0.3c0.1-0.6,0.4-1,0.7-1.3c0.6-0.6,1.3-0.9,1.9-1.2
																c0.6-0.3,1.3-0.5,1.9-0.7c1.3-0.4,2.5-0.6,3.8-0.9c2.5-0.5,5.1-0.8,7.6-1L211.8,295.5z"/>
														</g>
													</g>
												</g>
											</g>
										</g>
									</g>
								</g>
							</g>
						</g>
					</g>
				</g>
			</g>
			<g>
				<g>
					<g>
						<g>
							<g>
								<g>
									<g>
										<g>
											<g>
												<g>
													<g>
														<g>
															<g>
																<path class="st1" d="M212,333.3c-0.1-12.2-0.1-24-0.1-24s2.9-8.5,1.5-12.3c-6-6.4-14.8-32.9-15.4-43.4
																	c-11.6,2.8-16.8,7.7-18.8,15.8c-2,8.2,6,36.6,6,36.6l-3.8,14.3c0,0,0,0,0-0.1c0.1,1.7,0.2,3.4,0.2,5.1"/>
															</g>
														</g>
													</g>
												</g>
											</g>
										</g>
									</g>
								</g>
							</g>
						</g>
					</g>
				</g>
			</g>
		</g>
	</g>
</g>
<g id="Слой_7_00000054240611688793586330000011364728260808461733_">
	<g>
		<g>
			<g>
				<g>
					<g>
						<g>
							<g>
								<g>
									<g>
										<g>
											<g>
												<g>
													<g>
														<g>
															<path class="st0" d="M46.1,305.5c-7.4,2-16.5,7.5-17.8,14.1c0,0,5.2,5.9,7.2,7.3c0,0,6.1,12.4,7.2,16.1
																c3.7,3,11.8,4.3,19.5-0.4s2.8-26.9,2.8-26.9L46.1,305.5z"/>
														</g>
													</g>
												</g>
											</g>
										</g>
									</g>
								</g>
							</g>
						</g>
					</g>
				</g>
			</g>
			<g>
				<g>
					<g>
						<g>
							<g>
								<g>
									<g>
										<g>
											<g>
												<g>
													<g>
														<g>
															<path d="M46.1,306.1c-0.4,0.2-0.8,0.3-1.1,0.4l-1.4,0.5l-1.3,0.5l-1.3,0.6c-1.7,0.8-3.4,1.8-5,2.9
																c-1.6,1.1-3,2.4-4.2,3.8c-1.2,1.4-2.1,3.1-2.5,4.8l0,0L29,319c1.1,1.3,2.3,2.5,3.4,3.8c0.6,0.6,1.2,1.2,1.8,1.8
																c0.6,0.6,1.2,1.2,1.8,1.7l0,0l0.2,0.1l0.1,0.2c1.4,2.6,2.7,5.3,4,7.9c0.6,1.3,1.3,2.7,1.9,4c0.6,1.4,1.2,2.7,1.7,4.2
																l0,0l-0.4-0.6c0.7,0.6,1.5,1,2.4,1.4c0.9,0.4,1.8,0.7,2.7,0.9c1.9,0.4,3.8,0.4,5.8,0.2c1.9-0.2,3.8-0.8,5.6-1.6
																c0.5-0.2,0.9-0.4,1.3-0.7l0.7-0.3l0.6-0.4c0.7-0.5,1.3-1.3,1.8-2.1c0.5-0.8,0.8-1.7,1.1-2.7c0.3-0.9,0.5-1.9,0.6-2.9
																c0.3-2,0.3-4,0.3-6c-0.1-4-0.6-8.1-1.3-12.1l0,0L65,316L46.1,306.1z M46.2,304.9l19,10.6l0.1,0.1l0,0.1l0,0
																c0.9,4,1.5,8.1,1.7,12.2c0.1,2.1,0.1,4.1-0.1,6.2c-0.1,1-0.3,2.1-0.5,3.1c-0.3,1-0.6,2.1-1.1,3
																c-0.5,1-1.2,1.9-2.1,2.6c-0.2,0.2-0.5,0.3-0.7,0.5l-0.7,0.4c-0.5,0.3-0.9,0.5-1.4,0.8c-1.9,0.9-3.9,1.6-6,2
																c-2.1,0.3-4.3,0.4-6.4,0c-2.1-0.4-4.2-1.1-6.1-2.5l-0.3-0.2l-0.1-0.4l0,0c-0.4-1.3-0.9-2.7-1.5-4
																c-0.6-1.3-1.1-2.7-1.7-4c-1.2-2.7-2.4-5.4-3.7-8l0.2,0.3l0,0c-0.8-0.6-1.4-1.2-2-1.8c-0.6-0.6-1.2-1.2-1.8-1.8
																c-1.2-1.2-2.4-2.5-3.5-3.8l-0.3-0.3l0.1-0.4l0,0c0.5-2.1,1.6-4,3-5.6c1.4-1.6,2.9-2.9,4.6-4c1.7-1.1,3.4-2.1,5.3-2.9
																l1.4-0.6l1.4-0.5l1.4-0.5C45.1,305.1,45.7,305,46.2,304.9z"/>
														</g>
													</g>
												</g>
											</g>
										</g>
									</g>
								</g>
							</g>
						</g>
					</g>
				</g>
			</g>
		</g>
		<g>
			<g>
				<g>
					<g>
						<g>
							<g>
								<g>
									<g>
										<g>
											<g>
												<g>
													<g>
														<path d="M30.5,315.9c-0.1,0.6,0,1.3,0.3,1.9c0.3,0.6,0.7,1.2,1.2,1.8c1,1.1,2.2,2,3.5,2.9c-1.3-0.7-2.7-1.4-3.8-2.5
															c-0.6-0.5-1.1-1.1-1.6-1.8c-0.4-0.7-0.7-1.6-0.7-2.5L30.5,315.9z"/>
													</g>
												</g>
											</g>
										</g>
									</g>
								</g>
							</g>
						</g>
					</g>
				</g>
			</g>
		</g>
		<g>
			<g>
				<g>
					<g>
						<g>
							<g>
								<g>
									<g>
										<g>
											<g>
												<g>
													<g>
														<path d="M45.7,314c-1.4,0.2-2.7,0.5-4,0.9c-1.3,0.4-2.5,0.9-3.8,1.4c-1.2,0.5-2.5,1.1-3.7,1.7c-1.2,0.6-2.4,1.3-3.6,2
															c0.9-1.1,1.9-2,3.1-2.8c1.2-0.8,2.4-1.4,3.7-2c1.3-0.5,2.6-1,4-1.2C42.9,313.8,44.3,313.7,45.7,314z"/>
													</g>
												</g>
											</g>
										</g>
									</g>
								</g>
							</g>
						</g>
					</g>
				</g>
			</g>
		</g>
		<g>
			<g>
				<g>
					<g>
						<g>
							<g>
								<g>
									<g>
										<g>
											<g>
												<g>
													<g>
														<path d="M33.3,314.4c1.5-1.2,3.4-1.9,5.2-2.4c0.9-0.2,1.9-0.4,2.9-0.5c1-0.1,1.9-0.1,2.9,0.1c-1,0.1-1.9,0.2-2.8,0.4
															c-0.9,0.2-1.9,0.4-2.8,0.6C36.9,313,35.1,313.6,33.3,314.4z"/>
													</g>
												</g>
											</g>
										</g>
									</g>
								</g>
							</g>
						</g>
					</g>
				</g>
			</g>
		</g>
		<g>
			<g>
				<g>
					<g>
						<g>
							<g>
								<g>
									<g>
										<g>
											<g>
												<g>
													<g>
														<path d="M43.6,320.8l15,3.7l2.7,8.5l5.2-0.4c0,0,0.9-10.9-1.5-16.9l-7.9-4.3l-4.3,6.3
															C52.9,317.7,49.3,317.1,43.6,320.8z"/>
													</g>
												</g>
											</g>
										</g>
									</g>
								</g>
							</g>
						</g>
					</g>
				</g>
			</g>
		</g>
		<g>
			<g>
				<g>
					<g>
						<g>
							<g>
								<g>
									<g>
										<g>
											<g>
												<g>
													<g>
														<path d="M44.9,323.8c1-0.4,2-0.5,3.1-0.4c1,0,2.1,0.3,3.1,0.6c1,0.3,1.9,0.7,2.8,1.3c0.9,0.5,1.7,1.2,2.4,1.9
															c-0.9-0.5-1.8-0.9-2.7-1.4c-0.9-0.4-1.8-0.8-2.8-1.1c-0.9-0.3-1.9-0.5-2.9-0.7C47,323.8,46,323.7,44.9,323.8z"/>
													</g>
												</g>
											</g>
										</g>
									</g>
								</g>
							</g>
						</g>
					</g>
				</g>
			</g>
		</g>
	</g>
	<g>
		<g>
			<g>
				<g>
					<g>
						<g>
							<g>
								<g>
									<g>
										<g>
											<g>
												<g>
													<g>
														<g>
															<path class="st0" d="M48.9,284c-5,5.3-7.7,11.6-7.7,11.6s2.8,4.5,4.6,5.8c0,0,5.7,10.8,8,22c0,0,2.6,2.5,9.8,3.8
																c0,0,6.3-1.8,12.4-8l-0.3-35L48.9,284z"/>
														</g>
													</g>
												</g>
											</g>
										</g>
									</g>
								</g>
							</g>
						</g>
					</g>
				</g>
			</g>
			<g>
				<g>
					<g>
						<g>
							<g>
								<g>
									<g>
										<g>
											<g>
												<g>
													<g>
														<g>
															<path d="M49.3,284.8c-0.1,0.2-0.2,0.4-0.4,0.5l-0.5,0.6c-0.4,0.4-0.7,0.9-1.1,1.3c-0.7,0.9-1.4,1.8-2,2.8
																c-0.6,0.9-1.2,1.9-1.8,2.9c-0.6,1-1.1,2-1.6,3l0,0l-0.1-0.7c0.6,1,1.3,2.1,2,3.1c0.3,0.5,0.7,1,1.1,1.4
																c0.4,0.5,0.8,0.9,1.2,1.2l0,0l0.1,0.1l0.1,0.1c0.9,1.7,1.8,3.5,2.6,5.3c0.8,1.8,1.6,3.6,2.3,5.4
																c0.7,1.8,1.4,3.7,2,5.6c0.6,1.9,1.1,3.8,1.6,5.7l0,0l-0.3-0.5c0.1,0.1,0.3,0.2,0.4,0.3c0.2,0.1,0.3,0.2,0.5,0.3
																c0.3,0.2,0.7,0.4,1.1,0.6c0.7,0.4,1.5,0.7,2.3,0.9c0.8,0.3,1.6,0.5,2.4,0.7l1.2,0.3l1.3,0.2l0,0l-0.5,0
																c0.5-0.2,1.1-0.4,1.6-0.6c0.5-0.2,1.1-0.5,1.6-0.8c1.1-0.5,2.1-1.2,3.1-1.8c1-0.7,2-1.4,2.9-2.2
																c0.9-0.8,1.8-1.6,2.6-2.5l0,0l-0.4,0.9l0.7-35l0,0l0.3,0.3C66.8,284.6,58,284.7,49.3,284.8z M48.6,283.2
																c9.1,0.2,18.2,0.4,27.1,0.7l0.3,0l0,0.3l0,0l0.3,35l0,0.1l-0.1,0.1l0,0c-0.8,0.9-1.7,1.9-2.6,2.7
																c-0.9,0.9-1.9,1.7-2.9,2.4c-1,0.8-2.1,1.5-3.2,2.1c-0.6,0.3-1.1,0.6-1.7,0.9c-0.6,0.3-1.2,0.5-1.8,0.8l-0.2,0.1
																l-0.3-0.1l0,0l-1.3-0.3l-1.3-0.4c-0.9-0.3-1.7-0.5-2.6-0.9c-0.9-0.3-1.7-0.7-2.5-1.1c-0.4-0.2-0.8-0.5-1.2-0.7
																c-0.2-0.1-0.4-0.3-0.6-0.4c-0.2-0.2-0.4-0.3-0.6-0.5l-0.2-0.2l-0.1-0.3l0,0c-0.4-1.9-0.8-3.8-1.3-5.6
																c-0.5-1.9-1.1-3.7-1.8-5.5c-0.6-1.8-1.3-3.7-2.1-5.4c-0.7-1.8-1.5-3.6-2.4-5.3l0.2,0.2l0,0c-0.6-0.4-1.1-0.8-1.5-1.3
																c-0.5-0.5-0.9-0.9-1.3-1.4c-0.8-1-1.6-1.9-2.3-3l-0.3-0.4l0.2-0.5l0,0c0.5-1.1,1.1-2.1,1.7-3.2c0.6-1,1.2-2,1.9-3
																c0.7-1,1.4-1.9,2.1-2.9c0.4-0.5,0.7-0.9,1.1-1.4l0.3-0.3l0.4-0.4C48.1,283.7,48.3,283.4,48.6,283.2z"/>
														</g>
													</g>
												</g>
											</g>
										</g>
									</g>
								</g>
							</g>
						</g>
					</g>
				</g>
			</g>
		</g>
		<g>
			<g>
				<g>
					<g>
						<g>
							<g>
								<g>
									<g>
										<g>
											<g>
												<g>
													<g>
														<path d="M45.3,301.4c-0.2-0.4-0.3-0.9-0.5-1.4c-0.1-0.5-0.3-0.9-0.4-1.4c-0.1-0.5-0.2-0.9-0.3-1.4
															c-0.1-0.5-0.2-1-0.2-1.5c0.9,1.7,1.8,3.5,2.5,5.3L45.3,301.4z"/>
													</g>
												</g>
											</g>
										</g>
									</g>
								</g>
							</g>
						</g>
					</g>
				</g>
			</g>
		</g>
		<g>
			<g>
				<g>
					<g>
						<g>
							<g>
								<g>
									<g>
										<g>
											<g>
												<g>
													<g>
														<path d="M53.1,299.4c4.9-0.8,13,0.8,14.6,1.9c1.6,1,5.8,8.2,5.8,8.2l2.4-0.7l-0.2-24.6L57.3,284l1,11.4
															C58.2,295.4,54.4,295.9,53.1,299.4z"/>
													</g>
												</g>
											</g>
										</g>
									</g>
								</g>
							</g>
						</g>
					</g>
				</g>
			</g>
		</g>
		<g>
			<g>
				<g>
					<g>
						<g>
							<g>
								<g>
									<g>
										<g>
											<g>
												<g>
													<g>
														<path d="M56.2,302c1-0.5,2.1-0.7,3.2-0.8c1.1-0.1,2.3,0,3.4,0.2c1.1,0.2,2.2,0.6,3.2,1.1c1,0.5,1.9,1.1,2.7,1.9
															c-1-0.4-2-0.8-3-1.1c-1-0.3-2-0.6-3.1-0.8c-1-0.2-2.1-0.4-3.1-0.5C58.4,302,57.3,302,56.2,302z"/>
													</g>
												</g>
											</g>
										</g>
									</g>
								</g>
							</g>
						</g>
					</g>
				</g>
			</g>
		</g>
	</g>
	<g>
		<g>
			<g>
				<g>
					<g>
						<g>
							<g>
								<g>
									<g>
										<g>
											<g>
												<g>
													<g>
														<g>
															<path class="st0" d="M89.8,267.5c-1.1-1.1-2.1-2.3-3.2-3.4c-2.5-2.8-4.8-5.8-7.6-8.3c-4.4-0.7-12.3,1-23.6,13.4
																c1.2,4.5,2.6,7.6,3.6,9.2c0,0,4.4,16.4,5,20.4c0,0,2.6,3.4,9.6,5.2c0,0,7.9-2.1,13.3-6.3c3.6-2.8,3.6-19,3.2-29.7
																C90,267.9,89.9,267.7,89.8,267.5z"/>
														</g>
													</g>
												</g>
											</g>
										</g>
									</g>
								</g>
							</g>
						</g>
					</g>
				</g>
			</g>
			<g>
				<g>
					<g>
						<g>
							<g>
								<g>
									<g>
										<g>
											<g>
												<g>
													<g>
														<g>
															<path d="M90.8,269.4c-0.3-0.6-0.6-1.3-1-1.9c-0.1-0.1-0.2-0.3-0.4-0.4c0.1,1.8,0.1,3.6,0.2,5.3c0.1,4.5,0,9-0.3,13.5
																c-0.2,2.2-0.4,4.5-0.9,6.6c-0.2,1.1-0.5,2.1-0.9,3.1c-0.2,0.5-0.5,0.9-0.8,1.2c-0.2,0.3-0.8,0.6-1.2,0.9
																c-1.8,1.2-3.8,2.3-5.8,3.1c-2,0.9-4,1.6-6,2.2l-1.1-0.3c-0.4-0.1-0.9-0.3-1.3-0.4c-0.8-0.3-1.7-0.7-2.4-1.1
																c-0.8-0.4-1.5-0.9-2.3-1.4c-0.4-0.3-0.7-0.5-1-0.8c-0.3-0.2-0.5-0.5-0.7-0.7c-0.3-1.7-0.8-3.3-1.2-4.9l-1.4-5.1
																c-0.9-3.4-1.9-6.8-2.8-10.2l0-0.1l0-0.1l0,0c-0.8-1.3-1.5-2.9-2-4.4c-0.5-1.4-1-2.9-1.4-4.4c1.6-1.6,3.2-3.1,4.9-4.6
																c1.7-1.5,3.6-2.9,5.5-4.1c1.9-1.2,4-2.3,6.1-2.9c0.5-0.2,1.1-0.3,1.6-0.4c0.3-0.1,0.5-0.1,0.8-0.1
																c0.3-0.1,0.5-0.1,0.8-0.1c0.5-0.1,1.1-0.1,1.6-0.1c0.3,0,0.5,0,0.8,0l0.7,0c0.7,0.1,1.3,0.3,2,0.5
																c-0.8-0.8-1.6-1.5-2.4-2.2c0.4,0.3,0.8,0.6,1.1,0.9c-0.6-0.6-1.2-1.2-1.8-1.8c-0.1,0-0.2,0-0.3,0
																c-0.7,0-1.3,0.1-1.9,0.2c-1.3,0.2-2.5,0.5-3.6,1c-2.3,0.9-4.4,2.1-6.4,3.5c-2,1.4-3.8,2.9-5.5,4.6
																c-1.7,1.6-3.3,3.4-4.9,5.2l-0.2,0.2l0.1,0.3c0.4,1.6,0.9,3.2,1.5,4.8c0.6,1.5,1.2,3,2.1,4.5
																c0.8,3.4,1.7,6.8,2.5,10.2l1.2,5.1c0.4,1.7,0.8,3.4,1,5.1l0,0l0,0.2l0.1,0.2c0.4,0.5,0.7,0.8,1.1,1.1
																c0.4,0.3,0.8,0.6,1.2,0.9c0.8,0.6,1.6,1.1,2.5,1.5c0.9,0.4,1.7,0.8,2.6,1.1c0.4,0.2,0.9,0.3,1.4,0.5l1.4,0.4l0,0
																l0.2,0.1l0.2-0.1c2.2-0.7,4.4-1.5,6.5-2.4c2.1-0.9,4.1-2,6.1-3.4l0.7-0.5c0.1-0.1,0.2-0.1,0.4-0.3
																c0.1-0.1,0.3-0.2,0.4-0.4c0.5-0.5,0.8-1.1,1-1.6c0.5-1.1,0.8-2.3,1-3.4c0.5-2.3,0.7-4.6,0.8-6.8
																c0.3-4.6,0.3-9.1,0.1-13.6C90.9,271.4,90.8,270.4,90.8,269.4z M58.5,278.6C58.5,278.6,58.5,278.6,58.5,278.6
																L58.5,278.6L58.5,278.6z"/>
														</g>
													</g>
												</g>
											</g>
										</g>
									</g>
								</g>
							</g>
						</g>
					</g>
				</g>
			</g>
		</g>
		<g>
			<g>
				<g>
					<g>
						<g>
							<g>
								<g>
									<g>
										<g>
											<g>
												<g>
													<g>
														<path d="M56.5,268.4c0.9,1.4,2,2.6,3.3,3.7c0.7,0.5,1.4,1,2.1,1.4c0.8,0.4,1.6,0.7,2.5,0.9c-0.9,0.2-1.9,0.2-2.8,0
															c-0.9-0.2-1.8-0.6-2.6-1.1c-0.8-0.5-1.6-1.1-2.3-1.8c-0.7-0.7-1.3-1.5-1.7-2.3L56.5,268.4z"/>
													</g>
												</g>
											</g>
										</g>
									</g>
								</g>
							</g>
						</g>
					</g>
				</g>
			</g>
		</g>
		<g>
			<g>
				<g>
					<g>
						<g>
							<g>
								<g>
									<g>
										<g>
											<g>
												<g>
													<g>
														<path d="M60.9,273.6c1.4-0.6,2.7-1.2,4-1.9c1.3-0.7,2.5-1.5,3.7-2.3c1.2-0.8,2.4-1.7,3.6-2.5c1.2-0.9,2.4-1.7,3.7-2.5
															c-0.9,1.2-1.9,2.4-3,3.4c-1.1,1.1-2.3,2-3.6,2.8c-1.3,0.8-2.6,1.6-4.1,2.1C63.9,273.3,62.4,273.6,60.9,273.6z"/>
													</g>
												</g>
											</g>
										</g>
									</g>
								</g>
							</g>
						</g>
					</g>
				</g>
			</g>
		</g>
		<g>
			<g>
				<g>
					<g>
						<g>
							<g>
								<g>
									<g>
										<g>
											<g>
												<g>
													<g>
														<path d="M58,269.7c1.1-1.1,2.4-2.1,3.7-3.1c1.3-0.9,2.7-1.8,4.1-2.5c1.4-0.7,2.9-1.4,4.5-1.8c0.4-0.1,0.8-0.2,1.2-0.3
															c0.4-0.1,0.8-0.1,1.2-0.2c0.4,0,0.8,0,1.2,0c0.4,0,0.8,0.1,1.2,0.2c-0.4,0.1-0.8,0.2-1.2,0.3
															c-0.4,0.1-0.8,0.2-1.1,0.3c-0.4,0.1-0.7,0.2-1.1,0.3c-0.4,0.1-0.7,0.2-1.1,0.3c-1.5,0.4-2.9,1-4.4,1.7
															C63.4,266.3,60.7,267.9,58,269.7z"/>
													</g>
												</g>
											</g>
										</g>
									</g>
								</g>
							</g>
						</g>
					</g>
				</g>
			</g>
		</g>
		<g>
			<g>
				<g>
					<g>
						<g>
							<g>
								<g>
									<g>
										<g>
											<g>
												<g>
													<g>
														<path d="M89.8,267.5c-1.1-1.1-2.1-2.3-3.2-3.4c-2.5-2.8-4.8-5.8-7.6-8.3c-0.7-0.1-6.1-0.5-8.2,1.3l0.4,1.1
															c2.2-0.7,2.9-0.2,6,6.3c3.1,6.5,3.8,8.6,4.1,10.9c0.5-4.2-1.3-10.3-2.8-12.6c2.5,2.1,4.3,5.5,4.2,7.2l1.6,0.3l5.9,1.8
															l-0.2-4.2C90,267.8,89.9,267.6,89.8,267.5z"/>
													</g>
												</g>
											</g>
										</g>
									</g>
								</g>
							</g>
						</g>
					</g>
				</g>
			</g>
		</g>
	</g>
</g>
</svg>
