<?xml version="1.0" encoding="utf-8"?>
<!-- Generator: Adobe Illustrator 27.1.1, SVG Export Plug-In . SVG Version: 6.00 Build 0)  -->
<svg version="1.1" id="Слой_3" xmlns="http://www.w3.org/2000/svg" xmlns:xlink="http://www.w3.org/1999/xlink" x="0px" y="0px"
	 viewBox="0 0 310.8 538.5" style="enable-background:new 0 0 310.8 538.5;" xml:space="preserve">
<style type="text/css">
	.st0{fill:#231F20;}
	.st1{fill:#962A2A;}
	.st2{fill:#FFFFFF;}
</style>
<path class="st0" d="M142.3,390.4c0,0,31.7-12.3,29.4-24c-1.3-7.7-15-15.3-15-15.3s26.4,7.1,29.4-0.6c2.9-7.7-8.1-32.3-8.1-32.3
	s20.1,27.3,26.5,23.7c6.3-3.6,5.7-25.9,5.7-25.9s7.1,26.2,21.8,11.1c6.9-7,13.3-27.9,13.3-27.9s-7,31.2,2.9,31.9
	c9.9,0.8,33.7-10.7,33.7-10.7s-28,21.6-24.8,29.6c3.6,8.9,21.5,9,21.5,9s-15.1,1.5-17.1,9.4c-2.1,7.9,14.2,16.9,14.2,16.9
	s-22.5-10.4-27-3.6c-4.6,6.9,8,31,8,31s-13.1-14.8-20.5-10.9c-7.4,3.9-6.3,22.3-6.3,22.3S218.5,403,211,404.8
	c-7,1.6-11,12.1-13.2,22.2c0,0-2.6-19.7-10.1-24.1s-18.7,10.2-18.7,10.2s4.9-15,1.5-21.1C167.1,386,142.3,390.4,142.3,390.4z"/>
<g>
	<path class="st1" d="M134.6,387.1c0,0,31.7-12.3,29.4-24c-1.3-7.7-15-15.3-15-15.3s26.4,7.1,29.4-0.6c2.9-7.7-8.1-32.3-8.1-32.3
		s20.1,27.3,26.5,23.7c6.3-3.6,5.7-25.9,5.7-25.9s7.1,26.2,21.8,11.1c6.9-7,13.3-27.9,13.3-27.9s-7,31.2,2.9,31.9
		c9.9,0.8,33.7-10.7,33.7-10.7s-28,21.6-24.8,29.6c3.6,8.9,21.5,9,21.5,9s-15.1,1.5-17.1,9.4c-2.1,7.9,14.2,16.9,14.2,16.9
		s-22.5-10.4-27-3.6c-4.6,6.9,8,31,8,31s-13.1-14.8-20.5-10.9c-7.4,3.9-6.3,22.3-6.3,22.3s-11.4-21.1-18.9-19.3
		c-7,1.6-11,12.1-13.2,22.2c0,0-2.6-19.7-10.1-24.1c-7.4-4.3-18.7,10.2-18.7,10.2s4.9-15,1.5-21.1
		C159.5,382.7,134.6,387.1,134.6,387.1z"/>
	<path class="st0" d="M176.7,325.7c0.9,1.1,1.9,2.2,2.9,3.3c3.4,3.7,6.4,6.6,8.9,8.6c3.7,2.8,6.5,3.8,8.7,2.9
		c0.2-0.1,0.4-0.2,0.5-0.3c3.2-1.8,5.3-7,6.2-15.7c0.1-1,0.2-2,0.3-3c1.7,3.1,4.1,6.2,7.2,7.8c2.5,1.3,5.2,1.4,8,0.3
		c2.1-0.8,4.2-2.3,6.4-4.5c2.8-2.9,5.5-7.9,7.8-12.9c-0.4,7.2,0.4,12.2,2.4,14.9c1.1,1.5,2.7,2.4,4.5,2.6c4.5,0.4,11.9-1.5,22.1-5.5
		c0.2-0.1,0.5-0.2,0.7-0.3c-1.3,1.2-2.6,2.4-3.9,3.6c-12.6,12.3-12.7,17.2-11.6,19.8c2,5.1,7.9,7.6,13.2,8.9c-5,2-8,4.8-8.9,8.4
		c-0.9,3.4,0.7,7.2,4.6,11.2c-6.3-1.8-11-2.1-14.1-0.9c-1.4,0.5-2.4,1.4-3.1,2.4c-2.3,3.4-1.6,9.9,2.1,19.8c0.6,1.5,1.1,3,1.7,4.3
		c-0.1-0.1-0.2-0.2-0.3-0.2c-5.9-4.6-10.9-6.2-14.6-4.8c-0.2,0.1-0.5,0.2-0.7,0.3c-3.7,1.9-6,6.6-6.9,14c-0.1,1.1-0.2,2.2-0.3,3.3
		c-1-1.5-2.1-3.1-3.3-4.8c-5.6-7.4-10.2-10.6-14.2-9.7c-0.5,0.1-1,0.3-1.4,0.4c-4.6,1.8-8.3,7-11.1,15.4c-0.2-0.9-0.5-1.8-0.7-2.7
		c-2.2-7.7-5.2-12.7-8.7-14.8c-2.3-1.3-5-1.4-8-0.2c-2.9,1.1-5.7,3.3-7.9,5.4c0.1-0.4,0.2-0.9,0.2-1.3c1.1-6.4,0.9-11.2-0.8-14.1
		c-1.1-1.9-3.5-3.2-7.2-3.7c-2.6-0.4-6-0.5-10-0.3c-0.4,0-0.8,0-1.2,0.1c1.8-0.9,3.6-1.9,5.5-3c4.5-2.7,7.9-5.3,10.3-7.9
		c3.2-3.5,4.6-6.9,3.9-10.1c-0.6-3.5-3.3-7.3-8.1-11.2c6.1,1,13.8,1.8,18.4,0c2-0.8,3.4-2,4-3.7c1.4-3.7,0.4-10.3-2.9-20.3
		C177.1,326.9,176.9,326.3,176.7,325.7L176.7,325.7z M170.4,314.8c0,0,11,24.6,8.1,32.3c-0.5,1.2-1.5,2.1-2.9,2.6
		c-7.7,3-26.4-2-26.4-2s13.7,7.6,15,15.3c2.2,11.4-28.1,23.5-29.4,24c0,0,0,0,0,0s24.9-4.4,28.3,1.6c3.4,6.1-1.5,21.1-1.5,21.1
		s6.1-7.9,12.3-10.3c2.2-0.9,4.4-1,6.4,0.1c7.4,4.3,10.1,24.1,10.1,24.1c2.1-9.6,5.7-19.4,12-21.9c0.4-0.1,0.8-0.3,1.2-0.4
		c7.5-1.8,18.9,19.3,18.9,19.3s-1.2-18.4,6.3-22.3c0.2-0.1,0.3-0.2,0.5-0.2c7.5-3,20,11.2,20,11.2s-12.5-24.1-8-31
		c0.5-0.8,1.3-1.4,2.3-1.7c7.2-2.8,24.8,5.3,24.8,5.3s-16.3-9-14.2-16.9c0.9-3.5,4.4-5.8,8-7.2c4.5-1.8,9.1-2.2,9.1-2.2
		s-17.9-0.1-21.5-9c-3.2-8,24.8-29.6,24.8-29.6s-5.6,2.7-12.4,5.4c-7.3,2.9-16.1,5.8-21.3,5.4c-9.9-0.8-2.9-31.9-2.9-31.9
		s-6.5,20.9-13.3,27.9c-2.1,2.1-4,3.4-5.7,4.1c-10.9,4.3-16.1-15.2-16.1-15.2s0.6,22.4-5.7,25.9c-0.1,0.1-0.2,0.1-0.3,0.1
		C190,341.3,170.4,314.8,170.4,314.8L170.4,314.8z"/>
</g>
<g>
	<g>
		<path class="st2" d="M156.6,363.4c1-0.6,2.9-1.9,5.7-3.8c2.4-1.6,4.3-2.9,5.8-3.7c0.6-0.3,1.2-0.5,1.8-0.8
			c4.5-1.8,7.4-1.1,8.7,2.2c1.8,4.6,0.8,10.3-3.1,17.1c3.5-1.6,5.9-1.4,7.3,0.6c0.3,0.4,0.5,0.9,0.7,1.4c1,2.6,0.8,5.7-0.6,9.3
			c-1.1,2.8-2.7,5.5-4.9,8.1c-2.6,3.2-6.1,5.6-10.4,7.3c-0.7,0.3-1.4,0.5-2.1,0.8c-1.4-7.6-3.7-17.7-6.7-30.2
			C157.9,368.2,157.2,365.4,156.6,363.4z M170.6,382.8c0.2,1.4,0.6,3.3,1.2,5.7c4.3-3.4,6-6,5.3-7.9c-0.3-0.7-1-0.8-2.2-0.3
			C173.8,380.6,172.4,381.5,170.6,382.8z M168,367.8c0.2,1.2,0.4,2.5,0.6,3.7l0.6,3.7c1.9-2.5,3-5,3.3-7.5c0.1-0.5,0-1-0.1-1.2
			c-0.2-0.6-0.8-0.7-1.7-0.4C170,366.4,169.1,367,168,367.8z"/>
		<path class="st0" d="M169.9,355.1c4.5-1.8,7.4-1.1,8.7,2.2c1.8,4.6,0.8,10.3-3.1,17.1c0.3-0.2,0.7-0.3,1-0.4
			c2.9-1.2,5.1-0.8,6.4,1c0.3,0.4,0.5,0.9,0.7,1.4c1,2.6,0.8,5.7-0.6,9.3c-1.1,2.8-2.7,5.5-4.9,8.1c-2.6,3.2-6.1,5.6-10.4,7.3
			c-0.7,0.3-1.4,0.5-2.1,0.8c-1.4-7.6-3.7-17.7-6.7-30.2c-0.8-3.6-1.6-6.3-2.1-8.3c1-0.6,2.9-1.9,5.7-3.8c2.4-1.6,4.3-2.9,5.8-3.7
			C168.7,355.6,169.3,355.4,169.9,355.1L169.9,355.1z M169.2,375.2c1.9-2.5,3-5,3.3-7.5c0.1-0.5,0-1-0.1-1.2
			c-0.2-0.6-0.8-0.7-1.7-0.4c-0.7,0.3-1.6,0.8-2.7,1.7c0.2,1.2,0.4,2.5,0.6,3.7L169.2,375.2L169.2,375.2z M171.8,388.4
			c4.3-3.4,6-6,5.3-7.9c-0.3-0.7-1-0.8-2.2-0.3c-1.1,0.4-2.5,1.3-4.3,2.6C170.8,384.2,171.2,386.1,171.8,388.4L171.8,388.4z
			 M169.2,353.4c-0.6,0.2-1.2,0.5-1.9,0.8l0,0l0,0c-1.6,0.8-3.6,2.1-6,3.8l0,0l0,0c-2.7,1.9-4.5,3.2-5.5,3.7l-1.3,0.7l0.4,1.4
			c0.6,2,1.3,4.7,2.1,8.3l0,0l0,0c3,12.5,5.3,22.6,6.7,30.1l0.4,2.1l2-0.7c0.7-0.2,1.5-0.5,2.2-0.8c4.6-1.8,8.4-4.5,11.2-7.9
			c2.3-2.8,4.1-5.7,5.2-8.6c1.6-4.1,1.8-7.7,0.6-10.7c-0.2-0.6-0.6-1.2-0.9-1.8l0,0l0,0c-0.9-1.3-2.2-2.1-3.8-2.4
			c-0.5-0.1-1-0.1-1.5-0.1c0.9-2.1,1.6-4.2,1.9-6.1c0.6-3.2,0.3-6.1-0.7-8.7c-0.7-1.8-1.8-3.1-3.4-3.8
			C174.9,352,172.4,352.2,169.2,353.4L169.2,353.4z M170,368.6c0.2-0.1,0.3-0.2,0.4-0.3c-0.1,0.4-0.2,0.8-0.3,1.2
			C170.1,369.2,170,368.9,170,368.6L170,368.6z M172.6,383.6c1.2-0.8,2-1.3,2.6-1.5c-0.1,0.2-0.3,0.5-0.4,0.8
			c-0.4,0.6-1,1.3-1.8,2.1C172.8,384.5,172.7,384,172.6,383.6L172.6,383.6z M176.1,381.8L176.1,381.8L176.1,381.8z"/>
	</g>
	<g>
		<path class="st2" d="M184.7,395.1c0-14.9-0.8-29-2.4-42.2l14.7-8.8c2.3,11.1,6.4,23.8,12.1,38l-10,6.8l-1.8-6.8l-3.2,2l0.7,5
			L184.7,395.1z M195.5,374.9l-5.3-20.4l-0.1,0l3,21.9L195.5,374.9z"/>
		<path class="st0" d="M197,344.1c2.3,11.1,6.4,23.8,12.1,38l-10,6.8l-1.8-6.8l-3.2,2l0.7,5l-10.2,5.9c0-14.9-0.8-29-2.4-42.2
			L197,344.1L197,344.1z M190.2,354.5L190.2,354.5l2.9,21.9l2.3-1.5L190.2,354.5L190.2,354.5z M198.3,341.1l-2.3,1.4l-14.7,8.8
			l-1,0.6l0.1,1.2c1.6,13.1,2.4,27.2,2.4,42l0,3.2l2.8-1.6l10.2-5.9l1.1-0.6l-0.2-1.2l-0.5-3.8l0,0l1.1,4.3l0.7,2.6l2.2-1.5l10-6.8
			l1.2-0.9l-0.6-1.4c-5.7-14-9.8-26.7-12-37.7L198.3,341.1L198.3,341.1z"/>
	</g>
	<g>
		<path class="st2" d="M202.1,345.6l8.2-5.3c0.4,1.1,0.9,2.6,1.7,4.6c1.8,4.7,3.6,8.7,5.3,12.2c1,2,1.9,3.5,2.7,4.6l-4.4-21.5
			l8.2-5.1c1.8,15.2,4.2,28.1,7.1,38.7l-7.3,5.5c-0.1-0.1-0.5-0.6-1.4-1.5l-5.7-6.6c-0.9-1.1-1.5-1.8-1.7-2.1
			c0.9,4.4,1.9,8.5,2.9,12.5l-7.3,5.7L202.1,345.6z"/>
		<path class="st0" d="M223.9,334.9c1.8,15.2,4.2,28.1,7.1,38.7l-7.3,5.5c-0.1-0.1-0.5-0.6-1.4-1.5l-5.7-6.6
			c-0.9-1.1-1.5-1.8-1.7-2.1c0.9,4.4,1.9,8.5,2.9,12.5l-7.3,5.7l-8.4-41.6l8.2-5.3c0.4,1.1,0.9,2.6,1.7,4.6
			c1.8,4.7,3.6,8.7,5.3,12.2c1,2,1.9,3.5,2.7,4.6l-4.4-21.5L223.9,334.9L223.9,334.9z M225.4,331.8l-2.5,1.6l-8.2,5.1l-1.1,0.7
			l0.3,1.3l1.6,7.7c-0.5-1.3-1.1-2.6-1.6-4c-0.8-1.9-1.3-3.4-1.6-4.5l-0.7-2.3l-2.1,1.3l-8.2,5.3l-1.1,0.7l0.3,1.3l8.4,41.6l0.6,3
			l2.4-1.9l7.3-5.7l1-0.8l-0.3-1.2c-0.5-1.6-0.9-3.3-1.3-5.1l2.5,2.9l0,0l0,0c1.4,1.5,1.4,1.6,1.5,1.7l1.1,1l1.2-0.9l7.3-5.5l1-0.8
			l-0.3-1.2c-2.8-10.4-5.2-23.4-7-38.4L225.4,331.8L225.4,331.8z"/>
	</g>
	<g>
		<path class="st2" d="M243.6,372.6c-3.7,1.4-7,0.5-10.1-2.8c-1.6-1.7-2.8-3.7-3.8-6.1c-0.9-2.3-1.5-5-1.9-8
			c-0.6-5.2-0.2-10.4,1.4-15.5c1.9-6.3,4.9-10.2,9.2-11.9c3.7-1.4,7.1-0.4,10.2,3l-3.3,8.4c-1-0.7-2.1-0.8-3.3-0.3
			c-2.3,0.9-3.9,3.4-4.7,7.5c-0.6,3.1-0.7,6.2-0.3,9.5c0.2,1.3,0.4,2.4,0.8,3.3c0.6,1.4,1.4,2.4,2.4,3c1.2,0.7,2.5,0.7,3.9,0.1
			c1.6-0.6,2.8-2,3.6-4c0.6-1.6,1-3.4,0.9-5.5c-2.3,1.5-4.5,3-6.5,4.4l-1.3-8.2l12.6-8.3c0.9,2.2,1.5,5,1.6,8.3
			c0.1,2.9-0.2,5.7-0.7,8.4C252.6,365.5,249.1,370.5,243.6,372.6z"/>
		<path class="st0" d="M238.3,328.2c3.7-1.4,7.1-0.4,10.2,3l-3.3,8.4c-1-0.7-2.1-0.8-3.3-0.3c-2.3,0.9-3.9,3.4-4.7,7.5
			c-0.6,3.1-0.7,6.2-0.3,9.5c0.1,1.3,0.4,2.4,0.8,3.3c0.6,1.4,1.4,2.4,2.4,3c1.2,0.7,2.5,0.7,3.9,0.1c1.6-0.6,2.8-2,3.6-4
			c0.6-1.6,1-3.4,0.9-5.5c-2.3,1.5-4.5,3-6.5,4.4l-1.3-8.2l12.6-8.3c0.9,2.2,1.5,5,1.6,8.3c0.1,2.9-0.2,5.7-0.7,8.4
			c-1.6,7.8-5.2,12.8-10.7,14.9c-3.7,1.4-7,0.5-10.1-2.8c-1.6-1.7-2.8-3.7-3.8-6.1c-0.9-2.3-1.5-5-1.9-8c-0.6-5.2-0.2-10.4,1.4-15.5
			C231.1,333.8,234.1,329.9,238.3,328.2L238.3,328.2z M237.7,326.5c-4.8,1.9-8.2,6.3-10.3,13.1c-1.6,5.4-2.1,10.8-1.4,16.3
			c0.4,3.2,1.1,6,2,8.5c1,2.7,2.4,4.9,4.2,6.7c4.5,4.9,9.1,4.5,12.1,3.3c6.1-2.4,10.1-7.9,11.8-16.3c0.6-2.8,0.8-5.8,0.7-8.8l0,0
			l0,0c-0.1-3.5-0.7-6.5-1.7-8.9l-0.9-2.1l-1.9,1.2l-12.6,8.3l-0.9,0.6c0.1-0.4,0.1-0.9,0.2-1.3c0.7-3.4,1.9-5.4,3.6-6.1
			c0.8-0.3,1.2-0.1,1.5,0.1l1.9,1.4l0.9-2.2l3.3-8.4l0.4-1.1l-0.8-0.9C245.4,324.9,240.7,325.3,237.7,326.5L237.7,326.5z
			 M240.8,360.8c-0.5-0.4-1-1-1.3-1.8c-0.3-0.8-0.5-1.7-0.7-2.9l0,0l0,0c-0.3-2.5-0.3-4.9,0-7.3l0.2,0.9l1.3,8.2L240.8,360.8
			L240.8,360.8z M240.9,360.8l2.4-1.7c1-0.7,2-1.4,3-2.1c-0.1,0.4-0.2,0.7-0.3,1l0,0l0,0c-0.6,1.5-1.4,2.5-2.6,2.9
			c-1.1,0.5-1.8,0.2-2.3,0l0,0l0,0C241,360.9,240.9,360.9,240.9,360.8L240.9,360.8z"/>
	</g>
	<g>
		<path class="st2" d="M262.6,354c1.1-0.6,2.3-0.9,3.4-0.7c1.3,0.1,2.2,0.8,2.7,1.9c0.6,1.6,0.3,3.4-0.8,5.3
			c-0.9,1.5-2.1,2.7-3.6,3.5c-1.2,0.7-2.3,0.9-3.4,0.8c-1.3-0.1-2.2-0.8-2.6-2c-0.6-1.6-0.4-3.4,0.7-5.3
			C259.9,356.1,261.1,354.9,262.6,354z M255.8,319.6l11.5-2.4c-0.8,6.3-1.4,11.1-1.6,14.5c-0.3,4.7-0.2,9.6,0.2,14.8l-7.3,2.5
			L255.8,319.6z"/>
		<path class="st0" d="M255.8,319.6l11.5-2.4c-0.8,6.3-1.4,11.1-1.6,14.5c-0.3,4.7-0.2,9.6,0.2,14.8l-7.3,2.5L255.8,319.6
			L255.8,319.6z M263.4,353.6c0.9-0.3,1.7-0.4,2.6-0.3c1.3,0.1,2.2,0.8,2.7,1.9c0.6,1.6,0.3,3.4-0.8,5.3c-0.9,1.5-2.1,2.7-3.6,3.5
			c-0.3,0.2-0.6,0.3-1,0.5c-0.8,0.3-1.6,0.5-2.4,0.4c-1.3-0.1-2.2-0.8-2.6-2c-0.6-1.6-0.4-3.4,0.7-5.3c0.9-1.6,2.1-2.8,3.6-3.6
			C262.8,353.9,263.1,353.7,263.4,353.6L263.4,353.6z M253.8,318.1l0.2,1.7l2.8,29.4l0.2,2.4l2.2-0.8l7.3-2.5l1.4-0.5l-0.1-1.4
			c-0.4-5.1-0.5-10-0.2-14.5c0.2-3.4,0.7-8.2,1.6-14.4l0.4-2.6l-2.6,0.5l-11.5,2.4L253.8,318.1L253.8,318.1z M262.7,351.9
			L262.7,351.9c-0.4,0.1-0.7,0.3-1.1,0.5c-1.8,1-3.3,2.5-4.3,4.3l0,0l0,0c-1.4,2.5-1.6,4.8-0.8,6.9c0.7,1.8,2.2,2.9,4.2,3.1l0,0l0,0
			c1.1,0.1,2.2-0.1,3.3-0.5c0.4-0.2,0.8-0.3,1.2-0.6c1.8-1,3.2-2.4,4.3-4.2c1.5-2.5,1.8-4.8,1-7c-0.7-1.8-2.2-2.9-4.2-3.1
			C265,351.3,263.9,351.4,262.7,351.9L262.7,351.9z"/>
	</g>
</g>
</svg>
