<?xml version="1.0" encoding="utf-8"?>
<!-- Generator: Adobe Illustrator 27.1.1, SVG Export Plug-In . SVG Version: 6.00 Build 0)  -->
<svg version="1.1" id="Слой_1" xmlns="http://www.w3.org/2000/svg" xmlns:xlink="http://www.w3.org/1999/xlink" x="0px" y="0px"
	 viewBox="0 0 512 535.1" style="enable-background:new 0 0 512 535.1;" xml:space="preserve">
<style type="text/css">
	.st0{fill:#525D50;}
	.st1{fill:#5A7A53;}
	.st2{fill:#3B4938;}
</style>
<g id="Слой_5">
	
		<g transform="matrix(0.9377821087837219,-0.1518707573413849,0.15657874941825867,0.9668533205986023,-5.39697265625,56.232879638671875)">
		<g transform="matrix(1,0,0,1,0,0)">
			<g transform="matrix(1,0,0,1,211.37600708007812,159.11099243164062)">
				<path class="st0" d="M-26.9,76.9c0,0,7,14,6,19c0,0,4-7,4-12c0-5,1-15,2-15s8,8,8,8s-2-13-1-15s9-14,9-15c0-1,4,10,4,12s0,4,0,4
					s5-12,7-13s9-6,10-10c0,0,2,9,1,15s0,9,0,9l7-11c0,0,7,5,8,15s1,19,1,19l32,79.1l9,17c0,0,7-25,11-27c0,0,5,5,5,6s4-13,5-14
					s20,4,20,7c0,3,5,12,7,15c2,3,5,22,5,22l-7,29l13-5v12l9,3c0,0-2,9-5,13c-3,4-5,10-5,10l6,3c0,0,0,13-3,16s-7,8-7,8l7,1
					c0,0-2,7-5,13s-9,15-9,15l1,5c0,0,4,7-8,9s-22,11-22,11l-49,8l-42.5-4.2c0,0-9-6.8-31-5.8s-24.3-0.3-28.3-4.3
					s-12.2-11.8-18.2-13.8s-38,0-49,0c-11,0-11-7-11-7s-16-7-15-8s0-12,0-12l-10-9l-8-14l-11-6l-10-13c0,0,2-3,8,0s10,5,11,5
					s-1-3-1-3s-9-5-6-19c0,0-15-11-17-24c0,0,4-14,3-18c0,0,7,2,9,5s8.5,4.8,8.5,4.8S-179,191-177,180s7-25,7-25s1,8,2,10s4,9,4,9
					s2-12,7-18s7-18,7-18l4.8,6.8c0,0-2.1-7.4,2.2-14.8c2.2-3.9,8.1-13,8.1-13s2.1,2.7,2.9,7c0.4,2,1,5,1,5s1.2-16.4,12.2-24.5
					c0,0,1.5,5.4,1.8,9.4c0.1,1.4,9.3,15.1,10,17c1.7,4.4,2,12,2,12s3-15,9-17c0,0-2,11,4,12c0,0-4-26,11-33c0,0,1,11,4,13
					c0,0,2-12,10-16s16-10,16-10v5c0,0,6-9,9-11C-38.9,83.9-26.9,76.9-26.9,76.9z"/>
			</g>
			<g transform="matrix(1,0,0,1,84.18900299072266,135.99899291992188)">
				<path class="st1" d="M-27.7,205.1c0,0,0.1-16.8,8.3-31.2c1,0.8,3.6,5.2,5,4.3c3-1.9,5.7-21.9,6.1-25c1.3,2.5,5.7,5.9,5.5,8.8
					c0.2-3.7,8.7-13.5,10.3-18.7c2.8,6.1,13.4,9.9,14.1,16.6c-0.2-2.1-4.3-11-9.9-20.1c-3.1-5-2.9-12-3.2-12
					C2.1,128.7-4.2,146.4-3.7,151c-0.3-1.3-3.2-11.5-3.8-10.7c-9.7,12.1-12,18.8-10.9,27c0,0-0.3-0.4-4.2-6c0.2,0.2-0.7,4.8-1.7,7
					c-3.5,8.1-12.4,24.1-11.9,30c-1.7-2.1-7-16.8-6.1-18.7c-3.6,8-7.2,16.1-7,25.4c0.2,7.3,5.1,14,6.9,14.5c0.1,0.1-3.5,0.8-8.3-3.9
					c-4.8-4.8-8.9-4.6-8.3-4.9c0.8,5.6-4.9,16.1-1.1,25.3c5,11.8,12.8,17.2,17.3,16.6c-2.6,2.8-13-19.6-6.9-32.5
					c5.9,4.4,11.3,0.2,11.3,0.2c-6.1-7.7-4.4-28.5-4.1-30.9C-42.2,190.7-37.1,207.4-27.7,205.1z M-35.3,219.1
					c-2.2,3.9-9.1,8.1-10.5,14.1c-2.9,13.3,7.6,18,7.6,16.4c-0.2-10.4,5.7-20.7,3.8-29.9C-35,216.6-35.4,219-35.3,219.1z
					 M35.3,161.7c0.6-1.1,1.3-2.1,2-3.2c0.6-0.1,1.2-0.5,1.4-1.3c0.2-0.5,0.3-1,0.5-1.5c1.7-2.6,3.3-5.2,4.3-8.2
					c0.6-2.1,1.2-4.3,1.6-6.5c0.1,0.2,0.2,0.4,0.4,0.6c0.4,0.5,0.8,1,1.4,1.4c1.4,1.2,3.2,2.1,4.7,2.6c0.3,0.1,0.7-0.1,0.8-0.5
					c0.5-1.7,1.3-3.2,2.3-4.6c3.1-3.6,7-6.6,10.7-9.6c2.4-1.9,4.9-3.8,7.1-5.9c0.6-0.5,1.3-1.2,1.9-1.9c0.2,0.6,0.7,4.3,0.7,5.5
					c0,0.6,12.7-8.4,15.1-10.2c3.4-2.5,6.6-5.2,9.1-8.6c2.4,3,4.3,6.7,3.7,11.7c-0.2,1.4,0.6,1.7,1.1,1.4c5.1-4.5-0.2-15.1-0.9-17.7
					c-0.4-1.5-1.1-4.6-2.9-4.3c-1.9,0.2-14.3,8.4-17.2,11.2c-1.7,1.7-3.3,3.4-4.9,5.1c-0.8,0.9-1.6,1.7-2.1,2.6c0-0.4,0-0.7-0.1-1.1
					c0,0,0,0,0-0.1c0.2-0.1,0.4-0.3,0.5-0.4c0.7-0.6-1-1.5-1-1.5c-0.2-0.1-0.5,0-0.6,0.2c-3,1-6,3.1-8.6,4.8c-2.8,1.7-5.5,3.7-7.9,6
					c-3.4,3.2-8,8.5-7.8,13.6c-0.3-0.5-1-0.5-1.4-0.2l0,0c-1.5-2.1-2.3-4.2-3.2-6.6c0.2-1.5,0.3-3,0.5-4.5c0.1-1-1.2-1.2-1.7-0.6
					c-0.3-0.1-0.6,0-0.9,0.3c-3.2,3.2-4.8,8.1-6,12.4c-1.4,4.7-2.9,9.9-2.9,14.8c0,0.8,0.4,1.4,1,1.7c-0.6,0.9-1.1,1.9-1.3,3
					C34.7,161.8,35.1,162,35.3,161.7z M109.6,116.7c2.5-3.2,5.2-11.3,6.1-14.4c0.1-0.4,0.6-0.6,0.9-0.5c5.7,2.4,9.6,7.4,9.6,6.9
					c0-1.1-9.1-13.8-13.8-17.5c-0.7-0.6-0.7,1.3-0.6,2.3c0.5,5.8-3.2,20.8-3.7,22.4C107.7,117,109,117.5,109.6,116.7z M132.4,107.3
					c0.6-0.1,0.8-0.8,0.5-1.3c-7.9-11.9-3.2-21.3-2.8-19.7c0.5,2.1,0.3,4.4,0.8,6.5c0.1,0.3,0.6,0.4,0.8,0.1
					c3.3-6.2-2.9-21.4-3.3-21c-1.2,1.3-6.5,8.2-7.5,9.6c-2,2.8-1.9,6.4-1.5,9.9C120.7,100.9,131.1,107.7,132.4,107.3z M71,157.3
					c1.1,2.3,3.3-0.8,4-1.9c4.3-6.6,2.7-15.3-2.8-20.7c-0.5-0.5-1.6-0.5-1.9,0.2c-1.7,3.8-2.6,7.6-3.4,11.6
					c-0.7,3.4-1.9,7.1,0.5,10.1c0.2,0.2,0.3,0.3,0.6,0.3c0.1,0.8,0.3,1.5,0.9,2.1c0.2,0.2,0.4,0.1,0.5-0.1c0.4-1,0.2-1.9,0.2-2.9
					c0-1.3,0.2-2.6,0.4-3.8c0.1-0.8,0.2-1.6,0.3-2.4c0,0.6,0,1.1,0.1,1.7C70.5,153.2,70.2,155.8,71,157.3z M83,142.4
					c-0.5,1.2,1.5,1.7,1.9,0.5c1.4-4.1,7.4-11.6,3.9-15.9c-0.4-0.5-1.2-0.2-1.4,0.4c-0.1,0.4-0.2,0.8-0.3,1.2
					c-1.4,1.4-3.2,2.2-4.5,3.9c-1.3,1.7-2,3.6-1.9,5.8c0,0.3,0.2,0.4,0.5,0.4c0,0.6,0,1.2,0.1,1.8c0,0.2,0.3,0.1,0.3,0
					c0.8-2.5,1.7-4.6,3.3-6.6c-0.2,0.4-0.4,0.8-0.5,1.3C83.6,137.4,83.9,140,83,142.4z M94.5,136.3c-3.3,1.9-8.3,5.5-8.9,9.6
					c0,0.2,0.2,0.4,0.4,0.3c1.9-1.1,3.5-3.2,5.2-4.7c2-1.8,4.4-3.3,6.8-4.3c1.1-0.5,2.4-0.9,3.7-1.4c-1.7,1.3-3.4,2.5-5.2,3.7
					c-1.8,1.2-3.8,2.1-5.6,3.4c-1,0.7-1.8,1.7-2.6,2.8c-0.1,0-0.1,0.1-0.2,0.1c-0.6,0.4-1.6,1-1.7,1.7c-0.1,0.3,0.2,0.6,0.5,0.6
					c0.2,0.3,0.5,0.4,0.8,0.1c0.6-0.7,1.3-1.3,2.1-1.8c1.6-0.7,3.3-1.1,5.1-1.6c2.6-0.8,5.1-2.1,7.4-3.5c2.7-1.8,8.4-6.2,7.3-10.1
					c0.4-0.5,0.7-1.1,0.9-1.7c0.4-1.1-1.2-2.1-2-1.2c-2,2.4-3.8,3.9-6.7,5.1C99.3,134.2,96.8,135,94.5,136.3z M61.8,160.9
					c0.5,0.9,0.7,1.8,1.7,2.3c0.5,0.3,1.1,0.1,1.4-0.4c1.9-2.6-1.6-7.5-3.6-9.2c-1.4-1.2-3.2-2.1-5.1-2.3c-1.1-0.1-2.2-0.1-3.2,0.2
					c0,0,0,0-0.1,0c0,0-0.1,0-0.1-0.1c-1-0.3-2.1,0-3.1,0.3c-0.2,0.1-0.6,0.1-0.9,0.2c-0.1-0.1-0.2-0.1-0.3-0.2
					c-0.1,0-0.1,0-0.2-0.1l0,0l0,0l0,0c-0.1,0,0,0,0,0c-0.2-0.1-0.3-0.1-0.5-0.2c-0.6-0.2-1.2,0.6-0.9,1.1c0.2,0.3,0.5,0.6,0.9,0.7
					c0,0,0.1,0,0.2,0c0,0.1,0,0.2,0.1,0.3c0.2,0.4,0.5,0.6,0.8,0.7c0,0.1,0.1,0.1,0.2,0.2c2.2,1.7,2.9,4.4,4.8,6.4
					c1.9,1.9,4.1,2.3,6.4,3.3c1,0.4,2.3-0.5,1.6-1.6c-1.7-2.8-4.8-4.9-7.3-6.9c-0.1-0.1-0.3-0.3-0.4-0.4c1.5,0.5,2.9,1.1,4.2,1.9
					C59.8,158.2,61,159.4,61.8,160.9z M129.3,151.3c0.1,0,0.2-0.1,0.1-0.2c-0.9-1.7-2.3-2.4-4-3.1c-2.8-1.1-3.8-3.3-4.6-5.9
					c0.1,0.2,0.2,0.3,0.4,0.5c2,2.4,4.4,4.6,7.2,6.1c0.4,0.2,0.9,0,1-0.4c1.9-7.2-8.3-11.4-10.7-17c-0.5-1.1-3.1,10.4,0.2,17.1
					C121.3,153.1,129,151.1,129.3,151.3z M150.4,176.8c0,0.1,0.1,0.2,0.1,0.1c4.9-5,10.5-5.6,11.4-5.6c-0.8,0.3-8,3.1-8.6,6.2
					c0,0.1,1.3,1.8,5.6,1.9c2.4,0.1,5.3-0.8,7.4-2c3-1.8,5.9-6.9,7.5-11.7c0,0-11.4,2.3-16.2,2.6
					C151.4,168.5,150.6,176.3,150.4,176.8z M168.7,192.7c0.3-0.1,0.3-0.5,0.1-0.7c0.1-0.2,0.1-0.4-0.1-0.5c-1.9-0.9-3.4-2.5-4.8-4.2
					c0.1-0.1,0.1-0.2,0.2-0.3c0.2-1.4-0.8-2.8-1.9-3.5c-0.7-0.5-1.9-0.8-2.8-0.5c-2-1-4.6-1.4-6.7-0.8c-0.3,0.1-0.4,0.5-0.1,0.7
					c1.4,0.7,3.1,0.8,4.5,1.7c1.5,1.1,2.6,2.7,3.8,4.1c0.1,0.1,0.1,0.1,0.2,0.2c-0.7-0.5-1.3-1-2-1.6c-0.8-0.7-1.7-1.4-2.7-1.9
					c-1.3-0.6-2.8-0.6-4.1-1.2c-0.1,0-0.1,0-0.2,0c-0.1,0-0.3,0-0.4,0.1c-1.5,3,2,6.2,4.4,7.4c1.9,0.9,6.4,2.6,8.7,1.3
					C166.2,193.3,167.4,193.2,168.7,192.7z M128.8,115.5c-1-5.9-10.7-10.8-10.5-10.2c1.8,6.7-1.3,24.9,6.4,26.6c0,0-1.2-2.3-1.5-4.1
					c-0.4-3,0.3-5.6,0.3-8.2c0.2,1.1,0.3,2.2,0.5,3.3c0.3,2.4,0.5,5.5,2.4,7.3c0.1,0.1,0.3,0,0.3-0.2
					C126.6,129.8,129.4,119,128.8,115.5z M29.1,187.8c0,0.1,0.1,0.2,0.1,0.3s0,0.1,0,0.2c0.3,0.7,1.2,1.2,1.9,1
					c0.2,0,0.3-0.2,0.4-0.3c1.3,0,2.8-1,4.2-2.2c1.7-1.4,2.9-2.8,3.8-4.8c0.9-2.1,1.1-4.1,1.1-6.4c0-2.5-2.3-11.3-2.5-11.1
					c-1,1.5-4.6,7.5-6.6,10.8c-1.6,2.6-2.1,7.1-3,10.1c-0.1-0.2-3.9-8.3-9.6-10.7c-5.9-2.5-10-6.7-10-6.6c0.1,0.4,1.4,9.4,4.6,13
					C18.3,186.4,28.7,188.2,29.1,187.8z M33.2,179.4c0.3-0.6,0.7-1.2,1.1-1.9c-0.1,0.6-0.2,1.2-0.4,1.7c-0.8,2.9-2.2,5.4-3.5,8.1
					C31.3,184.6,31.9,182,33.2,179.4z M19.2,182c-1.3-1.2-2.4-2.6-3.5-4c1.3,1.1,2.9,2.1,4.2,3c2.4,1.7,5.4,3.1,7,5.5
					c-0.1,0-0.3,0-0.4,0l0,0c0-0.1-0.1-0.2-0.2-0.2C24.1,184.5,21.4,184,19.2,182z M16.9,241.2c-0.2-0.2-4.8,10.3-4.7,11.6
					c-0.8-1.5-3.2-6.3-10-7.9c-0.1,0-1.2,8.9,1.1,11.9c3.8,5,10.2,4.5,9.8,4.1c-2.9-3.1-6.3-8.3-6.8-9.1c1.3,1.1,4.8,4.2,8.9,9.2
					c0.2,0.2-0.8-5.4,0.7-8.4c1,1.8,0.5,6.3,0.6,6.4c0,0.1,3.1-2.8,3.3-8.1C19.9,248.8,17.9,242.3,16.9,241.2z M15.3,195
					c0,0-3.2,4.2-11,10.5c-4.9,3.9-5.2,9.9-5.2,10.1c-0.5-1.8-0.6-8.5-0.9-10.1c-0.7-3.3-2.9-8.1-4.8-10.9c-1.8-2.6-9.2-11-9.4-10.2
					c-0.1,0.5-2.8,12.9-1.9,19.5c1,7.5,10.1,15.3,10.3,16.3c-1.9-2.6-7.6-2.3-8.8-2.3c-1.1,0-6.4-1.3-6.5-1.3
					c-0.2-0.2,2.9,13.1,9.9,15.5c2.3,0.8,8.7,2.4,8.6,2.2c-0.7-1.7-10.1-10.6-11.4-11.5c0,0,0,0,0.1,0c9.5,3.1,13.1,11.8,13.3,11.6
					l0,0c0.2,0,0.4-0.2,0.4-0.5c0-2.8-3.3-15.2-4.7-18.7c-2-4.8-5.6-12.3-6.5-15.9c1.2,3.8,3.3,6.6,5.2,10.1
					c1.8,3.4,3.4,7.6,4.6,11.2c1.2,3.6,1.3,7.4,2.5,10.9c0.1,0.4,0.6,0.3,0.7-0.1c0-0.5,3.7-11.8,6.4-16.5c1-1.8,2.7-3.9,3.7-5
					c-0.4,1-9.1,21.5-8.6,23.7c0,0.1,11-10.1,14.7-21.5C18.5,204.4,15.3,195,15.3,195z M175.8,189.4c0.2,3.7,1.5,7.5,4.2,10.2
					c0.3,0.3,0.6,0.2,0.8,0.1c0.3,0.5,0.6,0.9,1,1.4c0.1,0.1,0.3,0,0.3-0.2c-0.5-3.2-2.1-6.2-2.8-9.3c-0.3-1.4-0.3-2.9-0.3-4.3
					c0-0.4,0.1-0.7,0.1-1.1c0-0.2,0-0.3,0.1-0.5c0,0.2,0.1,0.4,0.1,0.7c0.5,2.9,1.7,5.5,2.4,8.3c0.7,2.8,0.5,5.7,1,8.5
					c0.1,0.3,0.5,0.3,0.6,0c0.1-0.4,0.2-0.7,0.3-1.1c0.1,0,0.1,0,0.2-0.1c0.3-0.4,0.6-0.7,0.9-1.1l0,0c0.5-0.7,0.8-1.5,1.1-2.3
					c0,0,0.1,0,0.1-0.1c1.1-0.8,1.4-2.2,1.5-3.6c0-0.4,0-0.7-0.1-1.1c0.2-0.8,0.3-1.7,0.3-2.6c-0.1-1.9-0.9-3.7-1.6-5.4
					c-0.6-1.4-0.9-2.9-2.5-3.2c-1.5-3.1-3.8-5.9-6.4-7.9c-0.2-0.2-0.6-0.1-0.8,0c-1,0.6-0.7,1.5-0.2,2.3l0.1,0.1
					c-0.3,1.8-0.6,3.6-0.6,5.5C175.4,184.9,175.7,187.1,175.8,189.4z M171.3,201.4c0.2,0.5,0.4,0.8,0.6,1.1
					c-0.2,1.1,0.1,2.2,0.3,3.4c0.3,2.3-0.2,4.5,0,6.8c0.2,3,1.8,6,4.5,7.6c0.3,0.2,0.5,0.1,0.8-0.1l0,0c1.4,1.8,3.1,3.4,4.8,4.5
					c0.2,0.1,0.4-0.1,0.4-0.3c-0.2-1.5-1.3-2.4-2.4-3.4c-1.9-1.7-2.9-3.4-3.7-5.8c-0.6-1.8-0.6-3.7-0.7-5.5c0.6,1.7,1.1,3.5,1.7,5.2
					c0.9,2.7,3.1,4.3,4.6,6.5c0.3,0.8,0.7,1.5,1,2.3c0,0.1,0.1,0.1,0.2,0.1c0.2,0.4,1,0.2,0.8-0.4l-0.1-0.5c0-0.1,0-0.2,0-0.2
					c0.3-1.2,0.5-2.5,0.9-3.7c0.7-1.8,1.5-3.5,2.3-5.2c0.9-2.1,2-3.8,3.3-5.4c-1,1.8-1.9,3.6-2.8,5.4c-1.5,3-3,6.3-2.4,9.7
					c0,0.1,0.2,0.1,0.2,0c0.1-0.2,0.1-0.5,0.2-0.7c0,0.1,0,0.3,0,0.4c0,0.1,0.1,0.2,0.2,0.1c1.6-1.5,2.3-3.7,3.3-5.5
					c0.4-0.8,0.8-1.6,1.3-2.4c0.1,0,0.1,0,0.2-0.1c3-2,4.3-5.4,5.2-8.7c0.3-1.1,0.6-2.1,0.7-3.2c0.2-1.2,0.4-2.4,0.3-3.8
					c-0.1-1.5-1.9-1.9-2.7-1.1c-0.5-0.1-1-0.1-1.4,0.3c-1.8,1.9-3.8,4.2-5.2,6.5c-1.5,2.3-2.3,4.3-2.7,6.8c-0.3,1.2-0.5,2.5-0.4,4
					c0,0.2,0.2,0.3,0.3,0.4c-0.4,1-0.9,2-1.2,3c0-0.1,0-0.1,0-0.2c-0.2-1.6-0.6-3.7-1.8-4.9c-0.1-0.1-0.2-0.1-0.4-0.1
					c0-0.9-0.1-1.7-0.3-2.6c0-0.1-0.1-0.2-0.2-0.2c-0.1-1.3-0.3-2.7-0.8-3.8c-0.6-1.7-2-4.2-4-4.3c-0.5-0.7-1.1-1.3-1.8-1.7
					c-0.7-0.5-1.6-0.6-2.5-0.8C171.5,200.8,171.2,201.1,171.3,201.4z M210.4,236.4c0.5-3,0-6,0.7-8.9c0.6-2.7,2.1-4.8,3.6-7.1
					c-0.4,2.7-2.2,4.9-2.7,7.6c-0.6,3.5-0.7,7.3-0.8,10.9c0,0.5,0.6,0.5,0.8,0.1c1.8-5,5.1-9.2,7-14.2c1.9-4.9,0.6-9.4-0.5-14.2
					c0.3-0.7-0.1-1.5-1-1.6c-0.1,0-0.2,0-0.3,0c-0.8,0-1.2,0.7-1.1,1.4c0,0.3,0.1,0.6,0.1,0.9c0,0.1-0.1,0.1-0.1,0.2
					c-1,2.3-2.1,4.5-3.4,6.6c-1.2,1.9-2.6,3.6-3.4,5.7c-1.6,4.2-2.2,8.7,0.1,12.7C209.7,236.9,210.3,236.8,210.4,236.4z
					 M245.6,250.3c0.3,0,0.4-0.2,0.3-0.5c-2.9-7-0.4-13.3-0.3-13.5c-0.6,4.4-0.4,8.6,0.7,12.9l0,0c0,0.5,0.7,0.6,0.9,0.1
					c0.7-2,3.5-6.6,3.1-13.5c-0.5-7.9-5.9-17.3-6-16.3c-0.1,1.1-1.1,9.4-3.5,15.7c-1,2.5,0.6,8.3,1.4,10.9
					C242.2,247.2,244.6,250.3,245.6,250.3z M227.6,286.2c0.2,0.3,5.1,4.3,5.4,4.5c0.2,0.2,0.5-0.1,0.4-0.3
					c-3.9-6.4-4.9-13.2-4.9-13.3c0.4,2,3.8,8.5,4.8,11.8c0.1,0.4,0.5,2.9,0.7,2.4c1.4-2.6,1.3-10.8-1.1-16.2
					c-1.9-4.4-6.8-8.5-6.9-8.1C225.9,267.2,220.4,276.8,227.6,286.2z M238.7,279.5c0,0.1,0.1,0.1,0.2,0.1c0.6-0.7,4.7-3.8,9.2-5.9
					c8.3-3.9,9.9-12.3,9.2-17.7c-0.1-0.9-0.7-1.6-1.7-0.2c-1.5,2.1-8.3,3.8-14.8,13.6c-0.1,0.1-1,2.5-1.6,5.1c0,0.1,5-8.9,10.1-10.4
					C245.7,266.7,238.7,276,238.7,279.5z M234.1,267.4c0.1,0.1,2.9,2.6,3.1,2.3c2.1-4.2,2.3-12.5,1-16.9
					c-3.1-10.9-7.2-12.9-7.5-12.6C230.1,240.8,221.3,255.9,234.1,267.4z M232.4,257.2c0.9,1.9,1.7,3.9,2.3,5.9
					c0.6,1.8,0.9,3.9,1.8,5.6l0,0c0,0.1,0,0.1,0,0.2c0,0,0,0,0-0.1c-1.6-3-3.1-6-4.2-9.3c-0.6-1.8-1-3.7-1.2-5.5
					C231.5,255.1,232,256.2,232.4,257.2z M154.4,291.1c-0.3,0-4.7,3.4-6.6,5.3c-2.2,2.2-1.5,1.5-1.5-0.9
					c-0.1-13.8-8.9-25.2-10.7-26.4c-0.1-0.3-4.9,10.4-5.8,16.7c-1.2,7.9,5.8,24.2,5.8,24.1c1.9-3.5,2.6-15.7,2.6-17.8
					c0.3,2.2,0.5,10.5,0.2,12.4c-0.2,1.7-0.1,6.4,1.7,7.5c0.8,0.5,6-2.2,7.2-3.2C154.1,302.7,155.3,291.1,154.4,291.1z M147,302.4
					c-2.3,2.7-5.2,4.9-7.1,7.8v0.1h-0.1c0.1-0.2,0.1-0.5,0.2-0.8c0.2-0.5,0.4-0.9,0.6-1.4c1.9-2.3,3.8-4.6,5.9-6.7
					c1.2-1.1,2.3-2.2,3.6-3.3C149.1,299.7,148.1,301.1,147,302.4z M247.3,303.4c-15.8,3.9-17.8,17-18.1,18.7c0,0.2,0.3,0.4,0.4,0.2
					c3.3-6.9,8.7-9.5,9.8-10c-0.9,0.6-8.4,7.3-8.5,10.4c0,0.1,0.4,0.5,0.5,0.5c23.7-4.1,23.6-16.9,25.6-22.6
					C257.4,299.6,250.6,302.6,247.3,303.4z M196.3,340.4c0.1,0.2,6.9-4.3,8.8-9.1c1.9-4.9,1.9-11.9,0.1-17.8c0,0-8.3,9.4-9.6,12
					c-2.2,4.5-3.8,10.4-1.7,15.3c0,0,0.9-4.2,1.6-5.9c1.6-4.2,3.7-6.9,4-7.4C198.9,328.5,195.2,337.5,196.3,340.4z M239.3,338.9
					c0-0.2-4.7-6-7.4-7.6c-8-4.8-17.9-1.7-17.9-1.7c5.1-2,11-10.3,12.6-21.4c0.7-4.6-0.8-7.7-0.9-7.4c-1.2,2.3-8.6,10.8-12.7,17.4
					c-1.5,2.5,0.8,13.9,1.1,13.8h0.1c3.4-0.5,10.9,0.8,11.1,0.9c-3.7-0.8-7.9-0.4-10.6,0.8c-0.2,0.1,1.7,2.2,1.9,2.4
					c1.8,2.1,6.1,3.3,8,3.7C228.6,340.7,239.4,338.9,239.3,338.9z M213.3,329c0.1-0.8,2-7.5,3.3-9.8c0.8-1.4,1.7-2.6,2.8-3.8
					c-0.3,0.6-0.6,1.2-0.9,1.8C217,320.6,213.5,328.6,213.3,329z M157.7,334.2c10.3-11,5.9-29.2,5.8-29.2c-0.4-0.1-0.9,0-1.6,1
					c-3.3,4.4-5.5,9.2-9.1,14.4c-2.6,3.8-0.4,13.6-0.4,13.5c0.7-5.9,4.2-13,5-14.3c-0.7,1.6-2.3,13-2.7,15.6
					C154.7,335.4,157.3,334.7,157.7,334.2z M190.2,321.1c0-0.6-0.4-1-1-1h-0.1c-0.2,0-0.5,0.1-0.7,0.3c-1.6-0.6-3.5-0.3-5.1-0.1
					c-2.6,0.4-5.3,1-7.8,1.9c-3.5,1.4-6.2,4.4-7.9,7.7c-0.5,0.6-1,1.3-1.3,2c-0.1,0.2,0.1,0.4,0.3,0.3c0.1,0,0.1-0.1,0.2-0.1
					c-1.7,1.6-3.3,3.4-4.1,5.3c0,0.1,0.1,0.1,0.1,0.1c3.1-1.9,5-5.2,8.1-7.2c1.2-0.7,2.5-1.2,3.8-1.6c-0.7,0.5-1.4,1-2,1.5
					c-2.7,2.1-6.1,4.6-8,7.5c0,0.1,0,0.2,0,0.2l0,0c-0.1,0.1-0.1,0.3,0,0.4c1.8,1.4,5.2,0.6,7.4,0.2c3.2-0.6,6.2-2,8.8-4
					c2.2-1.6,4.1-3.7,5.8-5.9C188,326.8,190.4,323.6,190.2,321.1z M142.8,332.9c-0.6-0.1-1.2,0.2-1.5,0.9c-1,2.6-3.8,4.3-5.5,6.5
					c-0.4,0.5-0.8,1.1-1.2,1.7c-4,3.2-2.2,9.6-2.4,14.2c-0.2,0.7-0.4,1.4-0.7,2.1c-0.2,0.3,0.2,0.7,0.5,0.4l0,0
					c-0.2,0.4,0.2,0.7,0.5,0.4c2.6-2.2,2.6-7,3.3-10c0.6-2.7,1.5-5.1,3.1-7.1c-0.7,1.3-1.1,2.6-1.5,3.7c-1.1,3.9-1,8-2.2,11.8
					c-0.1,0.1-0.1,0.1-0.2,0.2c-0.3,0.3,0.1,0.7,0.4,0.5c3.8-2.1,6.2-6.1,7.5-10.1c0.8-2.5,1.3-5,1.5-7.6c0.2-2.5,0.4-5.3-0.4-7.7
					C143.9,332.2,142.9,332.3,142.8,332.9z M171.3,349.4c-0.1,0-0.1,0.1-0.2,0.1c-3-2.1-8.1-0.6-11.3,0.1c-3.9,0.9-7.6,2.1-10.9,4.4
					c-0.3,0.1-0.6,0.3-0.9,0.5v0.1c1.8,0.7,4,0.1,5.9-0.1c0.5,0,0.9-0.1,1.4-0.1c-0.7,0.2-1.3,0.5-2,0.6c-1.4,0.4-4.7,0.3-5.3,1.9
					c-0.1,0.1,0,0.3,0.1,0.4c0,0.1,0,0.1,0.1,0.1c8.5,5.3,17-2.3,23.9-6.9C172.8,350.1,172.1,348.8,171.3,349.4z M214.4,352.3
					c0-0.1-12.5-9.2-20.1-8c-1.4,0.2-5.6,0.8-5.7,2.8c0,0.1,0.1,0.4,0.1,0.4c1.9,1.8,9.7,2.6,11,2.7c-3.4,1-10.4-0.8-10.7-0.6
					c-0.3,0.2,4.7,4.8,9.8,5.6c2.4,0.4,4.5,0.2,6.8-0.4c2.8-0.8,5.5-1.5,8.4-1.3C214.8,353.5,214.9,352.6,214.4,352.3z M133.7,304.6
					c-0.6-2.4-8.7-11.8-12.5-12.7c-0.8-0.2-1.1,15.8,1.5,21.5c0.4,0.9,5.3,4.4,6.1,4.7c1,0.4-1.3-7.9-2.5-10.9
					c-0.8-1.9-0.9-3.9-1.1-5.8c0.6,1.7,1.2,3.5,1.9,5.2c1.3,2.8,4,9.2,4.3,9.3C135.6,316.5,134.2,306.5,133.7,304.6z M103.6,343.4
					c-0.2,0.1-2.5-0.3-3-0.3c-0.6,0.1-10.2-2.1-11.8-2.1c-1.2,0-3.9,0.4-4.1,0.3c3.3-1.1,12.7-6.4,13.3-22c0-0.3-0.3-9.5-0.7-10.2
					c0-0.4-0.9-0.5-1.1-0.3s-5.4,4.7-5.7,5.1c0,0-7.4,4.8-9.6,9.6c-1.2,2.6-2.6,5.6-3.3,8.7c0.1-4.5-0.7-9-3.3-12.7
					c-0.5-0.8-0.8-1.6-1.9,0.5c-0.1,0.3-4.4,9.5-4.7,13.8c-0.2,2.5,0.8,5.6,1.2,8.1c0.1,1.1,1.7,5.6,2.1,5.4c0,0,5.9,1.7,7.9,2.1
					c1.1,0.2,6.8,2.6,9.1,2.8c2.1,0.2,4.2,0,6.2-0.6c4.2-1.2,9.1-5.9,10.1-7.4C104.7,343.6,104,343.2,103.6,343.4z M73.3,341.2
					c-0.1,0.3-0.2,0.6-0.3,0.9c-0.3,0.7-0.6,1.5-0.9,2.3l-0.1,0.1c-0.1,0-0.1,0.1-0.2,0.1c0.7-3.1,1.1-6.3,1.3-9.4
					c0.2-1.9,0.3-4,0.4-5.9c0.1,0.5,0.1,1,0.2,1.5c0,1.5,0.1,3.1,0.2,4.6C73.7,337.3,73.5,339.2,73.3,341.2z M87.9,327.6
					c1.7-2.5,3.4-5.3,4.8-8.2c-2.3,7.4-6.5,14.2-12.1,19.6c-0.7,0.4-1.5,0.7-2.1,1.2C82.1,336.6,85.1,331.9,87.9,327.6z M87.1,346.9
					c-3.2,0.1-6.1,0.2-9-0.4c0.2,0,0.5-0.1,0.7-0.1c2.5-0.3,5-0.4,7.6-0.5c3.9-0.2,8.1-0.1,12-0.8C94.9,346.6,91,346.7,87.1,346.9z
					 M65.2,290c-0.4-0.2-6.6,7.2-8.5,12c-1.9,4.7-2.8,10.1-1.8,15.2c0.1,0.3,1.3,3.6,1.4,3.2c0.9-9.5,5.5-16,6-17.2
					c-0.3,1.5-1.1,3.2-1.6,4.7c-0.9,2.5-2.7,7-2.5,9.8c0,0.1,5.7-6.2,7.1-8.3C70.3,301,69.6,292.2,65.2,290z M51,315.4
					c-0.6-0.9-15.2-9.1-15.4-8.6c-0.7,0.3-1.1,1.3-0.4,2.1c1.1,1.3,3,5.3,3,5.3c-0.1,0.2,1.2,6.3,3.1,8c0.2,0.6,0.5,1.2,0.9,1.7
					c0.8,1.2,2.1,2.5,3.6,3c0.4,0.8,0.9,1.5,1.6,1.9c0.2,0.1,0.5,0,0.6-0.2c0.3,0.4,0.6,0.7,0.9,1.1c0.2,0.2,0.5,0.3,0.7,0.2
					c0.6,0.5,1.2,0.9,1.9,1c0.1,0.7,1.1,0.9,1.6,0.4c1.5-1.5,1-5.4,0.9-7.3C53.6,321.1,52.9,318,51,315.4z M50.7,328.8
					c-0.2-0.1-0.4-0.3-0.6-0.5c-0.4-1.3-0.5-2.7-1.1-4c-0.8-1.8-1.7-3.5-2.8-5.1c-1-1.4-2-2.9-3.2-4.3c0.2,0.2,0.5,0.4,0.7,0.7
					c2,1.9,3.7,3.9,4.9,6.3c1.2,2.3,1.5,4.6,2.2,7C50.8,328.9,50.8,328.9,50.7,328.8z M37.2,296.1c2.1,2.1,10.5,7.7,10.4,7
					c-0.8-3.3-3-8-5.6-10.2c-2.8-2.3-4.2-5.6-4.4-6.1c1.3,1.5,4.6,4,7,6.5c1.8,2,3.1,7.6,3.7,10c0.1,0.6,1.1,0.7,1.1,0.7
					c3.6-13.8-5.8-18.1-7.6-19.4c-2.4-1.7-7.4-7.1-7.8-7C33.9,277.6,29.1,287.7,37.2,296.1z M93.2,276.7c0-0.4,1.9-6,1.2-12.5
					c-0.5-7.4-7.6-13.5-8-13.7c-0.3-0.2-0.7,0-0.8,0.3c-0.1,0.4-4.4,20.5,1,23.8c0.2,0.1,3.5,3,5,3.8
					C92.6,278.9,93.2,277,93.2,276.7z M89.8,264c0.3,1.6,0.5,3.2,0.5,5c0.1,2.3,0.3,4.8,1.3,7C88.8,272.3,89.8,268.1,89.8,264z
					 M111,237.8c-0.3-1.1-1.8-1-2.2,0c-0.1,0.2-7.8,8.7-9.9,12.4c-1.1,2-2.7,7.5-0.9,18.8c0,0.1,0.8,2.3,1.2-0.2
					c0.4-2.1,0.7-4.2,1.2-6.3c1.5-6.4,6.4-11.5,7.6-14.1c-0.2,0.7-0.5,1.5-0.8,2.2c-0.9,2.1-7.3,11.2-6.2,16.9
					c0,0.2,7.3-4.8,8.9-9.4C113.6,247,111.3,239,111,237.8z M97.6,215.1c-0.6-3.4-4.4-8.1-6.6-10.7c0,0-2.7,7-2.7,11.2
					c-0.1,9.7,8.4,17.1,8.4,16.6C96.7,231.8,99.1,222.8,97.6,215.1z M94.3,223.7c-0.7-1.9-1.2-3.9-1.6-5.9c0.1,0.3,0.3,0.6,0.4,0.9
					c1.3,3.1,2.2,6.2,2.7,9.5C95.5,226.7,94.9,225.2,94.3,223.7z M76.2,229c0.5,1.4,1.2,2.7,1.9,3.6c1.8,2.2,4.9,4.9,7.5,6.2
					c0.2,0.1,0.3,0.1,0.5,0.1c0.7,1.3,1.4,2.5,2.5,3.6c0.3,0.3,1,0.1,0.9-0.4c-0.3-3-2.2-6.6-4.2-8.8c-2.2-2.5-4.8-4.3-6.7-7
					c0.3,0.2,0.6,0.5,0.8,0.7c1.6,1.5,3.2,2.9,4.9,4.3c3.7,3.2,4.4,7.5,5.9,11.9c0,0.1,0.1,0.1,0.1,0.1c0.1,0.2,0.1,0.4,0.2,0.6
					c0.1,0.3,0.4,0.3,0.5,0c0.1-0.5,0.2-0.9,0.3-1.4c0,0,0.1-0.1,0.1-0.2c0-0.2,0-0.4,0-0.6c0.2-1.1,0.2-2.2,0.1-3.3
					c1.3-3.3-0.5-6.8-3-9.1c-0.1-0.2-0.2-0.4-0.3-0.6c-0.8-1.5-1.7-2.9-3.3-3.7c-0.9-0.4-2-0.7-3-1c-1.2-0.5-2.4-1.3-3.7-1.5
					c-0.3-0.1-0.5,0-0.7,0.2c-0.3-0.1-0.7-0.2-1.1-0.3c-0.1-0.2-0.2-0.3-0.3-0.5c-0.1-0.2-0.1-0.4-0.2-0.7c-0.4-1-1.8-0.6-1.6,0.4
					c-0.2,0.2-0.3,0.5-0.2,0.8C74.8,224.7,75.2,227.1,76.2,229z M2.4,167.5c-0.1-0.2-0.5-0.1-0.4,0.2c1.3,3.9-0.4,8.2-0.7,12.3
					c-2.2-4.6-8-7.1-8.3-7.2c-0.5-0.2-0.7,0.5-0.5,0.8c1.5,1.6,1.5,4.5,1.8,6.7c0.3,1.7,0.5,3.3,1.3,4.9c1.5,2.9,6.3,8.2,6.4,8.1
					c0.1,0-0.8-4.6-1.7-6.6c-0.9-1.9-1.3-3.9-1.8-5.9c2.3,3.8,4.7,7.6,5.2,12.1c0,0.1,0.2-0.5,0.3-0.8c1.2-2.6,1.7-11.4,1.6-12.8
					c0.4,1.7,0.7,3.5,0.6,5.5c-0.1,2.9-0.8,9.1-0.7,9.3c0,0.1,4.8-5.6,4.8-11.1C10.3,174.4,2.4,167.5,2.4,167.5z M31.2,214.2
					c0.4-0.1-1.2-3.6-0.7-7.3c0.7-5,2.8-8,5.7-10.1c-1.9,2.5-2.9,5.6-3.5,8.6c-0.2,0.8-1.3,8.2-0.1,8.2c-0.1,0,0.9-1.2,1-1.3
					c0.8-0.8,1.9-1.4,2.7-2.1c1.6-1.2,3.1-2.4,4.5-3.7c-1.1,1.9-2.7,3.4-4.2,4.9c-0.7,0.7-2.8,2.3-2.9,3.1c-0.5,2.7,4.2,0.7,5.1,0.3
					c2.4-1.3,4.2-3,5.5-5.4c0.5-0.9,3.4-9.8,1.8-10.1c-1.9-0.3-6.1,2.5-7.2,3.8c-0.5-3,2.7-7.1,3.7-9.9c0.5-1.4,1.1-3.7,0.6-5.2
					c-0.6-1.9-1.2-0.2-2.5,0.7c-3.3,2.2-7,3.1-9.9,6c-2.6,2.6-4.5,6.3-3.7,10c-1.4-1-4.2-7.1-4.8-6.7c-0.1,0.1-2,6.9-0.6,10.8
					C23.2,212.7,27.1,214.8,31.2,214.2z"/>
			</g>
			<g transform="matrix(1,0,0,1,306.68701171875,168.26499938964844)">
				<path class="st2" d="M-23.4,178c-0.1-0.1-0.2,0-0.2,0c0-0.1-0.1-0.1-0.2,0c-4.7,9.6-0.2,22.5,9.5,26.9c0.4,0.2,1-0.1,0.8-0.6
					c-0.7-1.9-1-3.7-1.3-5.7C-13.4,191-17.5,182.6-23.4,178z M-1,206.4c-4.2,4.4-10.3,4.9-14.9,8.7c-3,2.5-7.6,7.9-5.8,11.6
					c0.7,1.4,1,9,1,9c11.8-3.7,18.7-19,20.1-28.9C-0.5,206.4-0.7,206.1-1,206.4z M-62.5,193.9c0.1-0.1-7.8,9.7-5.4,22
					c-2.4-3.6-7.3-4.6-7.3-4.4c-1,13.7,14.4,22.6,14.8,22.3l0,0c0.1,0,14.1-11.8,9.1-21.2c-0.1-0.2-4.1,4-4.4,4.2
					C-54.4,206.5-62.4,194.1-62.5,193.9z M-73.7,187.5c-0.7-2.6-4.2-7.4-4.3-7.2c0,0.1-4.1,7.5-2.1,13.6c1.5,4.4,9.1,12.4,9.3,11.7
					c1.7-8.2,6.3-14.9,8.6-22.8c2-6.8-3.1-17.8-3.2-17.8c0,0-3.8,6.2-5.2,8.9C-74,180.6-73.9,185.5-73.7,187.5z M-75,263.2
					c0.5-0.3,0.9-0.6,1.4-1c0.1,0,0.2,0,0.3-0.1c0.4-0.1,0.7-0.4,1-0.7c0.3-0.2,0.6-0.5,0.8-1c0.2,0.3,0.8,0.2,0.8-0.3
					c0.1-8.1-4.6-14.1-10.6-19c-0.2-0.1-0.4,0.1-0.2,0.2c0.4,0.5,0.9,0.9,1.3,1.4c-0.1,0-0.1-0.1-0.2-0.1c-0.3-0.1-0.6,0.2-0.5,0.5
					c0.8,3.2,2.9,6.1,4,9.2c0.5,1.4,1,2.9,1.3,4.4c0.2,1.1,0.2,2.1,0.3,3.2c-0.6,0.5-1,1.1-1.2,1.9C-77,262.9-75.9,263.7-75,263.2z
					 M-89.2,287.9c10.2-5.8,22.1-10.2,23.2-23.7c0-0.7,0.7,7.9-14.4,15.3c-7.7,3.6-7.3-5-7.3-4.4C-87.3,280.3-89.4,288-89.2,287.9z
					 M-5.6,296.1c1.1,0.3,6.5-0.9,13.3,2.6c7.1,3.7,20.3-9.1,20-9c-2.8,0.8-8.1-0.2-11.1,0.5c-7.5,1.9-9.1,0.2-9.9,0.1
					c3.2-6.7,4.8-14.3,12.5-17.7c0.4-0.2,10.8-3.6,13.9-4.4c0.3-0.1-12.7,1.9-13.9,2.1c2.2-3.6,2.3-8.8,2-12.7
					c0.2-0.5-6.9,4.9-10.4,7.5c-2.5,1.9-4.6,4.7-4.7,7.8C6.4,288.6-5.9,296-5.6,296.1z M-129.7,304c-0.8,0.7-1.4,1.3-2,2.1
					c-0.3,0.4-0.7,0.7-1,1.1c-0.2,0.2,0,0.5,0.3,0.4c0.2,0.5,1,0.9,1.5,0.4l0,0c0.1,0.1,0.3,0.1,0.4,0.1c0.3,0.5,1,0.7,1.4,0.2
					c0,0.3,0.4,0.5,0.6,0.3c8.8-8.3,8.5-22.8,3.1-32.8c-0.3-0.6-1.3-0.1-1,0.6c1.2,2.2,2.1,4.5,2.7,6.9c-0.4-0.1-0.9,0.4-0.8,0.8
					c0.7,4.9-0.3,11-2.6,16C-128.3,300.6-129.7,302.8-129.7,304z M-124,237.6c0.1-0.8-1.5-7.3-1.7-9.8c-0.3-5.4-8.1-10.1-9.8-9.2
					c-0.1,0.1,12,8,6.1,28.5c0,0.1,3.5-6.9,5.7-8c7-3.7,12.4-8.2,14.6-14.6c1.4-4,2.9-14-2.3-18.5c0,0,2,8.2,0.6,14.1
					C-112.6,227.8-118.5,233.9-124,237.6z M-129.9,173.3c-0.1,0-0.2,0-0.2,0.1c1.5,2.8,8.5,9.3,4,26.7c-0.1,0.5-0.1,1,0.3,0.6
					c2.4-2,6-10.8,4.7-16.4C-122.3,179.1-128.8,173.6-129.9,173.3z M-130.4,211.7c2.2-3.8,3.7-11,0.7-15.2
					c-3.3-4.5-15.3-6.3-15.1-6.2C-126.6,195.9-130.5,212-130.4,211.7z M-245.8,221c0,0,7.1,7.7,7.2,7.1c0.6-3.2,0.7-6.3-0.3-9.4
					c-1-3.4-6.2-11.3-6.2-11C-245.2,210.5-248.3,215.9-245.8,221z M-223.7,181.6c0,1,2.4-5.5,2.6-7.6c1.3-7.6-4.3-15.8-11.8-17.1
					C-233,156.8-224.3,164.6-223.7,181.6z M-220.4,203.5c2.8-3,6.6-4.9,9.5-7.9c2.4-2.5,4.8-5.4,6.4-8.5c3.5-6.5,2.5-12.9-0.9-19.3
					c-0.2-0.4,2.6,12.5-8.9,25.8C-218.2,198.3-220.5,203.7-220.4,203.5z M61.5,215c-4.7,0.4-14.8,1.4-16.1,2.3
					c1.4-0.8,4.3-5.2,5.6-7.5c4-7.1,2-13.6,2-13.6c-4.7-1.9-16.8,11-20.4,14.9c-0.5-8.8,7.3-22.4,9.5-30.9c2-7.7,1.5-15.6-0.3-23.3
					c-0.3-1.4-4.1-17.3-6.4-17.2c-2,0.1-6.8,12.6-7.2,13.7c3.1-9.5,0.7-19.3-4.2-27.7c-0.6-1.1-8.6-13.1-10.3-12.2
					c0,0,0.1,2.6-0.6,5.7c-1.3,5.1-3.7,12.4-3.5,17.6c-0.1-2.4-3.5-3.4-5.1-5.2c-0.5-0.5-3.2,7.6-3.2,7.6
					c-1.2,5.6,0.4,10.4,0.9,15.8c-2.7-2.5-4-9.4-7.7-8.6c-5.2,1.1-8,18.7-8.5,22.1c1.5-10.3-8-20.8-5.6-33.2
					c-0.2,0.9-8.2,0.6-12.1,6.9c4.4-7.1,5.4-15.8,5-24c0-0.2-1.3-12.5-2.4-12.2c-2.3,0.8-5.5,4-7.1,5.8c0.8-6.1,0.8-16.1-2.5-21.6
					c-1.1,1.2-2.1,2.4-3.1,3.8c0.6-12,0.8-21-3.3-32.6c0.6,1.6-9.5,12.1-10.9,14.7c-1.6-1.4,1.4-15.3,0.8-18.2
					c-0.5-2.7-10-17-9.6-17.8c-2.1,4.3-5.4,7.9-7.7,12.2c-0.2-7.1,3.9-13.4,0-20.3c-0.5-1-2.6,12-2.6,12.6c-0.2,2.5-0.8,5.4-0.4,7.9
					c0.4,2.3,6.1,8.8,6.1,8.3c-0.5-6.1-0.5-7.7,3.6-13c2.8,13,4.4,17.8-1.1,30.5c-2.8-5.6-9.1-7.1-13-11.4
					c3.7,4.1,2.8,14.4,5.1,19.6c-2.2-1.1-5-3.7-6.2-5.8c1.7,2.8-0.9,9.5,0.8,13.1c3.2,6.7,8.2,4.2,13.1,7.8
					c-1.4,0.3-12.5,3.6-13.5,2.3c8.3,11.3,20.8,6.4,30.1,14.3c-2.9,0-5.8,0.9-8.1,2.6c0.1-0.1,6.8,5.8,7.9,6.6
					c6.9,5.1,11.4,7.2,14.1,16.2c1.4,4.7,2.1,11.5,1.5,16.3c-0.6,4.5-2.9,7-4.8,11.7c-0.6-3.6-9.1-6.1-11.4-3
					c3-4.1,12.8,15.5,12.6,15.5c-3-0.2,9.8-18.3,11.6-19.5c-1.3,0.8,12.3,21.7,12,24.5c0.1-1,2.3-4.3,2.6-5.5
					c1.2-4.7-1.5-9.3-0.7-13.5c1-5.7,6.1-13.1,9.4-17.9c1.6,3.8,6.6,6.5,7.1,10.7c-0.7-5.3,3.9-11.6,3-17.5c1.5,1.1,5,9.9,6.1,9.8
					c0.5,0.2,4.8-6.6,5.2-7.1c0.3,7.4,3.6,15.2,4.6,22.6c0.9-2.8,7.1-7.2,9.4-8.5c2.7,8.8-1,16.8-2.1,25.5
					c-1.4,11.1-0.3,20.1-5.4,30.7c-5.8-5.7-6.1-9.6-5.3-17.3c0.4-3.8,1.1-5.9-1-10.2c-0.6-1.3-6.5-7.6-6-8.8
					c-9,19.4,11.7,38,2.4,56.2c-1-1.8-9.4-6.1-11.3-5c-2.3,1.3-2.8,8.3-2.3,11.1c0,0,2.3-10.5,3.1-9.9c6.8,5.6,9.3,13.3,9.1,20.4
					c0-0.8,20.3-7.9,21-21.7c2,1.1-16.4,13.2-17.1,13.8c-3.3-6.9,5-13.9,8.4-18.6c5.2-7,7.4-13.3,15.8-17.8
					c-2.3,6,0.4,12.5-2.7,18.8c0.6-1.3,8.4-3.8,10-4.5c-2,3.1-18.6,28.8-13,31.4c-2.7-1.3,11.2-6.1,11.6-6.1
					c-2.3,3.3-1.9,7.4-4.7,11c-2.5,3.2-5.5,5.7-7.3,8.8c0,0-2.8,9.6-3.2,8.5c5.6-1.4,9.7-1.3,11-2.4c-1,3.3-25.2,32.4-15.4,31.5
					c-4.7,3.5-16.8,6.5-21.7,3.4c-9-3.2-11.9-3.2-15.1-12.8c-1.1-3.4-1.6-7.1-0.3-11.6c1.8-5.9,6.4-10.1,7.8-16.2
					c1.1-4.9-2.1-10.7-2.1-13.4c0.1,8.7-9.3,13.8-11.3,21.9c-1.3,5.2,1.2,10.7,0.9,15.5c-0.2,2.9-1.5,9.2-6.8,12.2
					c-2.1,1.2-6,3.6-6,3.6c-3.4-2.1-2.1-11.7-1.8-14.4c-1,8.9-26.5,10-31.8,10.2c3.9-4.8,5.5-10.8,10.5-14.4
					c4.6-3.3,10.5-1.9,15.3-4.2c4.5-2.1,17.6-11.7,17.4-29.7c0,0-5.1,12-11.2,15.2c-4.3,2.3-10.1,2.9-14.7,2.8
					c3.6-4.4,4-10.8,7.1-14.3c2.4-2.6,7.9-4.7,11-6.3c8.5-4.2,21-10.1,24.9-19.5c-2.6,3.7-16.8-2.4-21.6,4.4c0,0-6.8,9.2-12.5,8.4
					c-2.7-0.4-1.3-7.5-1.2-12.4c0.9-9.6-1.9-15.2-7.1-21.8c0.7,0.9-2.8,11.6-2.9,13.6c-0.4,6.5,1.3,10.8,3.4,16.9
					c4,11.5,3.9,18.8-2.3,30.3c-3-4-4.6-8.2-6.7-12.6c-1.1-1.5-5.7-9.5-6.5-13.5c0.5,2.3-2.2,7.3-2.5,10.1c-0.7,6.4,1.2,11,3.3,16.8
					c3.5,9.7,1.8,18.7-5.8,26.9c-9,9.7-7.3,1.9-7.3,3.1c-0.1,6.6-0.9-22-4.4-22c-1.3,0-5,11.4-4.9,13.2c0.1,2.3,1.7,1.7,2,3.3
					c2.6,12.8,0.6,21.8-12.8,27c0.3-1.9,0.8-23.3,4-22.1c-2.6-0.9-6.9-0.1-9.2,1.1c2-5.2-0.8-12.1,1.4-16.6
					c-2.8,5.7-9.5,3.8-11.1,12.5c-2.3-0.7-8.6-2-9.2-4.6c0,0-0.5,0.1-0.3,0.3c1.4,2.2-0.9,11.9-4.2,12.4c-0.2,0.8,0.1,1.1,1.1,0.7
					c-6.6,11.4-20.2,9.7-30.2,3.9c-3.6-2.1-2.9,0.3-4.9-4.3c-1.2-2.7-1.3-9.3-0.6-12.3c1.1-5,3.6-9.9,3.7-9.8
					c-1.6-1.5-13.2,5-14.5,5.7c0.3-0.7,13.2-16.5,11.7-27.2c-2.9,12.3-13.6,20.2-13.7,19.9c-0.6-1.4-2.1-4.9-1.3-9.3
					c0.4-2.5,1.3-9.7,1.6-12.7c0.4-4.4-1.6-9-2.1-11.2c-1.2-5.4-0.1-4.1,1.2-6.2c1.3-2,3-4.1,3.9-6.6c2-5.4,1.2-12.5-0.9-18
					c3,8-3.4,18.2-8.2,21.6c-2.5,1.8-3.3-0.1-4.8-5.6c-2.5-9.2,4.6-18.4-0.2-28c-4.2-8.4-13.8-12.3-13.8-12.3s16.2,14.5,9.1,33.2
					c0.8-2-9.8-7.8-10-9.5c0.9,2.1-2,4.2-2.3,4.9c-0.1-0.4,9.4,6.3,9.9,6.7c6.3,5.6,6.9,14.7-3.7,6.9c0,0,1.6,2.4,0.4,5.3
					c0.2-0.5,12.3,8,13.7,10.3c2.6,4.3,2.9,10.5,0.6,14.6c-3.5-2.9-17.6-8-14.8,3.3c-0.2-1,4.8-1.1,5.6-0.7
					c5.9,2.4,9.3,3.3,12.3,9.7c2.3,4.7,2.9,10.5,1,16.7c-6.5-3.9-30-21-21.8,0.2c-2.3-1.8-4-5.7-7-3.4c1.6-4.1,3.4-8.4,3.1-12.8
					c-0.3-4.2-3-6.3-3.8-9.9c0.7,3-5,6.8-6.3,9.4c0,0,0.3,5-1.5,8.2c-1.8,3.3-4.3,7-4.3,7c-5.8-8.7-10.7-16.5-5.5-26.1
					c2.3-6.2,6.3-8.2,7.5-12.9c1.5-5.6-2.2-8.5-2.6-13.2c0.2,2-6.2,6.3-7.5,8.8c-1.1,2.4-0.7,6.9-1.4,9.5c-1.1,4-3.3,7.7-4.9,11.5
					c-0.2,0.4-0.8,0.4-0.9-0.1c-3.2-12.5-7.4-19.6-1.4-34.5c0.6-0.9,4.8-3.7,5.3-7.9c0.5-4.9-4.4-9.6-4.5-12.4
					c0.2,5.2-7.6,7.2-8.8,12c-0.5,2,1.2,5.5,1.5,7.8c0.5,4.3-0.6,8.6-1.2,13.2c-5.9-1-9.4-6.5-12.5-11.1c-3.5-5.2-8.5-9.1-11.9-12.6
					c5.3,5.7,0.3,15.8,3.5,22.5c-8.6-0.7-11-3-15.7-9.9c-1.2-1.8-7-9.6-10.5-6.5c0,0,3.2,1.7,5.3,7.5c2.4,6.8,6.2,15.1,13.4,16.5
					c-6.8,2.4-10.5,7.2-10.5,7.2c4,2.1,16.1,15.8,28.5,11.8l3.4,4.6c-5.1-0.3-7.6,4-11,6.7c-0.3,0.2,6.5,6.2,7.2,6.6
					c4.5,3,10.7,4.3,16.1,4.2c-2.4,1.4-5.7,2.7-7,5.4c-1.9,4.2-2.4,3.3-0.2,4.5c6.3,3.4,19.3,4.7,25.5,4.9c-2.3,2.3-7.3,6.4-7.3,6.4
					c10.7,11,20.7-0.1,28.1-4.8c-4.3,7.3-0.9,15.2-4.5,22.8c10-1.4,28.8-5.8,28.7-19.2c3.8,7.1,11.1,12.9,11.8,21.4
					c5.7-3.4,11.4-8.9,9.1-16.2c3.7,2.6,7.3,5.1,11,7.7c2-4,5-7.4,8.8-9.7c-0.4,3.8-1.1,8.8,0.6,12.4c4.8-4.6,11.9-4.6,17-8.8
					c-0.5,6.4-2,12.7-4.1,18.8c8.3-0.3,17.8-2.7,19.8-11.9c3,5.7,14,11.1,10.2,16.7c6.8-10.1,9.2-9.3,9.2-9.3
					c1.1,15.6,19.2,14.8,28.6,16.5c0,0-2.7-5.4-3.8-9.5c-0.5-1.9,0.2-4,0.2-4c7.9,9.8,25.9,2.7,31.8,2.2c0,0-9.4-10.7-11.5-9.8
					c2.5-1.1,12.8,4.2,18.7,3.7c3.1-0.2,13.2-4.4,17.8-1.9c0,0,0.2-3.5-3.8-6.9c4.2,0.1,14.5-0.6,17.4-2.8c2-1.6-2.3-6.2-7-6.9
					c2.4,0.3,9-1.7,16.8-6c5.8-3.2,12.3-8.1,15.6-13.7c5.5-9.4-2.9-7.8-9-6.1c-2.5,0.7-3.5,2-5.8,2.4c3.1-1.7,8.3-7,11.6-10.7
					c3.7-4.2,9.2-15.6,8.6-21.5c-0.3-2.8-3,0.6-12.4,3.3c4.5-2.9,9.3-7.6,11.6-12.2c1.2-2.4,6.5-17.2,6.5-17.2c-6.3-2-14,2.5-15.7,5
					c0,0.1,2.1-6.2,8.6-11.3C57.7,230.8,61.5,215,61.5,215z M-246.8,270.7c-3.9-4.1-4.8-11.3-7.3-16.7c15.5,4.6,23.5,15,24.8,22.7
					C-234.8,274.4-242.7,275-246.8,270.7z M-231.1,293.2c-5-2.4-6.1-7-7.9-11.3c2.2,2.1,8.6,3,12.2,4.7c4.6,2.2,6.7,5.4,9,9.6
					C-222.1,296-227,295.1-231.1,293.2z M-55.2,324.9c-9.8,8.7-15.2,0.6-25.5,1.3c9.5-9.1,19.1-11,31.7-8.4
					C-50.8,320.3-52.8,322.7-55.2,324.9z M-21.8,325.9c-7.5-0.2-20.4-9.6-8.4-13.7c7.7-2.6,16.6,4.5,22.2,8.4
					C-12.2,323.6-16.5,326-21.8,325.9z M-122.8,140.9c-0.2-0.8-0.3-1.2-0.3-1.2C-123,140.1-122.9,140.5-122.8,140.9z M-93.1,112.6
					c0,0-0.9-5.7-0.9-8.6c0-2.9,0.9-5.2,2.4-12.4c1.4-7.1-2.4-10.5-2.4-10.5c1.9,2.9-2.4,20.9-2.4,20.4s-2.4-2.4-2.4-2.4
					c0.5,1-2.4,3.8-2.4,3.8L-93.1,112.6z M-260.4,213.6c0.7-2.2,1.6-4.2,2.9-6c1.2-1.7,2.6-3.8,3.2-5.8c0.8-3,0.8-8.5-1.6-11.7
					c-0.2-0.2-0.5,9-3.7,16.8C-259.9,207.4-260.6,214.2-260.4,213.6z"/>
			</g>
			<g transform="matrix(1,0,0,1,177.177001953125,90.62200164794922)">
				<path d="M-21.1,178c-0.2-0.1-0.4-0.2-0.6-0.2c-0.1-0.1-0.3-0.2-0.4,0c-2.7,3.8-5.6,10.4-6.4,15c-0.7,4.4,1.8,8.8,4.4,12.1
					c0.3,0.3,0.7-0.1,0.6-0.4c-1.5-2.8-3.4-5.3-3.4-8.6c0-2.3,1-4.5,1.7-6.6c1.1-2.8,2.3-5.7,3-8.7l0.1-0.1c0.2-0.2,0.3-0.5,0.5-0.7
					c2.1,2.8,4.2,5.5,5.1,9c1.4,5.1-0.3,8.9-2.5,13.5c-0.1,0.1,0.1,0.2,0.2,0.1C-12.6,194.3-13.2,184.8-21.1,178z M-4.9,168.5
					c-1.9,3.9-6.1,6.1-7.7,10.2c-1,2.6-1.4,6.5,0.4,8.8c0.1,0.1,0.2,0,0.2-0.1c0.1-1.9-0.5-3.8,0.1-5.7c0.6-2.4,2.5-4.3,4.2-6
					c1.3-1.3,2.5-2.7,3.1-4.4c0.2,1.9,0.4,3.9,0.3,5.9c-0.1,3.5-1.9,6.8-3.6,9.8c-0.1,0.3,0.2,0.5,0.4,0.2c1.9-2.9,4.5-5.4,5-8.9
					c0.4-3-0.2-6.5-1.6-9.2c0-0.1,0-0.2,0-0.3C-3.9,168.2-4.7,168-4.9,168.5z M16.9,170c-4.2,6.2-11,7-17,10.5
					c-4.5,2.6-6.2,6.3-7.6,11c0,0,0,0.1,0.1,0c3.5-7.1,9-9.4,15.9-12.5c3.1-1.3,6-3,7.9-5.6c-0.1,2-0.2,4.1-1,5.9
					c-1.6,3.7-4.6,6-8,7.9c-3.1,1.6-6,2.7-9.3,3.5c-1.9,0.4-3.3,1.1-4.8,2.4c-0.4,0.3,0.1,1,0.6,0.7c3.4-2.6,7.9-2.9,11.8-4.3
					c2.8-1,5.8-2.6,8.1-4.4c4-3.2,4.8-8.2,3.5-13c0.3-0.6,0.5-1.2,0.7-1.8C17.8,169.8,17.2,169.6,16.9,170z M-32.4,197.2
					c-4.1-2.3-9.9-1.7-14.1-0.1c-0.2,0-0.4,0.1-0.5,0.2l0,0c0,0.1,0,0.2,0,0.3c1,1.6,2.6,2.8,3.9,4.1c1.6,1.7,2.7,3.8,4.2,5.5
					c1.7,1.9,4.4,3.2,6.9,2.5c0.2-0.1,0.2-0.4,0.1-0.4c-1.2-0.7-2.6-0.9-3.9-1.6c-1.8-1-2.7-2.7-3.8-4.3c-1.6-2.2-3.7-4.6-6.1-6
					c3.6-0.1,7.1-0.8,10.7,0.5c4.7,1.7,6.4,5.4,7.4,10c0.1,0.4,0.7,0.3,0.7-0.1C-27.6,203.8-28.6,199.4-32.4,197.2z M-55.5,208.8
					c-1.3,4.6-5.4,8.3-7.3,12.7c-1.3,3-1.9,5.8-1.5,9c0,0.1,0.2,0.1,0.2,0c1.1-5.4,3-9.9,5.9-14.6c0.8-1.2,2.5-3.1,2.9-4.5
					c0.1-0.2,0.1-0.3,0.1-0.5c1.2,2.6,2,8.6,2,10.9c0,7-4.1,8.9-9.3,12.6c-0.5,0.3-0.1,1.1,0.5,0.8c4.8-2.6,8.7-4.2,9.9-9.9
					c0.5-2.5,0.3-5.1,0.1-7.6c-0.2-2.6-2.3-6.8-2.6-8.9C-54.6,208.3-55.3,208.3-55.5,208.8z M-75.4,214.5c-2.7-1.1-5.8-1.3-8.4-2.6
					c-0.1,0-0.2,0-0.1,0.1c2.2,3.1,6.9,3.2,10,5c5.1,3.1,7.1,8.6,9.1,13.8c0.1,0.2,0.5,0.2,0.4-0.1c-0.2-4.6-2-9.3-5.3-12.6
					C-71.3,216.6-73.2,215.4-75.4,214.5z M-84.4,211.9c-2.1,4.2,1.3,11.7,3.9,15.1c3.6,4.8,10.5,5.9,16,7.1c0.7,0.1,1.3-0.3,0.7-0.5
					c-5-1.2-12.9-4.2-15.9-8.7c-3.7-5.5-4.4-11.5-4.5-13C-84.3,211.8-84.4,211.8-84.4,211.9z M36.1,159c-2-4.9-7-7.9-11.7-9.5h-0.1
					c-0.1-0.1-0.1-0.1-0.2-0.2c-0.1-0.1-0.3,0-0.3,0.2c2.2,5.6,1.2,11.6,1.9,17.5c-0.1,2.3,0.2,4.8,1.4,6.8c1.2,2.1,3.3,3.4,5.1,4.9
					h0.1c0.2-1.8-1.3-2.7-2.5-3.9c-1.4-1.5-2.1-3.2-2.6-5c-0.4-4.1-0.5-8.2-0.8-12.3c-0.1-2.4-0.1-4.9-1.3-6.8
					c4.7,3.1,9.6,5.6,9.9,12.1c0.3,4.5-1.5,9-2,13.4c-0.1,0.4,0.6,0.5,0.7,0.1C35,170.8,38.4,164.7,36.1,159z M26.2,176.8
					c-0.1-0.2-0.4-0.1-0.4,0.1c-0.1,2.5,2.1,4.6,3.8,6.3c2.5,2.6,4.9,4.7,6.4,8.1c0.1,0.3,0.7,0.2,0.7-0.2c-0.1-2.5-1.4-4.7-3.1-6.4
					C31,181.9,28,180.3,26.2,176.8z M24.7,193.3c1.1,1.8,2.3,3.1,4.4,3.8c3.4,1.1,7.9-0.8,10.9,1.6c0.2,0.1,0.4-0.1,0.3-0.3
					c-3-2.8-6.7-1-10.1-2.4c-3.9-1.7-5.9-5.8-6-9.8c-0.1-1.7,0.3-3.7,0.6-5.4c0,0,0.6-4.4,1-3.8h0.1c0.1-0.9,0.2-0.7-0.5-1.3
					c-0.2-0.2-0.5-0.1-0.6,0.1C23,181.9,21.3,187.6,24.7,193.3z M81,209.6c-5.3,3.6-12.3,0.3-18.1,3c-3.8,1.8-6.2,5.7-5.9,9.9
					c0,0.1,0.1,0.1,0.1,0c3-7,8.6-7.9,15.4-9c2.4-0.4,5.1-0.6,7.2-1.9c-1.4,3.5-2.7,7-5.6,9.6c-3.9,3.4-8.8,2.7-13.6,2.8
					c-0.1,0-0.1,0.1,0,0.2c4.5,1.3,9.4,1.5,13.4-1.4c4-2.9,6.1-7.9,7.5-12.4c0-0.1,0-0.2,0-0.3l0.1-0.1
					C81.7,209.8,81.3,209.4,81,209.6z M67.7,237.7c-4.4-0.7-6.5-3.3-8.9-6.8c0-0.1-0.1,0-0.1,0c2.3,8.2,11.9,10.9,19.2,7.2
					c0.5-0.2,0.1-1.1-0.4-0.9l0,0c-3.7-1.9-4.3-6-7.3-8.6c-2.3-2-6.1-2.4-9-2c-0.1,0-0.1,0.2,0,0.2c2,0.8,4.4,0.8,6.2,1.8
					c1.9,1.1,3,3.4,4.2,5.1c1.2,1.7,2.6,3.3,4.5,3.9C73.3,238.4,70.4,238.1,67.7,237.7z M81.8,237.2c1.4,5.2,5.2,8.6,7.9,13.1
					c0.4,0.7,1.6,0.1,1.1-0.6c-3-4.8-7-8.4-7.8-14.4c-0.6-4.8,0.4-9.8-0.5-14.5c0.1,0,0.2-0.1,0.3-0.2c0.4-0.7,6.2,5.9,6.6,6.5
					c1.8,2.4,3.3,4.9,4.1,7.8c1,3.6,0.4,5.9-1.3,9c-0.8,1.6-1.4,2-1.4,3.7c0,0.1,0.1,0.1,0.2,0c1.4-2.9,4-4.7,4.4-8
					c0.4-3.1-0.5-6.6-1.9-9.4c-1.3-2.6-8-13.5-11.4-11c0,0,0,0-0.1,0.1c-0.1,0-0.2,0-0.2,0.1v0.1c0,0.1,0,0.2,0,0.3
					C81.7,225.6,80.4,231.8,81.8,237.2z M91.3,262.6C91.3,262.7,91.4,262.7,91.3,262.6c0.8-6.6,2.1-11.4,7-16.1c1.1-1,2.7-2,3.6-3.3
					c0.7,5.6,1.3,10.1-2.9,15.3c-2.7,3.3-4.7,7.1-7.1,10.6c-0.1,0.2,0.1,0.5,0.3,0.3c2.2-1.7,3.3-3.7,4.7-6c1.9-3,5-5,6.7-8
					c2.4-4.3,1.9-10.1-1.1-14c0-0.3-0.1-0.6-0.2-0.9c-0.1-0.2-0.3-0.3-0.4-0.1l-0.1,0.1c0-0.1-0.1-0.1-0.1-0.2h-0.1
					c0,0.1,0,0.2,0,0.3C96.2,246.1,88.6,254.3,91.3,262.6z M85.2,251c2.6,3.2,2.7,7,2.9,10.9c0,0.2,0.4,0.3,0.4,0.1
					c0.8-4.3,0.6-8.3-2.1-11.8c-2-2.6-5-4.7-8.4-4.4c-0.2-0.2-0.5-0.1-0.6,0.1c-0.3,1-0.2,2.3,0,3.5c-0.1,4.1,0.3,8.9,1.6,12.4
					c2.1,5.3,8.4,5.2,10.7,10.1c0.1,0.3,0.7,0.1,0.5-0.2c-1.8-5-7.8-5.7-10-10.5c-1.8-4,0-9-1.5-13c-0.1-0.7-0.2-1.3-0.5-1.9
					C80.9,247.5,83.4,248.7,85.2,251z M125.6,254.8c0-0.8-0.5-1.2-1.5-1.4c-0.3-0.1-0.6,0.1-0.6,0.4c-2.5,8.4-13.3,16.8-8.2,26.3
					c0,0.1,0.1,0,0.1,0c0-2-0.2-4,0-6c0.2-3.6,2.1-6.4,4-9.3c1.1-1.8,2.3-3.5,3.2-5.4c0.3-0.7,2.1-4.2,2.2-3.9
					c0,0.2,0.2,0.3,0.3,0.3c0.1,0.9,0.4,1.8,0.6,2.7c0.2,1,0.4,2.1,0.6,3.1c0.3,2.5,0.4,5.1-0.3,7.6c-0.8,2.7-2.5,5.1-3.7,7.5
					c-1.9,3.6-4.5,7.2-4.2,11.5c0,0.1,0.2,0.2,0.3,0c1.2-4,2.6-7.3,5.2-10.6c1.3-1.7,2.8-3.2,3.6-5.2c1.2-2.9,1.2-6.5,0.5-9.9
					C128,260,127.2,256.7,125.6,254.8z M149.7,292.9c0.2,0.2,0.4,0,0.3-0.2c-3-6.2-1.5-11.2,0.4-17.4c0.9-3.1,1.6-6.2,1.3-9.3
					c1.6,3.7,3.3,7.4,4.1,11.4c1.3,6.5,0.8,12-2.2,17.9c-0.1,0.1,0.1,0.3,0.2,0.2c8.3-8.1,5.2-24-2.5-31.6c0-0.2-0.1-0.4-0.1-0.5
					c-0.1-0.3-0.7-0.3-0.6,0.1c0.2,6.5-2.8,11.9-3.7,18.2C146.2,285.4,146.6,290.2,149.7,292.9z M145.9,320.1
					c1.7-6.1,4.7-9.6,9.9-13.3c2.6-1.8,5.5-3.4,7.5-5.9c1,7.3-1.2,13.6-8.2,17.3c-3.4,1.8-7.6,3-9.5,6.7c-0.1,0.3,0.2,0.6,0.4,0.3
					c4.8-5.3,12.6-6,16.8-12c2-2.8,3-6.4,2.3-9.7c0-1.5-0.2-3.2-0.9-4.4c-0.2-0.3-0.5-0.3-0.8-0.2c-0.1,0-0.1,0.1-0.2,0.1
					c-0.1,0-0.1,0.1-0.2,0.2c-1.8,2.6-5.2,3.8-7.7,5.6c-2,1.4-3.8,3-5.3,4.9c-2.3,2.9-4.5,6.7-4.3,10.4
					C145.7,320.2,145.9,320.2,145.9,320.1z M137.8,284.9c-0.2-0.1-0.4,0-0.6,0.2c-0.7,0.7-11.2,17.7,5.4,30.3
					c0.6,0.4,1.2-0.5,0.7-0.9c-3.9-4.2-7.3-8.2-8.2-14.2c-1.2-8.3,2.2-12.8,2.6-13.9c2.2,2.5,8.8,13.4,7.1,26.3
					c0,0.1,0.2,0.2,0.2,0.1c2.3-5.7,1.5-12-0.7-17.7C143.2,291.9,141.3,286,137.8,284.9z M132.6,312c-0.1,0-0.1,0-0.2,0.1
					c-2.6,4.2-3,10-1.5,14.6c1.7,5.6,6.7,7.4,9.9,11.8c0.2,0.3,0.8,0.1,0.7-0.3s-0.2-0.7-0.4-1c1.5-4.4,1.7-9,0.6-13.4
					c-1.4-5.3-4.6-8.3-8.6-11.9C132.9,311.9,132.7,311.9,132.6,312z M140.8,324.9c0.9,4.1,0,7.8,0,11.9c-1.5-2.5-4.7-3.9-6.5-6.2
					c-4.3-5.6-2.9-11.3-1.6-17.6C136.1,316.6,139.7,319.7,140.8,324.9z M161.4,355c-1.4,3-3.3,6-6.1,7.9c-5.2,3.6-11.6,4.2-17.6,5.6
					c-0.2,0-0.1,0.2,0,0.3c14,1.5,27.3-8.4,26.9-22.9c0-0.1,0.4-1.4-1.4-0.7c-7,2.8-15,3-20.9,8.2c-3.8,3.4-7,8.7-6.1,14
					c0,0.1,0.2,0.1,0.2,0c2.8-5.6,4.6-10.9,9.9-14.7c5.2-3.7,11.7-4,17.3-6.6C164.6,347.7,161.7,354.3,161.4,355z M118.3,372.6
					c0,0.1,0.2,0.1,0.2,0c1-7.6,4.1-11.5,8.2-16.9c2.7-3.2,4.9-6.4,5.9-9.3l0,0c3.1,2.7,1.5,13.2,0,16.1c-4.2,8-11.6,12.3-13,13.2
					c-0.3,0.2,7.7-2.4,16.6,0.9c4.2,1.5,10.7,8.6,10.8,8.7c-0.2-0.2-8.7,2.1-12.7,2c-6.5-0.1-10.5-2.3-13-8.5c0-0.1-0.2-0.1-0.2,0
					c-0.2,14,18.9,9.8,26.7,7.1c0.4-0.1-6.5-13.3-23.3-12.2c6.3-2.8,9.8-9.7,11-16.3c0.3-1.4,1-11.5-3-11.1
					C132.7,346.1,115.3,364.8,118.3,372.6z M101.4,387.9c-0.2,0.3,0.3,0.9,0.6,0.6c2.9-2.2,6.6-3,9.3-5.3c2-1.7,3.4-4.1,3.9-6.6
					c2-10-2.9-18.9-3.3-18.5c-8.1,6.3-15.9,16.4-12.1,27.3c0,0.1,0.2,0.1,0.2,0c0.8-5.4,1.3-10.4,3.8-15.3c2.1-4,5.5-6.8,8.2-10.3
					c1.6,5.9,3,11.6,1,17.7C110.9,383.7,104.7,383.2,101.4,387.9z M106.5,405c4.8,0.3,13.4-2.8,16.4-6.8c0.1-0.2,0.1-0.4-0.1-0.6
					c-0.5-0.5-16-12.4-24.9-7.2c-0.1,0.1-0.1,0.2,0,0.2c3.2-0.9,8.8-1.1,14.7,2.4c2.1,1.2,6.1,3.6,6.3,3.6c3.2,1.5,1,2.5-1.1,3.6
					c-2.8,1.4-5.8,2.6-9,2.8c-6.2,0.4-11.3-2.6-14.7-7.5c-0.1-0.1-0.3,0-0.2,0.1C96.1,400.9,100.8,404.7,106.5,405z M99.4,364.4
					c0-0.5-0.4-0.6-0.8-0.5c-0.1,0-0.1,0-0.2,0c-6.3,3-14,0.2-19.8,4.6c-4.6,3.6-7.5,10-10.5,14.9l0,0c5.7-4.2,6.8-12.3,13.6-15.3
					c4.8-2.1,12.3,0.5,16.4-3.1c-0.6,6.8-3.9,12-10.1,15.2c-5.6,2.9-11,3.2-17.1,4c-0.1,0-0.1,0.1,0,0.1
					C84,386.1,98.3,378.6,99.4,364.4z M61.9,384.6c-0.1,0.1,0,0.2,0.1,0.1c6.9-3.5,11.2-11,12.3-18.4c1.4-9.5-4.2-18.2-4.4-18.1
					c-1.8,1.9-9.9,13.1-11.6,16.7c-3.4,7.1-1.4,15.4,1.2,22.2l0,0c-0.3-7.6-3-14.4,0.9-21.7c1.3-2.4,8.5-13.8,9.4-14.7
					c0.9,1.6,3,7.7,3.1,10.3c0.1,3.3-0.1,6.6-1.2,9.8C69.9,376.4,66.1,380.5,61.9,384.6z M45.3,403.2c-0.1,0.1,0,0.2,0.1,0.1
					c9.2-6,9.2-16.3,7-26c-0.1-0.4-0.4-0.5-0.7-0.5c-1.2-0.7-2-0.4-3.2,0.5c-3.1,2.1-6.3,6.4-8.7,9.3c-1.4,1.7-2,2.9-2.1,5.1
					c-0.2,4.1,0.5,8.5,0.5,12.7c0,0.1,0.2,0.2,0.2,0c1.2-4.2,0.3-8.4,1-12.6c0.4-2.4,8-13.7,11.7-13.7c0.9,4.2,1.9,8.6,1.2,12.9
					C51.5,396.1,48.6,399.5,45.3,403.2z M69.6,406.1c-3.8,2.2-11.2,1.4-15.5,0.4l0,0c5,2,11.9,3.7,16.7,0.2c2.5-1.8,4.5-4.4,6.6-6.6
					c1.3-1.3,3.2-2.6,3.2-4.6c0-0.2-0.1-0.5-0.3-0.6c0,0,0,0-0.1,0c0-0.3-0.1-0.6-0.5-0.6c-10-2-23,0-30.1,8.2
					c-0.1,0.1,0,0.4,0.2,0.3c9.5-5.5,18.1-9.2,29.3-7.1C79.1,398.6,71.6,405,69.6,406.1z M53.6,340.7c1.1-4.6-0.2-10-2-14.2
					c-1.6-4-5.1-10.8-8.8-13.2c-0.2-0.1-0.4-0.1-0.6,0c-0.1,0.1-0.2,0.2-0.3,0.2c-0.2,0.1-0.3,0.4-0.2,0.6c-1.8,5.3-5,10.6-6,16.1
					c-0.9,4.9,1.1,10.1,3.2,14.5c0.1,0.2,0.3,0,0.3-0.1c-0.5-2.4-1.2-4.6-1.8-7c-1.1-4.8-0.3-7.9,1.7-12.3c1.6-3.5,2.8-7,3.2-10.9
					c2.4-0.5,7.8,12.8,8.3,14.2c1.6,4.5,1.5,8.7,1.8,13.3c-3.3,3.6-5.8,8.3-6.5,12.3c0,0.1,0.1,0.2,0.2,0.1
					c2.2-3.6,4.1-7.1,6.9-10.3c2.4-2.7,8.7-6.7,8.1-6.9c0,0,0.9,4.7,0,7.5c-2.2,7.3-10.5,9.7-12.6,12.5c-0.1,0.1,0,0.3,0.2,0.2
					c5.3-2.6,18.8-6.8,13.6-21.5c-0.1-0.3-0.6-0.2-0.8-0.1C61.4,335.7,55.7,338.6,53.6,340.7z M34,342.4c2.5,2.4,5.1,4.7,6,8.2
					c1.4,5.1-0.3,10.4-0.7,15.6c0,0.5,0.8,0.8,1,0.3c2.6-6,3.4-15.4-0.9-20.7c-1.2-1.5-9.8-11.4-11.6-8.8l0,0l0,0c0,0,0,0.1-0.1,0.1
					v0.1c-0.8,8.7-4.4,23.4,7.4,26.3c0.3,0.1,0.4-0.3,0.2-0.5c-6-3.7-7.6-8.6-6.8-15.4c0.4-3.6,1.2-7.1-0.5-10.5
					C30.1,337.3,32.7,341.2,34,342.4z M-22.2,368.5c-4.6,6.4-5.2,15.3-1.5,22.3c0.2,0.3,0.6,0.1,0.5-0.2c-2-7.7-1.6-14.5,1.3-22
					C-21.8,368.4-22.1,368.3-22.2,368.5z M-6.1,396.7c-3.9-0.8-7.2-3.2-11.2-3.1c-0.2,0-0.2,0.3,0,0.3c5.5,2,11.3,5.7,17.4,4.1
					c4.1-1.1,10.6-5.2,11.5-9.6c0-0.1,0-0.2-0.1-0.2c-0.4,0-0.7,0-1.1,0c-4.1-0.7-9.4-3.4-14-3.2c7.4-5.5,12.3-14,8.2-31
					c-0.1-0.4-1.3-0.7-1.5-0.5c-4.1,5.1-10.5,7.3-14.3,12.7c-1.6,2.2-2.7,4.8-3.7,7.6c-0.3-3.9-1.8-7.8-4-10.6
					c-0.1-0.2-0.4-0.2-0.6-0.1c-0.4,0.2-2.2,3.5-2.1,4.5c0,0.3,1.8-2.8,2.3-3.3c0.5,0.5,5.5,6.7,1.8,21.2c0,0.2,0.3,0.3,0.4,0.1
					c3.1-6.3,3.5-13,7.7-18.9c3.5-4.9,9.4-7.4,12.9-12.3c0.3,1.1,1.1,14.2-0.7,19.4c-2.6,7.7-8.1,11.3-15.5,13.5
					c-0.2,0.1-0.1,0.3,0,0.3c2.1,0.2,4-0.2,5.8-0.9c3.4-0.4,6.4,0.2,9.9,1.2c2.6,0.7,4.7,1.2,7.3,0.8C7.2,395.2-2.4,397.5-6.1,396.7
					z M-38.5,361.6c0.5-5.2,0.9-10,3.1-14.8c1.7-3.9,4.3-6.9,6.8-10.3c0.1-0.1-0.1-0.2-0.2-0.2c-7.6,4.9-12.1,16.5-10,25.3
					C-38.7,361.8-38.5,361.7-38.5,361.6z M-36.9,365.6c6-5.9,20.9-21.9,9.7-30c-0.1-0.1-0.2,0.1-0.2,0.2c3.5,6.2,3.2,12-0.9,17.8
					c-2.9,4.1-6.7,7.3-9.3,11.6C-37.7,365.5-37.2,365.9-36.9,365.6z M-52.1,366.5c-2.1-3.6-2.3-8.8-5.4-11.7c-0.1-0.1-0.2,0-0.2,0.1
					c2.1,4.9,2.7,10.1,5.7,14.7c2.6,4,7.1,6.5,11.3,8.4c0.4,0.2,1-0.4,0.6-0.7C-44.3,373.7-49.1,371.6-52.1,366.5z M-39.3,375.7
					c1.5-6.8,0.4-14.2-4.4-19.5c-3.2-3.5-10.8-7.4-15.4-4.4c-0.1,0.1-0.2,0.2-0.2,0.4c0.1,0.8,0.1,0.5,0.8,1.5
					c0.1,0.1,0.2,0,0.2-0.1c-0.5-1.7,4.7-1.6,5.4-1.5c1.4,0.3,2.9,0.8,4.1,1.5c2.4,1.4,4.5,3.7,5.8,6.1c2.8,4.9,2.9,10.4,2.6,15.8
					C-40.3,376.1-39.4,376.2-39.3,375.7z M15.9,283.3c0.1-0.2-0.2-0.3-0.3-0.1c-3.4,4.7-9.7,8.5-11.2,14.3S3.6,311,5.2,316.7
					c0,0.1,0.1,0.1,0.1,0c0.2-6.7-1.8-15.4,1.9-21.3C9.8,290.9,14,288.4,15.9,283.3z M18.9,299.7c1.5-5.5,1.9-13.5-1.9-18.2
					c-0.1-0.1-0.1,0-0.1,0.1c2.8,5.7,1.2,15.4-1.2,21c-2.2,5.3-7.4,7.5-10,12.2c-0.2,0.4,0.3,0.9,0.7,0.5
					C11.5,310.4,16.9,307,18.9,299.7z M0,325.4c3.9-10.6,4.5-24.8-7.3-30.7c-0.1-0.1-0.2,0-0.3,0.1c-0.1-0.2-0.2-0.4-0.3-0.7
					c-0.3-0.6-1-0.1-0.9,0.4c1.4,8.7-6.2,24.3,6,28.6c0.4,0.2,0.6-0.5,0.3-0.7c-6.9-5-6.4-10.3-5.1-18c0.6-3.2,1.2-6.4,0.1-9.5
					c2.5,3.9,6.1,7.3,7.7,11.8c2.1,6.1-0.1,12.3-1,18.4C-0.9,325.7-0.2,325.9,0,325.4z M-19.4,265.8c0.1,0.1,0.1,0.2,0.2,0.3
					c-0.1,0-0.2,0.1-0.1,0.2c1,5.1,0.3,9.3,4.1,13.3c3.9,4,11.4,7.9,12.2,13.8c0.1,0.4,0.8,0.5,1,0.1c1.7-3.8-2.3-6.7-4.8-9.1
					c-2.8-2.6-6.3-5.1-8.6-8.1c-2.4-3-2.2-6.6-3.6-9.9c2.3,2.5,7.3,3.2,10,4.8c7.2,4.3,7.4,11.2,7.1,18.7c0,0.4,0.6,0.5,0.7,0.1
					c1.9-5.9,1.6-11.7-2.6-16.5c-3.9-4.5-10.2-5.8-15.5-8C-19.4,265.5-19.5,265.7-19.4,265.8z M-5.1,265.7c1.7,5.6,6.9,9.8,7.9,15.6
					c0.1,0.5,0.8,0.4,0.9,0c1.3-4.1-3-8.4-5-11.7c-1.9-3.2-2.9-5.8-2.7-9.6c0.2-3,1.2-7.1,1.8-9.3c3,4,5.7,6.6,6.2,12
					c0.4,4.5-0.3,8.8-0.5,13.3c0,0.2,0.2,0.2,0.3,0c4.1-12.3,1.3-20.4-6.3-27C-2.3,249-6.9,260-5.1,265.7z M-59.5,323.2
					c-2.7,5.3-2,11,1.2,15.8c1.7,2.4,3.5,5,5.9,6.8c2.6,1.9,5.9,2.6,8.6,4.4c0.3,0.2,0.6-0.2,0.3-0.4c-3.8-3-8.4-4.7-11.8-8.4
					c-2.3-2.6-4.5-5.4-4.6-9c-0.1-3,0.5-5.8,0.6-8.8c2.5,3.7,6.7,6.3,10.2,9.1c2,1.6,3.8,3,4.6,5.6c1,3.3,0.5,6.7,0.5,10.1
					c0,0.5,0.7,0.6,0.8,0.1c1.1-4.1,1.2-10.6-1.6-14.2c-3.5-4.5-10-7.7-14.3-11.4C-59.3,322.6-59.7,322.9-59.5,323.2z M-128.9,263.1
					c-0.5,5.2-5.3,6.3-8.1,9.6c-1.3,1.5-2.3,3.4-2.8,5.4c-1.3,4.4-0.4,9.1,2.6,12.6c0.1,0.1,0.2,0,0.2-0.1
					c-2.6-6.7-2.5-12.9,2.7-18.3c2.7-2.9,5.6-4.9,6.3-9C-128.1,262.7-128.9,262.6-128.9,263.1z M-131.3,295c0.1,0.2,0.3,0.2,0.3,0
					c0-4.2,0.8-8.1,2.3-11.9c1.2-2.9,2.6-5.6,3-8.7c0.6-3.9,0.1-7.9-2.3-11c-0.1-0.1-0.3,0-0.2,0.1
					C-125.4,274.4-135,284.4-131.3,295z M-116.5,261.3c-0.1,0-0.3,0.1-0.2,0.2c1.7,4.7,1.9,10.5,5.1,14.5c3.6,4.5,10.2,4.9,14.7,8.1
					c0.2,0.1,0.3-0.1,0.2-0.3c-3.8-4.1-9.3-3.9-13.4-7.5c-4.5-3.8-2.7-9.5-5.3-13.8c1.1,0.7,2.4,1,3.8,1.1c4.1,0.4,7.9,0.1,11,3.2
					c0.1,0.1,0.1,0.2,0.2,0.3c0.2,0.3,0.7,0.1,0.6-0.2c-1.5-5.2-6.9-8.1-9.2-12.8c-3.6-7.1,0.3-22.5,0.3-23.2
					c2.7,2.1,5.6,5.5,7.3,8.1c9.1,14,4.3,22.6,8.4,26.6c0,0,0.1,0,0.1-0.1c-1.9-8.4,3.9-13.8,9.4-18.2c2.3-1.8,4.4-3.5,5.6-6.1
					c1.2,4.4,2.1,8.6,1,13.2c-1.1,4.6-3.2,9.1-5.7,13c-4,6.1-11.4,11.3-10.7,19.5c0,0.4,0.5,0.4,0.6,0c1.3-10.5,11.1-15.3,14.9-24.6
					c3.1-7.5,3.6-14.7,0.3-23.3c-0.1-0.3-1.5,3-4.4,5.4c-4.8,3.8-11.4,9.4-12.1,14.1c-0.2-4.6,0.2-9.2-2.1-13.8
					c-2.8-5.6-7.4-12.5-12.7-15.9c-0.5-0.3-1.1,0.1-1.1,0.6c0,1.1-4,15.6-1.8,22.2c1.7,5,5.8,8.2,9,12c-3.7-1.9-9.7-0.4-13.2-2.6
					C-116.2,261-116.4,261.1-116.5,261.3z M191.7,291.8c-3.7,1.1-7.3,1.2-11.1,1.5c-1.5,0.1-3,0.3-4.4,0.8c1.5-1.4,4-4,5.8-8
					c2.3-4.9,1.1-14.1,1-14.1c-7.6,1.2-15.2,7.3-19.8,13.4c3.1-11.1,8.9-21.3,11-32.7c1.1-5.8,1.1-11.6-0.3-17.4
					c-1.7-6.8-5.8-12.3-8.4-18.7l0,0c0.1-0.2-0.1-0.4-0.3-0.3c0,0-3.7,1.7-5,8.7c0.4-5.5-1.1-12.7-3.1-17.4
					c-7.1-16.3-15.4-18.3-15.2-17.7c2,5.3-2.7,13.3-3.5,18.7c-0.2,1.3-0.3,2.5-0.2,3.7c-1.1-1.4-4.5-4.7-4.7-4.3
					c-3.4,5.9-4.8,12.9-3.6,19.6c-3-3-4.5-7.2-4.5-7.2c-2.9,2.3-5.5,7.1-6.7,10.5c-1.1,2.8-2.2,5.8-2.8,8.9
					c-0.1-0.9-3.5-10.8-4.8-16.5c-1.6-6.7,0.7-11.8,0.4-11.9c-4.9-0.4-11.2,5.2-11.8,5.8c0.9-2,2-3.8,3-5.9c1.2-2.7,1.6-5.6,1.7-8.6
					c0.2-4.7-2.3-19.7-3.3-20.4c0,0-4.3,2.4-7.5,5.7c0.4-1.9,0.5-3.9,0.6-5.8c0.3-6.2-2.5-15.7-3-15.5c-1,0.5-2.8,3.4-2.9,3.5
					c0.6-2.2,1.3-4.4,1.6-6.7c0.3-2.6,0-5.4-0.3-8c-0.4-3-0.9-6.1-1.6-9c-0.7-3-2.4-5.4-3.1-8.4c-0.1-0.5-0.9-0.4-1,0
					c-2.6,2.6-5.9,6-8.1,9.7c0.6-4.2,0.8-8.5,0-12.4c-0.7-3.4-2-6.8-3.8-9.8c-2-3.2-4.8-5.7-6.7-9.1c0-0.1,0-0.1,0-0.2
					c0-0.5-0.8-0.6-0.8-0.1c-0.4,3.2-3.4,6-5.3,8.5c-0.4,0.5-0.8,1.1-1.2,1.6c1.3-6.2,2.5-13.4-1.3-19.4c-0.2-0.3-1,4.1-10.2,11.3
					c-2,1.6-5.5,6.4-6.3,8.9c-0.1-3.6-4.5-13.6-4.7-13.1c-2.6,5-7.8,10-9.8,15.3c-1.4,3.8-0.6,8.3,0.8,12.3
					c-0.4-0.6-6.5-7.1-8.7-6.7c-0.1,0-1.4,4.3-0.9,11.8c0.4,5.3-0.6,10.1-2.7,14.5c0-1.6-0.4-3.2-0.7-4.7
					c-0.8-3.8-4.2-12.7-4.8-12.4c-8.8,3.9-19.5,9.9-24.4,18.6c0-1-0.2-2-0.5-3.1c-0.2-0.7-0.9-0.7-1.4-0.4
					c-5.6,4.7-12.6,7.5-18.2,12.4c-4,3.5-6.5,7.5-7.4,12.5c-0.8-1.5-1.5-3-1.9-4.7c-0.4-1.5,0-3.7-0.5-5.1c-0.4-1-0.4-1.2-1.5-1.6
					c-0.2-0.1-0.5,0-0.6,0.2l-0.3,0.3c-11.5,4.2-11.8,21.2-10.8,31.6c-0.8-1.5-1.4-2.9-1.8-4.6c-0.4-1.9-0.4-3.9-0.8-5.8
					c0.3-0.4-0.2-1-0.7-0.8c-4,2-6.3,6.5-7.6,11.3c-0.8-4.7-2.8-9.4-5-12.7c-2.5-3.7-6.1-7.1-7.3-11.5c-0.6-2.5,0.2-6.7-2-8.5
					c-0.2-0.1-0.4-0.1-0.6,0c-0.1,0-0.3,0-0.4,0c-6.5,3.1-11.2,13.7-11.6,21.5c-0.2-1.5-0.6-2.4-0.9-3.5c-0.9-3.5-3.3-6.2-3.5-5.5
					c-0.6,2.5-3.4,4.7-4.9,6.6c-1.8,2.3-3.3,4.7-4.4,7.4c-1.6,3.8-2.2,8.2-1.1,12.2c-0.5-0.6-0.8-1.2-1.2-2.1
					c-0.6-1.4-3-3.8-3.1-3.6c-1.5,3.9-2.4,7.9-4.1,11.7c-1.6,3.6-9.6,14.4-9.8,23c-1.6-3-3.2-5.9-3.4-9.7c-0.3-6.3-2.3-9.7-2.4-9.7
					c-0.2,0-0.5,0.1-0.6,0.4c-0.9,4.6-3.1,8.7-4.5,13.1c-1.3,4.2-2.2,8.6-2.5,13c-0.5,6.3,0.9,12.9,6.1,16.7c-5.8-2-9-9.7-15.9-9.2
					c-0.2,0-0.3,0.3-0.1,0.4c1.9,1.2,4,1.9,5.8,3.3c1.8,1.3,3.2,3,4.8,4.4c2.3,2,4.7,3.2,7.7,2.4c0.5-0.1,0.4-0.8-0.1-0.8
					c0-0.1-0.1-0.2-0.2-0.3c-8.7-4.7-6.5-17.2-4.6-25.1c0.9-4,3.5-8.6,4.4-13.1c0.2,3.2,0.3,6.4,1.3,9.4c1,2.9,5.9,9.3,6.1,9.5
					c0.3,0.3,0-1.4-0.3-1.8c-0.4-7.9,3.8-14.2,7.4-21.1c2.5-4.6,5.4-9.7,5.4-15.1c0.4,1.3,0.9,2.7,1.5,3.9c0.6,1.3,1.9,2.8,3.2,3.3
					c0.4,0.1,0.8-0.3,0.7-0.7c-0.2-0.6-2.6-7,2.9-17.6c1.6-3.1,5.5-6.3,6.7-9.6c1.6,3.2,1.9,4.3,2.3,7.5c0.3,2.2,0.3,5.1,2.5,6.1
					c0.4,0.2-2.4-16.7,10.8-26.4c0.9,2.7,0.4,5.9,1,8.7c0.6,3.2,1.8,5.7,3.7,8.3c2.7,3.6,5.8,6.8,7.2,11.3c1.3,4.3,1.6,9,1.5,13.5
					c0,0.5,0.6,0.5,0.7,0.1c0.7-1.6,1-3.4,1.1-5.3c1.6-5.1,2.8-10.7,6.6-14.3c-1.1,4,1.4,9.4,4.3,11.7c0.3,0.2,0.7,0.1,0.8-0.2
					c0.4,0,0.7-0.3,0.7-0.8c0.8-11.1,0.6-23.6,8.9-32.1c0.1,0.1,0.3,0.1,0.5,0c0.1-0.1,1,5.7,1.2,6.4c0.6,2.3,1.6,4.3,3,6.3
					c0.4,0.6,1.5,0.5,1.5-0.4c-0.3-7.8,6.3-13.2,12.1-17.3c3.8-2.7,8.9-4.7,12.4-7.9c0.3,1,0.4,2,0.3,3.1c0,0.9,1.3,0.8,1.3,0
					c0-0.1,0-0.1,0-0.2c3.6-3,6-7.2,9.7-10c4.2-3.2,9-5.7,13.7-7.8c2.5,3.7,5.3,13.4,4.2,18.9c-0.1,0.4,4.2-1.7,6.8-12.6
					c1.2-5-0.8-10.3,0.5-15.3c1.1,1.4,7.6,7.2,8.9,9.3c0.3,0.4,0.9,0.1,0.8-0.3c-0.2-0.7-1.2-6-1.5-8.1c-0.9-5,0-8.4,2.7-12.5
					c1.8-2.6,4.4-5.2,5.5-8.2c0.4,1.9,3.6,10.2,3.8,15.9c0,0.4,1-9.3,11.5-17.2c2.4-1.8,5.3-3.8,6-6.8c2.1,3.9,1.9,7.7,0.8,12
					c-0.6,2.4-1.2,4.6-0.8,6.9c-0.2,0.7-0.2,1.5,0.1,2.3c0,0.1,0.2,0.1,0.2,0c0.9-3.4,3.2-5.9,5.3-8.7c1.1-1.4,2.1-2.7,2.6-4.3
					c0.5,2.2,2.1,4,3.3,6c2.1,3.5,3.8,7.3,4.7,11.2c1.1,4.6,0.8,8.5,0,13.1c-0.5,2.6-1,4.9,0.1,7.4c0.2,0.4,0.9,0.3,1-0.1
					c0.2-0.9,0.4-1.7,0.6-2.6c1.7-2.5,3.3-5,5.3-7.4c1.6-2,3.1-3.9,4-6.1c0.3,1.4,0.9,2.7,1.4,4.2c1,3,1.5,6.1,2,9.2
					c0.6,3.8,0.8,7.4,0.5,11.2c-0.3,3.3-1,6.3-0.8,9.7c0,0.2,3.2-4.4,3.8-5c1,3.2,1.4,9.4,1.2,12.5c-0.3,5.1-1.4,10.1-1.2,15.2
					c0,0.3,0.4,0.3,0.5,0.1c0.5-1.4,2-7.4,9-12.1c0.1,6.4,2.4,12.9,2.3,20c-0.1,3.4-5.4,16.7-5.1,17.5c0,0,0.1,0.1,0.1,0
					c0,0,2.8-3.9,3.8-4.8c2.2-1.9,4.9-3.4,7.8-3.9c-1.6,5.2,0,12.4,2,17.2c3.9,9.6,3.5,19,2.8,24c-0.1,0.6,0.7,0.9,0.9,0.3
					c1.2-3.5,1.6-7.3,1.5-11c2.7-6.8,3.4-14.4,8.5-20c0.5,1.2,7.2,10.5,7.3,10.1c0.4-1.5,0.1-2.9-0.6-4.2c-0.3-3.2-0.5-6.4-0.4-9.7
					c0.1-3,2.8-9.7,3-10.3c2.3,2.3,5,4.4,5.6,8.3c0.3,0.6-0.6-7.7,2.2-17.1c0.8-2.6,2.2-5.9,2-8.9c4.3,3.7,9.6,9.7,11.9,17.1
					c4.1,13.3,1.4,21.1,1,25c-0.1,0.5,0.7,0.6,0.9,0.2c1-1.8,1.7-3.8,2.1-5.9c2.2-3.4,2.4-7.9,5-11.1c0.6,5.5,4,10.3,5.8,15.6
					c2.4,7.2,2,14.6,0.2,21.9c-2.9,11.3-10.2,24.2-9.3,36c0,0,9-12.6,20.4-16.8c0.1,0.1,1,6.4-1.7,12.3c-1.3,2.8-5.7,8.6-6.1,8.9
					c-0.1,0.1,0,0.3,0.1,0.3c3.4-0.4,6.6-1.1,10-1.3c2.2-0.1,4.3-0.2,6.3-0.9c-2.3,4.3-4.3,11.8-7.5,16.8c-2.1,3.3-5.6,4.7-8,7.6
					c-1.5,1.9-3.2,6.4-3.2,6.4l0,0l0,0c-0.1,0.5,0.6,0.8,0.8,0.3c0.2-0.3,7.2-5.7,14.3-5.4c0.1,0.1,0.2,0.1,0.3,0.1
					c-2.1,0.2-4.7,13.7-5.5,15.4c-3.2,6.9-7.6,10.7-12.8,14c-0.2,0.1,6.7-0.2,12.9-4.1c0,0-0.9,10.3-6.7,19.3
					c-3.1,4.8-12.9,13.2-13.6,13.9c-0.2,0.2,0,0.7,0.3,0.5c2.5-0.9,4.7-2.3,7.2-2.9c3-0.8,6-0.9,9.1-0.6
					c-3.7,19.9-33.9,25.5-34.5,26c-0.1,0.1-0.1,0.3,0,0.3c1.5,0.8,3.3,1,4.9,1.9c1.5,0.9,2.4,2.3,3.3,3.7
					c-4.8,3.1-11.8,2.9-17.4,3.8c-0.4-0.1-0.8-0.2-1.2-0.1c-0.5,0.1-0.4,0.8,0,0.9c0.3,0.1,0.7,0.3,1,0.4c0.6,0.6,1.2,1,1.8,1.5
					c0.3,0.3,0.5,0.5,0.7,0.8c0.5,0.8,0.6,1.7,0.7,2.7c-4-3.4-11.5,1.1-15.9,1.5c-4.6,0.4-8.2-0.8-12.4-2.4c-2.6-1-4.6-1.8-7.3-0.9
					l0,0c-0.1,0-0.1-0.1-0.2-0.1c-0.3-0.2-0.6,0.2-0.4,0.4c1.4,2,3.6,3.1,5.7,4.3c2.2,1.3,4.1,2.8,5.4,4.9c-2.3-0.6-5.4,0.3-7.5,0.6
					c-7.4,1.1-17.8,3.1-23.5-3.4c-0.2-0.3-0.6-0.1-0.7,0.1l-0.1,0.1c-1.2,4.5,1.7,9.6,3.7,13.6c-3.3-0.9-6.8-1.2-10.2-1.5
					c-5-0.5-10.3-1.2-13.4-5.5c-3.4-4.6-2.5-10.2-0.8-15.2c0-0.1-0.1-0.2-0.2-0.1c-1.7,1.8-2.8,3.9-3.4,6.2
					c-3.8,1.3-6.4,4.4-8.8,7.8c-0.8-2.4-2-4.7-3.6-6.8c-2.8-3.6-5.1-6.6-6.6-10.4c-3.7,11.9-11.3,12.9-18.6,13.6
					c3.8-7.6,2.6-16.7,6.4-24.4c0.1-0.1-0.1-0.3-0.2-0.2c-1.7,1.5-2.8,3.3-3.6,5.3c-2.2,2.1-4.8,3.6-7.9,4.8c-3.2,1.2-6.2,2-8.6,4.2
					C4,408.7,4,405,4.7,401.2c0.1-0.4-0.3-0.8-0.7-0.5c-4.1,2.1-6.9,5.2-9.2,9.1c-4.2-2.3-7.6-5.1-10.8-8.4c-1.4-3-3.8-5.5-6.7-7.2
					c-0.2-0.1-0.5,0.2-0.3,0.4c8.7,7.9,7.6,17.9-1.5,24.2c-0.2-4.2-2.1-7.8-4.6-11.2c-1.6-2.1-3.4-3.9-5.1-6c-1-1.2-1.7-2.6-2.4-3.9
					c-0.3-2.9-1.4-5.8-3-8.7c-0.1-0.2-0.6-0.1-0.5,0.2c2.5,6.1,3.6,12.3-1.3,17.7c-3.3,3.6-7.9,5.7-12.5,7.2
					c-1.2,0.4-9.9,3.7-11,2.8c0.4,0.3,2-6,2-6.6c0.4-5.2-1.5-14.1,7.2-18.4c-5.8-0.4-13.1,9-17.9,10.6c-5,1.7-11.4,1.1-15.2-2.8
					c1.5-1.1,3.4-2.6,4.2-3.2c1.9-1.6,3.7-3,5.9-4.1c0.3-0.1,0.1-0.6-0.2-0.6c-1.1,0.1-2,0.4-2.9,0.9c-4.8-0.9-9.6-1-14.4-2.1
					c-0.9-0.2-12.3-2.4-13.1-3.6c1.6-2,3-4.5,5.1-6c2.6-1.8,6-1.9,8.9-3c0.3-0.1,0.3-0.7-0.1-0.7c-2.3,0-4.9,0.2-7.2,1
					c-4.7-0.3-9.2-1.6-13.2-4.1c-2.9-1.8-5-5-8.1-6.3c1.6-0.3,2.3-1.8,3.5-2.9c2.5-2.5,5.2-3.3,8.6-3.2c0.5,0,0.7-0.7,0.3-0.9
					c-0.1-0.1-0.2-0.1-0.4-0.2c0-0.1,0-0.2-0.1-0.3c-0.6-0.6-1.5-0.9-2.2-1.5c-0.7-0.7-1-1.7-1.6-2.5c0-0.2-0.2-0.5-0.5-0.4
					c-7.3,1.4-13.2-1.4-19.1-5.4c-2.8-1.9-5.3-5.5-8.6-6.4c1.1-0.3,1.7-1.6,2.5-2.3c1.6-1.6,4.2-3.6,6.6-3.3
					c1.8,0.7,3.7,1.1,5.6,1.2c0.4,0,0.5-0.6,0.1-0.7c-3.7-1.5-7.4-2.6-10.6-5.1c-3.9-3.1-5.3-7-6.9-11.6c-0.9-2.5-2.4-8.1-5.4-9.1
					c5.6-1,8.9,1.4,13.7,4.2c1.9,1.1,4.7,2.6,6.9,2c0.2-0.1,0.4-0.3,0.4-0.5c0.1-1-0.4-1.4-0.9-2c0.9,0.3,1.8,0.4,2.8,0.4
					c0.5,0,0.6-0.7,0.1-0.8c-4.3-1.3-7.4-4.7-8.7-9c-1-3.4-1.6-5.7-0.3-9.7c0.6,0.2,1.2,0.3,1.8,0.4c0.8,0.1,1.1-1.2,0.4-1.5
					c-7.3-3.5-13.6-10.6-16.7-18.1c-2.1-5-1.3-10-0.2-15.1c0.6-2.7,1.8-5.4,0.8-8.1c-0.1-0.2-0.3-0.2-0.3,0c-0.6,5.2-3.5,9.9-4,15.2
					c-0.4,4.4,0.7,8.3,3,12c3,5.1,8,12.5,14.2,14.8c-3.9,5.7,0.1,16.5,6.5,19.2c0.3,0.4,1,1.5,0.9,1.7c-0.3,0.5-4.2-1.6-4.6-1.8
					c-2.6-1.4-4.9-3.2-7.6-4.4c-3-1.3-7-1.8-9.3,1c-0.1,0.1,0,0.2,0.1,0.2s0.1,0,0.2,0c3.6,2.5,4.5,8.6,6,12.5
					c0.9,2.4,1.9,4.6,3.6,6.5c1.8,2.1,4,3.8,6.5,5.1c-1.5,0.5-2.9,1.6-4,2.4c-0.7,0.5-1.2,1.1-1.8,1.8c-0.6,0.7-1.4,1.4-1.8,2.2
					c0,0,0,0,0,0.1c-0.3-0.1-0.6,0.4-0.2,0.6c2.4,1.5,4,4,6.1,5.7c2.4,2,5.2,3.8,8,5.2c4.4,2.2,9.4,3.2,14,1.4
					c0.2,1.1,0.8,2.2,1.5,2.9c0.2,0.2,0.4,0.4,0.7,0.6c-1.3,0.2-2.6,0.9-3.6,1.5c-1.1,0.7-2.1,1.5-2.9,2.4c-1.1,1.2-1.8,2.6-3.3,3.4
					c-0.1,0-0.2,0.2-0.1,0.3c5.6,6.7,11.9,11.1,20.5,11c-0.5,0.2-1,0.5-1.5,0.8c-2.5,1.8-3.8,4.5-4.4,7.4v0.1l-0.1,0.1
					c-0.1,0.1-0.1,0.2-0.1,0.3c0.6,1.4,0.3,0.7,2,1.5c2.4,1.1,5.9,2,8.5,2.8c5,1.5,10.9,2.5,16.2,1.8c-0.2,0.2-6.7,5.8-6.8,5.8
					c2.3,4.4,8.8,5.8,13.4,5.2c5.6-0.7,9.3-4.1,13.2-7.2c-0.2,0.4-0.4,0.8-0.6,1.3c-2.2,6.2,1.3,13-2.7,18.7
					c-0.3,0.4,0.2,0.8,0.6,0.7c8.8-1.3,18.8-2.7,25.3-9.4c2.5-2.6,3.8-5.4,4-8.3c3.3,6.7,9.1,12,10.5,19.9c0.1,0.5,0.7,0.7,1.1,0.4
					c4.6-2.9,9.3-6.5,10-12.2c0.2-1.2,0.1-2.4-0.1-3.5c2.7,3,6,5.4,9.6,7.2c0.5,0.2,1.1,0.2,1.4-0.4c1.1-2.2,3.8-6.4,7-8.9
					c0,0.1-0.6,4.1-0.5,5.8c0.1,2.1,0.5,3.9,1.1,5.9c0.2,0.6,1,0.9,1.4,0.4c3.9-4.4,10.6-4.5,15.2-8c0.1-0.1,0.1-0.1,0.2-0.2
					c-1.5,5.7-1.6,12.1-4.7,17c-0.5,0.8,0.1,1.7,1,1.7c6.3-0.3,13.1-1.2,17.6-6.2c1.5-1.7,2.5-3.8,3-5.9c0.5,1.2,1.2,2.4,2,3.6
					c2.9,4.1,5.7,7.1,7.1,12.1c0.2,0.8,1.3,0.9,1.8,0.2c2.3-3.5,4.7-6.6,8-8.8c-0.5,4.3,1,8.8,4.8,11.8c3.3,2.7,7.5,2.9,11.6,3.2
					c5,0.3,9.5,0.5,13.9,2.1c-0.1-0.4-0.1-0.7-0.2-1.1l0,0c-0.2-2.2-1.8-5.2-2.9-7.1c-0.8-1.5-1.5-3-1.7-4.6
					c-0.1-0.6-0.1-1.3-0.1-1.9c2.5,3.5,6.1,4.6,10.5,5c3.1,0.2,6.1-0.1,9.2-0.5c3.6-0.5,9.7-2.7,13-1c0.4,0.2,0.9-0.2,0.7-0.7
					c-0.1-0.2-0.3-0.5-0.5-0.6c-1.3-5.8-7.1-7.6-11.7-10.3c5.5,0.9,10,4.5,15.6,4.7c2.4,0.1,4.8-0.4,7.2-1c3.9-1,8.7-4,12.4-1.1
					c0.4,0.3,0.8-0.3,0.5-0.6c0.4-1,0.3-2.1-0.1-3.2c-0.1-0.6-0.4-1.2-1-1.8c-0.2-0.2-0.4-0.3-0.6-0.5c-0.3-0.3-0.6-0.6-0.9-0.8
					c3.4,0.1,6.9-0.5,10.3-1.2c2.5-0.5,5.7-0.8,7.2-3.1c0.2-0.2,0-0.5-0.2-0.7c0.1-1.5-1.7-3.5-2.7-4.2c-0.6-0.4-1.3-0.9-2.2-1.2
					c7.6-2.5,16.2-6.5,22.6-11.4c9.3-7.3,9.6-15.6,9-15.7c-4.1-0.6-9.6-0.5-13.8,1.2c9.9-6.4,17.9-20.2,17-32.6c0-0.2-4,3.1-9.6,4.5
					c3.6-2.3,6.7-5.7,8.6-9.4c1.4-2.7,2.2-5.6,3.1-8.4c0.9-3.2,2.6-6.6,3.2-9.8c0-0.2-3.6-3-14,2.5c1.4-2.4,2.9-4.3,5.6-6.4
					c2-1.5,3.5-2.8,4.8-5.1C187.6,305.3,192.3,291.6,191.7,291.8z"/>
			</g>
			<g transform="matrix(1,0,0,1,0,0)">
				<g transform="matrix(1,0,0,1,0,0)">
					<path class="st1" d="M221.3,290.6c0.6,1.9,9.5,9.4,9.9,10c0.3,0.3,0.8,0,0.7-0.4c-1.1-3.9-3.5-7.7-5.9-10.9
						c-1.5-2-2.6-4.1-3.1-6.5c-0.2-1-0.4-2-0.5-3.1c1.2,3.1,2.1,6,4.4,9.1c2.9,3.8,5.7,7.5,6.6,12.3c0.4,1.9,2.3,1.1,2.4,0.8
						c1.7-5.6,4.8-9.1,5.2-9.5c-1.5,2.9-2.9,5.8-3.8,9c-0.2,0.6,0.6,1.1,1.1,0.6c2.2-2.5,5.2-4.5,6.8-7.6c1.6-3.2,0.9-6.7,0.4-10.2
						c-0.1-0.6-0.4-0.7-1-0.4c-2.6,1.8-4.6,2.7-6.6,5.3c-2,2.6-1.6,5-2.2,6.9c-0.1-2.5-0.6-5-1.8-7.3c-2.5-5-8.1-12.7-12.3-16.5
						c-0.2-0.2-0.6-0.2-0.9-0.2c-0.5,0.1-0.9,0.4-1,0.6C219.7,273.7,217.6,286.3,221.3,290.6z"/>
				</g>
				<g transform="matrix(1,0,0,1,0,0)">
					<path d="M245,282.7c-3,2.6-7,4.4-8.8,8.1c-0.2,0.4-0.3,0.8-0.5,1.2c-2-10.2-14.4-21.3-15.7-20.6c-0.4,0.2-3.5,14.8-0.4,19.5
						c2.9,4.5,8.6,8.3,12.9,11.3c0.1,0.1,0.2-0.1,0.2-0.2c-2.1-3.8-5.6-4.9-9.3-9.1c-6-6.7-2.5-20.1-2.5-20.1
						c0.7,0.4,6.1,5.9,7.8,8.3c2.7,3.8,5.5,8.2,6.4,12.8c-0.3,1.6-0.3,3.3,0,4.9c0,0.1,0.2,0.1,0.2,0c0.9-3.6,0.4-7.2,3.3-10.1
						c1-1,2.7-2.2,3.9-3.1c2.4-1.8,2.4-2.4,2.7,1c0.4,4-0.1,7.5-3,10.6c-1.8,2-4.3,3.4-6.1,5.4c-0.3,0.3,0.1,0.9,0.5,0.6
						c3.2-2.3,7.3-4.7,9.1-8.4c1.8-3.8,1-8.2-0.1-12.1C245.6,282.5,245.2,282.5,245,282.7z"/>
				</g>
			</g>
			<g transform="matrix(1,0,0,1,0,0)">
				<g transform="matrix(1,0,0,1,0,0)">
					<path class="st1" d="M270.4,410.8c-0.3,1.6,0.4,5.4,0.5,5.2c1.6-2.6,3.3-14,4.3-16.2c-0.3,1.5,0.4,6.7-1,11.1
						c-2.1,6.8-3.2,8.9-2.2,8.9c0.4,0,2.6-2.1,10.2-8.3c7.3-5.9,0.8-28.5,0.4-28.2C269.4,393.8,270.7,409,270.4,410.8z M261.5,443.1
						c0,0.6,4.6-4.7,5.3-13.9c1.2-14.2-7.1-21.8-7.1-20.8c0.1,3.5-2.5,15.4-3.2,17.3c-2.9,8,4.4,17,4.4,16.5
						c-0.5-3.9-0.9-8.3-0.8-12.3c0-2.1,1.1-7,1.2-7.4C261.1,424.8,261.2,438.5,261.5,443.1z M266,435.1c-0.1,0.3-0.6,3.2,1.7,0.7
						c2.7-2.9,5.1-3.6,8.1-4.5c-1.4,0.8-11.5,12.1-11,12.1c19.1,2.5,23.1-17.3,26-20.3C291.5,422.4,270.9,424.7,266,435.1z"/>
				</g>
				<g transform="matrix(1,0,0,1,0,0)">
					<path d="M283.4,382.1c-0.9,0.3-6.9,4.5-10.9,13.2c-2.8,6.1-2.7,13.5-3.1,20.1c0,0.1,0.2,0.1,0.2,0c2-5.6,0.9-11.8,3.1-17.5
						c3.4-8.8,9.6-14,9.7-13.7c0.1,1.5,0.7,5.7,1.1,7.5c0.8,4.5,2.3,9,1.1,13.7c-1.1,4.6-4,7.3-7.7,9.7c-2.1,1.4-3.8,2.3-5,4.7
						c0,0.1,0,0.1,0.1,0.1c5.8-4.9,12.8-7,14.2-15.5c0.6-3.8-0.2-7.6-1.1-11.3C283.8,387.6,283.4,382.1,283.4,382.1z M267.1,432
						c0.5-2.8,0.6-5.6,0.4-8.3c-0.4-4.3-3.7-13.7-8.4-17.1c-0.1-0.4,0,5.2-0.6,7.4c-1.3,4.9-4,10.9-3.9,15.9
						c0.1,4.3,3.5,9.4,5.8,12.7h0.1c-0.6-2.1-5.6-9.5-3.4-17.8c0.7-2.6,3.3-11.6,3.1-15.4c0.1,0,4.1,6.9,4.4,8
						c1,2.8,1.5,5.8,1.6,8.7c0.3,6.3-1.7,11.5-4.4,17c-0.1,0.3,0.2,0.5,0.4,0.2c2-2.7,3.5-6,4.3-9.4c5.4-6.6,22.9-10.4,23-10.3
						c-2.7,4.9-5.2,10.6-9,14.6c-4.5,4.8-10.5,3.8-16.3,5.1c-0.1,0-0.1,0.2,0,0.2c5.1,0.8,10.8,0.8,15-2.6
						c5.4-4.2,9.3-13.2,12.7-18.9C292.3,421.8,275.6,422.6,267.1,432z"/>
				</g>
			</g>
			<g transform="matrix(1,0,0,1,0,0)">
				<g transform="matrix(1,0,0,1,0,0)">
					<path class="st1" d="M133.6,408.9c-0.5,1.3-1.3,3.8-1.3,5.2c0,0,7.4-6.7,8.5-13.7c1.1-7.7-4.5-16.4-4.6-16.5
						c0,0-6.2,11.7-6.7,14c-1.7,8.1,1.8,14.8,1.8,14.8c0.9-1.5,4-14.4,4.3-16.1C135.7,397.2,135.9,402.9,133.6,408.9z M124.3,396.9
						c0.1,0.8,0.1,1.7,0.2,2.5c0,0.4,0.6,0.5,0.7,0.1c2.1-6.4,0.5-13.1-1.1-19.4c-2.6-9.7-13.1-16.2-13.1-16.2
						c-0.2-0.4-0.9,17.3,1.1,22.9c2.1,6,9.9,10.8,10.8,11.3c0.4,0.2,1-0.2,0.7-0.6c-5.7-8-8-21.3-8-21.9
						C115.7,376.2,121.4,391.9,124.3,396.9z M122,410.7L122,410.7c2,1.1,4,1.7,5.3,0.6c0.1-0.1,0.1-0.4-0.1-0.4h-0.1
						c-0.3-1.3-0.9-2.5-1.8-3.4v-0.1c-0.4-2.2-1.7-3.7-3.4-4.9c-0.8-1.6-2.8-2.9-4.1-3.8c-1-0.7-2.2-1.3-3.5-1.7
						c-0.1-0.1-0.2-0.2-0.3-0.3c-0.3-0.2-0.7-0.2-1.1-0.3c-0.3-0.1-0.6-0.1-0.8-0.1c-0.3-0.4-0.6-0.7-0.9-1.1l0,0
						c-0.2-0.2-0.4-0.2-0.6-0.2c-0.1-0.1-0.2-0.3-0.2-0.4c-0.3-0.6-1.3-0.5-1.5,0.2c-0.2,0.8-0.1,1.7,0.8,2.1l0,0
						c-1,3,0.7,6,2.8,8.2c1.4,1.4,3.2,2.2,5,3.3C118.8,409.1,120.3,410.7,122,410.7z M112.5,400c1.3,1.5,2.9,2.8,4.5,3.8
						c0.4,0.3,0.8,0.5,1.3,0.8c0.9,0.7,2,1.4,2.8,2.1c0.3,0.2,0.5,0.5,0.8,0.8c0.6,0.7,1.1,1.3,1.4,1.8c-1.9-1.1-3.7-2.6-5.3-3.8
						C115.7,403.8,113.9,402.1,112.5,400z"/>
				</g>
				<g transform="matrix(1,0,0,1,0,0)">
					<path d="M130.8,413.8c0.3,0.7,1.4,0.1,1-0.6c-3.4-6.4-3.3-13.5,0-20c1.6-3.2,3.8-5.9,4.2-9.4c3.7,5.2,7.4,10.1,5.6,17
						c-1.6,6.1-6,9.7-10.5,13.6c-0.3,0.3,0.1,0.7,0.4,0.5c5.9-3.2,10.9-9.4,11.7-16.2c0.6-5.3-1.9-13.2-7.1-15.6
						c-0.1-0.1-0.2-0.2-0.3-0.2l0,0h-0.1c0,0,0,0-0.1,0l0,0c0,0-0.1,0-0.1,0.1c-2.3,5.3-6.2,9.9-7,15.8
						C127.8,403.8,128.9,409.3,130.8,413.8z M124.5,379.6c1.7,6.7,2.1,13.2,0.1,19.9c-2.6-4.5-8.1-5.3-10.8-11.8
						c-3.1-7.5-1.8-15.6-3-23.4c3.1,2.8,6.8,4.8,8.9,8.7c2.2,4.1,2.8,8.5,4.1,12.9c0.1,0.4,0.8,0.4,0.8-0.1
						c-0.3-10.3-5.1-17.3-13.9-22.3l0,0c0,0,0,0-0.1,0c-0.2-0.1-0.5,0.2-0.3,0.4l0.1,0.1c-0.7,4.2-0.4,8.6-0.5,12.9
						c-0.1,3.5-0.1,7.1,1.2,10.3c2.7,6.6,9.6,10.2,13.9,14.4c0.2,0.2,0.6,0,0.5-0.3c-0.1-0.4-0.3-0.8-0.5-1.1c3-6.6,4.1-14.3,0-20.7
						C124.8,379.2,124.4,379.3,124.5,379.6z M127.7,411.2c-2.7,0-5.3-0.3-7.6-1.6c-1.7-1-3.1-2.3-4.8-3.3c-4.5-2.7-6-6.7-5.8-11.6
						c0.2,0.3,0.5,0.5,1,0.8c1.9,1.2,4,1.9,5.9,3.1c4.3,2.9,6.9,6.4,10,10.5c0.2,0.2,0.6,0.1,0.5-0.2c-1.2-3.6-3.9-6.8-6.8-9.2
						c-1.3-1.1-2.8-2.1-4.4-3c-1.5-0.8-5.3-1.7-6.2-3c-0.1-0.1-0.1-0.1-0.2,0c-0.1,0-0.3,0-0.3,0.2c-1.7,4.3,0.4,9.6,3.9,12.3
						c1.1,0.8,2.3,1.4,3.4,2.2c1.2,0.9,2.2,2.1,3.5,2.9c2.5,1.3,5.1,1.1,7.8,0.9C128.3,412,128.3,411.2,127.7,411.2z"/>
				</g>
			</g>
			<g transform="matrix(1,0,0,1,0,0)">
				<g transform="matrix(1,0,0,1,0,0)">
					<path class="st1" d="M92.8,435.6c-0.3,0.1-6,8.6-5,15.4c1.2,8.2,7.3,14.8,7.3,15.1c-0.1,3.7,5.5-7,5.6-9
						C101.8,444.2,92.8,435.4,92.8,435.6z M93.8,447.6c0.5,2,0.9,3.5,0.9,5.6c0.1,3.2-0.7,7.4,0,10.6
						C92.7,458.7,94.4,453,93.8,447.6z M82.5,441.7c0.5-0.9,11.2-18.6-3.4-31.9c0-0.6-3.9,7.1-3.4,16.6c0.1,2.5,1.2,7.7,2.1,10.1
						c0.9,2.5,3,8.3,3,8.5c0,0.1,0.2,0.1,0.2,0c1.5-7.6-0.2-21.3-0.2-22.3c0.4,1.2,3.4,10.6,1.2,20.5
						C81.9,443.3,82.4,441.9,82.5,441.7z M77.2,444.9c0.4,0-0.1-5.8-7-12.8c-5.2-5.2-14.7-9.6-16.7-10.3c0,0-0.9,0.4-0.5,1.3
						c0.3,0.7,3,11.8,6,15.1C62.7,442.4,76.8,444.9,77.2,444.9z M59.4,430.7c0.1,0.1,0.3,0.3,0.4,0.4c1.6,1.7,9.4,8.6,11.7,10.4
						C63.5,438.5,60,431.6,59.4,430.7z M67.9,450.8c-0.2-0.1,0.7,5.7,4.5,9.1c2.2,1.9,9.1,4.1,13.2,4.6c0.4,0,3.5,0.2,3.3-0.3
						C86,455.9,72.4,452.8,67.9,450.8z M78.2,460.2c-1.6-0.8-3-1.8-4.2-3c1,0.6,6.9,2.9,8.7,4c0.9,0.5,1.7,1.2,2.5,1.8
						C82.8,462.1,80.4,461.3,78.2,460.2z M71.3,423.1c0.4,0.1-0.9-8.9-0.9-11.7c0-4.8-4.7-21.4-13.5-22.3c-0.7-0.1,0.7,6.1,0.6,8.5
						C57.4,403.8,54.6,416.5,71.3,423.1z M69.1,420.3c-2.7-3.7-5.2-7.1-6.3-11.6c-1-4.2-1.2-8.6-1.9-12.9c0.2,0.6,1.5,8.9,3,13.7
						C65.4,414.4,69.1,420.3,69.1,420.3z"/>
				</g>
				<g transform="matrix(1,0,0,1,0,0)">
					<path d="M56.4,390c-0.1,6.9,0.1,15.1,1.8,21.8c1.3,5.5,5.6,7.8,10.3,10.3c0.2,0.1,0.4-0.1,0.2-0.3c-1.3-1.3-2.7-2.3-4.2-3.5
						c-4-3.1-5.5-6.1-6.1-11.1c-0.7-5.7,0.3-11.8-1.6-17.3C56.7,389.7,56.4,389.7,56.4,390z M56.6,388.7c-0.1,0.1,0,0.2,0.1,0.2
						c6.4,0.3,12.5,10.9,14,16.4c1.6,5.8-1,11.8,0.5,17.6c0.1,0.5,0.8,0.4,0.9-0.1c0-4.8,1.4-9.9,0.9-14.7c-0.4-3.6-2.1-7-3.9-10
						C67.4,395.3,60.4,385.1,56.6,388.7z M74.8,427.7c0.7,6.2,2.9,12.1,5.3,17.8c0.2,0.4,0.8,0.1,0.7-0.3c-1.5-5.6-3.7-11-4.5-16.8
						c-1-6.6,0.7-12.2,2.5-18.4c4.5,4,7.2,9.9,7.5,15.9c0.3,6.1-2.8,10.9-4.3,16.6c0,0.1,0.1,0.2,0.2,0.1c4.6-7.6,6.8-16.7,4-24.4
						c-1.3-3.7-3.8-7.1-7.8-9.8C78.4,408.5,73.8,418.3,74.8,427.7z M51.3,421.3c0,0,1.8,4.4,5.3,14.8c0.9,2.7,5,5.8,8.6,6.6
						c3.9,0.9,8.3,0.8,11.9,2.6c0.4,0.2,0.5-0.5,0.1-0.9c-1.6-1.4-2.4-1.3-4.5-1.6c-4.6-0.5-9.7-1.7-13-5.2c-4-4.1-3-10.6-6.4-14.9
						c1,0.4,10.5,4.7,12.9,6.6c4.6,3.7,8,9,11,14c0.3,0.4,1,0.1,0.8-0.3C72.5,426.8,53.8,421.8,51.3,421.3z M101.5,452
						c-0.4-5.8-4.9-12.2-8.3-16.7c-0.2-0.2-0.4-0.2-0.6-0.1h-0.1c-3.2,5-6.5,9.8-5.7,16c0.8,6.1,4.4,11.6,8.3,16.2
						c0.2,0.3,0.7,0,0.6-0.3C98.9,462.1,101.9,458.4,101.5,452z M100.1,456c-0.7,4.1-4.1,6.9-4.6,10.8c-3.1-5-6.7-9.7-7.4-15.7
						c-0.5-3.7,0.2-7,2.1-10.3c0.9-1.7,1.9-3,2.4-4.9C96.7,441.2,101.2,449.2,100.1,456z M67,450.2c1.1,12.7,12,14.7,22.7,15
						c0.3,0,0.3-0.4,0.1-0.5c-4.1-1.6-8.7-1.4-12.8-2.8c-5.5-1.8-7.1-5.8-8.7-10.7c2.4,1.9,5.6,2.2,8.5,3.3c4.8,1.9,8.2,5,11.6,8.8
						c0.4,0.4,1-0.1,0.8-0.6c-1.9-3.3-5-6.1-8.3-8c-4.1-2.4-9-2.3-13-4.7C67.5,449.7,67,449.7,67,450.2z"/>
				</g>
			</g>
		</g>
	</g>
</g>
</svg>
