<?xml version="1.0" encoding="utf-8"?>
<!-- Generator: Adobe Illustrator 27.1.1, SVG Export Plug-In . SVG Version: 6.00 Build 0)  -->
<svg version="1.1" id="Слой_1" xmlns="http://www.w3.org/2000/svg" xmlns:xlink="http://www.w3.org/1999/xlink" x="0px" y="0px"
	 viewBox="0 0 512 535.1" style="enable-background:new 0 0 512 535.1;" xml:space="preserve">
<style type="text/css">
	.st0{fill:#525D50;}
	.st1{fill:#5A7A53;}
	.st2{fill:#3B4938;}
	.st3{fill:#1B2319;}
</style>
<g id="Слой_9">
	<g id="Слой_5__x28_копия_x29_">
		
			<g transform="matrix(0.9377821087837219,-0.1518707573413849,0.15657874941825867,0.9668533205986023,-5.39697265625,56.232879638671875)">
			<g transform="matrix(1,0,0,1,0,0)">
				<g transform="matrix(1,0,0,1,211.37600708007812,159.11099243164062)">
					<path class="st0" d="M306.9,98.8c-1.6-1.9-2.9-2.9-2.9-2.9l-7,11c0,0-1-3,0-9s-1-15-1-15c-1,4-8,9-10,10s-7,13-7,13s0-2,0-4
						c0-2-4-13-4-12s-8,13-9,15s1,15,1,15s-7-8-8-8s-2,10-2,15c0,5-4,12-4,12c1-5-6-19-6-19s-12,7-15,9s-9,11-9,11v-5c0,0-8,6-16,10
						s-10,16-10,16c-3-2-4-13-4-13c-15,7-11,33-11,33c-6-1-4-12-4-12c-6,2-9,17-9,17s-0.3-7.6-2-12c-0.7-1.9-9.9-15.6-10-17
						c-0.3-4.1-1.8-9.4-1.8-9.4c-11,8-12.2,24.5-12.2,24.5s-0.6-3-1-5c-0.8-4.2-2.9-7-2.9-7s-5.8,9.1-8.1,13
						c-4.3,7.3-2.2,14.8-2.2,14.8L124,181c0,0-2,12-7,18c-5,6-7,18-7,18s-3-7-4-9s-2-10-2-10s-5,14-7,25c-2,11,7.5,16.8,7.5,16.8
						S98,238,96,235c-2-3-9-5-9-5c1,4-3,18-3,18c2,13,17,24,17,24c-3,14,6,19,6,19s2,3,1,3s-5-2-11-5c-6-3-8,0-8,0l10,13l11,6l8,14
						l10,9c0,0,1,11,0,12c-1,1,15,8,15,8s0,7,11,7s43-2,49,0s14.2,9.8,18.2,13.8s6.3,5.3,28.3,4.3c4.2-0.2,7.8-0.1,11.1,0.2
						L306.9,98.8z"/>
				</g>
				<g transform="matrix(1,0,0,1,84.18900299072266,135.99899291992188)">
					<path class="st1" d="M398.5,174.9c0,0-1.2-2.3-1.5-4.1c-0.4-3,0.3-5.6,0.3-8.2c0.2,1.1,0.3,2.2,0.5,3.3
						c0.3,2.4,0.5,5.5,2.4,7.3c0.1,0.1,0.3,0,0.3-0.2c-0.1-0.4,2.7-11.2,2.1-14.6c-1-5.9-10.7-10.8-10.5-10.2
						C393.8,155.1,390.7,173.2,398.5,174.9z"/>
					<path class="st1" d="M358.6,185.9c1.4-4.1,7.4-11.6,3.9-15.9c-0.4-0.5-1.2-0.2-1.4,0.4c-0.1,0.4-0.2,0.8-0.3,1.2
						c-1.4,1.4-3.2,2.2-4.5,3.9s-2,3.6-1.9,5.8c0,0.3,0.2,0.4,0.5,0.4c0,0.6,0,1.2,0.1,1.8c0,0.2,0.3,0.1,0.3,0
						c0.8-2.5,1.7-4.6,3.3-6.6c-0.2,0.4-0.4,0.8-0.5,1.3c-0.7,2.4-0.4,5-1.3,7.4C356.3,186.6,358.2,187.1,358.6,185.9z"/>
					<path class="st1" d="M368.3,179.3c-3.3,1.9-8.3,5.5-8.9,9.6c0,0.2,0.2,0.4,0.4,0.3c1.9-1.1,3.5-3.2,5.2-4.7
						c2-1.8,4.4-3.3,6.8-4.3c1.1-0.5,2.4-0.9,3.7-1.4c-1.7,1.3-3.4,2.5-5.2,3.7c-1.8,1.2-3.8,2.1-5.6,3.4c-1,0.7-1.8,1.7-2.6,2.8
						c-0.1,0-0.1,0.1-0.2,0.1c-0.6,0.4-1.6,1-1.7,1.7c-0.1,0.3,0.2,0.6,0.5,0.6c0.2,0.3,0.5,0.4,0.8,0.1c0.6-0.7,1.3-1.3,2.1-1.8
						c1.6-0.7,3.3-1.1,5.1-1.6c2.6-0.8,5.1-2.1,7.4-3.5c2.7-1.8,8.4-6.2,7.3-10.1c0.4-0.5,0.7-1.1,0.9-1.7c0.4-1.1-1.2-2.1-2-1.2
						c-2,2.4-3.8,3.9-6.7,5.1C373,177.2,370.6,178,368.3,179.3z"/>
					<path class="st1" d="M406.2,150.3c0.6-0.1,0.8-0.8,0.5-1.3c-7.9-11.9-3.2-21.3-2.8-19.7c0.5,2.1,0.3,4.4,0.8,6.5
						c0.1,0.3,0.6,0.4,0.8,0.1c3.3-6.2-2.9-21.4-3.3-21c-1.2,1.3-6.5,8.2-7.5,9.6c-2,2.8-1.9,6.4-1.5,9.9
						C394.5,143.9,404.9,150.7,406.2,150.3z"/>
					<path class="st1" d="M381.7,159.1c-0.3,1,1,1.4,1.6,0.7c2.5-3.2,5.2-11.3,6.1-14.4c0.1-0.4,0.6-0.6,0.9-0.5
						c5.7,2.4,9.6,7.4,9.6,6.9c0-1.1-9.1-13.8-13.8-17.5c-0.7-0.6-0.7,1.3-0.6,2.3C386,142.5,382.2,157.4,381.7,159.1z"/>
					<path class="st1" d="M309.8,201.4c-0.6,0.9-1.1,1.9-1.3,3c-0.1,0.3,0.4,0.5,0.5,0.2c0.6-1.1,1.3-2.1,2-3.2
						c0.6-0.1,1.2-0.5,1.4-1.3c0.2-0.5,0.3-1,0.5-1.5c1.7-2.6,3.3-5.2,4.3-8.2c0.6-2.1,1.2-4.3,1.6-6.5c0.1,0.2,0.2,0.4,0.4,0.6
						c0.4,0.5,0.8,1,1.4,1.4c1.4,1.2,3.2,2.1,4.7,2.6c0.3,0.1,0.7-0.1,0.8-0.5c0.5-1.7,1.3-3.2,2.3-4.6c3.1-3.6,7-6.6,10.7-9.6
						c2.4-1.9,4.9-3.8,7.1-5.9c0.6-0.5,1.3-1.2,1.9-1.9c0.2,0.6,0.7,4.3,0.7,5.5c0,0.6,12.7-8.4,15.1-10.2c3.4-2.5,6.6-5.2,9.1-8.6
						c2.4,3,4.3,6.7,3.7,11.7c-0.2,1.4,0.6,1.7,1.1,1.4c5.1-4.6-0.2-15.1-0.9-17.7c-0.4-1.5-1.1-4.6-2.9-4.3
						c-1.9,0.2-14.3,8.4-17.2,11.2c-1.7,1.7-3.3,3.4-4.9,5.1c-0.8,0.9-1.6,1.7-2.1,2.6c0-0.4,0-0.7-0.1-1.1l0,0
						c0.2-0.1,0.4-0.3,0.5-0.4c0.7-0.6-1-1.5-1-1.5c-0.2-0.1-0.5,0-0.6,0.2c-3,1-6,3.1-8.6,4.8c-2.8,1.7-5.5,3.7-7.9,6
						c-3.4,3.2-8,8.5-7.8,13.6c-0.3-0.5-1-0.5-1.4-0.2l0,0c-1.5-2.1-2.3-4.2-3.2-6.6c0.2-1.5,0.3-3,0.5-4.5c0.1-1-1.2-1.2-1.7-0.6
						c-0.3-0.1-0.6,0-0.9,0.3c-3.2,3.2-4.8,8.1-6,12.4c-1.4,4.7-2.9,9.9-2.9,14.8C308.8,200.6,309.2,201.2,309.8,201.4z"/>
					<path class="st1" d="M344.8,200.3c1.1,2.3,3.3-0.8,4-1.9c4.3-6.6,2.7-15.3-2.8-20.7c-0.5-0.5-1.6-0.5-1.9,0.2
						c-1.7,3.8-2.6,7.6-3.4,11.6c-0.7,3.4-1.9,7.1,0.5,10.1c0.2,0.2,0.4,0.3,0.6,0.3c0.1,0.8,0.3,1.5,0.9,2.1
						c0.2,0.2,0.4,0.1,0.5-0.1c0.4-1,0.2-1.9,0.2-2.9c0-1.3,0.2-2.6,0.4-3.8c0.1-0.8,0.2-1.6,0.3-2.4c0,0.6,0,1.1,0.1,1.7
						C344.3,196.2,344,198.8,344.8,200.3z"/>
					<path class="st1" d="M348,265.6c0.6,2.1,1,4.5,2,6.4c0.5,1.4,1.2,2.7,1.9,3.6c1.8,2.2,4.9,4.9,7.5,6.2c0.2,0.1,0.3,0.1,0.5,0.1
						c0.7,1.3,1.4,2.5,2.5,3.6c0.3,0.3,1,0.1,0.9-0.4c-0.3-3-2.2-6.6-4.2-8.8c-2.2-2.5-4.8-4.3-6.7-7c0.3,0.2,0.6,0.5,0.8,0.7
						c1.6,1.5,3.2,2.9,4.9,4.3c3.7,3.2,4.4,7.5,5.9,11.9c0,0.1,0.1,0.1,0.1,0.1c0.1,0.2,0.1,0.4,0.2,0.6c0.1,0.3,0.4,0.3,0.5,0
						c0.1-0.5,0.2-0.9,0.3-1.4c0,0,0.1-0.1,0.1-0.2c0-0.2,0-0.4,0-0.6c0.2-1.1,0.2-2.2,0.1-3.3c1.3-3.3-0.5-6.8-3-9.1
						c-0.1-0.2-0.2-0.4-0.3-0.6c-0.8-1.5-1.7-2.9-3.3-3.7c-0.9-0.5-2-0.7-3-1c-1.2-0.5-2.4-1.3-3.7-1.5c-0.3-0.1-0.5,0-0.7,0.2
						c-0.3-0.1-0.7-0.2-1.1-0.3c-0.1-0.2-0.2-0.3-0.3-0.5c-0.1-0.2-0.1-0.4-0.2-0.7c-0.4-1-1.8-0.6-1.6,0.4
						C348,265,347.9,265.3,348,265.6z"/>
					<path class="st1" d="M360.5,317.6c0.2,0.1,3.5,3,5,3.8c0.8,0.4,1.5-1.4,1.5-1.7c0-0.4,1.9-6,1.2-12.5c-0.5-7.4-7.6-13.5-8-13.7
						c-0.3-0.2-0.7,0-0.8,0.3C359.4,294.2,355,314.3,360.5,317.6z M364.1,312c0.1,2.3,0.3,4.8,1.3,7c-2.8-3.7-1.9-7.8-1.8-11.9
						C363.9,308.6,364.1,310.2,364.1,312z"/>
					<path class="st1" d="M374.7,310.6c0,0.2,7.3-4.8,8.9-9.4c3.9-11.1,1.6-19.2,1.2-20.3c-0.3-1.1-1.8-1-2.2,0
						c-0.1,0.2-7.8,8.7-9.9,12.4c-1.1,2-2.7,7.5-0.9,18.8c0,0.1,0.8,2.3,1.2-0.2c0.4-2.1,0.7-4.2,1.2-6.3c1.5-6.4,6.4-11.5,7.6-14.1
						c-0.2,0.7-0.5,1.5-0.8,2.2C379.9,295.8,373.6,304.9,374.7,310.6z"/>
					<path class="st1" d="M392.3,174.1c-0.5-1.1-3.1,10.4,0.2,17.1c2.5,4.9,10.2,3,10.5,3.1c0.1,0,0.2-0.1,0.1-0.2
						c-0.9-1.7-2.3-2.4-4-3.1c-2.8-1.1-3.8-3.3-4.6-5.9c0.1,0.2,0.2,0.3,0.4,0.5c2,2.4,4.4,4.6,7.2,6.1c0.4,0.2,0.9,0,1-0.4
						C405,183.9,394.8,179.8,392.3,174.1z"/>
					<path class="st1" d="M371.4,258.1c-0.6-3.4-4.4-8.1-6.6-10.7c0,0-2.7,7-2.7,11.2c-0.1,9.7,8.4,17.1,8.4,16.6
						C370.5,274.8,372.8,265.8,371.4,258.1z M368.1,266.7c-0.7-1.9-1.2-3.9-1.6-5.9c0.1,0.3,0.3,0.6,0.4,0.9
						c1.3,3.1,2.2,6.2,2.7,9.5C369.3,269.7,368.7,268.2,368.1,266.7z"/>
					<path class="st1" d="M290.7,284.2c-0.2-0.2-4.8,10.3-4.7,11.6c-0.8-1.5-3.2-6.3-10-7.9c-0.1,0-1.2,8.9,1.1,11.9
						c3.8,4.9,10.2,4.5,9.8,4.1c-2.9-3.1-6.3-8.3-6.8-9.1c1.3,1.1,4.8,4.2,8.9,9.2c0.2,0.2-0.9-5.4,0.7-8.4c1,1.8,0.5,6.3,0.6,6.4
						c0,0.1,3.1-2.8,3.3-8.1C293.6,291.9,291.7,285.3,290.7,284.2z"/>
					<path class="st1" d="M339,333c-0.4-0.2-6.6,7.2-8.5,12c-1.9,4.7-2.8,10.1-1.8,15.2c0.1,0.3,1.3,3.6,1.4,3.2
						c0.9-9.5,5.5-16,6-17.2c-0.3,1.5-1.1,3.2-1.6,4.7c-0.9,2.5-2.7,7-2.5,9.8c0,0.1,5.7-6.2,7.1-8.3C344,344,343.4,335.3,339,333z"
						/>
					<path class="st1" d="M321.3,346.1c-0.8-3.3-3-8-5.6-10.2c-2.8-2.3-4.2-5.6-4.4-6.1c1.3,1.5,4.6,4,7,6.5c1.8,2,3.1,7.6,3.7,10
						c0.1,0.6,1.1,0.7,1.1,0.7c3.6-13.8-5.8-18.1-7.6-19.4c-2.4-1.7-7.4-7.1-7.8-7c0,0-4.8,10.1,3.3,18.5
						C313,341.2,321.5,346.8,321.3,346.1z"/>
					<path class="st1" d="M324.8,358.4c-0.6-0.9-15.2-9.1-15.4-8.6c-0.7,0.3-1.1,1.3-0.4,2.1c1.1,1.3,3,5.3,3,5.3
						c-0.1,0.2,1.2,6.3,3.1,8c0.2,0.6,0.5,1.2,0.9,1.7c0.8,1.2,2.1,2.5,3.6,3c0.4,0.8,0.9,1.5,1.6,1.9c0.2,0.1,0.5,0,0.6-0.2
						c0.3,0.4,0.6,0.7,0.9,1.1c0.2,0.2,0.5,0.3,0.7,0.2c0.6,0.5,1.2,0.9,1.9,1c0.1,0.7,1.1,0.9,1.6,0.4c1.5-1.5,1-5.4,0.9-7.3
						C327.4,364.1,326.7,361,324.8,358.4z M324.5,371.8c-0.2-0.1-0.4-0.3-0.6-0.5c-0.4-1.3-0.5-2.7-1.1-4c-0.8-1.8-1.7-3.5-2.8-5.1
						c-1-1.4-2-2.9-3.2-4.3c0.2,0.2,0.5,0.4,0.7,0.7c2,1.9,3.7,3.9,4.9,6.3c1.2,2.3,1.5,4.6,2.2,7
						C324.6,371.9,324.5,371.9,324.5,371.8z"/>
					<path class="st1" d="M319.9,242.3c-1.9-0.3-6.1,2.5-7.2,3.8c-0.5-3,2.7-7.1,3.7-9.9c0.5-1.4,1.1-3.7,0.6-5.2
						c-0.6-1.9-1.2-0.2-2.5,0.7c-3.3,2.2-7,3.1-9.9,6c-2.6,2.6-4.5,6.3-3.7,10c-1.4-1-4.2-7.1-4.8-6.7c-0.1,0.1-2,6.9-0.6,10.8
						c1.5,3.9,5.3,6,9.5,5.4c0.4-0.1-1.2-3.6-0.7-7.3c0.7-5,2.8-8,5.7-10.1c-1.9,2.5-2.9,5.6-3.5,8.6c-0.2,0.8-1.3,8.2-0.1,8.2
						c-0.1,0,0.9-1.2,1-1.3c0.8-0.8,1.9-1.4,2.7-2.1c1.6-1.2,3.1-2.4,4.5-3.7c-1.1,1.9-2.7,3.4-4.2,4.9c-0.7,0.7-2.8,2.3-2.9,3.1
						c-0.5,2.7,4.2,0.7,5.1,0.3c2.4-1.3,4.2-3,5.5-5.4C318.5,251.5,321.4,242.6,319.9,242.3z"/>
					<path class="st1" d="M398.2,336.7c-1.2-1-2.4-1.6-3.2-1.9c-0.7-0.2-1,11.3,0.5,18.3L398.2,336.7z"/>
					<path class="st1" d="M335.6,203.9c0.5,0.9,0.7,1.8,1.7,2.3c0.5,0.3,1.1,0.1,1.4-0.4c1.9-2.6-1.6-7.5-3.6-9.2
						c-1.4-1.2-3.2-2.1-5.1-2.3c-1.1-0.1-2.2-0.1-3.2,0.2c0,0,0,0-0.1,0c0,0-0.1,0-0.1-0.1c-1-0.3-2.1,0-3.1,0.3
						c-0.2,0.1-0.6,0.1-0.9,0.2c-0.1-0.1-0.2-0.1-0.3-0.2c-0.1,0-0.1,0-0.2,0l0,0c-0.1,0,0,0,0,0c-0.2-0.1-0.3-0.1-0.5-0.2
						c-0.6-0.2-1.2,0.6-0.9,1.1c0.2,0.3,0.5,0.6,0.9,0.7c0,0,0.1,0,0.2,0c0,0.1,0,0.2,0.1,0.3c0.2,0.4,0.5,0.6,0.8,0.7
						c0,0.1,0.1,0.1,0.2,0.2c2.2,1.7,2.9,4.4,4.8,6.4c1.9,1.9,4.1,2.3,6.4,3.3c1,0.4,2.3-0.5,1.6-1.6c-1.7-2.8-4.8-4.9-7.3-6.9
						c-0.1-0.1-0.3-0.3-0.4-0.4c1.5,0.5,2.9,1.1,4.2,1.9C333.5,201.2,334.8,202.4,335.6,203.9z"/>
					<path class="st1" d="M289.1,238c0,0-3.2,4.2-11,10.5c-4.9,3.9-5.2,9.9-5.2,10.1c-0.5-1.8-0.6-8.5-0.9-10.1
						c-0.7-3.3-2.9-8.1-4.8-10.9c-1.8-2.6-9.2-11-9.4-10.2c-0.1,0.5-2.8,12.9-1.9,19.5c1,7.5,10.1,15.3,10.3,16.3
						c-1.9-2.6-7.6-2.3-8.8-2.3c-1.1,0-6.4-1.3-6.5-1.3c-0.2-0.2,2.9,13.1,9.9,15.5c2.3,0.8,8.7,2.4,8.6,2.2
						c-0.7-1.7-10.1-10.6-11.4-11.5c0,0,0,0,0.1,0c9.5,3.1,13.1,11.8,13.3,11.6l0,0c0.2,0,0.4-0.2,0.4-0.5c0-2.8-3.3-15.2-4.7-18.7
						c-2-4.8-5.6-12.3-6.5-15.9c1.2,3.8,3.3,6.6,5.2,10.1c1.8,3.4,3.4,7.6,4.6,11.2s1.3,7.4,2.5,10.9c0.1,0.4,0.6,0.3,0.7-0.1
						c0-0.5,3.7-11.8,6.4-16.5c1-1.8,2.7-3.9,3.7-5c-0.4,1-9.1,21.5-8.6,23.7c0,0.1,11-10.1,14.7-21.5
						C292.3,247.4,289.1,238,289.1,238z"/>
					<path class="st1" d="M377.4,386.4c-0.2,0.1-2.5-0.3-3-0.3c-0.6,0.1-10.2-2.1-11.8-2.1c-1.2,0-3.9,0.4-4.1,0.3
						c3.3-1.1,12.7-6.4,13.3-22c0-0.3-0.3-9.5-0.7-10.2c0-0.4-0.9-0.5-1.1-0.3s-5.4,4.7-5.7,5.1c0,0-7.4,4.8-9.6,9.6
						c-1.2,2.6-2.6,5.6-3.3,8.7c0.1-4.5-0.7-9-3.3-12.7c-0.5-0.8-0.8-1.6-1.9,0.5c-0.1,0.3-4.4,9.5-4.7,13.8
						c-0.2,2.5,0.8,5.6,1.2,8.1c0.1,1.1,1.7,5.6,2.1,5.4c0,0,5.9,1.7,7.9,2.1c1.1,0.2,6.8,2.6,9.1,2.8c2.1,0.2,4.2,0,6.2-0.6
						c4.2-1.2,9-5.9,10.1-7.4C378.5,386.6,377.8,386.2,377.4,386.4z M346.7,385c-0.3,0.7-0.6,1.5-0.9,2.3l-0.1,0.1
						c-0.1,0-0.1,0.1-0.2,0.1c0.7-3.1,1.1-6.3,1.3-9.4c0.2-1.9,0.3-3.9,0.4-5.9c0.1,0.5,0.1,1,0.2,1.5c0,1.5,0.1,3.1,0.2,4.6
						c-0.1,1.9-0.2,3.9-0.5,5.8C346.9,384.5,346.8,384.7,346.7,385z M361.7,370.6c1.7-2.5,3.4-5.3,4.8-8.2
						c-2.3,7.4-6.5,14.2-12.1,19.6c-0.7,0.4-1.5,0.7-2.1,1.2C355.9,379.6,358.9,374.9,361.7,370.6z M360.9,389.9
						c-3.2,0.1-6.1,0.2-9-0.4c0.2,0,0.5-0.1,0.7-0.1c2.5-0.3,5-0.4,7.6-0.5c3.9-0.2,8.1-0.1,12-0.8
						C368.7,389.6,364.8,389.7,360.9,389.9z"/>
					<path class="st1" d="M259.5,221.2c3-1.9,5.7-21.9,6.1-25c1.3,2.5,5.7,5.9,5.5,8.8c0.2-3.7,8.7-13.5,10.3-18.7
						c2.5,5.4,10.8,8.9,13.4,14.2c-1.4-3.8-4.9-10.7-9.1-17.6c-3.1-5-2.9-12-3.2-12c-6.4,0.9-12.7,18.5-12.2,23.2
						c-0.3-1.3-3.2-11.5-3.8-10.7c-9.7,12.1-12,18.8-10.9,27c0,0-0.3-0.4-4.2-6c0.2,0.2-0.7,4.8-1.7,7c-3.5,8.1-12.4,24.1-11.9,30
						c-1.7-2.1-7-16.8-6.1-18.7c-3.6,8-7.2,16.1-7,25.4c0.2,7.3,5.1,14,6.9,14.5c0.1,0.1-3.5,0.8-8.3-3.9c-4.2-4.2-7.8-4.6-8.3-4.8
						c0.7,5.6-4.9,16.1-1.1,25.2c4.6,10.9,11.6,16.3,16.1,16.6c-3.6-2.2-11.2-21.1-5.7-32.5c5.9,4.4,11.3,0.2,11.3,0.2
						c-6.1-7.7-4.4-28.5-4.1-30.9c0.3,1.4,5.5,18.1,14.9,15.8c0,0,0.1-16.8,8.3-31.2C255.4,217.7,258,222.1,259.5,221.2z"/>
					<path class="st1" d="M279.3,236.9c0,0.1,4.8-5.6,4.8-11.1c0-8.4-7.9-15.4-7.9-15.3c-0.1-0.2-0.5-0.1-0.4,0.2
						c1.3,3.9-0.4,8.2-0.7,12.3c-2.2-4.6-8-7.1-8.3-7.2c-0.5-0.2-0.7,0.5-0.5,0.8c1.5,1.6,1.5,4.5,1.8,6.7c0.3,1.7,0.5,3.3,1.3,4.9
						c1.5,2.9,6.3,8.2,6.4,8.1c0.1,0-0.8-4.6-1.7-6.6c-0.9-1.9-1.3-3.9-1.8-5.9c2.3,3.8,4.7,7.6,5.2,12.1c0,0.1,0.2-0.5,0.3-0.8
						c1.2-2.6,1.7-11.4,1.6-12.8c0.4,1.7,0.7,3.5,0.6,5.5C279.9,230.5,279.3,236.8,279.3,236.9z"/>
					<path class="st1" d="M282.7,211c0.1,0.4,1.4,9.4,4.6,13c4.8,5.4,15.2,7.1,15.6,6.8c0,0.1,0.1,0.2,0.1,0.3s0,0.1,0,0.2
						c0.3,0.7,1.2,1.2,1.9,1c0.2,0,0.3-0.2,0.4-0.3c1.3,0,2.8-1,4.2-2.2c1.7-1.4,2.9-2.8,3.8-4.8c0.9-2.1,1.1-4.1,1.1-6.4
						c0-2.5-2.3-11.3-2.5-11.1c-1,1.5-4.6,7.5-6.6,10.8c-1.6,2.6-2.1,7.1-3,10.1c-0.1-0.2-3.9-8.3-9.6-10.7
						C286.8,215.2,282.7,211,282.7,211z M307,222.4c0.3-0.6,0.7-1.2,1.1-1.9c-0.1,0.6-0.2,1.2-0.4,1.7c-0.8,2.9-2.2,5.4-3.5,8.1
						C305.1,227.6,305.7,225,307,222.4z M300.8,229.5c-0.1,0-0.3,0-0.4,0l0,0c0-0.1-0.1-0.2-0.2-0.2c-2.2-1.7-5-2.3-7.2-4.3
						c-1.3-1.2-2.4-2.6-3.5-4c1.3,1.1,2.9,2.1,4.2,3C296.1,225.7,299.1,227.1,300.8,229.5z"/>
					<path class="st1" d="M239.4,262.7c-0.6-3.1-1-0.7-1-0.6c-2.2,3.9-9.1,8.1-10.5,14.1c-2.9,13.3,7.6,18,7.6,16.4
						C235.4,282.3,241.3,272,239.4,262.7z"/>
				</g>
				<g transform="matrix(1,0,0,1,306.68701171875,168.26499938964844)">
					<path class="st2" d="M147.7,243.2c-0.1,0.5-0.1,1,0.3,0.6c2.4-2,6-10.8,4.7-16.4c-1.2-5.3-7.7-10.8-8.8-11.1
						c-0.1,0-0.2,0-0.2,0.1C145.2,219.2,152.2,225.8,147.7,243.2z"/>
					<path class="st2" d="M62.9,238.6c2.4-2.5,4.8-5.4,6.4-8.5c3.5-6.5,2.5-12.9-0.9-19.3c-0.2-0.4,2.6,12.5-8.9,25.8
						c-4,4.6-6.3,10-6.2,9.8C56.2,243.5,60,241.6,62.9,238.6z"/>
					<path class="st2" d="M143.4,254.7c2.2-3.7,3.7-11,0.7-15.2c-3.3-4.5-15.3-6.3-15.1-6.2C147.2,238.9,143.2,255,143.4,254.7z"/>
					<path class="st2" d="M141.1,350.3c-0.2,0.2,0,0.5,0.3,0.4c0.2,0.5,1,0.9,1.5,0.4l0,0c0.1,0.1,0.3,0.1,0.4,0.1
						c0.3,0.5,1,0.7,1.4,0.2c0,0.3,0.4,0.5,0.6,0.3c8.8-8.3,8.5-22.8,3.1-32.8c-0.3-0.6-1.3-0.1-1,0.6c1.2,2.2,2.1,4.5,2.7,6.9
						c-0.4-0.1-0.9,0.4-0.8,0.8c0.7,4.9-0.3,11-2.6,16c-1.4,0.4-2.8,2.6-2.8,3.8c-0.8,0.7-1.4,1.3-2,2.1
						C141.7,349.5,141.4,349.9,141.1,350.3z"/>
					<path class="st2" d="M138.3,261.6c-0.1,0.1,12,8,6.1,28.5c0,0.1,3.5-6.9,5.7-8c7-3.7,12.4-8.2,14.6-14.6c1.4-4,2.9-14-2.3-18.5
						c0,0,2,8.2,0.6,14.1c-1.8,7.7-7.7,13.8-13.3,17.5c0.1-0.8-1.5-7.3-1.7-9.8C147.8,265.3,140,260.7,138.3,261.6z"/>
					<path class="st2" d="M193.4,146.7c2.3,3.1,4.8,5,7.6,6.2l1.2-7.4C198.5,146.5,194,147.5,193.4,146.7z"/>
					<path class="st2" d="M198.5,95.3c0.4,2.3,6.1,8.8,6.1,8.3c-0.5-6.1-0.5-7.7,3.6-13c0.7,3.4,1.4,6.2,1.8,8.8l1.8-11.1
						c-1.6-2.8-2.9-5-2.7-5.3c-2.1,4.3-5.4,7.9-7.7,12.2c-0.2-7.1,3.9-13.4,0-20.3c-0.5-1-2.6,12-2.6,12.6
						C198.7,89.9,198,92.8,198.5,95.3z"/>
					<path class="st2" d="M180.6,155.6c0,0-0.9-5.7-0.9-8.6c0-2.9,0.9-5.2,2.4-12.4c1.4-7.1-2.4-10.5-2.4-10.5
						c1.9,2.9-2.4,20.9-2.4,20.4s-2.4-2.4-2.4-2.4c0.5,1-2.4,3.8-2.4,3.8L180.6,155.6z"/>
					<path class="st2" d="M199.1,129.2c-2.2-1.1-5-3.7-6.2-5.8c1.7,2.8-0.9,9.5,0.8,13.1c2.3,4.8,5.5,4.9,9,5.9l3.7-22.4
						c-3-4.8-8.8-6.4-12.4-10.4C197.7,113.8,196.8,124.1,199.1,129.2z"/>
					<path class="st2" d="M50.1,224.6c0,1,2.4-5.5,2.6-7.6c1.3-7.6-4.3-15.8-11.8-17.1C40.7,199.8,49.5,207.7,50.1,224.6z"/>
					<path class="st2" d="M28,264c0,0,7.1,7.7,7.2,7.1c0.6-3.2,0.7-6.3-0.3-9.4c-1-3.4-6.2-11.3-6.2-11
						C28.5,253.5,25.4,258.9,28,264z"/>
					<path class="st2" d="M169.4,342c-0.5,0.9-0.8,2-1.1,3.3c-2.3-0.7-8.6-2-9.2-4.6c0,0-0.5,0.1-0.3,0.3c1.4,2.2-0.9,11.9-4.2,12.4
						c-0.2,0.8,0.1,1.1,1.1,0.7c-6.6,11.4-20.2,9.7-30.2,3.9c-3.6-2.1-2.9,0.3-4.9-4.3c-1.2-2.7-1.3-9.3-0.6-12.3
						c1.1-5,3.6-9.9,3.7-9.8c-1.6-1.5-13.2,5-14.5,5.7c0.3-0.7,13.2-16.5,11.7-27.2c-2.9,12.3-13.6,20.2-13.7,19.9
						c-0.6-1.4-2.1-4.9-1.3-9.3c0.4-2.5,1.3-9.7,1.6-12.7c0.4-4.4-1.6-9-2.1-11.2c-1.2-5.4-0.1-4.1,1.2-6.2c1.3-2,3-4.1,3.9-6.6
						c2-5.4,1.2-12.5-0.9-18c3,8-3.4,18.2-8.2,21.6c-2.5,1.8-3.3-0.1-4.8-5.6c-2.5-9.2,4.6-18.4-0.2-28
						c-4.2-8.4-13.8-12.3-13.8-12.3s16.2,14.5,9.1,33.2c0.7-1.9-9-7.4-9.9-9.3c0.6,2-2.1,4-2.4,4.7c-0.1-0.4,9.4,6.3,9.9,6.7
						c6.3,5.6,6.9,14.7-3.7,6.9c0,0,1.6,2.4,0.4,5.3c0.2-0.5,12.3,8,13.7,10.3c2.6,4.3,2.9,10.5,0.6,14.6c-3.5-2.9-17.6-8-14.8,3.3
						c-0.2-1,4.8-1.1,5.6-0.7c5.9,2.4,9.3,3.3,12.3,9.7c2.3,4.7,2.9,10.5,1,16.7c-6.5-3.9-30-21-21.8,0.2c-2.3-1.8-4-5.7-7-3.4
						c1.6-4.1,3.4-8.4,3.1-12.8c-0.3-4.2-3-6.3-3.8-9.9c0.7,3-5,6.8-6.3,9.4c0,0,0.3,5-1.5,8.2c-1.8,3.3-4.3,7-4.3,7
						c-5.8-8.7-10.7-16.5-5.5-26.1c2.3-6.2,6.3-8.2,7.5-12.9c1.5-5.6-2.2-8.5-2.6-13.2c0.2,2-6.2,6.3-7.5,8.8
						c-1.1,2.4-0.7,6.9-1.4,9.5c-1.1,4-3.3,7.7-4.9,11.5c-0.2,0.4-0.8,0.4-0.9-0.1c-3.2-12.5-7.4-19.6-1.4-34.5
						c0.6-0.9,4.8-3.7,5.3-7.9c0.5-4.9-4.4-9.6-4.5-12.4c0.2,5.2-7.6,7.2-8.8,12c-0.5,2,1.3,5.5,1.5,7.8c0.5,4.3-0.6,8.6-1.2,13.2
						c-5.9-1-9.4-6.5-12.5-11c-3.5-5.2-8.5-9.1-11.9-12.6c5.3,5.7,0.3,15.8,3.5,22.5c-8.6-0.7-11-3-15.7-9.9
						c-1.2-1.8-7-9.6-10.5-6.5c0,0,3.2,1.7,5.3,7.5C-1,294.3,2.8,302.6,10,304c-6.8,2.2-10.5,7-10.5,7c4,2.1,16.1,15.8,28.5,11.8
						l3.4,4.6c-5.1-0.3-7.6,4-11,6.7c-0.3,0.2,6.5,6.2,7.2,6.6c4.5,3,10.7,4.3,16.1,4.2c-2.4,1.4-5.7,2.7-7,5.4
						c-1.9,4.2-2.4,3.3-0.2,4.5c6.3,3.4,19.3,4.7,25.5,4.9c-2.3,2.3-7.3,6.4-7.3,6.4c10.7,11,20.7-0.1,28.1-4.8
						c-4.3,7.3-0.9,15.2-4.5,22.8c10-1.4,28.8-5.8,28.7-19.2c3.8,7.1,11.1,12.9,11.8,21.4c5.7-3.4,11.4-8.9,9.1-16.2
						c3.7,2.6,7.3,5.1,11,7.7c2-4,5-7.4,8.7-9.7c-0.4,3.8-1.1,8.8,0.6,12.4c4.5-4.3,11-4.6,16-8L169.4,342z M27,313.7
						c-3.9-4.1-4.8-11.3-7.3-16.7c15.5,4.6,23.5,15,24.8,22.7C39,317.4,31.1,318,27,313.7z M42.7,336.2c-5-2.4-6.1-7-7.9-11.3
						c2.2,2.1,8.6,3,12.2,4.7c4.6,2.2,6.7,5.4,9,9.6C51.6,339,46.7,338.1,42.7,336.2z"/>
					<path class="st2" d="M13.4,256.6c0.7-2.2,1.6-4.2,2.9-6c1.2-1.7,2.6-3.8,3.2-5.8c0.8-3,0.8-8.5-1.6-11.7
						c-0.2-0.2-0.5,9-3.7,16.8C13.9,250.4,13.2,257.2,13.4,256.6z"/>
					<path class="st2" d="M151,183.9c-0.2-0.8-0.3-1.2-0.3-1.2C150.8,183.1,150.9,183.5,151,183.9z"/>
				</g>
				<g transform="matrix(1,0,0,1,177.177001953125,90.62200164794922)">
					<path d="M267.7,439.7c-3.9-0.8-7.2-3.2-11.2-3.1c-0.2,0-0.2,0.3,0,0.3c5.5,2,11.3,5.7,17.4,4.1c4.1-1.1,10.6-5.2,11.5-9.6
						c0-0.1,0-0.2-0.1-0.2c-0.4,0-0.7,0-1.1,0c-4.1-0.7-9.4-3.4-14-3.2c7.4-5.5,12.3-14,8.2-31c-0.1-0.4-1.3-0.7-1.5-0.5
						c-4.1,5.1-10.5,7.3-14.3,12.7c-1.6,2.2-2.7,4.8-3.7,7.6c-0.3-3.9-1.8-7.8-4-10.6c-0.1-0.2-0.4-0.2-0.6-0.1
						c-0.4,0.2-2.2,3.5-2.1,4.5c0,0.3,1.8-2.8,2.3-3.3c0.5,0.5,5.5,6.7,1.8,21.2c0,0.2,0.3,0.3,0.4,0.1c3.1-6.3,3.5-13,7.7-18.9
						c3.5-4.9,9.4-7.4,12.9-12.3c0.3,1.1,1.1,14.2-0.7,19.4c-2.6,7.7-8.1,11.3-15.5,13.5c-0.2,0.1-0.1,0.3,0,0.3
						c2.1,0.2,4-0.2,5.8-0.9c3.4-0.4,6.4,0.2,9.9,1.2c2.6,0.7,4.7,1.2,7.3,0.8C280.9,438.2,271.4,440.5,267.7,439.7z"/>
					<path d="M313.7,241.7c0.2,0.1,0.4-0.1,0.3-0.3c-3-2.8-6.7-1-10.1-2.5c-3.9-1.7-5.9-5.8-6-9.8c-0.1-1.7,0.3-3.7,0.6-5.4
						c0,0,0.6-4.4,1-3.8h0.1c0.1-0.9,0.2-0.7-0.5-1.3c-0.2-0.2-0.5-0.1-0.6,0.1c-1.7,6-3.4,11.8,0,17.5c1.1,1.8,2.3,3.1,4.4,3.8
						C306.3,241.1,310.7,239.3,313.7,241.7z"/>
					<path d="M234.5,418.7c1.5-6.7,0.4-14.2-4.4-19.5c-3.2-3.5-10.8-7.4-15.4-4.4c-0.1,0.1-0.2,0.2-0.2,0.4c0.1,0.8,0.1,0.5,0.8,1.5
						c0.1,0.1,0.2,0,0.2-0.1c-0.5-1.7,4.7-1.6,5.4-1.5c1.4,0.3,2.9,0.8,4.1,1.5c2.4,1.4,4.5,3.7,5.8,6.1c2.8,4.9,2.9,10.4,2.6,15.8
						C233.5,419.1,234.4,419.2,234.5,418.7z"/>
					<path d="M120.5,298.5c1.9,1.2,4,1.9,5.8,3.3c1.8,1.3,3.2,3,4.8,4.5c2.3,2,4.7,3.2,7.7,2.4c0.5-0.1,0.4-0.8-0.1-0.8
						c0-0.1-0.1-0.2-0.2-0.3c-8.7-4.7-6.5-17.2-4.7-25.1c0.9-4.1,3.5-8.6,4.4-13.1c0.2,3.2,0.3,6.4,1.3,9.4c1,2.9,5.9,9.3,6.1,9.5
						c0.3,0.3,0-1.4-0.3-1.8c-0.4-7.9,3.8-14.2,7.4-21.1c2.5-4.6,5.4-9.7,5.4-15.1c0.4,1.3,0.9,2.7,1.5,3.9c0.6,1.3,1.9,2.8,3.2,3.3
						c0.4,0.1,0.8-0.3,0.7-0.7c-0.2-0.6-2.6-7,2.9-17.6c1.6-3.1,5.5-6.3,6.7-9.6c1.6,3.2,1.9,4.3,2.3,7.5c0.3,2.2,0.3,5.1,2.5,6.1
						c0.4,0.2-2.4-16.7,10.8-26.4c0.9,2.7,0.4,5.9,1,8.7c0.6,3.2,1.8,5.7,3.7,8.3c2.7,3.6,5.8,6.8,7.2,11.3c1.3,4.3,1.6,9,1.5,13.5
						c0,0.5,0.6,0.5,0.7,0.1c0.7-1.6,1-3.4,1.1-5.3c1.6-5.1,2.8-10.7,6.6-14.3c-1.1,4,1.4,9.4,4.3,11.7c0.3,0.2,0.7,0.1,0.8-0.2
						c0.4,0,0.7-0.3,0.7-0.8c0.8-11.1,0.6-23.6,8.9-32.1c0.1,0.1,0.3,0.1,0.5,0c0.1-0.1,1,5.7,1.2,6.4c0.6,2.3,1.6,4.3,3,6.3
						c0.4,0.6,1.5,0.5,1.5-0.4c-0.3-7.8,6.3-13.2,12.1-17.3c3.8-2.7,8.9-4.7,12.4-7.9c0.3,1,0.4,2,0.3,3.1c0,0.9,1.3,0.8,1.3,0
						c0-0.1,0-0.1,0-0.2c3.6-3,6-7.2,9.7-10c4.2-3.2,9-5.7,13.7-7.8c2.5,3.7,5.3,13.4,4.2,18.9c-0.1,0.4,4.2-1.7,6.8-12.6
						c1.2-5-0.8-10.3,0.5-15.3c1.1,1.4,7.6,7.2,8.9,9.3c0.3,0.4,0.9,0.1,0.8-0.3c-0.2-0.7-1.2-6-1.5-8.1c-0.9-5,0-8.4,2.7-12.5
						c1.8-2.6,4.4-5.2,5.5-8.2c0.4,1.9,3.6,10.2,3.8,15.9c0,0.4,1-9.3,11.5-17.2c2.4-1.8,5.3-3.8,6-6.8c2.1,3.9,1.9,7.7,0.8,12
						c-0.6,2.4-1.2,4.6-0.8,6.9c-0.2,0.7-0.2,1.5,0.1,2.3c0,0.1,0.2,0.1,0.2,0c0.9-3.4,3.2-5.9,5.3-8.7c1.1-1.4,2.1-2.7,2.6-4.3
						c0.4,1.8,1.5,3.3,2.6,4.9l0.4-2.5c-1-1.2-2-2.5-2.7-3.9c0-0.1,0-0.1,0-0.2c0-0.5-0.8-0.6-0.8-0.1c-0.4,3.2-3.4,6-5.3,8.5
						c-0.4,0.5-0.8,1.1-1.2,1.6c1.3-6.2,2.5-13.4-1.3-19.4c-0.2-0.3-1,4.1-10.2,11.3c-2,1.6-5.5,6.4-6.3,8.9
						c-0.1-3.6-4.5-13.6-4.7-13.1c-2.6,5-7.8,10-9.8,15.3c-1.4,3.8-0.6,8.3,0.8,12.3c-0.4-0.6-6.5-7.1-8.7-6.7
						c-0.1,0-1.4,4.3-0.9,11.8c0.4,5.3-0.6,10.1-2.7,14.5c0-1.6-0.4-3.2-0.7-4.7c-0.8-3.8-4.2-12.7-4.8-12.4
						c-8.8,3.9-19.5,9.9-24.4,18.6c0-1-0.2-2-0.5-3.1c-0.2-0.7-0.9-0.7-1.4-0.4c-5.6,4.7-12.6,7.5-18.2,12.4
						c-4,3.5-6.5,7.5-7.4,12.5c-0.8-1.5-1.5-3-1.9-4.7c-0.4-1.5,0-3.7-0.5-5.1c-0.4-1-0.4-1.2-1.5-1.6c-0.2-0.1-0.5,0-0.6,0.2
						l-0.3,0.3c-11.5,4.2-11.8,21.2-10.8,31.6c-0.8-1.5-1.4-2.9-1.8-4.6c-0.4-1.9-0.4-3.9-0.8-5.8c0.3-0.4-0.2-1-0.7-0.8
						c-4,2-6.3,6.5-7.6,11.3c-0.8-4.7-2.8-9.4-5-12.7c-2.5-3.7-6.1-7.1-7.3-11.5c-0.6-2.5,0.2-6.7-2-8.5c-0.2-0.1-0.4-0.1-0.6,0
						c-0.1,0-0.3,0-0.4,0c-6.5,3.1-11.2,13.7-11.6,21.5c-0.2-1.5-0.6-2.4-0.9-3.5c-0.9-3.5-3.3-6.2-3.5-5.5
						c-0.6,2.5-3.4,4.7-4.9,6.6c-1.8,2.3-3.3,4.7-4.4,7.4c-1.6,3.8-2.2,8.2-1.1,12.2c-0.5-0.6-0.8-1.2-1.2-2.1
						c-0.6-1.4-3-3.8-3.1-3.6c-1.5,3.9-2.4,7.9-4.1,11.7c-1.6,3.6-9.6,14.4-9.8,23c-1.6-3-3.2-5.9-3.4-9.7c-0.3-6.3-2.3-9.7-2.4-9.7
						c-0.2,0-0.5,0.1-0.6,0.4c-0.9,4.6-3.1,8.7-4.5,13.1c-1.3,4.2-2.2,8.6-2.5,13c-0.5,6.3,0.9,12.9,6.1,16.7c-5.8-2-9-9.7-15.9-9.2
						C120.4,298.1,120.3,298.4,120.5,298.5z"/>
					<path d="M289.6,326.3c0.1-0.2-0.2-0.3-0.3-0.1c-3.4,4.7-9.7,8.5-11.2,14.3s-0.8,13.5,0.8,19.2c0,0.1,0.1,0.1,0.1,0
						c0.2-6.7-1.8-15.4,1.9-21.3C283.6,333.9,287.8,331.4,289.6,326.3z"/>
					<path d="M272.9,368.1c-0.1,0.5,0.6,0.8,0.8,0.2c3.9-10.6,4.5-24.8-7.3-30.7c-0.1-0.1-0.2,0-0.3,0.1c-0.1-0.2-0.2-0.4-0.3-0.7
						c-0.3-0.6-1-0.1-0.9,0.4c1.4,8.7-6.2,24.3,6,28.6c0.4,0.2,0.6-0.5,0.3-0.7c-6.9-5-6.4-10.3-5.1-18c0.6-3.2,1.2-6.4,0.1-9.5
						c2.5,3.9,6.1,7.3,7.7,11.8C275.9,355.8,273.7,362,272.9,368.1z"/>
					<path d="M280.2,358.4c5.1-5,10.6-8.4,12.5-15.7c1.5-5.5,1.9-13.5-1.9-18.2c-0.1-0.1-0.1,0-0.1,0.1c2.8,5.7,1.2,15.4-1.2,21
						c-2.2,5.3-7.4,7.5-10,12.2C279.2,358.3,279.8,358.7,280.2,358.4z"/>
					<path d="M290.7,213c-4.2,6.2-11,7-17,10.5c-4.5,2.6-6.2,6.3-7.6,11c0,0,0,0.1,0.1,0c3.5-7.1,9-9.4,15.9-12.5
						c3.1-1.3,6-3,7.9-5.6c-0.1,2-0.2,4.1-1,5.9c-1.6,3.7-4.6,6-8,7.9c-3.1,1.6-6,2.7-9.3,3.5c-1.9,0.4-3.3,1.1-4.8,2.4
						c-0.4,0.3,0.1,1,0.6,0.7c3.4-2.6,7.9-2.9,11.8-4.3c2.8-1,5.8-2.6,8.1-4.4c4-3.2,4.8-8.2,3.5-13c0.3-0.6,0.5-1.2,0.7-1.8
						C291.5,212.9,290.9,212.6,290.7,213z"/>
					<path d="M301.5,380.2c-0.6,6.1-2.5,15.2,0.5,21.1l0.6-3.6c-0.5-2.1-0.6-4.4-0.3-7c0.4-3.6,1.2-7.1-0.5-10.5
						c1,0.1,2.2,1.1,3.3,2.2l0.3-1.5c-1.7-1.3-3.2-2-3.9-1l0,0l0,0c0,0,0,0.1-0.1,0.1C301.4,380.1,301.4,380.2,301.5,380.2z"/>
					<path d="M221.7,409.5c-2.1-3.6-2.3-8.8-5.4-11.7c-0.1-0.1-0.2,0-0.2,0.1c2.1,4.9,2.7,10.1,5.7,14.7c2.6,4,7.1,6.5,11.3,8.4
						c0.4,0.2,1-0.4,0.6-0.7C229.5,416.7,224.6,414.6,221.7,409.5z"/>
					<path d="M250.6,433.6c-2-7.7-1.6-14.5,1.3-22c0.1-0.2-0.2-0.3-0.3-0.1c-4.6,6.4-5.2,15.3-1.5,22.3
						C250.3,434.1,250.7,433.9,250.6,433.6z"/>
					<path d="M191,310.4c-4,6.2-11.4,11.3-10.7,19.5c0,0.4,0.5,0.4,0.6,0c1.3-10.5,11.1-15.3,14.9-24.6c3.1-7.5,3.6-14.7,0.3-23.3
						c-0.1-0.3-1.5,3-4.4,5.4c-4.8,3.8-11.4,9.4-12.1,14.2c-0.2-4.6,0.2-9.2-2.1-13.8c-2.8-5.6-7.4-12.5-12.7-15.9
						c-0.5-0.3-1.1,0.1-1.1,0.6c0,1.1-4,15.6-1.8,22.2c1.7,5,5.8,8.2,9,12c-3.7-1.9-9.7-0.4-13.2-2.6c-0.2-0.1-0.4,0-0.5,0.2
						c-0.1,0-0.3,0.1-0.2,0.2c1.7,4.7,1.9,10.5,5.1,14.5c3.6,4.5,10.2,4.9,14.7,8.1c0.2,0.1,0.3-0.1,0.2-0.3
						c-3.8-4.1-9.3-3.9-13.4-7.5c-4.5-3.8-2.7-9.5-5.3-13.8c1.1,0.7,2.4,1,3.8,1.1c4.1,0.4,7.9,0.1,11,3.2c0.1,0.1,0.1,0.2,0.2,0.3
						c0.2,0.3,0.7,0.1,0.6-0.2c-1.5-5.2-6.9-8.1-9.2-12.8c-3.6-7.1,0.3-22.5,0.3-23.2c2.7,2.1,5.6,5.5,7.3,8.1
						c9.1,14,4.3,22.6,8.4,26.6c0,0,0.1,0,0.1-0.1c-1.9-8.4,3.9-13.8,9.4-18.2c2.3-1.8,4.4-3.5,5.6-6.1c1.2,4.4,2.1,8.6,1,13.2
						C195.7,302,193.6,306.5,191,310.4z"/>
					<path d="M209.9,276.6c-5-1.2-12.9-4.2-15.9-8.7c-3.7-5.5-4.4-11.5-4.5-13c0-0.1-0.1-0.1-0.2,0c-2.1,4.2,1.3,11.7,3.9,15.1
						c3.6,4.8,10.5,5.9,16,7.1C209.9,277.2,210.6,276.8,209.9,276.6z"/>
					<path d="M211.4,277.5c-0.5,0.3-0.1,1.1,0.5,0.8c4.8-2.6,8.7-4.2,9.9-9.9c0.5-2.5,0.3-5.1,0.1-7.6c-0.2-2.6-2.3-6.8-2.6-8.9
						c-0.1-0.6-0.8-0.6-0.9-0.1c-1.3,4.6-5.4,8.3-7.3,12.7c-1.3,3-1.9,5.8-1.5,9c0,0.1,0.2,0.1,0.2,0c1.1-5.4,3-9.9,5.9-14.6
						c0.8-1.2,2.5-3.1,2.9-4.5c0.1-0.2,0.1-0.3,0.1-0.5c1.2,2.6,2,8.6,2,10.9C220.7,271.9,216.6,273.8,211.4,277.5z"/>
					<path d="M208.9,273.9c0.1,0.2,0.5,0.2,0.4-0.1c-0.2-4.6-2-9.3-5.3-12.6c-1.6-1.7-3.6-2.9-5.7-3.8c-2.7-1.1-5.8-1.3-8.4-2.6
						c-0.1,0-0.2,0-0.1,0.1c2.2,3.1,6.9,3.2,10,5C204.9,263.1,206.9,268.7,208.9,273.9z"/>
					<path d="M294.2,448.4c-2.1,1.8-4.5,3.3-7.3,4.3c-3.2,1.2-6.2,2-8.6,4.2c-0.9-3.8-0.9-7.5-0.2-11.3c0.1-0.4-0.3-0.8-0.7-0.5
						c-4.1,2.1-6.9,5.2-9.2,9.1c-4.2-2.3-7.6-5.1-10.8-8.4c-1.4-3-3.8-5.5-6.7-7.2c-0.2-0.1-0.5,0.2-0.3,0.4
						c8.7,7.9,7.6,17.9-1.5,24.2c-0.2-4.2-2.1-7.8-4.6-11.2c-1.6-2.1-3.4-3.9-5.1-6c-1-1.2-1.7-2.5-2.4-3.9c-0.3-2.9-1.4-5.8-3-8.7
						c-0.1-0.3-0.6-0.1-0.5,0.2c2.5,6.1,3.6,12.3-1.3,17.7c-3.3,3.6-7.9,5.7-12.5,7.2c-1.2,0.4-9.9,3.7-11,2.8c0.4,0.3,2-6,2-6.6
						c0.4-5.2-1.5-14.1,7.2-18.4c-5.8-0.4-13.1,9-17.9,10.6c-5,1.7-11.4,1.1-15.2-2.8c1.5-1.1,3.4-2.6,4.2-3.2
						c1.9-1.6,3.7-3,5.9-4.1c0.3-0.1,0.1-0.6-0.2-0.6c-1.1,0.1-2,0.4-2.9,0.9c-4.8-0.9-9.6-1-14.4-2.1c-0.9-0.2-12.3-2.4-13.1-3.6
						c1.6-2,3-4.5,5.1-6c2.6-1.8,6-1.9,8.9-3c0.3-0.1,0.3-0.7-0.1-0.7c-2.3,0-4.9,0.2-7.2,1c-4.7-0.3-9.2-1.6-13.2-4.1
						c-2.9-1.8-5-5-8.1-6.3c1.6-0.3,2.3-1.8,3.5-2.9c2.5-2.5,5.2-3.3,8.6-3.2c0.5,0,0.7-0.7,0.3-0.9c-0.1-0.1-0.2-0.1-0.4-0.2
						c0-0.1,0-0.2-0.1-0.3c-0.6-0.6-1.5-0.9-2.2-1.5c-0.7-0.7-1-1.7-1.6-2.5c0-0.2-0.2-0.5-0.5-0.4c-7.3,1.4-13.2-1.4-19.1-5.4
						c-2.8-1.9-5.3-5.5-8.6-6.4c1.1-0.3,1.7-1.6,2.5-2.3c1.6-1.6,4.2-3.6,6.6-3.3c1.8,0.7,3.7,1.1,5.6,1.2c0.4,0,0.5-0.6,0.1-0.7
						c-3.7-1.5-7.4-2.6-10.6-5.1c-3.9-3.1-5.3-7-6.9-11.6c-0.9-2.5-2.4-8.1-5.4-9.1c5.6-1,8.9,1.4,13.7,4.2c1.9,1.1,4.7,2.6,6.9,2
						c0.2-0.1,0.4-0.3,0.4-0.5c0.1-1-0.4-1.4-0.9-2c0.9,0.3,1.8,0.4,2.8,0.4c0.5,0,0.6-0.7,0.1-0.8c-4.3-1.3-7.4-4.7-8.7-9
						c-1-3.4-1.6-5.7-0.3-9.7c0.6,0.2,1.2,0.3,1.8,0.4c0.8,0.1,1.1-1.2,0.4-1.5c-7.3-3.5-13.6-10.6-16.7-18.2
						c-2.1-5-1.3-10-0.2-15.1c0.6-2.7,1.8-5.4,0.8-8.1c-0.1-0.2-0.3-0.2-0.3,0c-0.6,5.2-3.5,9.9-4,15.2c-0.4,4.4,0.7,8.3,3,12
						c3,5.1,8,12.5,14.2,14.8c-3.9,5.7,0.1,16.5,6.5,19.2c0.3,0.4,1,1.5,0.9,1.7c-0.3,0.5-4.2-1.6-4.6-1.8c-2.6-1.4-4.9-3.2-7.6-4.4
						c-3-1.3-7-1.8-9.3,1c-0.1,0.1,0,0.2,0.1,0.2s0.1,0,0.2,0c3.6,2.5,4.5,8.6,6,12.5c0.9,2.4,1.9,4.6,3.6,6.5
						c1.8,2.1,4,3.8,6.5,5.1c-1.5,0.5-2.9,1.6-4,2.4c-0.7,0.5-1.2,1.1-1.8,1.8c-0.6,0.7-1.4,1.4-1.8,2.2c0,0,0,0,0,0.1
						c-0.3-0.1-0.6,0.4-0.2,0.6c2.4,1.5,4,4,6.1,5.7c2.4,2,5.2,3.8,8,5.2c4.4,2.2,9.4,3.2,14,1.4c0.2,1.1,0.8,2.2,1.5,2.9
						c0.2,0.2,0.4,0.4,0.7,0.6c-1.3,0.2-2.6,0.9-3.6,1.5c-1.1,0.7-2.1,1.5-2.9,2.4c-1.1,1.2-1.8,2.6-3.3,3.4c-0.1,0-0.2,0.2-0.1,0.3
						c5.6,6.7,11.9,11.1,20.5,11c-0.5,0.2-1,0.5-1.5,0.8c-2.5,1.8-3.8,4.5-4.4,7.4v0.1l-0.1,0.1c-0.1,0.1-0.1,0.2-0.1,0.3
						c0.6,1.4,0.3,0.7,2,1.5c2.4,1.1,5.9,2,8.5,2.8c5,1.5,10.9,2.5,16.2,1.8c-0.2,0.2-6.7,5.8-6.8,5.8c2.3,4.4,8.8,5.8,13.4,5.2
						c5.6-0.7,9.3-4.1,13.2-7.2c-0.2,0.4-0.4,0.8-0.6,1.3c-2.2,6.2,1.3,13-2.7,18.7c-0.3,0.4,0.2,0.8,0.6,0.7
						c8.8-1.3,18.8-2.7,25.3-9.4c2.5-2.6,3.8-5.4,4-8.3c3.3,6.7,9.1,12,10.5,19.9c0.1,0.5,0.7,0.7,1.1,0.4c4.6-2.9,9.3-6.5,10-12.2
						c0.2-1.2,0.1-2.4-0.1-3.5c2.7,3,6,5.4,9.6,7.2c0.5,0.2,1.1,0.2,1.4-0.4c1.1-2.2,3.8-6.4,7-8.9c0,0.1-0.6,4.1-0.5,5.8
						c0.1,2.1,0.5,3.9,1.1,5.9c0.2,0.6,1,0.9,1.4,0.4c3.9-4.4,10.6-4.5,15.2-8c0.1-0.1,0.1-0.1,0.2-0.2c-1.5,5.7-1.6,12.1-4.7,17
						c-0.5,0.8,0.1,1.7,1,1.7c0.2,0,0.4,0,0.6,0L294.2,448.4z"/>
					<path d="M148.2,317.4c0.6-3.9,0.1-7.9-2.3-11c-0.1-0.1-0.3,0-0.2,0.1c2.7,10.8-6.8,20.9-3.2,31.5c0.1,0.2,0.3,0.2,0.3,0
						c0-4.2,0.8-8.1,2.3-11.9C146.3,323.2,147.7,320.4,148.2,317.4z"/>
					<path d="M307.4,227.7c-2.6-2.8-5.6-4.4-7.4-7.9c-0.1-0.2-0.4-0.1-0.4,0.1c-0.1,2.5,2.1,4.6,3.8,6.3c2.5,2.6,4.9,4.7,6.4,8.1
						c0.1,0.3,0.7,0.2,0.7-0.2C310.4,231.7,309,229.5,307.4,227.7z"/>
					<path d="M145.6,306.2c0.1-0.5-0.7-0.6-0.7-0.1c-0.5,5.2-5.3,6.3-8.1,9.6c-1.3,1.5-2.3,3.4-2.8,5.4c-1.3,4.3-0.4,9.1,2.6,12.6
						c0.1,0.1,0.2,0,0.2-0.1c-2.6-6.7-2.5-12.9,2.7-18.3C142.1,312.3,145,310.3,145.6,306.2z"/>
					<path d="M270.7,336.3c0.1,0.4,0.8,0.5,1,0.1c1.7-3.8-2.3-6.7-4.8-9.1c-2.8-2.6-6.3-5.1-8.6-8.1c-2.4-3-2.2-6.6-3.6-9.9
						c2.3,2.5,7.3,3.2,10,4.8c7.2,4.3,7.4,11.2,7.1,18.7c0,0.4,0.6,0.5,0.7,0.1c1.9-5.9,1.6-11.7-2.6-16.5c-3.9-4.5-10.2-5.8-15.5-8
						c-0.2-0.1-0.3,0.2-0.2,0.3c0.1,0.1,0.1,0.2,0.2,0.3c-0.1,0-0.2,0.1-0.1,0.2c1,5.1,0.3,9.3,4.1,13.3
						C262.4,326.6,269.9,330.4,270.7,336.3z"/>
					<path d="M252.7,221c-0.2-0.1-0.4-0.2-0.6-0.2c-0.1-0.1-0.3-0.2-0.4,0c-2.7,3.9-5.6,10.4-6.4,15c-0.7,4.4,1.8,8.8,4.4,12.1
						c0.3,0.3,0.7-0.1,0.6-0.4c-1.5-2.8-3.4-5.3-3.4-8.6c0-2.3,1-4.5,1.7-6.6c1.1-2.8,2.3-5.7,3-8.7l0.1-0.1
						c0.2-0.2,0.3-0.5,0.5-0.7c2.1,2.8,4.2,5.5,5.1,9c1.4,5.1-0.3,8.9-2.5,13.5c-0.1,0.1,0.1,0.2,0.2,0.1
						C261.2,237.3,260.6,227.8,252.7,221z"/>
					<path d="M269.8,211.7c0-0.5-0.7-0.7-0.9-0.2c-1.9,3.9-6.1,6.1-7.7,10.2c-1,2.6-1.4,6.5,0.4,8.8c0.1,0.1,0.2,0,0.2-0.1
						c0.1-1.9-0.5-3.8,0.1-5.7c0.6-2.4,2.5-4.3,4.2-6c1.3-1.3,2.5-2.7,3.1-4.4c0.2,1.9,0.4,3.9,0.3,5.9c-0.1,3.5-1.9,6.8-3.6,9.8
						c-0.1,0.3,0.2,0.5,0.4,0.2c1.9-2.9,4.5-5.4,5-8.9c0.4-3-0.2-6.5-1.6-9.2C269.8,211.9,269.8,211.8,269.8,211.7z"/>
					<path d="M298.1,192.6H298c-0.1-0.1-0.1-0.1-0.2-0.2c-0.1-0.1-0.3,0-0.3,0.2c2.2,5.6,1.2,11.6,1.9,17.5
						c-0.1,2.3,0.2,4.8,1.4,6.8c1.2,2.1,3.3,3.4,5.1,4.9h0.1c0.2-1.8-1.3-2.7-2.5-3.9c-1.4-1.5-2.1-3.2-2.6-5
						c-0.4-4.1-0.5-8.2-0.8-12.3c-0.1-2.4-0.1-4.9-1.3-6.8c4.7,3.1,9.6,5.6,9.9,12.1c0.3,4.5-1.5,9-2,13.4c-0.1,0.4,0.6,0.5,0.7,0.1
						c1.2-5.5,4.6-11.6,2.3-17.3C307.9,197.2,302.9,194.1,298.1,192.6z"/>
					<path d="M271.5,292c0,0-4.6,11-2.8,16.7c1.7,5.6,6.9,9.8,7.9,15.6c0.1,0.5,0.8,0.4,0.9,0c1.3-4.1-3-8.4-5-11.7
						c-1.9-3.2-2.9-5.8-2.7-9.6c0.2-3,1.2-7.1,1.8-9.3c3,4,5.7,6.6,6.2,12c0.4,4.5-0.3,8.8-0.5,13.3c0,0.2,0.2,0.2,0.3,0
						C281.9,306.7,279.1,298.6,271.5,292z"/>
					<path d="M245,379.3c-7.6,4.9-12.1,16.5-10,25.3c0,0.2,0.3,0.1,0.3,0c0.5-5.2,0.9-10,3.1-14.8c1.7-3.9,4.3-6.9,6.8-10.3
						C245.2,379.4,245.1,379.3,245,379.3z"/>
					<path d="M236.9,408.6c6-5.9,20.9-21.9,9.7-30c-0.1-0.1-0.2,0.1-0.2,0.2c3.5,6.2,3.2,12-0.9,17.8c-2.9,4.1-6.7,7.3-9.3,11.6
						C236.1,408.5,236.6,408.9,236.9,408.6z"/>
					<path d="M227.2,240.1c-0.2,0-0.4,0.1-0.5,0.2l0,0c0,0.1,0,0.2,0,0.3c1,1.6,2.6,2.8,3.9,4.1c1.6,1.7,2.7,3.8,4.2,5.5
						c1.7,1.9,4.4,3.2,6.9,2.5c0.2-0.1,0.2-0.4,0.1-0.4c-1.2-0.7-2.6-0.9-3.9-1.6c-1.8-1-2.7-2.7-3.8-4.3c-1.6-2.2-3.7-4.6-6.1-6
						c3.6-0.1,7.1-0.8,10.7,0.5c4.7,1.7,6.4,5.4,7.4,10c0.1,0.4,0.7,0.3,0.7-0.1c-0.5-4.1-1.5-8.5-5.3-10.7
						C237.2,237.9,231.5,238.5,227.2,240.1z"/>
					<path d="M221.4,388.8c2.6,1.9,5.9,2.6,8.6,4.4c0.3,0.2,0.6-0.2,0.3-0.4c-3.8-3-8.4-4.7-11.8-8.4c-2.3-2.6-4.5-5.4-4.6-9
						c-0.1-3,0.5-5.8,0.6-8.8c2.5,3.7,6.7,6.3,10.2,9.1c2,1.6,3.8,3,4.6,5.6c1,3.3,0.5,6.7,0.5,10.1c0,0.5,0.7,0.6,0.8,0.1
						c1.1-4.1,1.2-10.6-1.6-14.2c-3.5-4.5-10-7.7-14.3-11.4c-0.2-0.2-0.6,0-0.5,0.3c-2.7,5.3-2,11,1.2,15.8
						C217.2,384.4,219,387,221.4,388.8z"/>
				</g>
				<g transform="matrix(1,0,0,1,0,0)">
					<g transform="matrix(1,0,0,1,0,0)">
						<path class="st1" d="M504.5,340.2c-1.2-2.8-3-5.5-4.8-7.9c-1.5-2-2.6-4.1-3.1-6.5c-0.2-1-0.4-2-0.5-3.1c1.2,3.1,2.1,6,4.4,9.1
							c1.6,2,3.1,4.1,4.4,6.3l1.5-8.8c-2.8-4.8-7.3-10.7-10.8-13.9c-0.2-0.2-0.6-0.2-0.9-0.2c-0.5,0.1-0.9,0.4-1,0.6
							c-0.3,1-2.4,13.6,1.3,17.9c0.5,1.6,6.7,7.1,9.1,9.2L504.5,340.2z"/>
					</g>
					<g transform="matrix(1,0,0,1,0,0)">
						<path d="M504.2,342.1c-2-1.8-4.4-3.3-7-6.1c-6-6.7-2.5-20.1-2.5-20.1c0.7,0.4,6.1,5.9,7.8,8.3c1.3,1.8,2.6,3.7,3.7,5.7
							l0.4-2.1c-4.4-7.5-11.8-13.8-12.8-13.3c-0.4,0.2-3.5,14.8-0.4,19.5c2.4,3.7,6.6,6.9,10.5,9.6L504.2,342.1z"/>
					</g>
				</g>
				<g transform="matrix(1,0,0,1,0,0)">
					<g transform="matrix(1,0,0,1,0,0)">
						<path class="st1" d="M407.4,451.9c-0.5,1.3-1.3,3.8-1.3,5.2c0,0,7.4-6.7,8.5-13.7c1.1-7.7-4.5-16.4-4.6-16.5
							c0,0-6.2,11.7-6.7,14c-1.7,8.1,1.8,14.8,1.8,14.8c0.9-1.5,4-14.4,4.3-16.1C409.5,440.2,409.7,445.9,407.4,451.9z M398,439.9
							c0.1,0.8,0.1,1.7,0.2,2.5c0,0.4,0.6,0.5,0.7,0.1c2.1-6.4,0.5-13.1-1.1-19.4c-2.6-9.7-13.1-16.2-13.1-16.2
							c-0.2-0.4-0.9,17.3,1.1,22.9c2.1,6,9.9,10.8,10.8,11.3c0.4,0.2,1-0.2,0.7-0.6c-5.7-8-8-21.3-8-21.9
							C389.5,419.2,395.1,434.9,398,439.9z M395.8,453.7h0.1c1.9,1.1,3.9,1.7,5.2,0.6c0.1-0.1,0.1-0.4-0.1-0.4h-0.1
							c-0.3-1.3-0.9-2.5-1.8-3.4v-0.1c-0.4-2.2-1.7-3.7-3.4-4.9c-0.8-1.6-2.8-2.9-4.1-3.8c-1-0.7-2.2-1.3-3.5-1.7
							c-0.1-0.1-0.2-0.2-0.3-0.3c-0.3-0.2-0.7-0.2-1.1-0.3c-0.3-0.1-0.6-0.1-0.8-0.1c-0.3-0.4-0.6-0.7-0.9-1.1l0,0
							c-0.2-0.2-0.4-0.2-0.6-0.2c-0.1-0.1-0.2-0.3-0.2-0.4c-0.3-0.6-1.3-0.5-1.5,0.2c-0.2,0.8-0.1,1.7,0.8,2.1l0,0
							c-1,3,0.7,6,2.8,8.2c1.4,1.4,3.2,2.2,5,3.3C392.6,452.1,394.1,453.7,395.8,453.7z M386.3,443c1.3,1.5,2.9,2.8,4.5,3.8
							c0.4,0.3,0.8,0.5,1.3,0.8c0.9,0.7,2,1.4,2.8,2.1c0.3,0.2,0.5,0.5,0.8,0.8c0.6,0.7,1.1,1.3,1.4,1.8c-1.9-1.1-3.7-2.6-5.3-3.8
							C389.5,446.8,387.6,445.1,386.3,443z"/>
					</g>
					<g transform="matrix(1,0,0,1,0,0)">
						<path d="M404.6,456.8c0.3,0.7,1.4,0.1,1-0.6c-3.4-6.4-3.3-13.5,0-20c1.6-3.2,3.8-5.9,4.2-9.4c3.7,5.2,7.4,10.1,5.6,17
							c-1.6,6.1-6,9.7-10.5,13.6c-0.3,0.3,0.1,0.7,0.4,0.5c5.9-3.2,10.9-9.4,11.7-16.2c0.6-5.3-1.9-13.2-7.1-15.6
							c-0.1-0.1-0.2-0.2-0.3-0.2l0,0h-0.1c0,0,0,0-0.1,0l0,0c0,0-0.1,0-0.1,0.1c-2.3,5.3-6.2,9.9-7,15.8
							C401.5,446.8,402.7,452.3,404.6,456.8z M398.3,422.6c1.7,6.7,2.1,13.2,0.1,19.9c-2.6-4.5-8.1-5.3-10.8-11.8
							c-3.1-7.5-1.8-15.6-3-23.4c3.1,2.8,6.8,4.8,8.9,8.7c2.2,4.1,2.8,8.5,4.1,12.9c0.1,0.4,0.8,0.4,0.8-0.1
							c-0.3-10.3-5.1-17.3-13.9-22.3l0,0c0,0,0,0-0.1,0c-0.2-0.1-0.5,0.2-0.3,0.4l0.1,0.1c-0.7,4.2-0.4,8.6-0.5,12.9
							c-0.1,3.4-0.1,7.1,1.2,10.3c2.7,6.6,9.6,10.2,13.9,14.4c0.2,0.2,0.6,0,0.5-0.3c-0.1-0.4-0.3-0.8-0.5-1.1
							c3-6.6,4.1-14.3,0-20.7C398.6,422.2,398.2,422.3,398.3,422.6z M401.5,454.2c-2.7,0-5.3-0.3-7.6-1.7c-1.7-1-3.1-2.3-4.8-3.3
							c-4.5-2.7-6-6.7-5.7-11.6c0.2,0.3,0.5,0.5,1,0.8c1.9,1.2,4,1.9,5.9,3.1c4.3,2.9,6.9,6.4,10,10.5c0.2,0.2,0.6,0.1,0.5-0.2
							c-1.2-3.6-3.9-6.8-6.8-9.2c-1.3-1.1-2.8-2.1-4.4-3c-1.5-0.8-5.3-1.7-6.2-3c-0.1-0.1-0.1-0.1-0.2,0c-0.1,0-0.3,0-0.3,0.2
							c-1.7,4.3,0.4,9.6,3.9,12.3c1.1,0.8,2.3,1.4,3.4,2.2c1.2,0.9,2.2,2.1,3.5,2.9c2.5,1.3,5.1,1.1,7.8,0.9
							C402.1,455,402.1,454.2,401.5,454.2z"/>
					</g>
				</g>
				<g transform="matrix(1,0,0,1,0,0)">
					<g transform="matrix(1,0,0,1,0,0)">
						<path class="st1" d="M366.6,478.6c-0.3,0.1-6,8.6-5,15.4c1.2,8.2,7.3,14.8,7.3,15.1c-0.1,3.7,5.5-7,5.6-9
							C375.6,487.2,366.6,478.4,366.6,478.6z M367.6,490.6c0.5,2,0.9,3.5,0.9,5.6c0.1,3.2-0.7,7.4,0,10.6
							C366.5,501.7,368.1,496,367.6,490.6z M356.2,484.7c0.5-0.9,11.2-18.6-3.4-31.9c0-0.6-3.9,7.1-3.4,16.6
							c0.1,2.5,1.2,7.7,2.1,10.1c0.9,2.5,3,8.3,3,8.5c0,0.1,0.2,0.1,0.2,0c1.5-7.6-0.2-21.3-0.2-22.3c0.4,1.2,3.4,10.6,1.2,20.5
							C355.6,486.3,356.1,484.9,356.2,484.7z M351,487.9c0.4,0-0.1-5.8-7-12.8c-5.2-5.2-14.7-9.6-16.7-10.3c0,0-0.9,0.4-0.5,1.3
							c0.3,0.7,3,11.8,6,15.1C336.4,485.4,350.6,487.9,351,487.9z M333.1,473.7c0.1,0.1,0.3,0.3,0.4,0.4c1.6,1.7,9.4,8.6,11.7,10.4
							C337.2,481.5,333.8,474.7,333.1,473.7z M341.7,493.8c-0.2-0.1,0.7,5.7,4.5,9.1c2.2,1.9,9.1,4.1,13.2,4.6
							c0.4,0,3.5,0.2,3.3-0.3C359.7,498.9,346.2,495.8,341.7,493.8z M351.9,503.2c-1.6-0.8-3-1.8-4.2-3c1,0.6,6.9,2.9,8.7,4
							c0.9,0.5,1.7,1.2,2.5,1.8C356.6,505.1,354.2,504.3,351.9,503.2z M345.1,466.1c0.4,0.1-0.9-8.9-0.9-11.7
							c0-4.8-4.7-21.4-13.5-22.2c-0.7-0.1,0.7,6.1,0.6,8.5C331.2,446.8,328.4,459.5,345.1,466.1z M342.9,463.3
							c-2.7-3.7-5.2-7.1-6.3-11.6c-1-4.2-1.2-8.6-1.9-12.9c0.2,0.6,1.5,8.9,3,13.7C339.2,457.4,342.9,463.3,342.9,463.3z"/>
					</g>
					<g transform="matrix(1,0,0,1,0,0)">
						<path d="M330.1,433c-0.1,6.9,0.1,15.1,1.8,21.8c1.3,5.5,5.6,7.8,10.3,10.3c0.2,0.1,0.4-0.1,0.2-0.3c-1.3-1.3-2.7-2.3-4.2-3.4
							c-4-3.1-5.5-6.1-6.1-11.1c-0.7-5.7,0.3-11.8-1.6-17.3C330.5,432.7,330.1,432.7,330.1,433z M330.4,431.7
							c-0.1,0.1,0,0.2,0.1,0.2c6.4,0.3,12.5,10.9,14,16.4c1.6,5.8-1,11.8,0.5,17.6c0.1,0.5,0.8,0.4,0.9-0.1c0-4.8,1.4-9.9,0.9-14.7
							c-0.4-3.6-2.1-7-3.9-10C341.1,438.3,334.2,428.2,330.4,431.7z M348.6,470.7c0.7,6.2,2.9,12.1,5.3,17.8
							c0.2,0.4,0.8,0.1,0.7-0.3c-1.5-5.6-3.7-11-4.5-16.8c-1-6.6,0.7-12.2,2.5-18.4c4.5,4,7.2,9.9,7.5,15.9
							c0.3,6.1-2.8,10.9-4.3,16.6c0,0.1,0.1,0.2,0.2,0.1c4.6-7.6,6.8-16.7,4-24.4c-1.3-3.7-3.8-7.1-7.8-9.8
							C352.2,451.5,347.6,461.3,348.6,470.7z M325.1,464.3c0,0,1.8,4.4,5.3,14.8c0.9,2.7,5,5.8,8.6,6.6c3.9,0.9,8.3,0.8,11.9,2.6
							c0.4,0.2,0.5-0.5,0.1-0.9c-1.6-1.4-2.4-1.3-4.5-1.6c-4.6-0.5-9.7-1.7-13-5.2c-4-4.1-3-10.6-6.4-14.9c1,0.4,10.5,4.7,12.9,6.6
							c4.6,3.7,8,9,11,14c0.3,0.4,1,0.1,0.8-0.3C346.2,469.8,327.6,464.8,325.1,464.3z M375.3,495c-0.4-5.8-4.9-12.2-8.3-16.7
							c-0.2-0.2-0.4-0.2-0.6-0.1h-0.1c-3.2,5-6.5,9.8-5.7,16c0.8,6.1,4.4,11.6,8.3,16.2c0.2,0.3,0.7,0,0.6-0.3
							C372.6,505.1,375.7,501.4,375.3,495z M373.9,499c-0.7,4.1-4.1,6.9-4.6,10.8c-3.1-5-6.7-9.7-7.4-15.7c-0.5-3.7,0.2-7,2.1-10.3
							c1-1.7,1.9-3,2.4-4.9C370.4,484.2,375,492.2,373.9,499z M340.8,493.2c1.1,12.7,12,14.7,22.7,15c0.3,0,0.3-0.4,0.1-0.5
							c-4.1-1.6-8.7-1.4-12.8-2.8c-5.5-1.8-7.1-5.8-8.7-10.7c2.4,1.9,5.6,2.2,8.5,3.3c4.8,1.9,8.2,5,11.6,8.8c0.4,0.4,1-0.1,0.8-0.6
							c-1.9-3.3-5-6.1-8.3-8c-4.1-2.4-9-2.3-13-4.7C341.3,492.7,340.7,492.7,340.8,493.2z"/>
					</g>
				</g>
			</g>
		</g>
	</g>
	<g id="Слой_5__x28_копия2_x29_">
		
			<g transform="matrix(0.9377821087837219,-0.1518707573413849,0.15657874941825867,0.9668533205986023,-5.39697265625,56.232879638671875)">
			<g transform="matrix(1,0,0,1,0,0)">
				<g transform="matrix(1,0,0,1,211.37600708007812,159.11099243164062)">
					<path class="st0" d="M-119.5,241.1l-7-1c0,0,4-5,7-8s3-16,3-16l-6-3c0,0,2-6,5-10s5-13,5-13l-9-3v-12l-13,5l7-29c0,0-3-19-5-22
						c-2-3-7-12-7-15c0-3-19-8-20-7s-5,15-5,14c0-1-5-6-5-6c-4,2-11,27-11,27l-9-17l-32-79.1c0,0,0-9-1-19s-8-15-8-15l-7,11
						c0,0-1-3,0-9s-1-15-1-15c-0.3,1.2-1.1,2.4-2.2,3.7l-48.4,289.7c1.3,0,2.6-0.1,4.1-0.2c22-1,31,5.8,31,5.8l42.5,4.2l49-8
						c0,0,10-9,22-11s8-9,8-9l-1-5c0,0,6-9,9-15C-121.5,248.1-119.5,241.1-119.5,241.1z"/>
				</g>
				<g transform="matrix(1,0,0,1,84.18900299072266,135.99899291992188)">
					<path class="st1" d="M-26.8,250.4c1.4-2.6,1.3-10.8-1.1-16.2c-1.9-4.4-6.8-8.5-6.9-8.1c0,0.1-5.5,9.8,1.6,19.1
						c0.2,0.3,5.1,4.3,5.4,4.5c0.2,0.2,0.5-0.1,0.4-0.3c-3.9-6.4-4.9-13.2-4.9-13.3c0.4,2,3.8,8.5,4.8,11.8
						C-27.4,248.4-27.1,250.8-26.8,250.4z"/>
					<path class="st1" d="M-15.2,209.3c0.3,0,0.4-0.2,0.3-0.5c-2.9-7-0.4-13.3-0.3-13.5c-0.6,4.4-0.4,8.6,0.7,12.9l0,0
						c0,0.5,0.7,0.6,0.9,0.1c0.7-2,3.5-6.6,3.1-13.5c-0.5-7.9-5.9-17.3-6-16.3s-1.1,9.4-3.5,15.7c-1,2.5,0.6,8.3,1.4,10.9
						C-18.5,206.3-16.2,209.3-15.2,209.3z"/>
					<path class="st1" d="M-26.7,226.5c0.1,0.1,2.9,2.6,3.1,2.3c2.1-4.2,2.3-12.5,1-16.9c-3.1-10.9-7.2-12.9-7.5-12.6
						C-30.7,199.9-39.5,214.9-26.7,226.5z M-28.3,216.2c0.9,1.9,1.7,3.9,2.3,5.9c0.6,1.9,0.9,3.9,1.7,5.6l0,0c0,0.1,0,0.1,0,0.2
						c0,0,0,0,0-0.1c-1.6-3-3.1-6-4.2-9.3c-0.6-1.8-1-3.7-1.2-5.5C-29.3,214.1-28.8,215.2-28.3,216.2z"/>
					<path class="st1" d="M-21.7,233.5c0,0.1,5-8.9,10.1-10.4c-3.5,2.7-10.5,11.9-10.5,15.4c0,0.1,0.1,0.1,0.2,0.1
						c0.6-0.7,4.7-3.8,9.2-5.9c8.3-3.9,9.9-12.3,9.2-17.7c-0.1-0.9-0.7-1.6-1.7-0.2c-1.5,2.1-8.3,3.8-14.8,13.6
						C-20.1,228.5-21,230.9-21.7,233.5z"/>
					<path class="st1" d="M-67,299.8c0,0,0.9-4.2,1.6-5.9c1.6-4.2,3.7-6.9,4-7.4c-0.4,1.1-4.2,10.1-3.1,13c0.1,0.2,6.9-4.3,8.8-9.1
						c1.9-4.9,1.9-11.9,0.1-17.8c0,0-8.3,9.4-9.6,12C-67.5,288.9-69,294.9-67,299.8z"/>
					<path class="st1" d="M-104.3,144.5c-1.3-0.6-2.8-0.6-4.1-1.2c-0.1,0-0.1,0-0.2,0s-0.3,0-0.4,0.1c-1.5,3,2,6.2,4.4,7.4
						c1.9,0.9,6.4,2.6,8.7,1.3c1.2,0.2,2.5,0,3.8-0.4c0.3-0.1,0.3-0.5,0.1-0.7c0.1-0.2,0.1-0.4-0.1-0.5c-1.9-0.9-3.4-2.5-4.8-4.2
						c0.1-0.1,0.1-0.2,0.2-0.3c0.2-1.4-0.8-2.8-1.9-3.5c-0.7-0.5-1.9-0.8-2.8-0.5c-2-1-4.6-1.4-6.7-0.8c-0.3,0.1-0.4,0.5-0.1,0.7
						c1.4,0.7,3.1,0.8,4.5,1.7c1.5,1.1,2.6,2.7,3.8,4.1c0.1,0.1,0.1,0.1,0.2,0.2c-0.7-0.5-1.3-1-2-1.6
						C-102.5,145.6-103.3,145-104.3,144.5z"/>
					<path class="st1" d="M-110.2,135.9c4.9-5,10.5-5.6,11.4-5.6c-0.8,0.3-8,3.1-8.6,6.2c0,0.1,1.3,1.8,5.6,1.9
						c2.4,0.1,5.3-0.8,7.4-2c3-1.8,5.9-6.9,7.5-11.7c0,0-11.4,2.3-16.2,2.6C-109.4,127.6-110.1,135.4-110.2,135.9
						C-110.4,135.9-110.3,136-110.2,135.9z"/>
					<path class="st1" d="M-84.7,136.2c-0.3,1.8-0.6,3.6-0.6,5.5c0,2.3,0.2,4.5,0.4,6.7c0.2,3.7,1.5,7.5,4.2,10.2
						c0.3,0.3,0.6,0.2,0.8,0.1c0.3,0.5,0.6,0.9,1,1.4c0.1,0.1,0.3,0,0.3-0.2c-0.5-3.2-2.1-6.2-2.8-9.3c-0.3-1.4-0.3-2.9-0.3-4.3
						c0-0.4,0.1-0.7,0.1-1.1c0-0.2,0-0.3,0.1-0.5c0,0.2,0.1,0.4,0.1,0.7c0.5,2.9,1.7,5.5,2.4,8.3c0.7,2.8,0.5,5.7,1,8.5
						c0.1,0.3,0.5,0.3,0.6,0c0.1-0.4,0.2-0.7,0.3-1.1c0.1,0,0.1,0,0.2-0.1c0.3-0.4,0.6-0.7,0.9-1.1l0,0c0.5-0.7,0.8-1.5,1.1-2.3
						c0,0,0.1,0,0.1-0.1c1.1-0.8,1.4-2.2,1.5-3.6c0-0.4,0-0.7-0.1-1.1c0.2-0.8,0.3-1.7,0.3-2.6c-0.1-1.9-0.9-3.7-1.6-5.4
						c-0.6-1.4-0.9-2.9-2.5-3.2c-1.5-3.1-3.8-5.9-6.4-7.9c-0.2-0.2-0.6-0.1-0.8,0c-1,0.6-0.7,1.5-0.2,2.3
						C-84.8,136.1-84.7,136.2-84.7,136.2z"/>
					<path class="st1" d="M-50.4,195.5c0.5-3,0-6,0.7-8.9c0.6-2.7,2.1-4.8,3.6-7.1c-0.4,2.7-2.2,4.9-2.7,7.6
						c-0.6,3.5-0.7,7.3-0.8,10.9c0,0.5,0.6,0.5,0.8,0.1c1.8-5,5.1-9.2,7-14.2c1.9-4.9,0.6-9.4-0.5-14.2c0.3-0.7-0.1-1.5-1-1.6
						c-0.1,0-0.2,0-0.3,0c-0.8,0-1.2,0.7-1.1,1.4c0,0.3,0.1,0.6,0.1,0.9c0,0.1-0.1,0.1-0.1,0.2c-1,2.3-2.1,4.5-3.4,6.6
						c-1.2,1.9-2.6,3.6-3.4,5.7c-1.6,4.2-2.2,8.7,0.1,12.7C-51.1,195.9-50.5,195.9-50.4,195.5z"/>
					<path class="st1" d="M-71.6,279.2L-71.6,279.2c-0.3,0-0.6,0.1-0.8,0.3c-1.6-0.6-3.5-0.3-5.1-0.1c-2.6,0.4-5.3,1-7.8,1.9
						c-3.5,1.4-6.2,4.4-7.9,7.7c-0.5,0.6-1,1.3-1.3,2c-0.1,0.2,0.1,0.4,0.3,0.3c0.1,0,0.1-0.1,0.2-0.1c-1.7,1.6-3.3,3.4-4.1,5.3
						c0,0.1,0.1,0.1,0.1,0.1c3.1-1.9,5-5.2,8.1-7.2c1.2-0.7,2.5-1.2,3.8-1.6c-0.7,0.5-1.4,1-2,1.5c-2.7,2.1-6.1,4.6-8,7.5
						c0,0.1,0,0.2,0,0.2l0,0c-0.1,0.1-0.1,0.3,0,0.4c1.8,1.4,5.2,0.6,7.4,0.2c3.2-0.6,6.2-2,8.8-4c2.2-1.6,4.1-3.7,5.8-5.9
						c1.4-1.9,3.8-5.1,3.6-7.5C-70.6,279.6-71,279.2-71.6,279.2z"/>
					<path class="st1" d="M-46.3,311.3c0-0.1-12.5-9.2-20.1-8c-1.4,0.2-5.6,0.8-5.7,2.8c0,0.1,0.1,0.4,0.1,0.4
						c1.9,1.8,9.7,2.6,11,2.7c-3.4,1-10.4-0.8-10.7-0.6c-0.3,0.2,4.7,4.8,9.8,5.6c2.4,0.4,4.5,0.2,6.8-0.4c2.8-0.8,5.5-1.5,8.4-1.3
						C-46,312.6-45.9,311.6-46.3,311.3z"/>
					<path class="st1" d="M-89.5,308.4c-0.1,0-0.1,0.1-0.2,0.1c-3-2.1-8.1-0.6-11.3,0.1c-3.9,0.9-7.6,2.1-10.9,4.4
						c-0.3,0.1-0.6,0.3-0.9,0.5v0.1c1.8,0.7,4,0.1,5.9-0.1c0.5,0,0.9-0.1,1.4-0.1c-0.7,0.2-1.3,0.5-2,0.6c-1.4,0.4-4.7,0.3-5.3,1.9
						c-0.1,0.1,0,0.3,0.1,0.4c0,0.1,0,0.1,0.1,0.1c8.5,5.3,17-2.3,23.9-6.9C-88,309.2-88.7,307.9-89.5,308.4z"/>
					<path class="st1" d="M-13.5,262.4c-15.8,3.9-17.8,17-18.1,18.7c0,0.2,0.3,0.4,0.4,0.2c3.3-6.9,8.7-9.5,9.8-10
						c-0.9,0.6-8.4,7.3-8.5,10.4c0,0.1,0.4,0.5,0.5,0.5c23.7-4.1,23.6-16.9,25.6-22.6C-3.4,258.6-10.1,261.6-13.5,262.4z"/>
					<path class="st1" d="M-28.9,290.3c-8-4.8-17.9-1.7-17.9-1.7c5.1-2,11-10.3,12.6-21.4c0.7-4.6-0.8-7.7-0.9-7.4
						c-1.2,2.3-8.6,10.8-12.7,17.4c-1,1.6-0.4,7.2,0.3,10.8c0.2-1,2-7.5,3.3-9.8c0.8-1.4,1.7-2.6,2.8-3.8c-0.3,0.6-0.6,1.2-0.9,1.8
						c-1.5,3.3-4.9,11.1-5.2,11.8c0.3,1.8,0.7,3,0.8,3h0.1c3.4-0.5,10.9,0.8,11.1,0.9c-3.7-0.8-7.9-0.4-10.6,0.8
						c-0.2,0.1,1.7,2.2,1.9,2.4c1.8,2.1,6.1,3.3,8,3.7c4,0.9,14.8-0.9,14.7-0.9C-21.4,297.8-26.2,291.9-28.9,290.3z"/>
					<path class="st1" d="M-157.2,302.4c-0.2,0.1-1.8-0.2-2.6-0.3l-0.8,5c2-1.6,3.6-3.2,4.2-4C-156.1,302.7-156.7,302.2-157.2,302.4
						z"/>
					<path class="st1" d="M-116.7,291.9c-0.2-0.7-1.2-0.6-1.3,0c-0.6-0.1-1.2,0.2-1.5,0.9c-1,2.6-3.8,4.3-5.5,6.5
						c-0.4,0.5-0.8,1.1-1.2,1.7c-4,3.2-2.2,9.6-2.4,14.2c-0.2,0.7-0.4,1.4-0.7,2.1c-0.2,0.3,0.2,0.7,0.5,0.4l0,0
						c-0.2,0.4,0.2,0.7,0.5,0.4c2.6-2.2,2.6-7,3.3-10c0.6-2.7,1.5-5.1,3.1-7.1c-0.7,1.3-1.1,2.6-1.5,3.7c-1.1,3.9-1,8-2.2,11.8
						c-0.1,0.1-0.1,0.1-0.2,0.2c-0.3,0.3,0.1,0.7,0.4,0.5c3.8-2.1,6.2-6.1,7.5-10.1c0.8-2.5,1.3-5,1.5-7.6
						C-116.1,297.1-115.9,294.3-116.7,291.9z"/>
					<path class="st1" d="M-103.4,278.6c-0.7,1.6-2.3,13-2.7,15.6c0,0.3,2.6-0.4,2.9-0.9c10.3-11,5.9-29.2,5.8-29.2
						c-0.4-0.1-0.9,0-1.6,1c-3.3,4.4-5.5,9.2-9.1,14.4c-2.6,3.8-0.4,13.6-0.4,13.5C-107.7,286.9-104.2,279.8-103.4,278.6z"/>
					<path class="st1" d="M-88.6,171.7c0.2,3,1.8,6,4.5,7.6c0.3,0.2,0.5,0.1,0.7-0.1l0,0c1.4,1.8,3.1,3.4,4.8,4.5
						c0.2,0.1,0.4-0.1,0.4-0.3c-0.2-1.5-1.3-2.4-2.4-3.4c-1.9-1.7-2.9-3.4-3.7-5.8c-0.6-1.8-0.6-3.7-0.7-5.5
						c0.6,1.7,1.1,3.5,1.7,5.2c0.9,2.7,3.1,4.3,4.6,6.5c0.3,0.8,0.7,1.5,1,2.3c0,0.1,0.1,0.1,0.2,0.1c0.2,0.4,1,0.2,0.8-0.4
						l-0.1-0.5c0-0.1,0-0.2,0-0.2c0.3-1.2,0.5-2.5,0.9-3.7c0.7-1.8,1.5-3.5,2.3-5.2c0.9-2.1,2-3.8,3.3-5.4c-1,1.8-1.9,3.6-2.8,5.4
						c-1.5,3-3,6.3-2.4,9.7c0,0.1,0.2,0.1,0.2,0c0.1-0.2,0.1-0.5,0.2-0.7c0,0.1,0,0.3,0,0.4c0,0.1,0.1,0.2,0.2,0.1
						c1.6-1.5,2.3-3.7,3.3-5.5c0.4-0.8,0.8-1.6,1.3-2.4c0.1,0,0.1,0,0.2-0.1c3-2,4.3-5.4,5.2-8.7c0.3-1.1,0.6-2.1,0.7-3.2
						c0.2-1.2,0.4-2.4,0.3-3.8c-0.1-1.5-1.9-1.9-2.7-1.1c-0.5-0.1-1-0.1-1.4,0.3c-1.8,1.9-3.8,4.2-5.2,6.5c-1.5,2.3-2.3,4.3-2.7,6.8
						c-0.3,1.2-0.5,2.5-0.4,4c0,0.2,0.2,0.3,0.3,0.4c-0.4,1-0.9,2-1.2,3c0-0.1,0-0.1,0-0.2c-0.2-1.6-0.6-3.7-1.8-4.9
						c-0.1-0.1-0.2-0.1-0.4-0.1c0-0.9-0.1-1.7-0.3-2.6c0-0.1-0.1-0.2-0.2-0.2c-0.1-1.3-0.3-2.7-0.8-3.8c-0.6-1.7-2-4.2-4-4.3
						c-0.5-0.7-1.1-1.3-1.8-1.7c-0.7-0.5-1.6-0.6-2.5-0.8c-0.3-0.1-0.7,0.2-0.5,0.5c0.2,0.5,0.4,0.8,0.6,1.1
						c-0.2,1.1,0.1,2.2,0.3,3.4C-88.3,167.2-88.8,169.4-88.6,171.7z"/>
					<path class="st1" d="M-106.4,250.2c-0.3,0-4.7,3.4-6.6,5.3c-2.2,2.2-1.5,1.5-1.5-0.9c-0.1-13.8-8.9-25.2-10.7-26.4
						c-0.1-0.3-4.9,10.4-5.8,16.7c-0.7,4.6,1.4,12.1,3.2,17.5c-2.1-3.5-8.5-10.6-11.8-11.3c-0.8-0.2-1.1,15.8,1.5,21.5
						c0.4,0.9,5.3,4.4,6.1,4.7c1,0.4-1.3-7.9-2.5-10.9c-0.8-1.9-0.9-3.9-1.1-5.8c0.6,1.7,1.2,3.5,1.9,5.2c1.3,2.8,4,9.2,4.3,9.3
						c3.6,0.5,3-6.9,2.5-10.2c0.9,2.5,1.6,4.1,1.7,4.1c1.9-3.4,2.6-15.7,2.6-17.8c0.3,2.2,0.5,10.5,0.2,12.4
						c-0.2,1.7-0.1,6.4,1.7,7.5c0.8,0.5,6-2.2,7.2-3.2C-106.6,261.8-105.5,250.2-106.4,250.2z M-113.8,261.5
						c-2.3,2.7-5.2,4.9-7.1,7.8v0.1h-0.1c0.1-0.2,0.1-0.5,0.2-0.8c0.2-0.5,0.4-0.9,0.6-1.4c1.9-2.3,3.8-4.6,5.9-6.7
						c1.2-1.1,2.3-2.2,3.6-3.3C-111.7,258.7-112.7,260.1-113.8,261.5z"/>
				</g>
				<g transform="matrix(1,0,0,1,306.68701171875,168.26499938964844)">
					<path class="st2" d="M-275.5,157.6c1.4-7.6-2.7-16-8.7-20.6c-0.1-0.1-0.1,0-0.2,0c0-0.1-0.1-0.1-0.1,0
						c-4.7,9.6-0.2,22.5,9.5,26.9c0.4,0.2,1-0.1,0.8-0.6C-275,161.5-275.3,159.6-275.5,157.6z"/>
					<path class="st2" d="M-321.3,192.8L-321.3,192.8c0.1,0,14.1-11.8,9.1-21.2c-0.1-0.2-4.1,4-4.4,4.2c1.5-10.4-6.5-22.8-6.7-22.9
						c0.1-0.1-7.8,9.7-5.4,22c-2.4-3.6-7.3-4.6-7.3-4.4C-337.1,184.2-321.6,193.1-321.3,192.8z"/>
					<path class="st2" d="M-253.1,257.8c7.1,3.7,20.3-9.1,20-9c-2.8,0.8-8.1-0.2-11.1,0.5c-7.5,1.9-9.1,0.2-9.9,0.1
						c3.2-6.7,4.8-14.3,12.5-17.7c0.4-0.2,10.8-3.6,13.9-4.4c0.3-0.1-12.7,1.9-13.9,2.1c2.2-3.6,2.3-8.8,2-12.7
						c0.2-0.5-6.9,4.9-10.4,7.5c-2.5,1.9-4.6,4.7-4.7,7.8c0.3,15.5-11.9,22.9-11.7,23C-265.3,255.5-259.9,254.3-253.1,257.8z"/>
					<path class="st2" d="M-335.8,222.3c0.5-0.3,0.9-0.6,1.4-1c0.1,0,0.2,0,0.3-0.1c0.4-0.1,0.7-0.4,1-0.7c0.3-0.2,0.6-0.5,0.8-0.9
						c0.2,0.3,0.8,0.2,0.8-0.3c0.1-8.1-4.6-14.1-10.6-19c-0.2-0.1-0.4,0.1-0.2,0.2c0.4,0.5,0.9,0.9,1.3,1.4c-0.1,0-0.1-0.1-0.2-0.1
						c-0.3-0.1-0.6,0.2-0.5,0.5c0.8,3.2,2.9,6.1,4,9.2c0.5,1.4,1,2.9,1.3,4.4c0.2,1.1,0.2,2.1,0.3,3.2c-0.6,0.5-1,1.1-1.2,1.9
						C-337.7,222-336.7,222.7-335.8,222.3z"/>
					<path class="st2" d="M-282.4,185.7c0.7,1.4,1,9,1,9c11.8-3.7,18.7-19,20.1-28.9c0-0.3-0.2-0.6-0.4-0.3
						c-4.2,4.4-10.3,4.9-14.9,8.7C-279.6,176.6-284.2,182-282.4,185.7z"/>
					<path class="st2" d="M-222.2,256.9c-2.5,0.7-3.5,2-5.8,2.4c3.1-1.7,8.3-7,11.6-10.7c3.7-4.2,9.2-15.6,8.6-21.5
						c-0.3-2.8-3,0.6-12.4,3.3c4.5-2.9,9.3-7.6,11.6-12.2c1.2-2.4,6.5-17.2,6.5-17.2c-6.3-2-14,2.5-15.7,5c0,0.1,2.1-6.2,8.6-11.3
						c6.1-4.8,9.9-20.6,9.9-20.6c-4.7,0.4-14.8,1.4-16.1,2.3c1.4-0.8,4.2-5.2,5.6-7.5c4-7.1,2-13.6,2-13.6
						c-4.7-1.9-16.8,11-20.4,14.9c-0.5-8.8,7.3-22.4,9.5-30.9c2-7.7,1.5-15.6-0.3-23.3c-0.3-1.4-4.1-17.3-6.4-17.2
						c-2,0.1-6.8,12.6-7.2,13.7c3.1-9.5,0.7-19.3-4.2-27.7c-0.6-1.1-8.6-13.1-10.3-12.2c0,0,0.1,2.6-0.6,5.7
						c-1.3,5.1-3.7,12.4-3.5,17.6c-0.1-2.4-3.5-3.4-5.1-5.2c-0.5-0.5-3.2,7.6-3.2,7.6c-1.2,5.6,0.4,10.4,0.9,15.8
						c-2.7-2.5-4-9.4-7.7-8.6c-5.2,1.1-8,18.7-8.5,22.1c1.5-10.3-8-20.8-5.6-33.2c-0.2,0.9-8.2,0.6-12.1,6.9c4.4-7.1,5.4-15.8,5-24
						c0-0.2-1.3-12.5-2.4-12.2c-2.3,0.8-5.5,4-7.1,5.8c0.8-6.1,0.8-16.1-2.5-21.6c-1.1,1.2-2.1,2.4-3.1,3.7c0.6-12,0.8-21-3.3-32.6
						c0.6,1.6-9.5,12.1-10.9,14.7c-1.6-1.4,1.4-15.3,0.8-18.2c-0.5-2.7-10-17-9.6-17.8c-2.1,4.3-5.4,7.9-7.7,12.2
						c-0.2-7.1,3.9-13.4,0-20.3c-0.5-1-2.6,12-2.6,12.6c-0.2,2.5-0.8,5.4-0.4,7.9c0.4,2.3,6.1,8.8,6.1,8.3c-0.5-6.1-0.5-7.7,3.6-13
						c2.8,13,4.4,17.8-1.1,30.5c-2.8-5.6-9.1-7.1-13-11.4c3.7,4.1,2.8,14.4,5.1,19.6c-2.2-1.1-5-3.7-6.2-5.8
						c1.7,2.8-0.9,9.5,0.8,13.1c3.2,6.7,8.2,4.2,13.1,7.8c-1.4,0.3-12.5,3.6-13.5,2.3c8.3,11.3,20.8,6.4,30.1,14.3
						c-2.9,0-5.8,0.9-8.1,2.6c0.1-0.1,6.8,5.8,7.9,6.6c6.9,5.1,11.4,7.2,14.1,16.2c1.4,4.7,2.1,11.5,1.5,16.3
						c-0.6,4.5-2.9,7-4.8,11.7c-0.5-3.5-8.5-5.9-11.1-3.3c2.9-2.2,10,11.1,11.8,14.9c0.6-3.8,10.4-17.5,12.1-18.5
						c-1.3,0.8,12.3,21.7,12,24.5c0.1-1,2.3-4.3,2.6-5.5c1.2-4.7-1.5-9.3-0.7-13.5c1-5.7,6.1-13.1,9.4-17.9
						c1.6,3.8,6.6,6.5,7.1,10.7c-0.7-5.3,3.9-11.6,3-17.5c1.5,1.1,5,9.9,6.1,9.8c0.5,0.2,4.8-6.6,5.2-7.1c0.3,7.4,3.6,15.2,4.6,22.6
						c0.9-2.8,7.1-7.2,9.4-8.5c2.7,8.8-1,16.8-2.1,25.5c-1.4,11.1-0.3,20.1-5.4,30.7c-5.8-5.7-6.1-9.6-5.3-17.3
						c0.4-3.8,1.1-5.9-1-10.2c-0.6-1.3-6.5-7.6-6-8.8c-9,19.4,11.7,38,2.4,56.2c-1-1.8-9.4-6.1-11.3-5c-2.3,1.3-2.8,8.3-2.3,11.1
						c0,0,2.3-10.5,3.1-9.9c6.8,5.6,9.3,13.3,9.1,20.4c0-0.8,19.5-7.6,20.9-21c-1.9,2.9-16.4,12.5-17.1,13c-3.3-6.9,5-13.9,8.4-18.6
						c5.2-7,7.4-13.3,15.8-17.8c-2.3,6,0.4,12.5-2.7,18.8c0.6-1.3,8.4-3.8,10-4.5c-2,3.1-18,28-13.2,31.3c-1.5-1.5,11.4-5.9,11.8-6
						c-2.3,3.3-1.9,7.4-4.7,11c-2.5,3.2-5.5,5.7-7.3,8.8c0,0-2.2,7.3-3,8.5c5.5-1.3,9.5-1.2,10.7-2.3c-1,3.3-25.2,32.4-15.4,31.5
						c-4.7,3.5-16.8,6.5-21.7,3.4c-9-3.2-11.9-3.2-15.1-12.8c-1.1-3.4-1.6-7.1-0.3-11.6c1.8-5.9,6.4-10.1,7.8-16.2
						c1.1-4.9-2.1-10.7-2.1-13.4c0.1,8.7-9.3,13.8-11.3,21.9c-1.3,5.2,1.2,10.7,0.9,15.5c-0.2,2.9-1.5,9.2-6.8,12.2
						c-2.1,1.2-6,3.6-6,3.6c-3.4-2.1-2.1-11.7-1.8-14.4c-1,8.9-26.5,10-31.8,10.2c3.9-4.8,5.5-10.8,10.5-14.4
						c4.6-3.3,10.5-1.9,15.3-4.2c4.5-2.1,17.6-11.7,17.4-29.7c0,0-5.1,12-11.2,15.2c-4.3,2.3-10.1,2.9-14.7,2.8
						c3.6-4.4,4-10.8,7.1-14.3c2.4-2.6,7.9-4.7,11-6.3c8.5-4.2,21-10.1,24.9-19.5c-2.6,3.7-16.8-2.4-21.6,4.4c0,0-6.8,9.2-12.5,8.4
						c-2.7-0.4-1.3-7.5-1.2-12.4c0.9-9.6-1.9-15.2-7.1-21.8c0.7,0.9-2.8,11.6-2.9,13.6c-0.4,6.5,1.3,10.8,3.4,16.9
						c4,11.5,3.9,18.8-2.3,30.3c-3-4-4.6-8.2-6.7-12.6c-1.1-1.5-5.7-9.5-6.5-13.5c0.5,2.3-2.2,7.3-2.5,10.1
						c-0.7,6.4,1.2,11,3.3,16.8c3.5,9.7,1.8,18.7-5.8,26.9c-5.8,6.3-7.1,5.2-7.4,4c-0.3,0-1.2-22.9-4.3-23c-1.3,0-5,11.4-4.9,13.2
						c0.1,2.3,1.7,1.7,2.1,3.3c2.6,12.8,0.6,21.7-12.8,27c0.3-1.9,0.8-23.3,4-22.1c-2.6-0.9-7-0.1-9.2,1.1c2-5.2-0.8-12.1,1.5-16.6
						c-2.8,5.7-9.5,3.8-11.1,12.5c-2.3-0.7-8.6-2-9.2-4.6c0,0-0.5,0.1-0.3,0.3c1.4,2.2-0.9,11.9-4.2,12.4c-0.2,0.8,0.1,1.1,1.1,0.7
						c-1.2,2.1-2.7,3.7-4.3,5l-3.4,20.6c0.1,0.3,0.2,0.6,0.3,0.9c4.8-4.6,11.9-4.6,17-8.8c-0.5,6.4-2,12.7-4.1,18.8
						c8.3-0.3,17.8-2.7,19.8-11.9c3,5.7,14,11.1,10.2,16.7c6.8-10.1,9.2-9.3,9.2-9.3c1.1,15.6,19.2,14.8,28.6,16.5
						c0,0-2.7-5.4-3.8-9.5c-0.5-1.9,0.2-4,0.2-4c7.9,9.8,25.9,2.7,31.8,2.2c0,0-8.8-10-11.3-9.8c2.8-0.7,12.7,4.2,18.5,3.7
						c3.1-0.2,13.2-4.4,17.8-1.9c0,0,0.2-3.5-3.8-6.9c4.2,0.1,14.5-0.6,17.4-2.8c2-1.6-2.3-6.2-7-6.9c2.4,0.3,9-1.7,16.8-6
						c5.8-3.2,12.3-8.1,15.6-13.7C-207.7,253.5-216,255.2-222.2,256.9z M-315.9,283.9c-9.8,8.7-15.2,0.6-25.5,1.3
						c9.5-9.1,19.1-11,31.7-8.4C-311.5,279.3-313.6,281.7-315.9,283.9z M-282.6,284.9c-7.5-0.2-20.4-9.6-8.4-13.7
						c7.7-2.6,16.6,4.5,22.2,8.4C-273,282.7-277.3,285.1-282.6,284.9z"/>
					<path class="st2" d="M-338.7,139.3c0,0.1-4.1,7.5-2.1,13.6c1.5,4.4,9.1,12.4,9.3,11.7c1.7-8.2,6.3-14.9,8.6-22.8
						c2-6.8-3.1-17.8-3.2-17.8c0,0-3.8,6.2-5.2,8.9c-3.5,6.7-3.4,11.7-3.2,13.6C-335.1,143.9-338.7,139.1-338.7,139.3z"/>
					<path class="st2" d="M-350,246.9c9.9-5.6,21.5-10,23-22.6c-0.5,2.5-3,8.7-14.3,14.2c-5.6,2.6-6.9-1.2-7.2-3.2
						C-348.4,240.4-350.2,247-350,246.9z"/>
				</g>
				<g transform="matrix(1,0,0,1,177.177001953125,90.62200164794922)">
					<path d="M-233.1,296.2c-0.8,8.7-4.4,23.4,7.4,26.3c0.3,0.1,0.4-0.3,0.2-0.5c-6-3.7-7.6-8.6-6.8-15.4c0.4-3.6,1.2-7.1-0.5-10.5
						c2.1,0.1,4.7,3.9,5.9,5.2c2.5,2.4,5.1,4.7,6,8.2c1.4,5.1-0.3,10.4-0.7,15.6c0,0.5,0.8,0.8,1,0.3c2.6-6,3.4-15.4-0.9-20.7
						c-1.2-1.5-9.8-11.4-11.6-8.8l0,0l0,0c0,0,0,0.1-0.1,0.1C-233.1,296.1-233.1,296.2-233.1,296.2z"/>
					<path d="M-81.3,333.2c-4.1-0.6-9.6-0.5-13.8,1.2c9.9-6.4,17.9-20.2,17-32.6c0-0.2-4,3.1-9.6,4.5c3.6-2.3,6.7-5.7,8.6-9.4
						c1.4-2.7,2.2-5.6,3.1-8.4c0.9-3.2,2.6-6.6,3.2-9.8c0-0.2-3.6-3-14,2.5c1.4-2.4,2.9-4.3,5.6-6.4c2-1.5,3.5-2.8,4.8-5.1
						c3.1-5.2,7.8-19,7.1-18.8c-3.7,1.1-7.3,1.2-11.1,1.5c-1.5,0.1-3,0.3-4.4,0.8c1.5-1.4,4-4,5.8-8c2.3-4.9,1.1-14.1,1-14.1
						c-7.6,1.2-15.2,7.3-19.8,13.4c3.1-11.1,8.9-21.3,11-32.7c1.1-5.8,1.1-11.6-0.3-17.4c-1.7-6.8-5.8-12.3-8.4-18.7l0,0
						c0.1-0.2-0.1-0.4-0.3-0.3c0,0-3.7,1.7-5,8.7c0.4-5.5-1.1-12.7-3.1-17.4c-7.1-16.3-15.4-18.3-15.2-17.7c2,5.3-2.7,13.3-3.5,18.7
						c-0.2,1.3-0.3,2.5-0.2,3.7c-1.1-1.4-4.5-4.7-4.7-4.3c-3.4,5.9-4.8,12.9-3.6,19.6c-3-3-4.5-7.2-4.5-7.2
						c-2.9,2.3-5.5,7.1-6.7,10.5c-1.1,2.8-2.2,5.8-2.8,8.9c-0.1-0.9-3.5-10.8-4.8-16.5c-1.6-6.7,0.7-11.8,0.4-11.9
						c-4.9-0.4-11.2,5.2-11.8,5.8c0.9-2,2-3.8,3-5.9c1.2-2.7,1.6-5.6,1.7-8.6c0.2-4.7-2.3-19.7-3.3-20.4c0,0-4.3,2.4-7.5,5.7
						c0.4-1.9,0.5-3.9,0.6-5.8c0.3-6.2-2.5-15.7-3-15.5c-1,0.5-2.8,3.4-2.9,3.5c0.6-2.2,1.3-4.4,1.6-6.7c0.3-2.6,0-5.4-0.3-8
						c-0.4-3-0.9-6.1-1.6-9c-0.7-3-2.4-5.4-3.1-8.4c-0.1-0.5-0.9-0.4-1,0c-2.6,2.6-5.9,6-8.1,9.7c0.6-4.2,0.8-8.5,0-12.4
						c-0.7-3.4-2-6.8-3.8-9.8c-2-3.2-4.8-5.7-6.7-9c0-0.1,0-0.1,0-0.2c0-0.5-0.8-0.6-0.8-0.1c-0.4,3.2-3.4,6-5.3,8.5
						c-0.4,0.5-0.8,1.1-1.2,1.6c1.3-6.2,2.5-13.4-1.3-19.4c-0.1-0.2-0.4,1-2.1,3.3l-0.6,3.9c1.4-1.2,2.6-2.7,3-4.4
						c2.1,3.9,1.9,7.7,0.8,12c-0.6,2.4-1.2,4.6-0.8,6.9c-0.2,0.7-0.2,1.5,0.1,2.3c0,0.1,0.2,0.1,0.2,0c0.9-3.4,3.2-5.9,5.3-8.7
						c1.1-1.4,2.1-2.7,2.6-4.3c0.5,2.2,2.1,4,3.3,6c2.1,3.5,3.8,7.3,4.7,11.2c1.1,4.6,0.8,8.5,0,13.1c-0.5,2.6-1,4.9,0.1,7.4
						c0.2,0.4,0.9,0.3,1-0.1c0.2-0.9,0.4-1.7,0.6-2.6c1.7-2.5,3.3-5,5.3-7.4c1.6-2,3.1-3.9,4-6.1c0.3,1.5,0.9,2.7,1.4,4.2
						c1,3,1.5,6.1,2,9.2c0.6,3.8,0.8,7.4,0.5,11.2c-0.3,3.3-1,6.3-0.8,9.7c0,0.2,3.2-4.4,3.8-5c1,3.2,1.4,9.4,1.2,12.5
						c-0.3,5.1-1.4,10.1-1.2,15.2c0,0.3,0.4,0.3,0.5,0.1c0.5-1.4,2-7.4,9-12.1c0.1,6.4,2.4,12.9,2.3,20c-0.1,3.4-5.4,16.7-5.1,17.5
						c0,0,0.1,0.1,0.1,0c0,0,2.8-3.9,3.8-4.8c2.2-1.9,4.9-3.4,7.8-3.9c-1.6,5.2,0,12.4,2,17.2c3.9,9.6,3.5,19,2.8,24
						c-0.1,0.6,0.7,0.9,0.9,0.3c1.2-3.5,1.6-7.3,1.5-11c2.7-6.8,3.4-14.4,8.5-20c0.5,1.2,7.2,10.5,7.3,10.1c0.4-1.5,0.1-2.9-0.6-4.2
						c-0.3-3.2-0.5-6.4-0.4-9.7c0.1-3,2.8-9.7,3-10.3c2.3,2.3,5,4.4,5.6,8.3c0.3,0.6-0.6-7.7,2.2-17.1c0.8-2.6,2.2-5.9,2-8.9
						c4.3,3.7,9.6,9.7,11.9,17.1c4.1,13.3,1.4,21.1,1,25c-0.1,0.5,0.7,0.6,0.9,0.2c1-1.8,1.7-3.8,2.1-5.9c2.2-3.4,2.4-7.9,5-11.1
						c0.6,5.5,4,10.3,5.8,15.6c2.4,7.2,2,14.6,0.2,21.9c-2.9,11.3-10.2,24.2-9.3,36c0,0,9-12.6,20.4-16.8c0.1,0.1,1,6.4-1.7,12.3
						c-1.3,2.8-5.7,8.6-6.1,8.9c-0.1,0.1,0,0.3,0.1,0.3c3.4-0.4,6.6-1.1,10-1.3c2.2-0.1,4.3-0.2,6.3-0.9c-2.3,4.3-4.3,11.9-7.5,16.8
						c-2.1,3.3-5.6,4.7-8,7.6c-1.5,1.9-3.2,6.4-3.2,6.4l0,0l0,0c-0.1,0.5,0.6,0.8,0.8,0.3c0.2-0.3,7.2-5.7,14.3-5.4
						c0.1,0.1,0.2,0.1,0.3,0.1c-2.1,0.2-4.7,13.7-5.5,15.4c-3.2,6.9-7.6,10.7-12.8,14c-0.2,0.1,6.7-0.2,12.9-4.1
						c0,0-0.9,10.3-6.7,19.3c-3.1,4.8-12.9,13.2-13.6,13.9c-0.2,0.2,0,0.7,0.3,0.5c2.5-0.9,4.7-2.3,7.2-2.9c3-0.8,6-0.9,9.1-0.6
						c-3.7,19.9-33.9,25.5-34.5,26c-0.1,0.1-0.1,0.3,0,0.3c1.5,0.8,3.3,1,4.9,1.9c1.5,0.9,2.4,2.3,3.3,3.7
						c-4.8,3.1-11.8,2.9-17.4,3.8c-0.4-0.1-0.8-0.2-1.2-0.1c-0.5,0.1-0.4,0.8,0,0.9c0.3,0.1,0.7,0.3,1,0.4c0.6,0.6,1.2,1,1.8,1.5
						c0.3,0.3,0.5,0.5,0.7,0.8c0.5,0.8,0.6,1.7,0.7,2.7c-4-3.4-11.5,1.1-15.9,1.5c-4.6,0.4-8.2-0.8-12.4-2.4c-2.6-1-4.6-1.8-7.3-0.9
						l0,0c-0.1,0-0.1-0.1-0.2-0.1c-0.3-0.2-0.6,0.2-0.4,0.4c1.4,2,3.6,3.1,5.7,4.3c2.2,1.3,4.1,2.8,5.4,4.9
						c-2.3-0.6-5.4,0.3-7.5,0.6c-7.4,1.1-17.8,3.1-23.5-3.4c-0.2-0.3-0.6-0.1-0.7,0.1l-0.1,0.1c-1.2,4.5,1.7,9.6,3.7,13.6
						c-3.3-0.9-6.8-1.2-10.2-1.5c-5-0.5-10.3-1.2-13.4-5.5c-3.4-4.6-2.5-10.2-0.8-15.2c0-0.1-0.1-0.2-0.2-0.1
						c-1.7,1.8-2.8,3.9-3.4,6.2c-3.8,1.3-6.4,4.4-8.8,7.8c-0.8-2.4-2-4.7-3.6-6.8c-2.8-3.6-5.1-6.6-6.6-10.4
						c-3.7,11.9-11.3,12.9-18.6,13.6c3.8-7.6,2.6-16.7,6.4-24.4c0.1-0.1-0.1-0.3-0.2-0.2c-1.7,1.5-2.8,3.3-3.6,5.3
						c-2.2,2.1-4.8,3.6-7.9,4.8c-3.2,1.2-6.2,2-8.6,4.2c-0.1-0.5-0.2-1.1-0.3-1.6l-0.6,3.9c0.3,0.3,0.8,0.3,1.1,0
						c3.9-4.4,10.6-4.5,15.2-8c0.1-0.1,0.1-0.1,0.2-0.2c-1.5,5.7-1.6,12.1-4.7,17c-0.5,0.8,0.1,1.7,1,1.7c6.3-0.3,13.1-1.2,17.6-6.2
						c1.5-1.7,2.5-3.8,3-5.9c0.5,1.2,1.2,2.4,2,3.6c2.9,4.1,5.7,7.1,7.1,12.1c0.2,0.8,1.3,0.9,1.8,0.2c2.3-3.5,4.7-6.6,8-8.8
						c-0.5,4.3,1,8.8,4.8,11.8c3.3,2.7,7.5,2.9,11.6,3.2c5,0.3,9.5,0.5,13.9,2.1c-0.1-0.4-0.1-0.7-0.2-1.1l0,0
						c-0.2-2.2-1.8-5.2-2.9-7.1c-0.8-1.5-1.5-3-1.7-4.6c-0.1-0.6-0.1-1.3-0.1-1.9c2.5,3.5,6.1,4.6,10.5,5c3.1,0.2,6.1-0.1,9.2-0.5
						c3.6-0.5,9.7-2.7,13-1c0.4,0.2,0.9-0.2,0.7-0.7c-0.1-0.2-0.3-0.5-0.5-0.6c-1.3-5.8-7.1-7.6-11.7-10.3c5.5,0.9,10,4.5,15.6,4.7
						c2.4,0.1,4.8-0.4,7.2-1c3.9-1,8.7-4,12.4-1.1c0.4,0.3,0.8-0.3,0.5-0.6c0.4-1,0.3-2.1-0.1-3.2c-0.1-0.7-0.4-1.3-1-1.8
						c-0.2-0.2-0.4-0.3-0.6-0.5c-0.3-0.3-0.6-0.6-0.9-0.8c3.4,0.1,6.9-0.5,10.3-1.2c2.5-0.5,5.7-0.8,7.2-3.1c0.1-0.2,0-0.5-0.2-0.7
						c0.1-1.5-1.7-3.5-2.7-4.2c-0.6-0.4-1.3-0.9-2.2-1.2c7.6-2.5,16.2-6.5,22.6-11.4C-81,341.6-80.8,333.3-81.3,333.2z"/>
					<path d="M-201.9,189.9c0-0.1-0.1,0-0.1,0c2.3,8.2,11.9,10.9,19.2,7.2c0.5-0.2,0.1-1.1-0.4-0.9l0,0c-3.7-1.9-4.3-6-7.3-8.6
						c-2.3-2-6.1-2.4-9-2c-0.1,0-0.1,0.2,0,0.2c2,0.8,4.4,0.8,6.2,1.8c1.9,1.1,3,3.4,4.2,5.1c1.2,1.7,2.6,3.3,4.5,3.9
						c-2.7,0.7-5.6,0.3-8.3-0.1C-197.5,196-199.5,193.4-201.9,189.9z"/>
					<path d="M-179.7,168.7c-5.3,3.6-12.3,0.3-18.1,3c-3.8,1.8-6.2,5.7-5.9,9.9c0,0.1,0.1,0.1,0.1,0c3-7,8.6-7.9,15.4-9
						c2.4-0.4,5.1-0.6,7.2-1.9c-1.4,3.5-2.7,7-5.6,9.6c-3.9,3.4-8.8,2.7-13.6,2.8c-0.1,0-0.1,0.1,0,0.2c4.5,1.3,9.4,1.5,13.4-1.4
						s6.1-7.9,7.5-12.4c0-0.1,0-0.2,0-0.3l0.1-0.1C-179,168.9-179.4,168.5-179.7,168.7z"/>
					<path d="M-221.8,303.7c0.1,0.2,0.3,0,0.3-0.1c-0.5-2.4-1.2-4.6-1.8-7c-1.1-4.8-0.3-7.9,1.7-12.3c1.6-3.5,2.8-7,3.2-10.9
						c2.4-0.5,7.8,12.8,8.3,14.2c1.6,4.5,1.5,8.7,1.8,13.3c-3.3,3.6-5.8,8.3-6.5,12.3c0,0.1,0.1,0.2,0.2,0.1
						c2.2-3.6,4.1-7.1,6.9-10.3c2.2-2.5,7.8-6.1,8.1-6.8c0.1,0.7,0.8,4.8,0,7.4c-2.2,7.3-10.5,9.7-12.6,12.5c-0.1,0.1,0,0.3,0.2,0.2
						c5.3-2.6,18.8-6.8,13.6-21.5c-0.1-0.3-0.6-0.2-0.8-0.1c-0.3,0.1-5.9,3.1-8,5.1c1.1-4.6-0.2-10-2-14.2c-1.6-4-5.1-10.8-8.8-13.2
						c-0.2-0.1-0.4-0.1-0.6,0c-0.1,0.1-0.2,0.2-0.3,0.2c-0.2,0.1-0.3,0.4-0.2,0.6c-1.8,5.3-5,10.6-6,16.1
						C-225.9,294.1-223.9,299.3-221.8,303.7z"/>
					<path d="M-249.3,347.3c-0.4,0-0.7,0-1.1,0c-0.7-0.1-1.5-0.3-2.2-0.5l-0.2,1.2c0.8,0,1.5,0,2.3-0.2c-0.7,1.4-1.7,2.6-2.9,3.6
						l-0.3,2c2.2-1.7,4.1-3.8,4.6-6C-249.2,347.4-249.2,347.3-249.3,347.3z"/>
					<path d="M-169.5,221.7c0,0.1,0.1,0.1,0.1,0c0.7-6.6,2-11.4,6.9-16.1c1.1-1,2.7-2,3.6-3.3c0.7,5.6,1.3,10.1-2.9,15.3
						c-2.7,3.3-4.7,7.1-7.1,10.6c-0.1,0.2,0.1,0.5,0.3,0.3c2.2-1.7,3.3-3.7,4.7-6c1.9-3,5-5,6.7-8c2.4-4.3,1.9-10.1-1.1-14
						c0-0.3-0.1-0.6-0.2-0.9c-0.1-0.2-0.3-0.3-0.4-0.1l-0.1,0.1c0-0.1-0.1-0.1-0.1-0.2h-0.1c0,0.1,0,0.2,0,0.3
						C-164.6,205.2-172.1,213.3-169.5,221.7z"/>
					<path d="M-96.5,258.1c-0.2-0.3-0.5-0.3-0.8-0.2c-0.1,0-0.1,0.1-0.2,0.1s-0.1,0.1-0.2,0.2c-1.8,2.6-5.2,3.8-7.7,5.6
						c-2,1.4-3.8,3-5.3,4.9c-2.3,2.9-4.5,6.7-4.3,10.4c0,0.1,0.1,0.1,0.2,0c1.7-6.1,4.7-9.6,9.9-13.3c2.6-1.8,5.5-3.4,7.5-5.9
						c1,7.3-1.2,13.6-8.2,17.3c-3.4,1.8-7.6,3-9.5,6.7c-0.1,0.3,0.2,0.6,0.4,0.3c4.8-5.3,12.6-6,16.8-12c2-2.8,3-6.4,2.3-9.7
						C-95.6,261-95.8,259.4-96.5,258.1z"/>
					<path d="M-215.3,362.4c9.2-6,9.2-16.3,7-26c-0.1-0.4-0.4-0.5-0.7-0.5c-1.2-0.7-2-0.4-3.2,0.5c-3.1,2.1-6.3,6.4-8.7,9.3
						c-1.4,1.7-2,2.9-2.1,5.1c-0.2,4.1,0.5,8.5,0.5,12.7c0,0.1,0.2,0.2,0.2,0c1.2-4.2,0.3-8.4,1-12.6c0.4-2.4,8-13.7,11.7-13.7
						c0.9,4.2,1.9,8.6,1.2,12.9c-0.8,5-3.7,8.4-6.9,12.1C-215.5,362.3-215.4,362.5-215.3,362.4z"/>
					<path d="M-191.2,365.2c-3.8,2.2-11.2,1.4-15.5,0.4l0,0c5,2,11.9,3.7,16.7,0.2c2.5-1.8,4.5-4.4,6.6-6.6c1.3-1.3,3.2-2.6,3.2-4.6
						c0-0.2-0.1-0.5-0.3-0.6c0,0,0,0-0.1,0c0-0.3-0.1-0.6-0.5-0.6c-10-2-23,0-30.1,8.2c-0.1,0.1,0,0.4,0.2,0.3
						c9.5-5.5,18.1-9.2,29.3-7.1C-181.7,357.7-189.2,364-191.2,365.2z"/>
					<path d="M-162.1,322.9c-0.1,0-0.1,0-0.2,0c-6.3,3-14,0.2-19.8,4.6c-4.6,3.6-7.5,10-10.5,14.9l0,0c5.7-4.2,6.8-12.3,13.6-15.3
						c4.8-2.1,12.3,0.5,16.4-3.1c-0.6,6.8-3.9,12-10.1,15.2c-5.6,2.9-11,3.2-17.1,4c-0.1,0-0.1,0.1,0,0.1c13,1.8,27.3-5.8,28.4-20
						C-161.3,323-161.8,322.8-162.1,322.9z"/>
					<path d="M-178.6,178.4L-178.6,178.4c-0.1,0-0.2,0.1-0.3,0.2v0.1c0,0.1,0,0.2,0,0.3c-0.2,5.5-1.6,11.8-0.1,17.2
						c1.4,5.2,5.2,8.6,7.9,13.1c0.4,0.7,1.6,0.1,1.1-0.6c-3-4.8-7-8.4-7.8-14.4c-0.6-4.8,0.4-9.8-0.5-14.5c0.1,0,0.2-0.1,0.3-0.2
						c0.4-0.7,6.2,5.9,6.6,6.5c1.8,2.4,3.3,4.9,4.1,7.8c1,3.6,0.5,5.9-1.3,9c-0.8,1.6-1.4,2-1.4,3.7c0,0.1,0.1,0.1,0.2,0
						c1.4-2.9,4-4.7,4.4-8c0.4-3.1-0.5-6.6-1.9-9.4C-168.4,186.8-175.2,175.8-178.6,178.4z"/>
					<path d="M-198.9,343.6c-0.1,0.1,0,0.2,0.1,0.1c6.9-3.5,11.2-11,12.3-18.4c1.4-9.5-4.2-18.2-4.4-18.1
						c-1.8,1.9-9.9,13.1-11.6,16.7c-3.4,7.1-1.4,15.4,1.2,22.2l0,0c-0.3-7.6-3-14.4,0.9-21.7c1.3-2.4,8.5-13.8,9.4-14.7
						c0.9,1.6,3,7.7,3.1,10.3c0.1,3.3-0.1,6.6-1.2,9.8C-190.8,335.5-194.6,339.6-198.9,343.6z"/>
					<path d="M-183.4,204.9c-0.3,1-0.2,2.3,0,3.5c-0.1,4.1,0.3,8.9,1.6,12.4c2.1,5.3,8.4,5.2,10.7,10.1c0.1,0.3,0.7,0.1,0.5-0.2
						c-1.8-5-7.8-5.7-10-10.5c-1.8-4,0-9-1.5-13c-0.1-0.7-0.2-1.3-0.5-1.9c2.6,1.2,5.1,2.4,6.9,4.7c2.6,3.2,2.7,7,2.9,10.9
						c0,0.2,0.4,0.3,0.4,0.1c0.8-4.3,0.6-8.3-2.1-11.8c-2-2.6-5-4.7-8.4-4.4C-182.9,204.6-183.3,204.6-183.4,204.9z"/>
					<path d="M-135.1,213.8c0-0.8-0.5-1.2-1.5-1.4c-0.3-0.1-0.6,0.1-0.6,0.4c-2.5,8.4-13.3,16.8-8.2,26.3c0,0.1,0.1,0,0.1,0
						c0-2-0.2-4,0-6c0.2-3.6,2.1-6.4,4-9.3c1.1-1.8,2.3-3.5,3.2-5.4c0.3-0.7,2.1-4.2,2.2-3.9c0,0.2,0.2,0.3,0.3,0.3
						c0.1,0.9,0.4,1.8,0.6,2.7c0.2,1,0.4,2.1,0.6,3.1c0.3,2.5,0.4,5.1-0.3,7.6c-0.8,2.7-2.4,5.1-3.7,7.5c-1.9,3.6-4.5,7.2-4.2,11.5
						c0,0.1,0.2,0.2,0.3,0c1.2-4,2.6-7.3,5.2-10.6c1.3-1.7,2.8-3.2,3.6-5.2c1.2-2.9,1.2-6.5,0.5-9.9
						C-132.8,219-133.6,215.7-135.1,213.8z"/>
					<path d="M-119.1,282.9c-1.4-5.3-4.6-8.3-8.6-11.9c-0.2-0.2-0.4-0.1-0.5-0.1s-0.1,0-0.2,0.1c-2.6,4.2-3,10-1.5,14.6
						c1.7,5.6,6.7,7.4,9.9,11.8c0.2,0.3,0.8,0.1,0.7-0.3c-0.1-0.4-0.2-0.7-0.4-1C-118.2,292-117.9,287.4-119.1,282.9z M-126.5,289.5
						c-4.3-5.6-2.9-11.3-1.6-17.6c3.4,3.7,7,6.8,8.1,12c0.9,4.1,0,7.8,0,11.9C-121.5,293.2-124.7,291.9-126.5,289.5z"/>
					<path d="M-123,244c-0.2-0.1-0.4,0-0.6,0.2c-0.7,0.7-11.2,17.7,5.4,30.3c0.6,0.4,1.2-0.5,0.7-0.9c-3.9-4.2-7.3-8.2-8.2-14.2
						c-1.2-8.3,2.2-12.8,2.6-13.9c2.2,2.6,8.8,13.4,7.1,26.3c0,0.1,0.2,0.2,0.2,0.1c2.3-5.7,1.5-12-0.7-17.7
						C-117.6,251-119.5,245-123,244z"/>
					<path d="M-111.1,252c0.2,0.2,0.4,0,0.3-0.2c-3-6.2-1.5-11.2,0.4-17.4c0.9-3.1,1.6-6.2,1.3-9.3c1.6,3.7,3.3,7.4,4.1,11.4
						c1.3,6.5,0.8,12-2.2,17.9c-0.1,0.1,0.1,0.3,0.2,0.2c8.3-8.1,5.2-24-2.5-31.6c0-0.2-0.1-0.4-0.1-0.5c-0.1-0.3-0.7-0.3-0.6,0.1
						c0.2,6.5-2.8,11.9-3.7,18.1C-114.6,244.5-114.2,249.2-111.1,252z"/>
					<path d="M-149,317c-8.1,6.3-15.9,16.4-12.1,27.3c0,0.1,0.2,0.1,0.2,0c0.8-5.4,1.3-10.4,3.8-15.3c2.1-4,5.5-6.8,8.2-10.3
						c1.6,5.9,3,11.6,1,17.7c-2,6.3-8.2,5.7-11.5,10.4c-0.2,0.3,0.3,0.9,0.6,0.6c2.9-2.2,6.6-3,9.3-5.3c2-1.7,3.4-4.1,3.9-6.6
						C-143.7,325.6-148.6,316.7-149,317z"/>
					<path d="M-97.6,304.2c-7,2.8-15,3-20.9,8.2c-3.8,3.4-7,8.7-6.1,14c0,0.1,0.2,0.1,0.2,0c2.8-5.6,4.6-11,9.9-14.7
						c5.2-3.7,11.7-4,17.3-6.6c1,1.7-1.9,8.3-2.2,9c-1.4,3-3.3,6-6.1,7.9c-5.2,3.6-11.6,4.2-17.6,5.6c-0.2,0-0.1,0.2,0,0.3
						c14,1.5,27.3-8.4,26.9-22.9C-96.2,304.8-95.8,303.5-97.6,304.2z"/>
					<path d="M-162.8,349.5c-0.1,0.1-0.1,0.2,0,0.2c3.2-0.9,8.8-1.1,14.7,2.4c2.1,1.2,6.1,3.6,6.3,3.6c3.2,1.5,1,2.5-1.1,3.6
						c-2.8,1.4-5.8,2.6-9,2.8c-6.2,0.4-11.3-2.6-14.7-7.5c-0.1-0.1-0.3,0-0.2,0.1c2.1,5.2,6.8,9,12.5,9.3c4.8,0.3,13.4-2.8,16.4-6.8
						c0.1-0.2,0.1-0.4-0.1-0.6C-138.5,356.2-153.9,344.4-162.8,349.5z"/>
					<path d="M-142.5,331.6c0,0.1,0.2,0.1,0.2,0c1-7.6,4.1-11.5,8.2-16.9c2.7-3.2,4.9-6.4,5.9-9.3l0,0c3.1,2.7,1.5,13.2,0,16.1
						c-4.2,8-11.6,12.3-13,13.2c-0.3,0.2,7.7-2.4,16.6,0.9c4.2,1.5,10.7,8.6,10.8,8.7c-0.2-0.2-8.7,2.1-12.7,2
						c-6.5-0.1-10.5-2.3-13-8.5c0-0.1-0.2-0.1-0.2,0c-0.2,14,18.9,9.8,26.7,7.1c0.4-0.1-6.5-13.3-23.3-12.2c6.3-2.8,9.8-9.7,11-16.3
						c0.3-1.4,1-11.5-3-11.1C-128.1,305.1-145.5,323.8-142.5,331.6z"/>
				</g>
				<g transform="matrix(1,0,0,1,0,0)">
					<g transform="matrix(1,0,0,1,0,0)">
						<path class="st1" d="M-39.5,249.7c0.6,1.9,9.5,9.4,9.9,10c0.3,0.3,0.8,0,0.7-0.4c-1.1-3.9-3.5-7.7-5.9-10.9
							c-1.5-2-2.6-4.1-3.1-6.5c-0.2-1-0.4-2-0.5-3.1c1.2,3.1,2.1,6,4.4,9.1c2.9,3.8,5.7,7.5,6.6,12.3c0.4,1.9,2.3,1.1,2.4,0.8
							c1.7-5.6,4.8-9.1,5.2-9.5c-1.5,2.9-2.9,5.8-3.8,9c-0.2,0.6,0.6,1.1,1.1,0.6c2.2-2.5,5.2-4.5,6.8-7.6c1.6-3.2,0.9-6.7,0.4-10.2
							c-0.1-0.6-0.4-0.7-1-0.4c-2.6,1.8-4.6,2.7-6.6,5.3s-1.6,5-2.2,6.9c-0.1-2.5-0.6-5-1.8-7.3c-2.5-5-8.1-12.7-12.3-16.5
							c-0.2-0.2-0.6-0.2-0.9-0.2c-0.5,0.1-0.9,0.4-1,0.6C-41.1,232.8-43.2,245.3-39.5,249.7z"/>
					</g>
					<g transform="matrix(1,0,0,1,0,0)">
						<path d="M-15,241.9c-0.1-0.3-0.5-0.4-0.7-0.2c-3,2.6-7,4.4-8.8,8.1c-0.2,0.4-0.3,0.8-0.5,1.2c-2-10.2-14.4-21.3-15.7-20.6
							c-0.1,0-0.2,0.6-0.5,1.5l-0.9,5.5c-0.5,4.5-0.7,9.9,1,12.5c2.9,4.5,8.6,8.3,12.9,11.3c0.1,0.1,0.2-0.1,0.2-0.2
							c-2.1-3.8-5.6-4.9-9.3-9.1c-6-6.7-2.5-20.1-2.5-20.1c0.7,0.4,6.1,5.9,7.8,8.3c2.7,3.8,5.5,8.2,6.4,12.8
							c-0.3,1.6-0.3,3.3,0,4.9c0,0.1,0.2,0.1,0.2,0c0.9-3.6,0.4-7.2,3.3-10.1c1-1,2.7-2.2,3.9-3.1c2.4-1.8,2.4-2.4,2.7,1
							c0.4,4-0.1,7.5-3,10.6c-1.8,2-4.3,3.4-6.1,5.4c-0.3,0.3,0.1,0.9,0.5,0.6c3.2-2.3,7.3-4.7,9.1-8.4
							C-13.2,250.2-13.9,245.8-15,241.9z"/>
					</g>
				</g>
				<g transform="matrix(1,0,0,1,0,0)">
					<g transform="matrix(1,0,0,1,0,0)">
						<path class="st1" d="M9.6,369.8c-0.3,1.6,0.4,5.4,0.5,5.2c1.6-2.6,3.3-14,4.3-16.2c-0.3,1.5,0.4,6.7-1,11.1
							c-2.1,6.8-3.2,8.9-2.2,8.9c0.4,0,2.6-2.1,10.2-8.3c7.3-5.9,0.8-28.5,0.4-28.2C8.6,352.8,9.9,368.1,9.6,369.8z M0.8,402.1
							c0,0.6,4.6-4.7,5.3-13.9C7.3,374-1,366.4-1,367.4c0.1,3.5-2.5,15.4-3.2,17.3c-2.9,8,4.4,17,4.4,16.5
							c-0.5-3.9-0.9-8.3-0.8-12.3c0-2.1,1.1-7,1.2-7.4C0.4,383.8,0.4,397.5,0.8,402.1z M5.2,394.2c-0.1,0.3-0.6,3.2,1.7,0.7
							c2.7-2.9,5.1-3.6,8.1-4.5c-1.4,0.8-11.5,12.1-11,12.1c19.1,2.5,23.1-17.3,26-20.3C30.7,381.4,10.1,383.8,5.2,394.2z"/>
					</g>
					<g transform="matrix(1,0,0,1,0,0)">
						<path d="M22.6,341.1c-0.9,0.3-6.9,4.5-10.9,13.2c-2.8,6.1-2.7,13.5-3.1,20.1c0,0.1,0.2,0.1,0.2,0c2-5.6,0.9-11.8,3.1-17.5
							c3.4-8.8,9.6-14,9.7-13.7c0.1,1.5,0.7,5.7,1.1,7.5c0.8,4.5,2.3,9,1.1,13.7c-1.1,4.6-4,7.3-7.7,9.7c-2.1,1.4-3.8,2.3-5,4.7
							c0,0.1,0,0.1,0.1,0.1c5.8-4.9,12.8-7,14.2-15.5c0.6-3.8-0.2-7.6-1.1-11.3C23,346.6,22.6,341.1,22.6,341.1z M6.3,391
							c0.5-2.8,0.6-5.6,0.4-8.3C6.2,378.4,3,369-1.7,365.6c-0.1-0.4,0,5.2-0.6,7.4c-1.3,4.9-4,10.9-3.9,15.9
							c0.1,4.3,3.5,9.4,5.8,12.7h0.1c-0.6-2.1-5.6-9.5-3.4-17.8c0.7-2.6,3.3-11.6,3.1-15.4c0.1,0,4.1,6.9,4.4,8
							c1,2.8,1.5,5.8,1.6,8.7c0.3,6.3-1.7,11.5-4.4,17c-0.1,0.3,0.2,0.5,0.4,0.2c2-2.7,3.5-6,4.3-9.4c5.4-6.6,22.9-10.4,23-10.3
							c-2.7,4.9-5.2,10.6-9,14.6c-4.5,4.8-10.5,3.8-16.3,5.1c-0.1,0-0.1,0.2,0,0.2c5.1,0.8,10.8,0.8,15-2.5
							c5.4-4.2,9.3-13.2,12.7-18.9C31.6,380.8,14.8,381.6,6.3,391z"/>
					</g>
				</g>
			</g>
		</g>
	</g>
</g>
<g id="Слой_11">
	<g>
		<path class="st3" d="M-8.1,538h42.2c0-16.2,7.8-32.3,20.7-42.3c-6.8,2-13.8,3.9-19.8,7.7c-6,3.7-11.2,9.5-12.6,16.5
			c-2.7-15.7,1.4-32.5,11-45.2c-8.1,1.9-14.7,8-18.6,15.4c-3.9,7.3-5.4,15.7-6,24c-3.1-18.6-9.5-36.6-18.9-52.9
			c4,7.4,4.6,16.1,5.1,24.5c0.7,12.3,1.5,24.5,2.2,36.8c-7.2-8.3-12.4-18.4-15-29.1c-0.5,8.1-1,16.3,0.3,24.3
			C-16.3,525.1-13.4,532.6-8.1,538z"/>
		<g>
			<path d="M-8.1,538.8c12.3,0,24.7,0,37,0c1.8,0,3.5,0,5.3,0c0.4,0,0.8-0.4,0.8-0.8c0-16.1,7.7-31.8,20.4-41.7
				c0.7-0.5-0.1-1.6-0.8-1.4c-7.5,2.1-15.2,4.3-21.6,8.8c-5.5,3.8-10,9.3-11.4,15.9c0.5,0,1,0,1.6,0c-2.6-15.6,1.5-32,10.9-44.6
				c0.5-0.6-0.3-1.3-0.9-1.2c-7.7,1.8-14,7.3-18.1,13.9c-4.8,7.8-6.5,17.1-7.2,26.2c0.5-0.1,1.1-0.1,1.6-0.2
				C6.4,495-0.1,477-9.5,460.6c-0.5-0.9-1.9-0.1-1.4,0.8c3.6,6.7,4.4,14.3,4.8,21.7c0.5,8.3,1,16.5,1.5,24.8
				c0.3,4.8,0.6,9.6,0.9,14.4c0.5-0.2,0.9-0.4,1.4-0.6c-7.1-8.3-12.2-18.1-14.8-28.7c-0.2-0.9-1.5-0.7-1.6,0.2
				c-1,15.5-1.6,33.2,9.9,45.3c0.7,0.8,1.9-0.4,1.1-1.1c-11.2-11.7-10.4-29.1-9.5-44.1c-0.5,0.1-1.1,0.1-1.6,0.2
				c2.7,10.9,7.9,20.9,15.2,29.4c0.5,0.5,1.4,0.1,1.4-0.6c-0.5-8.6-1-17.2-1.5-25.9c-0.5-8-0.6-16.1-1.9-24
				c-0.7-4.1-1.9-8.2-3.9-11.9c-0.5,0.3-0.9,0.5-1.4,0.8c9.3,16.3,15.7,34.2,18.8,52.7c0.2,1,1.5,0.6,1.6-0.2
				c0.7-8.6,2.2-17.5,6.8-25c3.9-6.4,9.9-11.7,17.3-13.5c-0.3-0.4-0.6-0.8-0.9-1.2c-9.7,13-13.8,29.8-11.1,45.9
				c0.1,0.8,1.4,0.8,1.6,0c3.1-14.8,19.2-19.9,31.8-23.6c-0.3-0.5-0.5-0.9-0.8-1.4c-13,10.2-20.8,26.4-20.9,42.9
				c0.3-0.3,0.5-0.5,0.8-0.8c-12.3,0-24.7,0-37,0c-1.8,0-3.5,0-5.3,0C-9.1,537.2-9.1,538.8-8.1,538.8z"/>
		</g>
	</g>
</g>
<g id="Слой_12">
	<g>
		<path class="st3" d="M457.4,507.1c1,7.8,2,15.8,4.7,23.2c1.1,3.1,2.5,6,4.3,8.8h48.8c-2.5-15.2,2.1-31.4,12.3-42.9
			c-6.2,3.1-12.5,6.3-17.6,11s-9,11.1-9.1,18.1c-5.4-14.6-4.6-31.4,2.3-45.4c-7.4,3.3-12.6,10.4-15.1,18.1c-2.4,7.7-2.3,16-1.4,24.1
			c-6.3-17.2-15.8-33.3-27.8-47.3c5.2,6.4,7.4,14.6,9.4,22.6c2.9,11.6,5.9,23.3,8.8,34.9C468.7,525.6,461.9,516.9,457.4,507.1z"/>
		<g>
			<path d="M456.4,507.1c1.4,10.9,2.8,22.2,8.6,31.8c0.9,1.4,1.4,1.3,2.8,1.3c1.6,0,3.3,0,4.9,0c11,0,22.1,0,33.1,0
				c3.1,0,6.2,0,9.3,0c0.8,0,1.1-0.7,1-1.4c-2.4-14.9,2.1-30.6,12.1-41.9c0.8-0.9-0.2-2.2-1.3-1.7c-6.7,3.4-13.5,6.8-18.8,12.1
				c-4.8,4.7-8.2,11-8.4,17.9c0.7-0.1,1.4-0.2,2.1-0.3c-5.3-14.4-4.5-30.7,2.2-44.6c0.5-1-0.5-1.9-1.5-1.5
				c-6.9,3.1-11.8,9.2-14.6,16.1c-3.4,8.5-3.4,18-2.4,27c0.7-0.1,1.4-0.2,2.1-0.3c-6.4-17.4-16-33.6-28-47.8
				c-0.9-1.1-2.4,0.5-1.5,1.5c4.5,5.5,6.6,12.5,8.4,19.3c2.1,8,4,15.9,6.1,23.9c1.2,4.6,2.3,9.2,3.5,13.8c0.6-0.3,1.2-0.7,1.8-1
				c-8.4-6.7-15.1-15.2-19.5-24.9c-0.6-1.3-2.4-0.2-1.9,1.1c4.5,9.9,11.4,18.6,19.9,25.3c0.8,0.6,2.1,0.1,1.8-1
				c-2.1-8.4-4.2-16.8-6.4-25.2c-1.9-7.5-3.4-15.2-6.2-22.4c-1.5-3.7-3.3-7.2-5.9-10.4c-0.5,0.5-1,1-1.5,1.5
				c11.8,13.8,21.2,29.7,27.5,46.8c0.4,1,2.3,1,2.1-0.3c-1-8.6-1.1-17.6,2-25.7c2.5-6.7,7.3-12.6,13.9-15.5c-0.5-0.5-1-1-1.5-1.5
				c-7,14.3-7.9,31.3-2.4,46.2c0.4,1.1,2.1,1,2.1-0.3c0.2-14.6,14.8-22.4,26.1-28.1c-0.4-0.6-0.9-1.1-1.3-1.7
				c-10.5,11.9-15.1,28.3-12.6,44c0.3-0.5,0.7-0.9,1-1.4c-5.5,0-11,0-16.5,0c-8.7,0-17.5,0-26.2,0c-2,0-4,0-6,0
				c0.3,0.2,0.6,0.4,0.9,0.5c-5.9-9.4-7.4-20.6-8.8-31.4C458.3,505.7,456.2,505.7,456.4,507.1z"/>
		</g>
	</g>
</g>
</svg>
