<?xml version="1.0" encoding="utf-8"?>
<!-- Generator: Adobe Illustrator 27.1.1, SVG Export Plug-In . SVG Version: 6.00 Build 0)  -->
<svg version="1.1" id="Слой_4" xmlns="http://www.w3.org/2000/svg" xmlns:xlink="http://www.w3.org/1999/xlink" x="0px" y="0px"
	 viewBox="0 0 512 535.1" style="enable-background:new 0 0 512 535.1;" xml:space="preserve">
<style type="text/css">
	.st0{fill:#FFFFFF;}
	.st1{fill:#3B4938;}
	.st2{fill:#E4EBF6;}
</style>
<g transform="matrix(0.9377821087837219,-0.1518707573413849,0.15657874941825867,0.9668533205986023,-5.39697265625,56.232879638671875)">
	<g transform="matrix(1,0,0,1,0,0)">
		<g transform="matrix(1,0,0,1,0,0)">
			<g transform="matrix(1,0,0,1,201.4340057373047,115.7969970703125)">
				<path class="st0" d="M18-32.1c-7.5,0-13.7,6.1-13.7,13.7S10.4-4.8,18-4.8c7.5,0,13.7-6.1,13.7-13.7C31.6-26,25.5-32.1,18-32.1z"
					/>
			</g>
			<g transform="matrix(1,0,0,1,204.33299255371094,125.29100036621094)">
				<path class="st1" d="M22-13.9c10-4.8,7.2-14.1,6.2-18.4c0.6,3.1,1.7,12.8-7.3,16.5c-10.8,4.5-18.2-4.8-18.2-4.8
					S11.2-8.7,22-13.9z"/>
			</g>
			<g transform="matrix(1,0,0,1,184.19400024414062,126.03500366210938)">
				<path class="st1" d="M28.2-11.1c0.2,0,0.2-0.3,0-0.3c-4.5-0.8-6.8-3.5-9.5-6.1c-3-3-1.9-12.7-1.9-12.7S15-21.7,18-15.8
					C20.1-11.4,25.5-11,28.2-11.1z"/>
			</g>
			<g transform="matrix(1,0,0,1,203.9010009765625,123.72899627685547)">
				<path class="st2" d="M28.4-30.9c0,0,0.4,12.3-7.8,14.9C12.4-13.5,5-18.3,5-18.3s8.6,8.9,16.7,4.1C29.9-19,29.9-28,28.4-30.9z"/>
			</g>
			<g transform="matrix(1,0,0,1,184.00100708007812,124.81099700927734)">
				<path d="M27.4-10.8c-8.9-2.1-10-11.9-10.2-19.5c0-0.1-0.2-0.2-0.3,0c-1.2,7.4,0.3,20,10.4,20C27.7-10.3,27.7-10.7,27.4-10.8z"/>
			</g>
			<g transform="matrix(1,0,0,1,200.0659942626953,115.91500091552734)">
				<path d="M5.9-23.6C3.4-15.3,7-7.6,15.4-5.2c8.2,2.4,17.5-3.3,17.7-12.1l0.1-0.1c-0.1-8.8-5.8-16.7-15.4-15.7
					C12.3-32.5,7.5-28.9,5.9-23.6z M16.9-31.2c3.5-0.8,7.2,0,10.2,1.9c4.2,2.6,5.6,6.9,5.8,11.5c-0.1,0-0.2,0-0.2,0.1
					C31-8.7,22.4-3.1,13.8-7.3C7-10.6,5-18.3,8.3-24.9C10-28.2,13.3-30.4,16.9-31.2z"/>
			</g>
			<g transform="matrix(1,0,0,1,194.42999267578125,114.2959976196289)">
				<path d="M25.7-15.5c0.6,0,1.2-0.7,1.2-1.6s-0.5-1.6-1.2-1.6s-1.2,0.7-1.2,1.6C24.5-16.2,25-15.5,25.7-15.5z"/>
			</g>
		</g>
	</g>
</g>
<g transform="matrix(0.9377821087837219,-0.1518707573413849,0.15657874941825867,0.9668533205986023,-5.39697265625,56.232879638671875)">
	<g transform="matrix(1,0,0,1,0,0)">
		<g transform="matrix(1,0,0,1,0,0)">
			<g transform="matrix(1,0,0,1,247.39599609375,124.87000274658203)">
				<path class="st0" d="M8-34.2C0.4-34.2-5.8-28-5.8-20.4S0.4-6.6,8-6.6c7.6,0,13.8-6.2,13.8-13.8C21.7-28,15.6-34.2,8-34.2z"/>
			</g>
			<g transform="matrix(1,0,0,1,252.87899780273438,132.14599609375)">
				<path class="st1" d="M10.7-14.4c10.4-5.2,5.6-17.9,3.7-20.5c0,0,6,13-4.1,18.6c-10,5.6-17.9-2.2-17.9-2.2S0-9.1,10.7-14.4z"/>
			</g>
			<g transform="matrix(1,0,0,1,257.6830139160156,140.6219940185547)">
				<path class="st1" d="M14.7-31.2c-0.4,1.9-2,5.9-5.8,9c-6,4.8-12.7,4.5-12.7,4.5s9.3,1.5,14.5-3.7c3.4-3.4,4.5-7.6,4.4-9.7
					C15.1-31.4,14.7-31.5,14.7-31.2z"/>
			</g>
			<g transform="matrix(1,0,0,1,251.45199584960938,132.38900756835938)">
				<path class="st2" d="M11.7-19.1c2.8-2,6-7.8,4.8-13.8c0,0,4.5,10-3.7,15.3C2.7-11.2-6.5-19.1-6.9-19.9
					C-6.9-19.9,3.6-13.2,11.7-19.1z"/>
			</g>
			<g transform="matrix(1,0,0,1,258.17401123046875,140.82699584960938)">
				<path d="M14.5-31.3C13.8-23.1,3.5-17.2-4-18.5c-0.4-0.1-0.5,0.5-0.2,0.6c4.7,1.7,9.2,0.6,13.1-2.5c3-2.4,7-6.7,5.9-10.9
					C14.7-31.5,14.5-31.5,14.5-31.3z"/>
			</g>
			<g transform="matrix(1,0,0,1,246.09500122070312,124.91999816894531)">
				<path d="M-4.1-25.6C-6.6-17.3-3-9.6,5.4-7.1c8.2,2.4,17.5-3.3,17.7-12.1l0.1-0.1C23-28.1,17.4-36.1,7.8-35
					C2.3-34.4-2.5-30.9-4.1-25.6z M6.9-33.1c3.5-0.8,7.2,0,10.2,1.9c4.2,2.6,5.6,6.9,5.8,11.5c-0.1,0-0.2,0-0.2,0.1
					C20.9-10.7,12.4-5,3.8-9.2C-3-12.5-5-20.2-1.7-26.8C0-30.2,3.3-32.3,6.9-33.1z"/>
			</g>
			<g transform="matrix(1,0,0,1,242.4600067138672,123.3010025024414)">
				<path d="M13.3-17.8c0.6,0,1.2-0.7,1.2-1.6c0-0.9-0.5-1.6-1.2-1.6c-0.6,0-1.2,0.7-1.2,1.6C12.1-18.5,12.6-17.8,13.3-17.8z"/>
			</g>
		</g>
	</g>
</g>
</svg>
