<?xml version="1.0" encoding="utf-8"?>
<!-- Generator: Adobe Illustrator 27.1.1, SVG Export Plug-In . SVG Version: 6.00 Build 0)  -->
<svg version="1.1" id="Слой_4" xmlns="http://www.w3.org/2000/svg" xmlns:xlink="http://www.w3.org/1999/xlink" x="0px" y="0px"
	 viewBox="0 0 512 535.1" style="enable-background:new 0 0 512 535.1;" xml:space="preserve">
<style type="text/css">
	.st0{fill:#FFFFFF;stroke:#000000;stroke-width:3.3768;stroke-linecap:round;stroke-linejoin:round;stroke-miterlimit:10;}
	.st1{fill:#FF5757;}
</style>
<g id="Слой_3">
	<g id="Слой_3_00000124142455583140671680000007372245452814683570_">
		<g id="Слой_3_00000115490948249377400760000005136581133489233040_">
			<path class="st0" d="M270.7,202.3c0,0,3.1,35.3,71.2,33.9c81.7-3.1,60.1-51.8,60.1-51.8s-6.1-33.5-75.8-28
				c-52.8,4.8-54.3,28.3-54.3,28.3s-17.2,3.1-24.8-12.9C254.7,199.4,270.7,202.3,270.7,202.3z"/>
		</g>
	</g>
</g>
<g id="Слой_2_00000020372779387856479600000013796442099160568205_">
	<g>
		<path d="M288.6,215.9c-5.6-0.9-9.7-6.7-10.6-15.1c-0.5-4.8,0-9.9,1.5-14c1.7-4.7,4.4-7.5,7.6-7.9c0.6-0.1,1.2-0.1,1.8,0
			c4.6,0.8,8.4,6.3,10.5,12.6c1.1-10,6.1-19.6,12.9-19.3c0.3,0,0.6,0,0.8,0.1c5.3,0.9,9.3,7.5,11,15.2c0.7-3.9,1.8-7.6,3.4-10.7
			c2.8-5.5,6.6-8.4,10.5-8.2c0.3,0,0.6,0,0.9,0.1c4.7,0.8,8.4,5.7,10.7,12.1c-0.4-6.3-0.6-10.3-0.6-11.1c0-2.4,2-4.1,4.8-4.1
			c0.1,0,1.1,0,2.6,0.3c8.8,1.5,14.2,6.4,14.9,13.8c2.2-3,6.2-4.4,10.9-3.6c4.2,0.7,7.9,3,9.6,6.1c1.1,2,1.4,4.2,0.9,6.4
			c-1.4,5.6-4.6,5.8-5.9,5.5c-1.6-0.3-2.8-1.3-2.9-1.4c-0.7-0.6-1-1.7-0.6-2.6c0.3-0.7,0.8-2.9,0.1-4.5c-0.4-0.9-1.1-1.5-2.2-1.9
			c-0.2-0.1-0.5-0.1-0.7-0.2c-1-0.2-2.3,0-3.1,3c-0.7,2.9,1.3,5.3,4.6,9c3.7,4,8.2,9.1,6.4,16.4c-1.2,4.9-5.7,7.2-11.7,6.3
			c-4.8-0.8-9.2-3.5-11.1-7c-1.2-2.1-1.5-4.3-0.9-6.6c1.7-6.8,5.9-6.7,7.1-6.5c0.5,0.1,2.1,0.4,2.7,1.6c0.3,0.5,0.4,1.3,0.3,1.9
			l-1.1,4.9c0.1,0.7,0.6,2.2,2.2,2.8c0.6,0.2,1.2,0.4,1.7,0.5c2.1,0.3,2.3-0.6,2.5-1.1c0.7-3-1.2-5.5-4.5-9.4c-2.3-2.7-5-5.9-6-9.8
			c-2,3.7-5.6,5.7-10.7,6l0.2,5.6c0.2,8.1,0.4,12.8,0.4,13.4c0,0.9-0.3,1.8-1,2.4c-0.8,0.8-2,1.1-3.3,0.9l0,0
			c-2.2-0.4-3.8-2-3.7-4.1c0-0.6-0.2-4.7-0.5-9.9c-2.1,7.4-7,12-13.3,11.8c-0.5,0-1-0.1-1.4-0.1l0,0c-5.7-0.9-10.1-5.9-11.9-13.2
			c-1.6,7.7-6.3,12.5-12.5,12.3c-0.4,0-0.9-0.1-1.3-0.1l0,0c-4.5-0.7-8.1-4.3-10-9.5c-0.3,2-0.9,3.8-1.8,5.4
			c-1.7,3.2-4.4,5.2-7.6,5.6C290.4,216.1,289.5,216.1,288.6,215.9L288.6,215.9z M287.9,186.7c-0.1,0-0.1,0-0.2,0
			c-1,0.6-2.8,7.6-2.1,13.6c0.5,4.8,2.9,7,4.3,7.2c0.2,0,0.3,0,0.5,0c1.5-0.2,3.4-2.8,2.8-7.8C292.2,190.4,289.1,186.9,287.9,186.7z
			 M311.9,180.5c-1.4,0.3-4.5,8.3-4.6,15.4c0,6,2.6,9.1,4.6,9.4c0.1,0,0.2,0,0.3,0c2.2,0.1,4.6-3.2,4.7-8.8
			c0.1-11.5-3.2-15.9-4.8-16.1L311.9,180.5z M337.6,180.1c-1.3,0.4-4.1,7.8-4.2,14.3c0,5.5,2.4,8.3,4.2,8.6c0.1,0,0.2,0,0.2,0
			c0.9,0,1.8-0.6,2.6-1.7c1-1.5,1.6-3.7,1.6-6.3C342.1,185.1,339.2,180.4,337.6,180.1L337.6,180.1z M358.6,186.4
			c1.4,0.1,2.7,0,3.5-0.9c0.7-0.7,1.1-2,1.1-3.9c0-1.3,0-4.7-5-5.5L358.6,186.4z M394.9,220.3c-2.1-0.3-5.3-2.7-5.4-5.2
			c0-1.4,0.8-3.2,1.9-4.3c0.9-0.9,2-1.3,3.1-1.3c-0.8-0.5-1.4-1.1-1.9-1.8c-0.5-0.9-0.7-2-0.5-3s1.3-7.9,2.4-14.5
			c1.3-7.5,2.6-15.3,2.8-16.7c0.4-2.2,2.5-3.5,5.2-3c0.8,0.1,2.8,0.6,3.8,2.3c0.5,0.8,0.7,1.8,0.5,2.8c-0.3,1.3-1.9,9.4-3.6,17.2
			c-1.5,7.1-2.9,13.8-3.1,14.8c-0.3,1.5-1.5,2.8-3.6,2.6c1.8,1.2,2.4,3.6,2.5,5.1c0.2,1.4-0.1,2.7-0.8,3.6c-0.7,1-1.8,1.5-3.1,1.3
			C395.2,220.3,395.1,220.3,394.9,220.3z"/>
		<path class="st1" d="M286.6,179.9c-5.3,0.6-8.5,10.5-7.4,19.5c1,9.1,5.9,13.9,11.1,13.2c5.3-0.6,8.9-6.5,7.9-15.5
			S291.9,179.3,286.6,179.9z M290,208.5c-2.7,0.3-6.2-3-6.9-9.1c-0.7-6.1,1-15.6,3.7-16c2.7-0.3,6.5,4.5,7.6,14.9
			C295.1,204.4,292.6,208.2,290,208.5z M311.5,173.2c-6.1-0.2-11.2,10.4-11.2,20.9c-0.1,10.5,4.9,16.9,11,17.2
			c6.1,0.2,11.1-5.7,11.2-16.3C322.6,184.5,317.7,173.5,311.5,173.2z M311.4,206.4c-3.2-0.1-6.7-4.5-6.7-11.7
			c0-7.1,3.3-17.7,6.5-17.5c3.2,0.1,6.8,6.4,6.7,18.4C317.9,202.7,314.5,206.6,311.4,206.4z M337.3,169.6
			c-6.9-0.3-12.6,11.7-12.6,23.4c-0.1,11.9,5.5,19,12.4,19.3s12.4-6.4,12.5-18.3C349.6,182.3,344.2,169.9,337.3,169.6z M337.2,204.1
			c-3-0.1-6.3-4.2-6.3-10.9c0-6.6,3.1-16.5,6.1-16.4c2.9,0.1,6.3,6,6.2,17.2C343.2,200.6,340.1,204.2,337.2,204.1z M368.9,180.5
			c0.1-13.4-15.6-13.9-15.6-13.9c-1.4,0-2.9,0.7-3,2c0,2.5,2.4,42,2.4,44.1c0,2,4.2,2.7,4.2,0.7c0-0.9-0.3-10.8-0.6-21.1
			C361.3,192.3,368.8,190.9,368.9,180.5z M355.7,172.6c2.9,0,8.8,0.9,8.8,8c0,7.6-5,7.2-8.3,6.7L355.7,172.6z M390.2,186.7
			c-1.7,6.8-5.9,3.1-5.9,3.1s2.7-7.2-3.2-9.4c-1.9-0.7-4.8-0.7-6.1,4.2c-2.3,9.2,13.9,13.9,11,25.4c-2.5,9.9-22.6,3.4-20.2-6
			c1.8-7.2,6.6-4.7,6.5-4.3l-1.2,5.4c0,0,0.3,3.8,3.6,5.1c3.6,1.3,5.8,0.6,6.5-2c2.3-9.2-13.2-14.4-10.5-25.5
			C373.5,172,392.5,177.5,390.2,186.7z M396.6,214.5c0.3,1.4-0.3,2.7-1.9,2.6c-1.6-0.1-4-2.1-4-3.1s1.3-4,3.6-3.3
			C396.6,211.3,396.6,214.5,396.6,214.5z M404.4,173.9c-0.5,2.5-6.3,29.9-6.7,32c-0.4,2.2-4.9,0.4-4.5-1.9
			c0.4-2.2,4.8-28.6,5.3-31.2C399,170.3,404.9,171.5,404.4,173.9z"/>
	</g>
</g>
</svg>
