<?xml version="1.0" encoding="utf-8"?>
<!-- Generator: Adobe Illustrator 27.1.1, SVG Export Plug-In . SVG Version: 6.00 Build 0)  -->
<svg version="1.1" xmlns="http://www.w3.org/2000/svg" xmlns:xlink="http://www.w3.org/1999/xlink" x="0px" y="0px"
	 viewBox="0 0 852 398" style="enable-background:new 0 0 852 398;" xml:space="preserve">
<style type="text/css">
	.st0{fill:#FFFFFF;stroke:#000000;stroke-width:2.6117;stroke-linecap:round;stroke-linejoin:round;stroke-miterlimit:10;}
</style>
<g id="Слой_30">
	<g id="Слой_3_00000008869831753737337420000010565165759325874609_">
		<g id="Слой_3_00000115490948249377400760000005136581133489233040_">
			<path class="st0" d="M124.4,54.9c0,0-9.4,42.9,94.7,43.3c89.9,0.3,92.3-41.5,92.3-41.5s8-46.3-93.8-46.3
				C137,10.5,130.3,36,130.3,36s-20-4.7-32.4,8.5C119.6,42.2,124.4,54.9,124.4,54.9z"/>
		</g>
	</g>
</g>
<g id="Слой_31__x28_копия_x29_">
	<g>
		<path d="M146.6,37.7c-0.3,0-1.2-0.1-2.7-0.3c-0.1,1.3-0.1,3.1-0.1,5.2l0,4.8c0.9,0,1.8,0,2.7,0c0.4,0,0.7,0.1,1,0.4
			c0.3,0.3,0.4,0.6,0.4,1c0,0.4-0.1,0.7-0.4,1c-0.3,0.3-0.6,0.4-1,0.4c-0.4,0-1,0-1.7,0c-0.8,0-1.3,0-1.7,0c-0.5,0-1.1,0.1-2,0.2
			c-0.9,0.1-1.6,0.2-2,0.2c-0.4,0-0.8-0.1-1-0.4s-0.4-0.6-0.4-1c0-0.4,0.1-0.7,0.4-1c0.3-0.3,0.6-0.4,1.1-0.4c0.5,0,1.1-0.1,1.9-0.2
			c0-0.8,0-2.5,0-4.8c0-1.9,0.1-3.8,0.2-5.5l-2.2,0.1c-0.4,0-0.7-0.1-1-0.4c-0.3-0.3-0.4-0.6-0.4-1c0-0.4,0.1-0.8,0.4-1
			c0.2-0.2,0.5-0.4,0.9-0.4c0.6-0.1,1.6-0.1,3-0.1c1.3,0,2.9,0.1,4.9,0.4c0.8,0.1,1.2,0.6,1.2,1.5c0,0.5-0.2,0.8-0.5,1.1
			C147.2,37.6,146.9,37.7,146.6,37.7z"/>
		<path d="M161.4,40.6c0.5-0.5,1-0.9,1.6-1.1c0.6-0.3,1.2-0.4,1.8-0.4c1.2,0,2,0.3,2.5,1c0.4,0.5,0.6,1.3,0.7,2.4
			c0,0.9,0.1,1.8,0.1,2.6c0.1,1.1,0.2,1.8,0.2,2.1c0.1,0.8,0.2,1.5,0.3,2.1c0,0.1,0.1,0.3,0.1,0.4c0,0.4-0.1,0.7-0.4,1
			c-0.3,0.3-0.6,0.4-1,0.4c-0.7,0-1.1-0.4-1.3-1.1c-0.2-0.6-0.3-1.4-0.4-2.4c-0.1-1-0.2-1.8-0.2-2.5c0-0.2,0-0.4,0-0.8
			c0-0.4,0-0.6,0-0.8c0-0.5,0-0.8,0-0.9c-0.1-0.4-0.2-0.6-0.5-0.6c-0.7,0-1.4,0.4-2,1.1c-0.3,0.4-0.7,1.1-1.3,2.1
			c0,2.6-0.1,4.1-0.4,4.7c-0.3,0.6-0.7,0.9-1.3,0.9c-0.4,0-0.7-0.1-1-0.4c-0.3-0.3-0.4-0.6-0.4-1c0-0.1,0-0.3,0.1-0.6
			c0-0.2,0.1-1.1,0.1-2.9c0-1.4,0-3.8,0-7.1l0-0.4c0-0.8,0.1-1.4,0.1-1.7c0-0.2,0-0.5-0.1-1c-0.1-0.4-0.1-0.8-0.1-1
			c0-0.4,0.1-0.7,0.4-1c0.3-0.3,0.6-0.4,1-0.4c0.7,0,1.1,0.4,1.3,1.1c0.1,0.4,0.2,1.1,0.2,2c0,0.7,0,1.4-0.1,2.2
			C161.5,39.2,161.4,39.9,161.4,40.6z"/>
		<path d="M179.1,50.9c-0.3,0-0.8-0.3-1.5-1c-0.6,0.3-1.2,0.6-1.6,0.7c-0.5,0.2-0.9,0.2-1.2,0.2c-1.6,0-2.8-0.5-3.7-1.4
			c-0.8-0.9-1.2-2.3-1.2-4.1c0-1.7,0.6-3.2,1.8-4.4c1.2-1.2,2.6-1.8,4.3-1.8c0.6,0,1.4,0.2,2.2,0.6c1,0.5,1.5,1,1.5,1.6
			c0,0.3-0.1,0.5-0.2,0.7c-0.1,0.3-0.1,0.6-0.2,1.1c0,0.4-0.1,0.9-0.1,1.5c0,1.3,0.1,2.3,0.3,2.9c0,0.1,0.2,0.4,0.5,1.1
			c0.3,0.6,0.4,1,0.4,1c0,0.4-0.1,0.7-0.4,0.9C179.8,50.8,179.5,50.9,179.1,50.9z M176.6,43.7c0-0.2,0-0.5,0-0.8
			c0-0.3,0.1-0.6,0.1-1c-0.1-0.1-0.3-0.1-0.4-0.2s-0.2,0-0.3,0c-0.9,0-1.7,0.4-2.4,1.1c-0.7,0.8-1,1.6-1,2.6c0,1,0.2,1.7,0.5,2.2
			c0.3,0.5,0.8,0.7,1.5,0.7c0.4,0,0.8-0.1,1.2-0.2c0.4-0.1,0.7-0.4,1.1-0.6C176.7,45.8,176.6,44.6,176.6,43.7z"/>
		<path d="M187.3,49.6c0,0.4-0.2,0.6-0.4,0.9s-0.5,0.3-0.9,0.3c-0.7,0-1.2-0.4-1.4-1.1c-0.7-1.9-1.8-4.8-3.3-8.6
			c-0.1-0.2-0.1-0.4-0.1-0.6c0-0.4,0.1-0.7,0.4-1c0.3-0.3,0.6-0.4,1-0.4c0.6,0,1,0.3,1.2,0.8c0.4,0.9,1.1,2.9,2.2,6
			c0.4-0.8,0.8-2,1.5-3.7c0.2-0.5,0.5-1.3,0.9-2.3c0.3-0.6,0.7-0.9,1.3-0.9c0.4,0,0.7,0.1,1,0.4c0.3,0.3,0.4,0.6,0.4,1
			c0,0.3-0.5,1.7-1.6,4.2C188.5,46.8,187.8,48.4,187.3,49.6z"/>
		<path d="M197,50.8c-1.6,0-2.9-0.4-4-1.2c-1.1-0.9-1.7-2.2-1.7-3.8c0-1.8,0.4-3.3,1.3-4.6c1-1.4,2.3-2.1,4-2.1
			c1.2,0,2.1,0.2,2.9,0.6c1,0.5,1.5,1.3,1.5,2.5c0,0.8-0.4,1.5-1.2,2.1c-0.4,0.3-1.1,0.7-2.3,1.2l-3.4,1.6c0.3,0.4,0.7,0.6,1.2,0.8
			c0.5,0.2,1,0.3,1.6,0.3c0.9,0,1.7-0.2,2.3-0.6c0.6-0.3,1-0.5,1.3-0.5c0.7,0,1.1,0.4,1.1,1.1c0,0.8-0.6,1.5-1.7,2
			C199.1,50.6,198.1,50.8,197,50.8z M196.8,41.8c-0.6,0-1.2,0.2-1.6,0.7c-0.4,0.4-0.8,1.1-1.1,2c0.8-0.3,1.5-0.7,2.3-1
			c0.9-0.4,1.6-0.8,2.2-1.2C198.1,41.9,197.5,41.8,196.8,41.8z"/>
		<path d="M211.5,51.1c-0.8,0-1.3-0.4-1.4-1.3c-0.1-0.7-0.2-1.5-0.3-2.2c-0.1-0.8-0.2-1.5-0.2-2.2c0-0.2,0-0.5,0-1c0-0.4,0-0.8,0-1
			c0,0,0-0.2,0-0.4c0-0.2,0-0.4,0-0.5c0-0.6-0.1-0.9-0.4-0.9c-0.6,0-1.1,0.4-1.7,1.2c-0.6,0.8-1,1.8-1.3,3c0,0.2,0,0.6-0.1,1
			c0,0.3-0.1,0.7-0.1,1c0,0.2,0,0.5-0.1,0.9c0,0.4-0.1,0.7-0.1,0.9c0,0.4-0.1,0.8-0.4,1c-0.3,0.3-0.6,0.4-1,0.4s-0.7-0.1-1-0.4
			c-0.3-0.3-0.4-0.6-0.4-1c0-0.2,0-0.5-0.1-0.9c0-0.4-0.1-0.7-0.1-0.9c0-0.7,0-1.7,0.1-2.9c0.1-1.2,0.1-2.2,0.1-2.9c0-0.2,0-0.5,0-1
			c0-0.4,0-0.8,0-1c0-0.4,0.1-0.7,0.4-1s0.6-0.4,1-0.4c0.9,0,1.4,0.6,1.4,1.7l0,0.1c1-1,2-1.6,3.1-1.6c1.3,0,2.2,0.6,2.6,1.7
			c0.3,0.8,0.5,1.9,0.5,3.4v0.8c0,0.3,0,0.6,0,0.7c0,0.6,0.1,1.3,0.2,2.1c0.1,0.9,0.2,1.6,0.2,2.1c0,0.4-0.1,0.7-0.4,1
			C212.2,51,211.9,51.1,211.5,51.1z"/>
		<path d="M219.1,35.5l-0.1,3.7c0,0.3-0.1,0.6-0.4,0.9c-0.2,0.2-0.6,0.4-0.9,0.4c-0.4,0-0.7-0.1-0.9-0.4c-0.3-0.2-0.4-0.5-0.4-0.9
			c0-1,0-2.4,0.1-4.3c0-0.5,0.2-0.8,0.4-1.1c0.2-0.2,0.5-0.4,0.9-0.4c0.4,0,0.7,0.1,0.9,0.4s0.4,0.5,0.4,0.9c0,0.1,0,0.2,0,0.4
			C219.1,35.3,219.1,35.4,219.1,35.5z"/>
		<path d="M230.5,41.7c-0.1,0-0.3,0-0.5,0c-0.2,0-0.4,0-0.5,0c-0.3,0-0.6,0-1,0.1c0.1,2.9,0.2,4.8,0.2,5.6c0,0.1,0,0.3,0,0.5
			c0,0.3,0,0.5,0,0.6c0,1.6-0.5,2.5-1.5,2.5c-0.4,0-0.7-0.1-1-0.4c-0.3-0.3-0.4-0.6-0.4-1c0-0.3,0-0.6,0-1.2c0-0.5,0-0.9,0-1.2
			c0-0.9-0.1-2.7-0.2-5.5c-0.4,0-1-0.1-1.9-0.2c-0.8-0.1-1.3-0.6-1.3-1.4c0-0.4,0.1-0.7,0.4-1c0.3-0.3,0.6-0.4,1-0.4
			c0.2,0,0.8,0,1.7,0.1c0-0.2,0-0.6-0.1-1.1c0-0.5,0-0.8,0-1.1c0-0.4,0.1-0.7,0.4-1c0.3-0.3,0.6-0.4,1-0.4c1,0,1.5,0.9,1.5,2.7
			l0,0.9c0.4-0.1,0.8-0.1,1-0.1c0.8,0,1.3,0.1,1.6,0.2c0.5,0.2,0.8,0.6,0.8,1.3c0,0.4-0.1,0.7-0.4,1
			C231.2,41.6,230.9,41.7,230.5,41.7z"/>
		<path d="M244.7,40.9c1-1.2,2-1.9,2.9-1.9c1,0,1.8,0.4,2.3,1.3c0.4-0.4,0.9-0.7,1.4-0.9c0.5-0.2,1-0.3,1.6-0.3
			c1.3,0,2.2,0.7,2.7,2.1c0.1,0.3,0.2,1.3,0.4,2.9c0.2,1.2,0.4,3.1,0.7,5.8c0,0.4-0.1,0.7-0.4,1c-0.3,0.3-0.6,0.4-1,0.4
			c-0.8,0-1.2-0.4-1.4-1.2c-0.1-0.7-0.2-1.8-0.4-3.1c-0.1-1.5-0.2-2.5-0.3-3.1c-0.2-1.3-0.4-1.9-0.7-1.9c-0.2,0-0.5,0.2-1.1,0.5
			c-0.6,0.3-1,0.6-1.2,0.8c0,0.8,0.1,2,0.3,3.5c0.2,1.6,0.3,2.7,0.3,3.5c0,0.4-0.1,0.7-0.4,1c-0.3,0.3-0.6,0.4-1,0.4s-0.7-0.1-1-0.4
			c-0.3-0.3-0.4-0.6-0.4-1c0-0.8-0.1-2-0.2-3.6c-0.2-1.6-0.2-2.8-0.2-3.6c0-0.5,0-0.8-0.1-1.1c-0.8,0.5-1.6,1.3-2.4,2.4
			c0,0.1-0.1,0.1-0.2,0.2c0,1.4,0,2.6,0,3.4c0,0.2,0,0.5,0,0.8c0,0.3,0,0.6,0,0.8c0,0.4-0.1,0.7-0.4,0.9c-0.3,0.2-0.6,0.3-1,0.3
			c-0.6,0-1-0.3-1.2-0.8c-0.1-0.4-0.2-0.9-0.2-1.7v-4c0-0.4,0-0.9,0-1.6c0-0.7,0-1.2,0-1.6c0-0.6,0.1-1.2,0.3-1.7
			c0.3-0.6,0.6-1,1.1-1c0.4,0,0.7,0.2,1,0.5c0.3,0.3,0.4,0.7,0.4,1C244.8,39.8,244.7,40.1,244.7,40.9z"/>
		<path d="M263.2,50.8c-1.6,0-2.9-0.4-4-1.2c-1.1-0.9-1.7-2.2-1.7-3.8c0-1.8,0.4-3.3,1.3-4.6c1-1.4,2.3-2.1,4-2.1
			c1.2,0,2.1,0.2,2.9,0.6c1,0.5,1.5,1.3,1.5,2.5c0,0.8-0.4,1.5-1.2,2.1c-0.4,0.3-1.1,0.7-2.3,1.2l-3.4,1.6c0.3,0.4,0.7,0.6,1.2,0.8
			c0.5,0.2,1,0.3,1.6,0.3c0.9,0,1.7-0.2,2.3-0.6c0.6-0.3,1-0.5,1.3-0.5c0.7,0,1.1,0.4,1.1,1.1c0,0.8-0.6,1.5-1.7,2
			C265.3,50.6,264.3,50.8,263.2,50.8z M262.9,41.8c-0.6,0-1.2,0.2-1.6,0.7c-0.4,0.4-0.8,1.1-1.1,2c0.8-0.3,1.5-0.7,2.3-1
			c0.9-0.4,1.6-0.8,2.2-1.2C264.3,41.9,263.7,41.8,262.9,41.8z"/>
		<path d="M276.8,41.7c-0.1,0-0.3,0-0.5,0c-0.2,0-0.4,0-0.5,0c-0.3,0-0.6,0-1,0.1c0.1,2.9,0.2,4.8,0.2,5.6c0,0.1,0,0.3,0,0.5
			c0,0.3,0,0.5,0,0.6c0,1.6-0.5,2.5-1.5,2.5c-0.4,0-0.7-0.1-1-0.4c-0.3-0.3-0.4-0.6-0.4-1c0-0.3,0-0.6,0-1.2c0-0.5,0-0.9,0-1.2
			c0-0.9-0.1-2.7-0.2-5.5c-0.4,0-1-0.1-1.9-0.2c-0.8-0.1-1.3-0.6-1.3-1.4c0-0.4,0.1-0.7,0.4-1c0.3-0.3,0.6-0.4,1-0.4
			c0.2,0,0.8,0,1.7,0.1c0-0.2,0-0.6-0.1-1.1c0-0.5,0-0.8,0-1.1c0-0.4,0.1-0.7,0.4-1c0.3-0.3,0.6-0.4,1-0.4c1,0,1.5,0.9,1.5,2.7
			l0,0.9c0.4-0.1,0.8-0.1,1-0.1c0.8,0,1.3,0.1,1.6,0.2c0.5,0.2,0.8,0.6,0.8,1.3c0,0.4-0.1,0.7-0.4,1
			C277.6,41.6,277.2,41.7,276.8,41.7z"/>
		<path d="M297.1,50.9c-0.3,0-0.8-0.3-1.5-1c-0.6,0.3-1.2,0.6-1.6,0.7c-0.5,0.2-0.9,0.2-1.2,0.2c-1.6,0-2.8-0.5-3.7-1.4
			c-0.8-0.9-1.2-2.3-1.2-4.1c0-1.7,0.6-3.2,1.8-4.4c1.2-1.2,2.6-1.8,4.3-1.8c0.6,0,1.4,0.2,2.2,0.6c1,0.5,1.5,1,1.5,1.6
			c0,0.3-0.1,0.5-0.2,0.7c-0.1,0.3-0.1,0.6-0.2,1.1c0,0.4-0.1,0.9-0.1,1.5c0,1.3,0.1,2.3,0.3,2.9c0,0.1,0.2,0.4,0.5,1.1
			c0.3,0.6,0.4,1,0.4,1c0,0.4-0.1,0.7-0.4,0.9C297.8,50.8,297.5,50.9,297.1,50.9z M294.6,43.7c0-0.2,0-0.5,0-0.8
			c0-0.3,0.1-0.6,0.1-1c-0.1-0.1-0.3-0.1-0.4-0.2c-0.1,0-0.2,0-0.3,0c-0.9,0-1.7,0.4-2.4,1.1c-0.7,0.8-1,1.6-1,2.6
			c0,1,0.2,1.7,0.5,2.2c0.3,0.5,0.8,0.7,1.5,0.7c0.4,0,0.8-0.1,1.2-0.2c0.4-0.1,0.7-0.4,1.1-0.6C294.7,45.8,294.6,44.6,294.6,43.7z"
			/>
		<path d="M180.4,68.4c-0.6,0.7-1.3,1.6-2.1,2.8c-1.1,1.6-1.8,2.6-2.1,3c0.4,0,0.8,0,1,0c0.3,0,0.7,0.1,1.2,0.2
			c0.5,0.1,0.9,0.2,1.2,0.2c0.4,0,0.7,0.1,1,0.4c0.3,0.3,0.4,0.6,0.4,1c0,0.4-0.1,0.7-0.4,1c-0.3,0.3-0.6,0.4-1,0.4
			c-0.3,0-0.7-0.1-1.2-0.1c-0.5-0.1-0.9-0.1-1.2-0.1c-1.5,0-2.9,0.1-4.2,0.4c-0.2,0-0.3,0.1-0.4,0.1c-0.4,0-0.7-0.1-1-0.3
			c-0.3-0.2-0.4-0.5-0.4-0.9c0-0.5,0.2-0.9,0.6-1.3c1.7-1.5,3.4-3.7,5.3-6.6c-0.4,0-0.8,0-1.2,0c-1,0-2.1-0.1-3.1-0.2
			c-0.8-0.1-1.2-0.6-1.2-1.4c0-0.4,0.1-0.7,0.4-1c0.3-0.3,0.6-0.4,1-0.4c0.3,0,0.8,0,1.5,0.1c0.7,0.1,1.2,0.1,1.5,0.1
			c0.5,0,1.1,0,2.1-0.1c0.9-0.1,1.6-0.1,2.1-0.1c0.8,0,1.3,0.4,1.3,1.1C181.3,67.1,181,67.8,180.4,68.4z"/>
		<path d="M187,77.2c-1.2,0-2.3-0.5-3.2-1.4c-1-1-1.5-2.3-1.5-4c0-1.6,0.4-3,1.2-4.2c1-1.5,2.4-2.2,4.3-2.2c1.3,0,2.4,0.6,3.2,1.7
			c0.7,1,1.1,2.3,1.1,3.8c0,1.7-0.4,3.1-1.3,4.2C189.8,76.6,188.6,77.2,187,77.2z M187.6,68.4c-0.8,0-1.5,0.4-2,1.2
			c-0.4,0.7-0.6,1.5-0.6,2.4c0,0.9,0.2,1.5,0.7,2c0.4,0.4,0.8,0.5,1.3,0.5c0.6,0,1.1-0.2,1.5-0.6c0.5-0.5,0.8-1.2,0.8-2
			C189.4,69.5,188.8,68.4,187.6,68.4z"/>
		<path d="M196.3,67.2c1-1.2,2-1.9,2.9-1.9c1,0,1.8,0.4,2.3,1.3c0.4-0.4,0.9-0.7,1.4-0.9c0.5-0.2,1-0.3,1.6-0.3
			c1.3,0,2.2,0.7,2.7,2.1c0.1,0.3,0.2,1.3,0.4,2.9c0.2,1.2,0.4,3.1,0.7,5.8c0,0.4-0.1,0.7-0.4,1c-0.3,0.3-0.6,0.4-1,0.4
			c-0.8,0-1.2-0.4-1.4-1.2c-0.1-0.7-0.2-1.8-0.4-3.1c-0.1-1.5-0.2-2.5-0.3-3.1c-0.2-1.3-0.4-1.9-0.7-1.9c-0.2,0-0.5,0.2-1.1,0.5
			c-0.6,0.3-1,0.6-1.2,0.8c0,0.8,0.1,2,0.3,3.5c0.2,1.6,0.3,2.7,0.3,3.5c0,0.4-0.1,0.7-0.4,1c-0.3,0.3-0.6,0.4-1,0.4
			c-0.4,0-0.7-0.1-1-0.4c-0.3-0.3-0.4-0.6-0.4-1c0-0.8-0.1-2-0.2-3.6c-0.2-1.6-0.2-2.8-0.2-3.6c0-0.5,0-0.8-0.1-1.1
			c-0.8,0.5-1.6,1.3-2.4,2.4c0,0.1-0.1,0.1-0.2,0.2c0,1.4,0,2.6,0,3.4c0,0.2,0,0.5,0,0.8c0,0.3,0,0.6,0,0.8c0,0.4-0.1,0.7-0.4,0.9
			c-0.3,0.2-0.6,0.3-1,0.3c-0.6,0-1-0.3-1.2-0.8c-0.1-0.4-0.2-0.9-0.2-1.7v-4c0-0.4,0-0.9,0-1.6c0-0.7,0-1.2,0-1.6
			c0-0.6,0.1-1.2,0.3-1.7c0.3-0.6,0.6-1,1.1-1c0.4,0,0.7,0.2,1,0.5c0.3,0.3,0.4,0.7,0.4,1C196.4,66.1,196.4,66.4,196.3,67.2z"/>
		<path d="M214.6,77.1c-0.9,0-1.8-0.2-2.7-0.5c-0.2,0.3-0.6,0.4-0.9,0.4c-0.4,0-0.7-0.1-0.9-0.4s-0.4-0.6-0.4-1c0-0.2,0-0.4,0-0.8
			c0-0.4,0-0.6,0-0.8V61.9c0-0.5,0.1-1,0.3-1.4c0.3-0.5,0.7-0.8,1.2-0.8c0.7,0,1.1,0.4,1.1,1.2c0,0.1,0,0.2,0,0.4c0,0.2,0,0.4,0,0.4
			V66c0.5-0.3,1-0.5,1.4-0.7c0.5-0.1,0.9-0.2,1.3-0.2c1.6,0,2.9,0.6,3.8,1.8c0.9,1.1,1.4,2.5,1.4,4.1c0,1.7-0.5,3.1-1.6,4.2
			C217.5,76.5,216.2,77.1,214.6,77.1z M215,67.9c-0.4,0-0.8,0.1-1.2,0.3c-0.5,0.2-1,0.5-1.5,1c0,0.7,0,2.2,0,4.5
			c0.9,0.4,1.7,0.6,2.4,0.6c0.9,0,1.6-0.3,2.1-0.9c0.6-0.6,0.8-1.4,0.8-2.3c0-0.9-0.2-1.7-0.7-2.3C216.4,68.2,215.8,67.9,215,67.9z"
			/>
		<path d="M225.2,71.6c0,0.4,0,1.1,0,2c0,0.9,0,1.5,0,2c0,0.4-0.1,0.8-0.4,1c-0.3,0.3-0.6,0.4-1,0.4c-0.4,0-0.7-0.1-1-0.4
			c-0.3-0.3-0.4-0.6-0.4-1c0-0.4,0-1.1,0-2c0-0.9,0-1.5,0-2c0-0.6,0-1.4,0.1-2.4c0.1-1,0.1-1.7,0.1-2.4c0-0.4,0.1-0.8,0.4-1
			c0.3-0.3,0.6-0.4,1-0.4c0.4,0,0.7,0.1,1,0.4c0.3,0.3,0.4,0.6,0.4,1c0,0.6,0,1.4-0.1,2.4C225.3,70.2,225.2,71,225.2,71.6z
			 M224.4,63.8c-0.4,0-0.8-0.2-1.1-0.5c-0.3-0.3-0.5-0.7-0.5-1.1c0-0.4,0.2-0.8,0.5-1.1c0.3-0.3,0.7-0.5,1.1-0.5
			c0.4,0,0.8,0.2,1.1,0.5c0.3,0.3,0.5,0.7,0.5,1.1c0,0.4-0.2,0.8-0.5,1.1C225.2,63.6,224.8,63.8,224.4,63.8z"/>
		<path d="M233,77.1c-1.6,0-2.9-0.4-4-1.2c-1.1-0.9-1.7-2.2-1.7-3.8c0-1.8,0.4-3.3,1.3-4.6c1-1.4,2.3-2.1,4-2.1
			c1.2,0,2.1,0.2,2.9,0.6c1,0.5,1.5,1.3,1.5,2.5c0,0.8-0.4,1.5-1.2,2.1c-0.4,0.3-1.1,0.7-2.3,1.2l-3.4,1.6c0.3,0.4,0.7,0.6,1.2,0.8
			c0.5,0.2,1,0.3,1.6,0.3c0.9,0,1.7-0.2,2.3-0.6c0.6-0.3,1-0.5,1.3-0.5c0.7,0,1.1,0.4,1.1,1.1c0,0.8-0.6,1.5-1.7,2
			C235,76.9,234,77.1,233,77.1z M232.7,68c-0.6,0-1.2,0.2-1.6,0.7c-0.4,0.4-0.8,1.1-1.1,2c0.8-0.3,1.5-0.7,2.3-1
			c0.9-0.4,1.6-0.8,2.2-1.2C234,68.2,233.4,68,232.7,68z"/>
		<path d="M242.9,77.7c-0.5,0-0.8-0.1-1.2-0.4c-0.3-0.3-0.5-0.6-0.5-1c0-0.4,0.2-0.7,0.5-1s0.7-0.5,1.2-0.5c0.5,0,0.9,0.1,1.2,0.4
			s0.5,0.6,0.5,1c0,0.4-0.2,0.7-0.5,1C243.7,77.6,243.3,77.7,242.9,77.7z"/>
		<path d="M251.8,77.7c-0.5,0-0.8-0.1-1.2-0.4c-0.3-0.3-0.5-0.6-0.5-1c0-0.4,0.2-0.7,0.5-1s0.7-0.5,1.2-0.5c0.5,0,0.9,0.1,1.2,0.4
			s0.5,0.6,0.5,1c0,0.4-0.2,0.7-0.5,1C252.7,77.6,252.3,77.7,251.8,77.7z"/>
		<path d="M260.8,77.7c-0.5,0-0.8-0.1-1.2-0.4c-0.3-0.3-0.5-0.6-0.5-1c0-0.4,0.2-0.7,0.5-1s0.7-0.5,1.2-0.5c0.5,0,0.9,0.1,1.2,0.4
			s0.5,0.6,0.5,1c0,0.4-0.2,0.7-0.5,1C261.7,77.6,261.3,77.7,260.8,77.7z"/>
	</g>
</g>
</svg>
