<?xml version="1.0" encoding="utf-8"?>
<!-- Generator: Adobe Illustrator 27.1.1, SVG Export Plug-In . SVG Version: 6.00 Build 0)  -->
<svg version="1.1" xmlns="http://www.w3.org/2000/svg" xmlns:xlink="http://www.w3.org/1999/xlink" x="0px" y="0px"
	 viewBox="0 0 852 398" style="enable-background:new 0 0 852 398;" xml:space="preserve">
<style type="text/css">
	.st0{fill:#FFFFFF;stroke:#000000;stroke-width:3;stroke-linecap:round;stroke-linejoin:round;stroke-miterlimit:10;}
</style>
<g id="Слой_30__x28_копия_x29_">
	<g id="Слой_3_00000039830178400982747170000012755283494118470031_">
		<g id="Слой_3_00000120533602326924730230000008037405682340603321_">
			<path class="st0" d="M146.3,78.9C-65.1,221.1,24,321.3,24,321.3s-12.6,59.3,97.6,59.7c95.2,0.3,97.7-47.2,97.7-47.2
				s8.5-52.6-99.3-52.6c-85.3,0.1-92.3,29.2-92.3,29.2s-74.1-91.8,124.1-228.1"/>
		</g>
	</g>
</g>
<g id="Слой_31">
	<g>
		<path d="M45.5,328.3c-1,0-1.9-0.2-2.7-0.5c-0.3,0.3-0.6,0.4-0.9,0.4c-0.4,0-0.7-0.1-0.9-0.4c-0.3-0.2-0.4-0.6-0.4-0.9
			c0-0.2,0-0.4,0-0.8c0-0.3,0-0.6,0-0.8v-11.6c0-0.5,0.1-0.9,0.3-1.3c0.3-0.5,0.7-0.7,1.2-0.7c0.7,0,1.1,0.4,1.1,1.2
			c0,0.1,0,0.2,0,0.4c0,0.2,0,0.3,0,0.4v3.9c0.5-0.3,1-0.5,1.5-0.6c0.5-0.1,0.9-0.2,1.3-0.2c1.6,0,2.9,0.6,3.9,1.8
			c0.9,1.1,1.4,2.4,1.4,4c0,1.6-0.5,2.9-1.6,4C48.5,327.7,47.1,328.3,45.5,328.3z M45.9,319.5c-0.4,0-0.8,0.1-1.2,0.3
			c-0.5,0.2-1,0.5-1.6,0.9c0,0.6,0,2.1,0,4.4c0.9,0.4,1.7,0.6,2.4,0.6c0.9,0,1.6-0.3,2.1-0.9c0.6-0.6,0.8-1.3,0.8-2.2
			c0-0.9-0.2-1.6-0.7-2.2C47.3,319.8,46.7,319.5,45.9,319.5z"/>
		<path d="M58.2,328.3c-1.6,0-3-0.4-4-1.2c-1.1-0.9-1.7-2.1-1.7-3.6c0-1.7,0.5-3.2,1.4-4.4c1-1.3,2.4-2,4.1-2c1.2,0,2.2,0.2,3,0.6
			c1,0.5,1.5,1.3,1.5,2.4c0,0.8-0.4,1.4-1.3,2c-0.4,0.3-1.2,0.7-2.3,1.2l-3.5,1.5c0.3,0.4,0.7,0.6,1.2,0.8s1,0.3,1.6,0.3
			c0.9,0,1.7-0.2,2.3-0.6c0.6-0.3,1-0.5,1.4-0.5c0.7,0,1.1,0.3,1.1,1c0,0.8-0.6,1.4-1.7,1.9C60.3,328.1,59.3,328.3,58.2,328.3z
			 M58,319.6c-0.6,0-1.2,0.2-1.6,0.6c-0.5,0.4-0.8,1.1-1.1,1.9c0.8-0.3,1.5-0.7,2.3-1c0.9-0.4,1.7-0.8,2.2-1.2
			C59.3,319.8,58.7,319.6,58,319.6z"/>
		<path d="M69.5,328.5c-1.5,0-2.8-0.4-3.8-1.3c-1.1-0.9-1.6-2.1-1.6-3.6c0-1.4,0.5-2.8,1.4-4.2c1.1-1.7,2.4-2.5,3.8-2.5
			c0.7,0,1.5,0.2,2.5,0.6c1.2,0.5,1.7,1,1.7,1.6c0,0.3-0.1,0.6-0.3,0.9c-0.2,0.3-0.6,0.4-1,0.4c-0.3,0-0.6-0.2-1.1-0.5
			c-0.4-0.3-1-0.5-1.9-0.5c-0.5,0-1.1,0.5-1.7,1.5c-0.6,1-0.9,1.9-0.9,2.6c0,0.7,0.3,1.3,0.8,1.7c0.5,0.4,1.1,0.6,1.9,0.6
			c0.5,0,1-0.2,1.7-0.5c0.7-0.3,1.1-0.5,1.3-0.5c0.4,0,0.7,0.1,0.9,0.4c0.3,0.3,0.4,0.6,0.4,0.9c0,0.5-0.6,1.1-1.7,1.6
			C71,328.3,70.2,328.5,69.5,328.5z"/>
		<path d="M84.4,328.4c-0.3,0-0.8-0.3-1.5-0.9c-0.6,0.3-1.2,0.5-1.7,0.7s-0.9,0.2-1.2,0.2c-1.6,0-2.9-0.4-3.7-1.3
			c-0.8-0.9-1.2-2.2-1.2-4c0-1.6,0.6-3.1,1.8-4.2s2.7-1.8,4.4-1.8c0.6,0,1.4,0.2,2.3,0.5c1,0.4,1.5,0.9,1.5,1.5
			c0,0.2-0.1,0.5-0.2,0.6c-0.1,0.3-0.1,0.6-0.2,1c0,0.4-0.1,0.9-0.1,1.4c0,1.3,0.1,2.2,0.3,2.8c0,0.1,0.2,0.4,0.5,1.1
			c0.3,0.6,0.4,0.9,0.4,1c0,0.4-0.1,0.7-0.4,0.9C85.1,328.3,84.8,328.4,84.4,328.4z M81.9,321.5c0-0.2,0-0.5,0-0.8
			c0-0.3,0.1-0.6,0.1-0.9c-0.1-0.1-0.3-0.1-0.4-0.1c-0.1,0-0.2,0-0.3,0c-0.9,0-1.7,0.4-2.4,1.1c-0.7,0.7-1,1.6-1,2.5
			c0,0.9,0.2,1.6,0.5,2.1c0.3,0.5,0.8,0.7,1.5,0.7c0.4,0,0.8-0.1,1.2-0.2c0.4-0.1,0.7-0.3,1.1-0.6C82,323.5,81.9,322.3,81.9,321.5z"
			/>
		<path d="M96.2,321.9c0,0.5,0,1.1,0,2.1c0,0.9,0,1.6,0,2.1c0,0.1,0,0.4,0,0.6c0,0.3,0,0.5,0,0.6c0,0.4-0.1,0.7-0.4,0.9
			c-0.3,0.2-0.6,0.4-1,0.4c-0.6,0-1-0.3-1.2-0.8c-0.9,0.3-1.8,0.5-2.7,0.5c-1,0-1.8-0.2-2.4-0.6c-0.7-0.5-1.2-1.2-1.3-2
			c-0.3-1.7-0.4-3.2-0.4-4.6c0-0.9,0.1-1.9,0.3-3c0.1-0.8,0.6-1.2,1.4-1.2c0.4,0,0.7,0.1,1,0.4c0.3,0.2,0.4,0.6,0.4,0.9
			c0,0.3,0,0.8-0.1,1.4c-0.1,0.6-0.1,1.1-0.1,1.5c0,1,0,1.8,0.1,2.5c0.1,0.7,0.2,1.3,0.3,1.8c0.2,0.1,0.3,0.1,0.5,0.2
			c0.2,0,0.3,0.1,0.5,0.1c0.8,0,1.6-0.1,2.5-0.3c0-0.5,0-1.1,0-1.8c0-0.8,0-1.4,0-1.7c0-1.4,0.1-2.6,0.2-3.6
			c0.1-0.8,0.6-1.2,1.4-1.2c0.4,0,0.7,0.1,1,0.4c0.3,0.3,0.4,0.6,0.4,1C96.3,320.9,96.2,322.1,96.2,321.9z"/>
		<path d="M105.4,320.3c-0.7,0-1.1-0.3-1.2-0.9c-0.3,0-0.6-0.1-0.8-0.1c-1.6,0-2.5,0.2-2.5,0.7c0,0.3,0.5,0.6,1.5,1.1
			c1.4,0.6,2.3,1.1,2.7,1.5c1,0.7,1.5,1.5,1.5,2.4c0,1.2-0.5,2.1-1.6,2.7c-0.9,0.5-2,0.7-3.2,0.7c-0.9,0-1.7-0.1-2.5-0.4
			c-1-0.4-1.5-0.9-1.5-1.7c0-0.7,0.4-1,1.2-1c0.3,0,0.8,0.1,1.4,0.3c0.6,0.2,1.1,0.3,1.4,0.3c1.4,0,2.1-0.3,2.1-0.8
			c0-0.3-0.5-0.7-1.4-1.2c-1.4-0.6-2.3-1.1-2.7-1.3c-1-0.7-1.4-1.5-1.4-2.5c0-1.4,0.7-2.3,2.2-2.8c0.9-0.3,2.2-0.4,3.9-0.4
			c0.7,0,1.2,0.1,1.5,0.3c0.5,0.2,0.7,0.7,0.7,1.3C106.4,319.7,106,320.3,105.4,320.3z"/>
		<path d="M113.5,328.3c-1.6,0-3-0.4-4-1.2c-1.1-0.9-1.7-2.1-1.7-3.6c0-1.7,0.5-3.2,1.4-4.4c1-1.3,2.4-2,4.1-2c1.2,0,2.2,0.2,3,0.6
			c1,0.5,1.5,1.3,1.5,2.4c0,0.8-0.4,1.4-1.3,2c-0.4,0.3-1.2,0.7-2.3,1.2l-3.5,1.5c0.3,0.4,0.7,0.6,1.2,0.8c0.5,0.2,1,0.3,1.6,0.3
			c0.9,0,1.7-0.2,2.3-0.6c0.6-0.3,1-0.5,1.4-0.5c0.7,0,1.1,0.3,1.1,1c0,0.8-0.6,1.4-1.7,1.9C115.6,328.1,114.6,328.3,113.5,328.3z
			 M113.2,319.6c-0.6,0-1.2,0.2-1.6,0.6c-0.5,0.4-0.8,1.1-1.1,1.9c0.8-0.3,1.5-0.7,2.3-1c0.9-0.4,1.7-0.8,2.2-1.2
			C114.6,319.8,114,319.6,113.2,319.6z"/>
		<path d="M136.4,319.6c-0.1,0-0.3,0-0.5,0c-0.2,0-0.4,0-0.5,0c-0.3,0-0.6,0-1,0.1c0.1,2.8,0.2,4.6,0.2,5.4c0,0.1,0,0.3,0,0.5
			c0,0.2,0,0.4,0,0.6c0,1.6-0.5,2.4-1.5,2.4c-0.4,0-0.7-0.1-1-0.3c-0.3-0.2-0.5-0.6-0.5-0.9c0-0.2,0-0.6,0-1.1c0-0.5,0-0.9,0-1.1
			c0-0.8-0.1-2.6-0.2-5.3c-0.4,0-1.1-0.1-1.9-0.2c-0.9-0.1-1.3-0.5-1.3-1.3c0-0.4,0.1-0.7,0.4-1c0.3-0.3,0.6-0.4,1-0.4
			c0.3,0,0.8,0,1.7,0.1c0-0.2,0-0.6-0.1-1.1c0-0.4,0-0.8,0-1c0-0.4,0.1-0.7,0.4-1c0.3-0.3,0.6-0.4,1-0.4c1,0,1.5,0.9,1.5,2.5l0,0.8
			c0.4-0.1,0.8-0.1,1-0.1c0.8,0,1.3,0.1,1.6,0.2c0.5,0.2,0.8,0.6,0.8,1.2c0,0.4-0.1,0.7-0.4,1C137.2,319.5,136.8,319.6,136.4,319.6z
			"/>
		<path d="M142.1,318.5c0.5-0.5,1-0.9,1.6-1.1c0.6-0.2,1.2-0.4,1.8-0.4c1.2,0,2,0.3,2.5,1c0.4,0.5,0.6,1.2,0.7,2.3
			c0,0.8,0.1,1.7,0.1,2.5c0.1,1.1,0.2,1.8,0.2,2c0.1,0.8,0.2,1.4,0.3,2c0,0.1,0.1,0.3,0.1,0.4c0,0.4-0.1,0.7-0.4,0.9
			c-0.3,0.2-0.6,0.4-1,0.4c-0.7,0-1.1-0.3-1.3-1c-0.2-0.6-0.3-1.3-0.5-2.3c-0.1-1-0.2-1.8-0.2-2.4c0-0.2,0-0.4,0-0.8
			c0-0.3,0-0.6,0-0.8c0-0.5,0-0.8,0-0.9c-0.1-0.4-0.2-0.6-0.5-0.6c-0.8,0-1.4,0.3-2.1,1c-0.3,0.3-0.7,1-1.3,2c0,2.5-0.1,4-0.4,4.5
			c-0.3,0.6-0.7,0.8-1.3,0.8c-0.4,0-0.7-0.1-1-0.4c-0.3-0.3-0.4-0.6-0.4-0.9c0-0.1,0-0.3,0.1-0.5c0-0.2,0.1-1.1,0.1-2.8
			c0-1.4,0-3.7,0-6.9l0-0.3c0-0.8,0.1-1.3,0.1-1.6c0-0.2,0-0.5-0.1-0.9c-0.1-0.4-0.1-0.7-0.1-0.9c0-0.4,0.1-0.7,0.4-1
			c0.3-0.2,0.6-0.4,1-0.4c0.7,0,1.1,0.4,1.4,1.1c0.1,0.4,0.2,1,0.2,1.9c0,0.7,0,1.4-0.1,2.1C142.1,317.2,142.1,317.8,142.1,318.5z"
			/>
		<path d="M156.3,328.3c-1.6,0-3-0.4-4-1.2c-1.1-0.9-1.7-2.1-1.7-3.6c0-1.7,0.5-3.2,1.4-4.4c1-1.3,2.4-2,4.1-2c1.2,0,2.2,0.2,3,0.6
			c1,0.5,1.5,1.3,1.5,2.4c0,0.8-0.4,1.4-1.3,2c-0.4,0.3-1.2,0.7-2.3,1.2l-3.5,1.5c0.3,0.4,0.7,0.6,1.2,0.8s1,0.3,1.6,0.3
			c0.9,0,1.7-0.2,2.3-0.6c0.6-0.3,1-0.5,1.4-0.5c0.7,0,1.1,0.3,1.1,1c0,0.8-0.6,1.4-1.7,1.9C158.4,328.1,157.4,328.3,156.3,328.3z
			 M156.1,319.6c-0.6,0-1.2,0.2-1.6,0.6c-0.5,0.4-0.8,1.1-1.1,1.9c0.8-0.3,1.5-0.7,2.3-1c0.9-0.4,1.7-0.8,2.2-1.2
			C157.4,319.8,156.8,319.6,156.1,319.6z"/>
		<path d="M173.1,319.2c-0.7,1.5-1.9,4-3.5,7.3c-0.9,1.8-1.5,3.3-2,4.4c-0.1,0.4-0.4,1.1-0.7,1.9c-0.2,0.6-0.7,1-1.3,1
			c-0.4,0-0.7-0.1-1-0.4c-0.3-0.3-0.4-0.6-0.4-1c0-0.6,0.7-2.5,2.2-5.6c-0.8-1.5-1.9-3.7-3.6-6.5c-0.2-0.3-0.3-0.5-0.5-0.8
			c-0.2-0.3-0.3-0.6-0.3-0.9c0-0.4,0.1-0.7,0.4-1c0.3-0.3,0.6-0.4,1-0.4c0.5,0,0.8,0.2,1.1,0.5c1,1.3,2.1,3.2,3.4,5.8
			c0.7-1.6,1.2-2.6,1.3-2.9c0.5-1,1-1.9,1.4-2.7c0.3-0.5,0.7-0.7,1.2-0.7c0.4,0,0.7,0.1,1,0.4c0.3,0.3,0.5,0.6,0.5,1
			C173.3,318.7,173.2,319,173.1,319.2z"/>
		<path d="M179.3,313.6l-0.1,3.6c0,0.3-0.1,0.6-0.4,0.8c-0.2,0.2-0.6,0.3-0.9,0.3c-0.4,0-0.7-0.1-0.9-0.3c-0.3-0.2-0.4-0.5-0.4-0.8
			c0-1,0-2.3,0.1-4.2c0-0.5,0.2-0.8,0.4-1c0.2-0.2,0.5-0.3,1-0.3c0.4,0,0.7,0.1,0.9,0.3s0.4,0.5,0.4,0.8c0,0.1,0,0.2,0,0.4
			C179.3,313.4,179.3,313.5,179.3,313.6z"/>
		<path d="M192.2,320.5c-0.1,1-0.5,1.6-1.4,1.6c-0.9,0-1.3-0.4-1.3-1.3l-0.1-1c-1.5,0.2-2.6,1-3.3,2.4l0,5.2c0,0.4-0.1,0.7-0.4,1
			c-0.3,0.3-0.6,0.4-1,0.4c-0.4,0-0.8-0.1-1-0.4c-0.2-0.2-0.3-0.6-0.3-0.9v-6.7c0-0.2,0-0.5,0-0.9c0-0.4,0-0.7,0-0.9
			c0-0.4,0.1-0.7,0.3-1c0.2-0.3,0.6-0.4,1-0.4c0.8,0,1.2,0.4,1.4,1.2c1.2-0.9,2.5-1.4,4-1.4c1.4,0,2,0.9,2,2.7
			C192.2,320.1,192.2,320.4,192.2,320.5z"/>
		<path d="M198.8,328.3c-1.6,0-3-0.4-4-1.2c-1.1-0.9-1.7-2.1-1.7-3.6c0-1.7,0.5-3.2,1.4-4.4c1-1.3,2.4-2,4.1-2c1.2,0,2.2,0.2,3,0.6
			c1,0.5,1.5,1.3,1.5,2.4c0,0.8-0.4,1.4-1.3,2c-0.4,0.3-1.2,0.7-2.3,1.2l-3.5,1.5c0.3,0.4,0.7,0.6,1.2,0.8c0.5,0.2,1,0.3,1.6,0.3
			c0.9,0,1.7-0.2,2.3-0.6c0.6-0.3,1-0.5,1.4-0.5c0.7,0,1.1,0.3,1.1,1c0,0.8-0.6,1.4-1.7,1.9C200.9,328.1,199.9,328.3,198.8,328.3z
			 M198.6,319.6c-0.6,0-1.2,0.2-1.6,0.6c-0.5,0.4-0.8,1.1-1.1,1.9c0.8-0.3,1.5-0.7,2.3-1c0.9-0.4,1.7-0.8,2.2-1.2
			C199.9,319.8,199.3,319.6,198.6,319.6z"/>
		<path d="M90.4,353.6c-0.3,0-0.8-0.3-1.5-0.9c-0.6,0.3-1.2,0.5-1.7,0.7c-0.5,0.2-0.9,0.2-1.2,0.2c-1.6,0-2.9-0.4-3.7-1.3
			c-0.8-0.9-1.2-2.2-1.2-4c0-1.6,0.6-3.1,1.8-4.2c1.2-1.2,2.7-1.8,4.4-1.8c0.6,0,1.4,0.2,2.3,0.5c1,0.4,1.5,0.9,1.5,1.5
			c0,0.2-0.1,0.5-0.2,0.6c-0.1,0.3-0.1,0.6-0.2,1c0,0.4-0.1,0.9-0.1,1.4c0,1.3,0.1,2.2,0.3,2.8c0,0.1,0.2,0.4,0.5,1.1
			c0.3,0.6,0.4,0.9,0.4,1c0,0.4-0.1,0.7-0.4,0.9C91.1,353.5,90.8,353.6,90.4,353.6z M87.9,346.7c0-0.2,0-0.5,0-0.8
			c0-0.3,0.1-0.6,0.1-0.9c-0.1-0.1-0.3-0.1-0.4-0.1c-0.1,0-0.2,0-0.3,0c-0.9,0-1.7,0.4-2.4,1.1c-0.7,0.7-1,1.6-1,2.5
			c0,0.9,0.2,1.6,0.5,2.1c0.3,0.5,0.8,0.7,1.5,0.7c0.4,0,0.8-0.1,1.2-0.2c0.4-0.1,0.7-0.3,1.1-0.6C88,348.7,87.9,347.5,87.9,346.7z"
			/>
		<path d="M96.4,351.5c0,1.3-0.5,1.9-1.4,1.9c-0.4,0-0.7-0.1-1-0.4c-0.3-0.3-0.4-0.6-0.4-1v-14.2c0-0.4,0.1-0.7,0.4-1
			c0.3-0.2,0.6-0.3,1-0.3s0.7,0.1,1,0.4c0.3,0.2,0.4,0.6,0.4,1V351.5z"/>
		<path d="M102.1,351.5c0,1.3-0.5,1.9-1.4,1.9c-0.4,0-0.7-0.1-1-0.4c-0.3-0.3-0.4-0.6-0.4-1v-14.2c0-0.4,0.1-0.7,0.4-1
			c0.3-0.2,0.6-0.3,1-0.3s0.7,0.1,1,0.4c0.3,0.2,0.4,0.6,0.4,1V351.5z"/>
		<path d="M116.9,343.6c0.5-0.5,1-0.9,1.6-1.1c0.6-0.2,1.2-0.4,1.8-0.4c1.2,0,2,0.3,2.5,1c0.4,0.5,0.6,1.2,0.7,2.3
			c0,0.8,0.1,1.7,0.1,2.5c0.1,1.1,0.2,1.8,0.2,2c0.1,0.8,0.2,1.4,0.3,2c0,0.1,0.1,0.3,0.1,0.4c0,0.4-0.1,0.7-0.4,0.9
			c-0.3,0.2-0.6,0.4-1,0.4c-0.7,0-1.1-0.3-1.3-1c-0.2-0.6-0.3-1.3-0.5-2.3c-0.1-1-0.2-1.8-0.2-2.4c0-0.2,0-0.4,0-0.8
			c0-0.3,0-0.6,0-0.8c0-0.5,0-0.8,0-0.9c-0.1-0.4-0.2-0.6-0.5-0.6c-0.8,0-1.4,0.3-2.1,1c-0.3,0.3-0.7,1-1.3,2c0,2.5-0.1,4-0.4,4.5
			c-0.3,0.6-0.7,0.8-1.3,0.8c-0.4,0-0.7-0.1-1-0.4c-0.3-0.3-0.4-0.6-0.4-0.9c0-0.1,0-0.3,0.1-0.5c0-0.2,0.1-1.1,0.1-2.8
			c0-1.4,0-3.7,0-6.9l0-0.3c0-0.8,0.1-1.3,0.1-1.6c0-0.2,0-0.5-0.1-0.9c-0.1-0.4-0.1-0.7-0.1-0.9c0-0.4,0.1-0.7,0.4-1
			c0.3-0.2,0.6-0.4,1-0.4c0.7,0,1.1,0.4,1.4,1.1c0.1,0.4,0.2,1,0.2,1.9c0,0.7,0,1.4-0.1,2.1C116.9,342.3,116.9,343,116.9,343.6z"/>
		<path d="M131.1,353.5c-1.6,0-3-0.4-4-1.2c-1.1-0.9-1.7-2.1-1.7-3.6c0-1.7,0.5-3.2,1.4-4.4c1-1.3,2.4-2,4.1-2c1.2,0,2.2,0.2,3,0.6
			c1,0.5,1.5,1.3,1.5,2.4c0,0.8-0.4,1.4-1.3,2c-0.4,0.3-1.2,0.7-2.3,1.2l-3.5,1.5c0.3,0.4,0.7,0.6,1.2,0.8c0.5,0.2,1,0.3,1.6,0.3
			c0.9,0,1.7-0.2,2.3-0.6c0.6-0.3,1-0.5,1.4-0.5c0.7,0,1.1,0.3,1.1,1c0,0.8-0.6,1.4-1.7,1.9C133.2,353.3,132.2,353.5,131.1,353.5z
			 M130.8,344.8c-0.6,0-1.2,0.2-1.6,0.6c-0.5,0.4-0.8,1.1-1.1,1.9c0.8-0.3,1.5-0.7,2.3-1c0.9-0.4,1.7-0.8,2.2-1.2
			C132.2,344.9,131.6,344.8,130.8,344.8z"/>
		<path d="M146.3,345.6c-0.1,1-0.5,1.6-1.4,1.6c-0.9,0-1.3-0.4-1.3-1.3l-0.1-1c-1.5,0.2-2.6,1-3.3,2.4l0,5.2c0,0.4-0.1,0.7-0.4,1
			c-0.3,0.3-0.6,0.4-1,0.4c-0.4,0-0.8-0.1-1-0.4c-0.2-0.2-0.3-0.6-0.3-0.9v-6.7c0-0.2,0-0.5,0-0.9c0-0.4,0-0.7,0-0.9
			c0-0.4,0.1-0.7,0.3-1c0.2-0.3,0.6-0.4,1-0.4c0.8,0,1.2,0.4,1.4,1.2c1.2-0.9,2.5-1.4,4-1.4c1.4,0,2,0.9,2,2.7
			C146.3,345.3,146.3,345.5,146.3,345.6z"/>
		<path d="M152.9,353.5c-1.6,0-3-0.4-4-1.2c-1.1-0.9-1.7-2.1-1.7-3.6c0-1.7,0.5-3.2,1.4-4.4c1-1.3,2.4-2,4.1-2c1.2,0,2.2,0.2,3,0.6
			c1,0.5,1.5,1.3,1.5,2.4c0,0.8-0.4,1.4-1.3,2c-0.4,0.3-1.2,0.7-2.3,1.2l-3.5,1.5c0.3,0.4,0.7,0.6,1.2,0.8s1,0.3,1.6,0.3
			c0.9,0,1.7-0.2,2.3-0.6c0.6-0.3,1-0.5,1.4-0.5c0.7,0,1.1,0.3,1.1,1c0,0.8-0.6,1.4-1.7,1.9C155,353.3,154,353.5,152.9,353.5z
			 M152.6,344.8c-0.6,0-1.2,0.2-1.6,0.6c-0.5,0.4-0.8,1.1-1.1,1.9c0.8-0.3,1.5-0.7,2.3-1c0.9-0.4,1.7-0.8,2.2-1.2
			C154,344.9,153.4,344.8,152.6,344.8z"/>
		<path d="M160.9,353.7c-0.4,0-0.8-0.2-1.1-0.7c-0.3-0.4-0.5-0.8-0.5-1.1c0-0.4,0.1-0.7,0.4-0.9c0.3-0.2,0.6-0.4,1-0.4
			c0.4,0,0.8,0.2,1.1,0.7c0.3,0.4,0.5,0.8,0.5,1.1c0,0.3-0.1,0.6-0.4,0.9S161.2,353.7,160.9,353.7z M160.9,350
			c-0.4,0-0.7-0.1-0.9-0.4c-0.2-0.2-0.4-0.5-0.4-0.9c0-0.3,0-0.7,0-1.2s0-0.9,0-1.2c0-0.9,0-2.4,0-4.2s0-3.3,0-4.2
			c0-0.4,0.1-0.7,0.4-0.9c0.3-0.2,0.6-0.4,0.9-0.4c0.4,0,0.7,0.1,0.9,0.4c0.3,0.2,0.4,0.5,0.4,0.9v10.9c0,0.4-0.1,0.7-0.4,0.9
			C161.6,349.9,161.3,350,160.9,350z"/>
	</g>
</g>
</svg>
