<?xml version="1.0" encoding="utf-8"?>
<!-- Generator: Adobe Illustrator 27.1.1, SVG Export Plug-In . SVG Version: 6.00 Build 0)  -->
<svg version="1.1" id="Слой_1" xmlns="http://www.w3.org/2000/svg" xmlns:xlink="http://www.w3.org/1999/xlink" x="0px" y="0px"
	 viewBox="0 0 368.7 296.3" style="enable-background:new 0 0 368.7 296.3;" xml:space="preserve">
<style type="text/css">
	.st0{fill:#0D0F19;}
	.st1{opacity:5.000000e-02;}
	.st2{fill:#C08657;}
	.st3{fill:#E39E67;}
	.st4{fill:#010116;}
	.st5{fill:#14121E;}
	.st6{fill:#1F2849;}
	.st7{fill:#1A1E33;}
	.st8{opacity:0.4;enable-background:new    ;}
	.st9{fill:#24294C;}
	.st10{opacity:0.8;}
	.st11{opacity:0.5;}
	.st12{fill:none;stroke:#000000;stroke-width:0.2293;stroke-miterlimit:10;}
	.st13{fill:none;stroke:#000000;stroke-width:0.2293;stroke-linecap:round;stroke-linejoin:round;stroke-miterlimit:10;}
	.st14{opacity:0.6;}
	.st15{fill:none;stroke:#243F6B;stroke-width:0.917;stroke-linecap:round;stroke-linejoin:round;stroke-miterlimit:10;}
	.st16{fill:#0B0A11;}
	.st17{fill:#353F72;}
</style>
<g id="Слой_1_00000154407569562457626900000017757195752326753664_">
	<g id="Слой_1_00000100364035134950340280000004350088838976221098_">
		<rect y="10.3" class="st0" width="368.9" height="294"/>
	</g>
	<g id="Слой_4">
		<g id="Слой_6" class="st1">
			<path class="st2" d="M-53.7,279.1V306h424.9v-27.5c-32.7,3.7-65.5,5.7-98.3,6.1c-17.5,0.1-35-0.1-52.5-1
				c-17.2-0.8-34.4-1.9-51.7-1.7c-17.2,0.1-34.3,2.6-51.5,3.8c-16.8,1.1-33.8,1.4-50.8,0.8c-34.4-1.3-68.7-7.2-103.3-7.8
				C-42.5,278.6-48,278.7-53.7,279.1z"/>
			<path class="st2" d="M-12.7,239.2c-13.6-0.1-27.2-0.1-40.8-0.1v13.5c5.1,0.1,10.3,0.3,15.4,0c14.6-0.6,29.2-2.7,43.9-3.2
				c7.4-0.4,14.8-0.1,22.2-0.1s14.7,0.1,22.1,0.3c7.3,0.1,14.7,0.3,22.1,0.4c6.8,0.1,13.7,0.1,20.5,0.6c13.4,0.9,26.9,2.9,40.3,1.7
				c1.1-0.1,2.1-0.3,3-0.4c-10.1-3.8-20.9-4.8-31.5-6.2c-6.1-0.8-12.2-1.8-18.4-2.4c-6.7-0.8-13.4-1.3-20-1.8
				C39.8,239.6,13.5,239.2-12.7,239.2z"/>
			<path class="st3" d="M189.1,272.8c-15.3,0.8-30.6,2.3-45.9,2.7c-15.4,0.4-30.8,0.4-46.2,0.4c-15.9-0.1-31.8-0.1-47.7,0
				c26.8,6.9,54.5,7.8,81.9,5.9c14.4-1,28.6-3.1,42.9-4.7c14.7-1.8,29.5-3.1,44.3-4.2c0.5,0,1.1-0.1,1.6-0.1
				C209.6,272.2,199.3,272.1,189.1,272.8z"/>
			<path class="st2" d="M361.4,272c3.3,0.3,6.6,0.5,9.9,0.6V256c-20.4-0.5-40.8-1.1-61.2-0.8c-13.1,0.3-26.4,0.9-39.5,2.3
				c-13.1,1.3-26.1,2.8-39.3,2.9c-12.3,0.1-25.1-2-37.1,1.3c13,2.2,26.1,1.3,39.2,1.8c7.1,0.3,14.2,0.9,21.3,1.1
				c7.1,0.4,14.2,0.5,21.4,0.6c7.1,0.1,14.4,0.3,21.5,0.4s14.3,0.8,21.4,1.5C333.1,268.7,347.2,271,361.4,272z"/>
			<path class="st2" d="M371.2,205.9v-26c-26.6-3.3-53.6,2-80.2,2.9c-14.7,0.4-29.5,0.1-44.2-0.1c-14.9-0.3-29.7,1.3-44.4,2.6
				c-29.8,2.6-59.8,1.1-89.6-0.6c-15-0.9-30-2.4-45-3.8c-7.6-0.8-15.1-1.8-22.7-2.2c-7.1-0.4-14,0.4-21,1.4s-14,2.2-21,2.6
				c-7.6,0.4-15.3-0.1-22.8-0.3c-11.3-0.3-22.6-0.5-33.8-0.4v21.4c11.7,0,23.4,0.5,35.1,1c23.6,1,47.2,0,70.8,1.1
				c13.2,0.8,26.4,3.4,39.6,2c0.6,0,0.7,1,0.2,1.1c-31.5,5.9-63.1,12.2-94.7,17.5c-6.7,1.1-13.6,1.5-20.1,4
				c11.2-0.3,22.3,0,33.5-0.1c12.2-0.1,24.2-1.1,36.4-1.3c24.1-0.3,48,2.3,72.1,4.1c24.3,1.8,48.5,2.2,72.9,1.4
				c24.1-0.8,48.1-1.1,72.3-0.8c13.5,0.3,27,0.4,40.5,1c5,0.1,9.9,1.1,14.9,1.9c4.4,0.6,9,1.1,13.4,0
				c-27.8-13.6-58.7-12.6-88.1-17.9c-8.3-1.5-16.6-3.6-24.6-6.5c-0.5-0.3-0.3-1,0.2-1.1c21-2.9,42.3-1.4,63.4-2.2
				c10.6-0.4,21-2,31.5-2.9c10.7-0.9,21.3-1.3,32-1.1C355.4,204.7,363.3,205.2,371.2,205.9z"/>
			<path class="st2" d="M102.7,224.7c-0.5,0.1-1,0.3-1.5,0.4c16.6,5.6,34.3,4.6,51.3,2.6c8.9-1.1,17.7-2.6,26.4-3.8
				c5.7-0.8,11.6-1.5,17.3-2.2c-1.1-0.1-2.2-0.1-3.4-0.3c-10.3-0.8-20.7-1.4-31-1c-10.2,0.4-20.3,1.8-30.5,2.7
				C121.9,223.9,112.2,223.2,102.7,224.7z"/>
			<path class="st2" d="M89.5,200.5c6.2,0.9,12.5,1.9,18.8,2.6c5.9,0.5,11.9,0.8,17.8,0c-13-3.3-26.2-5.4-39.4-6.4
				c-10.8-0.9-21.5-1.1-32.4-1.3c5.3,0.8,10.6,1.8,15.9,2.6C76.6,198.8,83.1,199.4,89.5,200.5z"/>
			<path class="st2" d="M206.2,203.4c6.5,0.1,13.1-0.3,19.5-1.1c6.5-0.9,12.9-2.4,19.4-3.7c3.7-0.6,7.4-1.4,11.1-2h0.1
				c-1.7,0-3.4,0-5.2,0c-13.6,0.1-27.4,0.5-41,1.9c-6.9,0.6-13.7,1.7-20.5,2.8C195,202.6,200.5,203.3,206.2,203.4z"/>
			<path class="st3" d="M371.3,188.6v-8.9c-26.6-3.3-53.6,2-80.2,2.9c-14.7,0.4-29.5,0.1-44.2-0.1c-14.9-0.3-29.7,1.3-44.4,2.6
				c-29.8,2.6-59.8,1.1-89.6-0.6c-15-0.9-30-2.4-45-3.8c-7.6-0.8-15.1-1.8-22.7-2.2c-7.1-0.4-14,0.4-21,1.4s-14,2.2-21,2.6
				c-7.6,0.4-15.3-0.1-22.8-0.3c-11.3-0.3-22.6-0.5-33.8-0.4v11c5.9-0.1,11.9-0.8,17.8-1.4c15.3-1.5,30.6-2.3,45.8-2.9
				c15.1-0.6,30.2-1,45.3-0.3c15.3,0.8,30.5,2.4,45.7,3.7c15.1,1.3,30.1,2,45.3,1.8c15.3-0.1,30.5-0.9,45.7-1.4c15-0.5,30-1,45-0.6
				c14.9,0.4,29.8,1.7,44.8,1.9c29.8,0.5,59.6-1.1,89.2-4.7C371.1,188.7,371.2,188.7,371.3,188.6z"/>
		</g>
	</g>
	<g id="Слой_1__x28_копия_x29_">
		<rect class="st4" width="371.3" height="178.5"/>
	</g>
	<g id="Слой_3__x28_копия2_x29_">
		<g id="Слой_5_00000039820792250701980910000013140773471161297551_">
			
				<g transform="matrix(0.9377821087837219,-0.1518707573413849,0.15657874941825867,0.9668533205986023,-5.39697265625,56.232879638671875)">
				<g transform="matrix(1,0,0,1,0,0)">
					<g transform="matrix(1,0,0,1,211.37600708007812,159.11099243164062)">
						<path class="st5" d="M-168-117.5c0,0,3.7,7.8,3.1,10.4c0,0,2.1-3.7,2.1-6.4c0-2.7,0.5-8,1-8s4.2,4.6,4.2,4.6s-0.9-7.1-0.4-8.1
							c0.5-1,4.7-7.3,4.7-7.8c0-0.5,2.1,5.6,2.1,6.7c0,1.1,0,2.1,0,2.1s2.7-6.4,3.8-6.8c1.1-0.4,4.7-2.9,5.2-5c0,0,0.9,5,0.4,8.1
							c-0.5,3.2,0,4.9,0,4.9l3.8-5.8c0,0,3.7,2.9,4.1,8.4c0.5,5.5,0.4,10.3,0.4,10.3l16.5,43.9l4.6,9.5c0,0,3.8-13.3,5.9-14.3
							c0,0,2.6,2.8,2.6,3.4c0,0.5,2.1-6.9,2.7-7.4c0.5-0.5,10.4,2.8,10.4,4.4c0,1.6,2.6,6.7,3.7,8.3c1,1.7,2.6,12.1,2.6,12.1
							l-3.8,15.6l6.8-2.3l0,6.5l4.7,2c0,0-1,4.8-2.7,6.9c-1.6,2.1-2.7,5.2-2.7,5.2l3.1,1.9c0,0,0,7.1-1.6,8.6
							c-1.6,1.5-3.7,4.1-3.7,4.1l3.7,0.8c0,0-1,3.8-2.7,6.9s-4.7,7.8-4.7,7.8l0.5,2.7c0,0,2.1,3.9-4.2,4.6
							c-6.3,0.7-11.5,5.3-11.5,5.3l-25.7,2.8l-22.2-3.7c0,0-4.7-3.9-16.2-4.1c-11.5-0.2-12.7-0.9-14.8-3.3c-2.1-2.3-6.3-6.8-9.4-8
							s-19.9-1.2-25.6-1.5c-5.8-0.3-5.7-4.2-5.7-4.2s-8.4-4.4-7.8-4.9c0.6-0.5,0-6.5,0-6.5l-5.1-5.2l-4.2-7.9l-5.7-3.6l-5.1-7.4
							c0,0,1-1.6,4.2,0.3c3.1,1.9,5.2,3,5.8,3.1c0.5,0-0.5-1.7-0.5-1.7s-4.8-3-3.3-10.5c0,0-7.8-6.5-8.8-13.5c0,0,2.1-7.4,1.6-9.7
							c0,0,3.7,1.3,4.7,3c1,1.7,4.4,2.9,4.4,2.9s-5-3.3-3.8-9.3c1-6,3.8-13.3,3.8-13.3s0.5,4.4,0.9,5.5c0.5,1.1,2.1,5,2.1,5
							s1-6.5,3.8-9.5c2.7-3.1,3.8-9.5,3.8-9.5l2.5,3.8c0,0-1-4.1,1.2-8c1.2-2.1,4.3-6.8,4.3-6.8s1.1,1.5,1.5,3.9
							c0.2,1,0.5,2.7,0.5,2.7s0.6-8.9,6.4-12.9c0,0,0.8,3,0.9,5.2c0.1,0.8,4.8,8.5,5.1,9.6c0.9,2.4,0.9,6.6,0.9,6.6s1.6-8,4.8-9
							c0,0-1,6,2.1,6.7c0,0-2.1-14.3,5.9-17.6c0,0,0.4,6.1,2.1,7.2c0,0,1-6.5,5.2-8.4c4.2-1.9,8.4-4.9,8.4-4.9v2.7
							c0,0,3.2-4.7,4.7-5.7C-174.2-114.1-168-117.5-168-117.5z"/>
					</g>
					<g transform="matrix(1,0,0,1,84.18900299072266,135.99899291992188)">
						<path class="st6" d="M-108-41.5c0,0,0.2-9.2,4.4-16.7c0.5,0.4,1.8,2.9,2.6,2.5c1.6-0.9,3-11.6,3.3-13.4c0.7,1.5,2.9,3.4,2.8,5
							c0.1-2,4.5-7,5.4-9.8c1.4,3.4,6.9,5.8,7.4,9.4c-0.1-1.1-2.2-6.2-5.1-11.2c-1.5-2.8-1.5-6.6-1.6-6.7c-3.3,0.3-6.7,9.7-6.4,12.1
							c-0.2-0.7-1.6-6.4-2-6c-5,6.2-6.3,9.8-5.8,14.3c0,0-0.2-0.2-2.1-3.3c0.1,0.1-0.3,2.6-0.9,3.8c-1.9,4.3-6.5,12.7-6.3,15.9
							c-0.9-1.2-3.7-9.4-3.2-10.3c-1.9,4.3-3.8,8.5-3.8,13.5c0.1,3.9,2.7,7.8,3.6,8c0.1,0.1-1.9,0.3-4.4-2.4c-2.5-2.7-4.6-2.8-4.4-3
							c0.4,3.1-2.7,8.6-0.7,13.8c2.6,6.5,6.7,9.8,9,9.5c-1.4,1.4-6.8-11-3.5-17.8c3.1,2.6,5.9,0.4,5.9,0.4
							c-3.2-4.4-2.1-15.6-2.1-16.8C-115.5-49.8-112.9-40.6-108-41.5z M-112-34.1c-1.2,2.1-4.8,4.1-5.5,7.4c-1.5,7.1,3.8,10,3.9,9.2
							c-0.1-5.6,3-11,2.1-16.1C-111.8-35.4-112.1-34.1-112-34.1z M-74.8-63.1c0.3-0.6,0.7-1.1,1-1.7c0.3-0.1,0.6-0.3,0.8-0.7
							c0.1-0.3,0.2-0.5,0.3-0.8c0.9-1.4,1.8-2.7,2.3-4.3c0.3-1.1,0.6-2.3,0.9-3.4c0.1,0.1,0.1,0.2,0.2,0.3c0.2,0.3,0.4,0.5,0.8,0.9
							c0.8,0.7,1.7,1.2,2.4,1.5c0.2,0.1,0.3-0.1,0.4-0.3c0.3-0.9,0.7-1.7,1.2-2.5c1.6-1.8,3.7-3.3,5.6-4.9c1.3-0.9,2.7-2,3.7-3
							c0.3-0.3,0.7-0.6,1-1c0.1,0.3,0.3,2.4,0.3,3c0,0.3,6.7-4.1,8-5.1c1.8-1.3,3.4-2.6,4.8-4.4c1.3,1.7,2.2,3.8,1.9,6.5
							c-0.1,0.8,0.3,0.9,0.6,0.9c2.7-2.3,0-8.2-0.4-9.6c-0.2-0.8-0.6-2.6-1.5-2.5c-1,0-7.5,4.1-9,5.6c-0.9,0.9-1.8,1.7-2.7,2.7
							c-0.4,0.5-0.9,0.9-1.1,1.4c0-0.2,0-0.3-0.1-0.6c0,0,0,0,0-0.1c0.1-0.1,0.2-0.2,0.3-0.2c0.3-0.3-0.5-0.9-0.5-0.9
							c-0.1-0.1-0.3,0-0.3,0.1c-1.6,0.4-3.1,1.5-4.5,2.3c-1.5,0.9-2.8,1.8-4.1,3c-1.8,1.6-4.2,4.4-4.2,7.2c-0.2-0.3-0.5-0.3-0.8-0.2
							l0,0c-0.8-1.2-1.2-2.3-1.6-3.7c0.1-0.8,0.2-1.6,0.3-2.4c0.1-0.5-0.6-0.7-0.9-0.4c-0.2-0.1-0.3,0-0.5,0.2
							c-1.7,1.6-2.6,4.2-3.2,6.5c-0.8,2.5-1.5,5.3-1.5,8c0,0.4,0.2,0.8,0.5,1c-0.3,0.5-0.6,1-0.7,1.6C-75.2-63.1-75-62.9-74.8-63.1z
							 M-36-85c1.4-1.6,2.7-5.9,3.3-7.6c0.1-0.2,0.3-0.3,0.5-0.3c2.9,1.5,5,4.3,5,4c0-0.6-4.7-7.8-7.2-9.9c-0.3-0.3-0.3,0.7-0.3,1.2
							c0.3,3.2-1.7,11.2-2,12.1C-37-85-36.3-84.6-36-85z M-24-89.5c0.3-0.1,0.4-0.4,0.3-0.7c-4.1-6.7-1.6-11.7-1.4-10.8
							c0.3,1.1,0.2,2.4,0.4,3.5c0.1,0.2,0.3,0.2,0.4,0.1c1.8-3.3-1.5-11.7-1.7-11.5c-0.6,0.7-3.4,4.3-3.9,5c-1,1.5-1,3.4-0.8,5.4
							C-30.1-93.3-24.7-89.2-24-89.5z M-56.3-64.3c0.6,1.3,1.8-0.3,2.1-0.9c2.3-3.4,1.5-8.2-1.4-11.3c-0.3-0.3-0.9-0.3-1,0
							c-0.9,2.1-1.4,4-1.8,6.2c-0.3,1.8-1,3.8,0.3,5.5c0.1,0.1,0.2,0.2,0.3,0.2c0.1,0.4,0.2,0.8,0.5,1.2c0.1,0.1,0.2,0.1,0.3-0.1
							c0.2-0.5,0.1-1,0.1-1.5c0-0.7,0.1-1.4,0.2-2.1c0.1-0.4,0.1-0.9,0.2-1.3c0,0.3,0,0.6,0.1,0.9C-56.5-66.5-56.6-65.1-56.3-64.3z
							 M-49.9-71.9c-0.3,0.6,0.8,1,1,0.3c0.8-2.2,3.9-6.1,2.1-8.5c-0.2-0.3-0.6-0.1-0.8,0.1c-0.1,0.2-0.1,0.4-0.2,0.6
							c-0.8,0.8-1.7,1.1-2.4,2c-0.7,0.9-1,1.9-1,3.1c0,0.2,0.1,0.2,0.3,0.2c0,0.3,0,0.6,0.1,0.9c0,0.1,0.2,0.1,0.2,0
							c0.4-1.4,0.9-2.5,1.8-3.5c-0.1,0.2-0.2,0.4-0.3,0.7C-49.6-74.6-49.4-73.2-49.9-71.9z M-43.9-74.9c-1.8,0.9-4.4,2.7-4.6,5
							c0,0.1,0.1,0.2,0.2,0.2c1-0.5,1.9-1.6,2.7-2.4c1-0.9,2.3-1.7,3.5-2.1c0.6-0.3,1.3-0.4,2-0.7c-0.9,0.6-1.8,1.3-2.7,1.9
							c-0.9,0.5-2.1,1-2.9,1.6c-0.5,0.3-0.9,0.9-1.4,1.4c-0.1,0-0.1,0.1-0.1,0.1c-0.3,0.2-0.9,0.5-0.9,0.9c-0.1,0.2,0.1,0.3,0.3,0.3
							c0.1,0.2,0.3,0.2,0.4,0.1c0.3-0.3,0.7-0.7,1.1-0.9c0.9-0.3,1.8-0.5,2.7-0.7c1.4-0.3,2.7-0.9,3.8-1.7c1.5-0.9,4.4-3.2,3.8-5.2
							c0.2-0.3,0.3-0.6,0.5-0.9c0.2-0.6-0.6-1.2-1-0.7c-1,1.3-2.1,2-3.5,2.6C-41.4-75.9-42.7-75.5-43.9-74.9z M-61.1-62.6
							c0.3,0.5,0.3,0.9,0.9,1.3c0.3,0.2,0.6,0.1,0.8-0.1c1-1.4-0.9-4.1-1.8-5c-0.8-0.7-1.7-1.2-2.7-1.4c-0.6-0.1-1.2-0.2-1.7,0
							c0,0,0,0-0.1,0c0,0-0.1,0-0.1-0.1c-0.5-0.2-1.1-0.1-1.6,0.1c-0.1,0.1-0.3,0.1-0.5,0.1c-0.1-0.1-0.1-0.1-0.2-0.1
							c-0.1,0-0.1,0-0.1-0.1l0,0l0,0l0,0c-0.1,0,0,0,0,0c-0.1-0.1-0.2-0.1-0.3-0.1c-0.3-0.1-0.6,0.3-0.5,0.6
							c0.1,0.2,0.3,0.3,0.5,0.3h0.1c0,0.1,0,0.1,0.1,0.2c0.1,0.2,0.3,0.3,0.4,0.3c0,0.1,0.1,0.1,0.1,0.1c1.2,1,1.5,2.5,2.5,3.7
							c1,1.1,2.1,1.4,3.3,2.1c0.5,0.2,1.2-0.2,0.9-0.9c-0.9-1.5-2.5-2.8-3.8-4c-0.1-0.1-0.2-0.2-0.2-0.2c0.8,0.3,1.5,0.7,2.1,1.2
							C-62.1-64.2-61.4-63.4-61.1-62.6z M-25.8-65.7C-25.7-65.7-25.7-65.8-25.8-65.7c-0.4-1-1.1-1.5-2.1-1.9c-1.5-0.7-2-2-2.4-3.3
							c0.1,0.1,0.1,0.2,0.2,0.3c1,1.4,2.2,2.7,3.8,3.5c0.2,0.1,0.5,0,0.5-0.2c1-3.8-4.4-6.4-5.6-9.6c-0.3-0.6-1.6,5.6,0,9.2
							C-29.9-65-25.9-65.8-25.8-65.7z M-14.9-51.2C-14.9-51.1-14.8-51.1-14.9-51.2c2.7-2.6,5.6-2.7,6.1-2.6
							c-0.4,0.2-4.2,1.4-4.5,3.2c0,0.1,0.7,1,2.9,1.2c1.3,0.2,2.7-0.3,3.8-0.8c1.6-0.9,3.2-3.6,4-6.2c0,0-6,0.9-8.5,0.9
							C-14.2-55.6-14.7-51.4-14.9-51.2z M-5.3-41.9c0.2-0.1,0.2-0.3,0.1-0.3c0.1-0.1,0.1-0.2-0.1-0.3c-1-0.6-1.8-1.5-2.5-2.4
							c0.1-0.1,0.1-0.1,0.1-0.2c0.1-0.8-0.4-1.5-1-2c-0.3-0.3-1-0.5-1.5-0.3c-1-0.6-2.4-0.9-3.5-0.7c-0.2,0-0.2,0.3-0.1,0.3
							c0.8,0.4,1.6,0.5,2.3,1.1c0.8,0.7,1.4,1.5,2,2.4c0.1,0.1,0.1,0.1,0.1,0.1c-0.3-0.3-0.7-0.6-1-0.9c-0.4-0.3-0.9-0.9-1.5-1.1
							c-0.7-0.4-1.5-0.4-2.1-0.8c-0.1,0-0.1,0-0.1,0c-0.1,0-0.2,0-0.2,0.1c-0.8,1.6,1,3.4,2.2,4.1c1,0.6,3.3,1.6,4.5,0.9
							C-6.6-41.7-6-41.8-5.3-41.9z M-25.9-85.1c-0.5-3.3-5.6-6.2-5.4-5.9c0.9,3.7-0.8,13.4,3.3,14.7c0,0-0.6-1.3-0.8-2.3
							c-0.2-1.6,0.2-3.1,0.2-4.4c0.1,0.6,0.2,1.2,0.3,1.9c0.2,1.3,0.3,3,1.2,4c0.1,0.1,0.2,0,0.2-0.1
							C-27.1-77.4-25.6-83.2-25.9-85.1z M-78.3-49.1c0,0.1,0.1,0.1,0.1,0.2c0,0.1,0,0.1,0,0.1c0.2,0.3,0.6,0.7,1,0.6
							c0.1,0,0.2-0.1,0.2-0.2c0.7,0,1.5-0.4,2.2-1.1c0.9-0.8,1.5-1.4,2.1-2.5c0.5-1.1,0.6-2.2,0.6-3.4c0-1.4-1.1-6.2-1.3-6.1
							c-0.5,0.8-2.5,3.9-3.5,5.6c-0.9,1.4-1.1,3.8-1.6,5.4c-0.1-0.1-2-4.6-5-6.2c-3.1-1.6-5.2-4-5.2-3.8c0.1,0.2,0.7,5.2,2.4,7.2
							C-83.8-50.1-78.5-48.9-78.3-49.1z M-76-53.5c0.2-0.3,0.3-0.6,0.6-1c-0.1,0.3-0.1,0.6-0.2,0.9c-0.4,1.5-1.2,2.9-1.9,4.3
							C-77.1-50.7-76.8-52.2-76-53.5z M-83.4-52.5c-0.7-0.7-1.3-1.5-1.8-2.3c0.7,0.7,1.5,1.2,2.1,1.8c1.3,1,2.8,1.8,3.7,3.2
							c-0.1,0-0.2,0-0.2,0l0,0c0-0.1-0.1-0.1-0.1-0.1C-80.8-51-82.3-51.3-83.4-52.5z M-84.8-20.5c-0.1-0.1-2.6,5.4-2.5,6.2
							c-0.4-0.8-1.6-3.5-5.2-4.6c-0.1,0-0.6,4.8,0.5,6.5c2,2.8,5.4,2.7,5.1,2.6c-1.5-1.7-3.3-4.7-3.5-5.2c0.7,0.7,2.5,2.4,4.6,5.2
							c0.1,0.1-0.4-3,0.3-4.5c0.5,1,0.3,3.4,0.3,3.5c0,0.1,1.6-1.4,1.8-4.3C-83.2-16.3-84.3-19.9-84.8-20.5z M-85.5-45.6
							c0,0-1.7,2.1-5.8,5.3c-2.7,2-2.7,5.2-2.7,5.3c-0.3-0.9-0.3-4.6-0.5-5.6c-0.3-1.9-1.5-4.4-2.5-6.1c-0.9-1.5-4.8-6.3-5-5.9
							c-0.1,0.3-1.5,6.8-1,10.5c0.5,4.2,5.3,8.6,5.3,9.2c-1-1.5-3.9-1.5-4.6-1.5c-0.6,0-3.3-0.9-3.3-0.9c-0.1-0.1,1.5,7.3,5.1,8.8
							c1.2,0.5,4.5,1.6,4.5,1.5c-0.3-0.9-5.2-6.1-5.9-6.7c0,0,0,0,0.1,0c5,2,6.8,6.8,6.9,6.7l0,0c0.1,0,0.2-0.1,0.2-0.3
							c0-1.5-1.7-8.4-2.4-10.3c-1-2.7-2.9-6.9-3.3-8.8c0.6,2.1,1.7,3.7,2.7,5.6c0.9,1.9,1.7,4.2,2.4,6.2c0.6,2,0.7,4,1.3,6
							c0.1,0.2,0.3,0.2,0.3-0.1s2-6.2,3.4-8.8c0.5-0.9,1.5-2,2-2.6c-0.2,0.5-4.9,11.4-4.6,12.7c0,0.1,5.8-5.1,7.8-11.2
							C-83.8-40.4-85.5-45.6-85.5-45.6z M-1.6-43.6c0.1,2,0.8,4.1,2.1,5.7c0.2,0.2,0.3,0.1,0.4,0.1c0.2,0.3,0.3,0.5,0.5,0.9
							c0.1,0.1,0.2,0,0.2-0.1c-0.3-1.8-1.1-3.5-1.4-5.1c-0.2-0.8-0.2-1.5-0.2-2.4c0-0.2,0.1-0.3,0.1-0.6c0-0.1,0-0.2,0.1-0.3
							c0,0.1,0.1,0.2,0.1,0.3c0.3,1.6,0.9,3,1.2,4.6c0.3,1.6,0.3,3.1,0.5,4.6c0.1,0.2,0.3,0.2,0.3,0c0.1-0.2,0.1-0.3,0.2-0.6
							c0.1,0,0.1,0,0.1-0.1c0.2-0.2,0.3-0.3,0.5-0.6l0,0c0.3-0.3,0.4-0.8,0.6-1.2c0,0,0.1,0,0.1-0.1c0.6-0.4,0.8-1.2,0.8-1.9
							c0-0.2,0-0.3-0.1-0.6c0.1-0.4,0.2-0.9,0.2-1.4c-0.1-1-0.5-2.1-0.9-3c-0.3-0.8-0.5-1.6-1.4-1.8c-0.8-1.7-2-3.3-3.3-4.4
							c-0.1-0.1-0.3-0.1-0.4,0c-0.5,0.3-0.3,0.8-0.1,1.2l0.1,0.1c-0.2,0.9-0.3,1.9-0.3,2.9C-1.8-46-1.6-44.7-1.6-43.6z M-3.9-37.1
							c0.1,0.3,0.2,0.4,0.3,0.6c-0.1,0.6,0.1,1.2,0.2,1.9c0.2,1.2-0.1,2.4,0,3.7c0.1,1.6,0.9,3.3,2.3,4.3c0.2,0.1,0.3,0.1,0.4-0.1
							l0,0c0.8,1,1.6,2,2.5,2.6C1.9-24.1,2-24.3,2-24.4c-0.1-0.8-0.7-1.4-1.3-1.9c-1-1-1.5-1.9-1.9-3.3c-0.3-0.9-0.3-2.1-0.3-3
							c0.3,0.9,0.6,2,0.9,2.8c0.5,1.5,1.5,2.5,2.4,3.6c0.2,0.4,0.3,0.8,0.5,1.3c0,0.1,0.1,0.1,0.1,0.1c0.1,0.2,0.5,0.1,0.4-0.2
							l-0.1-0.3c0-0.1,0-0.1,0-0.1c0.2-0.6,0.3-1.4,0.5-2C3.6-28.2,4-29.1,4.4-30c0.5-1.1,1-2.1,1.8-2.8c-0.5,0.9-1,1.9-1.5,2.9
							c-0.8,1.6-1.6,3.3-1.3,5.1c0,0.1,0.1,0.1,0.1,0c0.1-0.1,0.1-0.3,0.1-0.3c0,0.1,0,0.2,0,0.2c0,0.1,0.1,0.1,0.1,0.1
							c0.9-0.8,1.2-2,1.8-2.8c0.2-0.4,0.4-0.9,0.7-1.3c0.1,0,0.1,0,0.1-0.1c1.6-0.9,2.3-2.8,2.7-4.5c0.2-0.6,0.3-1.1,0.3-1.7
							c0.1-0.6,0.2-1.3,0.2-2.1c-0.1-0.8-1-1.1-1.5-0.7c-0.3-0.1-0.5-0.1-0.8,0.1c-0.9,1-2.1,2.1-2.7,3.3c-0.8,1.2-1.2,2.3-1.5,3.6
							C3-30.4,2.9-29.6,3-28.8c0,0.1,0.1,0.2,0.2,0.2c-0.2,0.5-0.5,1-0.6,1.6c0-0.1,0-0.1,0-0.1c-0.1-0.9-0.3-2.1-0.9-2.7
							C1.5-30,1.5-30,1.4-30c0-0.5-0.1-0.9-0.2-1.4c0-0.1-0.1-0.1-0.1-0.1c-0.1-0.7-0.2-1.5-0.4-2.1c-0.3-0.9-1-2.3-2.1-2.5
							c-0.3-0.3-0.6-0.8-0.9-1c-0.3-0.3-0.9-0.4-1.4-0.5C-3.9-37.5-4-37.3-3.9-37.1z M16.3-16.9c0.3-1.6,0-3.3,0.3-4.8
							c0.3-1.5,1.1-2.6,1.9-3.8c-0.2,1.5-1.2,2.7-1.5,4c-0.3,1.9-0.3,3.9-0.4,5.9c0,0.3,0.3,0.3,0.4,0.1c0.9-2.7,2.7-4.8,3.8-7.4
							s0.3-5.1-0.2-7.7c0.2-0.3-0.1-0.8-0.5-0.9c-0.1,0-0.1,0-0.2,0c-0.4,0-0.6,0.3-0.6,0.8c0,0.2,0.1,0.3,0.1,0.5
							c0,0.1-0.1,0.1-0.1,0.1c-0.5,1.2-1.1,2.4-1.8,3.5c-0.6,1-1.4,1.8-1.8,2.9c-0.9,2.2-1.2,4.6,0.1,6.9
							C16-16.7,16.2-16.6,16.3-16.9z M34.6-8.2c0.2,0,0.2-0.1,0.2-0.3c-1.5-3.9-0.1-7.3-0.1-7.4c-0.3,2.3-0.2,4.7,0.3,7l0,0
							c0,0.3,0.3,0.3,0.5,0.1c0.3-1,1.9-3.4,1.6-7.2C36.9-20.2,34-25.5,34-25c-0.1,0.6-0.6,5.1-1.9,8.5c-0.5,1.4,0.3,4.5,0.7,6
							C32.9-10,34.2-8.2,34.6-8.2z M25.1,10.7c0.1,0.2,2.7,2.5,2.8,2.7c0.1,0.1,0.3-0.1,0.2-0.2c-2-3.6-2.6-7.3-2.6-7.4
							c0.2,1,2,4.7,2.5,6.5c0.1,0.2,0.3,1.6,0.3,1.4c0.8-1.4,0.7-5.8-0.5-8.8c-1-2.4-3.5-4.9-3.6-4.6C24.4,0.3,21.4,5.4,25.1,10.7z
							 M31,7.3C31,7.4,31,7.4,31,7.3c0.4-0.3,2.6-1.9,4.9-2.8c4.4-1.8,5.2-6.4,4.9-9.3c-0.1-0.5-0.3-0.9-0.9-0.2
							C39-3.9,35.4-3.2,32,1.9c-0.1,0.1-0.5,1.4-0.9,2.7c0,0.1,2.7-4.6,5.3-5.3C34.7,0.7,31,5.5,31,7.3z M28.6,0.7
							c0.1,0.1,1.5,1.5,1.6,1.3c1.1-2.2,1.2-6.8,0.6-9.2c-1.5-6-3.8-7.2-3.9-7C26.7-14,22-6,28.6,0.7z M27.8-4.9
							c0.5,1.1,0.9,2.1,1.2,3.3c0.3,0.9,0.5,2.1,0.9,3.1l0,0c0,0.1,0,0.1,0,0.1s0,0,0-0.1c-0.9-1.7-1.5-3.3-2.1-5.2
							c-0.3-0.9-0.5-2.1-0.6-3C27.3-6,27.6-5.5,27.8-4.9z M-13.1,11c-0.2,0-2.5,1.7-3.4,2.7c-1.3,1.2-0.9,0.8-0.9-0.5
							c0-7.5-4.5-13.9-5.6-14.6c0-0.3-2.6,5.5-3,8.8c-0.6,4.3,2.9,13.3,2.9,13.3c1-1.8,1.4-8.5,1.5-9.6c0.1,1.3,0.2,5.7,0,6.8
							c-0.1,0.9-0.1,3.5,0.9,4.2c0.3,0.3,3.1-1.1,3.8-1.5C-13.4,17.3-12.6,11-13.1,11z M-17,16.9c-1.2,1.4-2.7,2.5-3.7,4V21h-0.1
							c0.1-0.1,0.1-0.3,0.1-0.4c0.1-0.3,0.2-0.5,0.3-0.8c1-1.2,2-2.4,3.1-3.5c0.6-0.6,1.2-1.1,1.9-1.7C-15.9,15.5-16.4,16.2-17,16.9
							z M35.4,20.6c-8.2,1.6-9.3,8.7-9.5,9.6c0,0.1,0.2,0.2,0.2,0.1c1.8-3.7,4.5-4.9,5.1-5.1c-0.5,0.3-4.4,3.7-4.4,5.4
							c0,0.1,0.2,0.3,0.3,0.3c12.4-1.5,12.4-8.4,13.4-11.5C40.7,19,37.1,20.3,35.4,20.6z M8.6,39.2c0.1,0.1,3.6-2.1,4.6-4.7
							c1-2.7,1-6.4,0.2-9.7c0,0-4.4,4.9-5,6.2c-1.2,2.4-2.1,5.6-0.9,8.2c0,0,0.5-2.2,0.9-3.2c0.9-2.2,2-3.6,2.1-3.8
							C10,32.7,8,37.5,8.6,39.2z M31.1,39.6c0-0.1-2.4-3.3-3.8-4.4c-4.2-2.9-9.3-1.5-9.3-1.5c2.7-0.9,5.8-5.2,6.6-11.2
							c0.3-2.5-0.4-4.2-0.5-4c-0.6,1.2-4.5,5.6-6.7,9c-0.8,1.4,0.3,7.6,0.5,7.5H18c1.8-0.2,5.7,0.8,5.8,0.9c-2-0.5-4.1-0.4-5.6,0.1
							c-0.1,0.1,0.9,1.3,1,1.4c0.9,1.2,3.2,2.1,4.2,2.2C25.5,40.4,31.2,39.6,31.1,39.6z M17.5,33.5c0.1-0.4,1-4,1.8-5.2
							c0.4-0.8,0.9-1.4,1.5-2c-0.2,0.3-0.3,0.6-0.5,0.9C19.5,29,17.6,33.3,17.5,33.5z M-11.5,34.5c5.4-5.6,3.2-15.7,3.1-15.7
							c-0.2-0.1-0.5,0-0.9,0.5c-1.8,2.2-2.9,4.8-4.8,7.5c-1.4,2-0.2,7.4-0.2,7.3c0.3-3.2,2.2-6.9,2.7-7.6c-0.3,0.9-1.2,7-1.5,8.4
							C-13.1,35-11.7,34.7-11.5,34.5z M5.5,28.5c0-0.3-0.2-0.5-0.5-0.5H4.9c-0.1,0-0.3,0.1-0.3,0.2c-0.9-0.4-1.9-0.3-2.7-0.3
							c-1.4,0.1-2.7,0.3-4.1,0.8c-1.9,0.7-3.3,2.1-4.1,3.9c-0.3,0.3-0.5,0.7-0.7,1c-0.1,0.1,0.1,0.2,0.2,0.2c0.1,0,0.1-0.1,0.1-0.1
							c-0.9,0.9-1.8,1.7-2.2,2.7c0,0.1,0.1,0.1,0.1,0.1c1.6-0.9,2.7-2.7,4.2-3.7c0.6-0.3,1.4-0.5,2.1-0.8c-0.3,0.3-0.8,0.5-1,0.7
							c-1.5,1-3.2,2.3-4.2,3.8c0,0.1,0,0.1,0,0.1l0,0c-0.1,0.1-0.1,0.2,0,0.2c0.9,0.9,2.7,0.5,3.8,0.3c1.7-0.3,3.3-0.9,4.6-1.9
							c1.2-0.8,2.2-1.9,3.1-3.1C4.4,31.5,5.6,29.7,5.5,28.5z M-19.3,33.3c-0.3-0.2-0.5,0-0.7,0.4c-0.5,1.4-2.1,2.2-2.9,3.3
							c-0.2,0.3-0.4,0.6-0.6,0.9c-2.1,1.6-1.2,5.1-1.3,7.6c-0.1,0.3-0.2,0.8-0.3,1.1c-0.1,0.2,0.1,0.3,0.3,0.2l0,0
							c-0.1,0.2,0.1,0.3,0.3,0.2c1.4-1.1,1.4-3.8,1.8-5.3c0.3-1.5,0.8-2.7,1.6-3.8c-0.3,0.7-0.6,1.4-0.8,2c-0.6,2.1-0.5,4.4-1.2,6.3
							c-0.1,0.1-0.1,0.1-0.1,0.1c-0.2,0.2,0.1,0.3,0.2,0.3c2-1,3.3-3.1,3.9-5.2c0.4-1.4,0.7-2.7,0.8-4c0.1-1.4,0.2-2.9-0.2-4.2
							C-18.7,33-19.2,33-19.3,33.3z M-4.4,43.2C-4.5,43.2-4.5,43.3-4.4,43.2c-1.7-1.1-4.3-0.5-6-0.2c-2.1,0.4-3.9,0.9-5.7,2
							c-0.2,0.1-0.3,0.2-0.5,0.3v0.1c0.9,0.4,2.1,0.3,3.1,0.1c0.3,0,0.5-0.1,0.8,0c-0.3,0.1-0.7,0.3-1,0.3c-0.8,0.1-2.4,0-2.7,0.9
							c-0.1,0.1,0,0.2,0.1,0.2c0,0.1,0,0.1,0.1,0.1c4.4,3.2,8.9-0.7,12.5-3C-3.7,43.6-4,42.9-4.4,43.2z M18,46.2
							c0-0.1-6.5-5.4-10.4-5c-0.8,0-2.9,0.3-2.9,1.3c0,0.1,0.1,0.2,0.1,0.2c1,1,5,1.7,5.8,1.8c-1.8,0.4-5.5-0.8-5.6-0.7
							s2.4,2.7,5.1,3.3c1.3,0.3,2.3,0.3,3.5,0c1.5-0.3,2.8-0.6,4.4-0.4C18.2,46.8,18.3,46.3,18,46.2z M-24,17.7
							c-0.3-1.4-4.5-6.7-6.5-7.3c-0.4-0.2-0.7,8.5,0.7,11.7c0.2,0.5,2.7,2.5,3.2,2.7c0.5,0.2-0.7-4.3-1.3-6
							c-0.4-1.1-0.5-2.1-0.6-3.3c0.3,1,0.6,2,0.9,2.9c0.7,1.5,2.1,5.1,2.2,5.2C-23,24.2-23.7,18.7-24,17.7z M-39.8,37.7
							c-0.1,0.1-1.4-0.3-1.6-0.3c-0.3,0.1-5.3-1.5-6.2-1.5c-0.6,0-2.1,0.1-2.2,0c1.8-0.5,6.7-3.1,7-11.5c0-0.2-0.2-5.1-0.3-5.6
							c0-0.2-0.5-0.3-0.6-0.2c-0.1,0.1-2.9,2.4-3,2.7c0,0-3.8,2.4-5,5c-0.6,1.4-1.4,3-1.8,4.6c0.1-2.4-0.3-4.9-1.7-7
							c-0.3-0.4-0.4-0.9-1,0.2c-0.1,0.2-2.3,5-2.5,7.4c-0.1,1.4,0.4,3.1,0.6,4.4c0.1,0.6,0.9,3.1,1.1,3c0,0,3.1,1.1,4.1,1.4
							c0.6,0.1,3.5,1.6,4.8,1.8c1.1,0.2,2.2,0.2,3.3-0.2c2.2-0.5,4.8-2.9,5.3-3.7C-39.2,38-39.6,37.6-39.8,37.7z M-55.7,35.6
							c-0.1,0.2-0.1,0.3-0.2,0.5c-0.2,0.3-0.3,0.8-0.5,1.2l-0.1,0.1c-0.1,0-0.1,0.1-0.1,0.1c0.3-1.6,0.6-3.3,0.7-5.1
							c0.1-1,0.2-2.1,0.2-3.3c0.1,0.3,0.1,0.5,0.1,0.8c0,0.8,0.1,1.6,0.1,2.6C-55.4,33.4-55.6,34.5-55.7,35.6z M-48,28.7
							c0.9-1.4,1.8-2.7,2.6-4.3c-1.2,3.9-3.4,7.4-6.3,10.3c-0.3,0.2-0.8,0.3-1.1,0.5C-51,33.3-49.4,30.9-48,28.7z M-48.4,39.2
							c-1.7,0-3.2-0.1-4.7-0.4c0.1,0,0.3-0.1,0.3-0.1c1.4-0.1,2.6,0,3.9,0c2.1,0,4.2,0.2,6.3-0.1C-44.3,39.2-46.5,39.2-48.4,39.2z
							 M-59.7,7.6c-0.2-0.1-3.4,3.7-4.4,6.2c-1,2.5-1.5,5.4-1,8.2c0.1,0.2,0.7,2,0.8,1.8c0.5-5.1,2.9-8.6,3.2-9.2
							c-0.2,0.8-0.6,1.7-0.9,2.5c-0.5,1.4-1.5,3.8-1.4,5.2c0,0.1,3-3.3,3.7-4.3C-57.1,13.7-57.4,9-59.7,7.6z M-67.2,20.9
							c-0.3-0.5-8-5.5-8-5.2c-0.3,0.2-0.6,0.7-0.2,1.1c0.6,0.8,1.5,3,1.5,3c-0.1,0.1,0.6,3.4,1.5,4.4c0.1,0.3,0.3,0.6,0.5,1
							c0.4,0.6,1.1,1.5,1.8,1.8c0.2,0.4,0.5,0.9,0.9,1.1c0.1,0.1,0.3,0,0.3-0.1c0.2,0.2,0.3,0.3,0.5,0.6c0.1,0.1,0.3,0.2,0.3,0.1
							c0.3,0.3,0.6,0.6,1,0.6c0.1,0.3,0.6,0.6,0.9,0.3c0.8-0.8,0.5-2.9,0.5-3.8C-65.9,24.1-66.2,22.3-67.2,20.9z M-67.4,28.2
							c-0.1-0.1-0.2-0.2-0.3-0.3c-0.2-0.7-0.3-1.5-0.6-2.2c-0.4-1-0.9-2-1.4-2.9c-0.5-0.9-1-1.6-1.6-2.5c0.1,0.1,0.3,0.2,0.3,0.3
							c1,1.1,1.9,2.2,2.6,3.6C-67.8,25.6-67.7,26.8-67.4,28.2L-67.4,28.2z M-74.4,10c1.1,1.2,5.4,4.5,5.5,4.2
							c-0.4-1.9-1.5-4.4-2.9-5.7C-73.3,7.2-74,5.3-74.1,5c0.7,0.9,2.4,2.3,3.7,3.7c0.9,1.1,1.5,4.2,1.9,5.6c0.1,0.3,0.6,0.3,0.6,0.3
							c1.9-7.4-3-10-3.8-10.8c-1.3-1-3.8-4.1-4.1-4.1C-76-0.1-78.5,5.2-74.4,10z M-45.1,1.3c0-0.2,1-3.2,0.6-6.8
							c-0.3-4-3.9-7.5-4.2-7.7c-0.2-0.1-0.3,0-0.4,0.2c-0.1,0.2-2.3,11,0.4,12.9c0.1,0.1,1.8,1.8,2.6,2.2
							C-45.4,2.5-45.1,1.4-45.1,1.3z M-46.8-5.7c0.2,0.9,0.3,1.8,0.3,2.7c0.1,1.2,0.2,2.7,0.7,3.8C-47.3-1.3-46.8-3.6-46.8-5.7z
							 M-35.6-19.3c-0.2-0.6-0.9-0.6-1.2-0.1c-0.1,0.1-4.1,4.4-5.2,6.4c-0.6,1-1.5,4-0.6,10.2c0,0.1,0.4,1.3,0.6-0.1
							c0.2-1.1,0.3-2.2,0.6-3.3c0.8-3.4,3.4-6.1,4-7.4c-0.1,0.3-0.3,0.8-0.4,1.2c-0.5,1.1-3.8,5.9-3.3,9c0,0.1,3.8-2.4,4.6-4.9
							C-34.3-14.2-35.4-18.7-35.6-19.3z M-42.5-32.1c-0.3-1.9-2.2-4.5-3.4-6.1c0,0-1.5,3.8-1.5,6c-0.1,5.2,4.3,9.5,4.3,9.2
							C-43-23-41.7-27.9-42.5-32.1z M-44.3-27.5c-0.3-1-0.6-2.1-0.9-3.3c0.1,0.2,0.2,0.3,0.2,0.5c0.7,1.7,1.2,3.5,1.4,5.2
							C-43.6-25.8-44-26.7-44.3-27.5z M-53.8-25.2c0.3,0.8,0.6,1.5,1,2c0.9,1.3,2.6,2.8,3.9,3.7c0.1,0.1,0.2,0.1,0.3,0.1
							c0.3,0.7,0.8,1.5,1.4,2c0.2,0.2,0.5,0.1,0.5-0.2c-0.2-1.6-1.1-3.7-2.1-5c-1.2-1.5-2.5-2.5-3.5-4c0.2,0.1,0.3,0.3,0.4,0.3
							c0.9,0.9,1.7,1.7,2.6,2.5c1.9,1.9,2.2,4.3,3.1,6.7c0,0.1,0.1,0.1,0.1,0.1c0.1,0.1,0.1,0.2,0.1,0.3c0.1,0.2,0.2,0.2,0.3,0
							c0.1-0.3,0.1-0.5,0.2-0.8l0.1-0.1c0-0.1,0-0.2,0-0.3c0.1-0.6,0.1-1.2,0.1-1.8c0.7-1.8-0.3-3.7-1.5-5c-0.1-0.1-0.1-0.2-0.2-0.3
							c-0.4-0.8-0.9-1.6-1.7-2.1c-0.5-0.2-1-0.4-1.6-0.6c-0.6-0.3-1.3-0.8-2-0.9c-0.2-0.1-0.3,0-0.3,0.1c-0.2-0.1-0.3-0.1-0.6-0.2
							c-0.1-0.1-0.1-0.2-0.2-0.3s-0.1-0.2-0.1-0.3c-0.2-0.5-0.9-0.4-0.9,0.1c-0.1,0.1-0.2,0.3-0.1,0.4
							C-54.4-27.6-54.3-26.3-53.8-25.2z M-92.1-60.9c-0.1-0.1-0.3-0.1-0.2,0.1c0.7,2.1-0.2,4.4-0.3,6.7c-1.2-2.6-4.2-4.1-4.4-4.2
							c-0.3-0.1-0.3,0.3-0.3,0.4c0.8,0.9,0.8,2.5,0.9,3.7c0.2,0.9,0.3,1.9,0.7,2.7c0.8,1.6,3.3,4.6,3.3,4.5c0.1,0-0.4-2.6-0.9-3.6
							c-0.5-1.1-0.7-2.1-0.9-3.3c1.2,2.1,2.4,4.3,2.7,6.7c0,0.1,0.1-0.3,0.2-0.4c0.6-1.4,0.9-6.2,0.9-6.9c0.2,0.9,0.3,2,0.3,3
							c-0.1,1.5-0.4,5-0.3,5c0,0.1,2.6-2.9,2.6-5.9C-88-56.9-92.1-60.9-92.1-60.9z M-77.2-34.7c0.2-0.1-0.6-2-0.3-3.9
							c0.3-2.7,1.5-4.3,3-5.3c-1,1.4-1.5,3-1.9,4.6c-0.1,0.4-0.7,4.4-0.1,4.4c-0.1,0,0.5-0.6,0.5-0.7c0.4-0.4,1-0.7,1.5-1
							c0.9-0.6,1.6-1.2,2.4-1.9c-0.6,1-1.5,1.7-2.2,2.6c-0.3,0.3-1.5,1.1-1.5,1.5c-0.3,1.5,2.1,0.5,2.7,0.3c1.3-0.6,2.2-1.5,2.9-2.8
							c0.3-0.5,1.8-5.2,0.9-5.5c-1-0.3-3.2,1.2-3.8,1.9c-0.3-1.7,1.5-3.8,2-5.3c0.3-0.8,0.6-2,0.3-2.7c-0.3-1-0.6-0.1-1.4,0.3
							c-1.8,1.1-3.7,1.5-5.2,2.9c-1.4,1.3-2.4,3.3-2,5.3c-0.8-0.6-2.1-3.9-2.5-3.8c-0.1,0.1-1,3.7-0.3,5.8
							C-81.4-35.8-79.3-34.4-77.2-34.7z"/>
					</g>
					<g transform="matrix(1,0,0,1,306.68701171875,168.26499938964844)">
						<path class="st7" d="M-212-63.7C-212.1-63.8-212.1-63.7-212-63.7c-0.1-0.1-0.2-0.1-0.2,0c-2.5,5-0.2,12.2,4.9,15
							c0.2,0.1,0.5-0.1,0.4-0.3c-0.3-1-0.5-2.1-0.7-3.1C-206.8-56.3-208.9-61.1-212-63.7z M-200.4-47.5c-2.2,2.2-5.4,2.4-7.9,4.2
							c-1.6,1.3-3.9,4-3.1,6.1c0.3,0.8,0.5,4.9,0.5,4.9c6.2-1.6,9.8-9.7,10.6-15.1C-200.1-47.5-200.2-47.7-200.4-47.5z M-232.5-56.3
							c0.1-0.1-4.1,5-2.9,11.8c-1.3-2-3.8-2.7-3.8-2.6c-0.5,7.4,7.4,12.7,7.6,12.6l0,0c0.1,0,7.4-5.9,4.9-11.2
							c-0.1-0.1-2.2,2.1-2.3,2.1C-228.2-49.2-232.4-56.2-232.5-56.3z M-238.3-60.1c-0.3-1.5-2.1-4.1-2.2-4c0,0.1-2.2,3.9-1.1,7.4
							c0.8,2.4,4.7,7,4.8,6.7c0.9-4.4,3.3-7.9,4.6-12.1c1-3.6-1.5-9.8-1.6-9.8c0,0-2.1,3.3-2.7,4.6
							C-238.4-63.9-238.4-61.3-238.3-60.1z M-239.3-19.1c0.3-0.2,0.5-0.3,0.8-0.5c0.1,0,0.1,0,0.2-0.1c0.2-0.1,0.3-0.2,0.5-0.3
							c0.2-0.1,0.3-0.3,0.4-0.5c0.1,0.2,0.4,0.1,0.4-0.2c0.1-4.4-2.4-7.8-5.5-10.6c-0.1-0.1-0.2,0-0.1,0.1c0.2,0.3,0.5,0.5,0.7,0.9
							c-0.1,0-0.1-0.1-0.1-0.1c-0.2-0.1-0.3,0.1-0.3,0.3c0.4,1.8,1.5,3.4,2.1,5.1c0.3,0.8,0.5,1.6,0.7,2.4c0.1,0.6,0.1,1.1,0.2,1.7
							c-0.3,0.3-0.5,0.6-0.6,1C-240.2-19.4-239.7-18.9-239.3-19.1z M-246.7-6.1c5.3-2.8,11.6-4.8,12.1-12.1c0-0.3,0.3,4.3-7.6,7.8
							c-4,1.7-3.8-2.9-3.8-2.6C-245.7-10.2-246.8-6.1-246.7-6.1z M-203,1c0.6,0.2,3.3-0.3,6.9,1.8c3.7,2.2,10.6-4.4,10.5-4.3
							c-1.5,0.3-4.2-0.3-5.8-0.1c-3.9,0.8-4.8-0.2-5.2-0.3c1.7-3.6,2.6-7.6,6.6-9.2c0.2-0.1,5.6-1.5,7.4-1.9
							c0.2-0.1-6.7,0.6-7.3,0.7c1.2-1.9,1.2-4.7,1-6.8c0.1-0.3-3.6,2.5-5.5,3.8c-1.4,0.9-2.5,2.4-2.5,4.1C-196.8-2.8-203.2,1-203,1z
							 M-267.9,1.2c-0.4,0.3-0.8,0.7-1,1.1c-0.2,0.2-0.3,0.3-0.5,0.6c-0.1,0.1,0,0.3,0.2,0.2c0.1,0.3,0.5,0.5,0.8,0.3l0,0
							c0.1,0.1,0.2,0.1,0.2,0.1c0.2,0.3,0.5,0.3,0.8,0.2c0,0.2,0.2,0.3,0.3,0.2c4.6-4.3,4.5-12.1,1.7-17.7c-0.2-0.3-0.7-0.1-0.5,0.3
							c0.6,1.3,1.1,2.5,1.4,3.8c-0.2-0.1-0.5,0.2-0.4,0.4c0.3,2.7-0.2,6-1.4,8.6C-267.2-0.6-267.9,0.6-267.9,1.2z M-264.8-34.5
							c0.1-0.4-0.8-3.9-0.9-5.4c-0.2-3-4.2-5.7-5.1-5.3c-0.1,0.1,6.2,4.7,3.1,15.7c0,0.1,1.9-3.6,3-4.2c3.7-1.8,6.5-4,7.7-7.4
							c0.8-2.1,1.5-7.5-1.1-10.1c0,0,0.9,4.5,0.3,7.7C-258.8-39.5-261.9-36.4-264.8-34.5z M-267.7-69.7
							C-267.8-69.7-267.8-69.7-267.7-69.7c0.7,1.6,4.4,5.4,2,14.7c-0.1,0.3-0.1,0.5,0.2,0.3c1.3-0.9,3.2-5.6,2.5-8.7
							C-263.6-66.4-267.1-69.5-267.7-69.7z M-268-48.8c1.2-2.1,2-5.9,0.3-8.3c-1.7-2.6-8-3.8-7.9-3.8C-266-57.3-268-48.7-268-48.8z
							 M-328.3-47.5c0,0,3.7,4.4,3.8,4.1c0.3-1.7,0.3-3.3-0.2-5.1c-0.5-1.9-3.3-6.3-3.3-6.2C-328.1-53.2-329.6-50.3-328.3-47.5z
							 M-316.7-68.1c0,0.5,1.3-2.9,1.4-4c0.7-4-2.2-8.6-6.1-9.6C-321.5-81.9-316.8-77.4-316.7-68.1z M-315-56.2
							c1.5-1.5,3.4-2.5,5-3.9c1.3-1.3,2.6-2.8,3.4-4.4c1.9-3.3,1.4-6.9-0.4-10.5c-0.1-0.2,1.3,6.8-4.7,13.8
							C-313.8-58.9-315.1-56-315-56.2z M-167.8-41c-2.4,0-7.7,0.3-8.4,0.7c0.8-0.4,2.3-2.7,3-3.9c2.1-3.7,1-7.4,1-7.4
							c-2.4-1.2-8.8,5.5-10.7,7.4c-0.3-4.8,3.8-12,5-16.4c1-4.1,0.8-8.4-0.1-12.7c-0.2-0.8-2.1-9.6-3.3-9.5c-1,0-3.6,6.6-3.8,7.2
							c1.6-5,0.4-10.4-2.1-15.2c-0.3-0.6-4.4-7.4-5.3-6.9c0,0,0.1,1.4-0.3,3c-0.7,2.7-2,6.6-1.9,9.5c-0.1-1.3-1.8-2-2.7-3
							c-0.3-0.3-1.7,4-1.7,4c-0.6,3,0.2,5.6,0.4,8.6c-1.5-1.5-2.1-5.3-4-5c-2.7,0.4-4.3,9.8-4.5,11.7c0.8-5.6-4.1-11.5-2.8-18.2
							c-0.1,0.5-4.3,0.1-6.3,3.3c2.3-3.7,2.9-8.4,2.7-12.8c0-0.1-0.6-6.8-1.2-6.7c-1.2,0.3-2.9,2-3.7,2.9c0.4-3.3,0.5-8.7-1.3-11.9
							c-0.6,0.6-1.1,1.3-1.6,2c0.3-6.5,0.5-11.4-1.6-17.8c0.3,0.9-5,6.2-5.7,7.7c-0.9-0.9,0.8-8.2,0.5-9.8c-0.3-1.5-5.1-9.6-5-10
							c-1.1,2.3-2.9,4.1-4.1,6.4c-0.1-3.8,2.1-7.1,0.1-10.9c-0.3-0.5-1.4,6.4-1.4,6.8c-0.1,1.4-0.4,2.9-0.2,4.3
							c0.2,1.2,3.2,5,3.2,4.7c-0.3-3.3-0.3-4.2,1.9-6.9c1.4,7.2,2.2,9.8-0.7,16.5c-1.4-3.2-4.8-4.1-6.8-6.6c1.9,2.4,1.4,8,2.7,10.8
							c-1.2-0.7-2.6-2.1-3.3-3.3c0.9,1.5-0.5,5.1,0.3,7.2c1.6,3.8,4.3,2.6,6.8,4.7c-0.8,0.1-6.6,1.5-7,0.8
							c4.4,6.3,10.9,4.2,15.7,8.7c-1.5-0.1-3,0.3-4.2,1.1c0.1-0.1,3.5,3.3,4.1,3.8c3.6,3,5.9,4.3,7.4,9.2c0.8,2.6,1,6.3,0.7,8.9
							c-0.3,2.4-1.5,3.8-2.6,6.2c-0.3-2-4.8-3.6-6-2.1c1.6-2.1,6.7,8.9,6.5,8.9c-1.6-0.2,5.2-9.6,6.1-10.2
							c-0.7,0.4,6.4,12.1,6.2,13.7c0.1-0.5,1.2-2.3,1.4-2.9c0.6-2.5-0.7-5.1-0.3-7.4c0.5-3,3.3-6.9,5-9.4c0.9,2.1,3.4,3.7,3.7,6.1
							c-0.3-2.9,2.1-6.2,1.6-9.4c0.8,0.7,2.6,5.6,3.2,5.5c0.3,0.1,2.6-3.4,2.7-3.7c0.2,4,1.8,8.4,2.4,12.4c0.5-1.5,3.7-3.7,5-4.3
							c1.4,4.9-0.6,9.2-1.2,13.8c-0.8,6-0.3,10.9-2.9,16.5c-3-3.3-3.2-5.4-2.7-9.6c0.2-2.1,0.6-3.2-0.5-5.6c-0.3-0.7-3.3-4.3-3.1-5
							c-4.8,10.3,6,21,1.1,30.6c-0.5-1-5-3.6-5.8-3.1c-1.2,0.6-1.5,4.4-1.2,5.9c0,0,1.2-5.6,1.6-5.3c3.5,3.3,4.8,7.5,4.7,11.4
							c0-0.4,10.6-3.6,11-11.1c1,0.7-8.6,6.6-9,6.9c-1.7-3.8,2.7-7.4,4.4-9.8c2.7-3.7,3.9-7,8.3-9.2c-1.2,3.2,0.1,6.8-1.5,10.1
							c0.3-0.7,4.4-1.8,5.2-2.1c-1,1.6-9.8,15-6.9,16.7c-1.5-0.8,5.9-3,6.1-2.9c-1.2,1.8-1,3.9-2.5,5.9c-1.4,1.6-2.9,2.9-3.8,4.5
							c0,0-1.5,5.1-1.7,4.5c2.9-0.6,5-0.4,5.8-0.9c-0.5,1.8-13.3,16.8-8.1,16.6c-2.5,1.8-8.8,2.9-11.4,1.1c-4.7-2.1-6.2-2.1-7.9-7.4
							c-0.6-1.9-0.9-3.8-0.2-6.2c0.9-3.2,3.4-5.3,4.2-8.6c0.6-2.7-1-5.9-1-7.3c0.1,4.7-4.9,7.2-5.9,11.5c-0.7,2.7,0.5,5.9,0.4,8.5
							c-0.1,1.5-0.8,5-3.6,6.4c-1.1,0.5-3.1,1.7-3.1,1.7c-1.8-1.3-1-6.4-0.9-7.9c-0.9,5-14.3,4.7-17,4.7c2.1-2.5,2.9-5.6,5.5-7.5
							c2.5-1.7,5.5-0.7,8-1.8c2.4-1,9.2-5.8,9.2-15.6c0,0-2.7,6.4-5.9,8c-2.3,1.1-5.3,1.3-7.7,1c1.9-2.2,2.1-5.7,3.8-7.5
							c1.3-1.3,4.1-2.3,5.8-3.1c4.4-2,11-4.8,13.1-9.8c-1.4,1.9-8.8-1.9-11.4,1.6c0,0-3.6,4.8-6.6,4.1c-1.5-0.3-0.7-4.1-0.5-6.8
							c0.5-5.2-0.9-8.4-3.6-12.1c0.3,0.5-1.5,6.2-1.5,7.4c-0.2,3.5,0.6,5.9,1.7,9.2c2.1,6.4,2,10.3-1.3,16.4c-1.5-2.3-2.4-4.6-3.5-7
							c-0.6-0.9-2.9-5.3-3.3-7.5c0.3,1.2-1.2,3.8-1.4,5.4c-0.3,3.5,0.5,6.1,1.7,9.2c1.8,5.3,0.9,10.2-3.1,14.5
							c-4.7,5-3.8,0.9-3.8,1.5c-0.1,3.6-0.4-12-2.2-12.1c-0.7,0-2.7,6-2.7,7c0.1,1.2,0.9,1,1,1.9c1.3,7,0.3,11.9-6.8,14.2
							c0.2-1,0.5-12.6,2.1-11.9c-1.4-0.6-3.6-0.3-4.8,0.3c1-2.7-0.3-6.6,0.8-8.9c-1.5,3-5,1.8-5.8,6.4c-1.2-0.4-4.5-1.3-4.8-2.8
							c0,0-0.3,0.1-0.2,0.2c0.8,1.3-0.5,6.4-2.2,6.6c-0.1,0.4,0.1,0.6,0.6,0.3c-3.5,6-10.6,4.6-15.8,1.1c-1.9-1.3-1.5,0.1-2.6-2.5
							c-0.6-1.5-0.7-5.1-0.3-6.8c0.6-2.7,1.9-5.3,2-5.2c-0.9-0.9-6.9,2.3-7.6,2.6c0.2-0.3,6.9-8.6,6.2-14.4
							c-1.5,6.6-7.2,10.5-7.2,10.3c-0.3-0.8-1.1-2.7-0.7-5.1c0.2-1.4,0.7-5.2,0.9-6.8c0.2-2.3-0.8-5-1-6.2c-0.6-3-0.1-2.3,0.6-3.3
							s1.6-2.1,2.1-3.4c1-2.9,0.6-6.8-0.4-9.8c1.5,4.4-1.8,9.8-4.4,11.5c-1.4,0.9-1.8-0.2-2.5-3.2c-1.3-5,2.5-9.8,0-15.1
							c-2.1-4.7-7.2-7.2-7.2-7.2s8.5,8.4,4.7,18.3c0.3-1.3-5.3-4.8-5.3-5.6c0.4,1.2-1.1,2.2-1.3,2.6c0-0.2,5,3.7,5.2,4
							c3.3,3.3,3.6,8.2-2,3.6c0,0,0.9,1.4,0.2,2.9c0.1-0.3,6.4,4.8,7.1,6c1.4,2.4,1.5,5.7,0.3,8c-1.8-1.7-9.2-5-7.7,1.4
							c-0.1-0.5,2.5-0.4,2.9-0.2c3.1,1.5,4.9,2.1,6.4,5.6c1.2,2.6,1.5,5.7,0.4,9.1c-3.3-2.3-15.7-12.4-11.4-0.6
							c-1.2-1-2.1-3.2-3.7-2.1c0.9-2.2,1.8-4.4,1.6-6.8c-0.2-2.3-1.5-3.5-2-5.6c0.3,1.7-2.7,3.5-3.3,5c0,0,0.2,2.7-0.8,4.4
							c-0.9,1.8-2.3,3.7-2.3,3.7c-3-4.9-5.6-9.3-2.7-14.4c1.2-3.3,3.3-4.3,4-6.8c0.9-3-1-4.7-1.3-7.4c0.1,1-3.3,3.2-3.9,4.5
							c-0.6,1.3-0.3,3.8-0.8,5.1c-0.6,2.1-1.8,4.1-2.7,6.2c-0.1,0.2-0.4,0.2-0.5-0.1c-1.6-6.9-3.8-10.9-0.7-18.8
							c0.3-0.5,2.6-1.9,2.8-4.1c0.3-2.7-2.2-5.4-2.3-6.8c0.1,2.8-3.9,3.7-4.6,6.2c-0.3,1,0.6,3,0.8,4.3c0.3,2.4-0.3,4.7-0.6,7.1
							c-3.1-0.7-5-3.8-6.5-6.4c-1.8-2.9-4.4-5.2-6.2-7.2c2.7,3.3,0.1,8.6,1.8,12.3c-4.5-0.6-5.8-2-8.2-5.9c-0.6-1-3.7-5.5-5.5-3.8
							c0,0,1.7,1,2.7,4.3c1.2,3.8,3.3,8.4,6.9,9.4c-3.5,1.1-5.5,3.6-5.5,3.6c2.1,1.3,8.4,9.1,14.8,7.3l1.7,2.7
							c-2.7-0.3-3.9,2-5.8,3.3c-0.2,0.1,3.3,3.6,3.8,3.8c2.3,1.8,5.6,2.7,8.4,2.7c-1.3,0.7-2.9,1.3-3.7,2.7c-1,2.2-1.3,1.7-0.1,2.4
							c3.3,2.1,10.1,3.2,13.3,3.5c-1.2,1.1-3.8,3.3-3.8,3.3c5.6,6.3,10.9,0.6,14.7-1.7c-2.3,3.8-0.5,8.2-2.4,12.2
							c5.2-0.4,15.1-2.2,15.1-9.6c2,3.9,5.7,7.4,6.1,12c2.9-1.6,6-4.4,4.9-8.5c1.9,1.5,3.8,3,5.7,4.5c1-2.1,2.7-3.8,4.6-5
							c-0.2,2.1-0.6,4.8,0.3,6.8c2.6-2.4,6.2-2.1,8.9-4.3c-0.3,3.5-1,6.8-2.2,10.1c4.4,0.1,9.3-0.9,10.3-5.8
							c1.5,3.2,7.3,6.5,5.3,9.4c3.6-5.3,4.8-4.8,4.8-4.8c0.5,8.5,10,8.6,14.9,9.9c0,0-1.4-3.1-2-5.3c-0.3-1,0.1-2.1,0.1-2.1
							c4.1,5.6,13.5,2.3,16.6,2.2c0,0-4.9-6.2-6-5.6c1.4-0.5,6.7,2.7,9.8,2.6c1.6,0,6.9-2,9.3-0.5c0,0,0.1-1.9-2-3.8
							c2.2,0.3,7.5,0.1,9.1-0.9c1-0.8-1.2-3.5-3.7-3.9c1.3,0.3,4.7-0.7,8.8-2.7c3-1.5,6.5-3.9,8.2-6.9c2.9-5-1.5-4.4-4.7-3.6
							c-1.4,0.3-1.9,0.9-3,1.1c1.6-0.9,4.4-3.6,6.1-5.5c2-2.1,4.9-8.1,4.6-11.4c-0.2-1.5-1.6,0.3-6.5,1.5c2.4-1.5,4.9-3.8,6.1-6.2
							c0.6-1.3,3.4-9.2,3.4-9.2c-3.3-1.3-7.3,0.9-8.2,2.2c0,0.1,1.1-3.3,4.5-5.8C-169.7-32.5-167.8-41-167.8-41z M-329.1-20.5
							c-2-2.4-2.5-6.2-3.8-9.3c8.1,3,12.2,8.9,12.8,13.1C-322.8-18.1-326.9-18-329.1-20.5z M-320.9-7.9c-2.6-1.5-3.2-4-4.1-6.3
							c1.2,1.2,4.5,2,6.3,2.9c2.4,1.4,3.5,3.2,4.7,5.5C-316.3-6-318.7-6.7-320.9-7.9z M-229,15.1c-5.1,4.4-8-0.2-13.3-0.1
							c5-4.7,10-5.4,16.6-3.5C-226.8,12.7-227.8,13.9-229,15.1z M-211.6,16.6c-3.9-0.3-10.6-5.9-4.4-7.7c4-1.1,8.6,3,11.5,5.2
							C-206.6,15.7-208.8,16.8-211.6,16.6z M-263.7-87c-0.1-0.4-0.2-0.6-0.2-0.6C-263.9-87.4-263.8-87.2-263.7-87z M-248.2-101.4
							c0,0-0.5-3.1-0.5-4.7c0-1.5,0.5-2.7,1.3-6.7c0.8-3.8-1.2-5.7-1.2-5.7c1,1.6-1.3,11.3-1.3,11c0-0.3-1.3-1.4-1.3-1.4
							c0.3,0.5-1.3,2.1-1.3,2.1L-248.2-101.4z M-335.9-52c0.3-1.2,0.9-2.2,1.5-3.2c0.6-0.9,1.4-2,1.7-3c0.4-1.6,0.4-4.6-0.8-6.4
							c-0.1-0.1-0.3,4.9-2,9.1C-335.7-55.3-336.1-51.6-335.9-52z"/>
					</g>
					<g transform="matrix(1,0,0,1,0,0)">
						<g transform="matrix(1,0,0,1,0,0)">
							<path class="st6" d="M62.5,72.4c0.3,1,5,5.5,5.1,5.7c0.2,0.2,0.4,0,0.3-0.2c-0.6-2.1-1.8-4.3-3.1-6.2
								c-0.8-1.1-1.4-2.3-1.5-3.6c-0.1-0.5-0.2-1-0.3-1.7c0.6,1.7,1.1,3.3,2.2,5.1c1.5,2.2,2.9,4.3,3.4,6.9c0.2,1,1.2,0.7,1.3,0.5
								c0.9-3,2.6-4.8,2.7-5c-0.8,1.5-1.5,3.1-2.1,4.8c-0.1,0.3,0.3,0.6,0.6,0.3c1.2-1.3,2.7-2.3,3.5-3.8c0.9-1.7,0.5-3.6,0.2-5.6
								c-0.1-0.3-0.2-0.3-0.5-0.2c-1.4,0.9-2.5,1.4-3.4,2.7c-1,1.4-0.9,2.7-1.2,3.7c-0.1-1.4-0.3-2.7-0.9-4
								c-1.4-2.8-4.2-7.1-6.4-9.4c-0.1-0.1-0.3-0.1-0.5-0.1c-0.3,0.1-0.5,0.2-0.5,0.3C61.8,63.1,60.6,70,62.5,72.4z"/>
						</g>
					</g>
					<g transform="matrix(1,0,0,1,0,0)">
						<g transform="matrix(1,0,0,1,0,0)">
							<path class="st6" d="M87.8,139.1c-0.2,0.9,0.2,3,0.3,2.8c0.9-1.4,1.8-7.4,2.3-8.6c-0.2,0.8,0.2,3.7-0.5,6
								c-1.1,3.6-1.7,4.7-1.2,4.7c0.2,0,1.4-1,5.4-4.2c3.8-3,0.5-15.4,0.3-15.3C87.3,129.9,88,138.2,87.8,139.1z M83,156.4
								c0,0.3,2.5-2.4,2.8-7.4c0.6-7.6-3.6-12.1-3.6-11.5c0.1,1.9-1.4,8.3-1.7,9.3c-1.5,4.3,2.2,9.4,2.2,9.2
								c-0.3-2.1-0.5-4.5-0.3-6.8c0-1.1,0.6-3.8,0.6-3.9C82.8,146.4,82.9,153.9,83,156.4z M85.4,152.2c-0.1,0.2-0.3,1.7,0.9,0.4
								c1.5-1.5,2.7-1.7,4.2-2.2c-0.8,0.4-6.1,6.2-5.8,6.2c10,2,12.1-8.6,13.7-10.2C98.8,146.1,88,146.8,85.4,152.2z"/>
						</g>
					</g>
					<g transform="matrix(1,0,0,1,0,0)">
						<g transform="matrix(1,0,0,1,0,0)">
							<path class="st6" d="M16.3,133.8c-0.3,0.7-0.7,2.1-0.7,2.7c0,0,3.8-3.4,4.5-7.1c0.6-4.1-2.3-9.1-2.4-9.2c0,0-3.3,6.2-3.6,7.4
								c-0.9,4.3,0.9,8,0.9,8c0.5-0.8,2.1-7.7,2.3-8.6C17.4,127.5,17.6,130.6,16.3,133.8z M11.4,127c0.1,0.4,0.1,0.9,0.1,1.4
								c0,0.2,0.3,0.3,0.3,0.1c1.1-3.4,0.3-7.1-0.5-10.6c-1.3-5.3-6.8-9.2-6.8-9.2c-0.1-0.2-0.6,9.4,0.5,12.5
								c1.1,3.3,5.1,6.2,5.6,6.4c0.2,0.1,0.5-0.1,0.3-0.3C8,122.6,6.8,115.3,6.8,115C7,115.5,9.9,124.1,11.4,127z M10.2,134.4
								L10.2,134.4c1,0.7,2.1,1.1,2.7,0.5c0.1-0.1,0.1-0.2-0.1-0.2h-0.1c-0.2-0.7-0.5-1.5-0.9-1.9v-0.1c-0.2-1.2-0.9-2.1-1.7-2.8
								c-0.4-0.9-1.5-1.6-2.1-2.2c-0.5-0.3-1.2-0.8-1.9-1.1C6,126.6,6,126.6,6,126.5c-0.2-0.1-0.3-0.1-0.6-0.2
								c-0.2-0.1-0.3-0.1-0.4-0.1c-0.2-0.2-0.3-0.3-0.5-0.6l0,0c-0.1-0.1-0.2-0.1-0.3-0.1C4,125.5,4,125.4,4,125.4
								c-0.2-0.3-0.7-0.3-0.8,0c-0.1,0.4-0.1,0.9,0.4,1.2l0,0c-0.5,1.6,0.3,3.3,1.4,4.5c0.8,0.9,1.7,1.3,2.6,2
								C8.5,133.4,9.3,134.4,10.2,134.4z M5.3,128.3c0.7,0.9,1.5,1.5,2.3,2.2c0.2,0.2,0.4,0.3,0.7,0.5c0.5,0.3,1,0.9,1.5,1.2
								c0.2,0.1,0.3,0.3,0.4,0.4c0.3,0.3,0.6,0.8,0.8,1c-1-0.7-1.9-1.5-2.7-2.2C7,130.4,6,129.5,5.3,128.3z"/>
						</g>
					</g>
					<g transform="matrix(1,0,0,1,0,0)">
						<g transform="matrix(1,0,0,1,0,0)">
							<path class="st6" d="M-5.1,147c-0.2,0.1-3.2,4.5-2.7,8.2c0.6,4.4,3.8,8.2,3.8,8.4c-0.1,2,2.9-3.7,3-4.7
								C-0.5,151.9-5.1,146.8-5.1,147z M-4.6,153.4c0.3,1,0.5,2,0.5,3.1c0.1,1.7-0.3,4,0,5.7C-5.2,159.5-4.3,156.4-4.6,153.4z
								 M-10.5,150c0.3-0.5,5.9-9.8-1.7-17.4c0-0.3-2.1,3.7-1.8,8.9c0.1,1.4,0.6,4.2,1,5.6c0.5,1.5,1.5,4.6,1.5,4.7
								c0,0.1,0.1,0.1,0.1,0c0.8-4,0-11.6,0-12.1c0.2,0.6,1.7,5.9,0.5,11.2C-10.8,150.8-10.5,150.1-10.5,150z M-13.3,151.5
								c0.2,0-0.1-3.2-3.7-7.2c-2.7-3-7.7-5.7-8.7-6.1c0,0-0.5,0.2-0.3,0.7c0.2,0.3,1.5,6.5,3.1,8.4
								C-20.8,149.7-13.5,151.5-13.3,151.5z M-22.6,143.3c0.1,0.1,0.2,0.2,0.2,0.2c0.9,1,5,5,6.1,6.1
								C-20.4,147.6-22.2,143.8-22.6,143.3z M-18.2,154.4c-0.1-0.1,0.3,3.1,2.3,5.1c1.2,1.1,4.8,2.6,6.8,2.9c0.2,0,1.9,0.2,1.8-0.1
								C-8.7,157.8-15.9,155.7-18.2,154.4z M-12.9,159.8c-0.9-0.5-1.6-1-2.1-1.8c0.5,0.3,3.6,1.8,4.5,2.5c0.5,0.3,0.9,0.7,1.4,1
								C-10.4,161-11.7,160.5-12.9,159.8z M-16.3,139.5c0.2,0.1-0.5-4.8-0.4-6.4c0-2.7-2.4-11.7-7-12.6c-0.3-0.1,0.3,3.3,0.3,4.6
								C-23.5,128.6-25,135.4-16.3,139.5z M-17.4,137.9c-1.5-2.1-2.7-4-3.3-6.5c-0.5-2.3-0.6-4.7-0.9-7c0.1,0.3,0.8,4.9,1.5,7.5
								C-19.3,134.6-17.4,137.9-17.4,137.9z"/>
						</g>
					</g>
				</g>
			</g>
		</g>
	</g>
</g>
<g id="Слой_3">
	<g>
		<path class="st5" d="M155.9,49.9c0.4,0,0.7,0.4,0.9,0.9c0.1,0.4,0,0.8-0.2,1.2c-0.1,0.5-0.4,1-0.5,1.4c-0.2,0.5-0.4,1-0.6,1.5
			s-0.4,1-0.8,1.4c-0.4,0.3-1.1,0.4-1.4-0.1s-0.2-0.9,0-1.4c0.2-0.7,0.5-1.4,0.7-2.1C154.4,51.6,154.8,50.5,155.9,49.9"/>
	</g>
	<path class="st5" d="M128.1,55.8c0,0,0.3,4.5,3.5,5.5s1-6.5,1-6.5L128.1,55.8z"/>
	<path class="st5" d="M127.1,55.1c0,0-3.6-5.8-3.5-11.7s0.6-9.9,1-10.8c0.4-0.3,0.8-0.5,0.8-0.5s1.3-2.3,3.1-3.1
		c1.1-0.7,1.5-1.4,1.5-1.4l1.1-0.9c0,0,0.5-0.3,0.6-0.4s1-0.7,2-0.7c0.9-0.1,3-0.1,3.7-0.5c0.8-0.4,4.5-0.2,5.1-0.1
		c0.5,0.1,3.9,1.1,4.7,1.3c0.7,0.2,1.6,0.6,1.9,1c0.3,0.4,1.6,0.9,1.6,0.9s0.7,0.3,0.9,1c0.1,0.6,0.3,1.1,0.3,1.1s1-0.4,1.9-0.2
		c0.7,0.2,1.1,0.8,1.1,1s0.3,0.8,0.6,1.1c0.2,0.2,0,1.1-0.2,1.4s-0.2,1-0.2,1s1-0.1,1.2,0.5c0.2,0.5-0.1,1.1-0.1,1.1s0,0.7,0.7,1.3
		c0.6,0.4,1.3,2.4,1.5,3.3c0.1,0.8,0.1,5.5-1.8,8.8c-1.8,0.9-1.8,6.2-1.8,6.2L127.1,55.1z"/>
	<g>
		<path class="st5" d="M130,51c-0.2-0.4-0.3-0.8-0.6-1.2s-0.6-0.6-1.1-0.7c-0.5,0-1.1,0.3-1.5,0.6c-0.3,0.5-0.5,1-0.6,1.5
			c-0.2,1.3-0.1,2.7,0.1,3.9c0.2,0.5,0.4,1.1,0.9,1.5c0.4,0.3,1,0.4,1.5,0.2s0.9-0.7,1-1.2"/>
	</g>
	<g>
		<path class="st5" d="M130.1,54c-0.6,3.6-0.4,8.4,0.2,11.1c0.5,2.2,4,7.4,7.5,8.9c3.4,1.5,8.2,1.2,11-1.2c1.3-1.2,2.3-3.3,3.2-4.8
			c0.7-1.2,1.4-3,1.9-4.4c1-2.8,1-5.5,0.8-8.5"/>
	</g>
</g>
<g id="Слой_2_00000005228789753738094280000004550462299452292508_">
	<path class="st8" d="M202.3,278.2c0,7-25.1,12.7-56.1,12.7s-56.1-5.7-56.1-12.7s25.1-12.7,56.1-12.7
		C177.2,265.4,202.3,271.1,202.3,278.2z"/>
	<g>
		<path class="st5" d="M186.3,270.8c-1.9-0.2-7,1.2-8,1c-1-0.1-4.3-3-4.5-3.5s-0.6-12.9-0.3-14.1c0.4-1.2,1.9-2.9,1.8-3.5
			c-0.1-0.7,0.3-4.9-0.4-5.4s-0.9-1.9-0.9-2.5c-0.1-0.7-0.1-5.9-0.2-7.8c-0.1-1.9,1.1-3.3,0.6-3.9c-0.4-0.6-0.9-1.9-0.8-2.5
			c0.1-0.5,0.8-2.4,0.5-3.5s-1-3.3-0.7-3.7s3-4.8,3-5.8c0.1-1,0.4-6.4-1.2-9.7s-3.6-5.2-3.8-5.9c-0.1-0.7,0.3-3.1,0.7-3.9
			c0.4-0.8,1.2-4.2,1.2-5.4s0.3-4.5,0.3-6.1s-0.5-8.2-0.6-10.4s-0.4-6.8-0.9-9.2c-0.4-2.4-1.1-7.9-1.1-10s-0.4-7.3-0.4-8.4
			c0-1.2-0.3-5.3,0.1-5.9c0.4-0.6-0.6-2.1-0.3-2.2c0.3-0.1,2.2,0.1,3.5-0.4s4.8-2.1,6.1-2.4c1.4-0.3,3.2-2.9,4.1-5.7
			c0.9-2.8,1-5.6,0.3-8.3c-0.7-2.7-1.8-5-2.7-5.8c-0.9-0.9-2.5-1.9-2.6-2.5c-0.1-0.5,0-7.4-0.3-8.3s-2.5-4.4-2.8-4.8
			c-0.1-0.1-0.4-0.5-0.7-1c-5.9-3.8-10.9-8.7-15.2-14.4l-0.5,0.7c0,0,0-0.7-0.2-1.5c-1.1-1.4-2.1-2.9-3.1-4.5
			c-0.9-0.8-1.7-1.5-1.7-1.5s0-0.5,0.1-1.2c-0.5-0.9-1-1.8-1.4-2.7c-1.4-0.8-2.8-1.7-4.1-2.6c-4.6-3-9.1-6.1-13.5-9.3
			c-1.4-0.4-2.8-1-4.2-1.5c-1,0.7-2.5,1.8-3.1,2.2c-0.9,0.7-3,6.4-3.8,6.9c-0.7,0.5-9.5,2.6-11.5,4.4c-2.1,1.8-4.5,3-5,3
			c-0.4,0-2.9,0.2-3.5,0.8c-0.6,0.6-3.6,6.1-3.4,7.2c0.2,1.2,0.1,2.5,0,3.7s-1.6,9.7-1.6,11.9c-0.1,2.2-1.2,6.9-1.4,8
			c-0.2,1.2-0.6,5.4-0.4,6.3s0.5,9.2,0.9,11s2.9,8.2,4,10.5c1.2,2.2,4.8,8.6,4.7,9.4c-0.1,0.8-1,2.7-0.8,3.5s1.1,1.7,1.9,2.7
			c0.9,0.9,3,0.5,3,0.5s-0.3,1.1,1.3,4.3c1.6,3.2,7.9,11.7,7.9,11.7s-0.9,1.7-1.1,2.5c-0.1,0.8,0.2,2.2,0.6,2.4
			c0.4,0.1,1.9-0.3,2.2,0.5c0.2,0.8,1.2,1.9,1.1,2.5c-0.1,0.5-0.9,1.4-1.1,2.2c-0.1,0.7-0.4,7.1-0.4,7.9c0,0.8,0.5,4.9,0.6,5.6
			c0.1,0.7-0.1,2.3-0.2,3.2s0.9,1.6,0.9,1.8s-1.2,1.1-1.2,2s-0.2,3.2-0.2,3.2s-1.2,0.6-1.6,1.4c-0.4,0.7,0.1,3,0,3.3s-0.4-0.5-0.8,0
			s-2.5,4.5-2.5,5.1c0,0-2.3,1.9-2.7,2.9c-0.4,0.9-0.9,3.3-1.7,4.9c-0.7,1.6-1.7,3.3-1.8,4.8c-0.1,1.4,0.6,8.7,0.2,9.1
			c-0.4,0.4-1.7,0.6-1.7,1.9c0,1.2,1.1,4.3,1.5,4.8c0.4,0.4,0.4,1.6,0.4,2.2s-0.1,1.6-0.1,1.6s-1.4,0.2-1.4,0.4s0.1,8.4-0.1,10.4
			c-0.3,1.9-1.4,4.5-2.2,5.4c-0.7,0.9-2.2,5.2-2.1,8.2c0,0-1.1,1.5-1.2,2.7s0.1,3.1,0.2,3.5s1.9,2.2,5.5,2.1s7.6-2.5,8.4-3.3
			c0.9-0.9,2.2-1.7,4.5-2.2c2.2-0.4,5.7-0.7,9.2-2.4c3.5-1.7,4.6-4.1,4.6-5.1s-0.5-5.5-3.5-5.8c-3-0.4-6.4,1-7.1,1.2
			c-0.7,0.1-2.2-2.6-2.5-3.3c-0.3-0.7,0-5.1,0.1-6.4c0.1-1.4,2.4-4.5,2.5-5.1c0.1-0.5-0.9-0.8-0.9-0.8s0.4-0.8,0.8-1.2
			s1.9-0.8,1.9-1.4c0-0.6,0.2-2.8-0.1-3.1c-0.4-0.3-0.7-2.2-0.5-2.7c0.1-0.4,0.7-1.7,1-2.2c0.3-0.4,0.8-2.7,0.7-3.5s1.1-1.8,1.2-2.5
			c0.1-0.7,0-3.8,0.3-4.2s2.3-2,2.5-2.7c0.1-0.7,1.4-3,1.4-3s5.6-3.2,7.6-5.6s3.3-6.4,3.3-8.3s-1.1-3.7-1.4-3.7
			c-0.4,0-0.8-3.8-0.8-4.3s0.6-1.2,0.9-1c0.2,0.1,4.4,4.7,5.4,6.1c1,1.4,2.7,1.9,3,2.5c0,0,0.3,3.5,0.1,4c-0.2,0.4-0.8,1.4-0.8,2.5
			s0.1,4,0.1,4.8s1.2,2.5,1.3,3.2s1.3,2.3,1.3,3s0.5,1.2,0.5,1.2s-0.4,1.2-0.4,2.5c0.1,1.4,0.6,2.3,0.3,2.8s-1.9,1.4-1.9,2.5
			c-0.1,1.2,0.2,5.8,0.4,6.5c0.1,0.7,0.7,1.2,0.6,2.2s0.3,7.9,0.3,9.3c0,1.4,0.7,2.8,0.7,3.2c0.1,0.4,0.8,1.3,0.6,1.9
			c-0.2,0.6,0.2,1.7,0.3,2.3s0.9,1.9,1.2,2.3s-1.2,0.4-1.1,1.1c0.1,0.7,1.1,2.5,1.3,3c0.2,0.6,1.2,6.3,1.2,7.3s-0.2,3.5-0.3,4.1
			s-1.9,6.2-1.9,9c0,0-0.8,0.8-0.8,2.5s0.4,3.6,1,4.3c0.6,0.6,4.4,1.2,7.5,1s6-1.7,6.4-2.1s1.7-0.7,2.3-0.7
			c0.6-0.1,7.4-0.7,10.6-2.2c3.2-1.5,6.3-4.5,6.7-6.9C190.4,275.5,188.2,271.1,186.3,270.8z"/>
		<g>
			<path class="st9" d="M177,116.5c-0.7-0.9-1.6-2.2-1.5-3.4c1.6-0.2,3.2,1,4.7,1.4c-0.4-0.3-0.7-0.6-0.8-0.9
				c-1.2-0.4-2.2-1.5-3.5-1.5c-1-0.1-1.3,0.6-2.1,0c-0.4-0.3-0.9-1.5-1.3-2c-0.6-0.8-1-1.4-1.8-2c-0.9-0.8-0.8-0.7-1.2-1.8
				c-0.7-2.1-2-2.6-3.4-4c2.1-0.6,1.1-1.5,0.2-2.8c-0.9-1.2-1.6-2.3-2.2-3.7c-0.7-1.6-0.5-3.2-0.9-4.9c-0.5-2.2-1.9-3.8-3.5-5.1
				c0-0.1,0.1-0.3,0.1-0.4c0-0.2-0.1-0.8-0.2-1.4c-1.1-1.4-2.1-2.9-3.1-4.4c-0.9-0.8-1.7-1.5-1.7-1.5s0-0.1,0-0.3
				c-0.9,0.1-1.9,0.1-2.5,0.2c2.2,1,4.2,2.3,4.5,4.7c0.1,0.8-0.1,2.1,0.3,2.9c0.5,1,1.7,1.2,2.5,1.8c2.5,1.9,2.5,4,2.8,6.9
				c0.1,1.6,0.3,3.1,0.9,4.6c0.6,1.5,1.3,1.2,2.1,2.2c-1,0.2-3.5,0.2-2.6,1.6c0.7,1.1,3.5,1.1,4.6,2c1.2,1,0.9,2.3,1.2,3.7
				c0.3,1.6,1,1.7,2.4,2.5c2.5,1.5,4.4,3.9,5.9,6.4c0.7,1.2,1.9,7.1,3.2,7.2c0.2-1.4-0.6-2-1.1-3.2c-0.4-0.9-0.5-2-0.9-2.9
				c1.3,0.1,2,1.5,3.2,1.9C180.7,118.4,178.2,118,177,116.5z"/>
			<path class="st9" d="M176.2,100.3c-0.1-0.1-0.4-0.5-0.7-1c-0.5-0.3-0.9-0.6-1.4-0.9c0.1,0.2,0.2,0.4,0.2,0.7
				c0.3,1,0.8,1.9,1.1,2.8c0.3,0.7,0,1-0.1,1.7c-0.1,0.8,1,1.3,1.4,1.9c0.7,1,1,2.2,1.3,3.4c0.2,1,0.5,2.3,1.2,3.1
				c0-2.2,0-6.2-0.3-6.9C178.7,104.2,176.6,100.7,176.2,100.3z"/>
			<path class="st9" d="M186.3,270.8c-1.9-0.2-7,1.2-8,1c-1-0.1-4.3-3-4.5-3.5s-0.6-12.9-0.3-14.1c0.4-1.2,1.9-2.9,1.8-3.5
				c-0.1-0.7,0.3-4.9-0.4-5.4s-0.9-1.9-0.9-2.5c-0.1-0.7-0.1-5.9-0.2-7.8c-0.1-1.9,1.1-3.3,0.6-3.9c-0.4-0.6-0.9-1.9-0.8-2.5
				c0.1-0.5,0.8-2.4,0.5-3.5s-1-3.3-0.7-3.7s3-4.8,3-5.8c0.1-1,0.4-6.4-1.2-9.7c-1.5-3.2-3.6-5.2-3.8-5.9c-0.1-0.7,0.3-3.1,0.7-3.9
				s1.2-4.2,1.2-5.4s0.3-4.5,0.3-6.1s-0.5-8.2-0.6-10.4s-0.4-6.8-0.9-9.2s-1.1-7.9-1.1-10c0-2-0.4-7.3-0.4-8.4
				c0-1.2-0.3-5.3,0.1-5.9c0.3-0.4-0.1-1.3-0.3-1.8c-0.4-0.1-0.9-0.3-1.2-0.3c-1.2-0.1-2.3,0.3-3.6,0.1c-2.6-0.3-4.6-1.8-6.9-2.6
				c-0.6,2.7,4.1,4.6,5.3,6.5c1.9,2.9,1.7,6.2,2.3,9.5c0.7,3.9,1.7,7.5,2.7,11.3c0.9,3.5,0.5,7.1,0.9,10.7
				c0.7,5.7,2.5,11.8,1.8,17.6c-0.3,3-2,5.6-2.6,8.4c-0.3,1.2-0.4,0.6,0.3,1.4c0.6,0.6,1.2,0.7,1.8,1.6c0.9,1.3,1.5,2.8,2.1,4.2
				c1.1,2.4,1.7,5,1.9,7.6c0.2,2.8-0.8,3.9-2.5,5.9c-0.5,0.6-2.1,2.4-2.1,3.2s0.5,0.4,1,1.1c0.5,0.7,0.4,1.7,0.4,2.6
				c0.1,2.5-0.9,5.1-0.3,7.7c0.3,1.3,0.9,2.3,1,3.7c0.1,1.6-0.4,3.3-0.2,4.9c0.2,1.3,1.2,2,1.4,3.2c0.3,1.2-0.5,2.8-1,3.9
				c-1,2.3-2.8,4.2-5,5.3c-1.1,0.5-2.1,1.1-3.2,1.7c-0.9,0.5-2.3,0.5-2.9,1.2c1.4,0.6,4.6-0.6,6.1-1c1-0.3,2.8-1.5,3.7-0.8
				c1,0.8,0.4,3.6,0.3,4.7c-0.2,2-0.1,3.9,0.2,5.9c0.2,1.2,0.2,2.4,1.1,3c0.4,0.3,1.1,0.4,1.6,0.7c0.7,0.4,1.2,1,1.7,1.6
				c0.9,1,1.5,2.2,2.9,2.2c1.6,0,3.2-0.7,4.9-0.7c1.6,0,3.9,1,5.5,2.4C190,274.7,188,271,186.3,270.8z"/>
			<path class="st9" d="M140,186.7c-0.6-1.9-5.2-10.2-5.2-10.2s-5,0-7.2-1.1c1.1,0.6,4.3,2.4,6.2,2.9c2.4,0.7,2.9,4.3,3.3,5.3
				c0.4,1,1.6,5.9,1.9,6.7c0.3,0.9,2.7,3.3,2.9,3.9c0.1,0.6,2.2,6.9,2.1,9c-0.1,2.2,0.2,3.3-2.1,5.7s-5.7,5.5-7.2,6.3
				c-1.4,0.9-2.9,2.2-2.6,3.3c0.3,1.1-1.4,2.7-2.6,3.9c-1.1,1.1-2.2,2.3-1.4,3.7c0.7,1.4-0.6,3.4-1.6,5.6c-1,2.2-1.9,4.9-1,6.3
				c0.9,1.4-0.1,3.9-1,4.3c-0.9,0.4-7.2,2-8.3,2c0.9,0,7.7,0,8.4,0.9c0.8,1-1.4,3.2-1.9,6c-0.4,2.9-0.1,7,1,9s0.7,3.2,3.4,1.7
				c2-1,5.4-3,8.6-2.4c-0.5-0.8-1.3-1.5-2.4-1.6c-3-0.4-6.4,1-7.1,1.2c-0.7,0.1-2.2-2.6-2.5-3.3s0-5.1,0.1-6.4
				c0.1-1.4,2.4-4.5,2.5-5.1c0.1-0.5-0.9-0.8-0.9-0.8s0.4-0.8,0.8-1.2s1.9-0.8,1.9-1.4s0.2-2.8-0.1-3.1c-0.4-0.3-0.7-2.2-0.5-2.7
				c0.1-0.4,0.7-1.7,1-2.2c0.3-0.4,0.8-2.7,0.7-3.5s1.1-1.8,1.2-2.5c0.1-0.7,0-3.8,0.3-4.2s2.3-2,2.5-2.7c0.1-0.7,1.4-3,1.4-3
				s5.6-3.2,7.6-5.6c1.9-2.5,3.3-6.4,3.3-8.3c0-1.9-1.1-3.7-1.4-3.7c-0.4,0-0.8-3.8-0.8-4.3s0.6-1.2,0.9-1c-1.4-1.5-1.1-2-1.6-3
				C142,190.6,140.6,188.6,140,186.7z"/>
			<path class="st9" d="M119,151.2c2.2-0.3,10.5-2.2,11.2-4c-5.1-0.1-9.9,1.5-14.6,3.3c-2.4,0.9-5.1,1.7-7.5,1.4
				c0.2,0.2,0.4,0.4,0.6,0.6c0.9,0.9,3,0.5,3,0.5S116.8,151.5,119,151.2z"/>
			<path class="st9" d="M127.4,168.9c1.8-0.4,3.5-1.7,5.2-2.5c2-0.9,3.8-0.9,5.8-1.6c2.8-0.9,9.2-3.1,10.5-6c1.3-3-1.6-9.5-2.3-12.6
				c-1.1-4.2,0-8.8-0.7-13c-0.3-1.9-1.2-3.9-1.7-5.8c-0.2-0.9-2.4-11.4-3.5-10.6c0,0,2.5,16.1,3.1,17.8c1.3,3.9,0.2,8,0.2,12
				c0,3.5,2.5,9.3,0.7,12.2c-2.5,4.2-9.2,4.5-13.1,6.5c-2.8,1.4-4,2.1-6.8,2.4c-1.6,0.2-4.1,0.8-4,1
				C122.9,168.7,125.4,169.3,127.4,168.9z"/>
		</g>
	</g>
</g>
<g id="Слой_5">
	<g id="Слой_14_00000142871093399348656130000005338380850551506337_">
		<g id="Слой_3__x28_копия_x29__00000106827309581611276020000002589236931691977363_" class="st10">
			<path class="st9" d="M363.7,293.5l-9.2-1.6c0,0-2.7-0.7-4.2,0.2c-2,1.4-3.5,1-3.5,1l-5.4-1.2c0,0-11.5-2.6-14.4-3.2
				c-2.9-0.7-2.4-3.1-2.4-3.1s1.2-5.5,1.7-7.8s3.3-1.4,3.3-1.4l12.9,2.9l6.6,1.5c0,0,1.9,0.3,2.9,2.1c1,1.8,3.7,2.5,3.7,2.5l9.1,2.8
				"/>
		</g>
		<g id="Слой_4__x28_копия_x29_" class="st10">
			<path class="st9" d="M365.5,288c0,0-0.3-0.2-0.5,0.2c-0.2,0.3-0.9,1.9-1.3,5.3c0,0.5,0.4,0.5,0.4,0.5s1.3,0.3,1.8,0
				c0.2-2.3,1.2-5.2,1.2-5.2S367,288.3,365.5,288z"/>
		</g>
		<g id="Слой_5__x28_копия_x29_" class="st10">
			<path class="st9" d="M367,288.6c0,0,0.7-0.2,0.8,0.5c-0.9,3-1.2,4.9-1.2,4.9s-0.5,0.6-0.8,0"/>
		</g>
		<g id="Слой_9" class="st11">
			<path class="st5" d="M328.2,276.4l-1,4.6c0,0-1,3.5,2.9,4.4s12.7,2.9,12.7,2.9l3,0.7c0,0,1.9,0.5,3.7,0.1c0.8-0.1,3,0.4,3,0.4
				l11.5,2.8c0,0,0.6,0.9,2.2,0.6c0.3,0.3,0.9,0.1,0.9,0.1s-0.1,0.7-0.2,1.1c-0.6,0.5-0.8,0-0.8,0s-0.6,0.3-1.8,0
				c-0.3-0.1-0.4-0.1-0.4-0.5c-2.8-0.5-9.4-1.6-9.4-1.6s-2.5-0.7-4.2,0.4c-1.6,1.1-2.9,1.1-3.5,0.9c-0.7-0.2-19.4-4.4-19.4-4.4
				s-3.3-0.5-2.5-3.6c0.2-1.5,1.7-7.4,1.7-7.4S326.5,276.5,328.2,276.4z"/>
		</g>
		<g id="Слой_3_00000008149455967839716310000014776347385933664703_">
			<path class="st12" d="M363.7,293.5l-9.2-1.6c0,0-2.7-0.7-4.2,0.2c-2,1.4-3.5,1-3.5,1l-5.4-1.2c0,0-11.5-2.6-14.4-3.2
				c-2.9-0.7-2.4-3.1-2.4-3.1s1.2-5.5,1.7-7.8s3.3-1.4,3.3-1.4l12.9,2.9l6.6,1.5c0,0,1.9,0.3,2.9,2.1c1,1.8,3.7,2.5,3.7,2.5l9.1,2.8
				"/>
		</g>
		<g id="Слой_4_00000090255946224453888860000011514722499194369978_">
			<path class="st12" d="M365.5,288c0,0-0.3-0.2-0.5,0.2c-0.2,0.3-0.9,1.9-1.3,5.3c0,0.5,0.4,0.5,0.4,0.5s1.3,0.3,1.8,0
				c0.2-2.3,1.2-5.2,1.2-5.2S367,288.3,365.5,288z"/>
		</g>
		<g id="Слой_5_00000059288969527210296950000014444041804273193876_">
			<path class="st13" d="M367,288.6c0,0,0.7-0.2,0.8,0.5c-0.9,3-1.2,4.9-1.2,4.9s-0.5,0.6-0.8,0"/>
		</g>
		<g id="Слой_7" class="st14">
			<line class="st15" x1="341" y1="280.1" x2="331.7" y2="278.1"/>
			<line class="st15" x1="363.3" y1="289.2" x2="353.4" y2="286.3"/>
			<path class="st15" d="M351.6,284.4c0,0-0.9-1.6-3-2"/>
		</g>
	</g>
</g>
<g id="Слой_6_00000096053470818182594460000013354382401842543505_">
	<g>
		<polygon class="st5" points="333.1,296.3 268,296.3 264.8,293.3 264.8,186.6 337.3,186.6 337.3,278.8 		"/>
		<path class="st9" d="M264.8,203.7c12.7,2.1,28.1,7.8,43.3,16.8c11.7,6.9,21.6,14.8,29.3,22.7v35.6l-2,8.4
			c-14.4,0.9-35.4-5.3-56.3-17.6c-5.1-3-9.8-6.2-14.2-9.5L264.8,203.7z"/>
		<polygon class="st16" points="334.4,199.5 264.8,194.7 264.8,186.6 337.3,186.6 		"/>
		<polygon class="st5" points="337.3,186.6 337.3,278.8 333.1,296.3 304.9,296.3 304,295.4 304,186.6 		"/>
		<path class="st9" d="M327.5,208.1c3.3-0.3,6.6,1,9.8,3.5v67.1l-4.2,17.5h-23.3c-1.4-6.4-2.5-13.4-3.1-20.6
			C303.6,239.6,313,209.4,327.5,208.1z"/>
		<polygon class="st7" points="337.3,195.3 264.8,189.9 264.8,184.7 337.3,184.7 		"/>
		<g>
			<path class="st5" d="M332.7,275.4L332.7,275.4c11,0,11,20.9,0,20.9l0,0C321.7,296.3,321.7,275.4,332.7,275.4z"/>
			<path class="st9" d="M334.9,275.7c8.1,2.4,8.1,17.9,0,20.3C326.8,293.6,326.8,278.1,334.9,275.7z"/>
			<path class="st5" d="M334.9,280.7c4.1,1.2,4.1,9.1,0,10.3C330.7,289.8,330.7,281.9,334.9,280.7z"/>
		</g>
		<polygon class="st5" points="264.8,173.4 336.5,173.4 338.3,184.5 263,184.5 		"/>
		<polygon class="st16" points="337.7,180.7 338.3,184.5 263,184.5 263.6,180.7 		"/>
		<polygon class="st5" points="302,173.4 336.5,173.4 338.3,184.5 300.2,184.5 		"/>
		<path class="st9" d="M263.2,182.5h74c0.8,0,1.5,0.7,1.5,1.5v2.4c0,0.8-0.7,1.5-1.5,1.5h-74c-0.8,0-1.5-0.7-1.5-1.5V184
			C261.8,183.2,262.4,182.5,263.2,182.5z"/>
		<path class="st5" d="M305.5,186.3v-2.4c0-0.8-0.7-1.5-1.5-1.5h34.7v5.3H304C304.8,187.8,305.5,187.1,305.5,186.3z"/>
		<ellipse class="st16" cx="337.3" cy="186.3" rx="5.9" ry="7.4"/>
		<path class="st5" d="M334.4,186.3c0-2.5,1.6-4.6,3.6-4.6s3.6,2,3.6,4.6c0,2.5-1.6,4.6-3.6,4.6C336,190.8,334.4,188.8,334.4,186.3z
			"/>
		<g>
			<path class="st17" d="M272,238.3l2.3-5.4l-1.7-1.7l5.6-2.5l0.5,8.7l-1.5-1.5l-2.3,5.3c-0.2,0.5-0.1,0.9,0,1.1
				c0.1,0.2,0.3,0.6,0.7,0.6h6.4l-0.3,5.2h-6.2c-1.6,0-3-1.3-3.8-3.3C271.1,242.8,271.2,240.3,272,238.3z"/>
			<path class="st17" d="M290.9,230.8l-5.6-2.5l1.9-1.9l-2.3-5.3c-0.2-0.4-0.5-0.5-0.6-0.5c-0.2,0-0.4,0.1-0.6,0.5l-3.4,7.9
				l-2.6-3.7l3-7.1c0.8-1.8,2.1-2.9,3.6-2.9s2.8,1.1,3.6,2.9l2.2,5.2l1.4-1.3L290.9,230.8z"/>
			<path class="st17" d="M287.8,240.1v2.8h5c0.4,0,0.6-0.4,0.7-0.6c0.1-0.2,0.2-0.6,0-1.1l-3.1-7.3l2.8-3.4l3.3,7.8
				c0.8,2,0.9,4.4,0.1,6.5c-0.8,2-2.2,3.3-3.8,3.3h-5v3l-2.5-3l0,0l0,0l-2-2.4L287.8,240.1z"/>
		</g>
		<path class="st9" d="M264.8,173.4h34.7c0,0.1,0,0.1,0,0.2c0,2.7-10.6,4.9-23.8,4.9c-4.2,0-8.2-0.2-11.6-0.6L264.8,173.4z"/>
		<path class="st9" d="M335,186.3c0-1.7,1.1-3.1,2.5-3.1s2.5,1.4,2.5,3.1c0,1.7-1.1,3.1-2.5,3.1S335,188,335,186.3z"/>
	</g>
</g>
</svg>
