<?xml version="1.0" encoding="utf-8"?>
<!-- Generator: Adobe Illustrator 27.1.1, SVG Export Plug-In . SVG Version: 6.00 Build 0)  -->
<svg version="1.1" xmlns="http://www.w3.org/2000/svg" xmlns:xlink="http://www.w3.org/1999/xlink" x="0px" y="0px"
	 viewBox="0 0 368.7 286" style="enable-background:new 0 0 368.7 286;" xml:space="preserve">
<style type="text/css">
	.st0{fill:#FFFFFF;stroke:#000000;stroke-width:3.3941;stroke-linecap:round;stroke-linejoin:round;stroke-miterlimit:10;}
</style>
<g id="Слой_7_00000178887134173011433080000011661544593420759977_">
	<g id="Слой_3_00000006695800409905155430000018335396135277535656_">
		<g id="Слой_3_00000115490948249377400760000005136581133489233040_">
			<path class="st0" d="M195.7,89.4c0,0-8.8,54.4,63,56c78.8,1.7,70.9-52.4,70.9-52.4s-0.8-44-69.8-44c-55.4,0.1-60,23.3-60,23.3
				s-20.5,2.3-29.1-11.5C176.7,86.6,195.7,89.4,195.7,89.4z"/>
		</g>
	</g>
</g>
<g id="Слой_8">
	<g>
		<path d="M253.7,81c-1.7,0.6-3.8,0.9-6.3,0.9c-0.4,0-0.8-0.2-1.2-0.5c-0.3-0.4-0.5-0.7-0.5-1.1V68.9c0-0.5,0-1-0.1-1.5
			c0-0.6,0-1,0.1-1.4c0.1-0.7,0.7-1.1,1.9-1.2c0.5-0.2,1.4-0.2,2.7-0.2c1.4,0,2.6,0.4,3.9,1.3c1.5,1,2.2,2.3,2.2,3.8
			c0,0.8-0.2,1.5-0.5,2.1c-0.2,0.5-0.6,0.9-1.2,1.5c0.7,0.3,1.3,0.8,1.8,1.5c0.6,0.8,0.9,1.5,0.9,2.3c0,1-0.5,1.9-1.6,2.7
			C255.2,80.3,254.4,80.7,253.7,81z M250.3,67.5c-0.9,0-1.5,0-1.7,0l0,2.3l0,2.3c0.7,0.1,1.1,0.1,1.5,0.1c2.2-0.2,3.3-1,3.3-2.4
			c0-0.5-0.3-1-1-1.5C251.7,67.7,251,67.5,250.3,67.5z M251.5,75.1c-0.7,0-1.6,0-2.9-0.1v4c1.2-0.1,2.6-0.3,4-0.7
			c1.3-0.4,1.9-0.7,1.9-1.2c0-0.6-0.4-1-1.2-1.5C252.7,75.3,252.1,75.1,251.5,75.1z"/>
		<path d="M268.6,75.2c0,0.5,0,1.2,0,2.2c0,1,0,1.7,0,2.2c0,0.2,0,0.4,0,0.7c0,0.3,0,0.5,0,0.7c0,0.4-0.1,0.7-0.4,1
			c-0.3,0.3-0.6,0.4-1.1,0.4c-0.6,0-1-0.3-1.3-0.8c-0.9,0.3-1.9,0.5-2.8,0.5c-1,0-1.9-0.2-2.6-0.6c-0.8-0.5-1.2-1.2-1.4-2.1
			c-0.3-1.8-0.4-3.4-0.4-4.8c0-0.9,0.1-2,0.3-3.2c0.1-0.8,0.6-1.2,1.5-1.2c0.4,0,0.8,0.1,1.1,0.4c0.3,0.3,0.4,0.6,0.4,1
			c0,0.3-0.1,0.8-0.2,1.5c-0.1,0.7-0.2,1.2-0.2,1.5c0,1,0,1.9,0.1,2.6c0.1,0.8,0.2,1.4,0.3,1.9c0.2,0.1,0.4,0.1,0.5,0.2
			c0.2,0,0.3,0.1,0.5,0.1c0.8,0,1.7-0.1,2.6-0.3c0-0.6,0-1.2,0-1.9c0-0.8,0-1.4,0-1.8c0-1.5,0.1-2.7,0.2-3.8
			c0.1-0.9,0.6-1.3,1.5-1.3c0.4,0,0.8,0.1,1.1,0.4c0.3,0.3,0.4,0.6,0.4,1C268.6,74.2,268.6,75.4,268.6,75.2z"/>
		<path d="M278.2,72.8c-0.2,0-0.3,0-0.5,0s-0.4,0-0.5,0c-0.3,0-0.6,0-1,0.1c0.1,2.9,0.2,4.8,0.2,5.7c0,0.1,0,0.3,0,0.5
			c0,0.3,0,0.5,0,0.6c0,1.6-0.5,2.5-1.6,2.5c-0.4,0-0.7-0.1-1-0.4c-0.3-0.3-0.5-0.6-0.5-1c0-0.3,0-0.6,0-1.2s0-0.9,0-1.2
			c0-0.9-0.1-2.7-0.2-5.6c-0.4,0-1.1-0.1-2-0.2c-0.9-0.1-1.3-0.6-1.3-1.4c0-0.4,0.1-0.7,0.4-1c0.3-0.3,0.6-0.4,1.1-0.4
			c0.3,0,0.9,0,1.8,0.1c0-0.2,0-0.6-0.1-1.1c0-0.5,0-0.8,0-1.1c0-0.4,0.1-0.7,0.4-1c0.3-0.3,0.6-0.4,1.1-0.4c1.1,0,1.6,0.9,1.6,2.7
			l0,0.9c0.4-0.1,0.8-0.1,1.1-0.1c0.8,0,1.4,0.1,1.7,0.2c0.6,0.2,0.9,0.6,0.9,1.3c0,0.4-0.1,0.7-0.4,1
			C279,72.6,278.6,72.8,278.2,72.8z"/>
		<path d="M220.7,90.7c-0.3,0-1.3-0.1-2.8-0.3c-0.1,1.3-0.2,3.1-0.2,5.3l0,4.8c1,0,1.9,0,2.9,0c0.4,0,0.8,0.1,1.1,0.4
			c0.3,0.3,0.4,0.6,0.4,1c0,0.4-0.1,0.7-0.4,1c-0.3,0.3-0.7,0.4-1.1,0.4c-0.4,0-1,0-1.8,0c-0.8,0-1.4,0-1.8,0
			c-0.5,0-1.2,0.1-2.2,0.2c-1,0.1-1.7,0.2-2.2,0.2c-0.4,0-0.8-0.1-1.1-0.4s-0.4-0.6-0.4-1c0-0.4,0.2-0.7,0.5-1
			c0.3-0.3,0.7-0.4,1.1-0.4c0.5,0,1.2-0.1,2.1-0.2c0-0.8,0-2.5,0-4.9c0-1.9,0.1-3.8,0.2-5.6l-2.3,0.1c-0.4,0-0.8-0.1-1.1-0.4
			s-0.4-0.6-0.4-1c0-0.4,0.1-0.8,0.4-1c0.3-0.2,0.6-0.4,0.9-0.4c0.6-0.1,1.7-0.1,3.2-0.1c1.4,0,3.1,0.2,5.3,0.5
			c0.9,0.1,1.3,0.6,1.3,1.5c0,0.5-0.2,0.8-0.5,1.1C221.3,90.6,221,90.7,220.7,90.7z"/>
		<path d="M236.5,93.6c0.5-0.5,1.1-0.9,1.7-1.2c0.6-0.3,1.2-0.4,1.9-0.4c1.2,0,2.1,0.3,2.6,1c0.4,0.5,0.6,1.3,0.7,2.4
			c0,0.9,0.1,1.8,0.1,2.7c0.1,1.2,0.2,1.9,0.2,2.1c0.1,0.8,0.2,1.5,0.4,2.1c0,0.2,0.1,0.3,0.1,0.4c0,0.4-0.2,0.7-0.5,1
			c-0.3,0.3-0.7,0.4-1.1,0.4c-0.7,0-1.2-0.4-1.4-1.1c-0.2-0.6-0.3-1.4-0.5-2.4c-0.1-1-0.2-1.8-0.2-2.5c0-0.2,0-0.4,0-0.8
			c0-0.4,0-0.6,0-0.8c0-0.5,0-0.8,0-0.9c-0.1-0.4-0.3-0.6-0.6-0.6c-0.8,0-1.5,0.4-2.2,1.1c-0.3,0.4-0.8,1.1-1.4,2.1
			c0,2.6-0.1,4.2-0.4,4.7c-0.3,0.6-0.7,0.9-1.3,0.9c-0.4,0-0.8-0.1-1.1-0.4s-0.5-0.6-0.5-1c0-0.1,0-0.3,0.1-0.6
			c0-0.2,0.1-1.1,0.1-2.9c0-1.4,0-3.8,0-7.2l0-0.4c0-0.8,0.1-1.4,0.1-1.7c0-0.2,0-0.5-0.1-1c-0.1-0.4-0.1-0.8-0.1-1
			c0-0.4,0.1-0.7,0.4-1c0.3-0.3,0.6-0.4,1.1-0.4c0.7,0,1.2,0.4,1.4,1.1c0.1,0.4,0.2,1.1,0.2,2c0,0.7,0,1.4-0.1,2.2
			C236.5,92.2,236.5,92.9,236.5,93.6z"/>
		<path d="M255.3,104c-0.3,0-0.9-0.3-1.6-1c-0.7,0.3-1.2,0.6-1.7,0.7c-0.5,0.2-0.9,0.2-1.3,0.2c-1.7,0-3-0.5-3.9-1.4
			c-0.9-0.9-1.3-2.3-1.3-4.1c0-1.7,0.6-3.2,1.9-4.4c1.3-1.2,2.8-1.8,4.6-1.8c0.7,0,1.5,0.2,2.4,0.6c1.1,0.5,1.6,1,1.6,1.6
			c0,0.3-0.1,0.5-0.2,0.7c-0.1,0.3-0.1,0.6-0.2,1.1c0,0.4-0.1,0.9-0.1,1.5c0,1.4,0.1,2.3,0.3,2.9c0,0.1,0.2,0.4,0.5,1.1
			c0.3,0.6,0.4,1,0.4,1c0,0.4-0.1,0.7-0.4,0.9S255.6,104,255.3,104z M252.6,96.8c0-0.2,0-0.5,0-0.8c0-0.3,0.1-0.6,0.1-1
			c-0.1-0.1-0.3-0.1-0.4-0.2c-0.1,0-0.2,0-0.3,0c-1,0-1.8,0.4-2.6,1.1s-1.1,1.6-1.1,2.6c0,1,0.2,1.7,0.5,2.2s0.9,0.7,1.5,0.7
			c0.4,0,0.9-0.1,1.3-0.2c0.4-0.1,0.8-0.4,1.1-0.6C252.7,98.9,252.6,97.6,252.6,96.8z"/>
		<path d="M264,102.6c0,0.4-0.2,0.7-0.4,0.9s-0.6,0.3-1,0.3c-0.7,0-1.2-0.4-1.5-1.1c-0.8-1.9-2-4.8-3.6-8.7
			c-0.1-0.2-0.1-0.4-0.1-0.6c0-0.4,0.2-0.7,0.5-1s0.7-0.4,1.1-0.4c0.6,0,1.1,0.3,1.3,0.8c0.4,0.9,1.2,2.9,2.4,6.1
			c0.4-0.8,0.9-2,1.6-3.7c0.2-0.6,0.5-1.3,0.9-2.3c0.3-0.6,0.7-0.9,1.3-0.9c0.4,0,0.8,0.1,1.1,0.4c0.3,0.3,0.5,0.6,0.5,1
			c0,0.3-0.6,1.7-1.7,4.3C265.3,99.9,264.5,101.5,264,102.6z"/>
		<path d="M274.3,103.9c-1.7,0-3.1-0.4-4.2-1.2c-1.2-0.9-1.8-2.2-1.8-3.8c0-1.8,0.5-3.3,1.4-4.6c1.1-1.4,2.5-2.1,4.3-2.1
			c1.2,0,2.3,0.2,3.1,0.6c1.1,0.5,1.6,1.4,1.6,2.5c0,0.8-0.4,1.5-1.3,2.1c-0.4,0.3-1.2,0.7-2.4,1.2l-3.6,1.6
			c0.3,0.4,0.8,0.7,1.2,0.8c0.5,0.2,1,0.3,1.7,0.3c1,0,1.8-0.2,2.4-0.6c0.6-0.4,1.1-0.5,1.4-0.5c0.7,0,1.1,0.4,1.1,1.1
			c0,0.8-0.6,1.5-1.8,2C276.5,103.7,275.5,103.9,274.3,103.9z M274,94.8c-0.7,0-1.2,0.2-1.7,0.7c-0.5,0.4-0.9,1.1-1.1,2
			c0.8-0.4,1.6-0.7,2.4-1c1-0.4,1.7-0.8,2.3-1.2C275.4,94.9,274.8,94.8,274,94.8z"/>
		<path d="M300,104c-0.3,0-0.9-0.3-1.6-1c-0.7,0.3-1.2,0.6-1.7,0.7c-0.5,0.2-0.9,0.2-1.3,0.2c-1.7,0-3-0.5-3.9-1.4
			c-0.9-0.9-1.3-2.3-1.3-4.1c0-1.7,0.6-3.2,1.9-4.4c1.3-1.2,2.8-1.8,4.6-1.8c0.7,0,1.5,0.2,2.4,0.6c1.1,0.5,1.6,1,1.6,1.6
			c0,0.3-0.1,0.5-0.2,0.7c-0.1,0.3-0.1,0.6-0.2,1.1c0,0.4-0.1,0.9-0.1,1.5c0,1.4,0.1,2.3,0.3,2.9c0,0.1,0.2,0.4,0.5,1.1
			c0.3,0.6,0.4,1,0.4,1c0,0.4-0.1,0.7-0.4,0.9S300.4,104,300,104z M297.4,96.8c0-0.2,0-0.5,0-0.8c0-0.3,0.1-0.6,0.1-1
			c-0.1-0.1-0.3-0.1-0.4-0.2c-0.1,0-0.2,0-0.3,0c-1,0-1.8,0.4-2.6,1.1s-1.1,1.6-1.1,2.6c0,1,0.2,1.7,0.5,2.2s0.9,0.7,1.5,0.7
			c0.4,0,0.9-0.1,1.3-0.2c0.4-0.1,0.8-0.4,1.1-0.6C297.5,98.9,297.4,97.6,297.4,96.8z"/>
		<path d="M311.5,104.2c-0.9,0-1.4-0.4-1.5-1.3c-0.1-0.7-0.2-1.5-0.3-2.2c-0.1-0.8-0.2-1.5-0.2-2.2c0-0.2,0-0.5,0-1c0-0.5,0-0.8,0-1
			c0,0,0-0.2,0-0.4c0-0.2,0-0.4,0-0.5c0-0.6-0.1-0.9-0.4-0.9c-0.6,0-1.2,0.4-1.8,1.2s-1.1,1.8-1.4,3c0,0.2,0,0.6-0.1,1
			c0,0.3-0.1,0.7-0.1,1c0,0.2,0,0.5-0.1,0.9c0,0.4-0.1,0.7-0.1,0.9c0,0.4-0.1,0.8-0.4,1c-0.3,0.3-0.6,0.4-1.1,0.4s-0.8-0.1-1.1-0.4
			s-0.4-0.6-0.4-1c0-0.2,0-0.5-0.1-0.9s-0.1-0.7-0.1-0.9c0-0.7,0-1.7,0.2-2.9c0.1-1.2,0.2-2.2,0.2-2.9c0-0.2,0-0.5,0-1
			c0-0.4,0-0.8,0-1c0-0.4,0.1-0.7,0.4-1s0.6-0.4,1.1-0.4c0.9,0,1.4,0.6,1.5,1.7l0,0.1c1-1.1,2.1-1.6,3.3-1.6c1.4,0,2.3,0.6,2.8,1.7
			c0.3,0.8,0.5,1.9,0.5,3.4v0.8c0,0.3,0,0.6,0,0.7c0,0.6,0.1,1.3,0.2,2.2c0.2,0.9,0.2,1.6,0.2,2.1c0,0.4-0.1,0.7-0.4,1
			C312.2,104.1,311.9,104.2,311.5,104.2z"/>
		<path d="M242.1,120.4c0,0.4,0,1.1,0,2c0,0.9,0,1.6,0,2c0,0.4-0.1,0.8-0.4,1s-0.6,0.4-1.1,0.4s-0.8-0.1-1.1-0.4s-0.4-0.6-0.4-1
			c0-0.4,0-1.1,0-2c0-0.9,0-1.6,0-2c0-0.6,0-1.4,0.1-2.4c0.1-1,0.1-1.8,0.1-2.4c0-0.4,0.1-0.8,0.4-1s0.6-0.4,1.1-0.4
			s0.8,0.1,1.1,0.4s0.4,0.6,0.4,1c0,0.6,0,1.4-0.1,2.4C242.1,118.9,242.1,119.7,242.1,120.4z M241.1,112.5c-0.5,0-0.9-0.2-1.2-0.5
			c-0.3-0.3-0.5-0.7-0.5-1.1c0-0.4,0.2-0.8,0.5-1.1c0.3-0.3,0.7-0.5,1.2-0.5c0.5,0,0.9,0.2,1.2,0.5c0.3,0.3,0.5,0.7,0.5,1.1
			c0,0.4-0.2,0.8-0.5,1.1C242,112.4,241.6,112.5,241.1,112.5z"/>
		<path d="M252.7,114.6c0.1-2.4,0.2-4.1,0.3-5.1c0.1-0.8,0.6-1.3,1.4-1.3c0.4,0,0.8,0.1,1,0.4c0.3,0.3,0.4,0.6,0.4,1
			c0,1-0.1,2.6-0.2,4.7s-0.2,3.6-0.2,4.7c0,2.6,0.1,4.3,0.2,5.1c0,0.1,0,0.2,0,0.3c0,0.4-0.1,0.7-0.4,1c-0.3,0.3-0.6,0.4-1,0.4
			c-0.5,0-0.9-0.2-1.2-0.7c-0.5,0.3-1,0.5-1.5,0.6c-0.5,0.1-1.1,0.1-1.6,0.1c-1.6,0-2.9-0.5-4-1.5c-1.1-1-1.6-2.4-1.6-4
			c0-1.9,0.5-3.5,1.6-4.7c1.1-1.2,2.5-1.8,4.3-1.8c0.5,0,1,0.1,1.4,0.2C252.1,114.2,252.4,114.4,252.7,114.6z M252.5,118
			c-0.2-0.5-0.5-0.8-0.9-1c-0.4-0.2-0.8-0.3-1.4-0.3c-1.1,0-1.9,0.3-2.4,0.9c-0.5,0.6-0.8,1.5-0.8,2.8c0,0.8,0.3,1.4,0.9,2
			c0.6,0.6,1.2,0.8,2,0.8c0.6,0,1-0.1,1.3-0.2c0.2-0.1,0.5-0.3,1-0.7c0.1-0.1,0.2-0.2,0.4-0.3C252.5,121.6,252.5,120.3,252.5,118z"
			/>
		<path d="M263.2,125.9c-1.7,0-3.1-0.4-4.2-1.2c-1.2-0.9-1.8-2.2-1.8-3.8c0-1.8,0.5-3.3,1.4-4.6c1.1-1.4,2.5-2.1,4.3-2.1
			c1.2,0,2.3,0.2,3.1,0.6c1.1,0.5,1.6,1.4,1.6,2.5c0,0.8-0.4,1.5-1.3,2.1c-0.4,0.3-1.2,0.7-2.4,1.2l-3.6,1.6
			c0.3,0.4,0.8,0.7,1.2,0.8c0.5,0.2,1,0.3,1.7,0.3c1,0,1.8-0.2,2.4-0.6c0.6-0.4,1.1-0.5,1.4-0.5c0.7,0,1.1,0.4,1.1,1.1
			c0,0.8-0.6,1.5-1.8,2C265.4,125.7,264.3,125.9,263.2,125.9z M262.9,116.8c-0.7,0-1.2,0.2-1.7,0.7c-0.5,0.4-0.9,1.1-1.1,2
			c0.8-0.4,1.6-0.7,2.4-1c1-0.4,1.7-0.8,2.3-1.2C264.3,116.9,263.7,116.8,262.9,116.8z"/>
		<path d="M279.4,126c-0.3,0-0.9-0.3-1.6-1c-0.7,0.3-1.2,0.6-1.7,0.7c-0.5,0.2-0.9,0.2-1.3,0.2c-1.7,0-3-0.5-3.9-1.4
			c-0.9-0.9-1.3-2.3-1.3-4.1c0-1.7,0.6-3.2,1.9-4.4c1.3-1.2,2.8-1.8,4.6-1.8c0.7,0,1.5,0.2,2.4,0.6c1.1,0.5,1.6,1,1.6,1.6
			c0,0.3-0.1,0.5-0.2,0.7c-0.1,0.3-0.1,0.6-0.2,1.1c0,0.4-0.1,0.9-0.1,1.5c0,1.4,0.1,2.3,0.3,2.9c0,0.1,0.2,0.4,0.5,1.1
			c0.3,0.6,0.4,1,0.4,1c0,0.4-0.1,0.7-0.4,0.9S279.7,126,279.4,126z M276.7,118.8c0-0.2,0-0.5,0-0.8c0-0.3,0.1-0.6,0.1-1
			c-0.1-0.1-0.3-0.1-0.4-0.2c-0.1,0-0.2,0-0.3,0c-1,0-1.8,0.4-2.6,1.1s-1.1,1.6-1.1,2.6c0,1,0.2,1.7,0.5,2.2s0.9,0.7,1.5,0.7
			c0.4,0,0.9-0.1,1.3-0.2c0.4-0.1,0.8-0.4,1.1-0.6C276.8,120.9,276.7,119.6,276.7,118.8z"/>
		<path d="M283.8,126.1c-0.4,0-0.8-0.2-1.2-0.7c-0.3-0.4-0.5-0.8-0.5-1.2c0-0.4,0.1-0.7,0.4-0.9c0.3-0.3,0.6-0.4,1-0.4
			c0.4,0,0.8,0.2,1.2,0.7c0.3,0.4,0.5,0.8,0.5,1.2c0,0.4-0.1,0.7-0.4,0.9S284.2,126.1,283.8,126.1z M283.8,122.2
			c-0.4,0-0.7-0.1-1-0.4c-0.3-0.3-0.4-0.6-0.4-0.9c0-0.3,0-0.7,0-1.3c0-0.6,0-1,0-1.3c0-1,0-2.5,0-4.4c0-2,0-3.5,0-4.4
			c0-0.4,0.1-0.7,0.4-1c0.3-0.3,0.6-0.4,1-0.4c0.4,0,0.7,0.1,1,0.4c0.3,0.3,0.4,0.6,0.4,1v11.4c0,0.4-0.1,0.7-0.4,0.9
			C284.5,122.1,284.2,122.2,283.8,122.2z"/>
	</g>
</g>
</svg>
