<?xml version="1.0" encoding="utf-8"?>
<!-- Generator: Adobe Illustrator 27.1.1, SVG Export Plug-In . SVG Version: 6.00 Build 0)  -->
<svg version="1.1" xmlns="http://www.w3.org/2000/svg" xmlns:xlink="http://www.w3.org/1999/xlink" x="0px" y="0px"
	 viewBox="0 0 688 453" style="enable-background:new 0 0 688 453;" xml:space="preserve">
<style type="text/css">
	.st0{fill:none;stroke:#FFC060;stroke-width:15;stroke-miterlimit:10;}
	.st1{fill:none;stroke:#FFC060;stroke-width:15;stroke-linecap:round;stroke-linejoin:round;stroke-miterlimit:10;}
</style>
<g id="Слой_4_копия_3">
	<g id="Слой_2_копия_3">
		<path class="st0" d="M427.4,9.6H263.1c-9.6,0-17.3,7.8-17.3,17.3v164.3c0,9.6,7.8,17.3,17.3,17.3h164.3c9.6,0,17.3-7.8,17.3-17.3
			V27C444.7,17.4,437,9.6,427.4,9.6z"/>
	</g>
	<g id="Слой_3_копия_3">
		<polyline class="st1" points="301.8,140.4 345.3,77.9 388.7,140.4 		"/>
	</g>
</g>
<g id="Слой_4_копия_2">
	<g id="Слой_2_копия_2">
		<path class="st0" d="M10.7,424.3V260c0-9.6,7.8-17.3,17.3-17.3h164.3c9.6,0,17.3,7.8,17.3,17.3v164.3c0,9.6-7.8,17.3-17.3,17.3
			H28.1C18.5,441.6,10.7,433.9,10.7,424.3z"/>
	</g>
	<g id="Слой_3_копия_2">
		<polyline class="st1" points="141.5,298.6 79,342.1 141.5,385.6 		"/>
	</g>
</g>
<g id="Слой_4">
	<g id="Слой_2">
		<path class="st0" d="M427.4,441.6H263.1c-9.6,0-17.3-7.8-17.3-17.3V260c0-9.6,7.8-17.3,17.3-17.3h164.3c9.6,0,17.3,7.8,17.3,17.3
			v164.3C444.7,433.9,437,441.6,427.4,441.6z"/>
	</g>
	<g id="Слой_3">
		<polyline class="st1" points="301.8,310.9 345.3,373.4 388.7,310.9 		"/>
	</g>
</g>
<g id="Слой_4__x28_копия_x29_">
	<g id="Слой_2__x28_копия_x29_">
		<path class="st0" d="M677.7,260v164.3c0,9.6-7.8,17.3-17.3,17.3H496.1c-9.6,0-17.3-7.8-17.3-17.3V260c0-9.6,7.8-17.3,17.3-17.3
			h164.3C670,242.6,677.7,250.4,677.7,260z"/>
	</g>
	<g id="Слой_3__x28_копия_x29_">
		<polyline class="st1" points="547,385.6 609.5,342.1 547,298.6 		"/>
	</g>
</g>
</svg>
