<?xml version="1.0" encoding="utf-8"?>
<!-- Generator: Adobe Illustrator 27.1.1, SVG Export Plug-In . SVG Version: 6.00 Build 0)  -->
<svg version="1.1" id="Слой_1" xmlns="http://www.w3.org/2000/svg" xmlns:xlink="http://www.w3.org/1999/xlink" x="0px" y="0px"
	 viewBox="0 0 1631.5 1017.5" style="enable-background:new 0 0 1631.5 1017.5;" xml:space="preserve">
<style type="text/css">
	.st0{fill:url(#SVGID_1_);}
	.st1{fill:#0F2935;}
	.st2{fill:#061921;}
	.st3{fill:url(#SVGID_00000083070826744003644380000009751546399968384919_);}
	.st4{fill:url(#SVGID_00000031894573413699797940000000424548296473755531_);}
	.st5{fill:url(#SVGID_00000160898788020987150760000004303943736675238283_);}
	.st6{fill:#040D11;}
	.st7{fill:#2C5114;}
	.st8{fill:#153513;}
	.st9{fill:#2F682C;}
	.st10{fill:none;stroke:#000000;stroke-width:15;stroke-miterlimit:10;}
</style>
<g id="Слой_2_00000035510231339384120600000008246316403800183938_">
	<g>
		
			<radialGradient id="SVGID_1_" cx="805.75" cy="38.4667" r="673.6263" fx="805.8025" fy="64.0002" gradientTransform="matrix(1 0 0 1 0 518)" gradientUnits="userSpaceOnUse">
			<stop  offset="0" style="stop-color:#52889A"/>
			<stop  offset="2.869924e-02" style="stop-color:#4E8293"/>
			<stop  offset="0.2395" style="stop-color:#335B67"/>
			<stop  offset="0.4424" style="stop-color:#1D3B44"/>
			<stop  offset="0.6328" style="stop-color:#0E252A"/>
			<stop  offset="0.8057" style="stop-color:#04181B"/>
			<stop  offset="0.9454" style="stop-color:#011316"/>
		</radialGradient>
		<path class="st0" d="M1529.4,1012.5H106c-53.1,0-96.2-43.1-96.2-96.2v-813C9.8,50.2,52.9,7.1,106,7.1h1423.5
			c53.1,0,96.2,43.1,96.2,96.2v813C1625.6,969.4,1582.5,1012.5,1529.4,1012.5z"/>
	</g>
</g>
<g id="Слой_5">
	<path class="st1" d="M556.5,587.7c-3.9-2.1-11.3-4.2-18.1-2.9s-16,6.3-22.8,5.5s-16.8-8.1-18.7-11.3c-1.8-3.2-8.9-19.9-19.7-20.7
		c-4.4-0.3-7,0.1-9.1,0.6c-3,0.6-4.7,1.2-8.5-0.8c-6.3-3.4-7.6-2.6-13.7-1.1c-3.4,0.9-6.1,1.2-8.9,0.8c-2.1-0.3-4.3-1.1-6.9-2.3
		c-4-2-5.6-3.8-8.7-4.2c-1.4-0.2-3.1-0.1-5.5,0.4c-7.6,1.7-11.3,5.6-20.2,0.9c-2.9-1.6-5.4-3.5-7.7-5.4c5.3-3.9,19.8-14.6,25.6-19.3
		c7.1-5.8,15-5.8,21.8-5.5s21,6,27.8,12.3s9.2,6.3,20.2,7.4c11,1.1,22.6,0,31-3.2c8.4-3.2,10.2-5.8,15.5-4.2s25.2,5.3,29.4,6.8
		c4.2,1.6,6.8,7.1,9.7,13.7s7.4,10.2,14.4,13.9c7,3.6,21,7,21.5,7.1c-0.2,0-1.7-0.5-6.3-3.1c-5-2.9-8.4-3.7-15.8-10.8
		c-7.4-7.1-7.1-15-12.3-18.9c-5.3-3.9-5-5.8-7.6-12.1s-6.3-12.3-14.7-11.8s-25.7,4.5-34.4,8.7s-17.1,6-24.7,6.6
		c-7.6,0.5-16.5-10-21.5-13.7s-6-6.8-6-6.8s1.3-3.4,3.7-5.5c2.4-2.1,4.9-2.1,4.9-2.1s3.5,5.5,6.7,8.1s4.7,3.9,5.5,7.9
		c0.8,3.9,4.7,6.3,9.7,6.6s11-2.4,11-2.4c-2.4,0.5-9.2,0.3-13.1-2.5s-6.3-13.5-6.3-13.5s1.8,1.3,5,5s12.6,7.6,18.4,8.5
		c5.8,0.9,16.8-3.8,23.1-6.1c6.3-2.4,11.3-0.5,11.3-0.5s-3.2-1.8-7.1-2.1c-3.9-0.3-9.5,0-16,2.1c-6.6,2.1-13.9-0.3-21.8-4.5
		s-12.3-7.6-18.1-13.1c-5.8-5.5-12.3-4.5-17.6-0.8c-5.3,3.7-5,13.1-5,13.1s-6.6-3.7-11.3-5.5c-4.7-1.8-13.1,1.3-17.6,5.5
		s-14.2,1.8-14.2,1.8s5.8-2.1,10.8-6.3s3.9-12.3,4.5-18.9c0.5-6.6-1.1-4.5,4.7-9.5c5.8-5,10-9.5,15-10s8.7-1.3,13.7-3.2
		c5-1.8,12.3-2.1,17.3-1.1c5,1.1,9.7-1.1,13.4-2.9c3.7-1.8,6.3-0.5,11.3,2.4s4.2,8.7,2.4,12.3c-1.8,3.7-4.2,7.1-1.1,12.3
		c3.2,5.3,10.2,7.4,14.4,8.7c4.2,1.3,9.2,3.7,15,4.5s12.3,2.1,12.3,2.1s-6.3-4.7-12.1-4.5c-5.8,0.3-7.6-1.8-12.1-4.5
		c-4.5-2.6-12.6-5.3-13.4-9.5s3.2-7.6,3.9-11.3c0.8-3.7-1.6-7.6-1.6-7.6s4.5,2.9,8.9,2.4c4.5-0.5,8.7-0.8,12.6,0.8
		c3.9,1.6,11,3.1,11,3.1s-4.5-3.1-8.7-5.7s-6.8-2.6-13.7-2.1c-6.8,0.5-11.8-6.6-11.8-6.6s3.9,1.6,7.9,1.1c3.9-0.5,4.5-5,7.6-7.1
		c3.2-2.1,6.6,1.6,12.6,1.8c6,0.3,8.7,0.3,13.1,0.3c2.8,0,4.7,1.9,5.8,3.4c-0.6-1-1.4-2.4-2.2-3.9c-1.6-3.2-7.9-3.2-13.4-2.4
		c-5.5,0.8-6.6-0.8-12.3-4.7c-5.8-3.9-8.9-0.3-10,2.9c-1.1,3.2-7.6,4.2-13.1,5s-7.9,1.1-11.8,0.5c-3.9-0.5-17.6-5-23.8-1.6
		c-6.2,3.4-13,6.6-13,6.6s5.5-5,8.4-9.5s6.6-10.8,10.2-13.1c3.7-2.4,7.6-5.5,12.3-7.4c4.7-1.8,10.8-5.3,14.4-7.8
		c3.7-2.6,13.7-5.1,19.4-7.2c5.8-2.1,9.2,0.3,12.9,1.3c3.7,1.1,11,6.3,13.4,8.1c2.4,1.8,15.8,1.8,21.5,1.1c5.8-0.8,6.6-2.4,10.5-1.3
		s7.9,5.3,7.9,5.3s-3.7-7.1-7.6-8.9c-3.9-1.8-7.4,1.8-15.8,1.6c-8.4-0.2-14.7-3.2-20.2-5.8c-5.5-2.6-8.4-6.3-16.5-8.1
		c-8.1-1.8-13.9,2.4-19.2,5.8s-13.1,3.4-17.9,8.2c-4.7,4.8-9.7,5.7-16.3,6.8c-6.6,1.1-8.1,7.9-12.9,13.4c-4.7,5.5-11.8,11.3-15,16
		s-7.6,5.3-12.9,6c-5.3,0.8-10.2,8.4-10.2,8.4s-2.6-6.3-6-8.7c-3.4-2.4-10.2-2.9-15.8-1.6c-5.5,1.3-11.8,3.4-16,4.5s-8.7-4.7-13.2-5
		s-5,1.6-9.7-0.3c-4.7-1.8-3.4-12.9-3.9-16.3s-7.1-4.7-7.1-4.7s3.9,2.6,4.4,6s0.3,8.1,0,11.6s2.9,8.1,7.1,10.6s6.3,0.9,12.9,0.1
		s10,2.4,16,2.6c6,0.3,7.9-0.8,12.6-1.1c4.7-0.3,9.2,2.6,12.1,6.3c2.9,3.7,2.6,12.6,1.3,17.1c-1.3,4.5-5,6.3-11,9.2
		c-6,2.9-8.9-0.8-14.2,3.7c-5.3,4.5-8.1,15.2-8.9,19.4s-11.8,9.5-15.4,10.8l0,0c-7-0.7-10.5-1.2-16.7,1.4l0,0
		c-1.5,0.6-3.2,1.4-5.1,2.5c-10.8,5.8-11,4.2-18.9,7.1c-7.9,2.9-7.9,8.7-15.8,7.4c-0.5-0.1-1-0.2-1.4-0.4
		c-6.6-2.8-8.3-16.1-16.7-18.5c-7.4-2.1-10.7-1.6-14.9-3.6c-0.8-0.3-1.5-0.8-2.4-1.4c-0.6-5.2-1.8-13.7-3.9-21.9
		c-0.2-0.9-0.5-1.8-0.7-2.6c-0.1-0.6-0.3-1.1-0.5-1.7c-3.2-10.5-5.3-21.8-5.8-25.7c-0.1-1,0.4-2.3,1.3-3.9
		c2.1-3.4,6.3-7.9,10.2-12.6l0,0c1.1-1.3,2.1-2.6,3.1-4c3.6-4.9,5.1-7.2,6.5-8.1l0,0c1-0.6,2-0.6,3.6-0.3c4.1,0.8,12,3.4,14.3,10.2
		c2.4,6.8,0.3,17.6,2.4,24.9c2.1,7.4,7.4,9.2,12.9,11.8c5.5,2.6,6.8,2.9,11.8,7.9s5.5,8.9,5.5,8.9s-0.5-11.3-3.2-14.4
		c-2.6-3.2-4.2-3.9-10.8-6c-6.6-2.1-9.5-4.2-9.5-6.6s-0.3-7.9-0.3-7.9s5.2,7.4,14.2,7.4c8.9,0,18.6-4.7,29.4-1.8
		c10.8,2.9,13.4,7.1,18.1,8.9c4.6,1.8,12.1,5,12.6,5.2c-0.5-0.5-10.1-10.8-15.2-14.4c-5.2-3.7-17.1-5.8-21.5-8.9
		c-4.5-3.2-9.5-2.4-15.5,0.3c-6,2.6-11.8,2.1-14.4,0.3c-2.6-1.8-3.4-10-3.4-10s5.8-2.1,8.9-0.8c3.2,1.3,8.9,1.8,12.4,1
		c3.4-0.8,7.1,1.8,10.8-0.5c2.1-1.3,3-1.9,3.4-2.2c-1,0.5-4.3,1.9-8.6,0.3c-5.3-1.8-8.7-3.4-13.9-3.4c-5.2,0-14.4,1.6-14.4,1.6
		s-3.2-8.3-8.7-12s-12.9-10.3-12.9-10.3c0.2-0.2,0.4-0.3,0.6-0.5c1.5-1.3,5.5-4.9,7.6-9.8c1.4-3.4,3.3-6,5.5-8.1
		c0.4-0.4,0.8-0.7,1.2-1.1c1.4-1.2,3.1-2.1,4.8-2.9c5.2-2.4,16-7.6,18.1-14.2c1.7-5.2,4.5-10.1,8.3-15.9c1-1.5,2-3,3-4.6
		c5.2-7.9,10.5-16,13.6-16c3.2,0,3.7,2.4,7.4,0c3.7-2.4,9.7-7.9,12.9-13.7c3.2-5.8,10.8-5.8,16.3,0s12.6,13.4,14.7,20
		s4.2,16.8,11.3,22.6c7.1,5.8,5.2,10.8,11.8,14.2c6.6,3.4,11,1.1,15.5,4.2c4.5,3.2,7.6,3.9,16.8,4.2c9.2,0.3,12.6-2.9,12.6-2.9
		s-8.4,2.4-12.3-0.5s-5.5-3.4-10.8-5c-5.2-1.6-5-2.9-9.7-4.5s-5,2.9-8.7,0.5s-5.8-5.5-7.4-10.5s-2.1-8.1-5.5-12.6
		s-4.7-13.6-4.7-13.6s11.3,6.8,15.5,12.1c4.2,5.3,5.3,13.4,9.7,15c4.5,1.6,6.6-4.2,10.2-0.3c3.7,3.9,5.8,11.8,12.3,12.3
		c6.6,0.5,9.7-2.9,14.4-6.8c4.7-3.9,12.1-8.4,19.2-7.9s10.2,2.1,16.3,0.5c6-1.6,6.3-3.7,12.3-2.4c6.1,1.3,8.7,1.6,12.6,2.1
		c3.9,0.5,7.4,2.1,7.4,2.1s-1.1-2.1-8.4-4.5c-7.4-2.4-13.1-3.2-18.9-4.7c-5.8-1.6-10.5,1.6-17.6,1.6s-12.9,2.1-19.2,5.8
		c-6.3,3.7-12.1,7.1-16,5s-8.1-8.9-8.1-8.9s-7.4-8.9-10.5-10c-3.2-1.1-3.7-2.4-3.7-2.4s1.8-6.3,7.1-5c5.2,1.3,8.7,5.2,15.2,7.4
		c6.6,2.1,11.5,0.3,16.8-2.6s7.9-3.2,15.8-2.4c7.9,0.8,10.5-2.9,16.8-3.9c6.3-1.1,11.3,1.6,11.3,1.6s-2.9-3.4-10-4.5
		c-7.1-1.1-18.4,1.3-18.4,1.3s3.7-8.7,7.3-10.5c3.7-1.8,5.5-2.1,10-1c4.5,1,13.4-1.1,13.4-1.1s-7.1-1.1-12.9-2.4
		c-5.8-1.3-6.8-2.6-11.6,0c-4.7,2.6-14.4,14.7-14.4,14.7s-5,0-10.2,2.9s-8.4,4.5-12.6,1c-4.2-3.4-8.9-7.3-15.5-6.8
		s-13.9,8.7-13.9,8.7s-6.3-6.8-11.5-11.3s-12.3-9.2-17.9-15.1c-5.5-5.9-11.3-12.2-15.8-12.5c-3.1-0.2-6.2-1.4-7.8-2.1
		c2.9-2.7,5.2-5.2,5.4-11.8c0.3-7.9,0.8-13.1,4.7-15.2c3.9-2.1,11.6-1.6,16.8-1.1c5.3,0.5,9.2,0,9.7,1.8s3.9,10.2,10.8,13.9
		c6.8,3.7,14.7,5.8,14.7,5.8s6.3,3.7,6.8,6.8c0.5,3.2,0.8,8.7,1.1,13.4c0.3,4.7,3.7,7.9,5.3,10.8c1.6,2.9,2.6,5.3,2.6,5.3
		s-2.9-11.8-3.2-15c-0.3-3.2,1.8-2.4,2.1-6.6c0.3-4.2-3.2-9.2-3.2-9.2s6,1.3,7.9,5c1.8,3.7,2.1,6.8,5,10c2.8,3.1,7.2,10,7.3,11.2
		c-0.1-0.9-0.2-5.1,0-9.4c0.3-5.3-5.8-11.6-7.6-14.2c-1.8-2.6-4.7-9.5-11.3-11.3c-6.6-1.8-10.8-3.4-16.5-5
		c-5.8-1.6-9.7-11.6-9.7-11.6s9.2,7.4,19.7,7.4s15,3.7,24.4-0.3c9.5-3.9,16-12.6,16-12.6s-8.4,3.2-13.7,6.3
		c-5.3,3.2-10,3.2-14.2,1.3c-4.2-1.8-4.2-1.8-4.2-1.8s2.1-2.1,5.8-8.1c3.7-6,4.7-10.8,8.7-13.9c3.9-3.2,9.5-0.3,13.4-5.8
		s0.5-5.8,3.9-5.5s6.6,1.3,10,5.8s5.3,4.5,11.6,5.5c6.3,1.1,11.6,6.3,11.6,6.3s0.5-4.2-2.9-5.8c-3.4-1.6-11.3-2.6-13.9-6.6
		c-2.6-3.9-4.2-9.7-10.5-10s-8.7,0-8.7,0s3.7-3.9,2.9-7.4c-0.8-3.4-0.8-3.4-0.8-3.4s-0.3,4.5-3.7,7.4c-3.4,2.9-4.5,4.5-6,9.2
		c-1.6,4.7-4.5,4.7-4.5,4.7s1.8-10.8-1.3-16c-3.2-5.3-6.6-3.7-4.2-11.8c2.4-8.1,5.5-13.9,5.5-13.9s-5,7.9-7.6,13.4
		c-2.6,5.5-2.6,11.8,0.8,16s3.4,10.5,0,14.7s-5.5,7.6-7.1,11.3c-1.6,3.7-4.7,3.2-8.1,5s-4.2,6.8-6.8,4.7c-2.6-2.1-10-5.8-15.8-6.3
		s-9.2,0.8-18.9,0.8c-9.7,0-13.9,0-21.3-2.6s-9.2,0.8-10.5,5.5s-1.6,11.6-1.6,18.6c0,4.9-2.5,10.5-4.1,13.6c-1,0-2,0-3,0.1
		c-4.7,0.3-8.7,0.3-8.9,7.9c-0.3,7.6-1.8,13.9-4.7,10.8c-1-1.2-2.2-2.4-3.4-3.4c-2.1-1.7-4.5-2.7-7.4-0.8
		c-4.5,2.9-19.2,23.4-23.1,33.4c-2.8,7.1-7.2,13.4-10.8,17c-1,1.1-2,1.9-2.8,2.4c-0.3,0.2-0.6,0.4-0.9,0.5
		c-3.4,1.6-11.3,1.3-17.6,5.8c-2.5,1.8-6.3,5.2-10,8.7c-5.5,5.2-10.7,10.5-10.7,10.5s7.6-22.1,13.4-28.1c1.1-1.2,2.1-2.4,2.9-3.6
		c3.6-5.1,5.4-10.1,9.2-12.5c4.7-2.9,6.3-3.4,8.7-6.8c2.4-3.4-1.1-4.7-0.3-8.1c0.8-3.4,1.6-26.3-0.5-39.1
		c-1.3-7.7-3.8-13.5-6.1-18.4c-1.6-3.2-3-6.1-3.8-8.7C297.1,296,294,291,294,291s-0.1-0.3-0.2-0.8c6.9-2.3,9.6-8.1,11.5-13.9
		c2.1-6.3,5-17.6,8.4-17.9s6.8,1.8,10.8-1.8c3.9-3.7,7.1-3.4,10.5,0s7.4,7.6,10.8,14.4s4.5,6.8,8.1,9.2c3.7,2.4,12.1,9.5,13.4,15
		s1.6,7.1,4.2,10.5s7.9,9.7,7.9,9.7s-1.1-6-3.9-10.2c-2.9-4.2-4.2-11.8-6-15s-6-5.5-5.3-5.5s2.4,3.7,9.5,4.7
		c7.1,1.1,11-0.3,19.2,0.5c8.1,0.8,11,0,11,0s-5.8-2.6-13.7-4.2c-7.9-1.6-10.8,1.5-13.4-1.1s-6-5.5-11.8-5.5s-10.2-2.1-11.3-6
		c-1.1-3.9-8.4-13.7-8.4-13.7s10.2,0.8,17.6,5s15,8.4,21.8,10.5s13.7,0.5,19.2-3.7s15.5-13.1,15.5-13.1l2.4-1.6
		c0,0-2.6-2.4-10.2,3.2c-7.6,5.5-16.5,9.7-21.3,8.7c-4.7-1.1-8.7-3.4-13.7-6.8s-11.6-5.8-11.6-5.8s0.8-11,4.2-12.1
		c3.4-1.1,8.4,0.3,13.9,3.2s16.8,3.9,21.3-0.3s7.1-9.7,11.8-11c4.7-1.3,11-2.9,15.8,0c4.7,2.9,6.6,5.5,6.6,5.5s-1.1-6-7.1-8.7
		c-6-2.6-5.5-4.5-13.9-1.3s-9.7,1.6-13.4,2.6c-3.7,1.1-5.3,5.3-5.3,5.3s-0.5-6.6,0.8-11.6s3.2-4.7,8.4-9.5
		c5.3-4.7,11.3-20.5,11.3-20.5s-3.7,9.2-8.1,11c-4.5,1.8-6,6-6,6s0.5-10.8-0.8-15s0-7.4,2.1-11.3c2.1-3.9,2.4-6,2.4-6
		s-2.6,2.9-7.6,10.5s-1.1,19.2-1.1,19.2s2.6,7.6-0.5,8.4s-7.4,1.8-7.1,7.1s2.4,12.3,0,13.4c-2.4,1.1-5.5,2.4-10.5,0
		s-11.6-3.7-15.2-2.9s-9.5,12.3-9.5,12.3l-11-1.4c0,0-9.2,1.2-13.4,0c-4.2-1.2-9.5,1.7-11.3,0s-7.4-7.5-8.1-7.5s1.1-7.9,1.6-12.1
		s4.7-4.5,8.1-9.5s5.5-13.4,5.5-13.4s-5.8,6.3-8.4,10s-7.4,6.8-9.7,11c-2.4,4.2,0.5,15-1.6,15.5s-4.7,0.8-5,4.5s-6.6,16-8.9,21.5
		c-1.5,3.6-4.9,8.7-7.1,11.8c-0.3-0.1-0.7-0.2-1-0.3c-5-0.5-2.6-0.5-8.1-4.2s-15-17.1-18.9-22.1s-1.6-10.2,0-13.4s5.5-5.2,6.8-11.8
		s-0.3-12.1-1.6-15.5c-1.3-3.4,0-13.1,2.9-14.7c2.9-1.6,7.9,0.5,13.4-1.8c5.5-2.4,6-6.3,9-11s5.1-10.8,8-12.6s12.1,0,15.8,0
		c3.7,0,2.1,5.2,7.6,4.7s8.9,0,13.4,1.8s8.4,5.5,12.6,5.5s4.2,2.9,9.2,3.4s10.5-1.8,10.5-1.8s-4.2-1.8-9.5-2.1s-5.8-2.1-10.2-3.4
		c-4.5-1.3-10.8-6.1-10.8-6.1l-7.6-2.9c0,0,3.7-1.8,11-2.1c7.4-0.3,11.8-3.9,11.8-3.9s-5,1.3-10.5,1s-8.4-1.3-12.1,0
		s-6.3,1.6-6.3,1.6s-5.5-5.8-10.8-5.5c-5.2,0.3-14.4,5-13.6,4.5s4.2-5.8,7.1-10.5s2.6-7.6,2.6-7.6s-2.1,3.2-5,6.6
		c-2.9,3.4-7.6,8.4-11.3,13.9c-3.7,5.5-7.6,14.7-7.6,14.7l-3.4-8.9c0,0-5.2-5.8-5.5-10s-3.2-10.8-3.2-10.8s-1.1,5,0,10.2
		s4.5,7.9,4.5,11.6c0,3.7,4.2,10.8,4.2,10.8v2.9c0,0-1.3,1.8-4.7,0.5c-3.4-1.3-4.2-1.1-6,1.3c-1.8,2.4-4.7-0.8-7.1,1.3
		s-3.4,4.7-3.4,4.7s-8.1-6.8-11.8-10.5s-8.1-5.8-9.7-11c-1.6-5.2-2.6-10-2.6-10s-1.1,8.4,0,13.4c0.9,4.3,6.2,8.9,7.6,10
		c-1.2-0.9-5.5-3.6-8.9-1.6c-3.9,2.4-4.7,8.4-8.9,7.6c-4.2-0.8-11-6-11-6s-5.3-9.7-10.5-12.9s-5-7.3-5.2-12.9
		c-0.3-5.5-3.9-11-7.9-15c-3.9-3.9-9.2-8.1-9.2-8.1s7.4,8.9,9.2,12.9c1.8,3.9,3.2,8.7,3.2,8.7s-5.5-1.3-10.2-5.8s-7.9-3.7-14.2-6
		c-6.1-2.3-12.7-11-13.1-11.5c0.3,0.6,5.4,10.6,8.9,13.1c3.7,2.6,10.5,5.2,14.2,7.9c3.7,2.6,15,11.3,15,11.3s-0.8,2.4,5,8.4
		s8.1,9.2,8.1,9.2s-2.6-0.5-11-1.1c-8.4-0.5-12.1-3.7-18.1-4.7s-7.1,0.8-11.8-1.3c-4.6-2-9.9-4.8-10.2-5c0.4,0.4,7.2,7.1,10.5,8.1
		c3.4,1.1,6-0.3,9.7,1.1c3.7,1.3,9.2,3.9,9.2,3.9s-7.1,4.2-12.3,4.5c-5.3,0.3-7.6-1.1-12.4-1.8c-4.7-0.8-14.2,1.1-14.2,1.1
		s10-0.3,14.2,2.1c4.2,2.4,7.4,6.3,16,2.9c8.7-3.4,11-5.5,16.8-6.3s21,3.9,21,3.9s10,4.5,15.2,1.6s8.9-5,13.4-2.6
		s11.3,10.2,13.1,16.8c1.8,6.6-1.6,18.1-3.9,22.8c-2.4,4.7-4.7,6.8-4.7,6.8s-1.3-11.3-8.7-14.4c-7.4-3.2-8.4-0.5-15.2-1.3
		s-8.7-2.1-13.4,2.1c-4.7,4.2-8.9,6.3-16.3,8.9c-7.4,2.6-16.8,0.8-20.2-3.2c-3.4-3.9-11.3-17.9-19.7-17.3
		c-8.4,0.5-13.7,4.5-19.7,7.1c-6.1,2.6-8.4,3.7-14.2-1.1c-5.8-4.7-11.6-17.1-14.8-23.6c-3.3-6.6-2.2-9.5-4.1-15.2
		c-1.8-5.8-8.1-16-8.1-16s0.3,6.8,1.6,10.8c1.3,3.9,4.2,6.3,3.9,10.8c-0.3,4.5,0.8,9.5,0.8,9.5s-4.2-1.1-9.2-4.2
		c-5-3.2-8.4-4.5-12.1-3.7s-5.8,5-5.8,5s-6.8-8.1-8.4-12.3s2.9-4.7,1.3-9.7c-1.5-4.8-6.7-9.9-7.1-10.2c0.2,0.3,3.9,5.7,3.4,10.2
		c-0.5,4.7-4.5,7.4-1.6,12.4s3.2,5.8,6.3,8.7c3.2,2.9,6.8,5.8,4.2,6.6c-2.6,0.8-9.5-1.8-13.9-5c-4.5-3.2-6.3-3.2-11.8-6.3
		c-5.5-3.2-3.9-6.8-10.5-4.5C29,189,25.1,196.6,23,199s-1.1,5-6.6,1.8c-2.9-1.6-5.4-3.2-8-4.3c0,1.9,0,3.8,0,5.7
		c0.9,0.8,1.8,1.5,3.3,2c3.7,1.3,7.4-0.3,5.5,0.5c-1.8,0.8,1.6,0.8-6.3,3.9c-0.9,0.3-1.7,0.7-2.6,1c0,1.6,0,3.1-0.1,4.7
		c2.1-0.7,4.8-1.7,7.6-3c6-2.9,8.7-7.9,8.7-7.9s-1.6,5.5-1.6,10.2c0,4.4,1.6,9.1,1.8,9.7c0-0.6-0.4-5.1,1.1-10.4
		c1.6-5.8,2.4-7.4,4.2-10.5c1.8-3.2,5.8-11,7.9-10c2.1,1.1,6.8,5.2,12.3,8.9s7.9,3.9,11,4.2c3.2,0.3,3.7,2.1,3.7,2.1
		s-4.7,3.7-5.8,10.5s1,9.7-0.5,11c-1.6,1.3-7.1,3.4-9.2,9.7c-1.9,5.7-3.6,14.5-3.9,16.2c0.4-1.9,2.9-11.9,6-12.8
		c3.4-1.1,8.1-1.6,10-4.5c1.8-2.9,0.8-6.6,1.3-4.7c0.5,1.8,2.6,2.6,3.4,7.4c0.8,4.7,0.3,7.6,3.4,9.7c2.9,2,4.3,2.8,4.5,2.9
		c-0.3-0.3-3.6-4.6-2.9-7.9c0.8-3.4,2.1-7.4-0.8-11.3c-2.9-3.9-4.5-7.6-5.5-12.1s0.5-10.5,3.9-11.3s5.5,1.8,7.1-2.9s1.6-8.9,5.8-9.5
		c4.2-0.5,8.1,2.6,13.1,6.8s13.9,13.1,20.2,20.5s12.6,10,20.7,8.1c8.1-1.8,9.2-5,15.2-5s10,5.5,13.4,8.4s6.8,6.1,6.8,6.1
		s-7.1,0.5-10.2,4.7c-3.2,4.2-2.1,8.1,0.5,12.6s4.2,11,0.8,11.6c-3.4,0.5-15-0.5-21,1.1s-16.3,7.3-18.4,10.8c0,0,10.8-5.5,15.5-6
		s13.4,0,13.4,0l5.8-0.3c0,0-5.3,9.2-8.9,13.4c-3.7,4.2-3.4,12.6-3.4,12.6L145,311c0.1-1.2,0.8-6.4,4.7-11
		c4.5-5.2,5.8-10.5,9.7-14.7s4.2-6.3,8.4-8.9s6.3-5.8,5.2-8.9c-1.1-3.2-5-5.8-6.6-9.2c-1.6-3.4,2.1-7.6,6.1-7.6
		c3.9,0,4.7-1.8,9.5-1.1c4.7,0.8,11,2.1,17.9-1.6c6.8-3.7,16-11.3,22.8-12.6s13.4-1,18.1,4.5c4.7,5.5,9.5,15.8,11.3,22.8
		c1.8,7.1,9.7,12.3,15.2,18.1c2.2,2.3,3.8,3.8,5.1,5.5c2,2.5,3.4,5.2,5.1,11.1c1.8,6.2,3.2,17,4.9,26.9c1,5.6,2.2,11,3.7,15.1
		c4.2,11.3,3.4,23.9,0.8,32c-1.2,3.8-4,8.2-6.6,11.9c-1.8,2.5-3.6,4.7-4.7,6.1c1.6-9.1-1-19.1-2.1-22.7c-1.3-4.5-6.8-4.7-6.8-6.6
		c0-0.1,0-0.3,0.1-0.5c0.2-0.6,0.6-1.7,1.2-2.9c2-4.3,5.5-11.1,3.4-11.6c-0.3-0.1-0.7-0.1-1.1,0c-0.1,0-0.3,0.1-0.4,0.1
		c-0.3,0.1-0.5,0.1-0.8,0.2c-0.2,0.1-0.4,0.2-0.6,0.2c-0.3,0.1-0.5,0.2-0.8,0.3c-0.4,0.2-0.9,0.3-1.3,0.5c-0.2,0.1-0.4,0.1-0.5,0.2
		c-0.3,0.1-0.7,0.2-1,0.3c-0.2,0.1-0.4,0.1-0.6,0.2c-0.3,0.1-0.7,0.1-1,0.2c-0.2,0-0.4,0-0.6,0.1c-0.3,0-0.7,0-1-0.1
		c-0.2,0-0.4,0-0.5-0.1c-0.4-0.1-0.9-0.3-1.3-0.6c0,0-0.1,0-0.1-0.1c-1.5-1.1-3.4-3-5.3-4.9c-3.1-3.3-6-6.7-6-6.7
		s-2.9-22.3-2.9-24.2c0-1.8,8.1-2.6,7.4-6.6c-0.4-1.9-1.9-4.4-3.7-6.9c-1.3-1.7-2.7-3.3-4-4.7c-0.7-0.7-1.4-1.4-2-2.1
		c-3-3-2.1-5.5-0.9-9.2c0.3-0.8,0.6-1.7,0.9-2.6c1.6-5.3,1.3-12.6,1.3-12.6l0,0l0,0c0,0-6.3,12.9-9.5,17.6c-1.7,2.6-1.4,4.6-0.3,6.2
		c0.9,1.3,2.3,2.3,3.8,3c2.4,1.2,5.4,4.3,6.1,6.9c0.2,0.8,0.2,1.6-0.1,2.3c-0.4,1-1.1,2.3-1.8,3.6c-1.3,2.5-2.7,5-2.7,5
		s-8.1-5.5-13.4-6.6c-4.5-0.9-8,0.7-10.9-0.5c-0.1,0-0.1,0-0.2-0.1c-0.2-0.1-0.3-0.2-0.5-0.3c-0.3-0.1-0.5-0.3-0.8-0.5
		c-0.1-0.1-0.3-0.3-0.4-0.4c-2.3-2-4.9-5.5-6-8.7c-0.4-1.1-0.5-2.2-0.4-3.2c0.2-1.4,0.5-2.8,0.7-4.2c0.1-0.8,0.2-1.7,0.3-2.5
		c0.1-2-0.1-3.9-1-5.8c-2.1-4.2-5.2-7.6-11-9.7c-1.2-0.4-2.2-0.7-3.2-1c-4-1.1-6.5-1.1-6.5-1.1l0,0l0,0c0,0,1.4,1.4,3.6,3.1
		c1.7,1.3,3.8,2.7,6.1,3.8c2.1,0.9,4,2.7,5.6,4.6c2.3,2.9,3.6,6.2,2.9,7.8c-0.5,0.9-0.8,1.5-1.2,2.1c-0.4,0.8-0.7,1.7-0.9,3.3
		c-0.1,0.8-0.2,1.7-0.2,2.9c-0.3,5.8,1.6,9.5,1.6,9.5s-1.5,1.3-4.4,1.9l0,0c-0.1,0-0.1,0-0.2,0c-0.9,0.2-2,0.3-3.3,0.2
		c-1.8-0.1-3.5-0.6-5-1.3c-2.9-1.3-5.4-3.4-7.3-5.5c0,0,0,0-0.1-0.1l0,0l0,0c0,0,1,2.5,3.8,5.4c1,1,2.1,2.2,3.6,3.2
		c2.3,1.7,4.7,3,7.4,4c3.7,1.3,7.8,1.9,12.1,1.8l0,0c7.4-0.3,13.7-0.3,21,6.8c0.9,0.9,1.8,1.9,2.6,3.1l0.1,0.1
		c0.4,0.5,0.7,1.1,1.1,1.6c0.2,0.2,0.3,0.5,0.4,0.8c0.2,0.4,0.4,0.7,0.6,1.1c0.2,0.4,0.4,0.8,0.6,1.1c0.1,0.3,0.3,0.5,0.4,0.8
		c0.2,0.5,0.5,1,0.7,1.5c0.1,0.2,0.2,0.3,0.2,0.5c0.3,0.6,0.5,1.1,0.7,1.7c0,0.1,0.1,0.2,0.1,0.2c2.4,5.8,3.8,11.2,3.9,11.7
		c-0.1-0.1-0.3-0.3-0.7-0.7c-0.1-0.1-0.1-0.1-0.2-0.2c-0.1-0.1-0.1-0.1-0.2-0.2c-0.1-0.2-0.3-0.3-0.5-0.5l0,0
		c-1.1-1.1-2.6-2.6-4.3-3.9l0,0c-0.3-0.2-0.6-0.5-1-0.7l-0.1-0.1c-0.3-0.2-0.6-0.4-0.9-0.6c-0.1,0-0.2-0.1-0.2-0.1
		c-0.3-0.2-0.5-0.3-0.8-0.4c-0.1-0.1-0.3-0.1-0.4-0.2c-0.2-0.1-0.5-0.2-0.7-0.3c-0.2-0.1-0.4-0.1-0.6-0.2c-0.2,0-0.3-0.1-0.5-0.1
		c-0.7-0.2-1.4-0.2-2-0.1c-4.5,0.9-6.3,8.7-8.8,12.1c-0.1,0.1-0.1,0.2-0.2,0.2c-0.4,0.5-0.8,0.8-1.2,1.1c-3.4,1.8-4.2-4.2-10.2-5.5
		c-3-0.7-4.4,0-5.8,1.2c-1,0.9-2.1,2-3.9,3.2c-0.6,0.4-1.3,0.8-2.1,1.2c-0.8,0.4-1.6,0.7-2.4,0.9c0,0,0,0-0.1,0s-0.3,0.1-0.4,0.1
		c-5.5,1.8-11.1,1.8-11.1,1.8l0,0l0,0c0,0,2.7,0.8,5.8,1.2c2.4,0.3,5,0.3,6.8-0.6c0.6-0.3,1.1-0.6,1.6-0.9c3.3-1.8,5.6-3.4,9.6-2
		c3.4,1.1,5.8,2.8,6.9,3.6c0.1,0,0.1,0.1,0.2,0.1l0,0c0.3,0.3,0.5,0.4,0.5,0.4s-2.9-0.5-4.8,2.9c-0.3,0.6-0.7,1.3-0.9,2.1
		c-1.8,5.8-4.2,9.2-7.1,11.3l0,0l0,0c0,0,3.6-1,6.9-3.7l0,0c0.5-0.4,1-0.8,1.4-1.3c2.5-2.5,4.3-3.1,6.6-4.2c1.1-0.6,2.3-1.2,3.7-2.3
		c3-2.3,4.7-8.6,7.1-12.1c1.2-1.7,2.5-2.7,4.2-2.4c0.7,0.1,1.3,0.3,1.9,0.6c3.8,1.6,5.2,5.2,8.9,8.4c4.2,3.7,7.4,6.3,9.5,5.8
		c1.3-0.3,1.9,0.6,2.2,2.1c0.2,0.8,0.3,1.9,0.4,2.9c0,0.4,0.1,0.7,0.3,1c1.1,2.4,4.5,4.5,3.1,12.1c-0.1,0.5-0.2,1.2-0.3,1.9
		c0,0.1,0,0.1,0,0.2c0,0.3-0.1,0.6-0.1,1c0,0.2,0,0.3-0.1,0.5c0,0.3-0.1,0.6-0.1,1c0,0.2,0,0.4-0.1,0.7c0,0.3-0.1,0.7-0.1,1
		c0,0.2,0,0.4-0.1,0.6c-0.1,1.4-0.3,3-0.4,4.6c0,0.1,0,0.3,0,0.4c0,0.5-0.1,1-0.1,1.5c0,0.3,0,0.5-0.1,0.8c0,0.2,0,0.4,0,0.6
		s0,0.4,0,0.6c0,0.6-0.1,1.2-0.1,1.8c0,0.3,0,0.6-0.1,0.9c-0.1,0.8-0.1,1.6-0.2,2.5c0,0.5-0.1,0.9-0.1,1.4c0,0.4-0.1,0.9-0.1,1.3
		c0,0.5-0.1,1-0.1,1.5c0,0.2,0,0.5,0,0.7c-0.5,7.7-1,15.4-1.3,20.6c-1.8,3.2-3.2,6.1-4,8.1c-3.9,10-6.3,20.2-6.8,29.2
		c-0.2,2.5-0.9,4.9-1.8,7.3c-0.4,1.1-0.9,2.1-1.4,3.2l0,0c-2.3,5.2-5.2,10.9-6,18.9c-1.3,13.4-4.2,26-2.1,33.6
		c0.7,2.4,1.3,4.3,1.9,5.8c-1.1,0.9-2.1,2-3.1,3.3c-6.7,2.7-10.8,1.8-22.4,2.7c-13.4,1.1-21-2.4-24.9-6.3
		c-3.9-3.9-15.5-13.9-17.1-17.3c-1.6-3.4-7.1-12.9-10.2-19.2c-3.2-6.3-5.3-9.2-8.9-11.3c-3.7-2.1-7.4-8.9-4.5-15
		c2.9-6,7.4-13.7,9.2-22.2s0.5-13.1-2.1-20.3c-2.6-7.2-6-9.5-9.2-13.2s-6-8.4-2.1-14.2c3.9-5.8,5-6.3,12.6-9.7
		c7.6-3.4,8.4-2.9,13.1-7.4c4.7-4.5,7.1-12.1,7.4-19.2c0.3-7.1-2.4-15.2-2.4-15.2s2.1,15.2-0.8,22.1c-2.9,6.8-5,9.2-9.7,10.5
		s-6.3,3.7-6.3,3.7s2.6-5.5-3.4-6.3s-10.6-1.3-12.4-8.1c-1.8-6.8-0.3-21.5,0-27.6c0.3-6-1.2-8.7-6.8-13.9
		c-5.5-5.3-12.3-9.5-12.3-9.5s15,12.3,16,17.6c1.1,5.3-0.3,6.8-0.8,11s-0.5,4.2-0.5,4.2s0-6.6-7.9-13.1c-7.9-6.6-7.1-9.5-17.3-10.8
		C98,323,92.5,318,90.6,309.6c-1.8-8.4,0.5-10.2-2.1-17.6c-1.6-4.5-5-9.3-7.3-12.3c2.1,3.7,4.9,9.6,4.9,13.1
		c0,5.3-1.1,10.2,1.8,18.6s5.8,12.6,10.2,14.7c4.5,2.1,8.1,2.6,8.1,2.6s0,3.9-10.2,2.6s-13.9-6-18.9-10.2s-9.2-7.9-10.2-10.8
		c-1.1-2.9-8.4-6-8.4-6s7.6,8.9,12.6,16s15,16.5,22.3,17.1c7.4,0.5,18.9-4.2,18.9-4.2s10.2,2.6,15,10.8c4.7,8.1,2.9,19.2,6.3,27.6
		s14.4,5,13.3,8.9c-1.2,3.9-1.2,7.1-6.2,9.2s-11.8,8.9-10,14.2c1.8,5.3,7.4,8.4,11.3,13.9c3.9,5.5,2.9,10,2.9,10s-3.4-8.4-12.3-10
		s-11.6,0-16.8-6.3c-5.3-6.3-10-11.8-13.7-15.8c-3.7-3.9-5.8-6.6-5.8-6.6s4.5,10.5,10.2,17.9c5.8,7.4,9.2,8.7,13.4,13.4
		c4.2,4.7,13.1,0.5,18.1,4.2s8.4,8.4,8.8,15c0.4,6.6-2.2,10.8-5.9,17.3c-3.7,6.6-3.4,11.3-3.4,11.3s0.3,0.5-5.5,2.6
		s-5.3,2.9-8.7-0.8c-3.4-3.7,0.3-7.9,3.4-12.6c3.2-4.7,3.9-11.8-2.1-15s-9.2-6-11.3-10.8c-2.1-4.7-1.1-11-1.1-11s-3.4,10.5-1.6,15.2
		s6.3,6.6,8.7,8.1c1.3,0.9,1.9,1.7,2.3,2.3c-0.6-0.6-2.2-0.9-6.5,1.4c-7.1,3.7-12.6,2.1-15.2-2.1s-5.3-8.7-5.3-13.7
		s0.8-9.5-3.7-11.6s-8.7-4.5-8.7-8.9c0,0-1.1,8.9,1.3,10.5s7.9,4.2,7.6,8.7s1.3,16.3,7.1,20.7c5.8,4.5,13.9,3.7,17.3,1.3
		c3.4-2.4,6.6-2.6,6.3,0.5c-0.3,3.2-1.6,3.4-4.2,8.1s-1.8,10.2,0.3,11.3c2.1,1.1,2.1,1.1,2.1,1.1s-6.6,0.8-12.1-2.6
		s-3.2-8.4-13.1-15.2c-3.4-2.3-6.2-3.3-8.6-3.5c-0.2-1.9-0.4-3.9-0.6-5.9c-0.5-7.6-1.3-15.4-3.7-23c-2.4-7.7-2.1-19-10.2-27.4
		s-13.1-10-15.8-15.5c-2-4.2-5.1-9.7-6-14.9c0.2,2.9,0.5,7,1.5,11.5c1.8,8.7,2.1,11.6,9.2,16.8c7.1,5.3,9.7,6.6,12.6,13.4
		s2.9,10.8,2.9,10.8s-6.3-10-13.1-11c-6.8-1.1-13.9-2.9-20.5-6.8S30.7,391,32,385.5s1.3-20.2-2.6-28.4c-3.9-8.1-7.6-15-6.6-19.7
		c1.1-4.7,6-6,10.2-6.3s10-2.4,6.6-6.8c-3.4-4.5-3.7-13.1-9.5-15.2s-8.7-8.1-9.7-17.6c0,0,0,12.3,3.9,17.9c3.9,5.5,7.1,6,8.7,9.5
		c1.6,3.4,3.9,8.7,0.3,7.9c-3.7-0.8-9.2-1.8-10,0.8c-0.8,2.6-3.2-0.8-10-2.4c-3.1-0.7-5.3-0.8-7.4-0.7c0.1,1.6,0.3,3.2,0.4,4.8
		c3.3-0.3,6.4-0.3,7.3,1.2c1.8,2.9,2.6,4.5,3.4,10.8c0.8,6.3,4.5,9.5,7.1,15.8s1.6,13.1,1.6,19.7s2.1,14.4,2.1,14.4
		s-8.5-2.6-14.1-7.1c0.1,3.2,0,6.4-0.1,9.6c2.1,2,4.3,3.7,6.5,5.2c6.6,4.2,15.2,7.3,17.9,7.2c2.6-0.1,15,7.5,21.5,8.6
		c6.6,1.1,16,6.6,16.5,12.3c0.5,5.8-0.7,13.7-0.3,21.5c0.1,2.1,0.5,4.6,1.1,7.3c-0.6,0.4-1.3,0.9-1.9,1.3c-5,3.4-6.8,5.3-12.3,3.9
		c-5.5-1.3-12.6-10.2-17.9-13.1s-8.4-1.6-13.7,3.9s-5.5,7.6-13.1,6.8c-4.6-0.5-7.1,0.9-9.7,2.3c-0.1,2.5-0.2,5.1-0.3,7.6
		c5.7-1.9,5.1-5.5,11.6-5.7c6.8-0.3,12.1-6,16-8.7c3.9-2.6,8.7,0.3,11.3,3.7s8.9,8.1,11.3,8.1c2.4,0,2.4,0,2.4,0s1.1,5-7.1,6
		c-8.1,1.1-11.3-1.8-18.4,1.6s-11.8,8.1-11.8,8.1s7.9-5,15.2-5.5s10.2,1.6,16,1.1s6.3-3.4,13.4-8.9c3.7-2.9,6.8-5.8,10.3-7.7
		c1.9,6.2,4.7,13.1,8.6,19.7c6.8,11.6,11.8,12.3,15,16.8s3.2,4.5,3.2,4.5s-7.6-3.9-12.1-1.6c-4.5,2.4-7.9,7.6-14.2,7.9
		c-6.3,0.3-7.6-1.6-14.7-2.6c-7.1-1.1-5.8-3.9-11-3.9s-8.9,6-10.5,10c-1.6,3.9-9.5,8.4-15.2,7.6c0,0,6.8,4.2,11.6,2.1
		c4.7-2.1,8.1-10.8,12.1-11.3c3.9-0.5,3.9,4.5,10.2,5s7.1-2.9,15.8-2.9s11-2.6,17.1-3.7c6-1.1,13.9,0.5,15.8,2.4
		c1.8,1.8,4.2,8.9,12.9,13.7c8.7,4.9,22.1-0.4,29.2,0s12.6,2,16.5,3.8s7.6,7,7.6,7s-11.3-1.6-19.2,0s-15.8,7.2-17.6,11.9
		s0,6,3.4,7.9s6.3,2.1,5.5,7.1s-3.4,9.7-8.7,8.4s-14.7-2.1-18.1,1.6c-3.4,3.7-1.6,13.1-7.1,13.7c-5.5,0.5-12.3-3.9-16.8,0
		s-5,6.3-5,6.3s7.9-5.5,10.8-4.2s9.7,5,13.4,1.1c3.7-3.9,3.4-10.2,9.5-11.8c6-1.6,9.2-1.1,12.6-1.8c3.4-0.8,5-1.8,5-1.8
		s-4.2,5.3-2.6,11.6c1.6,6.3,3.2,13.4,3.2,13.4s0.3-10.5,1.8-16.5c1.6-6,1.6-10.8,5.3-15.8s3.7-9.5-0.3-11c-3.9-1.6-3.9-6,2.6-9.2
		c6.6-3.2,12.9-2.1,18.9-1.8s11-0.8,12.1,0s9.5,7.9,15.5,11c4.9,2.6,11.6,2.7,16.4,1.8c-11.4,17-12.8,32.1-16.7,47.1
		c-2.7,10.4-5.4,30.3-7.7,45.9c-0.2,1.3-0.4,2.6-0.6,3.9c-0.8,5.6-1.6,10.4-2.3,13.7c-2.6,12.9-2.9,19.7-6,27.8s-4.5,8.4-1.1,9.2
		s5.9-1.8,16.5,0c6.6,1.1,12.2,2.1,16.9,2.4c0.3,0,0.5,0,0.8,0c2.6,0.1,5,0.1,7.1-0.3c6-1.1,6.8-1.5,14.2,0.4c3.9,1,7.1,0.2,9.9-0.7
		c0.3-0.1,0.6-0.2,0.9-0.3c2.1-0.7,4.1-1.4,6.3-1.4c2.6,0,5.6,0.7,8.3,1.3c0.1,0,0.2,0,0.3,0.1c2.6,0.5,4.8,0.9,6.1,0.2
		c2.6-1.3-3.4-2.9-2.9-8.9c0.5-6.1-2.9-16.5-5-25c-2.1-8.4,0.5-28.6-1.3-40.5c-1.8-12-7.1-23.8-8.9-35.1
		c-1.8-11.3-3.9-26.8-1.6-34.9c1.2-4.2,3-7.1,5.4-8.6c1.3-0.8,2.7-1.2,4.3-1.2l0,0c0.6,0,1.2,0.1,1.8,0.2c0.7,0.1,1.4,0.3,2.1,0.6
		c5.8,2.2,10,8,12.9,13.3c0.6,1,1.1,2,1.5,2.9c2.9,6.1,5.2,13.4,8.1,15.5s0,13.1,0,13.1s2.6,6-0.5,11.5c-3.2,5.5-5.8,10.5-7.6,17.9
		c-1.8,7.2-2.1,14.7-4.1,20.5c0,0.1,0,0.2-0.1,0.3c-2.1,5.8-3.7,4.5-6,10.2c-2.4,5.8-3.2,7.6-1.3,13.7c0.3,1.1,0.6,2.2,0.9,3.2
		c-0.1-2.3,0.1-4.6,1-6.1c1.7-2.9,4.3-4.8,6.7-7.2c0.9-0.9,1.7-1.9,2.5-3c2.9-4.2,1-10.8,1.8-10.2c0.8,0.5,6.1,3.2,9.7,7.9
		c3.7,4.7,6.6,13.1,3.4,17.1c-3.2,3.9-6.6,3.2-7.4,7.9s-1.1,7.9-1.1,7.9s2.9-7.1,6.9-9.7c4.1-2.6,7.2-6.8,5.7-11.8
		c-1.6-5-5.5-12.9-7.3-17.1c-1.8-4.2-4.7-11.8-3.4-20.8c1.3-8.9,8.4-17,8.4-17s-1,5,1.6,11s8.9,6.6,11.3,13.1
		c2.4,6.6,4.5,14.4,5.2,20.8c0.8,6.1-1.2,13.3-1.3,13.9c0.4-0.7,7.6-12.7,6.3-24.4c-1.3-12.1-4.2-21.5-7.1-26s-6.6-8.4-6-15.2
		c0.5-6.8,1.6-16.8-1.6-20.5c0,0,11.6,1.3,22.8-4.2c11.3-5.5,20.2-11.5,26.3-14.7c0.1,0,0.1-0.1,0.2-0.1c1.7-0.8,3.4-1.4,5.2-1.9
		c4.7-1.1,9.6-1,14.1-0.4c6.3,0.8,3.9,0,13.6-1.3s12.9,4.7,20,7.4c0.2,0.1,0.4,0.2,0.7,0.3c0.6,0.2,1.2,0.4,1.8,0.6
		c0.4,0.2,0.9,0.3,1.2,0.5c4.1,1.5,5.8,2.3,11.3,6c6.8,4.7,11,3.9,16.5,6s7.6,7.4,12.1,9.7c4.5,2.4,5.5,1,8.1,6.6
		c2.6,5.5,3.9,7.1,10,11.8c6,4.7,8.7,9.5,7.6,13.7s-5,9.7-3.4,19.4s6.1,11.8,11.6,13.4c5.5,1.6,9.7,2.9,15,6.1c5.2,3.2,11,1,11,1
		s-7.9-1.6-12.4-4.2c-4.5-2.6-10.8-2.6-14.2-5.8c-3.4-3.2-5.5-8.7-5.2-12.6c0,0,4.5,8.9,12.9,10.2s17.3-2.4,22.8,0.5s6,2.4,10.2,6.8
		c4.2,4.5,10,6,10,6s-5.5-9.2-11.5-12.9c-6.1-3.7-11.8-8.1-14.4-6.8c0,0,9.5-7.1,16-4.5c6.6,2.6,10.5,6.3,16,6s10-4.2,10-4.2
		s-9.2,3.4-12.9,1.1c-3.7-2.4-11-8.4-18.1-7.9c-7.1,0.5-10.8,2.9-15,6.8c-4.2,3.9-13.4,5.8-18.4,0.8s-8.4-11.1-6-15
		s3.4-9.7,1.6-13.6c-1.8-3.9-7.4-7.4-7.4-7.4s8.7-6.3,15.5-3.4c6.8,2.9,5.8,8.9,10.5,13.7c4.7,4.7,11.3,7.1,15.8,7.1
		c4.5,0,5.8-0.3,5.8-0.3s-10.5-2.4-15-6.8c0,0,1.6-1.3,13.4-0.3c9.6,0.9,13,2.6,13.9,3.2c-1.7-1.3-10.1-7.5-15.7-7.9
		c-6.3-0.5-13.9,1.1-17.6-1.6c-3.7-2.6-0.3-8.4-7.4-10.8c-7.1-2.4-11-3.4-16.5,0.3s-8.4,4.2-11,0s-5.5-9.5-5.5-9.5s8.4,0.3,14.4-0.8
		s10,1.8,11,3.7c0,0,0.5-5.8-6.3-6.8c-6.8-1.1-16.8,2.6-21.8,0.3c-5-2.4-7.9-9.2-13.6-10.8c-4.7-1.3-7.5-2.7-8.4-3.2
		c-0.2-0.1-0.3-0.2-0.3-0.2s0.6,0.1,1.6,0.2c1.3,0.1,3.4,0.2,5.7,0.1c2.7-0.1,5.8-0.5,8.3-1.6c4.8-2.1,9.3-1.5,15,1.1
		c1.4,0.6,2.9,1.4,4.5,2.3c2.6,1.4,5.5,3.2,8.4,5.2c0.3,0.2,0.6,0.4,0.8,0.6c0,0,0.1,0,0.1,0.1c0.1,0.1,0.3,0.2,0.4,0.3
		c5.6,3.7,10.9,7.7,13.1,9.9c3.4,3.7,12.9,10.8,20.2,11.6c1.5,0.2,2.9,0.5,4.3,0.9c5.3,1.6,9.8,4.7,13.5,8.1
		c4.7,4.2,5.8,7.9,12.3,9.7c6.1,1.7,10.6-0.4,11.2-0.8c-0.8,0.2-7.6,2-11.7-2.4c-4.5-4.7-7.1-10-12.1-12.9s-13.4-5.2-17.6-7.6
		c-4-2.3-7.5-6.7-7.9-7.1c0.5,0.1,9.2,2.9,18.6,2.1c9.7-0.8,17.6-6.3,24.7-4.7c7.1,1.6,5.8,6.6,8.4,10.8c2.6,4.2,6.3,6.6,8.7,7.1
		c0,0-5.8-3.4-6.6-7.4c-0.8-3.9-1.3-7.6-1.3-7.6s3.2,3.9,10.2,8.9c7.1,5,23.1,6.8,25.2,6.3c0,0-15.8-2.4-20-5.5
		C567.6,598.7,560.5,589.8,556.5,587.7z M156,508.9c-1.3,0-8.9-1.1-14.7,1.6c-5.8,2.6-10.5,4.2-12.1,1.3c-1.6-2.9-5.3-7.4-12.1-10.5
		c-6.8-3.2-12.1-12.3-15.5-17.3s-10.2-10.8-12.1-16.8c-0.8-2.6-1.5-5.5-2.1-8.4c0.9,0.1,1.8,0.1,2.8,0.3c10.5,2,6,10,10,14.7
		c3.9,4.7,1.8,7.9,19.7,6c17.9-1.8,19.4-0.3,24.4,5s5.5,3.7,8.4,11.6C155.8,504.2,157.4,508.9,156,508.9z"/>
</g>
<g>
	<g>
		<path class="st1" d="M738.3,739.5l11.2-52.4c0,0,18.8-8,32,6.9l-11.2,52.4L738.3,739.5z"/>
	</g>
	<g>
		<g>
			<g>
				<path class="st1" d="M1349.1,733.9c-57,25.8-157.4,40.8-258.4,20.2C989.8,733.4,915.9,722,851.9,730c-64.1,8.1-57.3,20.1-139-8
					c-81.9-28-161.6-7-248.5,6.3s-181.9-52.4-272.2-39.8C51.8,708.1,9.8,729,9.8,729v221.6c7.4,6.1,13.7,12.5,20,20.3
					c5,6.2,9.9,12.3,15.8,17.6c3.7,2.8,6.9,5.9,9.6,9.3h1536.2c2.3-6.3,5.9-12.2,10.2-16.5c4-4,8.9-7.2,14.3-9.3V742.6
					C1615.9,742.6,1406.1,708.1,1349.1,733.9z"/>
			</g>
		</g>
	</g>
	<g>
		<path class="st1" d="M626.2,684.5c-4,2.2-10.1,7.7-11.6,12.6c-1.5,5-1.3,25.1-1.3,25.1H660c0,0-2.7-23.8-7.6-29.4
			c-5-5.6-14.8-8.3-14.8-8.3L626.2,684.5L626.2,684.5z"/>
	</g>
	<g>
		<path class="st1" d="M1018.8,715.9c3.6,2,8.8,5,12.1,11.5c2.1,4.1,4.7,21.9,4.7,21.9h-46.7c0,0,2.4-21,6.8-26
			c4.4-5,13.1-7.4,13.1-7.4H1018.8z"/>
	</g>
	<g>
		<polygon class="st1" points="1176.3,753.8 1207.5,753.8 1207.5,769.6 1175.1,769.6 		"/>
	</g>
</g>
<g>
	<g>
		<path class="st2" d="M1303.9,583.2c-0.1,0.3-0.1,0.7-0.2,1C1303.7,584.2,1303.9,583.8,1303.9,583.2z"/>
		<path class="st2" d="M1517.4,584.2c1.4-3.4,4-9.7,6.4-15.3c0.2-0.4,0.3-0.8,0.5-1.1c1.4-3.4,2.8-6.4,3.8-8.5
			c3.5-7.2,8.3-15.5,11.8-27s3.5-10.7,5.9-18.7c0.3-1,0.7-2.2,1.1-3.3l0,0c2.7-7.9,7.3-18.3,11.2-23.5c4.5-6,12-12.2,19.5-14.8
			c7.5-2.7,8.6,2.7,16.6,4.3c7.6,1.5,19.7,5.7,27.1,8.6c-0.1-2.4-0.1-4.9,0.1-7.3c-6.6-3.1-12.8-4.3-12.8-4.3s0.8-2.1,4.8-10.2
			c3.9-7.9,6.3-13.2,9.5-21.8c-0.1-0.6-0.1-1.1-0.2-1.7c-0.5-3.6-1.1-7.2-1.7-10.7c-2.4,4.6-4.2,9.2-4.2,12.8
			c0,6.9-8.8,24.9-11.2,28.3c-2.4,3.5-11.2-0.3-19-0.3c-7.7,0-16.6-4.8-22.2-5.4c-5.6-0.5-10.7,4.6-10.7,4.6s-0.5-9.1-2.1-18.2
			s0.5-24.3-0.5-38.8c-1.1-14.4,9.4-35.6,12-42c2.7-6.4,32.1-6.1,32.1-6.1s11.3-5.8,17.7-12.4c-0.4-6.3-0.7-12.6-1-19
			c-0.7-16.4-0.7-32.9,0.3-49.3c-5.1,11.1-7.6,25.1-4.4,30.6c3.7,6.4,3.2,19.8,3.7,24.9s-7.5,14.2-16.8,17.9
			c-9.4,3.7-19.3-1.3-19.3-1.3s4.3-3.5,6.4-7.7c2.2-4.3-2.7-15.5-10.4-14.2c-7.7,1.3-9.4,1.6-10.7-3c-1.3-4.5,2.9-8.8,8.3-11
			c5.4-2.1,7.2-1.6,13.1-6.4s-2.4-9.1-5.6-11.5s-0.3-5.1,1.9-9.1c2.1-3.9-5.5-10.6-5.9-11c2.9,3.8,2.1,10.7-0.8,13.1s0,8,4,11.2
			s-0.8,9.1-9.4,8.8c-7.3-0.2-8.8,3.2-9,4.3c0.2-1.2,0.8-5.7,0.8-9.9c0-4.8-2.9-11.2-7.5-16c-4.5-4.8-8.3-10.4-15.8-15.8
			s-17.1-2.7-17.1-2.7s1.6,0.5,6.2,1.3c4.5,0.8,6.1,4.6,10.7,8.6s10.2,9.9,12,16.3c1.9,6.4,2.7,18.5,3.2,24.9s-0.3,13.9,1.9,17.4
			c2.1,3.5,6.4,0.5,12.3,0.8s2.9,8,1.6,9.6s-7.8,10.4-13.4,19.3c-5.6,8.8-10.7,26.2-13.9,49.7c-0.8,5.5-1.3,11.6-1.6,17.9
			c-1.3,20.4-1,42-2.6,47.9c-1.6,5.7-3,8.7-6.2,12.1c-0.3,0.3-0.6,0.6-0.9,1c-0.9,0.9-1.9,1.9-3,2.9c-4.7,4.3-15.8,24.1-20.8,33.3
			c-1.2,2.2-2.1,3.8-2.4,4.4c-0.1,0.2-0.1,0.2-0.1,0.2s-0.2-0.7-0.4-2c0-0.1,0-0.2-0.1-0.3c-1.5-6.6-5.8-25.7-8.9-31.6
			c-3.7-7.2-9.9-16.8-17.9-26.2c-0.7-0.9-1.4-1.7-1.9-2.5c-5.6-8.3-3.2-15.8-1-19.9c2.4-4.5,16.6-2.9,16.6-2.9s15.8-5.9,20.1-12
			c4.3-6.1-1.3-5.6-2.7-9.9c-1.3-4.3,0.5-7.2,2.9-12.6c2.4-5.3-0.5-12.3-4.5-19.5c-1.1-2-1.8-4.2-2.3-6.3c8.4-1.1,24.8,4.2,24.8,4.2
			s10.2-1.1,16-7.7c5.9-6.7,6.9-18.5,4.3-25.9c-1.2-3.3-3.5-6.8-6.6-9.9c0.9-2.6,1.4-4.8,1.5-6.1c0.3-4.3-5.1-17.9-5.1-17.9
			s0.8,7.5-0.3,15.2c-0.2,1.5-0.6,3-1.2,4.5c-2.8-1.9-5.8-3.4-9-4.3c-9.4-2.4-14.2-5.6-17.6-8.8c-3.5-3.2-1.3-8,0.3-11.5
			c1.6-3.5,5.6-3.7,10.4-2.7c4.8,1.1,7.2-6.4,8.3-12c1-5.5-4.7-21.8-5.1-22.7c0.1,1.1,2.6,19.3,0,23.7c-2.7,4.6-8.3,4.6-12,5.1
			s-6.9,11-6.9,11s-1.3-18.7-1.6-25.7c-0.3-6.7,4.7-18,5.1-18.7c-0.3,0.4-4.1,5.7-6.1,9c-2.1,3.5-2.9,11.8-2.9,18.7
			c0,6.9-0.3,13.1-0.3,13.1s-4-2.1-11.2-3.8c-7.2-1.6-9.9-1.6-13.1-5.3s-8.8-6.7-11.2-10.4c-2.4-3.7-12-14.2-12-14.2
			s6.2,14.7,7,18.7s4,2.4,7.2,2.4s5.3,9.4,5.3,9.4s3.7,6.4,11,5.1c7.2-1.3,11-0.8,13.4,1.6s2.7,6.2,5.9,12.3
			c3.2,6.1,12.3,12.6,18.7,14.7c3.8,1.3,6.7,4,9.1,6.9c-1.9,1.9-3.9,3.4-5.9,4.3c-6.9,3.1-7.7,2.9-12.8,3.5
			c-5.1,0.5-11,5.4-13.6,13.1c-0.5,1.4-0.7,2.8-0.7,4.3c-4.7,1.6-8.2,4.2-9.9,5.6c-0.8,0.6-1.2,1.1-1.2,1.1s2.1-17.6-0.5-31.5
			c-2.7-13.9-21.7-32.4-27.3-36.9c-3.8-3.1-9.6-7.1-15-11.5l0,0l0,0c-2.5-2.1-4.9-4.2-6.9-6.4c-6.4-6.9-10.2-16-19.5-27
			c-9.4-11-8-17.4-6.4-21.7c1.6-4.3,8.3-6.4,13.9-5.6s7.5,9.4,12.6,10.2c5.1,0.8,15.2,6.4,22.7,4.8s20.6-7.2,23.3-11.8
			c2.7-4.6,9.1-10.7,12.6-14.2s13.4-4.5,20.3-6.4s13.1-5.9,18.2-12.3c5.1-6.4,5.3-20.6,5.3-21.7c0-1.1-1.6,5.6-3.2,10.7
			c-1.6,5.1-9.6,13.6-13.9,15.8c-4.3,2.1-11,3.7-18.2,2.7c-7.2-1.1-12.8,1.6-12.8,1.6s2.7-8,0-15.2s-9.6-4.8-13.6-3.2
			s-8.6,4-14.2,3.2s-11.2-8.8-11.8-13.1c-0.5-4.3,8.3-9.4,8.8-12.6c0.5-3.2-8.8-9.9-13.4-11.8c-4.5-1.9-1.3-8.3-3.4-14.4
			c-2.1-6.1-14.5-9.4-15.3-9.4s5.9,6.4,7.7,11.8c1.9,5.3,1.3,6.9,5.3,11.2s7.5,5.6,10.4,8.8c3,3.2,0,8.6-3.5,11.8s-5.4,8.3-4.7,13.4
			c0.6,5.1,11.7,11.5,19.4,12.8c7.8,1.3,12,0.8,14.2,2.4c2.1,1.6,4.3,8.8,0,17.4s-4.8,8-14.2,8.3c-9.4,0.3-11.8,2.1-16.8,0.5
			c-5.1-1.6-12.3-8.3-17.6-10.7c-5.2-2.3-16,3.2-16.6,3.5c0.3-0.3,4.6-4.5,6.7-9.1c2.1-4.8-2.4-9.9-6.4-13.6
			c-4-3.7-12.6-1.1-12.6-1.1s-2.4-3-6.1-8.3s-13.1-14.2-13.1-14.2s-4.3-3.2-7.5-5.6c-3.2-2.4-11.5-6.2-13.6-8.6
			c-2.2-2.4,2.7-7.5,7.2-8.3s6.7-3.2,10.2-8.8s-2.7-15.2-8.6-19.8c-5.9-4.5-17.6-8.8-18.5-8.6c-0.8,0.3,12,7.7,17.9,12.6
			c5.9,4.8,4,12.8-1.1,19.5s-12.3,4.3-15.5,7.2s-2.9,9.6,3.2,10.4c6.1,0.8,13.6,6.9,13.6,6.9s-7.7,3.8-13.6,4.8
			c-5.9,1.1-8.6,4.6-12.8,7.5c-4.3,2.9-11.5,0.5-14.7-3.5s-7.2-14.4-12.3-21.1c-5-6.5-14.7-12-15.2-12.3c0.4,0.4,6.2,6.2,9.1,9.9
			c3,3.7,7.5,14.4,10.9,21.7c3.5,7.2,9.9,14.2,16.6,14.2s14.4-7.2,21.4-10.4s17.9,0.5,21.9,4s8,12.6,8,12.6s-3.7,1.9-8.3,3
			c-4.5,1.1-10.4,5.3-16,8.6c-5.6,3.2-13.9,1.9-20.1,0.8c-6.1-1.1-17.1,0-24.9-1.1s-17.9-1.3-20.9-3.5c-2.9-2.2-3.7-9.6-7.2-12
			s-15.5-1.9-15.5-1.9s7.2,0.8,12,3.5s5.1,9.6,7.5,13.1s12.6,4.6,21.7,5.1s18.5,0.5,18.5,0.5s-5.3,2.7-11.8,9.6
			c-6.4,7-12.3,8.3-16.6,7c-4.3-1.3-11-4-15.2-6.4c-4.3-2.4-4-5.9-5.4-9.6c-1.3-3.8-3.7-9.1-7.2-10.2c-3.5-1.1-10.7,3.5-15.2,6.2
			s-9.9,0.5-12.6,1.9c-2.7,1.3-6.1,3.8-6.1,3.8s7.7-3,13.9-1.9c6.2,1.1,8.3-2.7,11-4.8s6.4-1.1,9.9,1.1c3.5,2.1,3.8,10.4,3.8,10.4
			s-3.8-1.1-7-2.4c-3.2-1.3-11.8-0.3-16.3,2.1c-4.6,2.4-7.8,4.3-7.8,4.3s4.8-0.3,9.4-2.2c4.5-1.9,5.1-2.1,10.2-1.9
			c5.1,0.3,10.7,3.7,10.7,3.7s-2.7,2.7-3.2,5.9s-3,5.9-8,6.7c-5.1,0.8-7.8-3.7-12.3-4.8c-4.5-1.1-9.4,1.1-9.4,1.1s6.7,0.3,10.7,2.1
			c4,1.9,5.6,5.1,12.8,4.8c7.2-0.3,8.6-10.4,10.7-12.8s2.9,0.8,9.1,3.8c6.1,2.9,8.3,4,16.3,5.1c8.1,1.1,15.2-5.3,20.3-10.4
			c5.1-5.1,6.9-5.9,11.8-7.2c4.8-1.3,4.8,1.6,12.3-0.5s19.8-6.4,30.8-9.1c11-2.7,12.6-0.3,15.8,3.2c3.2,3.5-0.8,9.1-5.3,15.2
			c-4.6,6.2-5.9,9.4-5.1,17.1s10.8,18.1,10.8,18.1s-20.3-6.9-27.7-7.6c-10.8-1-12.4,2.6-23.2,7.1c-1.4-2.8-3.7-6.6-6-8.7
			c-4-3.6-16.8-2.8-21.5-4c-4.6-1.2-18.3-2.8-18.3-2.8s11.2,4.4,15.2,5.6s16.4,4.8,17.6,5.6c0.8,0.5,2,3.5,2.8,7.3
			c-5.8,0.7-15.4,0.9-23.6-1.3c-10.7-2.9-18.9-10.1-24.1-11.5c-10.4-2.9-30.5-10.7-30.5-10.7s7.2,4.3,13.1,6.9
			c5.9,2.7,8.6,5.3,16.3,9.6c7.8,4.3,8,7.2,13.1,11s12.8,4.3,18.7,7.2c5.9,3,16.6,4.8,23,2.2c6.4-2.7,17.1-8.3,17.1-8.3
			s25.4,2.7,33.1,5.6c7.8,2.9,18.5,15.2,18.5,15.2s10.7,16.8,13.4,19.5c2.7,2.7,14.7,12.6,21.1,17.9c6.4,5.4,5.9,20.3,5.9,20.3
			s-0.8-3.2-4.1-7.7c-3.3-4.6-6.9-12.6-17-20.6c-10.2-8-11.8-7.5-19-8.6s-8-2.1-12.8-6.9s-10.4-8-16-12.3s-9.4-12.8-9.4-12.8
			s0,2.7,1.1,8.3c1.1,5.6,10.4,11,14.2,14.4c3.7,3.5,5.6,11.2,12.3,12.8c6.7,1.6,10.4-1.3,15.5-0.5s5.1,5.4,7.7,9.6
			c2.7,4.3,6.4,10.4,11.2,17.4c4.8,6.9,8.6,12.6,11.4,17.9c2.8,5.4-2,15.8-5.5,19.5s-9.6,11.2-12.3,16.8c-2.7,5.6-1.3,17.1-1.3,17.1
			c-2.4-3.2-12.8-9.1-12.8-9.1s1.3-9.1,2.4-13.9s2.9-4.3,6.9-6.9s5.6-8,3.2-13.9s-7.7-6.7-11-9.6c-3.2-2.9,2.1-4.3,5.6-7.7
			c3.5-3.5,0.3-10.4-0.3-13.6c-0.5-2.9,0.6-6.4,0.8-7.1c-0.4,0.8-3.2,5.8-3.7,9.2c-0.5,3.8,2.4,7.2,0,9.9c-2.4,2.7-7.2,4-7.7,3.2
			s-2.7-6.1-4-11.2s1.3-17.4,1.3-17.4s-1.3,2.7-2.4,7.2s-2.4,9.9-1.3,14.4s0.8,5.9,4.3,9.6s6.2,8.3,10.2,11.5s2.4,8.3,1.6,12.6
			c-0.8,4.3-6.4,5.6-12.3,8.6c-5.9,2.9-4.3,12.6-4.3,12.6s-4.8-0.5-9.1-4.3c-4.3-3.8-9.6-15.5-9.4-23.3c0.3-7.8,1.3-22.2,0.8-29.4
			c-0.5-7.2-16.3-34.2-20.1-38c-3.7-3.8-9.9-1.9-17.1-1.9s-13.6,5.9-13.6,5.9s-3.8,0.3-9.9-3c-6.1-3.2-5.1-5.1-11.2-10.2
			s-5.1-14.2-13.6-16.8c-8.6-2.7-13.9-4.8-21.9-7.5s-16.6-7.7-16.6-7.7s4,3.7,5.9,4.5s6.7,5.9,12.8,7.5c6.1,1.6,15.8,8.6,15.8,8.6
			s-9.4-2.7-14.4-1.9c-5.1,0.8-9.6,1.3-15-0.5c-5.4-1.9-14.2-8.3-14.2-8.3s1.9,3.5,5.4,6.1c3.5,2.7,10.4,5.9,13.1,9
			s8.8,5.5,16.6,1.7c7.7-3.8,8.8-0.3,9.6,0c0.8,0.3,2.9,2.7,4.3,5.3c1.3,2.7,3.2,15,5.4,18.7c2.1,3.7,7.5,8.3,7.5,8.3
			s-3.5,2.7-6.7,4.6s-9.9,2.9-16.3,0.8s-11.5-7.5-17.1-8.6s-10.4-1.1-14.7-2.9c-4.2-1.8-17.3-7.1-18.2-7.5c0.6,0.4,8.4,6,12.3,8.3
			c4,2.4,9.1,6.4,13.4,7.7c4.3,1.3,19.8,8.6,20.9,9.1s-2.1,2.9-5.6,4s-8.6,4.3-10.4,5.6c-1.9,1.3-8.6,8-14.4,9.4
			c-5.9,1.3-11.2,5.9-11.2,5.9s1.3,0.8,6.4-1.3c5.1-2.2,19.5-3.5,19.5-3.5s7.7-7.5,10.2-10.2c2.4-2.7,12.8-4,12.8-4s5.1-1.3,9.1,0.3
			c4,1.6,9.6,1.3,14.2-1.6s16.3-14.2,20.9-18.5s7.5-6.9,12.8-5.3c5.4,1.6,9.1,4.3,12,9.6c3,5.3,7.8,13.9,9.9,19s0.3,13.1-1.9,18.7
			c-2.1,5.6-3.5,17.9-3.7,26.2c-0.3,8.3,5.9,20.6,16.6,24.1c10.2,3.3,18.6,11.2,19.5,12c-0.7-0.4-6.7-3.5-15.7-5
			c-9.6-1.6-16.6,0.3-20.3,0.3c-3.7,0-10.7-4.5-12.8-9.4c-2.1-4.8-6.9-23.8-6.9-23.8s0.8,9.9,1.9,14.4s1.6,14.4,4.6,19.8
			c2.9,5.3,6.7,13.6,14.7,12.8c8-0.8,9.9-7.7,16.8-8.6c7-0.8,19.8,8.6,24.1,13.4c4.3,4.8,7,9.6,8.6,20.3c1.6,10.7,8.8,35.8,8.8,35.8
			s-17.6-1.1-24.9-2.1c-7.2-1.1-8.8,0.3-13.6,1.1c-4.8,0.8-5.1-5.1-11-10.4c-5.9-5.3-12.6-7.5-16.8-10.2c-4.3-2.7-6.1-8.8-9.6-15.5
			s-8-9.4-8-9.4c3.5,5.1,8.3,19.3,8.3,19.3s-4.3-4.8-11-11.2c-6.7-6.4-17.9-14.4-17.9-15.8c0-1.3,8.6-4.6,14.4-9.4
			c5.9-4.8,3.2-13.4,2.7-18.2c-0.5-4.8,2.9-15.2-0.3-21.1c-3.2-5.9-9.4-12-8.3-16.3s16.3-3.2,22.7-5.1c6.4-1.9,8.8-12.8,6.4-16.8
			s-2.1-10.4-2.1-10.4c-3.2,3.2-1.3,6.4,0,10.7c1.3,4.3-4,8.8-9.6,12.3s-11.8,1.6-19.3,3.5c-7.3,1.8-3.4,11-3.2,11.5
			c-0.4-0.3-7.9-5.6-12.3-5.3c-4.5,0.3-8.6,0.5-16-1.6c-7.3-2.1-16.5-6.1-17.1-6.4c3.7,3,8.8,5.5,14.8,8c1.4,0.6,2.9,1.3,4.5,1.9
			c7.8,3.2,12,4.8,22.2,6.4s11.5,13.4,12,20.1s-2.2,15.5-6.2,20.3c-3.4,4.1-11.8,6.1-14.1,6.5c-0.4,0.1-0.6,0.1-0.6,0.1
			s-0.9-1.9-2.7-4.9c-0.4-0.7-0.9-1.4-1.4-2.2c-3-4.5-7.5-10.3-13.5-15.1c-6-4.7-13.3-9.8-20.4-14.1l0,0c-6.6-4-13-7.2-17.8-8.6
			c-9.9-2.9-17.1-6.1-19.5-9.4c-2.4-3.2-1.9-12-1.3-17.4c0.5-5.4-1.3-12.3-10.7-12c-9.4,0.3-13.1,9.6-13.1,9.6s-6.4,2.1-10.2-1.1
			c-3.8-3.2-3.2-11-5.4-15c-2.1-4-10.7-3.8-10.7-3.8s6.4,3,7.7,6.7c1.3,3.7,0.8,7.7,2.7,12.8c1.9,5.1,10.7,5.6,10.7,5.6
			s-5.1,6.7-11,4.8c-5.7-1.8-12.4-5.6-12.8-5.9c0.3,0.4,5.2,7.3,10.7,8.8c5.6,1.6,18.2-5.9,18.2-5.9s6.1-10.2,11.2-11.5
			s9.1,5.6,6.4,13.6s2.7,12.3,0.8,12.6c-1.9,0.3-9.1,5.1-16.8,8.3c-7.8,3.2-13.4,3.5-20.1,10.7s-9.9,12.6-16.6,18.5
			s-9.1,4.3-13.4,9.1c-4.3,4.8-3.7,19.8-1.1,25.1c2.7,5.3,2.9,11.8,2.4,18.7c-0.5,6.9-6.4,9.1-6.4,9.1s2.9,0.5,5.8-2.7
			c3-3.2,4.3-11.8,4.6-23c0.3-11.2-4-16.6-1.6-23s13.9-11.5,13.9-11.5s-3.7,14.7,0.5,21.7c4.3,7,5.9,13.1,8,18.5s0.5,13.9-3.2,19.3
			c-3.6,5.2-6.5,11.1-6.7,11.5c0.4-0.4,7.4-6.7,13.1-14.4c5.9-8,0.8-11.8,0-19.7c-0.8-7.9-8.6-13-8.3-21.8
			c0.3-8.8,5.1-21.9,5.1-21.9s1.6,3.5,4.8,5.9c3.2,2.4,8.6-1.9,15-3.5s10.4,0.3,15.5,5.3c3,3,3.3,6.9,3,9.6c0.6-3.2,1.3-8.1,1-10.4
			c-0.5-3.7-4.8-7.2-14.4-8.8c-9.6-1.6-14.7,4.3-19.3,2.1c-4.6-2.1-3.2-7.8,4.5-13.1c7.7-5.3,11.5-4.8,24.1-5.9s16,1.1,24.6,5.1
			s23,12,29.4,19.5s8.3,14.7,12,18.7s3.2,4.3,2.9,8.6c-0.3,4.3-3.5,10.4-8.6,12s-11.8-4.8-20.6-8.3c-8.8-3.5-15,0.3-21.7,2.9
			c-6.7,2.7-8.3,9.4-11.5,16s-14.4,15.2-14.7,15.5c0.4-0.1,7.1-2.3,12.8-9.1c5.9-6.9,10.7-15.2,10.7-15.2s-4.6,17.6-8,26.7
			c-1.3,3.3-3.4,5.5-5.8,7.1c3-1.7,6.2-4,8.4-7.3c5.6-8.3,6.7-21.7,11-27.5c4.3-5.9,9.4-4.8,18.5-3.8c9.1,1.1,10.4,11.2,15.8,15.2
			c5.3,4,9.6,5.9,8.8,6.2c-0.8,0.3-0.8,5.3-1.6,11.2c-0.8,5.9,4,11,10.7,12c6.7,1.1,9.1,3.5,12.3,8c3.2,4.5,0.5,19-4.3,24.3
			c-4.8,5.4-11.8,5.4-18.7,8.8c-6.9,3.5-3.5,9.9-5.3,16.6c-1.9,6.7-1.9,12.6-1.9,12.6c0.5-3.7,5.6-9.6,6.1-18.5
			c0.5-8.8,6.7-7.7,6.7-7.7c-1,2.1,4,5.1,8.3,6.4c2.5,0.8,3.1,1.9,3.1,2.7c0.6-3.4,0.4-4.3-5-6.5c-5.9-2.4-3.7-2.4-2.7-4.3
			c1.1-1.9,10.7-0.5,14.4-4.8c3.8-4.3,6.2-24.9,3.5-36.1c-2.7-11.2-13.9-8.8-19-10.2c-5.1-1.3-2.1-8.6,2.7-18.7
			c4.8-10.2,3.5-22.7,3.5-22.7s2.4,2.1,5.9,6.8c3.5,4.7,13.6,20.5,21.7,24.5c4.8,2.4,6.7,4.2,8.6,6.8c0.1,0.1,0.2,0.2,0.2,0.3
			c0.3,0.4,0.6,0.9,0.9,1.3c1,1.4,2.1,3,3.6,5c1.9,2.5,4.5,5.3,7.8,8.1c0.1,0.1,0.3,0.3,0.4,0.4c1.3,1.1,2.8,2.2,4.4,3.3l0.1,0.1
			c3.8,2.6,8.3,5,13.4,6.8h0.1c1.8,0.6,3.7,1.2,5.6,1.7c15.8,4,24.9,4.3,28.9,6.7s-4.8,0.5-8.6,3.7c-3.7,3.2,1.9,9.7,1.9,9.7
			s-5.9-1.6-12-4c-6.2-2.4-13.9-4-22.7-1.3c-8.3,2.5-7.4,10.7-7.2,11.6c0-0.4,0.4-2.1,5.4-7.1c5.9-5.9,8.6-2.9,19.3-0.8
			c10.7,2.1,14.4,5.9,20.1,6.7c5.6,0.8,6.7,3.7,9.4,7.2c2.7,3.5,1.9,8.3-6.7,9.4c-8.6,1.1-17.1,4.5-24.6,11.2s-3.5,17.6-3.5,17.6
			c0-5.9,0-9.6,7.7-15.2c7.8-5.6,19-5.9,29.4-10.4s8.8-9.1,5.3-13.6s-14.7-6.7-14.7-11.8s1.9-5.9,7.5-8.3c5.6-2.4,3.7,1.1,9.9,2.4
			c6.1,1.3,6.9-0.3,9.6,1.6c2.7,1.9-1.9,13.6-3.5,27.3c-1.6,13.6,3.5,20.3,8.3,33.7s11,31.3,11.5,38s-0.3,14.7-7.2,28.1
			c-4.8,9.2-7.9,20.5-12.4,32.8c-1.7,4.6-3.5,9.4-5.7,14.3c-0.4,1-0.9,2-1.4,3c-8.8,18.3-3.6,32.9-5.6,40.9
			c-0.1,0.3-0.2,0.6-0.3,0.9c-2.7,7.8-14.4,8.6-25.4,12.3s-15.8,8.6-18.2,17.4c0,0,7.5-4.8,11-7.7s10.4-3.5,17.9-2.7
			c1.6,0.2,3.4,0.4,5.3,0.6c0.1,0,0.1,0,0.2,0c0.3,0,0.7,0.1,1,0.1c3.7,0.4,7.5,0.8,10.1,1.2c0,0,0,0,0.1,0c1.6,0.2,2.8,0.4,3.1,0.6
			c0.1,0.1,0.2,0.1,0.1,0.2c-0.8,0.5-8,6.4-13.9,10.4s-11.5,8.6-15.2,12.6c-3.6,3.8-11.7,7.2-12.5,7.5c0.6-0.1,5.6-1.2,11.2-2.9
			c5.9-1.9,15.2-3,23.8-6.2c8.6-3.2,10.2-6.9,13.9-9.1c1.2-0.7,2.6-1.1,4.2-1.5l0,0c0.2,0,0.4-0.1,0.7-0.2c3.6-0.8,8.3-1.3,14.6-2.9
			c9.9-2.4,18.5-1.9,27.3-3.2s16-9.1,20.3-9.6c0.4,0,0.9-0.1,1.4-0.2c5.3-0.7,17.3-2.6,24.8-3.5c4.7-0.6,14.5,0.5,24,1.8
			c0.6,0.1,1.3,0.2,1.9,0.3c2.1,0.3,4.3,0.6,6.3,0.9c4.1,0.6,7.8,1.2,10.6,1.5c10.7,1.3,25.4,3.5,25.4,3.5s-1.9-1.3-6.4-3.5
			c-4.5-2.1-4.5-5.1-8.8-10.7c-4.3-5.6-8.3-6.7-12.3-11.8s-0.5-12.8-3-19.5c-2.4-6.7-8-15.8-13.1-21.9c-5.1-6.1-1.3-15.8-1.9-21.9
			c-0.4-5.3-0.7-11.5,0.2-21.6c0.2-1.7,0.4-3.4,0.6-5.4c1.6-13.4-3.5-35.6-7.7-46.5c-2.3-5.8-6.9-19.5-10.8-31.1
			c-3.5-10.4-6.3-19.2-6.3-19.2S1516.7,585.9,1517.4,584.2L1517.4,584.2z M1499.7,385c0-1.6,2.7-5.9,8.6-8s15.2-2.4,20.9-4.8
			c0.7-0.3,1.3-0.7,2-1.3c3.1,4.8,2.4,14.6-3,17.4c-5.6,3-13.1,0.8-25.1,0c-1.2-0.1-2.3,0-3.3,0
			C1499.6,386.6,1499.7,385.5,1499.7,385z M1462.8,449.4c0,0-0.2-0.4-0.4-1.3c-0.3-1.9-0.1-6.1,4.1-13.2c4.6-7.6,8.7-15.1,12.4-21.4
			c1.3-2.1,2.5-4.1,3.7-5.9c3.7-5.7,6.9-7.8,12.1-9.7c1.4,4.1,3.3,7.7,4.5,10c2.4,4.5,5.1,13.9,2.4,18.2c-2.7,4.3-1.1,11.8-3.2,15.8
			s-6.4,6.2-16.6,7C1471.6,449.7,1462.8,449.4,1462.8,449.4z"/>
		<path class="st2" d="M1228.4,460.4c-0.3,1.9-0.6,3.2-0.6,3.2S1228.2,462.3,1228.4,460.4z"/>
		<path class="st2" d="M1226,523.9c-4.5,2.5-8.7,3.4-8.7,3.4S1221.8,526.7,1226,523.9z"/>
	</g>
</g>
<g>
	
		<linearGradient id="SVGID_00000159468991346967082350000000561870597060804024_" gradientUnits="userSpaceOnUse" x1="566.2079" y1="105.3366" x2="861.1931" y2="105.3366" gradientTransform="matrix(1 0 0 1 527.0982 518)">
		<stop  offset="0" style="stop-color:#1B3940"/>
		<stop  offset="1" style="stop-color:#0F2935"/>
	</linearGradient>
	<path style="fill:url(#SVGID_00000159468991346967082350000000561870597060804024_);" d="M1386.7,507.6c-2.7-2.2-7.3-0.8-11.6-3.7
		c-4.3-2.9-6.7-4.7-6.7-4.7c3.3,0.4,5.9-1.2,9-4.3c3.1-3.1,2.2-6.7,3.5-10.8c1.3-4,6.3-6.9,6.6-7c-0.3,0.1-5.4,2.3-9,6.1
		c-3.7,3.9-2.5,5.3-6.5,10.6c-3.9,5.3-7.1,1.4-11.8,1.8c-3.4,0.3-4.2,2.7-4.3,3.9c0-1.7-0.1-6.1-1.9-8.8c-2.2-3.5-0.5-8.2-0.5-8.2
		s0,0-0.8,0.6s-2.5,7.8-0.4,13.3c2.2,5.5,2.4,11.4,0,16.1s-6.7,8.8-6.7,8.8s1.8-5.3,0-9.4s-8.4-5.3-12.5-5.9s-6.1-4.9-9.6-8.4
		s-7.9-6.1-5.1-9.4s3.9-1.6,6.7,0c2.7,1.6,0.8,4.3,0.8,4.3c2.7,0.2,2.7-3.9-0.6-6.7c-3.3-2.7-6.7-2.4-9.2,2
		c-2.5,4.3,2.5,7.4,5.9,12.5c3.3,5.1,7.4,6.5,13.1,7.8c5.7,1.4,4.7,3.7,6.5,7.8s-1,7.4-5.9,8s-10.8-3.1-16.1-1.2
		c-5.1,1.9-8.2,8.2-8.4,8.6c0.1-0.2,0.4-1.7,0-7.2c-0.4-6.1-4.5-8.6-8.2-13.7c-3.7-5.1-7.3-5.3-11.4-9s-7.6-7.1-8.2-7.8
		s-0.6-2.2-2-6.1s-7.1-7.4-11.2-6.9c-4.1,0.6-9.2,0.2-12-0.4c-2.7-0.6-3.1-5.7-8.6-5.7c-5.3,0-7.1,3.7-7.2,3.9
		c0.2-0.1,1.9-1.8,5.5-2.5c3.7-0.8,6.5,5.3,6.5,5.3s-5.9,1.6-11.2,1.2c-5.3-0.4-14.7-6.5-14.7-6.5s1.8,2,6.5,4.9s7.6,3.9,16.9,4.1
		c9.2,0.2,14.9-2.7,20.4,0s5.9,8.2,5.9,8.2s-1.2,0-4.7,0s-9,4.7-15.9,11.2s-10.6,7.4-15.5,7.3c-4.9-0.2-12-2.7-11.2-6.7
		c0.8-3.9,3.3-2.9,5.5-1c2.2,2,0,2.9,0,2.9s2.7-0.2,2.7-2s-3.9-5.1-7.2-3.9c-3.3,1.2-4.3,4.5-1.8,7.8s9.4,7.4,18,6.1
		c8.6-1.4,13.7-5.9,17.6-12s9.2-6.3,15.7-3.9s12.3,12.7,12.3,12.7s-8.4-4.7-16.3-3.7c-7.8,1-14.5,5.7-17.4,11.2
		c-2.8,5.1-9.5,5.8-10.3,5.9c0.8,0,6.3-0.4,10.3-3.5c4.3-3.3,8.8-3.9,14.7-5.7c5-1.5,12.2,1,14.3,1.7c-3.6-1-11.8,1.6-15.1,4.9
		c-3.5,3.5-7.4,6.9-13.3,10.2s-11,3.7-15.7,1s-7.3-9.4-10-11.2s-5.3-2.2-9.4,0.6c-4.1,2.7-3.7,3.9-6.1,5.9s-6.1-2.4-6.1-2.4
		s0,1.4,2.2,2.7c2.2,1.4,5.6,1.8,8.2-1.2c2.6-2.9,2.2-4.9,7.4-3.9c5.2,1,6.4,8.6,6.5,9c-0.1-0.1-1.1-1.3-5.7-2.7
		c-4.9-1.6-9-0.8-13.3,2c-4.1,2.6-9.6,0.7-10,0.6c0.2,0.1,1.9,1,6.4,1.6c4.9,0.6,5.9-0.4,10.6-1.4s5.1,0.2,9.6,3.3s6.9,4.5,13.9,3.1
		c3.9-0.8,8-2.3,12.5-4.4c-3.8,4.4-3.8,8-7.9,11.9c-4.7,4.6-6.3,3.1-11.5,1.8s-9.7-2.5-12.5,0.4c-2.9,2.9-1.2,6.9,1.6,7.3
		c2.7,0.4,5.1-3.8,3.1-4.3c-1.9-0.5-2.3,1-2.3,1.2c0.1-0.1,1.7-1.5,1.8,0.3c0.1,1.8-1.2,2.2-2.4,1.8c-1.2-0.4-1.6-4.3,0.4-5.1
		s3.7-0.5,8.5,1c4.8,1.6,6.5,0.8,6.5,0.8s-2.7,1.5-2.2,4.3c0.5,2.9,1.3,4,0.4,6.8c-0.8,2.3-2.5,2.8-3,2.9c0.9-0.1,5.2-0.7,5.7-3.8
		c0.5-3.4-1.4-5.6,0.7-7.7c2.1-2.1,2.4-1.3,5.6-2.5c3.3-1.2,7.6-6,8.2-9.3c0.7-3.3,1.1-4,3.5-7.6c0.9-1.3,2-2.7,3.1-3.9
		c1.5-0.8,3.1-1.6,4.7-2.4c9.8-4.9,9.8-7.4,15.1-8c5.3-0.6,8.4,2.2,11.6,10.4c3.1,8.2,1.4,16.1,5.5,19.4c4.1,3.3,2.4,4.3,7.1,8.6
		s12.3,15.1,17.1,19.6c0.8,0.7,1.5,1.7,2.1,2.8c3,5.3,4.4,14.2,3.2,20c-0.1,0.3-0.1,0.6-0.2,0.9c-1.4,5.6-6.5,11-11,13.7
		c-0.7-0.6-1.3-1.2-2-1.8c-0.1-0.1-0.3-0.2-0.4-0.4c-3.3-2.7-6.5-4.8-9.6-4.8c-6.3,0-20.1,1.8-24.6,0c-4.4-1.8-7.8-7.6-12-9.9
		c-0.9-0.5-1.9-0.9-3-1.2l0,0c-2.1-3.3-4.9-7.1-6.4-9.4c-2-3-0.3-9.3,2.9-11.5s5.4-4.7,6.4-8.8s-1.4-6-2.2-7.2
		c-0.8-1.2,1.2-2.9,3.4-2.1c2.2,0.8,5.7-0.8,7.3-3.8c1.6-3,1.3-7.1-1.7-8.5s-6-2.5-6.4-5.1s-0.7-4.6-0.7-4.6s-1,5.5,0.9,8.4
		c1.8,2.9,5.4,4.2,4.7,7.3c-0.7,3.1-2.2,4.7-4.7,4.4s-6,0.9-6,2c0,1-2.6-2-4.6-1c-2,0.9-5.4,5.1-8.4,6.7c-3,1.6-4.7,2.5-8.1,2.4
		s-6.5-0.3-8.4,2.7c-1.8,3-2.2,4.2-7.1,4.8c-4.8,0.7-8.4,0-11.6-1.3c-3.3-1.3-5.7-2.2-7.8-4.5c-1.8-2-3.1-6.5-3.5-9.9
		c0.2,2.9,0.8,9.6,2.8,14.2c2.6,6,8.5,6.3,14.6,5.9c6.1-0.4,8-0.5,10.5-2.6s5.4-4.6,8.2-3.9c2.9,0.7,5.9,0.3,8.8-1.8
		s6.5-4.2,8.9-3.5s3.5,2.5,2.6,4.3s-4.8,4.7-7.2,8.5c-2.4,3.8-3,8.4-0.5,12.5c1.1,1.8,2.8,3.6,4.4,5l0,0c-1.2,0.1-2.4,0.2-3.6,0.3
		c-5.5,0.5-17.5,2.6-23.5,2.4c-5.3-0.2-10.3,0.1-14.5-1.8c-0.2-0.1-0.5-0.2-0.7-0.3c-0.4-0.2-0.7-0.4-1.1-0.6
		c-4.4-2.9-6.3-10-9.7-14.9c-3.3-4.9-4.9-7.8-9.8-8c-0.3,0-0.5,0-0.7-0.1c-4.5-0.8-7.9-7-7.5-12.1c0.4-5.3,5.9-6.9,9.4-8
		c3.5-1.2,5.7-2.5,3.1-7.3c-2.5-4.7-5.5-5.5-9.4-6.9s-5.9-1.2-5.5-4.9s-0.6-7.4-4.1-7.3c-3.5,0.2-5.7,0.2-11.6-2.4
		c-5.9-2.5-8.2-6.1-6.9-8.6c1.4-2.5,4.3-1.2,4.5,0c0.2,1-1,1.6-1.3,1.7c0.5-0.2,3.4-1.3,2.9-3.2c-0.6-2.1-4.7-1.8-7.3,0
		c-2.5,1.8-1.8,7.5,2.7,10.5c4.5,2.9,8.2,4.3,11.8,5.7c3.4,1.3,5,6.2,5.1,6.5c-0.2-0.3-2.9-5.7-7.8-5.1c-5.1,0.6-7.4,2.2-10.4,0.8
		c-2.9-1.4-3.9-1.6-3.9-1.6s4.1,5.1,8.4,4.3s9-2.5,10.8,0.8s4.3,5.1,7.8,5.9s6.3,4.5,4.3,8.2s-6.5,6.7-7.4,11.4c-1,4.7,4.7,9,4.7,9
		s-7.8-0.8-10.4-5.5c-2.5-4.7-2.5-12.9-5.7-16.3c-3.1-3.3-4.5-3.3-8-6.7c-3.5-3.3-8.8-3.9-13.7-4.9c-4.9-1-8.4-2.7-12-4.9
		c-3.5-2.2-5.3-3.1-4.5-6.1c0.8-2.9,5.3-3.7,2.9-7.4s-4.7-2.5-9.4-3.7c-4.2-1.1-5.9-3-6.2-3.5c0.4,0.6,3.6,5.5,8,6
		c4.7,0.6,6.3,1.8,5.5,3.5c-0.8,1.8-0.8,1.2-3.1,4.1c-2.2,2.8,0.5,5.1,0.8,5.3c-0.3-0.1-3.7-1.8-7.8-4.1c-4.3-2.4-8.4-3.3-12.2-0.8
		c-3.6,2.5-8.3,6.5-8.6,6.8c0.4-0.3,7.4-5.3,12.3-5.5c5.1-0.2,8.6,2,11.4,4.1c2.7,2.2,6.7,4.9,10.4,5.9c3.7,1,6.7,2,6.7,2
		s-4.5,1.2-8.6,3.7s-7.3,4.7-12.3,3.1c-5.1-1.6-6.7-1.2-7.6-4.1s-2-7.3-5.1-7.3s-4.3,2-4.3,2s1.8-1.2,4.5,0.6s3.3,4.9,3.3,4.9
		s-6.5-2.2-10.6-3.1c-4.1-1-12.3,3.9-13.9,8.2s-1.2,8.2,2.4,9.6c3.5,1.4,6.3-1,6.9-3.1c-0.1,0.2-1.3,1.9-4.3,1.6
		c-3.1-0.4-3.7-4.3-1.6-7.4c2.2-3.1,5.9-6.7,12.2-5.1c6.3,1.6,7.1,5.7,15.9,7.6c8.8,2,12.7,1,18-2.5s8.6-8.6,15.3-5.7
		c6.7,2.9,12.3,9.4,13.7,12.5c1.4,3.1,2.4,4.9,2.4,4.9s-6.3-8.2-12.9-6.5c-6.7,1.8-7.8,3.3-13.1,6.9c-5.3,3.5-13.5,5.9-18.8,4.5
		c-5.1-1.3-8.4-4.5-8.6-4.7c0.2,0.3,4,5.3,7.8,6.6c3.9,1.4,7.4,0.8,7.4,0.8s-2.9,2.2-6.5,2.2c-3.5,0-3.5,0-3.5,0s4.5,2.5,8,1.6
		c3.5-1,4.7-3.7,8.2-4.1c3.5-0.4,10.8-4.3,13.9-6.5s12-2.7,15.3-1c3.3,1.8,3.3,6.1,4.7,8.8s8,6.3,15.7,9.4c7.6,3.1,10.8,4.7,12,9.8
		s2.2,12.7,5.1,18.8c2.5,5.2,6.3,6.7,15.3,7.6c1.5,0.2,3.2,0.3,5.1,0.4c12.7,1,12.2-2.2,22.5-2.9c2.5-0.2,4.8-0.1,7,0.2
		c0.9,0.1,1.7,0.3,2.5,0.4h0.1c1.3,0.3,2.5,0.6,3.6,0.9l0,0c3,1,4.8,2,4.8,2s2.5,0.9,6.2,2.5c0,3.5-0.7,4.5-5.1,4.5
		c-4.8,0-7.7-1.7-13.3,4.6c-5.6,6.3-5.2,11.1-5.4,18.2c-0.1,7.1,0.7,10.2-2.1,14.9c-2.7,4.7-6.7,9.5-11,12.2
		c-4.3,2.6-9.5,4.1-13.2,2.2c-3.7-1.8-9.9-4.4-11.4-6.9c-1.4-2.5-2.1-6.8-1.7-9.1c0.4-2.4-0.5-10.5-3.1-12.3s-4.7-2.2-4.7-2.2
		s-3-6.4-4.6-6.9s-4.4,0.1-5.9,0.8c-1.4,0.7-3.8-1.2-5.9-3.3s-2.5-5.9-2.9-9.9c-0.4-4.1-1-9.7-2.2-12c-1.2-2.4-6-3.5-7.6-5.1
		s-2.7-5.5-6.7-7.3c-3.9-1.8-8.1-2.2-12-0.7c-3.9,1.6-4.8,2.9-8.4,3.8c-3.5,0.9-4.8-0.1-5.6-3.1c-0.8-3-1.3-9.1-4.4-10.4
		c-3.1-1.3-6.8-0.4-10.1,1.4c-3.3,1.8-6.3,3.8-9.8,4.1s-3,0.8-3,0.8s1.2,2,7.2,0s9.1-5.2,12.9-3.5s3.3,6.1,4.3,8.4
		c0.5,1.2,1,1.8,1.3,2.2c-0.7-0.6-2.3-1.5-5.5-1c-4.4,0.7-3.3,0.7-9,0.1c-5.8-0.5-9.5-0.9-11.3,2s-2.2,5.4-4.7,6.1
		c-2.3,0.7-4,0.1-4.2,0c0.2,0.2,3,2.9,5.6,0.5c2.7-2.5,3.9-4.8,6.7-5.2c2.6-0.4,6.9-1.2,7.3-1.3c-0.3,0.1-2.3,0.8-4,3.5
		c-1.8,2.9-1.2,4.6-4.3,5.7c-3.1,1.2-4.2,1-4.2,1s4.2,1.7,6.5-1c2.4-2.7,4.6-7.6,8.9-8s6.3,1.2,9,2.2s5.9,1,10.3-0.7
		s11.6-4.2,14.9-4.3c3.1-0.1,7.4,3.3,7.9,3.8c-0.5-0.3-4.4-2.7-10.1-0.2c-6.1,2.6-8.8,2.2-13.2,7.2c-4.4,5-7.4,9.5-12.8,11.4
		c-5.4,1.8-8.7,2.4-11.6,2c0,0,4.3,2.7,11.2,0.4c6.9-2.4,10.7-6.1,13.6-8.9c2.9-2.7,6.4-6,11.1-7.4s13.3-0.5,17.2,3.1
		c3.9,3.7,4.7,8.6,5,12.7c0.3,4.1,2.1,12.7,5.4,14s4.7,1.6,7.4,2c2.7,0.4,3.1,1,3.1,1s-2,0.4-4.4,1.8c-2.5,1.4-6.9,2-10.1,0.4
		c-3.1-1.6-7.4-7.8-9.7-9.5c-2.2-1.7-3.7-5.8-5.8-8.2c-2.1-2.5-5.2-4.3-8.2-3s-5.5,6.3-9.7,8.2c-4.2,2-5.9,3.8-10.1,3.1
		s-9-3.8-11.9-2.5s-7.6,0.4-9.9-0.4c0.3,0.2,5.5,3.2,8,2.7s4.4-1.3,6.8,0.4s8.4,2.6,11,1.6c2.6-1.1,3.3,0.7,6.8-0.3
		c3.5-0.9,3.8-3.5,8.1-4.2c4.3-0.7,6.3,1.8,7.3,3c0.8,0.9,1,1.1,1,1.2c-0.2-0.2-3.1-2.1-5.1,1.1c-2.1,3.3-5.6,6.4-6.8,9.9
		c-1.2,3.5-6.3,7.8-9,9s-3.9,0.9-7.2-0.3c-3.3-1.2-3.4-1.6-5.5-4.4c-2.1-2.9-5.7-3.1-8.9-2.2c-3,0.9-6.2-0.3-6.4-0.4
		c0.2,0.2,4,2.9,6.3,2.7c2.4-0.1,6.9,0.7,8.1,2.7c1.2,2.1,2.1,4.1,4.1,4.6s3.4,0.3,3.4,0.3s-0.7,2.4-7.7,2.1
		c-7.1-0.3-8.4-2.2-11.9-3.8s-5.6-2.2-8.9-2.4c-3.1-0.1-6.7-0.8-7-0.9c0.4,0.1,7.1,2.1,9,3.9c2,1.8,6.7,3.9,9.4,4.3
		c2.7,0.4,3.9,1.8,5.7,2.2c1.8,0.4,1.8,0.4,1.8,0.4s-4.2-0.4-6.5,2.6c-2.4,3-2,6.8-6.9,6.8c-5,0-7.6-1.8-9.9-2
		c-2.4-0.1-2.4-0.1-2.4-0.1s3.3,1.3,6.7,3c3.4,1.7,8.1,2.1,10.3,0c2.2-2.1,2.9-4.4,5.5-6.3c2.6-1.9,2.9-3.1,6.7-3.1
		s8.9-3.8,12.7-5.5c3.8-1.7,8.2-5,10.8-8.2c2.6-3.3,6.3-7.1,7.8-9.8c1.6-2.7,4.1-2.7,4.2-2.7s4.3,5.5,8.1,9.4
		c3.8,3.9,5.4,6.3,10.3,6.4c5,0.1,7.6-0.3,9.1,1.6c1.6,1.8,2,3.9,3.1,7.2c1.2,3.3-0.4,2.4,1.7,5.5s2.9,4.8,7.6,5.2s6.7,0.1,8.9,2.4
		c2.2,2.2,4.2,2.2,7.3,3c3.1,0.8,7.8,2.2,13.2,1.6c5.4-0.7,13.9-6.1,15.9-9.3c2.1-3.1,6-16.2,6.5-21.2c0.3-3.1,0.6-5,1-6.2
		c0.2-0.7,0.5-1.3,1-1.7c1.2-1.3,6.7-7.4,11.5-8.9s11.6-2.1,16.2-0.9c2.9,0.8,4.7,1.1,6.5,2l0,0c1,0.5,2,1.1,3.2,2s2.4,2,3.5,3
		c4.3,10.3,3.6,20.9,0.9,28.3c-0.1,0.4-0.3,0.8-0.5,1.2c-0.2,0.6-0.5,1.1-0.7,1.6c-1.6,3.3-3.5,5-6.1,6.6c-2.4,1.4-5.3,2.8-9.2,5.2
		c-9,5.7-7.4,5.7-13.9,8.6c-0.9,0.4-1.7,0.9-2.5,1.4c-0.2,0.2-0.4,0.4-0.6,0.5c-2.8,2.6-3.9,6.7-4.7,12.6l0,0
		c-0.1,0.5-0.1,1.1-0.2,1.7c0,0.2,0,0.3-0.1,0.5c-0.3,2.3-0.7,4.1-1.1,5.6c-0.1,0.3-0.2,0.7-0.3,1c-0.1,0.3-0.2,0.6-0.3,0.8
		c-0.1,0.2-0.1,0.4-0.2,0.5c-0.4,1.2-0.8,2.2-1,3.5c-0.1,0.3-0.1,0.6-0.2,0.9c0,0.1,0,0.1,0,0.2c0,0.2-0.1,0.4-0.1,0.6
		c-0.1,1.3-0.2,2.8,0,4.7l0,0c0,0.3,0.1,0.7,0.1,1.1c0.1,0.7,0.2,1.4,0.3,2c1.2,7.3,4.1,6.9,9.1,13.4c0.1,0.2,0.3,0.3,0.4,0.5
		c5.2,6.7,6.8,10,1.5,12.3c-5.4,2.3-6.6,1.4-11.1,5.9c-0.1,0.1-0.2,0.2-0.3,0.4c-4.8,5-7.4,6.6-7.4,6.6s1.6,0.9,8.9-1.4
		c7.3-2.4,5.8-0.3,11.8-1.6s6.3-6.5,11.2-4.7c2.8,1,5.2,2.2,7.7,2.6l0,0c1.4,0.2,2.8,0.3,4.3-0.1c0.6-0.1,1.2-0.4,1.8-0.7
		c5-2.4,6-0.8,11.2-1.8c0.5-0.1,1-0.2,1.4-0.3c0,0,0,0,0.1,0c3.7-0.8,3.5-1.1,1.9-3.9c-1.8-3.1-0.8-6-3.4-9.1s-7.8-5.2-12.5-8.6
		c-1.2-0.8-2.6-1.7-4.1-2.6c-0.5-0.3-1-0.6-1.5-0.9c-4-2.5-8-5.5-8.1-10.1c0-0.2,0-0.3,0-0.5V728c0-4.9,1-11.3,3.5-16.5
		c0.3-0.6,0.6-1.2,1-1.8c0.8-1.3,1.6-2.4,2.7-3.4c5.5-5.5,4.2-6.8,9.7-8.9c5.5-2.1,12.1-5,13.9-7.6c0.5-0.7,0.7-1.3,0.8-1.8
		c0-0.1,0-0.1,0-0.2c0-0.1,0-0.2,0-0.4c0-0.1,0-0.1,0-0.2c0,0,0,0,0,0.1c1.3,1.9,4.3,5.3,8.3,5.9c5.5,0.8,12.8,1.8,13.1,7.8
		c0.3,6,4.2,7.8,0,16.2c-0.2,0.4-0.4,0.8-0.6,1.3c-0.3,0.7-0.6,1.4-0.9,2.1c-0.2,0.5-0.4,1-0.6,1.6c-0.1,0.2-0.1,0.3-0.2,0.5
		c-2.7,7.3-4.8,15.7-8.9,22.5c-5.2,8.6-9.2,9.8-10.2,13.9c-1,4-0.5,3.9,4.7,3.7c3.1-0.2,4.4-0.7,6.4-0.6c1.4,0.1,3.1,0.4,5.9,1.4
		c1.4,0.5,3,1,4.6,1.6l0,0c5.9,2,12.5,3.7,16.8,2.1c5.5-2.1,7.1-5,12.3-2.4c5.2,2.6,6.5,3.7,10.4,6c3.9,2.4,1.3-5.5,1.3-5.5
		s-7.1-11-15.4-9c-8.4,2-15.9,2.5-17-1.7s0.5-8.4,3.4-15.2s5-14.9,4.7-24.3c-0.2-8.8-0.5-9.8-3.1-12.9c-0.2-0.2-0.4-0.4-0.6-0.7
		c-0.4-0.4-0.7-0.9-0.9-1.4c-1.5-2.8-2-6.6-3.3-10.1c-0.1-0.4-0.3-0.7-0.5-1.1c-0.5-1-1.1-2-1.8-2.9c-3.9-4.7-7.1-6.8-8.6-12.8
		c-1.6-6-3.7-7.1,2.1-12.3c5.7-5.2,6.8-9.7,3.9-20.1c-1.9-6.7-3.6-9.5-6.4-12.2l0,0c1.8-1.2,4.3-2.8,7.3-4.9
		c0.4-0.3,0.8-0.6,1.2-0.9l0,0l0,0c5-3.9,7.2-8.3,9.4-15.7c2.4-8-0.2-14.7-3.1-20s-10.2-20-18.6-22.9s-11.8-6.3-16.9-13.1
		c-0.4-0.6-0.8-1.2-1.2-1.8c-3.9-6.3-3.6-12.6,1.4-19c5.5-7.1,13.3-3.3,21.6-2.2c8.2,1.2,12.3-4.5,16.5-11.8
		c4.1-7.3,2-12.2,6.9-14.7s8.4,2.4,12.7,5.1c4.3,2.7,6.7,1.4,10.2,2.9c3.5,1.6,0.8,6.7,0.8,6.7
		C1388.3,515.2,1389.4,509.7,1386.7,507.6z"/>
	
		<linearGradient id="SVGID_00000121982158690541499060000014710390996642813568_" gradientUnits="userSpaceOnUse" x1="683.5018" y1="41.4" x2="683.5018" y2="41.4" gradientTransform="matrix(1 0 0 1 527.0982 518)">
		<stop  offset="0" style="stop-color:#1B3940"/>
		<stop  offset="1" style="stop-color:#0F2935"/>
	</linearGradient>
	<path style="fill:url(#SVGID_00000121982158690541499060000014710390996642813568_);" d="M1210.6,559.7c0-0.3,0-0.5,0-0.6
		C1210.6,559.3,1210.6,559.5,1210.6,559.7z"/>
	
		<linearGradient id="SVGID_00000005239948902212009380000014326255886863816381_" gradientUnits="userSpaceOnUse" x1="683.5018" y1="40.6923" x2="683.5018" y2="40.6923" gradientTransform="matrix(1 0 0 1 527.0982 518)">
		<stop  offset="0" style="stop-color:#1B3940"/>
		<stop  offset="1" style="stop-color:#0F2935"/>
	</linearGradient>
	<path style="fill:url(#SVGID_00000005239948902212009380000014326255886863816381_);" d="M1210.6,559.1c0-0.3,0-0.6,0-0.8
		C1210.6,558.2,1210.6,558.6,1210.6,559.1z"/>
</g>
<g>
	<polygon class="st2" points="144.1,781.1 151.1,646.9 166,625.5 181,646.9 185.8,781.2 	"/>
	<path class="st2" d="M1614.6,784.9c0,0-37-22.9-68.4-26.1c-31.4-3.2-60.8,24.8-101.7,22.5c-40.9-2.2-72.8,13.4-90,14.3
		c-17.2,1-48.6,6.9-88.2-3.1s-122.2-5.7-151.2,0s-100.4,11.1-151.7,12s-120.5-15.4-166.2-24.3s-126-2.2-173,4.7
		c-46.9,6.9-93.6-1.3-162.8-5.8S359.9,759,318.6,758.5s-65.8,2.7-99.3,0s-51.3,2.7-98.2-7.3s-82.9-19-110.6-10.4L10,946.5
		c1.1,0.9,2.1,1.8,3,2.7c7.4,7.4,10.3,15.6,11.9,25.1c-0.2-1.6-0.4-3.1-0.6-4.7c0.3,2,0.7,4,1.2,5.9c0.4,0.7,0.8,1.4,1.3,2.1
		c6.8,7.5,14.9,13.6,22.8,20h1543.5c3-5.5,6.8-10.5,11.1-15.3c1.1-1.2,2.3-2.4,3.5-3.6c2.5-6.8,7.1-12.6,12.6-17.3v-169
		L1614.6,784.9z"/>
	<polygon class="st2" points="1066.9,826.5 1074,692.3 1088.9,670.9 1103.8,692.3 1108.7,826.6 	"/>
	<g>
		<path class="st2" d="M919.5,770.3c-0.3-5.9-5.3-10.1-8.8-12.1h-6h-6c-3.5,2-8.6,6.2-8.8,12.1H887V809h17.8h17.8v-38.7H919.5z"/>
	</g>
</g>
<g>
	<path class="st6" d="M1496.3,845.9c-44.7,8.7-81.2,26.4-137.1,21.6c-55.9-4.8-131.4-28.3-235.5-14.5s-171-1.9-260.2-17
		c-89.2-15.2-215.6-10.1-334.9,6.2s-236.2,10.4-316.5,5.9S70.6,825.8,8,818.9v120.2c0.8,0.7,1.7,1.4,2.4,2.2
		c6.4,6.4,10.6,15.1,12,24.1c4,4.4,8.5,8.4,13.1,12.2c16.6,12.1,34.8,21.9,51.3,34.1h1474.6c2.3-5.5,5.6-10.6,9.5-14.5
		c4.9-4.9,12.4-9.4,20.1-11.5c0.8-1.1,1.7-2.1,2.6-3.2c3-3.5,6.2-6.8,9.2-10.3c0.2-0.3,0.4-0.6,0.6-1c4-9.9,9.8-17.6,18.9-23.5
		c0.2-0.1,0.5-0.3,0.7-0.4V826.2C1623,826.2,1541,837.2,1496.3,845.9z"/>
	<path class="st6" d="M435.3,877.3V753.5c0,0,44.5-27,87.2,0v123.8H435.3z"/>
	<path class="st6" d="M398.7,867.2L380.2,843V741.5c0,0-31.7-26.9-82.8,0V843l-12.9,30.2l12.9-0.7v0.7l82.8-4.5v-0.5L398.7,867.2z"
		/>
	<path class="st6" d="M1356.2,755.8c-3.4-9.9-11.5-17.4-21.7-21c0-1,0-2-0.2-3.1c-2-10.4-12.5-14.3-24-12.1s-19.7,9.8-17.7,20.2
		c0.2,1,0.6,2,0.9,2.9c-9.2,8.1-14.1,20-11.8,32.1l23.9,124.9h78.8l-27.9-144.1L1356.2,755.8z"/>
</g>
<g id="Слой_8">
	<g>
		<path class="st7" d="M475.1,287.9l-0.6-4.5c-0.1-0.4-0.1-0.6-0.1-0.8c-0.1-0.2-0.2-0.4-0.3-0.8c-1.1-3.1-2.2-6-3.6-9.1
			c-0.3-0.6-0.7-1.3-1-1.9c-0.1-0.1-0.1-0.2-0.2-0.3c-0.9-1.3-1.8-2.6-2.9-3.9c-1-1.3-2.1-2.6-3.3-3.8c-0.1-0.2-2.7-2.5-2.4-2.4
			c-6.4-5.5-12.5-9.5-19.3-13.1c-2.7-1.4-5-3.2-6.8-5.1c-12.3-4.4-24.3-9.2-38.9-12.9c-27.5-7-56.4-8.4-84.4-16.1
			c-35.5-9.7-43.9-31.2-71.3-46.9c-27.5-15.8-63.9-13.6-93-27c-25.9-11.9-24.6-31.4-47.6-43.6c-2.5-1.3-4.8-2.5-6.9-3.6
			C76.3,84,70.5,81.4,65,64.6c-3.5-10.7-4.2-23.8-9.6-35.3c-6.7,2.1-13.5,4.1-20.2,6.3c-1.4,2.1-3,4-4.7,5.9c-1.9,2-3.8,4-5.5,6.1
			c-3.3,4.7-6.2,9.7-8.7,14.8c-2.6,7.2-4.5,14.6-5.8,22.2c-2.6,25-0.5,50.3-0.5,75.4c0,1.7-0.1,3.5-0.3,5.1
			c4.1,1.5,9.1,2.8,15.2,3.9c37.8,6.8,62.8,21.1,70.3,47.2c7.1,24.5,23.5,32.3,54.6,37c34.8,5.3,48.4,20,57.1,43.2
			c8.1,21.5,12,36.8,51,36.5c12-0.1,28.7-2.7,37.8-7.7c7.7-4.3,9.5-13.2,18.6-16.1C359.5,295,427,351.8,462,315
			c9.7-10.1,8.3-17.2,13.4-20.8C475.4,292.1,475.3,290,475.1,287.9z"/>
		<path class="st8" d="M475.1,287.9c-0.1-0.9-0.2-1.9-0.4-2.8c-16.9-3.4-33.7-7.6-47.8-11.6c11.1,8.7,23,29.8,12.1,36.2
			c-17.9,10.6-39.2-7.2-40.1-20c0.7,11-21.1,12.1-30.6,10.1c-12.6-2.7-31.4-11.9-43.7-8.9c-11,2.7-8.7,13.5-19.3,16.2
			c-11.5,2.9-19.7-4.7-27.6-9.5c11.1,16.7-4.4,26.4-28.9,16.3c-23-9.5-9-25.8,0.5-35.8c-4.9,5.2-29.4-4.4-32.9-8.5
			c-14-16.9-3.7-33.4,11.5-43.7c-12.3-0.4-26.1,3.6-38.4,4.6c-4.9,0.4-11.4-0.2-15.1,1.8c-3.8,2.1-2.3,8.4-7,10.5
			c-9.5,4.2-31.6,0.1-35.2-7.9c-4-9,10.8-21.2,18.5-25.6c-22.1,12.4-39.6-1-45.9-16.9c-4.4-11.2-9.9-21.2-16-31.8
			c-4.9-8.6-2.3-17.9-7.6-26.2c-5.2-0.6-10.5-1.4-15.3-2.7c12.3,3.3,5.2,16.3-1.8,17.3c-6.8,0.9-35-6-41.7-9.5
			c-8.8-4.5-8.2-11.5-12.3-17.8c-0.3-0.4-0.6-0.8-0.9-1.3C9.4,133.6,10,146.8,10,160c0,1.9-0.1,3.8-0.4,5.7
			c4.1,1.5,9.1,2.8,15.2,3.8c37.8,6.8,62.8,21.1,70.3,47.2c7.1,24.5,23.5,32.3,54.6,37c34.8,5.3,48.4,20,57.1,43.2
			c8.1,21.5,12,36.8,51,36.5c12-0.1,28.7-2.7,37.8-7.7c7.7-4.3,9.5-13.2,18.6-16.1C359.5,295,427,351.8,462,315
			c9.7-10.1,8.3-17.2,13.4-20.8C475.4,292.1,475.3,290,475.1,287.9z"/>
		<path class="st9" d="M463.1,262.8c-0.1-0.2-2.7-2.5-2.4-2.4c-6.4-5.5-12.5-9.5-19.3-13.1c-2.7-1.4-5-3.2-6.8-5.1
			c-12.3-4.4-24.3-9.2-38.9-12.9c-27.5-7-56.4-8.4-84.4-16.1c-35.5-9.7-43.9-31.2-71.3-46.9c-27.5-15.8-63.9-13.6-93-27
			c-25.9-11.9-24.6-31.4-47.6-43.6c-2.5-1.3-4.8-2.5-6.9-3.6C76.3,84,70.5,81.4,65,64.6c-3.5-10.7-4.2-23.8-9.6-35.3
			c-6.7,2.1-13.5,4.1-20.2,6.3c-1.4,2.1-3,4-4.7,5.9c-1.9,2-3.8,4-5.5,6.1c-3.3,4.7-6.2,9.7-8.7,14.8c-2.6,7.2-4.5,14.6-5.8,22.2
			c-0.4,3.7-0.6,7.4-0.8,11.1c15.5,0.8,36.6-1.7,45.4-0.3c44.5,7.3,35.3,45,61.7,69.8c8.3,7.8,11.2,24.3,22.1,31
			c5.9,3.7,11.7,7.3,36.3,13.8c26.6,7,62.7,6.1,80.2,20.9c20.5,17.3,42.3,36.1,70.3,46.9c17.6,6.8,38.4,11.9,57,9.3
			c14.8-2,22.5-8.9,31.9-16c13.1-10,27.8-12.9,48.6-7.8c0.2,0,0.4,0.1,0.6,0.2C463.5,263.2,463.3,263,463.1,262.8z"/>
	</g>
</g>
<g id="Слой_9">
	<g>
		<path class="st7" d="M271.9,506.5c-19.1-2.7-39.8-4.4-51.4-21.7c-11.7-17.3-39.4-21.1-58.3-23.8c-9.1-1.3-18.5-0.8-27.2-5.9
			c-6.7-4-12.2-10.6-19.5-13.8c-15.1-6.5-28.7-6.4-41.9-2.7c-6.2,1.8-13.4,4.5-20.6,2.9c-6.3-1.4-12.2-6.8-18.6-8.9
			c-9.5-3-18.5-4.8-27.3-8.1c2.2,12.8,1.4,26.1,1.1,39c-0.3,11.1,0.5,22.2,0.5,33.2c8.5,5.2,16,12.6,24.8,15.8
			c11.5,4.2,27.8,2.1,39.4,3.1c28.3,2.4,55.3,16.2,78,35.9c22.6,19.6,49.5,21.2,72.2,13.4c5.3-1.8,13.4-3.7,17.2-7.6
			c2.2-2.3,1.8-5.2,4.1-6.9c5.7-4.4,19.7-5,27.7-4.4c19.7,1.5,39,6.9,44.3-13.7C322.2,509.8,287.7,508.7,271.9,506.5z"/>
		<path class="st8" d="M271.8,530.3c2.5,2,4.6,4.8,5.9,7.6c-14.9,7.5-35.3-8.4-48.1,4.4c-5.2,5.2-9.3,12-20.8,6.6
			c-7.6-3.6-9.1-11.4-15.6-16.3c6.3,4.7-2.5,13.9-6.8,14.1c-9.6,0.3-32.4-13.3-31.9-22.4c0.4-6.1,17.5-12.5,14.8-18.8
			c-8,6-21.5,13.4-33.8,10.6c-5-1.2-9.8-4.7-15.1-6c-7.5-1.8-15.4-1.4-22.7-1.8c-7.6-0.4-21.8,0.2-28.6-6.7
			c-4.9-5-3.1-11.6-7.5-17.2c0.5,10.9-8.8,6.6-15.5,6c-4.4-0.4-2.3-0.7-6.8,0.7c-2.9,0.9-5,3.9-8.1,4.5c-7.4,1.3-12.9-2.5-14.4-10.3
			c-1.2-6.1,3.1-9.3,6.1-13c-1.7,2.1-8.3,4.1-14.7,5.2c0.2,6.4,0.4,12.8,0.4,19.2c8.5,5.2,16,12.6,24.8,15.8
			c11.5,4.2,27.8,2.1,39.4,3.1c28.3,2.4,55.3,16.2,78,35.9c22.6,19.6,49.5,21.2,72.2,13.4c5.3-1.8,13.4-3.7,17.2-7.6
			c2.2-2.3,1.8-5.2,4.1-6.9c5.7-4.4,19.7-5,27.7-4.4c18.7,1.4,37,6.3,43.4-10.8C301,541.2,287.7,536.9,271.8,530.3z"/>
		<path class="st9" d="M271.6,506.5c-19.1-2.7-39.8-4.4-51.4-21.7c-11.7-17.3-39.4-21.1-58.3-23.8c-9.1-1.3-18.5-0.8-27.2-5.9
			c-6.7-4-12.2-10.6-19.5-13.8c-15.1-6.5-28.7-6.4-41.9-2.7c-6.2,1.8-13.4,4.5-20.6,2.9c-6.3-1.4-12.2-6.8-18.6-8.9
			c-9.5-3-18.5-4.8-27.3-8.1c2.2,12.8,1.4,26.1,1.1,39c0,0.4,0,0.9,0,1.3c8,1,16.1-0.6,25.6,0.7c23.9,3.3,37.1,17.6,57.9,28.5
			c57.7,15.8,51.7,1.4,83,10.3c10.1,4.5,23.7,12,25.3,19.7c3.7,13.6,24.2,16.7,42.3,11.3c10-0.1,16.9-8.8,26.5-10
			c7.1-0.9,14.8-0.7,22.3-0.2c8.6,0.6,17.3,1.9,26,4C318.5,509.7,286.6,508.6,271.6,506.5z"/>
	</g>
</g>
<g id="Слой_7">
	<g>
		<path class="st7" d="M1622.6,444.5v-0.8c-0.4-2.9-0.8-5.7-1.2-8.6c-0.3-8.6,0.3-16.9,1.7-25c-15.4-0.5-29.6,11.5-40.8,22.7
			c-8.5,8.5-15.3,14.4-26.7,17.3c-8.9,2.3-14.5-0.6-23.3-1.1c-17.3-0.9-40.4,4.2-48.8,21.3c-10.4,21.1-34.4,31-55.8,35
			c-22.1,4.1-93.8-2.9-89.3,38.1c1.1,9.9,10.2,21.7,17.8,27.1c11.6,9.1,29.6,11.9,35.2,11.9c43.5-3.5,81.5-17.5,82.2-17.8
			c12.2-5,63.5-18.4,100-50.7c6.8-9.4,18.6-20.5,26.5-8.1c3.8,6,5.3,25.8,17,21.5c2.1-8.7,0-15.5,0.2-24.2
			c0.3-9.8-0.5-15.4,3.8-24.7c2.1-4.7,2.8-10,4-14.9C1624.3,457.2,1623.5,450.9,1622.6,444.5z"/>
		<path class="st8" d="M1623.7,452.7c-1.2,0.6-2.3,1.3-3.4,2.2c-3.7,2.8-8,11.7-12.6,12.3c10,1.9,5.8,32.3,3.1,39.5
			c-0.8,2.1-4.3,3.1-4.7,0.4c-0.6-4.1-12.9-23.4-2.6-23.8c-7.7-5.8-13.9,3.5-20.1,5.9c-10.8,4.3-6.4-8.6-3.6-14
			c-7.1,1.3-6.2,13.5-8.6,19.2c-4.1,9.7-13.1,8.2-21.7,7.6c3.4,1,6.9,3.8,7.5,6.9c0.8,4-2.3,7.6-4,11.6c-1.3,3.2-2.6,8-4.4,11.7
			c2.1-1,4.2-2.8,6.1-4c3.6-2.2,17-11.3,19-14c6.8-9.4,18.6-20.5,26.5-8.1c3.8,6,5.9,26.6,17.6,22.3c2.1-8.7-0.6-16.3-0.4-25
			c0.3-9.8-0.5-15.4,3.8-24.7c2.1-4.7,2.8-10,4-14.9C1624.7,459.9,1624.2,456.3,1623.7,452.7z"/>
		<path class="st8" d="M1529,542.9c0.4-0.2,1.9-4.7,1.9-5c0-0.9,3.6-19.2,7.2-14.3c-0.2-0.3-0.5-0.9-0.5-1.3
			c-9.3,0.2-14.7,3-22.9,6.5c-12,5.1-11.9-3.3-9.2-12.8c-6.5,7.8-7.8,18.3-13.3,26.7c-5.3,8-13.2,17.3-20.9,22.7
			C1471.8,565.1,1510.2,553.2,1529,542.9z"/>
		<path class="st8" d="M1428.8,577.1c3.9-1,7.8-2,11.7-2.9c7.4-1.9,14.7-3.5,21.9-5.9c0.9-3.7,2.7-9.3,4.9-9.8
			c-3.4,0.9-5.4-1.5-8.6-1.2c-1.5,0.1-16.6,14.7-19,9c-0.9-4.6,5.1-7.6,3.9-12.4c-1-3.8-7.4-6.1-10-8.7c3.9,8.1,3.3,16.4-2,24.4
			c-3.9,5.9-11.5,1-16-2.4C1419.3,570.9,1425.1,573.2,1428.8,577.1z"/>
		<path class="st9" d="M1621.4,435.1c-0.3-8.6,0.3-16.9,1.7-25c-15.4-0.6-29.6,11.5-40.8,22.7c-8.5,8.5-15.3,14.4-26.7,17.3
			c-8.9,2.3-14.5-0.6-23.3-1.1c-17.3-0.9-40.4,4.2-48.8,21.3c-10.4,21.1-34.4,31-55.8,35c-22.1,4.1-93.8-2.9-89.3,38.1
			c0.3,2.8,1.2,5.7,2.6,8.6c5.4,1,10.5,3.9,14.9,6.8c3.4,2.3,6.5,4.8,9.6,7.7c6.4,6,15.8,10,23.3,1.6c6-6.6,7.1-17.3,11.8-24.9
			c6.6-10.5,16.3-15.6,27.6-13.1c8.8,1.9,23.1,23.7,31.8,25.3c10.5,1.9,18.4-6.2,24.7-14.4c8.6-11.1,7.8-40.8,19.9-48.4
			c4.4-2.8,9.6-4.3,14.4-3.3c2.2,0.5,3.9,1.5,5.8,2.7c5.4,3.4,13.8,7.1,20.7,3.4c5.4-2.9,10.1-14.7,14-19.9
			c3.6-4.9,7.9-9.9,13.4-12.5c5-2.3,8.2-1.5,13-0.3c5.7,1.4,9.7,5.3,17.2-0.2c2.5-1.8,4.8-5.3,6.7-7.8c3.8-5,7.3-12.1,11.6-18.1
			C1621.6,436.1,1621.5,435.6,1621.4,435.1z"/>
	</g>
</g>
<g id="Слой_6">
	<g>
		<path class="st7" d="M1623.2,257.4c0.5-14.8,2.1-29.6,2.2-44.4c0.1-17.1-0.2-34.2-0.5-51.3c-0.3-17.2-0.9-34.4-2.1-51.6
			c-0.6-7.9-0.7-16-2.2-23.9c-1.1-5.9-4.3-8.8-8.4-13.1c-2.1-2.2-2.7-4.7-2.3-7c-34.9-7.6-63.4-14.8-101.8,0.4
			c-45.6,18.1-54,62.6-92.9,88.9c-23.7,16-53.5,25.5-79.2,38.4c-23.3,11.8-46,25-69.1,37.4c-25.4,13.6-120.3,69.2-51.7,87.7
			c51.2,13.8,78.5-31.3,123.5-45.7c29.8-9.6,25.7,11.7,41.5,24.4c24.9,20.1,50.2-12.7,57.6-31.3c10-25.1,29.5-51.6,60.3-49.6
			c14.4,0.9,24.3,10,36.5,16.6c14.7,8,29.8,11.8,45.7,16.5C1594.4,254.1,1609.1,257.2,1623.2,257.4z"/>
		<path class="st8" d="M1623.2,257.4c0.3-9.5,1.1-19,1.6-28.6c-6.4,1.3-12.8,1.8-18.3,1.7c-5.2-0.1-13.9,2.2-18.3-0.3
			c-4.6-2.7-4.5-11-7.5-15.1c-4-5.5-15.5-11.9-19.5-14.4c3.8,9.4,7,17.7,8.5,27.3c-16.8,4.2-28.8-6-39.1-19.3
			c-14.1-18.2,15.7-27.8,7.9-43.9c-9,2.5-13.4,8.9-20.5,13.5c-10,6.5-22,8.2-33.1,11.2c-10.1,2.8-18.7,7.9-28.2,12.4
			c-9.6,4.5-24.7,6.1-25.9,19.6c-0.5,0.2-2.5,1.1-2.8,1.3c3.9-0.7,17.9-2.1,16.6,8.1c-0.8,6.3-11,11.8-15,16
			c-6.8,7-12.9,15.5-17.1,24.6c-3.9,8.5-8.2,17.4-19.1,11.6c-11-5.9-4.7-27.2-3.7-37c-8-1.7-16.5,0.9-24.2,3.1
			c-9.1,2.6-12,1.5-21.1,1.2c-11.9-0.4-27.4,4.2-35.9,12.3c-8.6,8.2-11.4,20.7-25,22.5c-12,1.6-24.2-5-36.7-2.6
			c6.7,5,14.5,13,9.6,21.2c-6.8,11.2-53,4.8-64,1.5c2.9,5.5,10,10.3,22.8,13.8c51.2,13.8,78.5-31.3,123.5-45.7
			c29.8-9.6,25.7,11.7,41.5,24.4c24.9,20.1,50.2-12.7,57.6-31.3c10-25.1,29.5-51.6,60.3-49.6c14.4,0.9,24.3,10,36.5,16.6
			c14.7,8,29.8,11.8,45.7,16.5C1594.4,254.1,1609.1,257.2,1623.2,257.4z"/>
		<path class="st9" d="M1624.9,161.7c-0.3-17.2-0.9-34.4-2.1-51.6c-0.6-7.9-0.7-16-2.2-23.9c-1.1-5.9-4.3-8.8-8.4-13.1
			c-2.1-2.2-2.7-4.7-2.3-7c-34.9-7.6-63.4-14.8-101.8,0.4c-45.6,18.1-54,62.6-92.9,88.9c-23.7,16-53.5,25.5-79.2,38.4
			c-23.3,11.8-46,25-69.1,37.4c-20.4,10.9-85.5,48.9-74.9,73c22.4-24.9,46.4-45.1,82.7-49.1c26.7-2.9,43-8.1,66.3-22.5
			c11.7-7.3,22.3-16.1,37-12.5c3.2,0.8,5.9,3.3,9,4c21.8,5.2,32.6,8.1,45.4-11.2c9.2-13.8,13.5-30.5,23.3-44
			c18.7-25.9,51.1-31.7,80.3-22.2c25.4,8.2,59.3,51.2,89.2,52.6C1625.3,186.8,1625.1,174.2,1624.9,161.7z"/>
	</g>
</g>
<g id="Слой_2_00000088849930984118138160000018186260706934959804_">
	<path class="st6" d="M634.7,698.2c-0.3-1-0.8-2.1-0.8-2.1s-2.9-13.7-3.1-14.1c0-0.1-0.2-0.9-0.4-2.1l2.7,4.5c0,0-0.7-3.4-1.1-4.9
		c-1.9-6.2-3.7-16-4.8-22.7c-0.1-0.5,2,2.7,2,2.7s-1.5-4.7-2.7-8.2c-0.7-2.1-3.3-7.8-5.4-12.3c-1.6-5.2-4-15.3-5.9-18.8
		c-0.8-1.6-1.2-2.6-1.5-3.2c0,0,0-0.1-0.2-0.4l0,0c0-0.1-0.1-0.2-0.1-0.3c-1.8-3.8-5-4.9-7.2-6.1c-3.5-2-9.6-3.7-15.6-5l-1.8-6.7
		c0,0,1.2-0.5,0.3-4.9c-0.3-1.7-1.9-4.5-3.7-2.4c-0.4,0.1-0.3-0.3-1.1-1.5c-0.2-0.3-0.3-0.7-0.5-1.1c-0.2-0.4-0.4-0.9-0.6-1.3
		c0.4,0.4,0.7,0.8,0.9,1.1s0.4,0.5,0.4,0.5s-0.1-0.2-0.3-0.6c-0.2-0.4-0.5-0.8-0.8-1.3c-0.1-0.1-0.2-0.3-0.3-0.4
		c0-0.1-0.1-0.1-0.2-0.2c-0.1-0.1-0.1-0.2-0.2-0.3c0.5,0.2,1.1,0.3,1.4,0.5c0.1,0.1,0.2,0.1,0.3,0.2c0.1,0.1,0.1,0.1,0.2,0.1
		c0.1,0.1,0.2,0.1,0.2,0.1s-0.1,0-0.2-0.1c-0.1,0-0.1-0.1-0.2-0.2c-0.1-0.1-0.2-0.1-0.3-0.2c-0.3-0.2-0.8-0.4-1.2-0.6
		c-0.1-0.1-0.2-0.3-0.4-0.5s-0.3-0.5-0.6-0.8c-0.2-0.3-0.5-0.5-0.8-0.7c-0.6-0.5-1.2-0.8-1.7-1.1c0,0,0,0-0.1,0l-0.1-0.1h0.1
		c0.1,0,0.2-0.1,0.3-0.1c0.2-0.1,0.2-0.1,0.2-0.1s-0.1,0-0.3,0c-0.1,0-0.2,0.1-0.3,0.1s-0.1,0-0.2,0l-0.1-0.1
		c-0.5-0.4-1-0.7-1.5-1.1c-0.3-0.2-0.5-0.3-0.8-0.5c-0.1-0.1-0.3-0.1-0.4-0.2c-0.1-0.1-0.3-0.1-0.4-0.2c-0.5-0.2-1.1-0.4-1.5-0.6
		c-0.2-0.1-0.4-0.1-0.6-0.2c-0.7-0.4-1.6-0.6-2.3-0.8c-0.3-0.1-0.4-0.1-1-0.1l0,0c0,0-0.8,0-1.2,0c-0.9-0.4-1.7-0.6-1.7-0.6
		s0.6,0.2,1.3,0.6c-0.3,0-0.7,0.1-1,0.2c-0.1,0-0.1,0-0.2,0c-0.1,0-0.2,0-0.3,0H567c-0.4,0-0.9,0-1.3,0c-0.4,0-0.8,0.2-1.1,0.3
		s-0.5,0.3-0.7,0.4c-0.2,0.1-0.2,0.2-0.2,0.2s0.1,0,0.3-0.1s0.4-0.3,0.7-0.4c0.3-0.1,0.7-0.2,1.1-0.2c0.4,0,0.8,0,1.2,0.1
		c-0.1,0-0.2,0.1-0.3,0.1c-0.9,0.2-1.7,0.5-2.4,0.8c-0.4,0.2-0.8,0.5-1,0.6c-0.2,0.2-0.4,0.3-0.4,0.3s0.1-0.1,0.4-0.2
		c0.2-0.2,0.6-0.4,1-0.6c0.3-0.1,0.6-0.3,1-0.4c-0.2,0.1-0.4,0.2-0.6,0.3c-0.2,0.1-0.4,0.1-0.6,0.2c-0.3,0.1-0.4,0.2-0.4,0.2
		s0.1-0.1,0.4-0.2c0.1,0,0.2-0.1,0.3-0.1c-0.3,0.2-0.5,0.3-0.8,0.5c-0.1,0.1-0.3,0.1-0.4,0.2c-0.1,0.1-0.3,0.2-0.4,0.3
		c-0.2,0.1-0.4,0.1-0.5,0.2c-0.2,0.1-0.4,0.2-0.6,0.3c-0.2,0.1-0.4,0.2-0.5,0.3c-0.2,0.1-0.3,0.2-0.5,0.3c-0.3,0.2-0.5,0.3-0.7,0.4
		c-0.2,0.1-0.3,0.1-0.3,0.1s0.1,0,0.3-0.1s0.5-0.2,0.8-0.3c0.2-0.1,0.3-0.1,0.5-0.2c0.2-0.1,0.4-0.2,0.6-0.3l0,0
		c-0.3,0.2-0.6,0.4-0.9,0.7c-0.4,0.3-0.8,0.7-1.1,1c-0.1,0.1-0.2,0.2-0.3,0.3c-0.2,0.1-0.3,0.2-0.3,0.2s0.1,0,0.2-0.1
		c-0.2,0.2-0.4,0.4-0.5,0.6c-0.2,0.3-0.4,0.6-0.5,0.8s-0.2,0.3-0.2,0.3s0.1-0.1,0.2-0.3c0.1-0.2,0.3-0.4,0.5-0.7s0.6-0.6,0.9-0.9
		c0.4-0.3,0.7-0.6,1.1-0.9c-0.3,0.3-0.5,0.6-0.8,0.9c-0.4,0.3-0.7,0.7-1,1.1c-0.1,0.1-0.2,0.3-0.3,0.4c-0.2,0.2-0.4,0.5-0.6,0.7
		c-0.3,0.3-0.5,0.7-0.7,0.9c-0.4,0.5-0.6,0.9-0.6,0.9s0.2-0.4,0.7-0.9l0.1-0.1c0,0,0,0,0,0.1c-0.1,0.1-0.2,0.2-0.2,0.3
		c-0.1,0.2-0.2,0.3-0.2,0.3s0.1-0.1,0.2-0.2c0,0,0,0,0-0.1c0,0.1-0.1,0.1-0.1,0.2c-0.2,0.4-0.3,0.7-0.4,0.9
		c-0.1,0.2-0.1,0.4-0.1,0.4s0-0.1,0.1-0.4c0.1-0.2,0.3-0.5,0.5-0.9s0.5-0.8,0.9-1.2c0,0,0-0.1,0.1-0.1c0.1-0.1,0.1-0.2,0.2-0.2
		c-0.3,0.5-0.5,1-0.7,1.5c0,0.1-0.1,0.1-0.2,0.2c-0.3,0.4-0.6,0.8-0.8,1c-0.1,0.1-0.2,0.2-0.2,0.3s0,0.1,0,0.1s0,0,0.1-0.1
		c0-0.1,0.1-0.2,0.2-0.3c0.2-0.2,0.5-0.5,0.8-0.9c-0.2,0.5-0.4,1.1-0.6,1.6c-0.2,0.4-0.4,0.7-0.6,1c-0.1,0.2-0.2,0.4-0.3,0.6
		c-0.1,0.1-0.2,0.2-0.2,0.3c-0.2,0.3-0.4,0.5-0.5,0.7s-0.2,0.3-0.2,0.3s0.1-0.1,0.2-0.2c0.1-0.1,0.3-0.4,0.5-0.6l0,0
		c-0.1,0.3-0.2,0.4-0.2,0.4s0.1-0.1,0.2-0.4c0,0,0-0.1,0.1-0.1c0.2-0.2,0.4-0.5,0.7-0.8c0,0,0,0,0.1-0.1c0,0.1,0,0.2-0.1,0.3
		c-0.1,0.2-0.2,0.4-0.2,0.7c-0.2,0.4-0.3,0.9-0.4,1.4c-0.1,0.5-0.2,0.9-0.3,1.4c-0.1,0.4-0.1,0.9-0.2,1.2c0,0.2,0,0.4,0,0.6
		c-0.1,0.2-0.1,0.3-0.1,0.3s0-0.1,0.1-0.2c0,0.1,0,0.1,0,0.2c0,0.2,0,0.3,0,0.3s0-0.1,0.1-0.3c0-0.1,0-0.2,0.1-0.3s0.1-0.2,0.2-0.3
		c0.1-0.1,0.1-0.3,0.2-0.5c0.2-0.3,0.3-0.7,0.5-1.1c-0.1,0.4-0.2,1-0.3,1.6s-0.1,1.2-0.1,1.6c0,0.4,0.1,0.7,0.1,0.7s0-0.3,0-0.7
		s0.1-1,0.3-1.6c0.1-0.2,0.1-0.5,0.2-0.7c0.1,0.5,0.2,0.9,0.3,1.4c0,0.5-0.1,1-0.1,1.4c-0.1,0.6-0.1,0.9-0.1,0.9s0.1-0.4,0.2-0.9
		c0.1-0.3,0.1-0.6,0.2-0.9c0.1,0.1,0.1,0.3,0.2,0.4l0,0c-0.1,0.4-0.1,0.8-0.2,1.1c-0.1,0.4-0.3,0.7-0.3,1.1c0.1-0.4,0.3-0.7,0.4-1.1
		c0.1-0.3,0.2-0.6,0.3-0.9c0.1,0.1,0.1,0.2,0.2,0.4c0,0.2,0,0.5,0,0.7c0,0.3,0,0.5,0,0.7s0,0.3,0,0.3s0-0.1,0-0.3s0-0.4,0.1-0.7
		c0-0.1,0-0.1,0-0.2c0.1,0.4,0.2,0.8,0.3,1.1v0.1c0,0.1,0,0.3,0.1,0.4c0,0,0,0,0,0.1c-0.1,0.3-0.2,0.7-0.3,0.9
		c-0.2,0.5-0.5,0.8-0.6,1.1c-0.2,0.3-0.2,0.4-0.2,0.4s0.1-0.2,0.3-0.4c0.2-0.3,0.4-0.6,0.7-1.1c0.1-0.2,0.2-0.4,0.3-0.7
		c0.1,0.5,0.2,0.9,0.2,1.3c0.1,0.5,0.2,0.9,0.3,1.2s0.2,0.4,0.2,0.4s-0.1-0.2-0.1-0.4c-0.1-0.3-0.2-0.7-0.2-1.2c0-0.1,0-0.2,0-0.3
		c0.1,0.2,0.1,0.4,0.2,0.5c0.1,0.2,0.2,0.3,0.2,0.3s-0.1-0.1-0.1-0.4c-0.1-0.2-0.1-0.6-0.2-1c0-0.1,0-0.1,0-0.2
		c0-0.2-0.1-0.4-0.1-0.7c0.1-0.2,0.1-0.3,0.2-0.5c0,0.1,0.1,0.8,0.1,0.8c0,0.1,0.1,0.6,0.2,0.8l0.1-0.4c0.1,0.2,0.2,0,0.3,0.1
		c0.1,0.2,0.3,0.2,0.4,0.4c0.1,0.3,0.3,0.4,0.4,0.6c0.1,0.3,0.3,0.5,0.4,0.6c0.1,0.2,0.2,0.2,0.2,0.2s-0.1-0.1-0.1-0.3
		c-0.1-0.1-0.2-0.4-0.3-0.6c0.1,0.1,0.1,0.2,0.2,0.2c0.3,0.4,0.4,0.7,0.4,0.7s-0.1-0.2-0.3-0.6c0,0,0,0,0,0.1
		c0.1,0.2,0.1,0.3,0.1,0.3s0-0.1-0.1-0.3s-0.2-0.4-0.3-0.6c0.1,0.2,0.3,0.3,0.4,0.5c0.3,0.3,0.4,0.6,0.4,0.6s0-0.2-0.2-0.4
		c0.6,0.8,1.1,1.2,1.3,1.6c0.1,0.1,0.2,0.3,0.3,0.5c-1.6,0.5-3.2,0.1-4.8,0.7c-0.6,0.2-2,0.8-3.7,1.5c-2.9,1.2-6.7,2.8-8.1,3.2
		c-2.2,0.6-1.2,0.6-2.7,5.3c-1.2,3.9-1.8,14.8-2.4,20.5c-1.3,5.1-2.9,11.5-3.2,13.7c-0.5,3.8-1.2,9-1.2,9s1.5-3.8,1.5-3.2
		c0.2,7.1,0.3,17.6-0.5,24.4c-0.2,1.6-0.2,5.3-0.2,5.3l2-5.2c0,1.3,0,2.1,0,2.2c-0.2,0.5-0.4,15.2-0.4,15.2s-0.3,1.2-0.5,2.3
		c-0.1,1.1-0.5,8.2-0.5,8.2c1.1,3.2,2.2,6.7,5.5,10.4c1,0.3,3.7,3.6,4.2,3.2c0.5-0.4,0.3-0.4,0.3-0.8c0-0.3-0.4-1.3-0.4-1.3l0.6,0.1
		c0,0,0.8-0.1,1-0.5c0.2-0.3-0.1-1.2-0.5-1.7c-0.5-0.5-1.5-1.5-1.5-1.5l1.9-0.3c0,0,0.7-0.3,0.7-0.9c0-0.5-0.3-0.9-0.8-1.2
		s-1.6-1.2-1.6-1.2s1-0.1,1.1-0.3c0.2-0.3,0.3-1-0.2-1.9s-2.3-1-2.7-1.5c-0.5-0.5-0.7-1.2-0.7-1.2s0.7-3.2,1.8-3.5
		c1.1-0.4,1.2,1.1,1.6,1.8c0.4,0.7,1.3,3.8,2,4.6s1.7,0.1,1.7-1.5s-0.7-4.4-1.4-6.5s-1.7-4.1-1.7-4.1c-0.1-1-1.3-3.4-1.2-4.3
		c0-1.7,2.3-14.9,2.9-17.6c1-8.5,0.4-8.7,0.7-10.2c0.1-0.8,0.4-2.7,0.9-4.8c0-0.4,0-0.6,0-0.6h0.1c0,0.2-0.1,0.4-0.1,0.6
		c0,1.6,0.1,5.8,0,6.4c0,0.7,0.2,2.6,0.2,2.2c0-0.5,0.9-4.3,0.9-4.8s0.2-7.9,0.3-8.7c0.1-0.5,0.3-0.9,0.3-1.4v-1.6
		c0-0.1-0.1-0.2-0.1-0.4s0.1-0.4,0.1-0.6v1c0,0.2,0.1,0.3,0.1,0.4c0.1,0.5-0.1,0.9-0.1,1.3v30.2c0,5.5-0.4,11.1-0.5,12.3
		c0,0.4,0.3,0.8,0.8,1.1c2,1.3,7.7,1.5,7.5,2.5c0.4-0.3,0.1,22.2,0.7,42.4c-2.5,4-5.2,14.3-8.1,21.7c-1.2,3.2-2.5,5.9-3.8,7.2
		c-1.2,1.2-4,8.2-4.6,9.6c-0.6,1.3-2.7,5.3-3.1,6.9c-0.4,1.7-0.8,3.7-0.9,4.7c-0.1,1-2.4,5-3,6.1c-0.5,1.1,0.5,1.7,1.7,2.8
		c1.1,1.1,2.4,2.8,3.4,3.9c0.9,1.1,0.7,2.8,1.6,5.1c0.7,1.7,5.6,3.7,8.7,4.6c1.1,0.3,1.9,0.5,2.3,0.4c1.5-0.2,4.5-1.8,4.4-3.9
		c-0.1-2.1-2.7-6.1-2.9-8c-0.2-2,0.1-3.9,0.1-3.9s1.1-3.5,1.3-4.9s1.6-3.3,3.6-5.7s4.8-9.8,6.7-13.7c0.1-0.1,0.1-0.2,0.2-0.2
		c0.6,2.3,1.2,4.4,1.2,4.2c0.1-0.3,1.7-1,2.3-2.9c0.6-1.8,0.4-3.6,0.7-5.1s1.9-5.3,1.9-5.3s1.2,1.4,1.5,2.2c0.4,0.8,0.3-6.2,0.3-6.2
		s2.2-9,3.1-11.1c1.4-3.2,1.4-18.9,3.3-23.8c0.5-3.2-1.4-5.2,0.1-9.7S588,702,588,702s1.2,2.1,2.2,5.1s9.2,20.3,10.4,24.6
		s6.1,18.7,6.1,18.7s0,5.3,0,9.6c-0.1,4.3,2,9.4,2.4,12c0.3,2.6,1.3,7.2,1.5,11.7c0.1,4.5,2.8,15.5,2.9,16.1
		c0.1,0.6,1.6,1.7,1.6,1.7s-0.3,5-1.5,7.1s-1.7,5.6-0.7,7c1,1.5,11.4,4,14.6,1.9c3.2-2.1,2.7-3.6,2.8-7.7c0.1-4.2-0.4-12.1-0.4-12.1
		l1-2.3c0,0-1.4-4.5-2-7.7c-0.5-3.2-0.4-6.5-0.6-11.4c-0.1-4.9-4.6-22-4.6-23s-0.1-4.7-0.5-9s-1.4-12.8-1.7-15s-0.1-1.3,0-2.1
		c0.1-0.9,0.1-1.9-0.5-3c-0.6-1-1.4-4.5-1.5-5.6c-0.2-1-1.7-9.9-1.7-9.9l0,0c-0.1-0.3-0.2-0.4-0.2-0.5c-0.4-0.9-1-4.2-1.2-4.9
		c-0.3-1.3-0.6-2.6-0.7-3c0-0.9,0.3-3.9,0.2-5l0.1,0.1c-0.1-1-0.1-2.2-0.1-2.2l-0.7-26.9c0.2,0.8,0.3,1.4,0.3,1.5
		c0.1,0.5,1.6,3.9,1.7,4.3c0.1,0.4,0-1.4-0.1-2.1c-0.1-0.6-0.8-4.5-1.1-6c-0.1-0.2-0.1-0.4-0.2-0.6h0.2c0,0.1,0,0.3,0,0.6
		c0.8,1.9,1.3,3.7,1.6,4.4c0.6,1.4,0.1,1.7,2.5,9.4c1,2.4,5.5,14.3,5.8,16c0.2,0.8-0.5,3.3-0.4,4.2c0,0-0.6,2.1-0.9,4.2
		c-0.3,2-0.5,4.8-0.2,6.3s1.3,2,1.8,1.1c0.6-0.9,0.8-4,1.1-4.7c0.3-0.8,0.1-2.1,1.2-2c1.1,0.1,2.3,3,2.3,3s-0.1,0.7-0.4,1.2
		c-0.3,0.6-1.9,1-2.3,1.9c-0.3,0.9-0.1,1.6,0.1,1.8c0.1,0.2,1,0.1,1,0.1s-0.9,1-1.3,1.4c-0.4,0.4-0.7,0.8-0.5,1.3
		c0.1,0.6,0.8,0.8,0.8,0.8h1.9c0,0-0.8,1.1-1.1,1.6c-0.3,0.6-0.4,1.4-0.2,1.7s1,0.3,1,0.3l0.6-0.2c0,0-0.2,1-0.1,1.3
		c0.1,0.4-0.1,0.4,0.4,0.7s2.4-3.2,3.3-3.7c2.5-4.1,2.8-7.4,3.3-10.7C636.6,705.8,635.1,699.3,634.7,698.2z M556.9,593.6
		c-0.1,0.3-0.2,0.5-0.3,0.8c-0.1,0.4-0.3,0.8-0.4,1.2c-0.1,0.2-0.1,0.3-0.2,0.5c0,0.1-0.1,0.2-0.1,0.2c0-0.1,0-0.3,0.1-0.4
		c0.1-0.4,0.1-0.8,0.3-1.2c0.1-0.4,0.3-0.9,0.5-1.3c0.1-0.1,0.1-0.3,0.2-0.4C556.9,593.1,556.9,593.3,556.9,593.6z M558.7,599.8
		c0,0.1,0,0.2-0.1,0.2c0-0.2,0-0.3,0-0.5C558.7,599.7,558.7,599.7,558.7,599.8L558.7,599.8z M560.2,601.9c0-0.1-0.1-0.1-0.1-0.2
		C560.2,601.7,560.2,601.8,560.2,601.9c0.1,0.1,0.1,0.2,0.2,0.3c0,0.1,0.1,0.1,0.1,0.2C560.4,602.2,560.3,602,560.2,601.9z
		 M579.6,584C579.6,584,579.7,584.1,579.6,584c0.3,0.1,0.5,0.2,0.6,0.3c0.1,0,0.1,0.1,0.2,0.1l0,0h-0.1c-0.1,0-0.2-0.1-0.4-0.1
		C579.9,584.2,579.8,584.2,579.6,584C579.7,584.1,579.6,584,579.6,584z M581.6,585.3c0.1,0.1,0.2,0.1,0.3,0.2l0,0c0,0-0.1,0-0.1-0.1
		C581.7,585.3,581.6,585.3,581.6,585.3z M583,586.5C583,586.6,583,586.6,583,586.5C583,586.6,583,586.5,583,586.5
		c-0.1-0.1-0.2-0.3-0.3-0.4c0,0,0,0,0.1,0C582.8,586.3,582.9,586.4,583,586.5z M581.1,584.2c0.3,0.2,0.6,0.4,0.9,0.6
		c0.3,0.2,0.5,0.5,0.6,0.7c0.2,0.2,0.3,0.3,0.4,0.5c-0.1,0-0.2-0.1-0.3-0.1s-0.2-0.1-0.3-0.1c-0.1-0.1-0.1-0.2-0.2-0.2
		C581.9,585.1,581.5,584.6,581.1,584.2L581.1,584.2z M579.8,583.6c0.4,0.2,0.7,0.4,1,0.7c0.5,0.4,1,0.9,1.3,1.3l0.1,0.1
		c-0.1,0-0.1-0.1-0.2-0.1c-0.1-0.1-0.3-0.3-0.5-0.5C581,584.6,580.4,584.1,579.8,583.6c-0.1,0-0.2-0.1-0.2-0.1
		S579.7,583.5,579.8,583.6z M577.5,581.7c0.4,0.2,0.9,0.5,1.3,0.8h-0.1c0,0-0.1,0-0.2,0c-0.2-0.1-0.4-0.2-0.7-0.3
		c-0.1-0.1-0.2-0.1-0.3-0.2c-0.2-0.2-0.5-0.4-0.8-0.6h-0.1C577,581.5,577.2,581.6,577.5,581.7z"/>
</g>
<g id="Слой_3_00000143603228168835815940000003743534158535238838_">
	<g>
		<path class="st6" d="M1219.9,790.6c-3.9-5.5-6.5-11.7-8.8-17.9c-3.3-9.2-9.2-16.2-17.4-21.3c-1.8-1.1-3.6-2.4-5.6-3.3
			c-1.7-0.9-2.3-2.1-2.1-3.9c0.2-2.1,0.2-4.1,0.2-6.2c0.6-0.6-0.6-2,0.9-2.2c0.1,0.8-0.1,1.9,1,1.9c1.3,0,1.2-1.2,1.1-2
			c-0.3-2.8,1.1-5.6,0-8.9c1.6,0.8,1.5,2,1.7,3c0.2,0.8,0.3,1.8,1.4,1.5c1-0.3,0.9-1.3,0.6-2.1c-3.2-9.5-3-19.6-6.1-29.2
			c-2.1-6.5-2.7-13.4-1.3-20.3c0.9-4.3,3.7-7.8,5.3-11.8c1.2-3.2,2.8-6.2,4.1-9.4c1.3-3.3,0.1-6.9,1.4-10.1c0.3-0.8,0.1-2.1,1.6-2
			c1.4,0.2,1.4,1.1,1.8,2.2c0.5,1.6-0.1,3.9,2,4.8c0.3-0.4,0.1-1.2,0.7-1.3c1-0.1,0.7,0.7,0.9,1.3c0.6,1.4,0.4,2.8,0.5,4.2
			c0.8,0.5,0,2.2,1.6,2.2c0.6-1.5,0.1-3.2,0.3-4.7c0.1-0.7-0.4-1.6,0.4-2.2c0.7-0.7,1.3-1.4,2.3-1.8c2-0.8,3.5-1.2,3.1,1.9
			c-0.1,0.7,0,1.5,0.8,1.8c0.9,0.4,1.2-0.5,1.6-1.1c1-1.2,2.6-2.9,3.6-2.2c1.3,0.8,0,2.7-0.4,4.1c-2,6-5,11.6-7.2,17.4
			c-0.5,1.3-1.2,3.8-0.8,5.2c-0.2,3.7-0.7,3.4-1.8,5.4c-1.9,3.3-3.2,5.8-6,8.6c-2.7,2.5-2.7,6.9-2.4,7.2c0.7,0.1,1.6-0.1,2-2.9
			c0.2-1.5,0.5-0.5,2.1-2.1c0.8-0.8,1.4-1.6,2.2-0.3c0.6,4.7-1.6,9.4,0.8,13.9c0.7,1.3-0.1,2.7,0.5,3.9c-0.1,0.2-0.1,0.3,0.1,0.4
			c0.8,0.4,1.2,0.1,1.3-0.7c0.1-1.1,0.2-2.1-0.2-3.2l0,0c-0.5-1.4-0.6-2.8,0-4.3c0.3-1.4-0.5-3.2,1.4-4.3c0.7,3.4,2.3,6.7,2.3,10.3
			c0,0.8-0.1,1.8,1.1,1.8c1-0.1,1.1-1,1.1-1.9c-0.2-2.5-0.3-5-0.7-7.5c-0.3-1.7,0.3-2.9,0.8-4.5c1.7,1.4,1.6,3.3,2,5
			c0.3,1.3,0.4,2.7,0.7,4c0.2,0.7,0.3,1.6,1.3,1.5s0.8-1.1,0.7-1.8c-0.5-3.3-1-6.7-1.2-10.1c1.1,1.6,2.5,3,2.7,5
			c0.1,0.5,0.1,1.1,0.2,1.6c0.2,1,0.3,2.4,1.4,2.2c1.2-0.2,0.6-1.6,0.6-2.6c0.1-3.7-2.7-6.4-3.4-9.8c-0.7-3-0.9-6-1.9-9
			c-0.6-1.6,0.1-3.2,0.6-4.7c1.9-5,5.4-9.1,7.7-13.9c2.7-5.6,5.9-11.1,5.9-17.7c0-3.3-0.7-4.6-3.8-5.5c-1.2-0.4-2.4-0.6-3.7-0.9
			c-0.7-0.2-1.6-0.3-1.6-1.2c-0.1-2.8-2.3-3.2-4.3-3.7c-1-0.3-2.1-0.4-3.2-0.7c-1.8-0.5-2.5-0.8-2.5-1.6c-1.7,0-3.1-1.6-4.7-2
			c-3-0.8-6.2,0.7-9.3-0.2c-1-0.3-1.7-0.8-2.5-1.4c-1.7-1.3-2.9-1.2-4.9-0.9c-1.9,0.2-5.1,0.4-5.9-1.5c-1.1-2.5,0-8.1,0.2-12.1
			c-3.1,0.2-10.1,0.4-13-0.5c-0.8,3.4-0.7,11-8.1,11.1h-0.1c-3.1,0-6.3-0.4-9.4,0c-3.4,0.5-5.5,2.5-6.2,5.9
			c-0.7,3.8-0.7,7.7-1.2,11.5c-1.2,10.2-4.8,19.7-9.9,28.6c-1.9,3.3-3.6,6.7-4.4,10.4c-1.3,5.4-3.3,10.5-5,15.7
			c-0.5,1.6-0.8,3,1,3.9c0.9,0.4,0.7,1.1,0.6,1.8c-0.2,2.8,0.2,5.7-2.8,7.6c-1.2,0.8-1.5,2.5-0.5,3.9s2.5,1.6,3.9,1.1
			c2.7-1.1,2.5,0.6,2.3,2.2c-0.2,2-1.3,3.7-1.4,5.7c-0.1,1.7-0.4,3.2,1.9,4c1.7,0.6,1.9,2.7,2.7,4.2c0.3,0.5,0.5,1,1.2,0.9
			c0.6-0.1,0.8-0.6,0.9-1.2c0.2-1.1,0.5-2.3,0.7-3.6c1.1,1.2,0.6,3.7,3.1,3c0.3-0.1,0.6,0.3,0.6,0.7c0,4.5,0.9,9.2-3.6,12.6
			c-2.4,1.8-4.5,4.1-6.8,6.2c-5.5,5.1-8.2,11.6-7.8,19.1c0.5,10.3,0.5,20.5-4,30.2c-0.4,1-0.7,2.1-0.8,3.1c-0.4,3.1,1.4,5.3,4.4,5
			c6.8-0.7,13.5-0.1,20.1,1.3c3.4,0.7,10.3-2.9,12-5.5c1.3-2,0.2-2.8-1.5-2.8c-5.2,0.1-10.1-1.9-15.2-1.8c-1,0-2-0.2-2.9-0.5
			c-3-0.8-4.9-3.7-4.5-6.7c0.7-5.1,2.5-10,4.6-14.6c3.6-7.8,8-15.1,14.1-21.3c5-5.2,9.7-10.7,11.1-18.1c0.5-2.5,2.5-4.1,4.7-5.7
			c1.6,5.4,2.7,10.8,3,16.2c0.1,2.5,1.3,4.3,3,5.8c5.5,5,11.7,9,17.6,13.5c1.3,1,2.7,1.8,3.9,3c5.7,5.6,11.6,11.2,15.4,18.3
			c2.5,4.7,3.8,10.1,4,15.5c0.1,2.7,3.7,8,6.2,8.9c0.8,0.3,1.6,0,2.4-0.2c6.3-1.3,9.4-7.8,6.2-13.3
			C1225,797.6,1222.4,794.1,1219.9,790.6z"/>
		<g>
			<g>
				<path class="st6" d="M1182.8,594.1c-5.2,3.2-11.1,7.2-11.9,14.3c-0.4,3.5-2,6.9-0.3,9.6c1.6,2.5,2.3,2.9,7.1,3.8
					c4.1,0.8,13.9-1.1,19.4-5.5c8.8-7.1,8.9-12.2,5-18.4S1191.8,588.5,1182.8,594.1z"/>
				<path class="st6" d="M1195.8,616.2c0.2-0.1,0.4-0.2,0.5-0.3c0.8,0.6,1.7,1.1,2.5,1.7c0.1,0.1,0.3,0.2,0.3,0.4s-0.1,0.4-0.2,0.5
					c-1.3,1.7-3.5,2.2-5.5,2.5c-1,0.1-2,0.2-2.9,0c-0.9-0.3-1.8-1-2-1.9"/>
				<path class="st6" d="M1182.9,594.4c0.2-0.1,0.3-0.2,0.5-0.4c-0.1-1-0.3-2-0.5-3c0-0.2-0.1-0.4-0.2-0.5s-0.3-0.1-0.5-0.1
					c-2,0.4-3.5,2.2-4.7,3.9c-0.5,0.8-1.1,1.7-1.2,2.6c-0.2,1,0.1,2,0.8,2.6"/>
			</g>
			<path class="st6" d="M1191.2,617.5c-0.8,0-1.7-0.1-2.5-0.1c1.2,0,2.5-0.1,3.7,0c-0.3,0-0.6,0.1-0.9,0.1
				C1191.4,617.5,1191.4,617.5,1191.2,617.5L1191.2,617.5z"/>
			<path class="st6" d="M1169.2,599.3c1.9-0.3,4.1-0.1,5.5-1.4c0.9-0.8,1.4-2.2,2.5-2.8c1-0.6,2.3-0.3,3.3-0.7
				c1.7-0.6,2.5-2.6,4.1-3.5c0.7-0.4,4.2-3.2,5.1-3.3c5.1-0.8,8.3,1.3,12.1,4.9c0.1-0.5,0.3-1.1,0.7-1.5c0.4-0.4,1.1-0.4,1.4,0.1
				c0.2-1.1-1.6-2.3-2-3.4c-1.4-3.4,1.6-3.7,3.3-1c0.2,0.3,3.1-1.5,3.5-1.3c2.7,1.5,3,4.6,5.1,6.9c2.1,2.3,3.5,5.4,3.1,8.5
				c-0.1,0.7-0.3,1.5-0.9,1.8c-0.4,0.2-0.9,0.1-1.2-0.1c0.3,0.8,0.6,1.7,0.6,2.5c0,1.1-0.7,2.3-1.8,2.5c-1,0.2-2.8,0.6-3.6-0.1
				c-1.7-1.5-2.2-4.3-3.1-6.3c-0.7,0.4-1,1.4-0.8,2.3c0.2,0.8,0.7,1.6,1.1,2.3c0.6,1.3,1,2.8,0.5,4.1s-2,2.3-3.4,1.8
				c-0.8,2.4-2.7,4.3-4.9,5.4c0-0.1,0-0.2-0.1-0.2c0.2-0.3,0-0.7-0.4-0.7c-2.1-0.1-4.1-0.1-6.1,0.3c-1.9-0.2-3.9-0.2-5.7,0.2
				c-0.4,0-0.8,0.1-1.2,0.1c0.2-3.3,0.4-6.6,0.4-9.9c0-1.2,0-2.5-0.9-3.3c-0.4-0.4-1-0.6-1.3-1.1c-0.5-0.9,0.4-2.2-0.2-3.1
				c-0.7-1.2-2.5-0.4-3.5,0.4c-0.3-0.5-0.6-1-1-1.4c-3.3,2.2-7.2,3.4-11.1,3.3c-1.1,0-2.6,0.3-2.5,1.4
				C1165.1,601,1167.3,599.5,1169.2,599.3z"/>
			<path class="st6" d="M1203.7,603.8c0.6,1.5,2.4,2.1,3.7,3.2c1.7,1.4,2.5,3.7,4.3,5c0.5,0.4,1.2,0.7,1.9,0.6
				c1.2-0.2,1.8-1.6,1.6-2.7c-0.2-1.2-0.9-2.1-1.7-3c-0.4-0.5-0.9-1.2-0.7-1.9c0.1-0.5,0.6-0.8,0.9-1.3c0.6-1,0-2.3-0.7-3.4
				c-1-1.5-1.9-3.1-2.9-4.6c-0.3-0.5-0.6-1-0.6-1.6c0-0.7,0.6-1.3,0.7-2c0.2-1-0.5-1.9-1-2.8c-1.1-1.9-1.4-4.4-3.1-5.8
				c-1.8-1.6-4.8-1.3-6.3,0.6c0.1,2.2,0.2,4.6-1.1,6.4c-0.3,0.5-0.8,1-0.9,1.6c0,0.3,0,0.6,0.1,1c0.7,2.8,1.3,5.5,2,8.3"/>
		</g>
	</g>
</g>
<g id="Слой_4_00000026858841058288001460000007112771483635806886_">
	<g>
		<path class="st2" d="M943.1,596.4c0,0,2.5,7.9,1.4,10.8c-0.1,0.3-2.3,4.4-5.9-3.3c-0.9,1.5-1.1,3.3-0.6,4.9c-1.7-0.8-2.4-1.1-2-3
			c-0.5,0.1-3.1,2.4-3.6,2.5c0.4-0.6,2.3-3.8,2.7-4.5c-1,0.6-3.2,1.5-4.2,2c0.3-1.1,1.5-2.5,2.2-3.4c-1.8,1.1-8,1.4-11.3,0.7
			c-0.6-0.1-3.2-5.8-3.2-5.8c0.9-4.1,6.6-11.3,7.8-10.6c-1.1-0.7-1.3-0.5-2.4-1.1c0.3,0,0.7,0,1,0c-0.8-0.5-1.7-1.1-2.5-1.6
			c0.5-0.6,1.5-0.7,2.2-0.5c0.8,0.2,1.4,0.8,2,1.3c0-0.7-0.2-1.5-0.6-2.1c0.9,0,1.8,0.4,2.4,1c0.3-0.6-0.6-1-1.2-1.3
			c-1-0.4-1.7-1.6-1.6-2.7c0.9,0.9,1.9,1.6,3.1,2.1c-0.2-0.5-0.5-0.9-0.7-1.4c0.6-0.1,1.3-0.1,1.9,0.1c-0.7-0.5-0.9-1.8-0.1-2.3
			c-0.6,0.7,0.4,1.6,1.2,2c1.1,0.5,2.3,1,3.4,1.5c0.1-0.1,5.4-3.7,8.1-2.2c4.1,2.3,5.8,9.1,5.5,11
			C947.7,592.6,946.5,594.6,943.1,596.4z"/>
		<g>
			<path class="st2" d="M957.9,731.8c-0.2-0.8-0.7-1.4-1.4-1.8c-3.9-1.9-6.2-5.5-7.1-9.4c-1.2-5.2-4.7-8.8-7.2-13.1
				c-2.3-4-6-7.4-6.7-12.2c-0.9-6.3-1.9-12.6-2-18.9c0-2.8,1-6,3.3-9.1c0.1,3,0.1,5.2,0.3,7.4c0.1,1.5-0.5,4.6,1.1,4.4
				c1.9-0.2,1.8,0.6,1.3,1.6c-1.6,3.2-2,4-1.5,9.7c0.1,0.8,0.6,4.5,1.1,4.4c1.3-0.2,1-1.9,1-2.8c0-0.6-0.5-1.2,0.2-1.8
				c1.8,2,1.2,4.3,0.7,6.4c-0.4,1.4-0.5,2.5,1.1,3.2c0.7-0.4,0.6-1.3,1.1-1.9c-0.3,0.5-0.4,1.1,0,1.5c0.4,0.6,2.1-1.6,2.5-3.1
				c1-3.5,1.5-5.7,1.6-5.9c0,0-0.2-3-1-5.3c-0.9-2.5-2.3-4.4-2.4-7.1c0-0.6,0.7-0.9,1.3-1c2.1-0.3,1.4-1.9,1.3-2.9
				c-1.6-14.6-1.8-29.3-3.2-44c-0.2-2.5-0.9-7.6-1.8-10c-2.4-6.5-5.5-6.7-5.2-6.8h-0.1c-2.7-0.9-5.3-2.6-7.7-4.2
				c-1.7-1.1-1.4-1.3-2.9-2.6c-0.1,0.1-5.4-1.8-5.6-1.7c-5.6-2.3-12.8-2.1-17.2-5.2c-5.1-3.6-12.1-2.7-14.3-0.7
				c-5.9,5.5-6.9,6.4-0.9,15.5c1,1.5,5.9-1.8,9.9-0.4c0-0.4,0.2-0.7,0.9-0.6c2.8,0.2,8.9,6,8.5,8.7c-0.9,6.7,1.3,13.8-2.4,20.1
				c-0.1,0.2-0.2,0.6-0.1,0.9c1,2.8-0.9,4.7-2,6.9c-0.6,1.4-1.7,2.5-0.2,4.5c1.1,1.4,1.9,3.6,1.3,6c-1.4,6.1-1.8,12.4-2.1,18.7
				c-0.4,7.9-0.1,16-4,23.3c-2.1,3.9-4,7.5-3.5,12.3c0.6,5.1,1.4,10.3-0.4,15.7c-1.1,3.3-0.6,7.4-1.9,10.9c0.2,1.2-0.8,2.4,0.2,3.4
				c1.3,1.1,6.6,2.1,8.7,1c2.9-1.4,2.6-1.8,1.7-4.1c-2.3-5.7-2.6-11.6-1.4-17.6c0.7-3.7,3.8-6.3,4.5-9.9c0.1-0.3,0.3-0.5,0.4-0.8
				c0.3-0.6,0.3-1.2,0.3-1.2s1.2,5.8,1.8,9.1c0.1,0.9-0.3-8.5,0.9-7.9c0.4,0.3,1.6,0.5,1.9,0.1c-0.1-4.9-0.3-9,3.2-13.2
				c0.7-0.8,0.7-2.2,0.8-3.4c0.6-5.7,1.1-11.4,1.7-17.8c1.6,3,1.5,5.6,1.9,8.1c1.4,9,3.1,17.8,9.2,25.2c2,2.4,3.3,5.6,3.6,8.9
				c0.2,2,1.5,3.2,1.8,5.1c0.1-3,0.1-4,0.3-6.3c0,2.5,2.7,2.1,3.4,3.7c2.4-1.8,2.8,2.7,5,1.6c3.1,3.2,6.2,6.3,8.8,10
				c1.6,2.3,1.3,7.7-0.8,9c-2.4,1.4-2.5,2.6-1.1,3.8c1.7,0.9,3.4,1,5.2,0.4c1.7-0.5,3.7-1.5,4.1-2c1.3-1.5,4.2-8.5,2.8-10
				C959.4,735.2,958.3,733.8,957.9,731.8z"/>
		</g>
		<path class="st2" d="M899.8,614.7c2.4,1,3.5,3.9,3.3,4.2c-0.4,0.2-1,0.3-2-1.4c-0.5-0.9-0.5-0.2-1.9-0.9c-0.7-0.3-1.3-0.7-1.5,0.3
			c0.8,3.2,3.3,5.8,2.9,9.4c-0.1,1,0.7,1.8,0.7,2.7c0.1,0.1,0.1,0.2,0,0.3c-0.4,0.5-0.8,0.4-1-0.1c-0.3-0.7-0.7-1.4-0.7-2.1l0,0
			c0-1.1-0.3-2-1.1-2.8c-0.5-0.9-0.4-2.3-2-2.5c0.4,2.5,0.1,5,1,7.4c0.2,0.5,0.5,1.2-0.3,1.4c-0.7,0.2-1-0.4-1.2-1
			c-0.5-1.7-1.1-3.4-1.4-5.2c-0.2-1.2-0.9-1.9-1.6-2.8c-0.8,1.4-0.3,2.6-0.1,3.8c0.1,0.9,0.4,1.9,0.5,2.8c0.1,0.5,0.2,1.1-0.5,1.3
			c-0.7,0.1-0.8-0.5-0.9-1c-0.5-2.3-1-4.7-1.7-7c-0.3,1.3-0.9,2.6-0.6,4c0.1,0.4,0.2,0.7,0.3,1.1c0.1,0.7,0.4,1.7-0.4,1.8
			c-0.8,0.2-0.8-0.9-1-1.5c-1-2.4,0.2-4.9-0.1-7.3c-0.3-1.9-0.8-3.8-0.9-5.8l7-2.6C896.4,612.6,897.7,613.7,899.8,614.7z"/>
		<path class="st2" d="M932.2,613.2c-1.8-2.6,0.6-11.9,0.7-12.6c-1.3,0.9-10.5-4.5-9.2-3.2c0.1,0.1-4.6,4.9-6.2,6.8
			c-0.4,0.4,1.8,0.9,1.6,1.5c-0.3,1,0.2,2.1,1,2.9c0.6,0.7,1.5,1.2,2.4,1.5"/>
	</g>
</g>
<g id="Слой_4">
	<path class="st10" d="M1533.4,1012.5H97.6c-49.5,0-89.6-40.1-89.6-89.6V99.1C8,49.6,48.1,9.5,97.6,9.5h1435.8
		c49.5,0,89.6,40.1,89.6,89.6v823.8C1623,972.4,1582.9,1012.5,1533.4,1012.5z"/>
</g>
</svg>
